<svg width="100" height="100" viewBox="0 0 100 100" fill="none" xmlns="http://www.w3.org/2000/svg">
<g clip-path="url(#clip0)">
<path d="M59.8227 48.373H40.177C34.7697 48.373 30.3862 43.9895 30.3862 38.5826V33.6128H69.6131V38.5826C69.6135 43.9895 65.2301 48.373 59.8227 48.373Z" fill="#135E8A" fill-opacity="0.43"/>
<path d="M65.6944 33.6128V36.4368C65.6944 41.8441 61.3109 46.2276 55.9036 46.2276H36.2579C35.3526 46.2276 34.476 46.104 33.644 45.874C35.3771 47.4277 37.6663 48.3734 40.1771 48.3734H59.8228C65.2301 48.3734 69.6136 43.9899 69.6136 38.5826V33.6128H65.6944Z" fill="#135E8A" fill-opacity="0.63"/>
<path d="M61.7081 68.8942H38.292C31.8467 68.8942 26.6221 63.6696 26.6221 57.2243V51.2756H73.3781V57.2243C73.3781 63.6696 68.1531 68.8942 61.7081 68.8942Z" fill="#135E8A" fill-opacity="0.43"/>
<path d="M69.0525 51.2756V57.2247C69.0525 63.6696 63.8275 68.8942 57.3826 68.8942H61.7081C68.153 68.8942 73.378 63.6696 73.378 57.2247V51.2756H69.0525Z" fill="#135E8A" fill-opacity="0.63"/>
<path d="M69.6457 33.7231H30.3543C29.6203 33.7231 29.0256 33.1284 29.0256 32.3948V32.3833C29.0256 31.6494 29.6203 31.0547 30.3543 31.0547H69.6461C70.3796 31.0547 70.9743 31.6494 70.9743 32.3833V32.3948C70.9743 33.1284 70.3796 33.7231 69.6457 33.7231Z" fill="#3A4C68"/>
<path d="M69.6458 31.0547H66.0081C66.7416 31.0547 67.3363 31.6494 67.3363 32.3833V32.3948C67.3363 33.1284 66.7416 33.7231 66.0081 33.7231H69.6458C70.3797 33.7231 70.9744 33.1284 70.9744 32.3948V32.3833C70.9744 31.6494 70.3797 31.0547 69.6458 31.0547Z" fill="#283449"/>
<path d="M41.3406 31.0547H58.6593V48.3734H41.3406V31.0547Z" fill="#CD9C7A"/>
<path d="M55.9036 46.2277H41.3406V48.3734H58.6593V45.834C57.785 46.0896 56.8607 46.2277 55.9036 46.2277Z" fill="#CD9C7A"/>
<path d="M54.3254 35.7838H45.6745C45.2575 35.7838 44.9199 35.4462 44.9199 35.0292C44.9199 34.6123 45.2575 34.2747 45.6745 34.2747H54.3254C54.7424 34.2747 55.08 34.6123 55.08 35.0292C55.08 35.4462 54.7424 35.7838 54.3254 35.7838Z" fill="white"/>
<path d="M50 38.8474H45.6745C45.2575 38.8474 44.9199 38.5094 44.9199 38.0928C44.9199 37.6759 45.2575 37.3383 45.6745 37.3383H50C50.4169 37.3383 50.7545 37.6759 50.7545 38.0928C50.7545 38.5094 50.4169 38.8474 50 38.8474Z" fill="white"/>
<path d="M50 44.6331H45.6745C45.2575 44.6331 44.9199 44.2955 44.9199 43.8786C44.9199 43.4616 45.2575 43.124 45.6745 43.124H50C50.4169 43.124 50.7545 43.4616 50.7545 43.8786C50.7545 44.2955 50.4169 44.6331 50 44.6331Z" fill="white"/>
<path d="M73.4165 51.4324H26.5835C25.7092 51.4324 25 50.7233 25 49.8489V49.8352C25 48.9609 25.7092 48.2517 26.5835 48.2517H73.4165C74.2908 48.2517 75 48.9609 75 49.8352V49.8489C75 50.7233 74.2908 51.4324 73.4165 51.4324Z" fill="#3A4C68"/>
<path d="M73.4165 48.2517H67.7361C68.6108 48.2517 69.3199 48.9605 69.3199 49.8352V49.8485C69.3199 50.7233 68.6108 51.432 67.7361 51.432H73.4165C74.2913 51.432 75 50.7233 75 49.8485V49.8352C75 48.9605 74.2909 48.2517 73.4165 48.2517Z" fill="#283449"/>
<path d="M39.6785 48.2517H60.3209V68.8942H39.6785V48.2517Z" fill="#CD9C7A"/>
<path d="M52.5692 53.4824H43.9183C43.5013 53.4824 43.1633 53.1445 43.1633 52.7279C43.1633 52.3109 43.5013 51.973 43.9183 51.973H52.5692C52.9858 51.973 53.3238 52.3109 53.3238 52.7279C53.3238 53.1445 52.9858 53.4824 52.5692 53.4824Z" fill="white"/>
<path d="M48.2437 56.5457H43.9183C43.5013 56.5457 43.1633 56.2081 43.1633 55.7911C43.1633 55.3745 43.5013 55.0366 43.9183 55.0366H48.2437C48.6603 55.0366 48.9983 55.3745 48.9983 55.7911C48.9983 56.2081 48.6603 56.5457 48.2437 56.5457Z" fill="white"/>
<path d="M48.2437 65.5205H43.9183C43.5013 65.5205 43.1633 65.1825 43.1633 64.7655C43.1633 64.349 43.5013 64.011 43.9183 64.011H48.2437C48.6603 64.011 48.9983 64.349 48.9983 64.7655C48.9983 65.1825 48.6603 65.5205 48.2437 65.5205Z" fill="white"/>
</g>
<rect x="0.5" y="0.5" width="99" height="99" rx="49.5" stroke="#DADADA" stroke-miterlimit="2.3662" stroke-linecap="round"/>
<defs>
<clipPath id="clip0">
<rect x="25" y="25" width="50" height="50" fill="white"/>
</clipPath>
</defs>
</svg>
