<svg width="101" height="100" viewBox="0 0 101 100" fill="none" xmlns="http://www.w3.org/2000/svg">
<g clip-path="url(#clip0)">
<path d="M49.5212 39.8142H47.4212V36.8703H49.5212C50.4495 36.8703 51.3397 36.4826 51.9961 35.7925C52.6524 35.1024 53.0212 34.1664 53.0212 33.1905C53.0212 32.2145 52.6524 31.2785 51.9961 30.5884C51.3397 29.8983 50.4495 29.5106 49.5212 29.5106H48.8212C48.0788 29.5115 47.3671 29.822 46.8422 30.3738C46.3173 30.9257 46.022 31.674 46.0212 32.4545V33.8317H43.2212V32.4545C43.2229 30.8935 43.8134 29.397 44.8632 28.2932C45.9131 27.1894 47.3365 26.5685 48.8212 26.5668H49.5212C51.1921 26.5668 52.7945 27.2646 53.976 28.5068C55.1575 29.749 55.8212 31.4338 55.8212 33.1905C55.8212 34.9472 55.1575 36.6319 53.976 37.8741C52.7945 39.1163 51.1921 39.8142 49.5212 39.8142Z" fill="#135E8A" fill-opacity="0.8"/>
<path d="M71.2212 36.7756H68.4212V30.2466C68.4212 30.0514 68.3475 29.8642 68.2162 29.7262C68.0849 29.5882 67.9069 29.5106 67.7212 29.5106H63.5212C63.3356 29.5106 63.1575 29.5882 63.0263 29.7262C62.895 29.8642 62.8212 30.0514 62.8212 30.2466V36.7756H60.0212V30.2466C60.0223 29.271 60.3913 28.3356 61.0475 27.6458C61.7036 26.9559 62.5933 26.5678 63.5212 26.5668H67.7212C68.6492 26.5678 69.5388 26.9559 70.195 27.6458C70.8511 28.3356 71.2202 29.271 71.2212 30.2466V36.7756Z" fill="#135E8A" fill-opacity="0.8"/>
<path d="M41.1214 32.4543H48.1214C48.307 32.4543 48.4851 32.5319 48.6164 32.6699C48.7476 32.8079 48.8214 32.9951 48.8214 33.1903V38.3421H40.4214V33.1903C40.4214 32.9951 40.4951 32.8079 40.6264 32.6699C40.7577 32.5319 40.9357 32.4543 41.1214 32.4543Z" fill="#135E8A"/>
<path d="M30.6212 33.8316H27.8212V28.3118C27.8212 28.2143 27.7843 28.1207 27.7187 28.0516C27.653 27.9826 27.564 27.9439 27.4712 27.9439H25.3712C25.2784 27.9439 25.1893 27.9826 25.1237 28.0516C25.0581 28.1207 25.0212 28.2143 25.0212 28.3118V33.8316H22.2212V28.3118C22.2222 27.4338 22.5543 26.592 23.1449 25.9711C23.7354 25.3503 24.5361 25.001 25.3712 25H27.4712C28.3063 25.001 29.107 25.3503 29.6975 25.9711C30.288 26.592 30.6202 27.4338 30.6212 28.3118V33.8316Z" fill="#135E8A" fill-opacity="0.8"/>
<path d="M30.2713 72.1965H22.5713C22.3415 72.1965 22.1139 72.1489 21.9016 72.0564C21.6893 71.964 21.4964 71.8284 21.3339 71.6576C21.1713 71.4867 21.0424 71.2839 20.9545 71.0607C20.8666 70.8374 20.8213 70.5982 20.8213 70.3566V42.8104C20.8213 41.8345 21.1901 40.8985 21.8464 40.2084L23.6213 38.342V36.7755H29.2213V38.342L30.9961 40.2082C31.3212 40.55 31.579 40.9557 31.7549 41.4021C31.9308 41.8486 32.0213 42.3272 32.0213 42.8104V70.3566C32.0213 70.5982 31.976 70.8374 31.8881 71.0607C31.8001 71.2839 31.6712 71.4867 31.5087 71.6576C31.3462 71.8284 31.1533 71.964 30.941 72.0564C30.7287 72.1489 30.5011 72.1965 30.2713 72.1965Z" fill="#4B4F51"/>
<path d="M71.9212 72.1965H59.3212C58.7642 72.1965 58.2301 71.9639 57.8363 71.5499C57.4424 71.1358 57.2212 70.5742 57.2212 69.9886V44.5305C57.2212 43.9852 57.3492 43.4485 57.5939 42.9677C57.8386 42.487 58.1923 42.0773 58.6238 41.7748L61.4212 39.814H69.8212L72.6186 41.7748C73.05 42.0773 73.4038 42.487 73.6485 42.9677C73.8932 43.4485 74.0212 43.9852 74.0212 44.5305V69.9886C74.0212 70.5742 73.7999 71.1358 73.4061 71.5499C73.0123 71.9639 72.4781 72.1965 71.9212 72.1965Z" fill="#1DB776"/>
<path d="M71.2212 39.8139H60.0212V34.2941C60.0212 34.1965 60.0581 34.1029 60.1238 34.0339C60.1894 33.9649 60.2784 33.9261 60.3712 33.9261H70.8712C70.964 33.9261 71.0531 33.9649 71.1187 34.0339C71.1843 34.1029 71.2212 34.1965 71.2212 34.2941V39.8139Z" fill="#135E8A"/>
<path d="M22.2212 32.3597H30.6212V38.2475H22.2212V32.3597Z" fill="#135E8A"/>
<path d="M49.8713 72.1964H39.3713C39.1415 72.1964 38.914 72.1488 38.7016 72.0564C38.4893 71.9639 38.2964 71.8284 38.1339 71.6575C37.9714 71.4867 37.8425 71.2838 37.7545 71.0606C37.6666 70.8374 37.6213 70.5981 37.6213 70.3565V42.8104C37.6214 41.8345 37.9901 40.8985 38.6465 40.2084L40.4213 38.342H48.8213L50.5962 40.2082C50.9212 40.5499 51.179 40.9556 51.3549 41.4021C51.5308 41.8486 51.6214 42.3271 51.6213 42.8104V70.3565C51.6213 70.5981 51.5761 70.8374 51.4881 71.0606C51.4002 71.2838 51.2713 71.4867 51.1088 71.6575C50.9463 71.8284 50.7534 71.9639 50.541 72.0564C50.3287 72.1488 50.1012 72.1964 49.8713 72.1964Z" fill="#F2F2F2"/>
<path d="M76.8213 82.5C84.5533 82.5 90.8213 75.9099 90.8213 67.7807C90.8213 59.6514 84.5533 53.0613 76.8213 53.0613C69.0893 53.0613 62.8213 59.6514 62.8213 67.7807C62.8213 75.9099 69.0893 82.5 76.8213 82.5Z" fill="#F5C108"/>
<path d="M71.8714 78.6204C71.5776 78.6204 71.2912 78.5231 71.0528 78.3424C70.8144 78.1617 70.6362 77.9067 70.5434 77.6136L69.5534 74.4911C69.4536 74.1765 69.4577 73.8357 69.5652 73.5239C69.6727 73.2121 69.8771 72.9476 70.1454 72.7733C70.4137 72.5989 70.7302 72.5249 71.0435 72.5633C71.3568 72.6017 71.6486 72.7502 71.8716 72.9848C73.1844 74.3649 74.9648 75.1403 76.8213 75.1403C78.6778 75.1403 80.4583 74.3649 81.771 72.9848C82.6381 72.0695 83.2617 70.9312 83.5798 69.6835C83.8978 68.4357 83.8992 67.1221 83.5837 65.8737C83.5362 65.6869 83.5242 65.4922 83.5484 65.3005C83.5725 65.1089 83.6324 64.9241 83.7244 64.7568C83.9104 64.4189 84.2164 64.1725 84.5751 64.0717C84.9339 63.971 85.316 64.0243 85.6374 64.2198C85.7965 64.3166 85.936 64.4454 86.0478 64.5988C86.1596 64.7523 86.2415 64.9274 86.289 65.1141C86.7303 66.8615 86.7283 68.7 86.2831 70.4462C85.8378 72.1925 84.9649 73.7855 83.7515 75.0664C82.4034 76.4807 80.6935 77.4525 78.8298 77.8637C76.966 78.2749 75.0288 78.1077 73.2538 77.3825C73.2005 77.7277 73.0321 78.0417 72.7788 78.2683C72.5256 78.495 72.2039 78.6195 71.8712 78.6197L71.8714 78.6204Z" fill="#D18D28"/>
<path d="M68.5362 70.7248C68.2054 70.7244 67.8854 70.6008 67.633 70.376C67.3806 70.1512 67.212 69.8396 67.1572 69.4966C66.8508 67.5878 67.0619 65.6268 67.7664 63.8383C68.471 62.0498 69.6404 60.5061 71.1408 59.3841C72.6411 58.262 74.4118 57.607 76.2499 57.494C78.088 57.381 79.9191 57.8147 81.5337 58.7453C81.6833 58.4589 81.9192 58.233 82.2044 58.1031C82.4896 57.9733 82.8078 57.9469 83.1088 58.0281C83.4098 58.1094 83.6766 58.2936 83.867 58.5518C84.0575 58.81 84.1608 59.1274 84.1608 59.4542V61.5357C84.1608 61.8268 84.0787 62.1114 83.9248 62.3535C83.771 62.5955 83.5523 62.7842 83.2965 62.8956C83.0407 63.007 82.7592 63.0362 82.4876 62.9794C82.216 62.9226 81.9666 62.7824 81.7708 62.5765C80.7211 61.4727 79.3647 60.7483 77.8977 60.5081C76.4307 60.2679 74.9291 60.5243 73.6098 61.2402C72.2905 61.9562 71.2219 63.0946 70.5584 64.491C69.8949 65.8874 69.6709 67.4694 69.9187 69.0085C69.9492 69.1991 69.9437 69.3942 69.9025 69.5826C69.8612 69.771 69.7851 69.949 69.6784 70.1065C69.5718 70.2639 69.4366 70.3978 69.2808 70.5003C69.1249 70.6029 68.9514 70.6721 68.77 70.7042C68.6928 70.7178 68.6146 70.7247 68.5362 70.7248Z" fill="#D18D28"/>
<path d="M37.6213 42.6632H41.8213V45.6071H37.6213V42.6632Z" fill="#F2F2F2"/>
<path d="M44.6213 42.6632H47.4213V45.6071H44.6213V42.6632Z" fill="#F2F2F2"/>
<path d="M20.8213 42.6632H27.8213V45.6071H20.8213V42.6632Z" fill="#4B4F51"/>
<path d="M57.2212 44.1351H61.4212V47.0789H57.2212V44.1351Z" fill="#1DB776"/>
<path d="M64.2212 44.1352H74.0212V47.0791H64.2212V44.1352Z" fill="#1DB776"/>
</g>
<rect x="1.42139" y="0.5" width="99" height="99" rx="49.5" stroke="#DADADA" stroke-miterlimit="2.3662" stroke-linecap="round"/>
<defs>
<clipPath id="clip0">
<rect x="15.9214" y="25" width="70" height="75" fill="white"/>
</clipPath>
</defs>
</svg>
