<svg width="450" height="500" viewBox="0 0 450 500" fill="none" xmlns="http://www.w3.org/2000/svg">
<g clip-path="url(#clip0)">
<path d="M242.736 500C357.205 500 450 404.261 450 286.161C450 168.061 357.205 72.3215 242.736 72.3215C128.267 72.3215 35.4712 168.061 35.4712 286.161C35.4712 404.261 128.267 500 242.736 500Z" fill="#F2F2F2"/>
<path d="M121.703 248.346C123.181 245.684 123.945 242.663 123.916 239.595C123.916 231.685 119.169 225.273 113.312 225.273C107.456 225.273 102.709 231.685 102.709 239.595C102.68 242.663 103.444 245.684 104.922 248.346C103.471 251.02 102.709 254.034 102.709 257.098C102.709 260.163 103.471 263.176 104.922 265.85C103.471 268.524 102.709 271.538 102.709 274.602C102.709 277.667 103.471 280.68 104.922 283.354C103.471 286.028 102.709 289.042 102.709 292.106C102.709 295.171 103.471 298.184 104.922 300.858C103.444 303.521 102.68 306.542 102.709 309.61C102.709 317.52 107.456 323.932 113.312 323.932C119.169 323.932 123.916 317.52 123.916 309.61C123.945 306.542 123.181 303.521 121.703 300.858C123.154 298.184 123.916 295.171 123.916 292.106C123.916 289.042 123.154 286.028 121.703 283.354C123.154 280.68 123.916 277.667 123.916 274.602C123.916 271.538 123.154 268.524 121.703 265.85C123.154 263.176 123.916 260.163 123.916 257.098C123.916 254.034 123.154 251.02 121.703 248.346Z" fill="#3F3D56"/>
<path d="M113.312 236.412C119.169 236.412 123.916 230 123.916 222.091C123.916 214.181 119.169 207.769 113.312 207.769C107.456 207.769 102.709 214.181 102.709 222.091C102.709 230 107.456 236.412 113.312 236.412Z" fill="#3F3D56"/>
<path d="M113.312 218.908C119.169 218.908 123.916 212.496 123.916 204.587C123.916 196.677 119.169 190.265 113.312 190.265C107.456 190.265 102.709 196.677 102.709 204.587C102.709 212.496 107.456 218.908 113.312 218.908Z" fill="#3F3D56"/>
<path d="M153.007 84.8018C154.455 82.899 155.775 80.8952 156.956 78.8046L129.094 74.0836L159.227 74.3148C162.118 67.8259 163.695 60.7966 163.862 53.6572C164.028 46.5178 162.781 39.4184 160.197 32.7933L119.77 54.4302L157.053 26.1548C153.56 19.9273 148.862 14.5086 143.251 10.2363C137.639 5.96394 131.235 2.92946 124.438 1.32189C117.64 -0.285687 110.595 -0.431919 103.74 0.892302C96.8855 2.21652 90.3685 4.98282 84.5953 9.01888C78.822 13.0549 73.9161 18.2743 70.1832 24.3518C66.4504 30.4293 63.9705 37.2347 62.898 44.3442C61.8255 51.4536 62.1835 58.7147 63.9496 65.6752C65.7156 72.6357 68.852 79.1464 73.1633 84.8018C70.9052 87.7633 68.9632 90.9673 67.3708 94.3583L103.537 113.744L64.9737 100.391C62.2659 108.649 61.5967 117.474 63.0267 126.066C64.4567 134.658 67.9406 142.747 73.1633 149.601C67.2705 157.33 63.6047 166.615 62.5851 176.392C61.5656 186.17 63.2333 196.046 67.3978 204.892C71.5623 213.738 78.0553 221.197 86.1346 226.415C94.2138 231.633 103.553 234.4 113.085 234.4C122.617 234.4 131.956 231.633 140.035 226.415C148.115 221.197 154.608 213.738 158.772 204.892C162.937 196.046 164.605 186.17 163.585 176.392C162.565 166.615 158.9 157.33 153.007 149.601C160.048 140.364 163.876 128.953 163.876 117.201C163.876 105.45 160.048 94.0389 153.007 84.8018L153.007 84.8018Z" fill="#1DB776"/>
<path opacity="0.1" d="M62.2938 117.201C62.2762 128.956 66.1063 140.372 73.1634 149.601C67.2705 157.33 63.6047 166.615 62.5852 176.392C61.5656 186.17 63.2334 196.047 67.3978 204.892C71.5623 213.738 78.0553 221.197 86.1346 226.415C94.2139 231.633 103.553 234.4 113.085 234.4C122.617 234.4 131.956 231.633 140.036 226.415C148.115 221.197 154.608 213.738 158.772 204.892C162.937 196.047 164.605 186.17 163.585 176.392C162.565 166.615 158.9 157.33 153.007 149.601C159.814 140.684 62.2938 111.32 62.2938 117.201Z" fill="black"/>
<path d="M392.071 427.417C378.927 475.739 277.51 520.555 169.663 489.33C61.8153 458.104 -11.6235 362.661 1.52007 314.339C14.6636 266.018 109.412 283.117 217.26 314.343C325.108 345.568 405.214 379.096 392.071 427.417Z" fill="#3F3D56"/>
<path opacity="0.1" d="M392.071 427.417C378.927 475.739 277.51 520.555 169.663 489.33C61.8153 458.104 -11.6235 362.661 1.52007 314.339C14.6636 266.018 109.412 283.117 217.26 314.343C325.108 345.568 405.214 379.096 392.071 427.417Z" fill="black"/>
<path d="M392.071 427.417C405.214 379.096 328.442 314.61 220.594 283.385C112.746 252.159 14.6636 266.018 1.52 314.339C-11.6236 362.661 65.1492 427.146 172.997 458.372C280.844 489.597 378.927 475.739 392.071 427.417Z" fill="#3F3D56"/>
<path opacity="0.1" d="M163.831 391.647C196.668 391.647 223.287 383.69 223.287 373.875C223.287 364.06 196.668 356.103 163.831 356.103C130.994 356.103 104.374 364.06 104.374 373.875C104.374 383.69 130.994 391.647 163.831 391.647Z" fill="black"/>
<path d="M237.043 271.602L161.843 349.188L130.236 316.578C128.21 314.487 125.461 313.313 122.596 313.313C119.73 313.313 116.982 314.487 114.956 316.578L113.82 314.826C109.601 319.179 110.736 327.989 114.956 332.342L155.966 374.653C157.511 376.248 159.607 377.144 161.793 377.144C163.979 377.145 166.075 376.25 167.621 374.656L252.315 287.367C256.537 283.015 258.069 275.036 253.849 270.682C249.631 266.33 241.261 267.25 237.043 271.602Z" fill="#1DB776"/>
<path opacity="0.1" d="M237.043 271.602L161.843 349.188L130.236 316.578C128.21 314.487 125.461 313.313 122.596 313.313C119.73 313.313 116.982 314.487 114.956 316.578L113.82 314.826C109.601 319.179 110.736 327.989 114.956 332.342L155.966 374.653C157.511 376.248 159.607 377.144 161.793 377.144C163.979 377.145 166.075 376.25 167.621 374.656L252.315 287.367C256.537 283.015 258.069 275.036 253.849 270.682C249.631 266.33 241.261 267.25 237.043 271.602Z" fill="black"/>
<path d="M237.043 268.162L161.843 345.748L130.236 313.138C128.209 311.047 125.461 309.873 122.596 309.873C119.73 309.873 116.982 311.047 114.956 313.138C113.953 314.173 113.157 315.402 112.614 316.754C112.071 318.107 111.791 319.556 111.791 321.02C111.791 322.484 112.071 323.934 112.614 325.286C113.157 326.639 113.953 327.867 114.956 328.903L155.966 371.213C157.511 372.808 159.607 373.704 161.793 373.704C163.979 373.705 166.075 372.81 167.621 371.216L252.315 283.927C253.319 282.892 254.116 281.664 254.659 280.311C255.203 278.959 255.483 277.509 255.483 276.045C255.483 274.581 255.204 273.132 254.661 271.779C254.118 270.426 253.322 269.197 252.319 268.162C250.293 266.072 247.546 264.898 244.681 264.898C241.816 264.898 239.069 266.072 237.043 268.162Z" fill="#1DB776"/>
<path d="M273.662 400.232C273.662 400.232 266.937 402.314 263.575 406.477C263.575 406.477 257.522 409.253 253.823 408.559C250.124 407.865 243.399 414.803 248.779 416.885C254.159 418.966 287.113 424.517 287.785 422.783C288.458 421.048 288.458 403.355 288.458 403.355L273.662 400.232Z" fill="#F5C108"/>
<path d="M326.49 397.253C326.49 397.253 320.208 400.489 317.584 405.184C317.584 405.184 312.08 408.985 308.321 408.953C304.561 408.921 299.084 416.943 304.729 418.046C310.375 419.149 343.763 418.811 344.139 416.983C344.514 415.156 341.585 397.722 341.585 397.722L326.49 397.253Z" fill="#F5C108"/>
<path d="M284.591 162.067C292.948 162.067 299.723 155.078 299.723 146.456C299.723 137.834 292.948 130.844 284.591 130.844C276.234 130.844 269.459 137.834 269.459 146.456C269.459 155.078 276.234 162.067 284.591 162.067Z" fill="#FFB9B9"/>
<path d="M296.864 149.058C296.864 149.058 298.546 160.853 301.572 162.241C303.678 163.31 305.607 164.715 307.289 166.404L298.882 170.567L282.405 169.526C282.405 169.526 283.75 161.894 281.397 158.078C279.043 154.262 296.864 149.058 296.864 149.058Z" fill="#FFB9B9"/>
<path d="M328.136 204.913C328.136 204.913 335.87 225.381 328.136 245.156C320.402 264.931 317.04 268.053 317.04 268.053L314.686 242.034L317.393 239.501C317.393 239.501 319.032 231.607 317.699 226.933C316.367 222.259 318.385 207.688 318.385 207.688L328.136 204.913Z" fill="#FFB9B9"/>
<path d="M270.3 249.319C270.3 249.319 260.548 272.217 261.557 283.318C262.566 294.42 270.3 341.255 270.3 341.255C270.3 341.255 269.291 401.62 272.317 401.62C275.344 401.62 289.803 407.171 289.803 403.355C289.803 399.539 292.829 307.95 292.829 307.95C292.829 307.95 309.978 348.193 311.66 351.316C313.341 354.438 324.101 403.355 327.8 403.355C331.499 403.355 342.932 399.886 341.923 397.457C340.914 395.029 329.482 340.908 323.093 327.031C316.704 313.154 318.049 260.768 318.049 260.768L307.288 236.483L270.3 249.319Z" fill="#2F2E41"/>
<path d="M280.051 139.344C280.051 139.344 270.636 138.65 269.964 136.221C269.291 133.793 267.946 131.711 268.619 131.711C269.291 131.711 269.627 129.977 269.627 129.977C269.627 129.977 270.3 129.63 270.636 129.977C270.972 130.324 271.309 127.548 271.309 127.548C271.309 127.548 271.645 126.507 271.981 127.201C272.317 127.895 272.317 127.548 272.654 126.507C272.99 125.467 274.671 124.773 274.671 124.773C274.671 124.773 281.06 125.12 282.069 123.732C283.078 122.344 294.511 123.385 296.864 125.12C299.218 126.854 309.642 133.099 307.961 138.303C306.28 143.507 300.227 154.955 300.227 156.69C300.227 158.425 297.873 158.078 297.201 156.343C296.528 154.608 291.148 152.527 291.148 151.486C291.148 150.445 288.122 140.731 286.44 141.425C284.759 142.119 282.742 147.67 282.069 146.629C281.396 145.588 280.051 139.344 280.051 139.344Z" fill="#3F3D56"/>
<path d="M326.455 186.872C326.455 186.872 312.669 166.057 308.634 165.016C304.598 163.975 295.519 161.2 295.519 161.2C295.519 161.2 286.44 162.588 283.75 163.975C281.06 165.363 270.972 167.792 270.636 171.955C270.3 176.118 273.326 216.014 271.645 219.83C269.964 223.647 264.247 260.074 266.937 259.38C269.627 258.686 267.61 249.666 279.379 249.319C291.148 248.972 297.537 241.687 301.908 250.36C306.28 259.033 318.721 265.625 318.721 265.625C319.034 262.828 319.483 260.049 320.066 257.299C321.075 252.442 317.376 240.646 317.376 240.646C317.376 240.646 317.713 213.239 319.058 210.117C320.403 206.994 326.455 186.872 326.455 186.872Z" fill="#F5C108"/>
<path d="M321.411 186.179L326.455 186.873C326.455 186.873 326.119 193.811 327.464 195.893C328.809 197.974 331.163 208.729 329.818 209.076C328.473 209.423 316.367 211.504 316.367 211.504L315.695 195.546L321.411 186.179Z" fill="#F5C108"/>
<path d="M266.937 198.668C266.937 198.668 263.575 221.218 261.893 223.994C260.212 226.769 251.806 265.625 251.806 265.625C251.806 265.625 237.982 285.459 244.707 285.112C251.432 284.765 258.531 267.012 258.531 267.012C258.531 267.012 279.379 227.81 279.379 223.647C279.379 219.484 284.423 198.668 284.423 198.668H266.937Z" fill="#FFB9B9"/>
<path d="M276.689 168.138L270.636 170.567C270.636 170.567 262.902 199.015 264.583 201.443C266.265 203.872 286.44 200.403 286.777 199.362C287.113 198.321 283.078 168.138 276.689 168.138Z" fill="#F5C108"/>
<path d="M6.33008 241.239C6.33008 265.415 21.0305 284.978 39.1974 284.978L6.33008 241.239Z" fill="#3F3D56"/>
<path d="M39.1975 284.978C39.1975 260.53 55.6023 240.748 75.8756 240.748L39.1975 284.978Z" fill="#1DB776"/>
<path d="M18.2385 243.43C18.2385 266.395 27.6127 284.978 39.1974 284.978L18.2385 243.43Z" fill="#1DB776"/>
<path d="M39.1975 284.978C39.1975 253.739 58.159 228.461 81.5917 228.461L39.1975 284.978Z" fill="#3F3D56"/>
<path d="M32.2832 285.286C32.2832 285.286 36.9443 285.138 38.3491 284.106C39.7538 283.074 45.5191 281.842 45.8676 283.497C46.216 285.152 52.8724 291.729 47.61 291.773C42.3476 291.817 35.3825 290.927 33.9805 290.046C32.5785 289.165 32.2832 285.286 32.2832 285.286Z" fill="#A8A8A8"/>
<path opacity="0.2" d="M47.7036 291.197C42.4412 291.24 35.4761 290.351 34.0741 289.47C33.0064 288.799 32.5809 286.391 32.4385 285.28C32.34 285.284 32.283 285.286 32.283 285.286C32.283 285.286 32.5782 289.165 33.9802 290.046C35.3823 290.927 42.3473 291.817 47.6097 291.773C49.1288 291.76 49.6535 291.202 49.6247 290.377C49.4136 290.876 48.8343 291.187 47.7036 291.197Z" fill="black"/>
</g>
<defs>
<clipPath id="clip0">
<rect width="450" height="500" fill="white"/>
</clipPath>
</defs>
</svg>
