<svg width="502" height="695" viewBox="0 0 502 695" fill="none" xmlns="http://www.w3.org/2000/svg">
<rect x="472.024" y="1" width="11.2876" height="28.9542" rx="3" transform="rotate(90 472.024 1)" fill="white" stroke="#CCCDC9" stroke-width="2"/>
<rect x="501" y="50.2949" width="24.1474" height="30.3019" rx="3" transform="rotate(90 501 50.2949)" fill="white" stroke="#CCCDC9" stroke-width="2"/>
<rect x="501" y="80.3025" width="24.1474" height="30.3019" rx="3" transform="rotate(90 501 80.3025)" fill="white" stroke="#CCCDC9" stroke-width="2"/>
<rect x="497.652" y="4.42822" width="689.572" height="496.653" rx="40" transform="rotate(90 497.652 4.42822)" fill="#F8F6F6" stroke="#CDCDCD" stroke-width="2"/>
<rect x="480.785" y="23.1477" width="652.135" height="461.569" rx="13" transform="rotate(90 480.785 23.1477)" fill="white" fill-opacity="0.69" stroke="#CDCDCD" stroke-width="2"/>
<mask id="mask0" mask-type="alpha" maskUnits="userSpaceOnUse" x="18" y="22" width="464" height="655">
<rect x="480.785" y="23.1477" width="652.135" height="461.569" rx="13" transform="rotate(90 480.785 23.1477)" fill="white" stroke="white" stroke-width="2"/>
</mask>
<g mask="url(#mask0)">
</g>
<path fill-rule="evenodd" clip-rule="evenodd" d="M246.631 14.5025C246.631 13.1215 247.687 12.002 248.989 12.002C250.292 12.002 251.348 13.1215 251.348 14.5025C251.348 15.8835 250.292 17.003 248.989 17.003C247.687 17.003 246.631 15.8835 246.631 14.5025Z" fill="#E6E6E1"/>
</svg>
