<svg width="300" height="214" viewBox="0 0 300 214" fill="none" xmlns="http://www.w3.org/2000/svg">
<g clip-path="url(#clip0)">
<path d="M204.265 137.428L207.066 185.153C207.117 186.448 208.309 187.473 209.762 187.473H242.822C244.274 187.473 245.466 186.448 245.517 185.153L248.318 137.428H204.265Z" fill="#4D92D5"/>
<path d="M250.466 137.428H202.119V132.142H250.466V137.428Z" fill="#3D7BC4"/>
<path d="M248.318 132.142H204.265L207.681 118.052H244.902L248.318 132.142Z" fill="#4D92D5"/>
<path d="M238.303 129.513H214.281C213.06 129.513 212.07 128.63 212.07 127.541V124.553C212.07 123.464 213.06 122.582 214.281 122.582H238.303C239.524 122.582 240.514 123.464 240.514 124.553V127.541C240.514 128.63 239.524 129.513 238.303 129.513Z" fill="#3B3B41"/>
<path d="M232.825 163.004C232.812 162.943 232.785 162.874 232.743 162.802C232.702 162.732 232.58 162.53 232.418 162.264L232.825 163.004Z" fill="white"/>
<path d="M226.701 155.845L228.235 156.252C228.781 156.396 229.672 156.633 230.218 156.778L231.752 157.185C232.297 157.33 232.845 157.035 232.97 156.529L233.324 155.108C233.449 154.603 233.654 153.777 233.779 153.272L234.132 151.85C234.258 151.345 233.901 151.179 233.34 151.48L232.377 151.998C232.025 151.449 231.672 150.904 231.536 150.704C231.226 150.251 230.63 149.904 229.46 149.91C228.592 149.914 226.284 149.926 224.824 149.934L226.76 153.036C226.803 153.075 226.844 153.125 226.88 153.191C226.972 153.361 227.323 153.948 227.672 154.527L226.731 155.033C226.169 155.335 226.156 155.7 226.701 155.845Z" fill="white"/>
<path d="M221.336 150.967C220.839 151.656 219.578 153.49 219.578 153.49C219.296 153.901 219.44 154.439 219.899 154.684L222.99 156.339C223.449 156.585 224.051 156.447 224.327 156.032C224.327 156.032 226.071 153.417 226.232 153.175C226.398 152.924 226.598 152.886 226.76 153.036L224.824 149.934C224.319 149.937 223.915 149.939 223.708 149.94C222.903 149.944 221.982 150.072 221.336 150.967Z" fill="white"/>
<path d="M215.869 162.557C216.217 163.174 217.181 164.761 217.887 165.924L220.078 162.656C220.336 162.253 220.815 161.508 221.214 160.89L222.336 161.459C222.905 161.748 223.257 161.573 223.119 161.071L222.726 159.658C222.587 159.156 222.359 158.335 222.219 157.833L221.828 156.42C221.688 155.917 221.132 155.635 220.591 155.792L219.069 156.235C218.528 156.392 217.643 156.649 217.102 156.806L215.58 157.248C215.039 157.405 215.062 157.77 215.631 158.059L216.458 158.478C216.035 159.224 215.538 160.104 215.413 160.356C215.186 160.812 215.326 161.599 215.869 162.557Z" fill="white"/>
<path d="M220.078 162.656L217.887 165.924C218.281 166.571 218.594 167.088 218.678 167.231C218.909 167.632 219.24 168.417 221.331 168.407C223.421 168.396 224.371 168.391 224.371 168.391C224.902 168.388 225.335 167.989 225.332 167.503L225.312 164.23C225.308 163.745 224.871 163.35 224.339 163.353C224.339 163.353 220.78 163.371 220.187 163.374C219.812 163.376 219.764 163.15 219.896 162.939C219.914 162.911 219.981 162.807 220.078 162.656Z" fill="white"/>
<path d="M232.825 163.004L234.636 166.305C235.27 165.24 236.346 163.389 236.786 162.589C237.374 161.518 237.541 160.591 237.27 160.103C236.998 159.614 235.657 157.242 235.657 157.242C235.413 156.81 234.843 156.666 234.39 156.92L231.318 158.644C230.865 158.898 230.706 159.453 230.965 159.877C230.965 159.877 231.898 161.407 232.418 162.264C232.579 162.53 232.702 162.732 232.743 162.802C232.785 162.874 232.812 162.943 232.825 163.004Z" fill="white"/>
<path d="M234.188 167.045C234.26 166.934 234.423 166.664 234.637 166.305L232.825 163.004C232.864 163.196 232.757 163.327 232.497 163.328C232.318 163.329 231.436 163.334 230.624 163.338L230.614 162.315C230.607 161.72 230.268 161.527 229.858 161.886L228.705 162.894C228.294 163.252 227.623 163.839 227.214 164.197L226.06 165.206C225.651 165.564 225.657 166.145 226.072 166.496L227.246 167.486C227.663 167.837 228.344 168.412 228.762 168.764L229.935 169.754C230.351 170.105 230.688 169.907 230.682 169.312L230.672 168.34C231.131 168.337 231.638 168.335 232.106 168.332C233.41 168.325 233.903 167.483 234.188 167.045Z" fill="white"/>
<path d="M120.432 44.6755L124.798 45.8338C126.35 46.2455 128.887 46.9196 130.44 47.3315L134.807 48.4906C136.358 48.9017 137.919 48.0626 138.276 46.6248L139.282 42.5794C139.637 41.1416 140.22 38.7892 140.577 37.3505L141.582 33.3051C141.941 31.8681 140.925 31.3941 139.327 32.2523L136.587 33.7251C135.583 32.1637 134.579 30.6112 134.192 30.043C133.31 28.7526 131.614 27.7652 128.284 27.7826C125.811 27.7952 119.244 27.8294 115.089 27.8514L120.598 36.6794C120.722 36.7917 120.837 36.9341 120.939 37.1218C121.202 37.6068 122.201 39.2755 123.195 40.9246L120.515 42.3654C118.917 43.2235 118.88 44.2628 120.432 44.6755Z" fill="#3D9B87"/>
<path d="M105.16 30.7923C103.745 32.753 100.157 37.9719 100.157 37.9719C99.353 39.142 99.7628 40.6726 101.069 41.3716L109.869 46.0826C111.176 46.7815 112.889 46.388 113.673 45.2078C113.673 45.2078 118.637 37.766 119.096 37.0774C119.569 36.3616 120.139 36.2549 120.598 36.6794L115.089 27.8514C113.651 27.8588 112.5 27.8653 111.911 27.8682C109.619 27.8805 107 28.2435 105.16 30.7923Z" fill="#1DB776"/>
<path d="M89.5952 63.7816C90.5864 65.5367 93.3305 70.0537 95.3417 73.364L101.578 64.0614C102.313 62.9171 103.675 60.7947 104.812 59.037L108.005 60.6554C109.625 61.4777 110.628 60.9801 110.232 59.5511L109.114 55.5292C108.719 54.1008 108.07 51.7623 107.674 50.3331L106.559 46.3112C106.162 44.8822 104.578 44.0786 103.038 44.5256L98.7056 45.7848C97.1654 46.2326 94.6466 46.9642 93.1064 47.4112L88.7738 48.6695C87.2336 49.1165 87.2993 50.1557 88.9193 50.9764L91.2731 52.1705C90.0707 54.2921 88.6553 56.7969 88.2983 57.5157C87.653 58.8134 88.0517 61.0531 89.5952 63.7816Z" fill="#3D9B87"/>
<path d="M101.579 64.0614L95.3428 73.364C96.4633 75.2065 97.357 76.6775 97.594 77.0857C98.2519 78.2271 99.1948 80.4618 105.146 80.4313C111.095 80.3998 113.799 80.3859 113.799 80.3859C115.312 80.3778 116.545 79.2415 116.535 77.8604L116.477 68.5433C116.468 67.1614 115.224 66.0377 113.708 66.0457C113.708 66.0457 103.579 66.0989 101.89 66.107C100.823 66.1128 100.687 65.4679 101.062 64.8684C101.113 64.7874 101.304 64.4915 101.579 64.0614Z" fill="#1DB776"/>
<path d="M137.863 65.0546L143.018 74.4492C144.823 71.4163 147.886 66.1487 149.138 63.8715C150.813 60.8247 151.287 58.1839 150.515 56.7956C149.741 55.4043 145.925 48.6518 145.925 48.6518C145.229 47.4234 143.608 47.0118 142.317 47.7353L133.575 52.6416C132.284 53.3646 131.833 54.945 132.569 56.1514C132.569 56.1514 135.226 60.5085 136.705 62.9475C137.165 63.7043 137.512 64.2781 137.629 64.4776C137.749 64.6844 137.828 64.8786 137.863 65.0546Z" fill="#3D9B87"/>
<path d="M141.742 76.5555C141.946 76.2407 142.412 75.4711 143.019 74.4492L137.863 65.0547C137.972 65.6001 137.669 65.9719 136.928 65.9757C136.42 65.9783 133.91 65.9917 131.596 66.004L131.567 63.0915C131.55 61.3995 130.583 60.8504 129.415 61.8711L126.133 64.7412C124.966 65.7609 123.056 67.4295 121.89 68.4498L118.608 71.32C117.441 72.3403 117.458 73.9934 118.642 74.9941L121.981 77.8109C123.168 78.8114 125.108 80.4479 126.296 81.4492L129.635 84.2659C130.821 85.2664 131.78 84.702 131.763 83.01L131.734 80.2414C133.04 80.2339 134.483 80.2267 135.817 80.2195C139.528 80.2005 140.931 77.8034 141.742 76.5555Z" fill="#1DB776"/>
<path d="M201.615 57.4344L204.355 50.4639C204.601 49.8369 204.25 49.1478 203.559 48.9006L201.583 48.1947C200.892 47.9475 200.104 48.2297 199.797 48.8351L196.38 55.5633C196.132 56.0512 195.563 56.3238 194.964 56.2855C193.1 56.1667 191.273 57.1196 190.543 58.7438L182.397 76.8659C182.111 77.5023 182.458 78.2253 183.172 78.4802L193.414 82.141C194.128 82.3962 194.939 82.0869 195.225 81.4506L203.371 63.3285C204.102 61.7043 203.518 59.8901 202.079 58.8281C201.616 58.487 201.416 57.9397 201.615 57.4344Z" fill="#3A7D59"/>
<path d="M205.046 50.1095L199.572 48.1533L200.097 46.9859L205.571 48.9421L205.046 50.1095Z" fill="#306847"/>
<path d="M199.082 70.6649L198.267 70.3736L201.224 63.7944C202.27 61.0368 200.622 60.3306 200.552 60.302L200.902 59.5829C201.003 59.6214 203.376 60.5708 202.048 64.066L199.082 70.6649Z" fill="#58A479"/>
<path d="M178.989 100.473L163.312 110.673L153.202 106.543L151.195 109.832L157.989 114.983L163.793 116.917L178.989 110.393V100.473Z" fill="#374360"/>
<path d="M200.132 79.3255L200.469 75.0471L196.588 72.3684L194.961 74.2658L196.714 77.0566L196.088 78.5075L197.808 80.8118L200.132 79.3255Z" fill="#CFB999"/>
<path d="M169.381 127.913L169.067 152.12L171.961 183.281H175.894L180.601 154.532L185.984 125.734L169.381 127.913Z" fill="#4F4D4C"/>
<path d="M175.872 184.76L171.618 186.657L169.491 184.76L171.618 182.864H175.872V184.76Z" fill="#312B28"/>
<path d="M196.352 127.913L196.429 141.918L193.776 183.281H189.843L183.262 155.833L179.749 125.734L196.352 127.913Z" fill="#4F4D4C"/>
<path d="M189.864 184.76L194.118 186.657L196.245 184.76L194.118 182.864H189.864V184.76Z" fill="#312B28"/>
<path d="M200.443 136.346C200.527 138.568 200.473 141.54 199.423 141.651C199.227 141.672 199.038 141.594 198.865 141.519C197.04 140.729 195.74 139.612 193.941 138.848C192.056 138.048 189.914 137.629 187.821 137.34C184.698 136.896 181.524 136.629 178.382 136.603C175.681 136.582 172.872 137.681 170.319 138.285C169.336 138.517 168.536 139.156 167.72 139.657C166.514 140.397 165.985 140.69 166.149 139.178C166.418 136.712 166.696 134.246 167.037 131.786C167.716 126.88 168.64 121.986 170.203 117.237C170.8 115.423 171.489 113.634 172.178 111.846C173.016 109.668 173.855 107.49 174.694 105.312C175.736 102.606 177.495 100.699 180.576 99.7524C183.238 98.9341 186.544 98.7102 189.134 99.8557C192.012 101.129 193.381 105.466 194.78 107.784C196.005 109.815 197.549 115.355 198.008 117.545C198.56 120.181 199.07 122.804 199.472 125.42C199.916 128.318 200.23 131.207 200.32 134.079C200.331 134.397 200.402 135.285 200.443 136.346Z" fill="#374360"/>
<path d="M186.224 100.238L180.908 100.284C180.908 100.284 175.204 118.058 174.994 121.122C174.788 124.129 173.347 136.324 173.347 136.324C173.347 136.324 179.234 136.447 186.017 137.184C192.648 138.45 193.206 137.701 193.206 137.701C193.206 137.701 189.627 124.884 189.508 121.202C189.386 117.436 188.846 104.996 188.846 104.996L186.224 100.238Z" fill="white"/>
<path d="M182.999 100.33C183.061 100.379 183.133 100.417 183.217 100.441C183.382 100.49 183.561 100.472 183.734 100.454C184.437 100.38 185.14 100.306 185.843 100.231C185.611 98.3114 186.87 97.877 188.097 96.6422C189.34 95.39 188.957 93.7023 188.887 92.1701C188.867 91.7434 188.844 91.3037 188.642 90.9166C188.287 90.2374 187.46 89.8624 186.658 89.6401C184.609 89.0725 182.267 89.2121 180.464 90.2476C179.983 90.5229 179.536 90.869 179.275 91.3221C178.875 92.0209 178.977 92.8546 179.088 93.6328C179.26 94.8293 179.657 96.0045 180.416 97.0127C181.123 97.9521 182.47 98.4021 182.625 99.5296C182.665 99.8209 182.764 100.149 182.999 100.33Z" fill="#CFB999"/>
<path d="M179.148 92.2423C179.268 92.7246 179.52 93.2127 179.388 93.6926C178.529 93.4326 177.967 92.6489 177.663 91.852C177.525 91.4906 177.424 91.1083 177.459 90.7261C177.494 90.3438 177.68 89.9599 178.018 89.7441C178.491 89.4426 179.338 89.5611 179.473 90.1071C179.609 90.6579 178.968 91.5163 179.148 92.2423Z" fill="#626149"/>
<path d="M174.585 88.0037C174.606 87.4257 174.853 86.9091 175.432 86.5601C175.932 86.2591 176.507 86.0098 176.811 85.5315C177.046 85.1605 177.081 84.7012 177.315 84.3288C177.737 83.6547 178.654 83.4562 179.452 83.2278C181.449 82.6562 182.523 81.9962 184.638 82.7281C186.141 83.2481 188.083 83.318 189.478 84.0769C190.061 84.3938 190.556 84.9032 190.963 85.4703C192.373 87.435 192.711 90.1978 191.793 92.2474C191.588 92.7061 191.327 93.128 191.047 93.5319C190.489 94.3395 189.892 95.3335 188.904 95.7289C188.841 95.3482 188.523 95.1382 188.424 94.7643C188.352 94.4949 188.377 94.213 188.392 93.9358C188.453 92.8583 188.823 91.1544 187.617 90.6202C186.091 89.9445 183.228 90.5538 181.758 91.126C180.457 91.6321 178.262 92.2904 176.876 91.7482C175.588 91.245 174.542 89.2388 174.585 88.0037Z" fill="#626149"/>
<path d="M187.929 99.6095L201.423 96.0633L196.429 81.0193L200.545 78.3871L210.481 95.8022L207.733 101.833L194.839 107.767L187.929 99.6095Z" fill="#374360"/>
<path d="M265.39 184.119L265.446 184.64L265.632 186.369L269.558 187.869L271.241 186.025L269.185 184.41L268.995 184.338L268.972 184.553L265.39 184.119Z" fill="#333334"/>
<path d="M265.19 184.095L265.389 184.119L265.259 182.911L268.995 184.338L272.103 155.152L272.485 153.773C269.548 153.811 266.058 153.85 262.542 153.875L265.19 184.095Z" fill="#838D96"/>
<path d="M265.39 184.119L268.973 184.553L268.996 184.338L265.26 182.911L265.39 184.119Z" fill="#838D96"/>
<path d="M249.493 153.86L250.216 161.499L257.463 181.306L261.004 180.887L261.061 181.274L261.081 181.272L258.472 160.859L260.706 153.886C256.596 153.909 252.577 153.908 249.493 153.86Z" fill="#838D96"/>
<path d="M257.463 181.306L257.24 181.333L255.62 183.315L257.764 184.851L261.266 182.646L261.061 181.274L257.601 181.684L257.463 181.306Z" fill="#333334"/>
<path d="M257.463 181.306L257.601 181.684L261.061 181.274L261.003 180.887L257.463 181.306Z" fill="#333334"/>
<path d="M238.182 104.575C238.07 104.143 235.529 101.837 235.381 102.155C235.22 102.501 235.151 102.866 235.067 103.241C234.032 102.746 231.527 100.813 231.678 103.047C231.744 104.015 233.648 105.689 234.602 105.983C234.623 105.989 234.645 105.996 234.667 106.002L238.166 105.459C238.256 105.214 238.275 104.937 238.182 104.575Z" fill="#E5C7A5"/>
<path d="M277.859 114.08C276.636 111.285 275.368 108.821 274.149 106.694C273.93 107.608 273.832 108.521 274.051 109.439C274.506 111.35 276.202 112.752 277.859 114.08Z" fill="#E7E7E8"/>
<path d="M280.496 122.491C280.075 122.88 279.58 123.212 279.046 123.466C277.688 124.114 276.113 124.317 274.573 124.315C273.34 124.313 272.09 124.188 270.885 124.424C269.681 124.659 268.488 125.358 268.184 126.424C268.016 127.012 268.071 127.75 267.501 128.082C267.233 128.237 266.896 128.25 266.577 128.258C265.601 128.283 264.493 128.261 263.838 127.615C262.824 126.617 263.417 124.614 262.047 124.047C261.645 123.88 261.182 123.906 260.745 123.84C258.892 123.561 257.985 121.691 258.163 119.975C258.2 119.619 258.282 119.269 258.414 118.943C259.18 117.037 260.955 115.624 262.299 113.993C264.922 110.809 266.696 106.555 265.083 102.787C264.931 102.433 264.761 102.077 264.655 101.711C264.597 101.51 264.557 101.306 264.553 101.097C264.53 99.9733 265.468 99.048 266.074 98.0628C266.131 97.9708 266.184 97.8737 266.234 97.772C266.356 97.5235 266.458 97.2464 266.543 96.9489L266.279 97.061C265.678 97.5174 264.979 97.8317 264.204 97.9424L256.935 101.032L254.019 111.615L238.211 105.452L238.166 105.459L234.667 106.002L233.758 106.144C238.403 111.487 245.782 114.8 252.019 118.874L251.99 118.981L244.472 153.657C245.368 153.759 247.164 153.823 249.493 153.86C252.577 153.908 256.597 153.909 260.706 153.886C261.318 153.883 261.931 153.879 262.543 153.875C266.059 153.85 269.549 153.811 272.486 153.773C276.988 153.714 280.19 153.657 280.19 153.657C280.19 153.657 282.925 135.736 280.496 122.491Z" fill="white"/>
<path d="M266.58 96.8139C267.261 94.1819 266.522 90.0231 264.549 88.4716C263.773 87.8614 262.886 87.751 261.897 87.7443C261.43 87.7411 261.274 87.8489 261.032 87.8111C260.297 88.6548 259.804 89.6844 259.894 90.6581C259.97 91.4775 260.5 92.1024 260.542 92.9825C260.626 94.5842 263.196 96.1927 262.209 97.7835C262.914 97.9887 263.583 98.0312 264.205 97.9424L266.279 97.061C266.382 96.9826 266.482 96.9003 266.58 96.8139Z" fill="#E3C5A5"/>
<path d="M264.204 97.9425C264.979 97.8318 265.678 97.5175 266.279 97.0611L264.204 97.9425Z" fill="#E3C5A5"/>
<path d="M260.542 92.9825C260.499 92.1024 259.97 91.4775 259.894 90.6582C259.803 89.6845 260.296 88.6549 261.032 87.8112C260.924 87.7941 260.798 87.7478 260.62 87.6488C260.266 87.4522 259.95 86.938 259.785 86.5189C258.867 87.0362 258.2 87.9701 258.016 89.3926C257.817 90.9388 257.819 92.57 258.414 94.1172C259.008 95.6644 260.277 97.1194 261.922 97.6934C262.018 97.7269 262.113 97.7563 262.208 97.7836C263.195 96.1927 260.626 94.5843 260.542 92.9825Z" fill="#E3C5A5"/>
<path d="M264.506 86.6254C264.76 86.7399 265.011 86.8699 265.256 87.0143C265.011 86.8699 264.76 86.7399 264.506 86.6254ZM278.541 114.627C278.316 114.445 278.088 114.263 277.859 114.08C278.01 114.425 278.16 114.774 278.309 115.129C278.458 115.484 278.607 115.843 278.754 116.208C278.849 116.443 278.941 116.682 279.03 116.925C278.941 116.682 278.849 116.443 278.754 116.208C278.607 115.843 278.458 115.484 278.309 115.129C278.16 114.774 278.01 114.425 277.859 114.08C276.203 112.752 274.506 111.35 274.051 109.439C273.832 108.521 273.93 107.608 274.149 106.693C274.501 105.224 275.166 103.752 275.34 102.252C275.637 99.6823 275.403 95.9879 274.699 93.4742C273.947 90.7861 272.306 88.3537 270.339 86.2356C267.952 83.666 263.514 80.7893 260.371 84.1542C260.335 84.193 260.301 84.2326 260.267 84.273C259.925 84.1205 259.567 83.9969 259.199 83.9068C257.028 85.5375 256.469 88.1622 256.697 90.5742C256.925 92.9908 258.293 95.7289 257.521 98.126C257.447 98.3553 257.351 98.5842 257.353 98.8229C257.355 99.0612 257.483 99.3185 257.733 99.4049C257.884 99.4576 258.053 99.4397 258.214 99.4213C259.543 99.2682 260.988 99.0631 261.89 98.179C262.024 98.0476 262.127 97.9158 262.209 97.7836C262.114 97.7563 262.019 97.7269 261.923 97.6935C260.278 97.1194 259.009 95.6645 258.415 94.1173C257.82 92.57 257.817 90.9388 258.017 89.3927C258.201 87.9701 258.868 87.0363 259.785 86.5189C259.951 86.9381 260.267 87.4522 260.621 87.6488C260.799 87.7478 260.925 87.7941 261.033 87.8112C261.274 87.8489 261.43 87.7411 261.897 87.7443C262.886 87.751 263.773 87.8615 264.549 88.4717C266.523 90.0232 267.261 94.182 266.58 96.8139C268.441 95.1589 269.187 92.0843 267.962 89.7867C267.892 89.6562 267.818 89.5283 267.74 89.4034C267.818 89.5283 267.892 89.6562 267.962 89.7867C269.187 92.0843 268.441 95.1589 266.58 96.8139C266.568 96.8594 266.556 96.9043 266.543 96.949C266.459 97.2465 266.356 97.5236 266.234 97.7721C266.184 97.8738 266.131 97.9709 266.074 98.0629C265.468 99.0481 264.53 99.9734 264.553 101.097C264.558 101.306 264.597 101.51 264.655 101.711C264.761 102.077 264.931 102.433 265.083 102.787C266.697 106.555 264.923 110.809 262.299 113.993C260.955 115.624 259.18 117.037 258.414 118.943C258.283 119.269 258.201 119.619 258.164 119.975C257.985 121.691 258.892 123.561 260.745 123.84C261.182 123.906 261.645 123.88 262.047 124.047C263.417 124.614 262.824 126.617 263.838 127.615C264.493 128.261 265.601 128.283 266.577 128.259C266.896 128.25 267.233 128.237 267.501 128.082C268.071 127.75 268.016 127.012 268.184 126.424C268.488 125.359 269.681 124.659 270.886 124.424C272.09 124.188 273.34 124.313 274.573 124.315C276.114 124.317 277.689 124.114 279.047 123.466C279.58 123.212 280.075 122.88 280.497 122.491C280.445 122.207 280.39 121.925 280.333 121.646C280.39 121.925 280.445 122.207 280.497 122.491C281.149 121.888 281.625 121.144 281.781 120.322C282.201 118.129 280.386 116.124 278.541 114.627Z" fill="#3A3636"/>
<path d="M60.9453 90.5742L62.2668 89.2279L62.1414 87.6486L62.4978 87.4525L62.7792 87.8385L63.0897 86.4983L64.0488 85.8023L65.6166 86.1998L66.6096 87.4274L66 88.798L64.4736 89.8854L62.7522 91.7986L60.9453 90.5742Z" fill="#CFB999"/>
<path d="M60.7016 89.4472L46.7168 99.3284L37.7345 97.8783L36.4238 109.02L47.5937 107.049L52.1765 105.405L65.1473 91.6295L60.7016 89.4472Z" fill="#5E6D82"/>
<path d="M39.7119 183.004V184.509L44.04 186.438L46.2042 184.509L44.04 182.579H43.761L43.6911 183.004H39.7119Z" fill="#362C26"/>
<path d="M29.0526 182.579H28.754L26.5898 184.509L28.754 186.438L33.0823 184.509V183.004H29.1028L29.0526 182.579Z" fill="#362C26"/>
<path d="M29.1137 125.887C29.6834 123.317 30.1286 120.945 30.1694 119.658C30.2921 115.788 30.8384 103.007 30.8384 103.007L33.4874 98.1188L33.9764 98.1231C33.9413 98.1193 33.9062 98.1156 33.8708 98.1116C33.986 98.1239 33.8156 97.167 33.7745 97.0825C31.4711 97.0127 28.5032 98.1709 27.0505 99.7848C25.9754 100.979 25.3366 102.439 24.7138 103.874C22.9605 107.912 22.1654 111.653 21.2906 115.9C20.7329 118.608 20.2178 121.303 19.8121 123.991C19.3629 126.968 19.0461 129.937 18.9545 132.888C18.9443 133.214 18.8719 134.126 18.8312 135.216C18.746 137.499 18.8006 140.553 19.8607 140.667C20.0591 140.688 20.2506 140.609 20.4251 140.532C21.7888 139.931 22.863 139.147 24.0654 138.461L24.1302 126.553L29.1137 125.887Z" fill="#5E6D82"/>
<path d="M53.4759 138.126C53.2047 135.592 52.9233 133.059 52.5795 130.532C51.8937 125.492 50.9604 120.463 49.3809 115.584C48.7776 113.72 48.0813 111.882 47.3856 110.044C46.5384 107.807 45.6912 105.569 44.8437 103.332C43.7907 100.551 42.0132 98.5923 38.9013 97.6194C38.3454 97.4458 37.7604 97.3117 37.1574 97.2136C37.1427 97.2711 37.1295 97.3294 37.1211 97.3907C37.0851 97.6579 37.0008 97.954 36.8145 98.1477L38.8572 98.1653C38.8572 98.1653 44.6199 116.428 44.8317 119.575C44.9121 120.772 45.18 123.383 45.4779 126.135L48.6072 126.553L48.7416 137.077C48.9168 137.123 49.0911 137.167 49.2639 137.209C50.2569 137.448 51.0645 138.104 51.8895 138.618C53.1078 139.379 53.6421 139.679 53.4759 138.126Z" fill="#5E6D82"/>
<path d="M45.4786 126.135C45.9499 130.489 46.4968 135.194 46.4968 135.194C46.4968 135.194 43.9669 135.248 40.3066 135.495C40.5775 135.49 40.8484 135.483 41.1187 135.481C43.6642 135.461 46.3048 136.442 48.7423 137.077L48.6079 126.553L45.4786 126.135Z" fill="#5E6D82"/>
<path d="M28.3961 136.82C26.6509 136.902 26.4339 136.609 26.4339 136.609C26.4339 136.609 28.0082 130.875 29.1137 125.887L24.1302 126.553L24.0654 138.461C24.4882 138.22 24.9266 137.991 25.3994 137.787C26.3465 137.378 27.3583 137.066 28.3961 136.82Z" fill="#5E6D82"/>
<path d="M48.7423 137.077C46.3048 136.442 43.6645 135.461 41.1187 135.481C40.8484 135.483 40.5775 135.49 40.3066 135.495C40.0804 135.511 39.8494 135.527 39.6145 135.544C37.9087 135.666 35.992 135.829 33.991 136.046C33.8926 136.057 33.7948 136.067 33.6961 136.078C31.1368 136.575 29.4749 136.769 28.3959 136.82C27.3581 137.066 26.3465 137.378 25.3992 137.787C24.9264 137.991 24.488 138.22 24.0652 138.461L24.0518 140.941L28.9314 183.061H32.9323V183.49H32.9554L37.3543 155.237L37.3726 155.078L39.7825 183.49H39.8056V183.061H43.8259L48.925 151.423L48.7423 137.077Z" fill="#49494D"/>
<path d="M45.4785 126.135C45.1806 123.383 44.9127 120.771 44.8323 119.575C44.6205 116.428 38.8578 98.1653 38.8578 98.1653L36.8151 98.1477C36.7926 98.1709 36.7695 98.1937 36.744 98.2135C36.681 98.2632 36.6081 98.3023 36.5244 98.3274C36.3573 98.3772 36.1764 98.359 36.0018 98.3403C35.3265 98.2678 34.6512 98.1953 33.9762 98.1231L33.4872 98.1188L30.8382 103.007C30.8382 103.007 30.2919 115.788 30.1692 119.658C30.1284 120.945 29.6831 123.317 29.1134 125.887C28.0079 130.875 26.4336 136.609 26.4336 136.609C26.4336 136.609 26.6506 136.902 28.3958 136.82C29.4748 136.769 31.1367 136.575 33.696 136.078C33.7947 136.067 33.8925 136.057 33.9909 136.046C35.9919 135.829 37.9086 135.666 39.6144 135.544C39.8493 135.527 40.0803 135.511 40.3065 135.495C43.9668 135.248 46.4967 135.194 46.4967 135.194C46.4967 135.194 45.9498 130.489 45.4785 126.135Z" fill="white"/>
<path d="M38.7021 123.04L40.3011 124.102L42.0242 123.835L42.272 124.137L41.8739 124.429L43.3739 124.579L44.2259 125.376L43.9328 126.83L42.6755 127.846L41.1146 127.429L39.7812 126.157L37.5225 124.79L38.7021 123.04Z" fill="#CFB999"/>
<path d="M40.1113 122.98L31.6372 116.884L30.9442 101.147L24.1951 107.256L22.9648 117.386L24.623 121.206L38.9593 126.525L40.1113 122.98Z" fill="#5E6D82"/>
<path d="M40.5171 86.4771C41.0298 87.3989 41.2428 88.443 41.2341 89.4755C41.232 89.75 41.2347 90.0672 41.4696 90.2403C41.7213 90.4254 41.4699 90.7946 41.6817 90.5723C41.8938 90.35 42.6147 89.5772 42.6618 89.2864C42.7716 88.6053 42.8097 87.9146 42.7752 87.2269C42.7455 86.6288 42.6468 86.0004 42.243 85.5267C42.0036 85.2458 41.6745 85.0409 41.3502 84.8419C40.8801 84.5532 40.395 84.2617 39.843 84.1416C38.8914 83.9342 38.2842 84.2194 39.0978 84.8665C39.6804 85.3301 40.1658 85.8455 40.5171 86.4771Z" fill="#2B2C2E"/>
<path d="M33.883 97.8876C35.1985 98.0612 36.514 98.2351 37.8295 98.4089C38.0893 97.3828 38.2672 96.3366 38.3602 95.2835C39.5218 95.158 40.8949 94.8838 41.3506 93.8087C41.494 93.4701 41.5195 93.0956 41.5435 92.7291C41.6419 91.2148 41.74 89.7005 41.8381 88.1859C41.8723 87.6621 41.9044 87.1223 41.734 86.6269C41.4352 85.7573 40.5817 85.2078 39.7348 84.8472C37.5736 83.9276 34.9984 83.8398 32.8945 84.9063C32.3347 85.1902 31.8001 85.5636 31.4572 86.089C30.9283 86.8984 30.9304 87.9291 30.9505 88.8929C30.9694 89.7823 30.988 90.672 31.0066 91.5617C31.0282 92.5849 31.1305 93.7662 31.9729 94.3454C32.4202 94.653 33.0163 94.7335 33.3949 95.1222C34.0624 95.8075 33.6748 96.9532 33.883 97.8876Z" fill="#CFB999"/>
<path d="M37.6945 94.083C37.0741 94.4206 36.412 94.4094 35.7538 94.1956C35.4742 94.105 35.6191 93.678 35.8993 93.769C36.4447 93.9461 36.9679 93.9666 37.4845 93.6855C37.7446 93.544 37.9531 93.9423 37.6945 94.083ZM41.9827 92.1442C41.9803 91.8625 41.8915 91.033 41.3962 91.5287C41.2669 91.6581 41.2258 91.8481 41.2081 92.0278C41.1904 92.2076 41.1889 92.3935 41.1166 92.5601C40.9507 92.9427 40.4656 93.0975 40.0429 93.0711C39.8746 93.0604 39.7045 93.0275 39.5602 92.9435C39.4198 92.8621 39.3118 92.7383 39.2065 92.6166C38.9509 92.3213 38.6953 92.0259 38.4397 91.7306C38.0005 91.2229 37.0624 91.3898 36.4291 91.435C35.6992 91.4869 34.9624 91.6514 34.3453 92.0564C34.2829 92.0971 34.222 92.1404 34.1611 92.1835C34.0117 92.2884 33.862 92.3924 33.6919 92.458C33.1177 92.6789 32.4388 92.3887 32.0725 91.9077C31.9048 91.6873 31.7524 91.4069 31.4749 91.3583C31.258 91.3203 31.0372 91.4524 30.9145 91.6327C30.7918 91.813 30.7492 92.0326 30.7219 92.2469C30.6223 93.0269 30.6952 93.8393 31.0297 94.5509C31.7554 96.0938 33.313 96.352 34.8913 96.3918C35.515 96.4076 36.1387 96.4231 36.7624 96.4392C37.9027 96.4678 39.109 96.4811 40.1026 95.9258C40.9792 95.4358 41.5333 94.5586 41.7931 93.6251C41.9272 93.1433 41.9875 92.6423 41.9827 92.1442Z" fill="#2B2C2E"/>
<path d="M42.6877 83.946C42.8185 83.5841 42.9211 83.2136 42.9943 82.8386C42.6019 82.9432 42.1801 82.9563 41.7808 82.8758C41.7922 82.658 41.8036 82.4403 41.815 82.2223C41.8237 82.0409 39.1279 81.7879 38.9089 81.7614C36.8617 81.5123 34.9894 81.2791 33.0733 82.1929C31.4365 82.9734 30.3457 84.2023 30.0076 85.8525C29.6847 87.4289 30.1399 89.5288 31.0774 90.8936C31.0954 90.4706 30.8839 89.4614 31.0168 89.0649C31.1068 88.6653 31.2823 88.2846 31.5142 87.9361C31.9771 87.2406 32.6659 86.6692 33.4462 86.2746C34.69 85.646 36.112 85.3494 37.5214 85.2381C38.8129 85.1362 40.3837 85.0594 41.6329 85.4267C42.2335 85.6032 42.3265 85.7463 42.727 85.2062C42.7978 85.111 43.3783 83.9878 43.3279 83.9848C43.1146 83.972 42.901 83.9589 42.6877 83.946Z" fill="#2B2C2E"/>
<path d="M134.086 81.2394C133.787 80.3342 133.487 79.429 133.196 78.5216C132.754 78.6332 132.311 78.745 131.869 78.8565C131.913 79.521 131.956 80.1855 132 80.85C131.771 80.8171 131.543 80.7825 131.313 80.7496C131.69 81.4984 132.085 82.2375 132.475 82.9806C132.946 82.926 133.417 82.8616 133.889 82.8212C133.952 82.2947 133.996 81.7629 134.086 81.2394Z" fill="#826D51"/>
<path d="M121.729 105.251C121.648 105.111 121.579 104.969 121.52 104.827C120.859 103.213 120.595 101.4 121.243 99.7816C121.337 99.5483 121.461 99.3073 121.693 99.1711C121.881 99.0609 122.114 99.0352 122.338 99.0122C124.276 98.8138 126.213 98.6155 128.151 98.417C128.332 98.3986 128.524 98.3761 128.665 98.2729C128.791 98.1808 128.855 98.0391 128.911 97.9029C129.512 96.4493 132.807 82.4361 131.782 82.3427C132.731 82.2753 133.68 82.1964 134.629 82.1365C135.582 86.6305 136.651 99.3862 135.278 100.915C132.165 104.38 130.902 104.611 126.293 106.589C125.726 106.833 125.121 107.053 124.491 107.044C123.286 107.028 122.268 106.189 121.729 105.251Z" fill="#9499A0"/>
<path d="M93.0271 95.2755C92.0731 94.867 91.1191 94.458 90.1687 94.0423C89.965 94.4098 89.7613 94.7774 89.5576 95.1449C90.1402 95.5611 90.7222 95.9779 91.3045 96.3947C91.1236 96.5239 90.9415 96.652 90.7609 96.7815C91.6366 97.0343 92.5162 97.2683 93.3961 97.5085C93.6664 97.1605 93.928 96.8058 94.2112 96.4661C93.8152 96.0715 93.4027 95.6858 93.0271 95.2755Z" fill="#826D51"/>
<path d="M110.8 181.158L110.79 184.789L113.154 184.794L113.164 180.768L110.8 181.158Z" fill="#E4C4A5"/>
<path d="M122.029 179.989L121.417 183.897L123.961 184.214L124.639 179.881L122.029 179.989Z" fill="#E4C4A5"/>
<path d="M123.995 184.214L121.669 183.898L120.75 184.207L120.077 185.634L125.242 188.491C126.034 188.097 126.197 187.142 125.572 186.555L125.366 186.362L123.995 184.214Z" fill="#434449"/>
<path d="M113.154 184.794L110.79 184.789L109.962 185.76L110.127 187.301L116.194 187.636L116.368 187.285C116.71 186.594 116.213 185.804 115.374 185.705L115.239 185.689L113.154 184.794Z" fill="#434449"/>
<path d="M103.592 146.212L107.806 163.378L110.372 182.81L114.281 182.819L117.378 134.142L104.285 134.33L103.592 146.212Z" fill="#4D6385"/>
<path d="M128.663 145.215L129.169 161.871L125.75 181.537L120.746 181.511L119.723 160.652L116.127 145.529L114.933 135.632L125.837 134.489L128.663 145.215Z" fill="#4D6385"/>
<path d="M120.82 97.8146L108.576 99.0563L106.539 105.088L103.647 122.845L102.236 137.935L121.921 138.205L128.401 137.28L126.734 121.436L124.275 103.45L120.82 97.8146Z" fill="#9499A0"/>
<path d="M119.427 86.135C118.45 85.2557 117.065 84.7485 115.677 84.7614C110.861 84.806 110.494 88.9849 111.39 92.2359C111.786 93.6686 112.577 95.0738 113.919 95.9378C114.283 96.1721 114.693 96.3551 115.124 96.483C115.124 96.4838 115.123 96.4843 115.123 96.4848C115.049 96.7074 115.064 99.3998 114.85 99.3741C115.969 99.5081 117.126 99.3776 118.173 98.9996C118.14 98.1963 118.255 97.2071 118.167 96.3388C118.302 96.2759 118.433 96.2074 118.558 96.1266C119.847 95.2912 120.265 93.7652 120.506 92.3605C120.819 90.5362 121.008 87.5562 119.427 86.135Z" fill="#826D51"/>
<path d="M119.759 90.1369C119.913 90.2995 120.176 90.3404 120.364 90.472C120.992 90.9118 120.383 91.8786 120.763 92.5048C121.25 93.3067 121.162 94.7143 120.228 95.3807C119.911 95.6067 119.484 95.7651 119.351 96.1077C119.197 96.5063 119.509 97.0228 119.19 97.3342C119.697 97.8005 120.568 97.7015 121.241 97.4516C121.913 97.2018 122.571 96.8297 123.3 96.8532C123.531 96.861 123.808 96.8931 123.951 96.731C124.037 96.6339 124.038 96.4999 124.052 96.3763C124.221 94.8852 126.192 95.267 126.455 94.0581C126.526 93.7331 126.081 92.9306 126.088 92.505C126.101 91.8275 126.535 91.2226 126.277 90.5277C126.17 90.2407 125.956 89.9935 125.845 89.7075C125.621 89.126 125.856 88.4949 125.99 87.8917C126.124 87.2885 126.102 86.558 125.548 86.1912C125.115 85.9045 124.488 85.9403 124.062 85.6456C123.118 84.9931 123.811 83.29 122.748 82.8039C122.202 82.5549 121.539 82.8274 120.932 82.7485C120.292 82.6651 119.809 82.2101 119.273 81.8858C118.738 81.5616 117.935 81.388 117.498 81.8139C117.13 82.1723 117.229 82.7699 116.892 83.1514C116.603 83.4777 116.091 83.5481 115.668 83.7257C113.686 84.5606 117.418 85.1052 117.954 85.6905C118.406 86.1832 118.887 87.1101 119.215 87.6783C119.597 88.3393 119.354 89.7105 119.759 90.1369Z" fill="#442B23"/>
<path d="M113.98 85.9408C111.556 86.4006 113.026 88.0145 112.252 89.3327C111.947 89.8517 111.113 90.0464 110.947 90.6132C110.814 91.0699 111.188 91.5048 111.487 91.894C111.786 92.2832 112.016 92.8466 111.655 93.1914C111.546 93.2952 111.393 93.3647 111.317 93.4894C111.119 93.8155 111.569 94.1469 111.951 94.2943C112.333 94.4417 112.801 94.7322 112.649 95.0773C112.204 96.0868 111.918 95.6607 112.641 96.5186C112.816 96.7256 113.118 96.6892 113.287 96.9006C112.971 97.2039 112.502 97.3114 112.046 97.1539C110.918 96.7633 111.229 97.2534 110.348 97.377C109.42 97.507 109.39 97.2531 108.578 96.7914C107.821 96.3605 106.233 96.059 105.964 95.1845C105.814 94.6955 106.24 94.1932 106.114 93.7012C105.997 93.2395 105.425 92.8896 105.161 92.4555C104.626 91.5762 105.435 90.6146 105.603 89.6735C105.835 88.3694 104.969 86.7465 106.513 85.9242C106.845 85.7477 107.25 85.6412 107.588 85.4703C108.586 84.966 108.784 84.0474 109.175 83.2567C109.566 82.4662 110.575 81.6191 111.801 81.8012C112.914 81.9666 113.504 82.9098 114.635 83.0087C115.031 83.0432 115.465 82.9681 115.815 83.0965C116.087 83.1963 116.237 83.3953 116.353 83.5865C116.621 84.0311 117.406 85.5251 116.813 85.9365C116.043 86.4713 115.008 85.7463 113.98 85.9408Z" fill="#442B23"/>
<path d="M123.178 91.0364C123.295 90.8783 123.413 90.7044 123.438 90.5116C123.477 90.2117 123.305 89.9825 123.024 89.8335C122.858 89.7455 122.674 89.6978 122.498 89.6315C122.124 89.4916 121.823 89.3351 121.994 88.8509C122.021 88.7742 122.096 88.6977 122.132 88.623C122.27 88.3446 122.3 88.007 122.194 87.7159C122.112 87.4904 121.937 87.2933 121.679 87.2181C121.467 87.1566 121.263 87.2224 121.05 87.2096C120.254 87.1609 120.553 86.5052 120.605 86.1059C120.7 85.3946 120.152 84.7881 119.36 84.6972C119.237 84.683 119.237 84.8564 119.36 84.8703C119.759 84.916 120.099 85.1236 120.293 85.4392C120.489 85.7562 120.41 86.0681 120.345 86.4076C120.291 86.6927 120.275 87.0421 120.545 87.2526C120.967 87.5814 121.586 87.1309 121.934 87.6167C122.27 88.0846 121.898 88.4786 121.746 88.9093C121.359 90.0009 123.855 89.6545 123.095 90.8339C122.898 91.1386 122.524 91.4369 122.587 91.825C122.633 92.1051 122.873 92.3244 123.197 92.2942C123.319 92.2827 123.321 92.1094 123.197 92.1211C122.667 92.1706 122.783 91.5848 122.918 91.3729C122.994 91.2542 123.094 91.1498 123.178 91.0364Z" fill="#B78C65"/>
<path d="M112.23 85.4799C111.553 85.4044 110.5 85.4221 110.405 86.2163C110.356 86.6266 110.631 86.9963 110.703 87.3901C110.849 88.1776 109.959 88.3442 109.339 88.581C108.675 88.8346 108.097 89.5172 108.802 90.0332C108.888 90.0862 108.971 90.141 109.053 90.1978C109.003 90.3735 108.952 90.549 108.902 90.7247C108.842 90.7937 108.668 90.8478 108.592 90.908C108.488 90.9904 108.39 91.0843 108.37 91.2135C108.336 91.4349 108.492 91.6085 108.732 91.6182C108.857 91.6233 108.858 91.4502 108.733 91.4451C108.751 91.2942 108.77 91.1431 108.788 90.992C108.841 90.9617 108.894 90.9323 108.947 90.9034C108.997 90.866 109.061 90.8406 109.112 90.8026C109.19 90.7437 109.267 90.676 109.313 90.5934C109.422 90.3976 109.356 90.2229 109.191 90.0758C109.028 89.9308 108.857 89.881 108.748 89.6772C108.561 89.3316 108.826 89.024 109.176 88.8407C109.54 88.6495 109.974 88.5936 110.337 88.3959C110.916 88.0794 110.996 87.6054 110.805 87.057C110.659 86.6422 110.393 86.0911 110.902 85.7872C111.279 85.5623 111.801 85.6053 112.23 85.6529C112.353 85.6668 112.353 85.4938 112.23 85.4799Z" fill="#B78C65"/>
<path d="M107.707 88.5917C107.826 88.5602 107.776 88.393 107.655 88.4248C107.126 88.5639 106.442 88.8009 106.459 89.3932C106.464 89.5612 106.539 89.7115 106.683 89.8204C106.901 89.9859 107.166 89.9742 107.353 90.1892C107.714 90.6041 107.252 91.1086 106.703 90.9607C106.583 90.9283 106.531 91.095 106.65 91.1274C107.186 91.2718 107.781 90.9404 107.696 90.403C107.65 90.1101 107.454 89.9707 107.186 89.8359C106.804 89.6446 106.469 89.3541 106.829 88.9777C107.043 88.7536 107.404 88.6712 107.707 88.5917Z" fill="#B78C65"/>
<path d="M108.575 99.0564C108.575 99.0564 105.093 99.4777 103.455 101.912L100.018 107.407L94.6275 96.0483L91.8066 97.3877L94.6275 111.487C94.6275 111.487 98.9016 113.995 99.4035 114.121C99.9057 114.246 107.858 110.609 109.251 109.02L108.575 99.0564Z" fill="#9499A0"/>
<path d="M97.541 138.038L100.342 185.762C100.394 187.057 101.585 188.083 103.038 188.083H136.098C137.551 188.083 138.742 187.057 138.794 185.762L141.595 138.038H97.541Z" fill="#4CB583"/>
<path d="M143.741 138.037H95.3945V132.751H143.741V138.037Z" fill="#32865F"/>
<path d="M141.595 132.751H97.541L100.958 118.661H138.178L141.595 132.751Z" fill="#4CB583"/>
<path d="M131.58 130.122H107.557C106.337 130.122 105.347 129.239 105.347 128.15V125.162C105.347 124.074 106.337 123.191 107.557 123.191H131.58C132.801 123.191 133.791 124.074 133.791 125.162V128.15C133.791 129.239 132.801 130.122 131.58 130.122Z" fill="#383340"/>
<path d="M126.101 163.614C126.089 163.552 126.061 163.484 126.019 163.411C125.978 163.341 125.856 163.139 125.694 162.874L126.101 163.614Z" fill="white"/>
<path d="M119.976 156.454L121.511 156.861C122.056 157.006 122.947 157.242 123.493 157.387L125.027 157.794C125.572 157.939 126.12 157.644 126.246 157.139L126.599 155.718C126.724 155.213 126.929 154.386 127.054 153.881L127.407 152.459C127.533 151.955 127.176 151.788 126.615 152.09L125.652 152.607C125.3 152.058 124.947 151.513 124.811 151.313C124.501 150.86 123.905 150.513 122.735 150.519C121.867 150.524 119.559 150.536 118.1 150.543L120.035 153.645C120.078 153.684 120.119 153.734 120.155 153.8C120.247 153.971 120.598 154.557 120.948 155.136L120.006 155.643C119.445 155.944 119.431 156.309 119.976 156.454Z" fill="white"/>
<path d="M114.612 151.577C114.115 152.266 112.854 154.099 112.854 154.099C112.572 154.51 112.716 155.048 113.175 155.293L116.267 156.949C116.726 157.194 117.327 157.056 117.603 156.641C117.603 156.641 119.347 154.027 119.508 153.785C119.674 153.533 119.874 153.496 120.036 153.645L118.101 150.543C117.595 150.546 117.191 150.548 116.984 150.55C116.179 150.554 115.259 150.681 114.612 151.577Z" fill="white"/>
<path d="M109.144 163.167C109.492 163.783 110.456 165.37 111.162 166.533L113.353 163.265C113.612 162.863 114.09 162.117 114.49 161.499L115.611 162.068C116.181 162.357 116.533 162.182 116.394 161.68L116.001 160.267C115.862 159.765 115.634 158.944 115.495 158.442L115.103 157.029C114.964 156.527 114.408 156.245 113.866 156.402L112.344 156.844C111.803 157.001 110.918 157.258 110.377 157.415L108.855 157.857C108.314 158.014 108.337 158.379 108.906 158.668L109.733 159.087C109.311 159.833 108.813 160.713 108.688 160.965C108.461 161.421 108.601 162.208 109.144 163.167Z" fill="white"/>
<path d="M113.354 163.265L111.163 166.533C111.557 167.181 111.871 167.697 111.954 167.84C112.185 168.241 112.516 169.027 114.607 169.016C116.697 169.005 117.647 169 117.647 169C118.179 168.997 118.612 168.598 118.608 168.113L118.588 164.839C118.585 164.354 118.148 163.959 117.615 163.962C117.615 163.962 114.057 163.981 113.463 163.983C113.088 163.986 113.041 163.759 113.172 163.548C113.19 163.52 113.257 163.416 113.354 163.265Z" fill="white"/>
<path d="M126.101 163.614L127.913 166.914C128.546 165.849 129.622 163.998 130.062 163.198C130.651 162.128 130.817 161.2 130.546 160.712C130.275 160.223 128.933 157.851 128.933 157.851C128.689 157.42 128.119 157.275 127.666 157.529L124.595 159.253C124.141 159.507 123.983 160.062 124.242 160.486C124.242 160.486 125.175 162.017 125.694 162.874C125.856 163.139 125.978 163.341 126.019 163.411C126.061 163.484 126.089 163.552 126.101 163.614Z" fill="white"/>
<path d="M127.464 167.654C127.535 167.544 127.699 167.273 127.912 166.914L126.101 163.614C126.139 163.805 126.033 163.936 125.772 163.937C125.594 163.939 124.712 163.943 123.899 163.947L123.889 162.924C123.883 162.33 123.543 162.137 123.133 162.495L121.98 163.504C121.57 163.862 120.899 164.448 120.489 164.807L119.336 165.815C118.926 166.173 118.932 166.754 119.348 167.106L120.521 168.095C120.938 168.447 121.62 169.022 122.037 169.374L123.21 170.363C123.627 170.715 123.964 170.516 123.958 169.922L123.947 168.949C124.406 168.947 124.913 168.944 125.382 168.942C126.686 168.935 127.178 168.093 127.464 167.654Z" fill="white"/>
<path d="M42.9512 138.038L45.7523 185.762C45.8039 187.057 46.9952 188.083 48.4478 188.083H81.5081C82.9607 188.083 84.1523 187.057 84.2039 185.762L87.005 138.038H42.9512Z" fill="#FA5652"/>
<path d="M89.1509 138.037H40.8047V132.751H89.1509V138.037Z" fill="#DF462E"/>
<path d="M87.005 132.751H42.9512L46.3679 118.661H83.5883L87.005 132.751Z" fill="#FA5652"/>
<path d="M76.9891 130.122H52.9669C51.7459 130.122 50.7559 129.239 50.7559 128.15V125.162C50.7559 124.074 51.7459 123.191 52.9669 123.191H76.9891C78.2101 123.191 79.2001 124.074 79.2001 125.162V128.15C79.2001 129.239 78.2101 130.122 76.9891 130.122Z" fill="#383340"/>
<path d="M71.51 163.614C71.4977 163.552 71.4701 163.484 71.4278 163.411C71.387 163.341 71.2646 163.139 71.1035 162.874L71.51 163.614Z" fill="white"/>
<path d="M65.3869 156.454L66.9208 156.861C67.4659 157.006 68.3575 157.242 68.9029 157.387L70.4371 157.794C70.9819 157.939 71.5306 157.644 71.656 157.139L72.0091 155.718C72.1342 155.213 72.3388 154.386 72.4642 153.881L72.8176 152.459C72.9436 151.955 72.5863 151.788 72.025 152.09L71.0626 152.607C70.7098 152.058 70.357 151.513 70.2211 151.313C69.9112 150.86 69.3154 150.513 68.1454 150.519C67.2769 150.524 64.9693 150.536 63.5098 150.543L65.4454 153.645C65.4886 153.684 65.5291 153.734 65.5651 153.8C65.6575 153.971 66.0082 154.557 66.3577 155.136L65.416 155.643C64.8547 155.944 64.8418 156.309 65.3869 156.454Z" fill="white"/>
<path d="M60.0217 151.577C59.5246 152.266 58.2637 154.099 58.2637 154.099C57.9814 154.51 58.1254 155.048 58.5844 155.293L61.6759 156.949C62.1349 157.194 62.737 157.056 63.0127 156.641C63.0127 156.641 64.7563 154.027 64.9177 153.785C65.0836 153.533 65.284 153.496 65.4454 153.645L63.5098 150.543C63.0046 150.546 62.6002 150.548 62.3932 150.55C61.5883 150.554 60.6679 150.681 60.0217 151.577Z" fill="white"/>
<path d="M54.5539 163.167C54.9019 163.783 55.8661 165.37 56.5726 166.533L58.7635 163.265C59.0218 162.863 59.5006 162.117 59.8999 161.499L61.0216 162.068C61.5907 162.357 61.9429 162.182 61.804 161.68L61.4113 160.267C61.2724 159.765 61.0444 158.944 60.9052 158.442L60.5134 157.029C60.3742 156.527 59.8177 156.245 59.2765 156.402L57.7546 156.844C57.2134 157.001 56.3284 157.258 55.7875 157.415L54.2653 157.857C53.7241 158.014 53.7472 158.379 54.3166 158.668L55.1434 159.087C54.721 159.833 54.2236 160.713 54.0982 160.965C53.8714 161.421 54.0115 162.208 54.5539 163.167Z" fill="white"/>
<path d="M58.7632 163.265L56.5723 166.533C56.9662 167.181 57.28 167.697 57.3631 167.84C57.5944 168.241 57.9256 169.027 60.0166 169.016C62.1064 169.005 63.0565 169 63.0565 169C63.5878 168.997 64.021 168.598 64.0177 168.113L63.9976 164.839C63.994 164.354 63.5569 163.959 63.0244 163.962C63.0244 163.962 59.4658 163.981 58.8724 163.983C58.4977 163.986 58.45 163.759 58.5817 163.548C58.5997 163.52 58.6666 163.416 58.7632 163.265Z" fill="white"/>
<path d="M71.5103 163.614L73.3217 166.914C73.9556 165.849 75.0314 163.998 75.4715 163.198C76.0598 162.128 76.2263 161.2 75.9554 160.712C75.6836 160.223 74.3426 157.851 74.3426 157.851C74.0984 157.42 73.5287 157.275 73.0751 157.529L70.0039 159.253C69.5503 159.507 69.3919 160.062 69.6505 160.486C69.6505 160.486 70.5838 162.017 71.1037 162.874C71.2649 163.139 71.3873 163.341 71.4281 163.411C71.4704 163.484 71.498 163.552 71.5103 163.614Z" fill="white"/>
<path d="M72.8738 167.654C72.9452 167.544 73.109 167.273 73.3223 166.914L71.5109 163.614C71.5493 163.805 71.4428 163.936 71.1824 163.937C71.0042 163.939 70.1222 163.943 69.3092 163.947L69.2993 162.924C69.293 162.33 68.9531 162.137 68.5433 162.495L67.3901 163.504C66.98 163.862 66.3089 164.448 65.8994 164.807L64.7462 165.815C64.3361 166.173 64.3424 166.754 64.7579 167.106L65.9315 168.095C66.3482 168.447 67.0301 169.022 67.4474 169.374L68.6201 170.363C69.0371 170.715 69.374 170.516 69.3677 169.922L69.3575 168.949C69.8168 168.947 70.3235 168.944 70.7921 168.942C72.0959 168.935 72.5885 168.093 72.8738 167.654Z" fill="white"/>
<path d="M149.852 137.428L152.653 185.153C152.704 186.448 153.896 187.473 155.348 187.473H188.408C189.861 187.473 191.053 186.448 191.104 185.153L193.906 137.428H149.852Z" fill="#F5C108"/>
<path d="M196.051 137.428H147.705V132.142H196.051V137.428Z" fill="#E4AE1B"/>
<path d="M193.906 132.142H149.852L153.268 118.052H190.489L193.906 132.142Z" fill="#F5C108"/>
<path d="M183.889 129.513H159.867C158.646 129.513 157.656 128.63 157.656 127.541V124.553C157.656 123.464 158.646 122.582 159.867 122.582H183.889C185.11 122.582 186.1 123.464 186.1 124.553V127.541C186.1 128.63 185.11 129.513 183.889 129.513Z" fill="#3B3B41"/>
<path d="M178.411 163.004C178.398 162.943 178.371 162.874 178.329 162.802C178.287 162.732 178.165 162.53 178.004 162.264L178.411 163.004Z" fill="white"/>
<path d="M172.287 155.845L173.821 156.252C174.366 156.396 175.258 156.633 175.804 156.778L177.337 157.185C177.882 157.33 178.431 157.035 178.556 156.529L178.909 155.108C179.035 154.603 179.239 153.777 179.365 153.272L179.718 151.85C179.844 151.345 179.487 151.179 178.925 151.48L177.963 151.998C177.61 151.449 177.257 150.904 177.121 150.704C176.812 150.251 176.216 149.904 175.046 149.91C174.177 149.914 171.87 149.926 170.41 149.934L172.346 153.036C172.389 153.075 172.43 153.125 172.466 153.191C172.558 153.361 172.909 153.948 173.258 154.527L172.317 155.033C171.755 155.335 171.742 155.7 172.287 155.845Z" fill="white"/>
<path d="M166.922 150.967C166.425 151.656 165.164 153.49 165.164 153.49C164.882 153.901 165.026 154.439 165.485 154.684L168.577 156.339C169.035 156.585 169.637 156.447 169.913 156.032C169.913 156.032 171.657 153.417 171.818 153.175C171.984 152.924 172.184 152.886 172.346 153.036L170.41 149.934C169.905 149.937 169.501 149.939 169.294 149.94C168.489 149.944 167.568 150.072 166.922 150.967Z" fill="white"/>
<path d="M161.454 162.557C161.803 163.174 162.767 164.761 163.473 165.924L165.664 162.656C165.922 162.253 166.401 161.508 166.8 160.89L167.922 161.459C168.491 161.748 168.844 161.573 168.704 161.071L168.312 159.658C168.173 159.156 167.945 158.335 167.806 157.833L167.414 156.42C167.275 155.917 166.718 155.635 166.177 155.792L164.655 156.235C164.114 156.392 163.229 156.649 162.688 156.806L161.166 157.248C160.625 157.405 160.648 157.77 161.217 158.059L162.044 158.478C161.621 159.224 161.124 160.104 160.999 160.356C160.772 160.812 160.912 161.599 161.454 162.557Z" fill="white"/>
<path d="M165.664 162.656L163.473 165.924C163.867 166.571 164.181 167.088 164.264 167.231C164.495 167.632 164.826 168.417 166.917 168.407C169.006 168.396 169.957 168.391 169.957 168.391C170.488 168.388 170.921 167.989 170.918 167.503L170.898 164.23C170.894 163.745 170.457 163.35 169.925 163.353C169.925 163.353 166.366 163.371 165.773 163.374C165.398 163.376 165.35 163.15 165.482 162.939C165.5 162.911 165.567 162.807 165.664 162.656Z" fill="white"/>
<path d="M178.41 163.004L180.222 166.305C180.855 165.24 181.932 163.389 182.372 162.589C182.96 161.518 183.127 160.591 182.855 160.103C182.584 159.614 181.242 157.242 181.242 157.242C180.999 156.81 180.429 156.666 179.976 156.92L176.904 158.644C176.451 158.898 176.292 159.453 176.551 159.877C176.551 159.877 177.484 161.407 178.004 162.264C178.165 162.53 178.287 162.732 178.329 162.802C178.371 162.874 178.398 162.943 178.41 163.004Z" fill="white"/>
<path d="M179.774 167.045C179.846 166.934 180.009 166.664 180.223 166.305L178.411 163.004C178.45 163.196 178.343 163.327 178.083 163.328C177.905 163.329 177.023 163.334 176.21 163.338L176.2 162.315C176.193 161.72 175.854 161.527 175.443 161.886L174.29 162.894C173.881 163.252 173.209 163.839 172.8 164.197L171.647 165.206C171.236 165.564 171.243 166.145 171.658 166.496L172.832 167.486C173.249 167.837 173.93 168.412 174.348 168.764L175.52 169.754C175.937 170.105 176.274 169.907 176.268 169.312L176.258 168.34C176.717 168.337 177.224 168.335 177.692 168.332C178.996 168.325 179.489 167.483 179.774 167.045Z" fill="white"/>
<path d="M241.561 99.0718C241.188 98.631 240.815 98.1907 240.442 97.7501C240.526 97.2691 240.61 96.7882 240.694 96.3069C240.588 96.2395 240.483 96.1719 240.378 96.1042C240.279 96.2165 240.181 96.3286 240.082 96.4407C240.023 96.0237 239.965 95.6069 239.906 95.1899C239.627 94.9563 239.349 94.7223 239.07 94.4888C238.57 94.577 238.071 94.6653 237.572 94.7536C237.228 95.1085 236.884 95.463 236.54 95.818C236.69 96.2478 236.843 96.6897 236.992 97.1113C237.447 97.5492 237.867 97.749 238.33 98.2434C238.792 98.7375 239.298 99.5258 239.769 100.076C240.368 99.7507 240.963 99.4051 241.561 99.0718Z" fill="#E3C5A5"/>
<path d="M241.474 97.2512C243.336 99.0378 245.229 100.808 246.946 102.715C248.009 103.895 249.463 107.217 251.329 105.986C253.432 104.597 255.536 103.208 257.64 101.819C258.005 101.578 258.376 101.334 258.806 101.204C261.296 100.445 262.505 103.517 263.061 105.195C263.381 106.161 263.333 105.824 263.569 106.806C263.701 107.351 263.818 107.932 263.613 108.442C263.369 109.05 262.726 109.42 262.111 109.732C259.543 111.035 256.791 112.051 253.932 112.76C252.425 113.134 250.886 113.425 249.328 113.621C247.662 113.831 247.556 113.552 246.803 112.175C244.147 107.321 241.087 104.108 238.575 99.1919C239.541 98.5448 240.507 97.8983 241.474 97.2512Z" fill="white"/>
<path d="M154.507 87.6327L153.844 81.9344C153.754 81.2044 153.039 80.6651 152.217 80.7074L150.799 80.7807C149.976 80.8229 149.336 81.4323 149.341 82.1669L149.419 87.8951C149.422 88.4483 149.059 88.9592 148.485 89.1687C146.94 89.7318 145.885 91.1265 145.986 92.6903L147.391 114.349C147.44 115.109 148.171 115.69 149.024 115.646L158.487 115.158C159.34 115.114 159.991 114.462 159.942 113.702L158.537 92.043C158.435 90.4792 157.207 89.2021 155.599 88.8017C155.002 88.6529 154.575 88.1827 154.507 87.6327Z" fill="#695A51"/>
<path d="M154.249 81.5875L148.894 81.8635L148.82 80.7213L154.175 80.4452L154.249 81.5875Z" fill="#5F4D3D"/>
<path d="M158.187 99.5627L157.389 99.6039L156.971 93.167C156.637 90.5356 154.974 90.5223 154.904 90.5228L154.88 89.8102C154.98 89.807 157.345 89.7709 157.768 93.1066L158.187 99.5627Z" fill="#897670"/>
<path d="M76.5077 180.713C75.2285 180.713 74.1914 181.638 74.1914 182.778V190.09C74.1914 191.23 75.2285 192.155 76.5077 192.155H83.6261C85.076 192.155 86.4131 191.715 87.4907 190.985C88.5017 191.715 89.7857 192.155 91.1801 192.155H102.437C103.422 192.155 104.221 191.443 104.221 190.564V182.304C104.221 181.425 103.422 180.713 102.437 180.713H91.1801C89.7857 180.713 88.5017 181.153 87.4907 181.883C86.4131 181.152 85.076 180.713 83.6261 180.713H76.5077Z" fill="white"/>
<path d="M74.3622 184.131V188.737H71.8477V184.131H74.3622Z" fill="white"/>
<path d="M72.3365 183.772V189.095H69.0068V183.772H72.3365Z" fill="#4C70BF"/>
<path d="M92.2557 181.813V191.055H91.5723V181.813H92.2557Z" fill="#C0C5C7"/>
<path d="M95.9568 181.813V191.055H95.2734V181.813H95.9568Z" fill="#C0C5C7"/>
<path d="M99.4314 181.813V191.055H98.748V181.813H99.4314Z" fill="#C0C5C7"/>
<path d="M63.2877 64.892C62.4624 63.8562 60.852 63.6133 59.6907 64.349L52.245 69.0655C51.0834 69.8011 50.811 71.2374 51.636 72.2728L56.2278 78.0361C57.1632 79.2099 58.4736 80.0089 59.9121 80.4105C59.8212 81.6998 60.201 83.0231 61.1007 84.152L68.3622 93.266C68.9979 94.0639 70.2387 94.2512 71.1333 93.6844L79.5447 88.3563C80.4396 87.7894 80.6496 86.6831 80.0139 85.8851L72.7524 76.7711C71.8527 75.642 70.5765 74.8869 69.1809 74.5388C69.2298 73.1952 68.8149 71.8293 67.8795 70.6553L63.2877 64.892Z" fill="white"/>
<path d="M58.4242 65.3597L53.7331 68.3313L52.1113 66.2956L56.8021 63.324L58.4242 65.3597Z" fill="white"/>
<path d="M57.4815 63.4885L52.0611 66.9221L49.9131 64.2263L55.3338 60.7924L57.4815 63.4885Z" fill="#4C70BF"/>
<path d="M72.3257 78.3521L62.9153 84.3131L62.4746 83.7599L71.885 77.7987L72.3257 78.3521Z" fill="#C0C5C7"/>
<path d="M74.7134 81.3487L65.303 87.3102L64.8623 86.7567L74.2727 80.7957L74.7134 81.3487Z" fill="#C0C5C7"/>
<path d="M76.9536 84.1611L67.5432 90.1223L67.1025 89.5689L76.5129 83.6079L76.9536 84.1611Z" fill="#C0C5C7"/>
<path d="M146.296 105.484L147.24 104.659L148.217 105.773L149.257 105.929L150.467 107.803L149.052 109.628L146.202 110.154L145.265 107.021L146.296 105.484Z" fill="#CFB999"/>
<path d="M212.176 83.376L246.919 78.8007L252.385 71.4222L217.953 75.9563C217.953 75.9563 212.378 83.6336 212.176 83.376Z" fill="#7E6A53"/>
<path d="M219.907 77.7548L241.365 74.9289L242.135 79.5751L220.344 82.4448L219.907 77.7548Z" fill="#E2DEC6"/>
<path d="M216.184 69.1221C216.184 69.1221 216.555 70.7894 218.101 73.8804L226.691 92.2985L224.347 93.1671L213.584 70.0864L216.184 69.1221Z" fill="#E7E7E8"/>
<path d="M216.184 69.1221C216.56 69.928 215.157 71.2144 213.051 71.9955C210.944 72.7766 208.932 72.7566 208.556 71.9506C208.18 71.1446 209.583 69.8582 211.69 69.0771C213.796 68.2963 215.809 68.3164 216.184 69.1221Z" fill="#E7E7E8"/>
<path d="M210.622 70.5459L211.511 72.4524C211.931 72.3679 212.369 72.2478 212.814 72.0832C214.249 71.5507 215.477 70.8776 215.525 70.009C214.972 69.0094 211.902 70.0561 210.622 70.5459Z" fill="#C0C5C7"/>
<path d="M212.978 72.0206C212.243 72.2871 211.523 72.4556 210.881 72.527C209.706 72.6581 208.796 72.4658 208.556 71.9508L214.321 84.3133L219.319 95.0312L226.033 92.5419L215.711 70.4073L215.526 70.009C215.48 70.8442 214.342 71.4985 212.978 72.0206Z" fill="white"/>
<path d="M255.72 63.588C255.72 63.588 254.654 65.274 253.116 68.9182L243.632 90.257L241.783 89.6035L253.668 62.8628L255.72 63.588Z" fill="#E7E7E8"/>
<path d="M255.72 63.5879C255.305 64.5215 253.621 64.8021 251.958 64.2147C250.296 63.6272 249.285 62.3943 249.7 61.4605C250.115 60.5269 251.799 60.2463 253.461 60.8338C255.124 61.4212 256.135 62.6544 255.72 63.5879Z" fill="#E7E7E8"/>
<path d="M251.811 61.4771L250.829 63.6859C251.107 63.8656 251.421 64.0251 251.771 64.1489C252.905 64.5491 254.038 64.7008 254.716 63.9681C255.186 62.7571 252.832 61.8206 251.811 61.4771Z" fill="#C0C5C7"/>
<path d="M251.903 64.1931C251.327 63.9828 250.833 63.6955 250.452 63.3705C249.754 62.7759 249.435 62.0576 249.7 61.4608L243.334 75.7839L237.815 88.2012L243.114 90.0737L254.512 64.4293L254.717 63.9681C254.065 64.6724 252.992 64.5588 251.903 64.1931Z" fill="white"/>
<path d="M247.77 61.8826C247.77 61.8826 247.202 63.7506 246.715 67.62L243.403 90.3823L241.431 90.1542L245.581 61.6296L247.77 61.8826Z" fill="#E7E7E8"/>
<path d="M247.771 61.8826C247.626 62.8785 246.07 63.5197 244.297 63.3146C242.524 63.1094 241.204 62.1357 241.349 61.1398C241.493 60.1439 243.049 59.5026 244.822 59.7078C246.595 59.913 247.915 60.8867 247.771 61.8826Z" fill="#DADADC"/>
<path d="M243.401 60.6931L243.058 63.0492C243.377 63.1624 243.725 63.2482 244.099 63.2916C245.307 63.4312 246.447 63.3298 246.903 62.4711C247.025 61.1944 244.485 60.8022 243.401 60.6931Z" fill="#C0C5C7"/>
<path d="M244.237 63.3058C243.621 63.2282 243.063 63.0578 242.604 62.8264C241.764 62.403 241.256 61.7765 241.349 61.1401L239.125 76.4186L237.198 89.6647L242.851 90.3185L246.831 62.9631L246.903 62.4712C246.465 63.297 245.393 63.4216 244.237 63.3058Z" fill="#E7E7E8"/>
<path d="M230.948 66.4542C230.948 66.4542 230.426 68.3198 230.335 72.1477L229.156 94.6899L226.289 94.5706L227.766 66.3218L230.948 66.4542Z" fill="#BCC2BE"/>
<path d="M230.948 66.4542C230.896 67.4405 228.765 68.1531 226.186 68.0458C223.608 67.9388 221.56 67.0523 221.611 66.0661C221.663 65.0798 223.795 64.3672 226.373 64.4742C228.951 64.5814 231 65.4677 230.948 66.4542Z" fill="#BCC2BE"/>
<path d="M224.487 65.518L224.365 67.8514C224.841 67.9456 225.354 68.0114 225.898 68.0341C227.655 68.1069 229.276 67.9466 229.795 67.0786C229.769 65.8173 226.061 65.5675 224.487 65.518Z" fill="#AAADAA"/>
<path d="M226.099 68.0405C225.203 67.9969 224.375 67.8594 223.679 67.6564C222.406 67.2851 221.579 66.6966 221.612 66.0664L220.821 81.1973L220.135 94.3149L228.353 94.6565L229.769 67.5657L229.794 67.0786C229.296 67.9132 227.777 68.093 226.099 68.0405Z" fill="#DADADC"/>
<path d="M250.531 100.611L215.788 105.187L212.176 83.376L246.919 78.8007L250.531 100.611Z" fill="#927B67"/>
<path d="M212.175 83.376L211.609 92.9819L245.883 88.4684L246.9 78.6565L212.175 83.376Z" fill="#A58966"/>
<path d="M252.352 71.2269L255.746 91.7164L250.499 100.416L246.887 78.6054L252.352 71.2269Z" fill="#84715B"/>
<path d="M246.919 78.8007L251.318 85.1688L256.809 77.4913L252.385 71.4223L246.919 78.8007Z" fill="#96795D"/>
<path d="M226.623 81.4818C226.623 81.4818 232.91 80.5137 235.702 84.9778C235.702 84.9778 242.778 78.9307 244.506 78.9427L239.126 76.4186L235.259 77.9607L226.623 81.4818Z" fill="white"/>
<path d="M90.5014 99.1291C90.442 99.1933 90.3796 99.2567 90.3193 99.3206C90.3274 99.3391 90.337 99.3573 90.3448 99.3757C90.4039 99.3038 90.4591 99.2254 90.5014 99.1291Z" fill="#F1B524"/>
<path d="M87.4369 96.3211C85.9966 95.8581 84.3985 96.3307 83.0194 96.9241C81.0562 97.7691 79.2301 98.8666 77.6149 100.172C76.2775 101.253 74.9119 102.55 73.1125 102.675C72.313 102.73 71.5183 102.539 70.7167 102.522C69.9151 102.505 69.0187 102.724 68.6239 103.346C68.1715 104.058 68.5654 104.956 69.0553 105.648C69.799 106.699 70.8253 107.661 72.1555 108.031C73.0276 108.274 73.9654 108.246 74.8723 108.146C79.0534 107.685 82.8034 105.76 85.9459 103.335C88.0558 101.707 91.8064 97.7263 87.4369 96.3211Z" fill="#F1B524"/>
<path d="M90.4172 97.5626C90.3974 97.6439 90.3749 97.7257 90.3545 97.8073C90.371 97.8204 90.3887 97.8325 90.4055 97.8456C90.4208 97.7576 90.4292 97.6653 90.4172 97.5626Z" fill="#FBC826"/>
<path d="M86.2462 96.3284C84.7288 96.509 83.5543 97.5849 82.6369 98.6781C81.3307 100.234 80.2765 101.958 79.5172 103.78C78.8884 105.289 78.3463 107.001 76.8133 107.851C76.1323 108.228 75.328 108.385 74.608 108.699C73.8877 109.013 73.2049 109.576 73.1758 110.29C73.1425 111.108 73.9555 111.743 74.7478 112.156C75.9505 112.783 77.3584 113.216 78.7306 112.998C79.6303 112.856 80.4481 112.446 81.2014 111.985C84.6745 109.859 87.0088 106.609 88.5457 103.166C89.5774 100.855 90.8506 95.7816 86.2462 96.3284Z" fill="#F5C108"/>
<path d="M86.5324 97.3772C86.5054 97.4569 86.4808 97.5383 86.4541 97.6185C86.4325 97.6225 86.4103 97.6257 86.3887 97.63C86.4235 97.5463 86.4661 97.462 86.5324 97.3772Z" fill="#FBC826"/>
<path d="M90.8508 98.1008C92.0799 98.9148 92.5221 100.364 92.7303 101.716C93.0264 103.642 93.0111 105.606 92.6844 107.528C92.4141 109.119 91.9572 110.851 92.8362 112.256C93.2268 112.881 93.8451 113.365 94.3041 113.952C94.7628 114.538 95.0544 115.325 94.6914 115.962C94.2759 116.692 93.2196 116.896 92.3019 116.915C90.9087 116.944 89.4426 116.713 88.3605 115.93C87.651 115.416 87.159 114.704 86.7507 113.975C84.8691 110.614 84.594 106.763 85.1217 103.088C85.476 100.62 87.1212 95.6321 90.8508 98.1008Z" fill="#F5C108"/>
<path d="M88.9583 99.1502L86.9519 98.0344C86.5976 97.8373 86.4893 97.4213 86.7104 97.1054L88.2995 94.8335C88.5206 94.5174 88.9871 94.4211 89.3414 94.6182L91.3478 95.7339C91.7021 95.9311 91.8104 96.3468 91.5893 96.6627L89.9999 98.9349C89.7791 99.2508 89.3126 99.3473 88.9583 99.1502Z" fill="#FBC826"/>
</g>
<defs>
<clipPath id="clip0">
<rect width="300" height="214" fill="white"/>
</clipPath>
</defs>
</svg>
