<svg fill="none" height="200" viewBox="0 0 251 200" width="251" xmlns="http://www.w3.org/2000/svg" xmlns:xlink="http://www.w3.org/1999/xlink"><clipPath id="a"><path d="m.52832 0h250v200h-250z"/></clipPath><g clip-path="url(#a)"><path d="m179.278 136.756c0 18.1-9.315 24.42-20.805 24.42-11.491 0-20.806-6.32-20.806-24.42 0-18.099 20.806-41.1251 20.806-41.1251s20.805 23.0261 20.805 41.1251z" fill="#1db776"/><path d="m157.927 143.259 8.868-18.74-8.835 16.364.096-6.811 6.112-13.559-6.087 11.756.172-12.25 6.545-10.794-6.517 8.868.107-22.4624-.647 28.4624-6.627-11.718 6.547 14.12-.62 13.681-.019-.363-7.67-12.381 7.647 13.663-.078 1.711-.014.026.007.141-1.573 18.256h2.101l.253-1.474 7.628-13.631-7.609 12.283z" fill="#3f3d56"/><path d="m250.528 78.5596c0 34.5744-17.793 46.6474-39.743 46.6474s-39.744-12.073-39.744-46.6474c0-34.5749 39.744-78.5596 39.744-78.5596s39.743 43.9847 39.743 78.5596z" fill="#1db776"/><path d="m209.337 119.918.407-28.9362 16.94-35.798-16.876 31.2587.183-13.0109 11.675-25.8994-11.627 22.4564v.0002l.329-23.4007 12.502-20.6192-12.45 16.9395.206-42.9084-1.293 56.803.107-2.3433-12.711-22.4737 12.507 26.9719-1.184 26.1344-.036-.6936-14.653-23.6502 14.609 26.1007-.148 3.2685-.027.0492.012.2681-3.004 66.305h4.014l.482-34.248 14.573-26.0364z" fill="#3f3d56"/><path d="m248.897 150.951c0 10.32-57.953 49.049-125.701 49.049-67.7475 0-122.66768-20.044-122.66768-30.364 0-10.319 53.57218 1.947 121.31968 1.947 67.748 0 127.049-30.952 127.049-20.632z" fill="#3f3d56"/><path d="m248.897 150.951c0 10.32-57.953 49.049-125.701 49.049-67.7475 0-122.66768-20.044-122.66768-30.364 0-10.319 53.57218 1.947 121.31968 1.947 67.748 0 127.049-30.952 127.049-20.632z" fill="#000" opacity=".1"/><path d="m248.897 150.951c0 10.32-57.953 37.371-125.701 37.371-67.7475 0-122.66768-8.366-122.66768-18.686 0-10.319 53.57218-9.732 121.31968-9.732 67.748 0 127.049-19.273 127.049-8.953z" fill="#3f3d56"/><path d="m124.569 176.251c28.769 0 52.091-2.084 52.091-4.654 0-2.571-23.322-4.654-52.091-4.654-28.7694 0-52.0915 2.083-52.0915 4.654 0 2.57 23.3221 4.654 52.0915 4.654z" fill="#000" opacity=".1"/><path d="m83.3019 78.3328s15.2501.3262 12.426 3.4253-13.4144 0-13.4144 0z" fill="#a0616a"/><path d="m51.5276 40.6905s6.1571-1.2701 8.298 4.4716c2.1409 5.7416 6.5377 22.1165 6.5377 22.1165s11.7663 8.9967 13.9065 8.7011 5.7988.3075 5.1277 3.0046c-.6712 2.697-.3732 5.7553-1.9182 6.1301s-4.0023-3.2031-5.8829-1.4798c-1.8805 1.7234-18.6403-4.5712-19.7163-5.8754s-10.0178-29.5457-10.0178-29.5457.3577-7.615 3.6653-7.523z" fill="#f5c108"/><path d="m64.7336 161.927.706 6.85-5.9305 1.794-3.389-1.794v-6.035z" fill="#ffb9b9"/><path d="m48.7776 166.331.706 6.85-5.9306 1.794-3.3889-1.794v-6.035z" fill="#ffb9b9"/><path d="m65.2989 87.0591 2.6829 11.2546 3.9537 22.8353s1.1296 5.546-1.1296 12.233c-2.2593 6.688-6.3543 28.544-5.507 29.849.8472 1.305-9.6019 2.284-9.4607.979s1.5532-19.247 1.5532-19.247 1.9769-15.822 2.9653-17.779-4.5185-6.851-4.5185-6.851-1.4121 18.758-3.5301 20.389c-2.1181 1.631-1.8357 26.913-2.8242 27.239-.9884.327-8.1898 1.632-9.037 0-.8473-1.631 0-28.87 0-28.87s4.8009-20.715 3.8125-23.651c-.9885-2.936-.4236-15.4952-.4236-15.4952s-3.6714-9.6235-1.6945-14.6799z" fill="#2f2e41"/><path d="m64.8749 24.4251s-5.9306 8.4817-5.6482 12.2332c.2825 3.7516-9.3195-6.8506-9.3195-6.8506s6.9191-10.7652 6.9191-13.0487c0-2.2836 8.0486 7.6661 8.0486 7.6661z" fill="#ffb9b9"/><path d="m64.8039 27.6057c5.147 0 9.3195-4.8198 9.3195-10.7653 0-5.9454-4.1725-10.7652-9.3195-10.7652s-9.3195 4.8198-9.3195 10.7652c0 5.9455 4.1725 10.7653 9.3195 10.7653z" fill="#ffb9b9"/><path d="m41.3172 80.9573c-.4222 1.817-.946 3.8771-.8712 5.6126.048 1.1238 2.6307 1.861 6.2017 2.3439 3.3113.4485 7.4726.6769 11.2555.7943 3.972.124 7.5233.124 9.2305.124 5.0834 0 .9884-3.7516-.9884-5.5458-1.9769-1.7942-1.5533-27.2393-1.4121-30.5015s-1.2708-12.7225-1.2708-14.5167c0-1.7943-3.3226-6.4771-3.3226-6.4771s-.7724 2.5624-3.8789-.8629-7.2014-4.4039-7.2014-4.4039c-3.1065 1.3048-8.3311 15.6585-8.6135 18.1051-.1144.9934-.0198 6.0808.1723 11.8891.2782 8.4899.7639 18.526 1.0986 19.5911.264.84-.0283 2.2493-.3997 3.8478z" fill="#f5c108"/><path d="m56.4026 90.4844.9883 4.0778-3.8125 4.5671-1.2708-6.3615z" fill="#ffb9b9"/><path d="m57.6735 166.983s2.9653 3.914 5.2246 1.305c2.2593-2.61 2.1181-4.241 2.5417-4.241s6.7778 6.524 6.7778 6.524 10.8728 2.936 4.9422 5.057c-5.9306 2.12-22.734.652-22.734 0 0-.653-.4236-9.298 1.1297-9.298z" fill="#2f2e41"/><path d="m41.7175 171.387s2.9653 3.915 5.2245 1.305c2.2593-2.61 2.1181-4.241 2.5417-4.241s6.7779 6.524 6.7779 6.524 10.8727 2.936 4.9421 5.057c-5.9306 2.12-22.7339.652-22.7339 0 0-.653-.4237-9.298 1.1296-9.298z" fill="#2f2e41"/><path d="m54.3409 25.4338c-.3011.2247-.693.4523-.9945.2284-1.1207-3.2288-1.9584-6.5791-2.5006-10.0009-.1903-1.2019-.3224-2.538.2556-3.5613.228-.4036.5562-.7336.7232-1.1752.2529-.6688.0864-1.44293.1704-2.16624.1761-1.51534 1.4161-2.57225 2.6631-3.08483 1.247-.51259 2.6014-.67159 3.79-1.3442 1.1286-.63867 2.0326-1.69786 3.0792-2.50163 1.0465-.80377 2.3871-1.35334 3.5526-.81021 1.0311.48048 1.6733 1.69447 2.6478 2.3126.6614.41946 1.4289.53618 2.1671.71624 2.0517.50283 3.978 1.53661 5.6339 3.02355.4029.33199.7503.74568 1.0253 1.22096 1.2506 2.37846-.9885 5.61196-.0006 8.14996l-2.1357-1.9466c-.5704-.5763-1.2136-1.0485-1.9074-1.4003-.7075-.3095-1.5452-.3469-2.1878.1142-.9019.647-1.1464 1.9989-1.4615 3.1699-.315 1.1711-1.0116 2.4698-2.0729 2.4398-1.4434-.0408-1.9481-2.3676-3.2434-3.1043-.8444-.4802-1.9073-.1639-2.6271.5365-.7198.7003-1.1518 1.7165-1.4685 2.7401-.198.6397-.3838 1.3609-.7354 1.9154-.3878.6116-.8838.6608-1.298 1.1175-1.0782 1.1888-1.7411 2.4153-3.0748 3.4106z" fill="#2f2e41"/><path d="m41.3171 80.9573c1.7552 2.9408 3.7335 5.9747 5.3305 7.9565 3.3113.4485 7.4726.6769 11.2554.7943-.6758-1.0584-1.5208-1.9576-2.4894-2.6489-1.8356-1.3049-6.213-16.8003-6.213-16.8003s5.3658-15.9847 6.7778-22.0198c1.4121-6.0351-4.0949-9.4604-4.0949-9.4604-2.5417-2.4466-6.9191 3.2622-6.9191 3.2622s-2.2338 7.7836-4.3462 15.4775c.2781 8.4899.7639 18.526 1.0985 19.5911.2641.84-.0282 2.2493-.3996 3.8478z" fill="#000" opacity=".1"/><path d="m51.4607 37.4738s5.507 3.4253 4.0949 9.4604c-1.412 6.035-6.7778 22.0198-6.7778 22.0198s4.3774 15.4954 6.213 16.8003c1.8357 1.3049 4.3774 4.4039 2.4005 6.035s-3.3889 4.2409-4.801 3.4253c-1.412-.8155-1.412-5.3826-3.8125-5.3826s-12.1436-16.9634-12.2848-18.7576 8.0487-30.3384 8.0487-30.3384 4.3773-5.7088 6.919-3.2622z" fill="#f5c108"/><path d="m165.971 82.0564-1.588-1.835c-.927-1.0703-2.184-1.6716-3.494-1.6716s-2.567.6013-3.493 1.6716l-30.813 35.5926-30.8121-35.5926c-.9266-1.0703-2.1832-1.6716-3.4936-1.6716s-2.567.6013-3.4936 1.6716l-1.5885 1.835c-.4588.5299-.8228 1.1591-1.0711 1.8515s-.3761 1.4346-.3761 2.184c0 .7495.1278 1.4916.3761 2.1841.2483.6924.6123 1.3215 1.0711 1.8515l30.8118 35.5925-30.8118 35.592c-.4588.53-.8228 1.159-1.0711 1.851-.2483.693-.3761 1.435-.3761 2.184 0 .75.1278 1.492.3761 2.185.2483.692.6123 1.321 1.0711 1.851l1.5885 1.835c.9266 1.07 2.1832 1.672 3.4936 1.672s2.567-.602 3.4936-1.672l30.8121-35.592 30.813 35.592c.926 1.07 2.183 1.672 3.493 1.672s2.567-.602 3.494-1.672l1.588-1.835c.927-1.07 1.447-2.522 1.447-4.036 0-1.513-.52-2.965-1.447-4.035l-30.812-35.592 30.812-35.5925c.927-1.0703 1.447-2.5219 1.447-4.0356 0-1.5136-.52-2.9652-1.447-4.0355z" fill="#fa5652"/><g fill="#000"><path d="m86.0957 163.247 29.8973-34.535-.288-.333-28.5097 32.933c-.4775.551-.8518 1.21-1.0996 1.935z" opacity=".1"/><path d="m86.7693 83.2134c.9265-1.0703 2.1832-1.6716 3.4936-1.6716 1.3103 0 2.567.6013 3.4936 1.6716l30.8125 35.5926 30.812-35.5926c.927-1.0703 2.183-1.6716 3.494-1.6716 1.31 0 2.567.6013 3.493 1.6716l1.589 1.8349c.681.7874 1.149 1.7879 1.344 2.8782.195 1.0902.11 2.2227-.245 3.2579l.915-1.0569c.459-.53.823-1.1591 1.071-1.8515.249-.6925.377-1.4346.377-2.1841 0-.7494-.128-1.4916-.377-2.184-.248-.6924-.612-1.3216-1.071-1.8515l-1.588-1.835c-.927-1.0703-2.183-1.6716-3.494-1.6716-1.31 0-2.567.6013-3.493 1.6716l-30.813 35.5926-30.8119-35.5926c-.9266-1.0703-2.1833-1.6716-3.4936-1.6716-1.3104 0-2.5671.6013-3.4937 1.6716l-1.5885 1.835c-.4775.551-.8518 1.2097-1.0996 1.935z" opacity=".1"/><path d="m135.447 126.052-2.302 2.66 30.812 35.592c.681.787 1.148 1.788 1.344 2.878.195 1.09.11 2.223-.245 3.258l.915-1.057c.459-.53.823-1.159 1.071-1.851.249-.693.376-1.435.376-2.184 0-.75-.127-1.492-.376-2.185-.248-.692-.612-1.321-1.071-1.851z" opacity=".1"/></g><path d="m36.4062 149.784c0 15.032-7.7364 20.281-17.2797 20.281-9.5434 0-17.27982-5.249-17.27982-20.281 0-15.033 17.27982-34.157 17.27982-34.157s17.2797 19.124 17.2797 34.157z" fill="#1db776"/><path d="m18.6737 155.185 7.3651-15.565-7.3374 13.591.0797-5.657 5.0759-11.261-5.0549 9.764.1431-10.174 5.4354-8.965-5.413 7.365.0894-18.656-.5377 23.639-5.5042-9.732 5.4375 11.727-.5148 11.363-.0153-.302-6.3707-10.282 6.3513 11.348-.0644 1.421-.0115.021.0053.117-1.3064 15.163h1.7455l.2095-1.225 6.3358-11.321-6.3201 10.201z" fill="#3f3d56"/></g></svg>