<svg width="65" height="88" xmlns="http://www.w3.org/2000/svg"><g fill="none"><g transform="translate(-2 -2)"><circle fill="#2E3749" transform="rotate(-87.23 54.357 20.323)" cx="54.357" cy="20.323" r="11.81"/><path d="M44.43 32.9l.23-.16c.15-.11.36-.26.62-.47a22 22 0 0 0 2-1.86 43.576 43.576 0 0 0 2.53-2.87c.88-1.09 1.79-2.25 2.64-3.48a38.75 38.75 0 0 0 2.42-3.64c.12-.26.25-.51.36-.76l.26-.69a7.82 7.82 0 0 0 .36-1.21 9 9 0 0 0 .17-1.07c.06-.56.08-1.07.1-1.52l.06-1.16.06-.74v-.26c.06-.36 0-.65-.06-.63-.06.02-.19.26-.26.58 0 0 0 .09-.05.26l-.1.75-.11 1.17c0 .45-.08 1-.16 1.49a8.44 8.44 0 0 1-.2 1 7.38 7.38 0 0 1-.37 1.1l-.26.63c-.11.22-.24.46-.37.7a40.81 40.81 0 0 1-2.43 3.56c-.87 1.18-1.81 2.32-2.69 3.37-.45.52-.88 1-1.31 1.49-.43.49-.83.89-1.22 1.28a22.18 22.18 0 0 1-1.94 1.76 9.65 9.65 0 0 1-.79.57l-1.12.74c-.29.19-.48.33-.48.47 0 .14.26.23.67.19a3.43 3.43 0 0 0 1.42-.57l.02-.02z" fill="#333C50"/><path d="M51.67 25.66l.42-.41c.28-.25.67-.61 1.18-1 .25-.21.54-.41.84-.62.3-.21.64-.43 1-.66.69-.44 1.43-.9 2.19-1.34l2.24-1.3c.71-.42 1.37-.83 1.93-1.19.56-.36 1-.69 1.33-.91l.48-.37c.18-.14.26-.3.19-.36s-.22 0-.38.09l-.5.33c-.33.2-.79.48-1.37.8-.58.32-1.25.68-2 1.06l-2.3 1.19c-.78.41-1.56.84-2.28 1.27-.36.22-.7.43-1 .65-.3.22-.62.42-.89.62-.55.39-1 .78-1.27 1l-.45.44a2 2 0 0 0-.5.74c-.09.23-.08.41 0 .5.08.09.28.07.49 0a2.93 2.93 0 0 0 .66-.51l-.01-.02zm2.89-4.55l.06-.11a3 3 0 0 0 .15-.32 4.08 4.08 0 0 0 .26-1.17 7.16 7.16 0 0 0 0-.77c0-.27 0-.55-.07-.83a15.13 15.13 0 0 0-.34-1.75c-.15-.58-.32-1.15-.48-1.68l-.46-1.44c-.13-.42-.23-.77-.29-1-.06-.23-.09-.39-.09-.39s-.12-.24-.21-.22c-.09.02-.12.13-.11.26.01.13 0 .15 0 .41s.1.63.19 1.07l.32 1.48c.12.54.25 1.11.35 1.68.105.552.182 1.11.23 1.67v.76c.012.22.012.44 0 .66a3.3 3.3 0 0 1-.23.91 1.79 1.79 0 0 1-.11.22v.08a1.3 1.3 0 0 0-.18.46.5.5 0 0 0 .07.4.36.36 0 0 0 .41.08 1 1 0 0 0 .52-.44l.01-.02z" fill="#333C50"/><circle fill="#2E3749" transform="rotate(-87.138 50.227 43.673)" cx="50.227" cy="43.673" r="16.661"/><circle fill="#2E3749" transform="rotate(-87.24 25.695 25.667)" cx="25.695" cy="25.667" r="23.7"/><path d="M37.63 83.42l-.14-.12-.41-.37-.65-.61c-.24-.25-.54-.53-.84-.86a26.84 26.84 0 0 1-4.32-6 23.26 23.26 0 0 1-1.8-4.58 20.48 20.48 0 0 1-.73-5.4c.005-.961.082-1.92.23-2.87l.05-.36.07-.36.15-.72c.13-.47.23-1 .4-1.43a21.1 21.1 0 0 1 1.13-2.81l.72-1.52c.24-.51.46-1 .68-1.55a41.75 41.75 0 0 0 2.16-6.44 27.19 27.19 0 0 0 .79-6.6 24.74 24.74 0 0 0-.81-6.18l-.43-1.4c0-.11-.07-.23-.11-.34l-.13-.33-.26-.65c-.31-.87-.74-1.66-1.1-2.43-.09-.2-.19-.38-.3-.56l-.31-.53-.59-1-1-1.82c-.33-.57-.62-1.13-.89-1.63s-.53-1-.74-1.4l-1-2-.35-.71c-.5-1-1.13-1.61-1.4-1.36s-.14 1 .23 1.9l.31.73.89 2.06c.19.44.42.93.67 1.46.25.53.5 1.11.81 1.71l1 1.94.51 1 .26.52c.093.176.176.356.25.54.3.74.66 1.48.9 2.3l.2.61.1.31c0 .1.05.21.08.32l.32 1.29a23.44 23.44 0 0 1 .47 5.61 25.3 25.3 0 0 1-1 6 39.36 39.36 0 0 1-2.23 5.91c-.23.48-.45 1-.7 1.44l-.74 1.42a23.92 23.92 0 0 0-1.41 3.2c-.21.54-.35 1.11-.53 1.66l-.2.84-.1.42-.08.42a22.31 22.31 0 0 0-.37 3.37 23.47 23.47 0 0 0 .69 6.36 27 27 0 0 0 2 5.36 29.83 29.83 0 0 0 4.83 7c.35.38.67.7 1 1 .33.3.53.51.73.7l.46.42.16.14a11.73 11.73 0 0 0 2.92 1.91 5.78 5.78 0 0 0 2.36.58l.3-.73c.05 0 0 0-.12-.15l-.09-.15v-.17.05c0 .05-.1.18-.13.27a.61.61 0 0 0 0 .48.92.92 0 0 0 .32.32.69.69 0 0 0 .23.13.46.46 0 0 0 .27 0l.12-.06a.72.72 0 0 0 .16-.13l.09-.1a.89.89 0 0 0 .16-.45l-.41-.72a15 15 0 0 0-3.49-3.85l-.27-.25z" fill="#333C50"/><path d="M29.67 66.52l.17-.39.57-1.08a23 23 0 0 1 2.58-3.56c.15-.17.3-.35.47-.53l.5-.54c.34-.37.72-.73 1.09-1.11.77-.75 1.6-1.52 2.48-2.32.88-.8 1.79-1.62 2.71-2.48.46-.43.91-.86 1.38-1.32.23-.23.47-.44.69-.68l.66-.71a27.91 27.91 0 0 0 4.34-6.25 29.09 29.09 0 0 0 2.29-6.2c.11-.47.23-.92.31-1.35l.24-1.22c.06-.38.12-.75.17-1.08.05-.33.1-.64.13-.92.06-.56.12-1 .15-1.29v-.46c.05-.65-.05-1.13-.24-1.08-.19.05-.33.47-.4 1l-.06.45c0 .29-.12.72-.21 1.26 0 .27-.1.57-.17.89l-.22 1-.29 1.18c-.1.41-.24.84-.36 1.3a28.91 28.91 0 0 1-2.46 5.87 27.28 27.28 0 0 1-4.34 5.8l-.65.66c-.22.22-.46.42-.68.63l-1.39 1.25c-.93.82-1.86 1.61-2.76 2.4-.9.79-1.77 1.55-2.58 2.31-.4.39-.8.75-1.16 1.13l-.54.55-.51.55a24 24 0 0 0-2.86 3.83c-.28.52-.5.92-.64 1.2l-.2.44c-.1.23-.2.46-.28.69a5.72 5.72 0 0 0-.18.67 4.76 4.76 0 0 0-.16 1.18c0 .69.14 1.14.4 1.2.26.06.59-.25.9-.78.08-.13.15-.28.24-.44.09-.16.18-.32.27-.5.09-.18.17-.36.26-.56.09-.2.19-.39.29-.6l.05.01zm1.92-12.92v-.08a1.68 1.68 0 0 0 .06-.24c0-.21.13-.52.18-.91a11.09 11.09 0 0 0 0-3.23 16.35 16.35 0 0 0-.45-2c-.1-.35-.22-.71-.34-1.08-.12-.37-.26-.73-.42-1.09a36.44 36.44 0 0 0-2.19-4.4c-.83-1.44-1.73-2.82-2.59-4.1-.86-1.28-1.69-2.45-2.39-3.45a95.877 95.877 0 0 1-2.12-3.13l-.16-.25c-.21-.35-.49-.54-.63-.42-.14.12-.09.42.07.74l.14.26c.09.17.22.43.39.74.35.63.86 1.53 1.49 2.58l2.16 3.59c.78 1.32 1.59 2.72 2.33 4.16a37.64 37.64 0 0 1 1.91 4.29c.13.35.23.69.35 1 .12.31.2.67.28 1 .153.602.267 1.213.34 1.83a9.52 9.52 0 0 1 0 2.68c-.05.31-.12.55-.15.72a1.09 1.09 0 0 1-.05.18v.06c-.15.458-.25.93-.3 1.41a1 1 0 0 0 .24.91c.21.16.54.08.93-.2a2.3 2.3 0 0 0 .54-.6 3.17 3.17 0 0 0 .42-.89l-.04-.08zm2.88-19.39v-.94l-.08-2.48c0-.51 0-1.07-.08-1.66-.08-.59-.07-1.21-.1-1.85-.03-.64-.1-1.3-.15-2-.05-.7-.1-1.36-.18-2l-.21-2c-.07-.67-.17-1.33-.25-2-.15-1.28-.36-2.46-.52-3.47-.16-1.01-.34-1.85-.45-2.44l-.18-.92c-.07-.34-.19-.58-.27-.53-.08.05-.09.29 0 .58l.13.93c.08.59.22 1.43.33 2.45.11 1.02.27 2.2.38 3.47.06.64.13 1.29.18 2l.15 2c.06.68.08 1.36.12 2 .04.64.07 1.33.1 2 .03.67 0 1.26.06 1.84.06.58 0 1.14 0 1.65v3.41c0 1 .22 1.88.49 1.9.27.02.48-.81.47-1.85l.06-.09z" fill="#333C50"/><path d="M42.74 52.04l.16-.19.19-.23.22-.33a8.64 8.64 0 0 0 1-2.19 14.81 14.81 0 0 0 .36-1.53c.1-.54.19-1.12.24-1.72.116-1.24.16-2.485.13-3.73 0-1.27-.12-2.53-.24-3.71-.12-1.18-.28-2.27-.43-3.21-.15-.94-.31-1.71-.42-2.25-.11-.54-.2-.85-.2-.85-.08-.31-.21-.52-.29-.47-.08.05-.08.27 0 .54 0 0 .06.31.15.85s.2 1.32.31 2.25c.11.93.21 2 .29 3.19.08 1.19.12 2.42.11 3.66a32.71 32.71 0 0 1-.22 3.63c-.07.57-.16 1.12-.27 1.64a14 14 0 0 1-.37 1.42 7.87 7.87 0 0 1-.9 1.94l-.19.28-.16.19-.13.15c-.07.09-.15.15-.21.22l-.2.21a3.73 3.73 0 0 0-.35.36c-.21.2-.34.39-.3.52.04.13.26.16.61.09a2.65 2.65 0 0 0 .56-.24c.102-.062.2-.132.29-.21.103-.08.2-.166.29-.26l-.03-.02zm-12.32-7.75a9 9 0 0 0-.53-1 14.66 14.66 0 0 0-1.79-2.3c-.41-.44-.87-.89-1.37-1.34-.5-.45-1-.92-1.63-1.38-.63-.46-1.19-.91-1.82-1.36-.32-.22-.63-.45-1-.66l-.51-.32-.52-.29c-1.39-.77-2.84-1.36-4.18-1.94A36.72 36.72 0 0 1 13.5 32a15 15 0 0 1-2.28-1.58l-.57-.53-.19-.2c-.26-.29-.51-.45-.55-.37-.04.08.1.32.31.59l.18.22.56.57a14.73 14.73 0 0 0 2.29 1.72 35.48 35.48 0 0 0 3.56 1.86c1.32.63 2.74 1.25 4.06 2l.49.29.47.31c.31.2.62.44.93.66.61.45 1.2.91 1.76 1.37.56.46 1.08.92 1.56 1.37.48.45.92.89 1.3 1.31a14 14 0 0 1 1.65 2.17 8 8 0 0 1 .47.89c.23.5.41 1 .56 1.3.15.3.27.58.41.58.14 0 .13-.06.17-.17a1.31 1.31 0 0 0 .09-.49 3.64 3.64 0 0 0-.34-1.57l.03-.01z" fill="#333C50"/><path d="M29.75 41.42l.06-.88a21 21 0 0 0-.1-2.29c0-.47-.13-1-.21-1.51 0-.27-.09-.54-.15-.82l-.18-.85c-.14-.57-.28-1.16-.45-1.75-.17-.59-.34-1.19-.54-1.78-.38-1.19-.81-2.35-1.22-3.44l-1.15-3-.81-2.09-.3-.79c-.11-.29-.26-.49-.33-.43s-.05.28 0 .53l.25.81c.17.52.4 1.25.71 2.13l1 3c.36 1.1.75 2.27 1.09 3.45.18.59.33 1.18.48 1.77.15.59.27 1.16.4 1.72l.15.83c.05.27.1.53.13.79.07.52.15 1 .17 1.46.06.725.083 1.453.07 2.18l-.06.82a8.52 8.52 0 0 0 0 1.17c0 .31.12.53.25.57.13.04.28-.12.42-.41a3.6 3.6 0 0 0 .2-.53 2.5 2.5 0 0 0 .08-.32v-.35c0-.12.04.01.04.01zm4.96 17.84l.19-.17a6.49 6.49 0 0 1 .57-.46 10.12 10.12 0 0 1 2.4-1.21c.53-.2 1.11-.38 1.74-.54.63-.16 1.3-.31 2-.44s1.44-.25 2.19-.38l.58-.1c.19 0 .38-.09.57-.13l.58-.15.57-.18a15 15 0 0 0 4.14-2.06 12.44 12.44 0 0 0 2.88-2.81c.316-.436.6-.894.85-1.37l.28-.61.12-.27.09-.26c.11-.33.2-.58.24-.76l.06-.28c.09-.39.08-.69 0-.66-.08.03-.21.27-.29.58l-.07.26c0 .17-.15.41-.27.72l-.09.24-.13.26-.29.58a11.53 11.53 0 0 1-.87 1.28 12.1 12.1 0 0 1-2.88 2.58 14.63 14.63 0 0 1-4 1.85l-.54.15-.55.13c-.18 0-.36.09-.55.11l-.55.08c-.74.11-1.5.21-2.22.33-.72.12-1.42.26-2.08.42-.66.16-1.27.34-1.84.54a10.86 10.86 0 0 0-2.61 1.3c-.23.16-.45.334-.66.52l-.22.2a3.49 3.49 0 0 0-.89 1.36c-.06.16-.09.33-.09.5 0 .13 0 .21.1.24s.14 0 .24-.06a3 3 0 0 0 .33-.31c.25-.27.57-.62.95-1l.02-.02zm1.78 27.59a8.5 8.5 0 0 0-.19-1 13.43 13.43 0 0 0-.83-2.28c-.2-.44-.43-.89-.69-1.36-.26-.47-.53-1-.83-1.43-.3-.43-.61-1-.93-1.46l-.47-.72-.23-.34-.22-.36c-.61-.95-1.15-1.94-1.65-2.86-.5-.92-.91-1.82-1.22-2.62-.16-.39-.31-.76-.43-1.08-.12-.32-.24-.61-.32-.85l-.26-.75a.64.64 0 0 0-.8-.32.59.59 0 0 0-.47.59l.08.82.13.94c0 .36.12.77.21 1.22a27.15 27.15 0 0 0 .78 3 35 35 0 0 0 1.3 3.32l.19.42.2.42.39.78c.25.51.5 1 .72 1.48.22.48.44.93.63 1.37.19.44.35.84.48 1.21a11.5 11.5 0 0 1 .51 1.73c.042.191.072.385.09.58 0 .3.23.49.54.71l.55.34a4 4 0 0 0 .69.33c.24.088.496.119.75.09a1.34 1.34 0 0 0 .37-.1 1.46 1.46 0 0 0 .31-.25 1.82 1.82 0 0 0 .61-1.54l.01-.03z" fill="#333C50"/><path d="M33.98 87.42v-.25a6.45 6.45 0 0 0 0-.65 9.58 9.58 0 0 0-.28-2c-.09-.38-.21-.78-.33-1.18-.12-.4-.26-.82-.42-1.24-.16-.42-.32-.84-.48-1.25l-.23-.6v-.13l-.06-.17-.12-.35a20 20 0 0 0-1.14-2.63c-.4-.8-.83-1.5-1.16-2.1l-.89-1.45-.31-.54c-.12-.2-.48-.25-.8-.1-.32.15-.45.36-.41.56l.14.64c.1.4.23 1 .43 1.64.2.64.41 1.45.63 2.25.228.82.411 1.65.55 2.49l.05.32v.37c0 .25.1.49.15.72l.29 1.3c.09.41.18.79.25 1.15.07.36.13.69.16 1 .066.43.093.865.08 1.3a2.55 2.55 0 0 1 0 .28v.08c0 .16.15.25.43.48.159.13.309.27.45.42.16.17.34.36.54.53.187.172.409.301.65.38.24.077.5.077.74 0a1.55 1.55 0 0 0 1-1.2l.09-.07z" fill="#333C50"/></g><path d="M35.67 80.42a8 8 0 0 1 8 8h-16a8 8 0 0 1 8-8z" fill="#333C50"/><path d="M27.66 82.85a5.61 5.61 0 0 1 5.61 5.61H22.05a5.61 5.61 0 0 1 5.61-5.61zm21.59 2.73a2.88 2.88 0 0 1 2.87 2.88h-5.75a2.88 2.88 0 0 1 2.88-2.88z" fill="#333C50"/></g></svg>