<svg fill="none" height="35" viewBox="0 0 35 35" width="35" xmlns="http://www.w3.org/2000/svg"><path d="m35 17.5c0 9.665-7.835 17.5-17.5 17.5-9.66499 0-17.5-7.835-17.5-17.5 0-9.66499 7.83501-17.5 17.5-17.5 9.665 0 17.5 7.83501 17.5 17.5z" fill="#fff"/><path d="m35 2.05078v2.05078c0 1.13258-.9181 2.05078-2.0508 2.05078h-7.6694c-.2885 1.12417-.9752 2.08852-1.9009 2.73438-.9256-.64586-1.6124-1.61021-1.9009-2.73438h-1.5171c-1.1326 0-2.0507-.9182-2.0507-2.05078v-2.05078c0-1.132577.9181-2.05078 2.0507-2.05078h12.9883c1.1327 0 2.0508.918203 2.0508 2.05078z" fill="#ffc143"/><path d="m21.4478 6.15234h-1.4869c-1.1326 0-2.0507-.9182-2.0507-2.05078v-2.05078c0-1.132577.9181-2.05078 2.0507-2.05078h1.4869c-1.1327 0-2.0508.918203-2.0508 2.05078v2.05078c0 1.13258.9181 2.05078 2.0508 2.05078z" fill="#f5c108"/><path d="m31.582 1.6748v.75196c0 .07547-.0612.13672-.1367.13672h-11.3476c-.0755 0-.1368-.06125-.1368-.13672v-.75196c0-.07546.0613-.13671.1368-.13671h11.3476c.0755 0 .1367.06125.1367.13671zm-7.1093 1.91407h-4.375c-.0755 0-.1368.06125-.1368.13672v.75195c0 .07547.0613.13672.1368.13672h4.375c.0754 0 .1367-.06125.1367-.13672v-.75195c0-.07547-.0613-.13672-.1367-.13672zm2.9565 0c-.2831 0-.5127.22955-.5127.51269 0 .28315.2296.5127.5127.5127s.5127-.22955.5127-.5127c0-.28314-.2296-.51269-.5127-.51269zm-1.6235 0c-.2832 0-.5127.22955-.5127.51269 0 .28315.2295.5127.5127.5127.2831 0 .5127-.22955.5127-.5127 0-.28314-.2296-.51269-.5127-.51269zm3.247 0c-.2831 0-.5127.22955-.5127.51269 0 .28315.2296.5127.5127.5127.2832 0 .5127-.22955.5127-.5127 0-.28314-.2295-.51269-.5127-.51269z" fill="#4b4f51"/><path d="m32.1973 18.1864v1.2249c0 .9091-.3014 1.7932-.8584 2.5118-1.308 1.6873-2.9179 3.1289-4.7485 4.244-.4812 3.0093-1.7807 5.7453-3.6627 7.9736-1.7089.5569-3.5328.8593-5.4277.8593s-3.7188-.3024-5.4277-.8594c-1.882-2.2282-3.18148-4.9642-3.66273-7.9735-1.8306-1.1151-3.44046-2.5567-4.74845-4.2441-.55699-.7185-.85839-1.6026-.85839-2.5117v-1.2249c0-.9092.3014-1.7932.85839-2.5118 3.07098-3.9616 7.80518-6.56872 13.15528-6.77428v-2.60271c-.4966-.2504-.8374-.7646-.8374-1.35865 0-.84.681-1.52099 1.521-1.52099s1.521.68099 1.521 1.52099c0 .59405-.3408 1.10825-.8374 1.35865v2.60271c5.3501.20556 10.0843 2.81268 13.1553 6.77438.557.7185.8584 1.6025.8584 2.5117z" fill="#d9e7ec"/><path d="m17.5 28.506c3.3435 0 6.4678-.9377 9.1245-2.5644-.0904.6192-.2153 1.2272-.3726 1.8221-2.5332 1.5997-5.5344 2.5256-8.7519 2.5256-1.6835 0-3.3075-.254-4.8364-.725-.5172-.1594-1.0113.3104-.8656.8317.4059 1.4527.9376 2.8311 1.579 4.1143-.4417-.1067-.8767-.2301-1.3047-.3696-1.882-2.2282-3.18025-4.9645-3.66143-7.9738-1.83094-1.115-3.44149-2.5561-4.74975-4.2438-.55699-.7185-.85839-1.6025-.85839-2.5117v-1.2249c0-.9092.3014-1.7932.85839-2.5118 2.39121-3.0847 5.79086-5.3483 9.70448-6.29628-3.0772 1.22748-5.74456 3.35388-7.72206 6.08088-.55699.7681-.85838 1.7131-.85838 2.685v1.3093c0 .9719.30139 1.9169.85838 2.685 1.70694 2.3539 3.92814 4.2596 6.48286 5.5266 1.6932.5459 3.4989.8408 5.3736.8408zm5.0928-7.3145c2.4539 0 4.4433-1.9894 4.4433-4.4433 0-2.454-1.9894-4.4434-4.4433-4.4434-2.454 0-4.4434 1.9894-4.4434 4.4434 0 2.4539 1.9894 4.4433 4.4434 4.4433zm-14.62893-4.4433c0 2.4539 1.98939 4.4433 4.44333 4.4433 2.454 0 4.4434-1.9894 4.4434-4.4433 0-2.454-1.9894-4.4434-4.4434-4.4434-2.45394 0-4.44333 1.9894-4.44333 4.4434z" fill="#c5d3dd"/><path d="m19.5508 23.584c0 .9583-.9009 1.709-2.0508 1.709s-2.0508-.7507-2.0508-1.709c0-.3775.3061-.6836.6836-.6836.3776 0 .6836.3061.6836.6836 0 .1205.2595.3418.6836.3418.424 0 .6836-.2213.6836-.3418 0-.3775.3061-.6836.6836-.6836s.6836.3061.6836.6836z" fill="#9facba"/><path d="m26.3525 16.748c0 2.0765-1.6832 3.7598-3.7597 3.7598s-3.7598-1.6833-3.7598-3.7598c0-.3556.0505-.6992.1427-1.0253h-2.9514c.0922.3261.1427.6697.1427 1.0253 0 2.0765-1.6833 3.7598-3.7598 3.7598s-3.75974-1.6833-3.75974-3.7598c0-2.0764 1.68324-3.7597 3.75974-3.7597 1.3196 0 2.4797.6804 3.1506 1.709h3.8844c.6708-1.0286 1.8309-1.709 3.1505-1.709 2.0766 0 3.7598 1.6833 3.7598 3.7597z" fill="#4b4f51"/><path d="m15.1416 16.748c0 1.5102-1.2242 2.7344-2.7344 2.7344-1.5101 0-2.73435-1.2242-2.73435-2.7344 0-1.5101 1.22425-2.7343 2.73435-2.7343 1.5102 0 2.7344 1.2242 2.7344 2.7343zm7.4512-2.7343c-1.5102 0-2.7344 1.2242-2.7344 2.7343 0 1.5102 1.2242 2.7344 2.7344 2.7344 1.5101 0 2.7343-1.2242 2.7343-2.7344 0-1.5101-1.2242-2.7343-2.7343-2.7343z" fill="#4b4f51"/><path d="m15.1419 16.748c0 1.3813-1.0243 2.5227-2.3547 2.7075.6555-.6216 1.0787-1.6028 1.0787-2.7075 0-1.1046-.4232-2.0859-1.0787-2.7075 1.3304.1849 2.3547 1.3263 2.3547 2.7075zm7.8309-2.7075c.6554.6217 1.0787 1.6029 1.0787 2.7075 0 1.1047-.4233 2.086-1.0787 2.7075 1.3303-.1848 2.3547-1.3262 2.3547-2.7075 0-1.3812-1.0244-2.5226-2.3547-2.7075z" fill="#fff"/></svg>