<svg fill="none" height="454" viewBox="0 0 600 454" width="600" xmlns="http://www.w3.org/2000/svg" xmlns:xlink="http://www.w3.org/1999/xlink"><clipPath id="a"><path d="m0 0h600v453.203h-600z"/></clipPath><g clip-path="url(#a)"><path d="m154.543 399.802s2.889-12.133 23.111-8.089c20.221 4.044 23.11 8.089 23.11 8.089z" fill="#3f3d56"/><path d="m54.8784 383.913s2.8888-12.133 23.1106-8.089c20.2218 4.045 23.111 8.089 23.111 8.089z" fill="#3f3d56"/><path d="m223.875 399.802s-16.178-9.822-23.111 0z" fill="#3f3d56"/><path d="m148.476 372.069s-16.177-9.822-23.11 0z" fill="#3f3d56"/><path d="m57.724 363.045c4.8163 8.932 15.0383 12.766 15.0383 12.766s2.4132-10.647-2.4031-19.579c-4.8164-8.933-15.0384-12.767-15.0384-12.767s-2.4131 10.648 2.4032 19.58z" fill="#3f3d56"/><path d="m61.0345 360.106c8.6955 5.231 12.0444 15.623 12.0444 15.623s-10.7492 1.909-19.4447-3.323c-8.6955-5.231-12.0444-15.622-12.0444-15.622s10.7493-1.909 19.4447 3.322z" fill="#f5c108"/><g fill="#3f3d56"><path d="m538.468 392.58s2.889-12.134 23.11-8.089c20.222 4.044 23.111 8.089 23.111 8.089z"/><path d="m492.247 399.802c-14.05-2.2-27.559-4.071-40.526-5.613l4.993-9.987c-1.733-.578-9.244 5.2-9.244 5.2l6.355-28.888c-8.666 1.155-12.711 30.621-12.711 30.621l-9.822-9.822 4.835 11.12c-39.681-4.169-73.923-5.47-102.707-5.172l4.274-8.548c-1.733-.578-9.244 5.2-9.244 5.2l6.356-28.888c-8.667 1.155-12.711 30.621-12.711 30.621l-9.822-9.822 5.121 11.779c-19.717.572-39.391 2.157-58.945 4.746 4.264-13.286 19.158-26.058 19.158-26.058-11.452 3.563-17.41 9.367-20.493 14.747-.624-27.295 3.575-54.487 12.404-80.323 0 0-23.111 51.999-19.644 86.665l.44 6.158c-20.106 3.136-30.195 6.264-30.195 6.264z"/><path d="m341.45 426.09s106.309-15.6 172.174 0z"/><path d="m184.875 447.467s106.309-15.599 172.175 0z"/><path d="m381.894 453.203s62.964-15.969 101.975 0z"/><path d="m557.758 389.089-1.026-.53c13.336-25.782 6.204-59.265-2.126-82.812-5.656-15.828-12.871-31.055-21.538-45.456l.977-.617c8.712 14.474 15.964 29.778 21.65 45.687 8.407 23.763 15.588 57.579 2.063 83.728z"/><path d="m567.65 259.881-7.497 41.024 1.137.207 7.496-41.024z"/><path d="m517.803 294.832-.846.788 38.71 41.599.846-.787z"/><path d="m587.394 340.528-19.635 27.161.937.677 19.635-27.161z"/></g><path d="m571.112 249.005c3.191 0 5.777-2.587 5.777-5.778s-2.586-5.778-5.777-5.778-5.778 2.587-5.778 5.778 2.587 5.778 5.778 5.778z" fill="#f5c108"/><path d="m508.135 293.493c3.191 0 5.778-2.587 5.778-5.778s-2.587-5.778-5.778-5.778-5.778 2.587-5.778 5.778 2.587 5.778 5.778 5.778z" fill="#3f3d56"/><path d="m533.557 299.27c3.191 0 5.778-2.586 5.778-5.777s-2.587-5.778-5.778-5.778-5.778 2.587-5.778 5.778 2.587 5.777 5.778 5.777z" fill="#3f3d56"/><path d="m522.002 321.803c3.191 0 5.777-2.587 5.777-5.777 0-3.191-2.586-5.778-5.777-5.778s-5.778 2.587-5.778 5.778c0 3.19 2.587 5.777 5.778 5.777z" fill="#f5c108"/><path d="m594.222 336.247c3.191 0 5.778-2.586 5.778-5.777s-2.587-5.778-5.778-5.778c-3.19 0-5.777 2.587-5.777 5.778s2.587 5.777 5.777 5.777z" fill="#3f3d56"/><path d="m575.156 342.603c3.191 0 5.778-2.587 5.778-5.778s-2.587-5.778-5.778-5.778-5.778 2.587-5.778 5.778 2.587 5.778 5.778 5.778z" fill="#3f3d56"/><path d="m588.445 361.091c3.191 0 5.777-2.586 5.777-5.777s-2.586-5.778-5.777-5.778-5.778 2.587-5.778 5.778 2.587 5.777 5.778 5.777z" fill="#3f3d56"/><path d="m527.78 255.938c3.191 0 5.777-2.587 5.777-5.778s-2.586-5.777-5.777-5.777-5.778 2.586-5.778 5.777 2.587 5.778 5.778 5.778z" fill="#3f3d56"/><path d="m189.659 219.535c0 71.417-42.457 96.353-94.8294 96.353-52.373 0-94.8296-24.936-94.8296-96.353 0-71.418 94.8296-162.2726 94.8296-162.2726s94.8294 90.8546 94.8294 162.2726z" fill="#1db776"/><path d="m91.3758 304.964.9706-59.77 40.4186-73.944-40.2661 64.567.4363-26.874 27.8568-53.499-27.7413 46.386.7858-48.336 29.8285-42.591-29.7055 34.991.4906-88.6317-3.083 117.3317.2531-4.84-30.3275-46.422 29.8416 55.713-2.8259 53.983-.0844-1.432-34.9623-48.852 34.8566 53.913-.3536 6.752-.0629.101.0288.554-7.1695 136.96h9.5788l1.1492-70.743 34.7709-53.781z" fill="#3f3d56"/><path d="m502.452 198.244c0 87.249-51.868 117.713-115.851 117.713s-115.851-30.464-115.851-117.713 115.851-198.244 115.851-198.244 115.851 110.995 115.851 198.244z" fill="#1db776"/><path d="m382.381 302.611 1.186-73.02 49.378-90.336-49.192 78.882.534-32.833 34.031-65.357-33.89 56.668.959-59.051 36.442-52.0321-36.292 42.7461.6-108.278-3.767 143.341.31-5.913-37.051-56.7118 36.457 68.0628-3.453 65.95-.102-1.75-42.713-59.681 42.583 65.865-.432 8.247-.077.124.036.678-8.759 167.32h11.702l1.404-86.425 42.479-65.703z" fill="#3f3d56"/><path d="m293.024 323.905 5.279 16.34s-4.777 15.335-2.514 32.429c2.262 17.094 1.005 17.597 1.005 17.597s-22.605-1.301-20.343 5.486c2.263 6.788 24.366 2.81 24.366 2.81s4.245-1.143 6.256-13.21c2.011-12.066 7.067-35.308 7.067-35.308l-4.754-21.94z" fill="#ffb9b9"/><path d="m294.783 290.471s-9.553 3.519-9.553 13.072 3.52 22.625 5.782 23.379c2.263.754 17.346 11.061 20.111 3.771 2.766-7.291-16.34-40.222-16.34-40.222z" fill="#f5c108"/><path d="m374.724 403.595 20.111-.754 15.335-2.263-4.525 15.083-37.205 1.006z" fill="#ffb9b9"/><path d="m403.634 405.606s-.251-5.531-2.514-5.279c-2.262.251-.754-2.011 1.257-2.514s7.793-3.017 7.793-3.017l22.876 1.509s14.832 13.072 8.799 20.11c-6.033 7.039-21.619.755-21.619.755l-16.843.251s-5.531-9.05.251-11.815z" fill="#2f2e41"/><path d="m412.684 386.249 7.29 34.189 15.083-3.017-8.547-42.736-9.05-4.776z" fill="#ffb9b9"/><path d="m325.955 381.975s-42.233 19.106-24.384 38.463c0 0 0 9.05 18.854 7.29s55.305-5.028 57.064-4.022c1.76 1.005 7.291-19.86 2.514-20.865-4.776-1.006-10.558-2.263-10.558-2.263s5.028-.754 5.028-5.028c0 0 14.329-1.005 18.602-10.055 4.274-9.05 8.296-15.837 8.296-15.837l9.804 25.138s11.313-20.865 19.86-11.564c0 0-9.553-60.081-16.843-65.611-7.29-5.531-12.318-7.291-19.106-2.263-6.787 5.028-13.072 17.849-13.072 17.849z" fill="#2f2e41"/><path d="m426.762 410.131c-1.758 1.325-3.437 2.752-5.028 4.273-2.011 2.011-4.777 1.006-5.028 0-.251-1.005-4.776.755-5.279 8.045s-3.519 13.826 4.525 16.088c8.044 2.263 7.793 8.799 7.793 8.799 6.365 3.054 13.67 3.504 20.362 1.257 11.313-3.771 7.29-7.793 7.29-7.793l-15.083-24.887s-4.022-7.542-9.552-5.782z" fill="#2f2e41"/><path d="m385.031 285.443s24.134 8.296 26.647 10.055c2.514 1.76 13.827 10.056 8.296 14.33-5.53 4.273-10.055 7.038-20.865 3.77s-22.876-13.323-22.876-13.323z" fill="#ffb9b9"/><path d="m360.898 274.382s9.553-1.76 16.341 2.011c6.787 3.771 12.569 11.312 12.569 11.312s-6.285 13.324-10.81 15.335-12.82-8.044-12.82-8.044z" fill="#f5c108"/><path d="m316.905 267.092s.252 9.804-.754 10.809c-1.005 1.006 12.067 30.67 26.396 17.597 14.329-13.072 3.268-18.351 3.268-18.351s-5.279-9.804-5.028-10.809c.251-1.006-23.379 0-23.379 0z" fill="#ffb9b9"/><path d="m316.905 267.092s.252 9.804-.754 10.809c-1.005 1.006 12.067 30.67 26.396 17.597 14.329-13.072 3.268-18.351 3.268-18.351s-5.279-9.804-5.028-10.809c.251-1.006-23.379 0-23.379 0z" fill="#000" opacity=".1"/><path d="m320.928 285.946s9.552 6.536 13.575 5.027c4.022-1.508 9.049-8.044 9.552-8.547.503-.502 26.144 51.032 26.144 51.032s-3.77 18.854-13.826 24.384c-10.055 5.531-9.93 9.93-11.187 13.701-1.256 3.771-17.471-11.941-17.471-11.941l-10.307-43.741v-26.647z" fill="#f5c108"/><path d="m316.78 274.256s-3.143-.628-6.411 2.137-18.602 13.072-17.848 14.078c.754 1.005 7.542 15.334 9.05 21.116s3.771 6.536 3.771 6.536 5.279 3.771 4.525 6.536c-.754 2.766-4.022 40.474.502 48.769 4.525 8.296 3.771 15.586 2.514 17.597s12.067-5.782 12.067-5.782 19.859-16.088 21.368-20.865c.975-3.283 1.648-6.649 2.011-10.055 0 0-12.821-50.78-16.843-53.545-4.022-2.766-14.706-26.522-14.706-26.522z" fill="#2f2e41"/><path d="m344.397 274.455s6.194-3.844 7.451-2.838c1.257 1.005 13.072 1.005 13.323 2.011.252 1.005.755 25.138 9.302 31.423s3.016 18.854 3.016 18.854l6.285 10.056s-34.188 32.929-31.926 21.619c.126-.629 0-.754 0-.754s-13.324-57.065-11.564-60.082c1.76-3.016 4.957-16.696 4.113-20.289z" fill="#2f2e41"/><path d="m397.098 297.51-34.189 11.815s-33.937 8.044-28.658 17.345c5.279 9.302 27.653-6.536 27.653-6.536l45.527-5.101s18.073-15.261-10.333-17.523z" fill="#ffb9b9"/><path d="m330.481 276.393c10.273 0 18.602-8.329 18.602-18.603 0-10.273-8.329-18.602-18.602-18.602-10.274 0-18.603 8.329-18.603 18.602 0 10.274 8.329 18.603 18.603 18.603z" fill="#ffb9b9"/><path d="m315.666 239.303-3.441-1.252s7.195-7.195 17.205-6.569l-2.815-2.815s6.882-2.503 13.139 4.066c3.289 3.454 7.094 7.513 9.466 12.086h3.685l-1.538 3.076 5.383 3.076-5.525-.553c.524 2.656.343 5.403-.523 7.967l-1.251 3.441s-5.005-10.01-5.005-11.262v3.129s-3.441-2.816-3.441-4.693l-1.877 2.19-.939-3.441-11.574 3.441 1.877-2.815-7.195.938 2.815-3.441s-8.133 4.067-8.446 7.508-4.379 7.821-4.379 7.821l-1.877-3.129s-2.816-14.077 6.256-18.769z" fill="#2f2e41"/></g></svg>