<svg width="300" height="200" viewBox="0 0 300 200" fill="none" xmlns="http://www.w3.org/2000/svg">
<g clip-path="url(#clip0)">
<path d="M0 200H300V-4.35511e-06H0V200Z" fill="white"/>
<path d="M263.889 193.195H44.1827C37.1284 193.195 31.3565 190.96 31.3565 188.229V186.242C31.3565 185.019 32.5161 183.897 34.4274 183.029H27.584C20.5296 183.029 14.7578 180.794 14.7578 178.063C14.7578 175.332 20.5296 173.097 27.584 173.097H47.2234C43.179 172.259 40.4103 170.607 40.4103 168.716C40.4103 165.985 46.1822 163.75 53.2367 163.75H276.264C283.318 163.75 289.09 165.985 289.09 168.716C289.09 171.447 283.318 173.682 276.264 173.682L249.856 173.615C252.59 173.913 253.694 174.706 254.383 175.707C255.446 177.251 255.349 179.115 253.176 180.341C251.966 181.022 250.179 181.37 249.035 181.386L263.889 181.277C270.943 181.277 276.716 183.511 276.716 186.242V188.229C276.716 190.96 270.943 193.195 263.889 193.195Z" fill="#EDF0F2"/>
<path d="M146.364 90.0901L158.611 102.917L160.934 118.204L165.007 118.114L165.537 99.5634L150.873 79.7754L146.364 90.0901Z" fill="#E6E6E6"/>
<path d="M161.925 117.44L164.584 117.27L165.396 121.344L163.179 122.914L160.946 122.105L161.81 120.304L161.312 120.336L160.85 120.842L160.315 120.4L161.925 117.44Z" fill="#EBCEB1"/>
<path d="M136.907 185.124L136.487 187.144L131.961 188.5L130.328 186.149L132.801 184.462L137.327 183.105L136.907 185.124Z" fill="#333333"/>
<path d="M146.627 134.811L137.257 184.509L133.018 184.652L130.5 150.097L129.31 132.933L146.627 134.811Z" fill="#B3B3B3"/>
<path d="M159.447 134.283L153.425 182.996L149.538 183.317L145.426 145.99L142.164 134.985L159.447 134.283Z" fill="#B3B3B3"/>
<path d="M149.519 182.854L149.71 184.949L154.104 186.697L156.015 184.429L153.722 182.507L149.519 182.854Z" fill="#333333"/>
<path d="M130.328 135.707L128.411 129.968L130.328 123.457L159.448 124.405V134.283L130.328 135.707Z" fill="#B3B3B3"/>
<path d="M136.704 82.0293L126.778 67.5548L127.066 52.1163L123.029 51.6041L119.373 69.8436L130.509 91.5486L136.704 82.0293Z" fill="#E6E6E6"/>
<path d="M125.955 52.7244L123.301 52.4999L123.188 48.3566L125.643 47.1336L127.711 48.2624L126.553 49.9131L127.051 49.9554L127.593 49.5244L128.046 50.0396L125.955 52.7244Z" fill="#EBCEB1"/>
<path d="M145.531 64.4042C142.645 66.0887 138.566 65.1249 135.929 67.1577C134.215 68.4794 133.58 70.8437 133.986 72.9567C134.175 73.9414 134.582 74.9159 135.309 75.6304C135.781 76.0939 136.37 76.4317 136.986 76.6862C137.809 77.0262 138.69 77.2119 139.577 77.2509C139.515 78.0109 139.38 78.7657 139.174 79.5024C140.831 79.3262 142.489 79.1499 144.146 78.9737C144.041 78.0674 143.936 77.1612 143.831 76.2549C144.235 76.0284 144.619 75.7682 144.97 75.4684C147.097 73.6549 148.022 70.6082 147.259 67.9269C146.901 66.6712 146.216 65.5267 145.531 64.4042Z" fill="#EBCEB1"/>
<path d="M137.955 66.6405C138.074 66.5993 138.194 66.5608 138.314 66.5243C140.052 65.9953 141.914 65.8385 143.729 66.0338C144.399 66.1058 145.078 66.2297 145.664 66.5423C146.531 67.0045 147.113 67.8443 147.412 68.7348C147.71 69.6255 147.753 70.572 147.755 71.5055C148.16 71.4063 148.461 71.0945 148.718 70.7853C149.473 69.8768 150.242 68.7513 150.484 67.6045C150.729 66.4453 150.283 65.0873 150.802 63.9935C151.042 63.4878 151.527 63.128 151.9 62.6987C152.707 61.7702 152.976 60.4565 152.593 59.315C152.347 58.583 151.824 57.9102 151.084 57.5782C149.859 57.029 148.385 57.5027 147.059 57.2307C146.385 57.0927 145.766 56.765 145.087 56.6572C143.655 56.4302 142.263 57.2135 141.172 58.1097C140.08 59.0062 139.092 60.0717 137.76 60.612C136.69 61.0452 135.489 61.1002 134.388 61.4572C132.551 62.0525 131.084 63.5073 130.447 65.2248C129.734 67.1495 129.903 69.5683 131.431 71.0775C132.198 71.834 132.822 72.6825 133.457 73.5328C133.678 73.8278 134.947 74.919 134.852 73.7738C134.778 72.8848 134.398 72.0363 134.331 71.1468C134.167 68.979 135.911 67.3468 137.955 66.6405Z" fill="#F5C108"/>
<path d="M150.602 79.6001L136.519 78.5021C136.519 78.5021 131.876 84.1588 126.765 100.432C121.654 116.705 125.442 131.109 125.442 131.109C125.442 131.109 141.33 128.433 163.763 130.842L157.227 90.4641L150.602 79.6001Z" fill="#E6E6E6"/>
<path d="M209.188 79.3114L207.966 75.5499L209.634 74.9834L211.071 77.3832L211.729 76.7672L212.361 80.1069L210.711 80.9185L209.188 79.3114Z" fill="#EBCEB1"/>
<path d="M224.539 80.9066L216.951 87.9851L212.545 78.9079L209.357 80.6771L214.614 99.9526L228.576 90.3019L224.539 80.9066Z" fill="#D1E0DA"/>
<path d="M237.996 122.768L233.61 152.273L235.167 173.588L231.973 174.63L229.113 154.934L223.01 118.943L237.996 122.768Z" fill="#EBCEB1"/>
<path d="M231.98 175.23L231.627 177.439L232.428 181.635L235.066 181.402L235.563 175.186L235.175 174.189L231.98 175.23Z" fill="#514943"/>
<path d="M212.148 121.89L213.559 146.915L219.523 181.9L222.756 181.859L221.319 149.422L225.512 119.519L212.148 121.89Z" fill="#EBCEB1"/>
<path d="M219.577 181.301L215.445 184.134L215.961 186.25L223.526 184.564L222.911 181.507L219.577 181.301Z" fill="#514943"/>
<path d="M211.435 125.641L211.57 154.689L215.371 174.274L224.032 172.963L223.78 150.328L225.578 125.463L224.687 121.698L212.16 123.027L211.435 125.641Z" fill="#C7B299"/>
<path d="M226.802 150.755L229.483 171.357L237.015 170.26L235.288 150.649L238.082 125.571L236.442 118.78L223.787 120.772L226.802 150.755Z" fill="#C7B299"/>
<path d="M241.821 70.2746C241.244 65.1614 234.29 62.0241 231.322 67.2361C230.43 68.8021 229.718 70.5111 229.678 72.2879C229.638 74.0646 230.362 75.9229 231.876 76.9586L231.903 76.9749C231.737 77.4049 231.57 77.8351 231.404 78.2651C231.368 78.3574 231.333 78.4601 231.371 78.5514C231.414 78.6551 231.536 78.7044 231.646 78.7434C232.184 78.9339 232.722 79.1246 233.26 79.3151C233.527 79.4096 233.805 79.5056 234.089 79.4781C234.71 79.4179 235.102 78.8044 235.26 78.2299C235.297 78.0924 235.328 77.9521 235.357 77.8114C238.892 77.4001 242.198 73.6171 241.821 70.2746Z" fill="#EACDB0"/>
<path d="M231.155 68.7627C230.123 69.8915 229.921 71.4247 229.9 72.8602C229.879 74.2637 229.496 75.5837 229.614 76.9935C229.423 77.1837 229.098 76.993 228.905 76.8055C227.778 75.7065 226.668 74.5925 225.573 73.464C225.463 73.3505 225.35 73.2322 225.299 73.0855C225.234 72.8997 225.277 72.6967 225.324 72.5055C226.248 68.7287 228.302 66.1682 231.084 63.4835C232.436 62.1797 235.669 60.9887 237.067 62.9762C237.385 63.429 237.435 64.0022 237.447 64.5477C237.454 64.8735 237.45 65.2085 237.321 65.5112C236.809 66.7182 235.568 66.469 234.522 66.7287C233.232 67.0487 232.026 67.81 231.155 68.7627Z" fill="#333333"/>
<path d="M240.054 72.6155C239.874 73.716 239.393 74.9263 238.87 75.9163C238.688 76.259 237.812 76.991 237.749 77.2318C237.567 77.9288 238.848 79.8125 239.152 80.488C241.79 79.5753 244.429 78.6628 247.067 77.75C247.269 77.6803 247.481 77.6038 247.618 77.4458C247.742 77.3023 247.786 77.1128 247.823 76.9305C248.55 73.3528 248.09 69.9768 247.158 66.5118C246.227 63.0483 243.374 59.9328 239.464 59.603C236.306 59.3365 233.763 61.1803 234.411 64.3585C234.901 66.7578 237.85 67.675 239.242 69.4663C240.117 70.5908 240.253 71.6023 240.054 72.6155Z" fill="#333333"/>
<path d="M238.392 79.8747C238.452 79.9035 238.512 79.9329 238.571 79.9627C241.411 81.3819 243.13 86.3617 244.106 89.2839C246.626 96.8269 247.159 104.423 246.396 112.312C245.985 116.56 245.37 120.789 244.662 125.002C244.466 126.166 241.959 136.492 242.501 136.814C236.942 133.507 231.265 130.329 225.179 128.074C219.094 125.819 212.521 127.815 206.002 128.349C209.687 115.306 214.3 98.83 220.028 86.4994C220.713 85.0247 221.251 83.4282 222.159 82.0632C223.203 80.4909 224.504 80.1517 226.196 79.3577C226.775 79.0854 227.359 78.812 227.978 78.6492C231.242 77.792 235.394 78.4317 238.392 79.8747Z" fill="#D1E0DA"/>
<path d="M214.327 110.086C213.017 110.161 211.708 110.236 210.399 110.321C210.358 109.789 210.317 109.258 210.276 108.727C211.163 108.48 212.049 108.233 212.936 107.986C212.796 107.751 212.655 107.517 212.515 107.282C213.653 107.361 214.785 107.464 215.921 107.56C216.049 108.097 216.163 108.638 216.31 109.171C215.649 109.472 214.973 109.756 214.327 110.086Z" fill="#EBCEB1"/>
<path d="M235.345 83.543C235.015 83.6025 234.697 83.7737 234.405 83.9765C233.193 84.8175 232.386 86.0435 232.026 87.386C231.456 89.5112 231.617 91.6465 231.173 93.74C230.665 96.135 229.881 98.3843 229.076 100.691C224.483 103.266 219.855 105.43 214.794 107.088C215.108 108.152 215.405 109.22 215.728 110.281C222.619 109.234 228.922 107.213 235.443 104.956C236.464 101.634 237.455 98.3903 238.225 94.9858C238.916 91.9335 239.893 88.8192 239.029 85.7252C238.54 83.9782 237.16 83.2168 235.345 83.543Z" fill="#D1E0DA"/>
<path d="M96.4813 105.21L95.2476 107.419L98.9126 109.75L101.341 108.481L101.444 106.244L99.3331 106.262L99.5644 105.847L100.245 105.655L100.027 105.019L96.4813 105.21Z" fill="#EBCEB1"/>
<path d="M75.9373 80.9029L83.5863 96.5392L97.6285 104.666L95.9047 108.117L77.521 101.124L64.0234 80.6239L75.9373 80.9029Z" fill="#9299A2"/>
<path d="M61.9037 178.705L61.7353 180.532L60.4457 182.017C60.4457 182.017 60.0757 184.246 60.7805 184.637C61.4853 185.029 72.4874 186.25 72.4874 186.25L73.6211 184.668L72.7117 182.922L66.8968 180.435L64.8992 178.362L61.9037 178.705Z" fill="#998675"/>
<path d="M73.4041 174.76L73.2356 176.587L71.9645 178.073C71.9645 178.073 71.5971 180.302 72.2901 180.692C72.9829 181.083 83.8062 182.29 83.8062 182.29L84.9241 180.707L84.0319 178.962L78.3142 176.483L76.3519 174.412L73.4041 174.76Z" fill="#998675"/>
<path d="M60.1673 142.883C61.112 144.742 61.9625 146.427 62.1165 148.821C62.2679 151.175 61.7968 153.52 61.4401 155.854C60.2053 163.934 60.3264 172.134 60.4502 180.295C63.4609 180.417 66.4746 180.475 69.4882 180.47C70.0008 180.469 70.578 180.44 70.9192 180.083C71.2609 179.724 71.2245 179.183 71.1676 178.706C70.4764 172.907 70.5245 167.041 70.6179 161.216C70.6641 158.347 70.7697 155.894 71.3986 153.125C72.0235 150.375 71.912 147.525 71.7104 144.737C71.2163 137.91 69.7369 131.209 69.3294 124.384C69.2553 123.146 69.1302 121.816 68.2732 120.87C67.2433 119.732 65.4775 119.5 63.8834 119.501C59.5013 119.503 54.5561 120.149 54.3358 125.118C54.2623 126.775 54.7291 128.407 55.2248 129.999C56.3607 133.646 57.5952 137.328 59.1684 140.834C59.4957 141.563 59.8374 142.234 60.1673 142.883Z" fill="#667482"/>
<path d="M72.3831 139.745C73.2837 141.645 74.0941 143.368 74.1254 145.766C74.1564 148.124 73.527 150.444 73.0195 152.759C71.2626 160.772 70.939 168.968 70.6206 177.124C73.811 177.385 77.0083 177.583 80.2088 177.716C80.7532 177.739 81.3679 177.737 81.75 177.396C82.1326 177.053 82.1238 176.511 82.0898 176.032C81.5741 168.786 80.9933 161.518 81.5388 154.275C81.7476 151.503 82.1211 148.742 82.288 145.967C82.6134 140.565 82.1487 135.156 81.4444 129.789C81.0107 126.484 81.6251 119.408 78.0484 117.407C76.4291 116.501 74.3815 116.367 72.4885 116.638C71.523 116.776 70.5593 117.019 69.743 117.493C68.17 118.406 67.3393 120.082 67.1698 121.733C67.0003 123.384 67.4061 125.036 67.8449 126.648C68.8497 130.343 69.958 134.078 71.4353 137.652C71.7425 138.396 72.0684 139.082 72.3831 139.745Z" fill="#667482"/>
<path d="M56.6898 77.5541C54.3831 78.8326 52.6412 80.7841 52.0369 83.6801C49.3077 96.7588 50.993 110.248 52.6866 123.479C52.8021 124.382 52.9802 125.39 53.7652 125.926C54.6537 126.534 55.8888 126.258 56.9449 125.968C65.2511 123.682 73.762 122.047 82.3591 121.084C81.8396 111.355 80.831 101.649 79.3377 92.0088C78.9339 89.4028 78.4874 86.7761 77.4462 84.3293C75.1219 78.8671 71.1759 74.9741 64.5615 75.4798C61.7553 75.6946 58.9513 76.3008 56.6898 77.5541Z" fill="#135E8A"/>
<path d="M71.1749 64.7261C71.2872 66.3916 71.3736 68.1681 70.4829 69.6144C69.7244 70.8469 68.3736 71.6406 67.3359 72.6804C66.704 73.3134 66.1784 74.1376 66.0602 75.0094C65.9433 75.8696 66.438 76.6039 66.4321 77.4649C66.4316 77.5454 66.4278 77.6294 66.3875 77.7004C66.3442 77.7764 66.2642 77.8281 66.1832 77.8691C65.7671 78.0801 65.2717 78.0879 64.7982 78.0904C64.2391 78.0936 63.6281 78.1634 63.0738 78.0999C62.349 78.0169 62.4963 77.8801 62.4281 77.1896C62.326 76.1596 62.177 75.1259 61.8217 74.1424C61.0883 72.1129 59.5273 70.3791 59.0848 68.2521C58.5955 65.8986 59.327 63.5921 60.1251 61.3544C60.4821 60.3531 60.8741 59.3329 61.6083 58.5311C63.2209 56.7694 67.0032 56.2066 68.8105 58.0066C70.9578 60.1459 70.9843 61.8996 71.1749 64.7261Z" fill="#FEE4D6"/>
<path d="M70.6037 63.584C71.7748 65.085 71.9652 67.2032 71.0783 68.8657C72.439 67.9777 73.0796 66.396 73.3537 64.8657C73.5045 64.0242 73.5684 63.164 73.4649 62.3162C73.1384 59.6387 70.8687 57.1645 68.0117 56.8092C66.1221 56.574 66.1296 58.8265 66.866 59.9225C67.8347 61.364 69.5384 62.2192 70.6037 63.584Z" fill="#8C6239"/>
<path d="M65.5987 55.4098C64.5401 54.936 63.3169 54.9085 62.1476 55.002C60.5452 55.1303 57.3217 55.5728 55.4179 56.6888C54.3444 54.5423 51.2457 52.92 48.9848 54.0335C47.6607 54.6855 47.0875 56.1028 47.699 57.2138C47.8514 57.4913 48.0695 57.7495 48.353 57.958C48.5909 58.133 48.8741 58.2733 49.077 58.4723C49.8465 59.2258 49.1348 60.2953 48.5685 61.1478C47.9289 62.1103 47.4904 63.151 47.2744 64.218C47.1524 64.82 47.1056 65.455 47.4006 66.0208C47.6955 66.5868 48.4123 67.0613 49.2067 67.029C50.6449 66.971 50.9348 65.8255 51.0091 64.7845C51.0949 63.5855 51.3107 62.5338 51.8923 61.4168C52.1054 61.0078 52.3965 60.5765 52.8669 60.4593C52.9567 60.437 53.0471 60.4283 53.1377 60.4285C52.8217 61.43 52.6506 62.4445 52.8169 63.5593C53.1481 65.7805 54.027 67.9468 55.4816 69.73C56.9361 71.5135 58.9797 72.898 61.2909 73.4988C61.4543 72.1318 59.9123 71.0965 59.6318 69.7463C59.48 69.0155 59.7206 68.2515 60.1297 67.6125C60.5388 66.9738 61.1064 66.4393 61.6685 65.9115C62.6372 65.002 63.6056 64.0925 64.5743 63.1828C65.3647 62.4408 66.1623 61.69 66.753 60.8003C67.9546 58.9898 67.8984 56.4388 65.5987 55.4098Z" fill="#8C6239"/>
<path d="M145.876 33.3868C146.341 34.1508 146.715 34.9658 147.183 35.717C148.953 38.5548 150.691 41.3815 152.388 44.2663L146.631 47.438C143.199 49.3273 143.12 51.615 146.452 52.5233L155.83 55.073C159.162 55.9798 164.613 57.4638 167.949 58.3705L177.327 60.922C180.659 61.8273 184.012 59.9798 184.779 56.8143L186.939 47.9093C187.702 44.7438 188.954 39.5653 189.721 36.3983L191.88 27.493C192.651 24.329 190.467 23.2858 187.035 25.1748L181.151 28.4173C178.994 24.98 176.838 21.5623 176.006 20.3115C174.111 17.4708 170.47 15.297 163.317 15.3355C158.007 15.363 143.9 15.4385 134.977 15.4868C136.445 17.8983 137.913 20.3098 139.381 22.721C141.546 26.2763 143.711 29.8318 145.876 33.3868Z" fill="#1DB776"/>
<path d="M102.178 45.2501L121.078 55.6213C123.884 57.1601 127.564 56.2936 129.249 53.6953C129.249 53.6953 139.91 37.3131 140.896 35.7971C141.613 34.6838 142.435 34.2398 143.203 34.4046C143.471 34.4621 143.687 34.2058 143.551 33.9826L132.289 15.4868C129.201 15.5028 126.728 15.5173 125.463 15.5238C120.542 15.5513 114.916 16.3503 110.964 21.9611C107.924 26.2776 100.218 37.7663 100.218 37.7663C98.4911 40.3418 99.3713 43.7116 102.178 45.2501Z" fill="#1DB776"/>
<path d="M183.183 97.907C182.243 97.8825 181.305 97.8625 180.371 97.8485C176.858 97.7957 173.372 97.7227 169.854 97.5877L169.93 91.3402C169.978 87.617 167.925 86.3697 165.369 88.5655L158.182 94.7487C155.628 96.9455 151.449 100.538 148.893 102.738L141.704 108.92C139.151 111.118 139.107 114.756 141.607 117.008L148.638 123.344C151.141 125.594 155.231 129.275 157.733 131.528L164.765 137.864C167.262 140.118 169.346 138.911 169.394 135.187L169.472 128.802C173.733 128.855 177.977 128.899 179.552 128.881C183.133 128.835 187.007 127.046 190.673 121.304C193.396 117.042 200.628 105.717 205.202 98.5522C202.235 98.479 199.269 98.4057 196.302 98.3325C191.934 98.2245 187.534 98.0202 183.183 97.907Z" fill="#1DB776"/>
<path d="M211.705 75.9916C209.328 71.3253 202.803 59.2141 202.803 59.2141C201.339 56.4998 197.799 55.4601 194.939 56.9091L175.666 66.6628C172.806 68.1116 171.695 71.5041 173.2 74.1966C173.2 74.1966 182.675 91.2041 183.552 92.7783C184.2 93.9278 184.181 94.8148 183.632 95.3443C183.441 95.5288 183.564 95.8343 183.838 95.8411L206.593 96.4031C208.177 93.9238 209.443 91.9383 210.092 90.9226C212.614 86.9711 214.794 82.0568 211.705 75.9916Z" fill="#1DB776"/>
<path d="M103.369 96.2106C103.833 95.4464 104.391 94.7291 104.842 93.9689C106.545 91.0959 108.256 88.2544 110.04 85.4161L115.898 88.4206C119.389 90.2126 121.533 89.1066 120.664 85.9646L118.214 77.1251C117.344 73.9836 115.921 68.8449 115.049 65.7009L112.6 56.8606C111.729 53.7199 108.317 51.9698 105.015 52.9719L95.7256 55.7889C92.4253 56.7939 87.0253 58.4351 83.7221 59.4379L74.4325 62.2549C71.1304 63.2534 71.2876 65.5416 74.7788 67.3339L80.7673 70.4044C78.7101 73.8944 76.6708 77.3744 75.9465 78.6824C74.3039 81.6576 74.1676 85.6951 77.8598 91.4236C80.5991 95.6766 87.8801 106.974 92.4866 114.12C93.9526 111.707 95.4186 109.295 96.8844 106.882C99.0459 103.325 101.207 99.7676 103.369 96.2106Z" fill="#1DB776"/>
<path d="M130.535 99.1888C130.535 99.1888 110.026 98.997 108.128 98.979C106.739 98.972 105.91 98.5388 105.669 97.837C105.585 97.5925 105.239 97.55 105.103 97.7733L93.8594 116.279C95.453 118.752 96.73 120.732 97.3829 121.745C99.9241 125.686 103.535 129.798 110.712 130.105C116.234 130.342 130.734 130.661 130.734 130.661C133.984 130.732 136.632 128.302 136.611 125.26L136.482 104.77C136.462 101.729 133.784 99.2145 130.535 99.1888Z" fill="#1DB776"/>
<path d="M86.4165 99.8693L85.7139 102.273L89.8256 103.821L91.9096 102.098L91.501 99.8913L89.4422 100.329L89.574 99.8778L90.1954 99.5537L89.8374 98.9765L86.4165 99.8693Z" fill="#EBCEB1"/>
<path d="M60.744 80.4167C60.859 80.4405 60.9656 80.4765 61.0619 80.527C61.4656 80.7387 61.8828 81.55 62.1584 81.8937C63.4434 83.4952 64.7282 85.0972 66.0135 86.6987C67.3557 88.372 68.698 90.0452 70.0402 91.7185C70.3967 92.1625 71.2603 93.7695 71.8421 93.9642L87.413 99.1085L86.5148 102.824L66.96 99.652C64.659 97.417 62.3576 95.1822 60.0565 92.9472C57.7044 90.663 50.6114 86.215 54.6052 82.7105C55.3571 82.051 56.3025 81.6172 57.2619 81.264C58.1934 80.9207 59.767 80.2172 60.744 80.4167Z" fill="#135E8A"/>
</g>
<defs>
<clipPath id="clip0">
<rect width="300" height="200" fill="white"/>
</clipPath>
</defs>
</svg>
