<svg fill="none" height="138" viewBox="0 0 200 138" width="200" xmlns="http://www.w3.org/2000/svg" xmlns:xlink="http://www.w3.org/1999/xlink"><clipPath id="a"><path d="m0 0h200v138h-200z"/></clipPath><g clip-path="url(#a)"><path d="m85.2587 93.5785s26.5603-2.9779 35.8563-7.6931c9.296-4.7151 78.354-6.9486 78.354 7.6931 0 14.6415-79.416 21.0945-79.416 21.0945l-41.7-2.234z" fill="#ffb9b9"/><path d="m85.2587 93.5785s26.5603-2.9779 35.8563-7.6931c9.296-4.7151 78.354-6.9486 78.354 7.6931 0 14.6415-79.416 21.0945-79.416 21.0945l-41.7-2.234z" fill="#4b4f51" opacity=".1"/><path d="m92.9615 90.8487-5.5777 15.1383-87.3838.992v-22.3344s33.4661-7.1967 60.0266 8.1895c0 0 31.3413-3.4744 32.9349-1.9854z" fill="#1db776"/><path d="m92.9615 90.8243-5.5777 15.1377-87.3838.993v-22.3348s33.4661-7.1968 60.0266 8.1894c0 0 31.3413-3.4743 32.9349-1.9853z" fill="#4b4f51" opacity=".1"/><path d="m192.868 84.5205c0 .8458-2.03 1.4737-2.23 2.2896-.198.8093 1.008 2.0399.627 2.8127-.395.7903-.861 1.5476-1.393 2.2637-.5.6689-2.045.5712-2.678 1.1985-.62.5696-1.277 1.1033-1.967 1.5979-.672.5221-1.582.6317-2.346 1.1124-.727.457-.639 2.1335-1.443 2.5497-.768.3977-1.943.0778-2.776.4353-.8.3431-1.222 1.5837-2.076 1.8877-.825.293-1.845.167-2.717.42-.843.245-1.787.206-2.671.412-.858.201-1.514 1.403-2.407 1.565-.87.158-1.889-.263-2.789-.144-.879.117-1.9-.922-2.804-.843-.884.077-1.718.558-2.624.597-.888.038-1.766.403-2.672.403s-1.841.794-2.729.756c-.906-.039-1.726-1.242-2.611-1.319-.903-.079-1.981 1.178-2.86 1.062-.899-.12-1.612-1.351-2.482-1.509-.893-.162-2.047.718-2.905.517-.884-.206-1.409-1.638-2.253-1.883-.871-.254-1.952.089-2.776-.203-.855-.304-1.896-.255-2.696-.5982-.833-.3575-1.431-1.2034-2.199-1.6011-.804-.4162-1.174-1.4485-1.901-1.9055-.764-.4808-1.928-.4194-2.6-.9416-.71-.5513-2.039-.5801-2.638-1.1732-.633-.6274-.889-1.6807-1.389-2.3497-.527-.7046.507-2.1941.139-2.9387-.382-.7728-1.977-1.0867-2.174-1.8958-.205-.8451-.309-1.7084-.313-2.5747 0-.8458 1.364-1.4922 1.564-2.3081.198-.8092-.806-1.9715-.425-2.7444.368-.7447.321-1.8895.848-2.5941.5-.6689 1.748-.9311 2.381-1.5584.599-.5931 1.67-.7585 2.38-1.3098.672-.5221.586-2.0968 1.35-2.5774.727-.4571 1.741-.6656 2.545-1.0818.768-.3977 1.855-.3307 2.688-.6881.799-.3432 2.052.3329 2.906.0295.825-.2927 1.494-.9324 2.365-1.1859.844-.2453 1.24-2.1165 2.124-2.323.858-.2006 1.915.1323 2.807-.0297.87-.158 2.041 1.3183 2.941 1.1987.878-.1168 1.535-2.0875 2.439-2.1662.884-.0769 1.882.9438 2.788.9049.888-.0381 1.78.56 2.686.56s1.808-.8208 2.696-.7827c.906.0388 1.705 1.1235 2.589 1.2005.904.0786 2.014-1.5713 2.892-1.4545.9.1196 1.595 1.395 2.465 1.5529.893.1622 2.012-.6297 2.87-.429.884.2065 1.416 1.5621 2.26 1.8075.871.2535 1.408 1.2098 2.233 1.5025.855.3036 2.443-1.1166 3.243-.7734.833.3575 1.552.9761 2.32 1.3739.804.4162 2.082.2069 2.808.6639.764.4808.952 1.7712 1.624 2.2934.71.5513 1.88.7173 2.479 1.3105.633.6273.721 1.7514 1.221 2.4204.526.7045.51 1.6807.878 2.4253.381.7727 1.399 1.3572 1.597 2.1663.2.8157.791 1.7507.791 2.5963z" fill="#3f3d56"/><path d="m97.2112 100.031s30.0138-14.3938 49.4028-8.9341c19.389 5.4596 46.48-3.9707 49.668-.7445 3.187 3.2261 7.702 37.9696-30.545 39.9546s-70.9162-5.956-70.9162-5.956z" fill="#ffb9b9"/><path d="m90.1431 98.4979s11.8489-.7005 11.3179 3.2701c-.531 3.971-1.063 34.743-4.2498 35.488-3.1873.744-28.4197.744-38.7783.744h-58.4329v-47.5763s41.4343-2.3048 62.1514 7.3737c0 0 24.9077-.336 27.9917.7005z" fill="#1db776"/><g stroke="#3f3d56" stroke-miterlimit="10"><path d="m145.652 24.0818c-1.132.0597-2.224.413-3.153 1.0201-.93.6072-1.66 1.4442-2.108 2.4172-1.316 2.9715.378 6.4619 2.921 8.6288 2.543 2.1668 5.81 3.4054 8.778 5.0333 3.986 2.1867 7.569 5.2221 9.563 9.1186 1.995 3.8964 2.207 8.723-.137 12.4454-2.177 3.4551-6.134 5.5229-9.908 7.43"/><path d="m156.276 5.96576c-1.132.05975-2.224.413-3.153 1.02013-.93.60713-1.66 1.44414-2.108 2.41719-1.316 2.97152.378 6.46192 2.921 8.62872 2.543 2.1669 5.81 3.4054 8.778 5.0334 3.986 2.1867 7.569 5.2221 9.563 9.1185 1.995 3.8965 2.207 8.723-.137 12.4455-2.177 3.455-6.134 5.5229-9.908 7.43"/><path d="m191.208 10.1323c-.935-.6003-2.03-.94558-3.162-.99708-1.133-.0515-2.259.19282-3.251.70555-2.987 1.59703-3.935 5.32603-3.343 8.49393.591 3.1679 2.362 6.0157 3.643 9.0007 1.719 4.0093 2.563 8.4585 1.587 12.6804-.975 4.2219-3.97 8.1598-8.263 9.7621-3.985 1.4872-8.468.8588-12.702.208"/></g><path d="m160.425 47.583c3.521 0 6.375-1.2952 6.375-2.8929s-2.854-2.8929-6.375-2.8929c-3.52 0-6.374 1.2952-6.374 2.8929s2.854 2.8929 6.374 2.8929z" fill="#fa5652"/><path d="m159.628 47.0866c3.521 0 6.375-1.2952 6.375-2.8929s-2.854-2.8929-6.375-2.8929c-3.52 0-6.374 1.2952-6.374 2.8929s2.854 2.8929 6.374 2.8929z" stroke="#3f3d56" stroke-miterlimit="10"/><path d="m174.237 45.1013c3.52 0 6.374-1.2952 6.374-2.8929s-2.854-2.8929-6.374-2.8929c-3.521 0-6.375 1.2952-6.375 2.8929s2.854 2.8929 6.375 2.8929z" fill="#fa5652"/><path d="m173.439 44.6049c3.521 0 6.375-1.2952 6.375-2.8929s-2.854-2.8928-6.375-2.8928c-3.52 0-6.374 1.2951-6.374 2.8928s2.854 2.8929 6.374 2.8929z" stroke="#3f3d56" stroke-miterlimit="10"/><path d="m176.361 56.0205c3.521 0 6.375-1.2952 6.375-2.8929s-2.854-2.8929-6.375-2.8929c-3.52 0-6.374 1.2952-6.374 2.8929s2.854 2.8929 6.374 2.8929z" fill="#fa5652"/><path d="m175.564 55.5242c3.521 0 6.375-1.2952 6.375-2.8929s-2.854-2.8929-6.375-2.8929c-3.52 0-6.374 1.2952-6.374 2.8929s2.854 2.8929 6.374 2.8929z" stroke="#3f3d56" stroke-miterlimit="10"/><path d="m175.033 28.7224c3.521 0 6.375-1.2952 6.375-2.8929s-2.854-2.8929-6.375-2.8929c-3.52 0-6.374 1.2952-6.374 2.8929s2.854 2.8929 6.374 2.8929z" fill="#fa5652"/><path d="m174.237 28.226c3.52 0 6.374-1.2952 6.374-2.8929s-2.854-2.8929-6.374-2.8929c-3.521 0-6.375 1.2952-6.375 2.8929s2.854 2.8929 6.375 2.8929z" stroke="#3f3d56" stroke-miterlimit="10"/><path d="m159.097 26.9853c3.52 0 6.374-1.2952 6.374-2.8929s-2.854-2.8929-6.374-2.8929c-3.521 0-6.375 1.2952-6.375 2.8929s2.854 2.8929 6.375 2.8929z" fill="#fa5652"/><path d="m158.3 26.4889c3.52 0 6.374-1.2952 6.374-2.8929s-2.854-2.8929-6.374-2.8929c-3.521 0-6.375 1.2952-6.375 2.8929s2.854 2.8929 6.375 2.8929z" stroke="#3f3d56" stroke-miterlimit="10"/><path d="m166.269 20.7811c3.52 0 6.374-1.2951 6.374-2.8928s-2.854-2.8929-6.374-2.8929c-3.521 0-6.375 1.2952-6.375 2.8929s2.854 2.8928 6.375 2.8928z" fill="#fa5652"/><path d="m165.472 20.2848c3.52 0 6.374-1.2952 6.374-2.8929s-2.854-2.8929-6.374-2.8929c-3.521 0-6.375 1.2952-6.375 2.8929s2.854 2.8929 6.375 2.8929z" stroke="#3f3d56" stroke-miterlimit="10"/><path d="m181.939 22.022c3.52 0 6.374-1.2952 6.374-2.8929s-2.854-2.8929-6.374-2.8929c-3.521 0-6.375 1.2952-6.375 2.8929s2.854 2.8929 6.375 2.8929z" fill="#fa5652"/><path d="m181.142 21.5256c3.521 0 6.375-1.2952 6.375-2.8929s-2.854-2.8929-6.375-2.8929c-3.52 0-6.374 1.2952-6.374 2.8929s2.854 2.8929 6.374 2.8929z" stroke="#3f3d56" stroke-miterlimit="10"/><path d="m193.625 30.2114c3.521 0 6.375-1.2952 6.375-2.8929s-2.854-2.8929-6.375-2.8929c-3.52 0-6.374 1.2952-6.374 2.8929s2.854 2.8929 6.374 2.8929z" fill="#fa5652"/><path d="m192.829 29.7151c3.52 0 6.374-1.2952 6.374-2.8929s-2.854-2.8929-6.374-2.8929c-3.521 0-6.375 1.2952-6.375 2.8929s2.854 2.8929 6.375 2.8929z" stroke="#3f3d56" stroke-miterlimit="10"/><path d="m152.457 15.8178c3.521 0 6.375-1.2952 6.375-2.8929s-2.854-2.8929-6.375-2.8929-6.374 1.2952-6.374 2.8929 2.853 2.8929 6.374 2.8929z" fill="#fa5652"/><path d="m151.66 15.3216c3.521 0 6.375-1.2952 6.375-2.8929s-2.854-2.89293-6.375-2.89293c-3.52 0-6.374 1.29523-6.374 2.89293s2.854 2.8929 6.374 2.8929z" stroke="#3f3d56" stroke-miterlimit="10"/><path d="m156.441 6.38753c3.52 0 6.374-1.29519 6.374-2.89289s-2.854-2.892894-6.374-2.892894c-3.521 0-6.375 1.295194-6.375 2.892894s2.854 2.89289 6.375 2.89289z" fill="#fa5652"/><path d="m155.644 5.89125c3.521 0 6.375-1.29519 6.375-2.89289s-2.854-2.892891-6.375-2.892891-6.374 1.295191-6.374 2.892891 2.853 2.89289 6.374 2.89289z" stroke="#3f3d56" stroke-miterlimit="10"/><path d="m193.36 13.3361c3.52 0 6.374-1.2951 6.374-2.8929 0-1.59765-2.854-2.89285-6.374-2.89285-3.521 0-6.375 1.2952-6.375 2.89285 0 1.5978 2.854 2.8929 6.375 2.8929z" fill="#fa5652"/><path d="m192.563 12.8399c3.521 0 6.374-1.2952 6.374-2.89293 0-1.5977-2.853-2.89289-6.374-2.89289s-6.375 1.29519-6.375 2.89289c0 1.59773 2.854 2.89293 6.375 2.89293z" stroke="#3f3d56" stroke-miterlimit="10"/><path d="m134.662 36.1674c3.52 0 6.374-1.2952 6.374-2.8929s-2.854-2.8929-6.374-2.8929c-3.521 0-6.375 1.2952-6.375 2.8929s2.854 2.8929 6.375 2.8929z" fill="#fa5652"/><path d="m133.865 35.671c3.52 0 6.374-1.2952 6.374-2.8929s-2.854-2.8928-6.374-2.8928c-3.521 0-6.375 1.2951-6.375 2.8928s2.854 2.8929 6.375 2.8929z" stroke="#3f3d56" stroke-miterlimit="10"/><path d="m156.707 34.6784c3.52 0 6.374-1.2952 6.374-2.8929s-2.854-2.8929-6.374-2.8929c-3.521 0-6.375 1.2952-6.375 2.8929s2.854 2.8929 6.375 2.8929z" fill="#fa5652"/><path d="m155.91 34.182c3.52 0 6.374-1.2952 6.374-2.8929s-2.854-2.8929-6.374-2.8929c-3.521 0-6.375 1.2952-6.375 2.8929s2.854 2.8929 6.375 2.8929z" stroke="#3f3d56" stroke-miterlimit="10"/><path d="m185.657 36.9118c3.521 0 6.375-1.2952 6.375-2.8929s-2.854-2.8929-6.375-2.8929c-3.52 0-6.374 1.2952-6.374 2.8929s2.854 2.8929 6.374 2.8929z" fill="#fa5652"/><path d="m184.86 36.4155c3.521 0 6.375-1.2951 6.375-2.8928s-2.854-2.8929-6.375-2.8929c-3.52 0-6.374 1.2952-6.374 2.8929s2.854 2.8928 6.374 2.8928z" stroke="#3f3d56" stroke-miterlimit="10"/><path d="m170.252 37.9045c3.521 0 6.375-1.2952 6.375-2.8929s-2.854-2.8929-6.375-2.8929c-3.52 0-6.374 1.2952-6.374 2.8929s2.854 2.8929 6.374 2.8929z" fill="#fa5652"/><path d="m169.456 37.4082c3.52 0 6.374-1.2952 6.374-2.8929s-2.854-2.8929-6.374-2.8929c-3.521 0-6.375 1.2952-6.375 2.8929s2.854 2.8929 6.375 2.8929z" stroke="#3f3d56" stroke-miterlimit="10"/><path d="m171.315 13.088c3.52 0 6.374-1.2952 6.374-2.8929 0-1.59772-2.854-2.89291-6.374-2.89291-3.521 0-6.375 1.29519-6.375 2.89291 0 1.5977 2.854 2.8929 6.375 2.8929z" fill="#fa5652"/><path d="m170.518 12.5917c3.521 0 6.375-1.2952 6.375-2.8929s-2.854-2.89289-6.375-2.89289c-3.52 0-6.374 1.29519-6.374 2.89289s2.854 2.8929 6.374 2.8929z" stroke="#3f3d56" stroke-miterlimit="10"/><path d="m143.958 28.4742c3.52 0 6.374-1.2952 6.374-2.8929s-2.854-2.8929-6.374-2.8929c-3.521 0-6.375 1.2952-6.375 2.8929s2.854 2.8929 6.375 2.8929z" fill="#fa5652"/><path d="m143.161 27.9779c3.52 0 6.374-1.2952 6.374-2.8929s-2.854-2.8929-6.374-2.8929c-3.521 0-6.375 1.2952-6.375 2.8929s2.854 2.8929 6.375 2.8929z" stroke="#3f3d56" stroke-miterlimit="10"/><path d="m147.676 39.6417c3.521 0 6.375-1.2952 6.375-2.8929s-2.854-2.8929-6.375-2.8929c-3.52 0-6.374 1.2952-6.374 2.8929s2.854 2.8929 6.374 2.8929z" fill="#fa5652"/><path d="m146.879 39.1453c3.521 0 6.375-1.2951 6.375-2.8928s-2.854-2.8929-6.375-2.8929c-3.52 0-6.374 1.2952-6.374 2.8929s2.854 2.8928 6.374 2.8928z" stroke="#3f3d56" stroke-miterlimit="10"/><g opacity=".3"><path d="m147.825 56.5016c.899-1.5043 1.064-3.0189.366-3.383-.697-.3641-1.992.5602-2.891 2.0645-.9 1.5042-1.064 3.0189-.367 3.3829.697.3641 1.992-.5602 2.892-2.0644z" fill="#fa5652" opacity=".3"/><path d="m147.404 56.7289c.9-1.5043 1.064-3.0189.367-3.383s-1.992.5602-2.892 2.0645-1.064 3.0189-.367 3.383c.698.3641 1.992-.5602 2.892-2.0645z" opacity=".3" stroke="#3f3d56" stroke-miterlimit="10"/></g><g opacity=".3"><path d="m181.051 63.7128c.532-.5561-.15-1.9386-1.524-3.0878-1.375-1.1492-2.92-1.6301-3.453-1.074s.149 1.9386 1.524 3.0878c1.374 1.1493 2.92 1.6301 3.453 1.074z" fill="#fa5652" opacity=".3"/><path d="m180.905 63.28c.533-.5561-.149-1.9386-1.524-3.0878-1.374-1.1493-2.92-1.6301-3.453-1.074-.532.5561.15 1.9386 1.524 3.0878 1.375 1.1493 2.921 1.6301 3.453 1.074z" opacity=".3" stroke="#3f3d56" stroke-miterlimit="10"/></g><g opacity=".3"><path d="m151.303 48.0785c.533-.5561-.149-1.9386-1.524-3.0878-1.374-1.1493-2.92-1.6301-3.453-1.074-.532.5561.15 1.9385 1.524 3.0878 1.375 1.1492 2.921 1.6301 3.453 1.074z" fill="#fa5652" opacity=".3"/><path d="m151.158 47.6457c.532-.5561-.15-1.9386-1.524-3.0878-1.375-1.1493-2.921-1.6301-3.453-1.074-.533.5561.149 1.9385 1.524 3.0878 1.374 1.1492 2.92 1.6301 3.453 1.074z" opacity=".3" stroke="#3f3d56" stroke-miterlimit="10"/></g></g></svg>