<svg width="166" height="107" viewBox="0 0 166 107" fill="none" xmlns="http://www.w3.org/2000/svg">
<g clip-path="url(#clip0)">
<path d="M70.7649 72.5573C70.7649 72.5573 92.8101 70.2483 100.526 66.5923C108.242 62.9364 165.559 61.2046 165.559 72.5573C165.559 83.9099 99.6441 88.9128 99.6441 88.9128L65.0332 87.181L70.7649 72.5573Z" fill="#FFB9B9"/>
<path opacity="0.1" d="M70.7649 72.5573C70.7649 72.5573 92.8101 70.2483 100.526 66.5923C108.242 62.9364 165.559 61.2046 165.559 72.5573C165.559 83.9099 99.6441 88.9128 99.6441 88.9128L65.0332 87.181L70.7649 72.5573Z" fill="#4B4F51"/>
<path d="M77.158 70.4407L72.5285 82.1781L0 82.9478V65.6302C0 65.6302 27.7769 60.0501 49.822 71.98C49.822 71.98 75.8353 69.2862 77.158 70.4407Z" fill="#F5C108"/>
<path opacity="0.1" d="M77.158 70.4218L72.5285 82.1593L0 82.9289V65.6113C0 65.6113 27.7769 60.0312 49.822 71.9611C49.822 71.9611 75.8353 69.2673 77.158 70.4218Z" fill="#4B4F51"/>
<path d="M160.08 65.534C160.08 66.1898 158.395 66.6767 158.23 67.3093C158.065 67.9368 159.066 68.8909 158.75 69.4902C158.422 70.1029 158.035 70.6901 157.593 71.2453C157.178 71.764 155.897 71.6882 155.371 72.1746C154.856 72.6163 154.311 73.03 153.739 73.4136C153.181 73.8184 152.425 73.9033 151.791 74.276C151.188 74.6304 151.261 75.9303 150.594 76.253C149.956 76.5613 148.981 76.3133 148.289 76.5905C147.626 76.8565 147.276 77.8188 146.566 78.0541C145.882 78.281 145.035 78.1833 144.311 78.3799C143.611 78.5701 142.828 78.5392 142.094 78.6994C141.382 78.8549 140.838 79.787 140.097 79.9127C139.374 80.0351 138.528 79.7086 137.782 79.8013C137.052 79.8919 136.205 79.0864 135.454 79.1474C134.72 79.2071 134.028 79.5799 133.277 79.6101C132.539 79.6396 131.811 79.923 131.058 79.923C130.307 79.923 129.531 80.5387 128.793 80.5092C128.042 80.4791 127.361 79.5458 126.627 79.4861C125.877 79.4251 124.982 80.4 124.253 80.3095C123.506 80.2167 122.915 79.2625 122.193 79.14C121.451 79.0143 120.494 79.6963 119.781 79.5408C119.048 79.3806 118.612 78.2705 117.912 78.0802C117.188 77.8837 116.292 78.1499 115.607 77.923C114.898 77.6876 114.033 77.7254 113.37 77.4593C112.678 77.1821 112.182 76.5262 111.544 76.2179C110.877 75.8951 110.57 75.0948 109.967 74.7404C109.332 74.3677 108.366 74.4152 107.808 74.0103C107.219 73.5829 106.116 73.5606 105.619 73.1007C105.094 72.6142 104.881 71.7975 104.466 71.2788C104.029 70.7325 104.887 69.5776 104.582 69.0002C104.265 68.4011 102.941 68.1577 102.777 67.5303C102.607 66.8751 102.521 66.2057 102.518 65.534C102.518 64.8782 103.65 64.377 103.815 63.7444C103.98 63.117 103.146 62.2158 103.463 61.6165C103.768 61.0391 103.729 60.1515 104.167 59.6051C104.582 59.0865 105.617 58.8832 106.143 58.3968C106.64 57.937 107.529 57.8087 108.118 57.3813C108.676 56.9764 108.605 55.7555 109.239 55.3828C109.842 55.0284 110.684 54.8668 111.351 54.5441C111.988 54.2357 112.89 54.2876 113.582 54.0105C114.246 53.7444 115.285 54.2687 115.995 54.0333C116.679 53.8064 117.234 53.3104 117.957 53.1139C118.657 52.9236 118.986 51.4728 119.72 51.3127C120.433 51.1572 121.309 51.4153 122.05 51.2896C122.772 51.1672 123.744 52.3118 124.491 52.2191C125.22 52.1285 125.765 50.6005 126.515 50.5395C127.249 50.4799 128.077 51.2713 128.829 51.2412C129.566 51.2116 130.306 51.6753 131.058 51.6753C131.81 51.6753 132.56 51.0389 133.297 51.0684C134.049 51.0986 134.711 51.9396 135.446 51.9993C136.196 52.0602 137.117 50.781 137.846 50.8715C138.592 50.9643 139.169 51.9532 139.891 52.0756C140.633 52.2013 141.561 51.5874 142.274 51.7429C143.008 51.9031 143.449 52.9542 144.149 53.1444C144.873 53.341 145.318 54.0825 146.003 54.3094C146.712 54.5448 148.03 53.4436 148.694 53.7097C149.386 53.9869 149.983 54.4666 150.62 54.775C151.287 55.0977 152.348 54.9354 152.951 55.2898C153.585 55.6626 153.741 56.6631 154.299 57.068C154.888 57.4955 155.859 57.6242 156.356 58.0841C156.882 58.5705 156.955 59.4421 157.37 59.9608C157.807 60.507 157.793 61.2639 158.098 61.8413C158.415 62.4404 159.26 62.8936 159.424 63.521C159.59 64.1534 160.08 64.8784 160.08 65.534Z" fill="#3F3D56"/>
<path d="M80.6852 77.5601C80.6852 77.5601 105.596 66.3999 121.689 70.6331C137.782 74.8663 160.268 67.5544 162.914 70.0558C165.559 72.5572 169.307 99.4957 137.562 101.035C105.817 102.574 78.7012 96.4171 78.7012 96.4171L80.6852 77.5601Z" fill="#FFB9B9"/>
<path d="M74.8188 76.3716C74.8188 76.3716 84.6534 75.8283 84.2125 78.907C83.7716 81.9857 83.3307 105.846 80.6853 106.423C78.0398 107 57.097 107 48.4993 107H0V70.1111C0 70.1111 34.3904 68.3241 51.5857 75.8283C51.5857 75.8283 72.2591 75.5678 74.8188 76.3716Z" fill="#F5C108"/>
<path d="M120.891 18.6721C119.951 18.7184 119.045 18.9923 118.274 19.463C117.502 19.9338 116.896 20.5828 116.524 21.3372C115.432 23.6412 116.838 26.3476 118.949 28.0276C121.059 29.7077 123.771 30.668 126.234 31.9303C129.543 33.6258 132.516 35.9793 134.172 39.0005C135.828 42.0216 136.004 45.764 134.058 48.6502C132.251 51.3291 128.967 52.9325 125.834 54.4111" stroke="#3F3D56" stroke-miterlimit="10"/>
<path d="M129.709 4.62561C128.77 4.67194 127.863 4.94583 127.092 5.41658C126.321 5.88733 125.715 6.53632 125.342 7.29078C124.25 9.59475 125.656 12.3011 127.767 13.9812C129.878 15.6613 132.589 16.6216 135.053 17.8839C138.361 19.5793 141.335 21.9329 142.99 24.954C144.646 27.9752 144.822 31.7175 142.876 34.6038C141.07 37.2827 137.785 38.886 134.653 40.3647" stroke="#3F3D56" stroke-miterlimit="10"/>
<path d="M158.702 7.85624C157.927 7.39075 157.018 7.12304 156.078 7.08311C155.138 7.04318 154.204 7.23261 153.38 7.63017C150.901 8.86848 150.114 11.7597 150.605 14.216C151.095 16.6723 152.566 18.8804 153.628 21.1948C155.056 24.3035 155.756 27.7532 154.946 31.0267C154.136 34.3003 151.651 37.3535 148.088 38.5959C144.781 39.749 141.059 39.2618 137.545 38.7572" stroke="#3F3D56" stroke-miterlimit="10"/>
<path d="M133.153 36.894C136.075 36.894 138.443 35.8898 138.443 34.651C138.443 33.4122 136.075 32.408 133.153 32.408C130.231 32.408 127.862 33.4122 127.862 34.651C127.862 35.8898 130.231 36.894 133.153 36.894Z" fill="#1DB776"/>
<path d="M132.492 36.5091C135.414 36.5091 137.782 35.5049 137.782 34.2661C137.782 33.0273 135.414 32.0231 132.492 32.0231C129.569 32.0231 127.201 33.0273 127.201 34.2661C127.201 35.5049 129.569 36.5091 132.492 36.5091Z" stroke="#3F3D56" stroke-miterlimit="10"/>
<path d="M144.617 34.9699C147.539 34.9699 149.907 33.9656 149.907 32.7268C149.907 31.488 147.539 30.4838 144.617 30.4838C141.694 30.4838 139.326 31.488 139.326 32.7268C139.326 33.9656 141.694 34.9699 144.617 34.9699Z" fill="#1DB776"/>
<path d="M143.955 34.585C146.877 34.585 149.246 33.5808 149.246 32.342C149.246 31.1032 146.877 30.0989 143.955 30.0989C141.033 30.0989 138.664 31.1032 138.664 32.342C138.664 33.5808 141.033 34.585 143.955 34.585Z" stroke="#3F3D56" stroke-miterlimit="10"/>
<path d="M146.38 43.4362C149.302 43.4362 151.671 42.432 151.671 41.1932C151.671 39.9544 149.302 38.9501 146.38 38.9501C143.458 38.9501 141.089 39.9544 141.089 41.1932C141.089 42.432 143.458 43.4362 146.38 43.4362Z" fill="#1DB776"/>
<path d="M145.719 43.0514C148.641 43.0514 151.009 42.0472 151.009 40.8084C151.009 39.5696 148.641 38.5653 145.719 38.5653C142.797 38.5653 140.428 39.5696 140.428 40.8084C140.428 42.0472 142.797 43.0514 145.719 43.0514Z" stroke="#3F3D56" stroke-miterlimit="10"/>
<path d="M145.277 22.2703C148.199 22.2703 150.568 21.266 150.568 20.0272C150.568 18.7884 148.199 17.7842 145.277 17.7842C142.355 17.7842 139.986 18.7884 139.986 20.0272C139.986 21.266 142.355 22.2703 145.277 22.2703Z" fill="#1DB776"/>
<path d="M144.617 21.8854C147.539 21.8854 149.907 20.8812 149.907 19.6424C149.907 18.4036 147.539 17.3994 144.617 17.3994C141.694 17.3994 139.326 18.4036 139.326 19.6424C139.326 20.8812 141.694 21.8854 144.617 21.8854Z" stroke="#3F3D56" stroke-miterlimit="10"/>
<path d="M132.05 20.9233C134.972 20.9233 137.341 19.9191 137.341 18.6803C137.341 17.4415 134.972 16.4373 132.05 16.4373C129.128 16.4373 126.759 17.4415 126.759 18.6803C126.759 19.9191 129.128 20.9233 132.05 20.9233Z" fill="#1DB776"/>
<path d="M131.389 20.5385C134.311 20.5385 136.68 19.5343 136.68 18.2955C136.68 17.0567 134.311 16.0524 131.389 16.0524C128.467 16.0524 126.098 17.0567 126.098 18.2955C126.098 19.5343 128.467 20.5385 131.389 20.5385Z" stroke="#3F3D56" stroke-miterlimit="10"/>
<path d="M138.003 16.1129C140.925 16.1129 143.294 15.1087 143.294 13.8699C143.294 12.6311 140.925 11.6268 138.003 11.6268C135.081 11.6268 132.712 12.6311 132.712 13.8699C132.712 15.1087 135.081 16.1129 138.003 16.1129Z" fill="#1DB776"/>
<path d="M137.342 15.7281C140.264 15.7281 142.632 14.7238 142.632 13.485C142.632 12.2462 140.264 11.242 137.342 11.242C134.42 11.242 132.051 12.2462 132.051 13.485C132.051 14.7238 134.42 15.7281 137.342 15.7281Z" stroke="#3F3D56" stroke-miterlimit="10"/>
<path d="M151.009 17.075C153.931 17.075 156.3 16.0708 156.3 14.832C156.3 13.5932 153.931 12.5889 151.009 12.5889C148.087 12.5889 145.718 13.5932 145.718 14.832C145.718 16.0708 148.087 17.075 151.009 17.075Z" fill="#1DB776"/>
<path d="M150.347 16.6902C153.27 16.6902 155.638 15.6859 155.638 14.4471C155.638 13.2083 153.27 12.2041 150.347 12.2041C147.425 12.2041 145.057 13.2083 145.057 14.4471C145.057 15.6859 147.425 16.6902 150.347 16.6902Z" stroke="#3F3D56" stroke-miterlimit="10"/>
<path d="M160.709 23.4247C163.631 23.4247 166 22.4205 166 21.1817C166 19.9429 163.631 18.9387 160.709 18.9387C157.787 18.9387 155.418 19.9429 155.418 21.1817C155.418 22.4205 157.787 23.4247 160.709 23.4247Z" fill="#1DB776"/>
<path d="M160.048 23.0399C162.97 23.0399 165.338 22.0357 165.338 20.7969C165.338 19.5581 162.97 18.5538 160.048 18.5538C157.126 18.5538 154.757 19.5581 154.757 20.7969C154.757 22.0357 157.126 23.0399 160.048 23.0399Z" stroke="#3F3D56" stroke-miterlimit="10"/>
<path d="M126.539 12.2646C129.461 12.2646 131.83 11.2603 131.83 10.0215C131.83 8.78275 129.461 7.7785 126.539 7.7785C123.617 7.7785 121.249 8.78275 121.249 10.0215C121.249 11.2603 123.617 12.2646 126.539 12.2646Z" fill="#1DB776"/>
<path d="M125.878 11.8798C128.8 11.8798 131.169 10.8755 131.169 9.63672C131.169 8.39792 128.8 7.39368 125.878 7.39368C122.956 7.39368 120.587 8.39792 120.587 9.63672C120.587 10.8755 122.956 11.8798 125.878 11.8798Z" stroke="#3F3D56" stroke-miterlimit="10"/>
<path d="M129.846 4.95269C132.768 4.95269 135.137 3.94845 135.137 2.70965C135.137 1.47086 132.768 0.466614 129.846 0.466614C126.924 0.466614 124.555 1.47086 124.555 2.70965C124.555 3.94845 126.924 4.95269 129.846 4.95269Z" fill="#1DB776"/>
<path d="M129.185 4.56787C132.107 4.56787 134.476 3.56362 134.476 2.32483C134.476 1.08603 132.107 0.0817871 129.185 0.0817871C126.263 0.0817871 123.894 1.08603 123.894 2.32483C123.894 3.56362 126.263 4.56787 129.185 4.56787Z" stroke="#3F3D56" stroke-miterlimit="10"/>
<path d="M160.489 10.3404C163.411 10.3404 165.779 9.33615 165.779 8.09735C165.779 6.85855 163.411 5.85431 160.489 5.85431C157.567 5.85431 155.198 6.85855 155.198 8.09735C155.198 9.33615 157.567 10.3404 160.489 10.3404Z" fill="#1DB776"/>
<path d="M159.827 9.95557C162.75 9.95557 165.118 8.95132 165.118 7.71252C165.118 6.47373 162.75 5.46948 159.827 5.46948C156.905 5.46948 154.537 6.47373 154.537 7.71252C154.537 8.95132 156.905 9.95557 159.827 9.95557Z" stroke="#3F3D56" stroke-miterlimit="10"/>
<path d="M111.769 28.0428C114.691 28.0428 117.06 27.0385 117.06 25.7997C117.06 24.5609 114.691 23.5567 111.769 23.5567C108.847 23.5567 106.478 24.5609 106.478 25.7997C106.478 27.0385 108.847 28.0428 111.769 28.0428Z" fill="#1DB776"/>
<path d="M111.108 27.6579C114.03 27.6579 116.399 26.6537 116.399 25.4149C116.399 24.1761 114.03 23.1719 111.108 23.1719C108.186 23.1719 105.817 24.1761 105.817 25.4149C105.817 26.6537 108.186 27.6579 111.108 27.6579Z" stroke="#3F3D56" stroke-miterlimit="10"/>
<path d="M130.066 26.8883C132.988 26.8883 135.357 25.8841 135.357 24.6453C135.357 23.4065 132.988 22.4022 130.066 22.4022C127.144 22.4022 124.775 23.4065 124.775 24.6453C124.775 25.8841 127.144 26.8883 130.066 26.8883Z" fill="#1DB776"/>
<path d="M129.405 26.5035C132.327 26.5035 134.696 25.4992 134.696 24.2604C134.696 23.0216 132.327 22.0174 129.405 22.0174C126.483 22.0174 124.114 23.0216 124.114 24.2604C124.114 25.4992 126.483 26.5035 129.405 26.5035Z" stroke="#3F3D56" stroke-miterlimit="10"/>
<path d="M154.096 28.6201C157.018 28.6201 159.386 27.6158 159.386 26.377C159.386 25.1382 157.018 24.134 154.096 24.134C151.173 24.134 148.805 25.1382 148.805 26.377C148.805 27.6158 151.173 28.6201 154.096 28.6201Z" fill="#1DB776"/>
<path d="M153.434 28.2352C156.356 28.2352 158.725 27.231 158.725 25.9922C158.725 24.7534 156.356 23.7491 153.434 23.7491C150.512 23.7491 148.144 24.7534 148.144 25.9922C148.144 27.231 150.512 28.2352 153.434 28.2352Z" stroke="#3F3D56" stroke-miterlimit="10"/>
<path d="M141.309 29.3898C144.231 29.3898 146.6 28.3855 146.6 27.1467C146.6 25.9079 144.231 24.9037 141.309 24.9037C138.387 24.9037 136.019 25.9079 136.019 27.1467C136.019 28.3855 138.387 29.3898 141.309 29.3898Z" fill="#1DB776"/>
<path d="M140.648 29.0049C143.57 29.0049 145.939 28.0006 145.939 26.7618C145.939 25.523 143.57 24.5188 140.648 24.5188C137.726 24.5188 135.357 25.523 135.357 26.7618C135.357 28.0006 137.726 29.0049 140.648 29.0049Z" stroke="#3F3D56" stroke-miterlimit="10"/>
<path d="M142.191 10.1479C145.113 10.1479 147.482 9.1437 147.482 7.90491C147.482 6.66611 145.113 5.66187 142.191 5.66187C139.269 5.66187 136.9 6.66611 136.9 7.90491C136.9 9.1437 139.269 10.1479 142.191 10.1479Z" fill="#1DB776"/>
<path d="M141.53 9.76312C144.452 9.76312 146.821 8.75888 146.821 7.52008C146.821 6.28128 144.452 5.27704 141.53 5.27704C138.608 5.27704 136.239 6.28128 136.239 7.52008C136.239 8.75888 138.608 9.76312 141.53 9.76312Z" stroke="#3F3D56" stroke-miterlimit="10"/>
<path d="M119.485 22.0778C122.407 22.0778 124.776 21.0736 124.776 19.8348C124.776 18.596 122.407 17.5917 119.485 17.5917C116.563 17.5917 114.194 18.596 114.194 19.8348C114.194 21.0736 116.563 22.0778 119.485 22.0778Z" fill="#1DB776"/>
<path d="M118.824 21.693C121.746 21.693 124.114 20.6888 124.114 19.45C124.114 18.2112 121.746 17.2069 118.824 17.2069C115.902 17.2069 113.533 18.2112 113.533 19.45C113.533 20.6888 115.902 21.693 118.824 21.693Z" stroke="#3F3D56" stroke-miterlimit="10"/>
<path d="M122.571 30.7366C125.493 30.7366 127.862 29.7324 127.862 28.4936C127.862 27.2548 125.493 26.2505 122.571 26.2505C119.649 26.2505 117.28 27.2548 117.28 28.4936C117.28 29.7324 119.649 30.7366 122.571 30.7366Z" fill="#1DB776"/>
<path d="M121.909 30.3518C124.832 30.3518 127.2 29.3476 127.2 28.1088C127.2 26.87 124.832 25.8657 121.909 25.8657C118.987 25.8657 116.619 26.87 116.619 28.1088C116.619 29.3476 118.987 30.3518 121.909 30.3518Z" stroke="#3F3D56" stroke-miterlimit="10"/>
<g opacity="0.3">
<path opacity="0.3" d="M122.695 43.8092C123.441 42.6428 123.578 41.4684 122.999 41.1861C122.42 40.9038 121.346 41.6205 120.599 42.7869C119.852 43.9532 119.716 45.1276 120.294 45.4099C120.873 45.6922 121.948 44.9755 122.695 43.8092Z" fill="#1DB776"/>
<path opacity="0.3" d="M122.345 43.9854C123.092 42.8191 123.229 41.6447 122.65 41.3624C122.071 41.0801 120.997 41.7968 120.25 42.9631C119.503 44.1295 119.367 45.3039 119.945 45.5862C120.524 45.8685 121.599 45.1518 122.345 43.9854Z" stroke="#3F3D56" stroke-miterlimit="10"/>
</g>
<g opacity="0.3">
<path opacity="0.3" d="M150.272 49.4005C150.714 48.9693 150.148 47.8974 149.007 47.0064C147.866 46.1153 146.583 45.7425 146.141 46.1736C145.699 46.6048 146.265 47.6767 147.406 48.5678C148.546 49.4589 149.83 49.8317 150.272 49.4005Z" fill="#1DB776"/>
<path opacity="0.3" d="M150.151 49.0649C150.593 48.6338 150.027 47.5619 148.886 46.6708C147.746 45.7797 146.462 45.4069 146.02 45.8381C145.578 46.2692 146.144 47.3411 147.285 48.2322C148.426 49.1233 149.709 49.4961 150.151 49.0649Z" stroke="#3F3D56" stroke-miterlimit="10"/>
</g>
<g opacity="0.3">
<path opacity="0.3" d="M125.581 37.2782C126.023 36.847 125.457 35.7751 124.316 34.884C123.176 33.993 121.893 33.6201 121.45 34.0513C121.008 34.4825 121.575 35.5544 122.715 36.4455C123.856 37.3366 125.139 37.7094 125.581 37.2782Z" fill="#1DB776"/>
<path opacity="0.3" d="M125.461 36.9426C125.903 36.5115 125.337 35.4395 124.196 34.5485C123.055 33.6574 121.772 33.2846 121.33 33.7157C120.888 34.1469 121.454 35.2188 122.595 36.1099C123.735 37.001 125.019 37.3738 125.461 36.9426Z" stroke="#3F3D56" stroke-miterlimit="10"/>
</g>
</g>
<defs>
<clipPath id="clip0">
<rect width="166" height="107" fill="white"/>
</clipPath>
</defs>
</svg>
