<svg width="282" height="251" viewBox="0 0 282 251" fill="none" xmlns="http://www.w3.org/2000/svg">
<path fill-rule="evenodd" clip-rule="evenodd" d="M141 213.743C195.606 213.743 240.141 174.102 240.141 125.499C240.141 76.8974 195.606 37.2569 141 37.2569C86.3951 37.2569 41.8594 76.8974 41.8594 125.499C41.8594 174.102 86.3951 213.743 141 213.743Z" fill="white"/>
<path fill-rule="evenodd" clip-rule="evenodd" d="M139.294 179.698C172.843 179.698 200.205 155.344 200.205 125.484C200.205 95.6239 172.843 71.2699 139.294 71.2699C105.747 71.2699 78.3848 95.6239 78.3848 125.484C78.3848 155.344 105.747 179.698 139.294 179.698Z" fill="#81D3B3"/>
<path fill-rule="evenodd" clip-rule="evenodd" d="M54.3907 203.566C54.62 203.58 54.8564 203.586 55.1008 203.586H64.9231L59.2989 216.976L59.2808 217.053C59.1145 217.598 58.0479 220.851 56.2497 220.851C55.4916 220.851 55.0547 220.18 54.7875 219.173C54.425 217.808 54.3907 215.909 54.3907 214.004V203.566ZM76.8709 210.053C74.4479 206.813 71.655 203.174 71.1141 202.75C70.1954 202.033 69.0166 201.584 67.3376 201.584H55.1008C53.7839 201.584 52.8276 201.338 52.0457 200.584L51.9904 200.535C51.1023 199.649 50.3255 198.107 49.4451 195.607L49.3687 195.388C48.507 192.94 47.645 190.49 46.7822 188.043H44.4277C45.3603 190.689 46.292 193.336 47.2239 195.982L47.301 196.201C48.2779 198.979 49.2004 200.751 50.3332 201.874L50.3933 201.938C50.9373 202.462 51.5112 202.837 52.1406 203.095V214.004C52.1406 216.023 52.1794 218.048 52.5982 219.627C53.1131 221.562 54.168 222.854 56.2497 222.854C59.6802 222.854 61.2244 218.284 61.4466 217.564L61.4788 217.468L67.2445 203.586H67.3376C68.4018 203.586 69.113 203.843 69.6376 204.253C69.9686 204.511 72.0803 207.265 74.1738 210.053H76.8709Z" fill="#507FA7"/>
<path fill-rule="evenodd" clip-rule="evenodd" d="M50.0706 188.043C48.9569 184.883 47.8417 181.724 46.7239 178.567C46.1755 177.019 45.5439 175.665 44.7331 174.618C43.8357 173.458 42.7263 172.675 41.2931 172.406C40.1643 172.195 38.8843 172.247 37.669 172.295C37.2286 172.312 36.7972 172.329 36.2975 172.329C35.6765 172.329 35.1729 172.777 35.1729 173.331C35.1729 173.883 35.6765 174.332 36.2975 174.332C36.6941 174.332 37.2237 174.311 37.7659 174.289C38.8421 174.247 39.9754 174.202 40.8353 174.363C41.6448 174.514 42.3112 175.009 42.8873 175.752C43.5502 176.61 44.0919 177.785 44.5791 179.162C45.6269 182.121 46.6719 185.081 47.7155 188.043H50.0706Z" fill="#4D92D5"/>
<path fill-rule="evenodd" clip-rule="evenodd" d="M71.6014 211.954C70.9048 213.208 70.4863 214.805 70.4863 216.546C70.4863 218.286 70.9048 219.883 71.6014 221.136V223.829H75.4715C78.2244 223.829 80.4561 220.569 80.4561 216.546C80.4561 212.522 78.2244 209.261 75.4715 209.261H71.6014V211.954Z" fill="#507FA7"/>
<path fill-rule="evenodd" clip-rule="evenodd" d="M71.6018 223.829C74.3479 223.829 76.587 220.557 76.587 216.546C76.587 212.534 74.3479 209.261 71.6018 209.261C68.8563 209.261 66.6172 212.534 66.6172 216.546C66.6172 220.557 68.8563 223.829 71.6018 223.829Z" fill="#4D92D5"/>
<path fill-rule="evenodd" clip-rule="evenodd" d="M71.6012 220.289C73.0123 220.289 74.1634 218.607 74.1634 216.546C74.1634 214.483 73.0123 212.802 71.6012 212.802C70.19 212.802 69.04 214.483 69.04 216.546C69.04 218.607 70.19 220.289 71.6012 220.289Z" fill="white"/>
<path fill-rule="evenodd" clip-rule="evenodd" d="M45.8695 203.566C46.0992 203.58 46.3354 203.586 46.5795 203.586H56.4014L50.7776 216.975L50.7595 217.053C50.5932 217.598 49.5271 220.851 47.7282 220.851C46.9708 220.851 46.5333 220.18 46.2656 219.173C45.9034 217.807 45.8695 215.909 45.8695 214.004V203.566ZM70.0987 216.091C70.3723 216.586 71.0463 216.789 71.6018 216.546C72.1579 216.301 72.3863 215.702 72.1111 215.207C71.8076 214.656 63.5654 203.51 62.5925 202.75C61.6743 202.033 60.4949 201.584 58.8165 201.584H46.5795C45.262 201.584 44.3059 201.338 43.5245 200.584L43.4694 200.535C42.5808 199.649 41.804 198.107 40.9243 195.607L40.8477 195.388C38.8725 189.778 36.8983 184.17 34.9138 178.567C34.3654 177.019 33.7338 175.665 32.9239 174.618C32.0257 173.458 30.9169 172.675 29.4833 172.406C28.3542 172.195 27.0748 172.247 25.8596 172.295C25.4185 172.312 24.9869 172.329 24.4875 172.329C23.8669 172.329 23.3623 172.777 23.3623 173.331C23.3623 173.883 23.8669 174.333 24.4875 174.333C24.8843 174.333 25.4141 174.312 25.9559 174.289C27.0321 174.247 28.1654 174.203 29.0259 174.363C29.8353 174.514 30.5018 175.009 31.0774 175.752C31.74 176.61 32.2815 177.785 32.7688 179.162C34.7534 184.763 36.7278 190.373 38.7027 195.982L38.7798 196.201C39.7573 198.979 40.6789 200.751 41.8118 201.874L41.8717 201.938C42.4156 202.462 42.9897 202.837 43.6194 203.096V214.004C43.6194 216.023 43.6586 218.048 44.0776 219.627C44.5917 221.562 45.647 222.854 47.7282 222.854C51.1589 222.854 52.7027 218.284 52.9252 217.564L52.9576 217.468L58.7228 203.586H58.8165C59.8807 203.586 60.5914 203.843 61.1165 204.253C61.791 204.78 69.8771 215.691 70.0987 216.091Z" fill="#E4AE1B"/>
<path fill-rule="evenodd" clip-rule="evenodd" d="M72.6466 201.589L53.1891 201.566C52.4461 201.565 51.4846 201.027 51.057 200.364L43.1749 188.14C42.7477 187.479 43.0026 186.936 43.7441 186.938L82.0913 187.059C82.833 187.061 83.0902 187.602 82.6604 188.261L74.7785 200.386C74.3493 201.046 73.3894 201.589 72.6466 201.589Z" fill="#E4AE1B"/>
<path fill-rule="evenodd" clip-rule="evenodd" d="M83.8502 184.941H63.774C62.8158 184.941 62.0312 185.638 62.0312 186.491C62.0312 187.344 62.8158 188.043 63.774 188.043H83.8502C84.8084 188.043 85.5924 187.344 85.5924 186.491C85.5924 185.638 84.8084 184.941 83.8502 184.941Z" fill="#F5C108"/>
<path fill-rule="evenodd" clip-rule="evenodd" d="M58.817 201.589L43.6671 201.566C42.9246 201.565 41.7341 201.107 41.5358 200.364L38.2677 188.14C38.069 187.398 38.0956 186.936 38.8365 186.938L68.2617 187.059C69.0034 187.063 69.2606 187.602 68.8314 188.261L60.9489 200.386C60.5203 201.046 59.5603 201.589 58.817 201.589Z" fill="#F5C108"/>
<path fill-rule="evenodd" clip-rule="evenodd" d="M70.4232 184.94H37.9109C36.9532 184.94 36.1689 185.638 36.1689 186.491C36.1689 187.344 36.9537 188.043 37.9109 188.043H70.4232C71.3814 188.043 72.1665 187.345 72.1665 186.491C72.1665 185.638 71.3814 184.94 70.4232 184.94Z" fill="#F5C108"/>
<path fill-rule="evenodd" clip-rule="evenodd" d="M119.536 62.5789L124.127 46.1539C124.127 46.1539 124.757 44.2704 127.187 43.3498C129.618 42.4281 140.825 41.3458 140.825 41.3458C140.825 41.3458 143.707 40.9452 145.506 42.4682C147.307 43.9903 153.474 53.8857 153.474 53.8857L119.536 62.5789Z" fill="#F5C108"/>
<path fill-rule="evenodd" clip-rule="evenodd" d="M119.536 62.5789L121.977 53.8446C125.426 52.4836 129.347 51.2864 133.58 50.3562C139.437 49.0695 145.089 48.4717 150 48.4988C151.835 51.2558 153.474 53.8857 153.474 53.8857L119.536 62.5789Z" fill="#E4AE1B"/>
<path fill-rule="evenodd" clip-rule="evenodd" d="M133.463 53.214C154.554 48.5815 173.598 50.7767 175.997 58.1175C178.396 65.4577 163.243 75.1639 142.153 79.7968C121.061 84.4298 102.018 82.2335 99.6191 74.8928C97.2192 67.5526 112.372 57.8469 133.463 53.214Z" fill="#F5C108"/>
<path fill-rule="evenodd" clip-rule="evenodd" d="M136.87 80.8225C127.231 82.4535 118.308 82.6277 111.585 81.5138L122.048 64.4473L125.124 66.5572L136.87 80.8225Z" fill="#E4AE1B"/>
<path fill-rule="evenodd" clip-rule="evenodd" d="M125.312 76.9291C125.312 76.9291 125.312 77.9968 125.312 78.9878C125.312 79.9782 124.448 81.0841 123.734 81.0841V78.8346C123.734 78.8346 123.432 77.1755 121.508 77.1755C120.755 76.2554 120.112 75.2649 119.574 74.2258H119.737V71.5255C119.737 64.2194 126.452 58.2426 134.66 58.2426H143.104C151.312 58.2426 158.028 64.2194 158.028 71.5255V74.2258H158.395C157.12 75.9065 155.955 77.1755 155.955 77.1755C154.031 77.1755 153.728 78.8346 153.728 78.8346V81.0841C153.015 81.0841 152.15 79.9782 152.15 78.9878C152.15 77.9968 152.15 76.9291 152.15 76.9291C152.15 76.9291 150.474 74.0993 150.474 71.1259H146.469C146.082 71.1259 145.705 70.6817 145.62 70.2469C145.535 69.8122 145.276 66.9302 145.191 66.244C145.105 65.5583 144.89 65.2144 144.76 65.3971C144.632 65.5803 144.545 67.9598 144.331 69.4919C144.119 71.0014 143.158 71.1229 143.129 71.1259H126.31C126.31 71.1259 126.175 74.7489 125.312 76.9291Z" fill="#2A2962"/>
<path fill-rule="evenodd" clip-rule="evenodd" d="M121.559 74.8603C121.559 74.8603 121.072 82.6247 117.931 87.6101C117.931 87.6101 116.914 88.8004 117.964 89.8982C119.014 90.9976 125.708 95.868 137.36 97.2872C149.013 98.7068 160.383 90.2697 160.681 89.1633C160.98 88.0574 157.112 80.1509 157.415 73.4261L121.559 74.8603Z" fill="#2A2962"/>
<path fill-rule="evenodd" clip-rule="evenodd" d="M146.579 100.055H132.011V86.1749H146.579V100.055Z" fill="#F9A798"/>
<path fill-rule="evenodd" clip-rule="evenodd" d="M132.011 93.0146V86.1748C132.011 86.1748 141.734 86.9509 146.579 87.3605V96.7018L146.156 96.9934L132.011 93.0146Z" fill="#EF7177"/>
<path fill-rule="evenodd" clip-rule="evenodd" d="M165.837 100.089C169.797 101.656 170.787 102.634 176.506 113.404C182.227 124.174 186.406 133.573 186.406 133.573C186.406 133.573 189.321 134.699 189.871 135.923C190.421 137.146 189.982 139.839 189.982 139.839C189.982 139.839 193.612 143.755 192.512 148.357C191.411 152.958 186.846 158.343 185.471 158.98C184.096 159.616 180.411 158.98 180.411 158.98C180.411 158.98 164.959 151.292 161.439 143.068C157.918 134.844 155.278 106.06 165.837 100.089Z" fill="#FA5652"/>
<path fill-rule="evenodd" clip-rule="evenodd" d="M112.754 100.089C108.794 101.656 107.803 102.634 102.083 113.404C96.3632 124.174 92.184 133.573 92.184 133.573C92.184 133.573 89.2698 134.699 88.7199 135.923C88.17 137.146 88.6093 139.839 88.6093 139.839C88.6093 139.839 84.9794 143.755 86.0798 148.357C87.179 152.958 91.7446 158.343 93.1191 158.98C94.4941 159.616 98.1793 158.98 98.1793 158.98C98.1793 158.98 113.632 151.292 117.152 143.068C120.672 134.844 123.312 106.06 112.754 100.089Z" fill="#FA5652"/>
<path fill-rule="evenodd" clip-rule="evenodd" d="M146.593 95.5808L165.837 100.089C165.837 100.089 160.339 112.032 164.299 122.411C164.299 122.411 165.948 129.654 165.069 135.237C164.545 138.549 165.226 148.078 166.095 156.318H112.496C113.365 148.078 114.045 138.549 113.522 135.237C112.642 129.654 114.292 122.411 114.292 122.411C118.252 112.032 112.754 100.089 112.754 100.089L131.997 95.5482C132.001 97.2454 135.268 98.6224 139.295 98.6224C143.297 98.6224 146.545 97.2635 146.593 95.5808Z" fill="#FA5652"/>
<path fill-rule="evenodd" clip-rule="evenodd" d="M163.173 118.138C163.399 119.569 163.762 121.004 164.298 122.411C164.298 122.411 164.364 122.698 164.462 123.203L159.298 125.424L156.15 119.347L157.265 114.798L163.173 118.138Z" fill="#F5C108"/>
<path fill-rule="evenodd" clip-rule="evenodd" d="M166.094 156.318C166.688 161.953 167.371 166.986 167.817 169.014C168.17 170.615 168.262 172.005 168.174 173.226C159.581 177.354 149.746 179.698 139.294 179.698C128.843 179.698 119.008 177.354 110.414 173.226C110.326 172.005 110.418 170.615 110.771 169.014C111.219 166.986 111.901 161.953 112.495 156.318H166.094Z" fill="#F5C108"/>
<path fill-rule="evenodd" clip-rule="evenodd" d="M122.469 73.289C122.355 73.3031 122.243 73.3191 122.132 73.3397L122.129 73.3407H122.129C120.078 73.7227 118.52 75.3241 118.478 77.2684C118.43 79.5284 120.45 81.3953 122.989 81.439C125.528 81.4811 127.626 79.6835 127.674 77.424C127.703 76.1107 127.031 74.93 125.967 74.1635C126.084 75.3718 125.868 76.8673 124.135 77.0174L124.186 74.6575C124.206 73.7021 123.206 73.2629 122.469 73.289Z" fill="#EF7177"/>
<path fill-rule="evenodd" clip-rule="evenodd" d="M155.658 73.289C155.772 73.3031 155.884 73.3191 155.996 73.3397L155.998 73.3407C158.049 73.7227 159.607 75.3241 159.648 77.2684C159.697 79.5284 157.676 81.3953 155.138 81.439C152.598 81.4811 150.501 79.6835 150.454 77.424C150.425 76.1107 151.095 74.93 152.16 74.1635C152.043 75.3718 152.259 76.8673 153.992 77.0174L153.941 74.6575C153.92 73.7021 154.922 73.2629 155.658 73.289Z" fill="#EF7177"/>
<path fill-rule="evenodd" clip-rule="evenodd" d="M124.31 61.9779C123.671 63.499 123.319 65.143 123.319 66.8569V79.6026C123.319 87.3098 130.404 93.6155 139.064 93.6155C147.721 93.6155 154.807 87.3098 154.807 79.6026V66.8569C154.807 65.3348 154.53 63.8679 154.02 62.493C151.29 59.8826 147.402 58.2425 143.103 58.2425H134.659C130.65 58.2425 126.999 59.6687 124.31 61.9779Z" fill="#F9A798"/>
<path fill-rule="evenodd" clip-rule="evenodd" d="M127.983 59.6552L130.891 64.1933L154.308 70.8563C154.308 70.8563 154.544 69.8784 154.808 68.5562V66.8569C154.808 65.3348 154.531 63.869 154.021 62.494C151.291 59.8831 147.403 58.2426 143.104 58.2426H134.659C132.264 58.2426 129.996 58.7526 127.983 59.6552Z" fill="#F38680"/>
<path fill-rule="evenodd" clip-rule="evenodd" d="M134.957 83.3125C134.936 85.3154 136.744 86.953 138.993 86.9715C141.244 86.9896 143.084 85.3807 143.105 83.3777H143.098C143.102 83.0333 142.788 82.7492 142.4 82.7462L135.673 82.6925C135.287 82.689 134.967 82.9676 134.963 83.3125H134.957Z" fill="#2A2962"/>
<path fill-rule="evenodd" clip-rule="evenodd" d="M136.446 86.1472C137.14 86.6558 138.026 86.963 138.994 86.9715C139.785 86.978 140.525 86.7828 141.153 86.4414C140.847 85.6944 139.939 85.1302 138.837 85.0845C137.786 85.0413 136.86 85.4826 136.446 86.1472Z" fill="#FA5652"/>
<path fill-rule="evenodd" clip-rule="evenodd" d="M142.491 82.7532L136.168 82.702C136.061 83.3225 136.379 83.9545 136.847 84.0956C137.418 84.2658 141.995 84.197 142.323 83.8792C142.48 83.7256 142.505 83.2266 142.491 82.7532Z" fill="white"/>
<path fill-rule="evenodd" clip-rule="evenodd" d="M131.252 74.794H131.252C131.881 74.794 132.395 75.2513 132.395 75.8115V77.1393C132.395 77.6991 131.881 78.1564 131.252 78.1564H131.252C130.623 78.1564 130.108 77.6991 130.108 77.1393V75.8115C130.108 75.2513 130.623 74.794 131.252 74.794Z" fill="#2A2962"/>
<path fill-rule="evenodd" clip-rule="evenodd" d="M147.472 74.794C148.101 74.794 148.615 75.2513 148.615 75.8115V77.1393C148.615 77.6991 148.101 78.1564 147.472 78.1564C146.843 78.1564 146.328 77.6991 146.328 77.1393V75.8115C146.328 75.2513 146.843 74.794 147.472 74.794Z" fill="#2A2962"/>
<path fill-rule="evenodd" clip-rule="evenodd" d="M138.181 78.547C137.866 78.9923 137.441 79.6238 137.264 80.0329C136.749 81.2392 139.343 81.9867 139.487 80.7201C139.538 80.2678 139.405 79.6393 139.224 79.0962C138.74 77.6409 138.709 77.805 138.181 78.547Z" fill="#FBC4BB"/>
<path fill-rule="evenodd" clip-rule="evenodd" d="M148.392 80.2929C147.2 80.2728 146.214 81.1172 146.192 82.1784C146.169 83.2396 147.117 84.1176 148.31 84.1377C149.502 84.1573 150.488 83.3134 150.511 82.2522C150.533 81.19 149.584 80.3135 148.392 80.2929Z" fill="#EF7177"/>
<path fill-rule="evenodd" clip-rule="evenodd" d="M129.816 79.9797C128.624 79.9586 127.638 80.8035 127.616 81.8642C127.593 82.9264 128.541 83.8029 129.734 83.823C130.927 83.8436 131.912 82.9992 131.935 81.9375C131.957 80.8763 131.009 79.9988 129.816 79.9797Z" fill="#EF7177"/>
<path fill-rule="evenodd" clip-rule="evenodd" d="M129.316 72.8171C129.041 72.9406 128.704 72.8412 128.567 72.5957C128.429 72.3503 128.541 72.0511 128.815 71.9291C130.258 71.267 132.188 71.1907 133.603 71.9462C133.867 72.0867 133.953 72.394 133.795 72.6289C133.637 72.8633 133.292 72.9411 133.028 72.8001C131.892 72.1932 130.467 72.3282 129.316 72.8171Z" fill="#2A2962"/>
<path fill-rule="evenodd" clip-rule="evenodd" d="M148.813 72.8191C147.659 72.3281 146.236 72.1931 145.099 72.8C144.835 72.941 144.49 72.8632 144.331 72.6288C144.174 72.3939 144.261 72.0866 144.523 71.9461C145.939 71.1906 147.869 71.2669 149.31 71.9285C149.585 72.051 149.698 72.3502 149.56 72.5957C149.421 72.8411 149.086 72.9405 148.813 72.8191Z" fill="#2A2962"/>
<path fill-rule="evenodd" clip-rule="evenodd" d="M130.967 74.7599C130.649 74.7599 130.357 74.8618 130.129 75.0295C130.031 75.0079 129.865 74.9482 129.773 74.789C129.72 74.6977 129.593 74.662 129.49 74.7092C129.388 74.7564 129.347 74.8693 129.401 74.9607C129.508 75.1475 129.675 75.2584 129.827 75.3237L129.817 75.3342C129.64 75.2975 129.433 75.2152 129.269 75.035C129.195 74.9557 129.063 74.9426 128.973 75.0079C128.884 75.0737 128.871 75.1911 128.943 75.2709C129.128 75.4722 129.351 75.5872 129.563 75.653L129.56 75.656C129.361 75.6454 129.142 75.5972 128.929 75.4758C128.831 75.4205 128.701 75.4466 128.639 75.5335C128.577 75.6213 128.606 75.7363 128.704 75.7915C128.923 75.9165 129.145 75.9823 129.356 76.0119L129.649 76.0485V77.4667C129.649 78.1123 130.242 78.6409 130.967 78.6409C131.694 78.6409 132.287 78.1123 132.287 77.4667V75.9346C132.287 75.2885 131.694 74.7599 130.967 74.7599Z" fill="#2A2962"/>
<path fill-rule="evenodd" clip-rule="evenodd" d="M147.159 74.7599C147.477 74.7599 147.769 74.8618 147.998 75.0295C148.095 75.0079 148.261 74.9482 148.353 74.789C148.406 74.6977 148.533 74.662 148.636 74.7092C148.74 74.7564 148.78 74.8693 148.727 74.9607C148.619 75.1475 148.452 75.2584 148.298 75.3237L148.31 75.3342C148.486 75.2975 148.694 75.2152 148.858 75.035C148.931 74.9557 149.063 74.9426 149.153 75.0079C149.243 75.0737 149.257 75.1911 149.183 75.2709C148.999 75.4722 148.776 75.5872 148.565 75.653L148.567 75.656C148.766 75.6454 148.984 75.5972 149.197 75.4758C149.296 75.4205 149.425 75.4466 149.488 75.5335C149.55 75.6213 149.521 75.7363 149.423 75.7915C149.204 75.9165 148.98 75.9823 148.771 76.0119L148.477 76.0485V77.4667C148.477 78.1123 147.884 78.6409 147.159 78.6409C146.432 78.6409 145.839 78.1123 145.839 77.4667V75.9346C145.839 75.2885 146.432 74.7599 147.159 74.7599Z" fill="#2A2962"/>
<path fill-rule="evenodd" clip-rule="evenodd" d="M139.294 114.433C139.294 114.433 153.988 114.433 155.652 114.433C157.316 114.433 160.772 116.027 161.282 120.754C161.795 125.48 165.684 152.166 165.684 152.166H139.294H112.905C112.905 152.166 116.795 125.48 117.306 120.754C117.818 116.027 121.273 114.433 122.937 114.433C124.6 114.433 139.294 114.433 139.294 114.433Z" fill="#F5C108"/>
<path fill-rule="evenodd" clip-rule="evenodd" d="M156.043 116.542C155.83 117.772 154.535 118.616 153.154 118.425C151.773 118.235 150.826 117.083 151.039 115.853C151.64 112.39 152.391 108.874 153.244 105.455C153.6 104.027 153.983 102.6 154.419 101.189C154.788 100 155.196 98.7861 155.716 97.6421C155.853 97.3389 156.218 97.1762 156.573 97.259L160.101 98.0823C160.315 98.132 160.478 98.253 160.572 98.4317C160.667 98.6109 160.668 98.7987 160.575 98.9784C160.032 100.022 159.632 101.24 159.288 102.347C158.824 103.846 158.426 105.366 158.059 106.885C157.287 110.066 156.602 113.325 156.043 116.542Z" fill="#F5C108"/>
<path fill-rule="evenodd" clip-rule="evenodd" d="M153.541 115.401C154.035 115.401 154.436 115.757 154.436 116.198C154.436 116.638 154.035 116.995 153.541 116.995C153.046 116.995 152.645 116.638 152.645 116.198C152.645 115.757 153.046 115.401 153.541 115.401Z" fill="#2A2962"/>
<path fill-rule="evenodd" clip-rule="evenodd" d="M122.547 116.542C122.761 117.772 124.055 118.616 125.436 118.425C126.818 118.235 127.766 117.083 127.552 115.853C126.95 112.39 126.199 108.874 125.347 105.455C124.991 104.027 124.608 102.6 124.172 101.189C123.803 100 123.394 98.7861 122.874 97.6421C122.737 97.3389 122.373 97.1762 122.017 97.259L118.49 98.0823C118.275 98.132 118.113 98.253 118.018 98.4317C117.923 98.6109 117.922 98.7987 118.016 98.9784C118.558 100.022 118.959 101.24 119.302 102.347C119.768 103.846 120.164 105.366 120.532 106.885C121.303 110.066 121.989 113.325 122.547 116.542Z" fill="#F5C108"/>
<path fill-rule="evenodd" clip-rule="evenodd" d="M125.05 115.401C124.555 115.401 124.153 115.757 124.153 116.198C124.153 116.638 124.555 116.995 125.05 116.995C125.544 116.995 125.945 116.638 125.945 116.198C125.945 115.757 125.544 115.401 125.05 115.401Z" fill="#2A2962"/>
<path d="M88.6084 139.839C88.6084 139.839 94.5084 135.112 100.338 138.842" stroke="#EF7177" stroke-width="14.173" stroke-miterlimit="2.6131" stroke-linecap="round" stroke-linejoin="round"/>
<path d="M92.1836 133.573C92.1836 133.573 101.189 128.519 104.225 125.059" stroke="#EF7177" stroke-width="14.173" stroke-miterlimit="2.6131" stroke-linecap="round" stroke-linejoin="round"/>
<path d="M112.994 120.344C112.994 120.344 112.119 112.845 108.961 110.25" stroke="#EF7177" stroke-width="14.173" stroke-miterlimit="2.6131" stroke-linecap="round" stroke-linejoin="round"/>
<path d="M165.258 120.204C165.258 120.204 167.5 112.628 171.264 109.276" stroke="#EF7177" stroke-width="14.173" stroke-miterlimit="2.6131" stroke-linecap="round" stroke-linejoin="round"/>
<path d="M166.617 116.529C166.617 116.529 168.167 115.059 170.658 114.573" stroke="#EF7177" stroke-width="14.173" stroke-miterlimit="2.6131" stroke-linecap="round" stroke-linejoin="round"/>
<path d="M186.406 133.573C186.406 133.573 180.314 130.246 175.699 123.87" stroke="#EF7177" stroke-width="14.173" stroke-miterlimit="2.6131" stroke-linecap="round" stroke-linejoin="round"/>
<path d="M163.031 117.099C163.031 117.099 160.882 109.761 159.243 107.276" stroke="#EF7177" stroke-width="14.173" stroke-miterlimit="2.6131" stroke-linecap="round" stroke-linejoin="round"/>
<path d="M115.315 118.731C115.315 118.731 117.525 112.518 117.829 112.195" stroke="#EF7177" stroke-width="14.173" stroke-miterlimit="2.6131" stroke-linecap="round" stroke-linejoin="round"/>
<path d="M189.981 139.839C189.981 139.839 185.051 136.625 178.734 138.139" stroke="#EF7177" stroke-width="14.173" stroke-miterlimit="2.6131" stroke-linecap="round" stroke-linejoin="round"/>
<path fill-rule="evenodd" clip-rule="evenodd" d="M146.592 95.5808C146.592 95.5808 145.069 98.6225 139.294 98.6225C139.294 98.6225 140.909 102.802 144.429 102.546C147.947 102.289 150.476 95.7455 146.579 94.5156L146.592 95.5808Z" fill="white"/>
<path fill-rule="evenodd" clip-rule="evenodd" d="M131.997 95.5808C131.997 95.5808 133.52 98.6225 139.294 98.6225C139.294 98.6225 137.68 102.802 134.161 102.546C130.641 102.289 128.113 95.7455 132.01 94.5156L131.997 95.5808Z" fill="white"/>
<path fill-rule="evenodd" clip-rule="evenodd" d="M157.95 70.1715H157.316C157.26 72.2368 157.12 73.6906 157.12 73.6906C155.079 73.1343 154.807 76.7658 154.807 76.7658C152.33 76.0866 152.705 69.7448 152.705 69.7448C149.907 68.7825 150.287 64.9327 150.287 64.9327C148.126 67.4241 144.372 64.3102 144.372 64.3102C142.146 69.3493 131.777 63.2349 131.777 63.2349C131.777 63.2349 133.939 64.9327 132.795 65.8383C131.65 66.7444 129.042 64.4231 129.042 64.4231C128.978 68.3864 125.543 70.3683 125.543 70.3683C125.543 76.2568 123.32 77.7281 123.32 77.7281C123.39 74.6152 120.85 73.7649 120.85 73.7649C120.85 73.7649 122.967 71.8698 121.822 66.2077C121.742 65.8127 121.692 65.4116 121.67 65.007C124.24 60.9774 129.108 58.2425 134.659 58.2425H143.104C150.799 58.2425 157.181 63.4949 157.95 70.1715Z" fill="#2A2962"/>
<path fill-rule="evenodd" clip-rule="evenodd" d="M166.052 155.908C166.565 160.836 167.15 165.352 167.596 167.872L112.06 164.352L111.714 162.997C111.921 161.411 112.133 159.636 112.339 157.77L120.015 155.055C120.015 155.055 155.145 155.613 166.052 155.908Z" fill="#FA5652"/>
<path fill-rule="evenodd" clip-rule="evenodd" d="M115.179 119.876C117.832 119.876 120.002 121.809 120.002 124.169V140.369C120.002 142.73 117.832 144.661 115.179 144.661C112.525 144.661 110.354 142.73 110.354 140.369V124.169C110.354 121.809 112.525 119.876 115.179 119.876Z" fill="#619FAC"/>
<path fill-rule="evenodd" clip-rule="evenodd" d="M124.825 119.876C122.172 119.876 120.001 121.809 120.001 124.169V140.369C120.001 142.73 122.172 144.661 124.825 144.661C127.478 144.661 129.649 142.73 129.649 140.369V124.169C129.649 121.809 127.478 119.876 124.825 119.876Z" fill="#81D3B3"/>
<path fill-rule="evenodd" clip-rule="evenodd" d="M134.472 119.876C137.125 119.876 139.296 121.809 139.296 124.169V140.369C139.296 142.73 137.125 144.661 134.472 144.661C131.819 144.661 129.648 142.73 129.648 140.369V124.169C129.648 121.809 131.819 119.876 134.472 119.876Z" fill="#507FA7"/>
<path fill-rule="evenodd" clip-rule="evenodd" d="M144.12 119.876C141.467 119.876 139.297 121.809 139.297 124.169V140.369C139.297 142.73 141.467 144.661 144.12 144.661C146.773 144.661 148.944 142.73 148.944 140.369V124.169C148.944 121.809 146.773 119.876 144.12 119.876Z" fill="#729BD6"/>
<path fill-rule="evenodd" clip-rule="evenodd" d="M153.767 119.876C156.421 119.876 158.591 121.809 158.591 124.169V140.369C158.591 142.73 156.421 144.661 153.767 144.661C151.115 144.661 148.943 142.73 148.943 140.369V124.169C148.943 121.809 151.115 119.876 153.767 119.876Z" fill="#619FAC"/>
<path fill-rule="evenodd" clip-rule="evenodd" d="M163.414 119.876C160.762 119.876 158.591 121.809 158.591 124.169V140.369C158.591 142.73 160.762 144.661 163.414 144.661C166.068 144.661 168.239 142.73 168.239 140.369V124.169C168.239 121.809 166.068 119.876 163.414 119.876Z" fill="#81D3B3"/>
<path fill-rule="evenodd" clip-rule="evenodd" d="M168.24 125.378C165.586 125.378 163.415 127.31 163.415 129.671V145.87C163.415 148.231 165.586 150.163 168.24 150.163C170.893 150.163 173.063 148.231 173.063 145.87V129.671C173.063 127.31 170.893 125.378 168.24 125.378Z" fill="#619FAC"/>
<path fill-rule="evenodd" clip-rule="evenodd" d="M158.591 125.378C161.244 125.378 163.414 127.31 163.414 129.671V145.87C163.414 148.231 161.244 150.163 158.591 150.163C155.937 150.163 153.767 148.231 153.767 145.87V129.671C153.767 127.31 155.937 125.378 158.591 125.378Z" fill="#81D3B3"/>
<path fill-rule="evenodd" clip-rule="evenodd" d="M148.943 125.378C146.29 125.378 144.12 127.31 144.12 129.671V145.87C144.12 148.231 146.29 150.163 148.943 150.163C151.596 150.163 153.766 148.231 153.766 145.87V129.671C153.766 127.31 151.596 125.378 148.943 125.378Z" fill="#507FA7"/>
<path fill-rule="evenodd" clip-rule="evenodd" d="M139.297 125.378C141.95 125.378 144.12 127.31 144.12 129.671V145.87C144.12 148.231 141.95 150.163 139.297 150.163C136.643 150.163 134.473 148.231 134.473 145.87V129.671C134.473 127.31 136.643 125.378 139.297 125.378Z" fill="#729BD6"/>
<path fill-rule="evenodd" clip-rule="evenodd" d="M129.65 125.378C126.996 125.378 124.826 127.31 124.826 129.671V145.87C124.826 148.231 126.996 150.163 129.65 150.163C132.303 150.163 134.473 148.231 134.473 145.87V129.671C134.473 127.31 132.303 125.378 129.65 125.378Z" fill="#619FAC"/>
<path fill-rule="evenodd" clip-rule="evenodd" d="M120.001 125.378C122.655 125.378 124.826 127.31 124.826 129.671V145.87C124.826 148.231 122.655 150.163 120.001 150.163C117.348 150.163 115.179 148.231 115.179 145.87V129.671C115.179 127.31 117.348 125.378 120.001 125.378Z" fill="#81D3B3"/>
<path fill-rule="evenodd" clip-rule="evenodd" d="M110.354 125.378C107.701 125.378 105.53 127.31 105.53 129.671V145.87C105.53 148.231 107.701 150.163 110.354 150.163C113.007 150.163 115.178 148.231 115.178 145.87V129.671C115.178 127.31 113.007 125.378 110.354 125.378Z" fill="#619FAC"/>
<path fill-rule="evenodd" clip-rule="evenodd" d="M163.361 144.385H115.23C113.802 143.177 110.52 140.402 109.9 139.907C109.103 139.271 107.645 139.246 107.645 139.246C107.645 139.246 105.527 139.246 103.492 139.246C101.457 139.246 101.623 140.665 101.623 140.665V146.452C101.621 146.49 101.619 146.529 101.619 146.566V161.199C101.619 162.399 102.722 163.38 104.069 163.38H174.519C175.866 163.38 176.968 162.399 176.968 161.199V149.477V146.566V140.665C176.968 140.665 177.134 139.246 175.1 139.246C173.065 139.246 170.947 139.246 170.947 139.246C170.947 139.246 169.489 139.271 168.692 139.907C168.071 140.402 164.789 143.177 163.361 144.385Z" fill="#4D92D5"/>
<path fill-rule="evenodd" clip-rule="evenodd" d="M101.619 156.662V161.199C101.619 162.399 102.722 163.38 104.069 163.38H111.143L111.148 163.368L105.744 156.298C103.982 156.196 102.638 156.345 101.619 156.662Z" fill="#507FA7"/>
<path fill-rule="evenodd" clip-rule="evenodd" d="M166.962 163.38H174.52C174.767 163.38 175.005 163.346 175.229 163.286C175.601 161.994 176.324 158.564 176.969 155.376V150.36L172.049 155.993L170.416 160.068L166.962 163.38Z" fill="#507FA7"/>
<path fill-rule="evenodd" clip-rule="evenodd" d="M178.007 151.85C177.858 151.962 177.709 152.056 177.574 152.12C176.968 152.401 175.126 153.136 174.096 153.699C173.532 154.007 169.765 158.827 169.6 159.218C169.435 159.61 170.527 160.502 171.497 159.977C172.761 159.291 174.797 157.871 174.797 157.871L171.58 161.984C171.58 161.984 170.81 163.38 169.628 163.38C168.445 163.38 167.234 163.38 165.86 163.38C164.485 163.38 163.523 164.113 163.083 164.799C162.643 165.483 163.468 165.729 164.651 165.729C165.833 165.729 166.905 165.729 166.905 165.729C166.905 165.729 166.794 166.242 167.977 166.242C169.16 166.242 172.597 166.242 174 166.242C175.403 166.242 176.777 165.361 177.437 164.357C178.097 163.354 181.453 160.343 182.057 159.119C182.341 158.546 182.652 157.683 182.968 156.834L182.969 156.832L182.97 156.829L183.054 156.606C183.848 154.063 181.019 150.743 178.007 151.85Z" fill="#F9A798"/>
<path fill-rule="evenodd" clip-rule="evenodd" d="M100.582 151.85C100.732 151.962 100.88 152.056 101.015 152.12C101.62 152.401 103.463 153.136 104.494 153.699C105.058 154.007 108.825 158.827 108.989 159.218C109.155 159.61 108.062 160.502 107.092 159.977C105.827 159.291 103.792 157.871 103.792 157.871L107.01 161.984C107.01 161.984 107.779 163.38 108.962 163.38C110.144 163.38 111.355 163.38 112.73 163.38C114.104 163.38 115.067 164.113 115.506 164.799C115.947 165.483 115.122 165.729 113.939 165.729C112.757 165.729 111.684 165.729 111.684 165.729C111.684 165.729 111.795 166.242 110.612 166.242C109.43 166.242 105.992 166.242 104.589 166.242C103.187 166.242 101.812 165.361 101.152 164.357C100.492 163.354 97.1374 160.343 96.5322 159.119C96.2485 158.546 95.9377 157.683 95.6219 156.834L95.6202 156.832L95.6196 156.829L95.5362 156.606C94.7409 154.063 97.5711 150.743 100.582 151.85Z" fill="#F9A798"/>
<path d="M101.619 149.377C105.503 149.377 176.968 149.377 176.968 149.377" stroke="#507FA7" stroke-width="7.087" stroke-miterlimit="2.6131" stroke-linecap="round" stroke-linejoin="round"/>
<path fill-rule="evenodd" clip-rule="evenodd" d="M152.247 51.9455C162.849 52.1949 170.561 54.7602 172.031 59.2566C173.539 63.871 168.11 69.4216 158.629 74.0581C158.513 74.1143 158.398 74.1705 158.282 74.2257H158.395C158.348 74.2885 158.301 74.3497 158.254 74.41C158.37 74.5099 158.48 74.6153 158.583 74.7252C158.898 74.5947 159.21 74.4617 159.518 74.3301C170.876 69.4437 177.662 63.2113 175.997 58.1175C174.32 52.9841 164.502 50.3667 151.536 50.8416C145.962 51.0459 139.805 51.821 133.464 53.214C130.463 53.8736 127.583 54.6352 124.856 55.478C126.366 55.0764 127.916 54.6999 129.497 54.353C137.672 52.5574 145.537 51.7878 152.247 51.9455Z" fill="#F5C108"/>
<path d="M156.043 116.542C155.83 117.772 154.535 118.616 153.154 118.425C151.773 118.235 150.826 117.083 151.039 115.853C151.12 115.383 151.205 114.912 151.293 114.441" stroke="#E4AE1B" stroke-width="14.173" stroke-miterlimit="2.6131" stroke-linecap="round" stroke-linejoin="round"/>
<path d="M122.547 116.542C122.761 117.772 124.055 118.616 125.436 118.425C126.818 118.235 127.766 117.083 127.552 115.853" stroke="#E4AE1B" stroke-width="14.173" stroke-miterlimit="2.6131" stroke-linecap="round" stroke-linejoin="round"/>
<path fill-rule="evenodd" clip-rule="evenodd" d="M54.478 72.7408C61.7893 72.7408 67.7525 67.4337 67.7525 60.9253C67.7525 54.4178 61.7893 49.1102 54.478 49.1102C47.1661 49.1102 41.2031 54.4178 41.2031 60.9253C41.2031 67.4337 47.1661 72.7408 54.478 72.7408Z" fill="#F5C108"/>
<path fill-rule="evenodd" clip-rule="evenodd" d="M55.8304 46.3471C55.7738 46.9681 55.1899 47.4561 54.4781 47.4561C53.766 47.4561 53.1824 46.9681 53.1254 46.3471L52.471 41.7207H52.4713C52.4525 41.6218 52.4424 41.5209 52.4424 41.417C52.4424 40.417 53.3536 39.6058 54.4781 39.6058C55.6019 39.6058 56.5131 40.417 56.5131 41.417C56.5131 41.5209 56.503 41.6218 56.4843 41.7207L55.8304 46.3471Z" fill="#F5C108"/>
<path fill-rule="evenodd" clip-rule="evenodd" d="M55.8304 75.5038C55.7738 74.8828 55.1899 74.3944 54.4781 74.3944C53.766 74.3944 53.1824 74.8828 53.1254 75.5038L52.471 80.1302H52.4713C52.4525 80.2286 52.4424 80.3305 52.4424 80.4334C52.4424 81.4339 53.3536 82.2451 54.4781 82.2451C55.6019 82.2451 56.5131 81.4339 56.5131 80.4334C56.5131 80.3305 56.503 80.2286 56.4843 80.1302L55.8304 75.5038Z" fill="#F5C108"/>
<path fill-rule="evenodd" clip-rule="evenodd" d="M63.838 48.9023C63.4404 49.4143 62.6604 49.5775 62.0439 49.2607C61.4275 48.944 61.1957 48.2618 61.4957 47.698L63.5278 43.4004C63.5673 43.307 63.6152 43.2152 63.6739 43.1253C64.2356 42.2588 65.4804 41.9617 66.4533 42.4622C67.4273 42.9626 67.7606 44.0701 67.1989 44.9365C67.1402 45.0264 67.0754 45.1102 67.0037 45.187L63.838 48.9023Z" fill="#F5C108"/>
<path fill-rule="evenodd" clip-rule="evenodd" d="M47.4598 74.1524C47.7595 73.5891 47.5281 72.9069 46.9115 72.5902C46.2948 72.2734 45.5154 72.4371 45.1172 72.9486L41.9516 76.6644C41.8804 76.7417 41.8148 76.8245 41.7566 76.9139C41.1942 77.7803 41.5282 78.8888 42.5013 79.3882C43.475 79.8887 44.7194 79.5921 45.2816 78.7256C45.3398 78.6363 45.3882 78.5444 45.4277 78.4505L47.4598 74.1524Z" fill="#F5C108"/>
<path fill-rule="evenodd" clip-rule="evenodd" d="M69.337 54.6784C68.7053 54.9459 67.9388 54.7396 67.5824 54.1904C67.2265 53.6422 67.4092 52.948 67.9851 52.5941L72.1592 49.7758C72.2461 49.7126 72.3397 49.6549 72.4401 49.6026C73.4136 49.1022 74.6589 49.3993 75.2206 50.2658C75.7824 51.1322 75.449 52.2397 74.4756 52.7406C74.3752 52.7919 74.2714 52.835 74.1665 52.8702L69.337 54.6784Z" fill="#F5C108"/>
<path fill-rule="evenodd" clip-rule="evenodd" d="M40.9697 69.2569C41.5456 68.9035 41.7284 68.2088 41.3724 67.6601C41.0162 67.1109 40.25 66.9051 39.6177 67.1726L34.7887 68.9808C34.6833 69.0155 34.58 69.0586 34.4793 69.1103C33.5053 69.6108 33.1719 70.7193 33.734 71.5852C34.2964 72.4522 35.541 72.7483 36.515 72.2483C36.6152 72.1966 36.7088 72.1384 36.7955 72.0747L40.9697 69.2569Z" fill="#F5C108"/>
<path fill-rule="evenodd" clip-rule="evenodd" d="M70.8557 62.129C70.1591 62.0788 69.6104 61.5592 69.6104 60.9252C69.6104 60.2922 70.1591 59.7716 70.8557 59.7214L76.0541 59.1391V59.1396C76.164 59.1231 76.2791 59.1135 76.3947 59.1135C77.5193 59.1135 78.4302 59.9252 78.4302 60.9252C78.4302 61.9257 77.5193 62.7369 76.3947 62.7369C76.2791 62.7369 76.164 62.7279 76.0541 62.7118L70.8557 62.129Z" fill="#F5C108"/>
<path fill-rule="evenodd" clip-rule="evenodd" d="M38.0995 62.129C38.7963 62.0788 39.3447 61.5592 39.3447 60.9252C39.3447 60.2922 38.7963 59.7716 38.0995 59.7214L32.9008 59.1391V59.1396C32.7902 59.1231 32.6763 59.1135 32.5604 59.1135C31.4364 59.1135 30.5254 59.9252 30.5254 60.9252C30.5254 61.9257 31.4364 62.7369 32.5604 62.7369C32.6763 62.7369 32.7902 62.7279 32.9008 62.7118L38.0995 62.129Z" fill="#F5C108"/>
<path fill-rule="evenodd" clip-rule="evenodd" d="M67.9851 69.2569C67.4092 68.9035 67.2265 68.2087 67.5824 67.6601C67.9388 67.1109 68.7053 66.9051 69.337 67.1726L74.1665 68.9808C74.2714 69.0155 74.3752 69.0586 74.4756 69.1103C75.449 69.6108 75.7824 70.7192 75.2206 71.5852C74.6589 72.4516 73.4136 72.7483 72.4401 72.2483C72.3397 72.1966 72.2461 72.1384 72.1592 72.0746L67.9851 69.2569Z" fill="#F5C108"/>
<path fill-rule="evenodd" clip-rule="evenodd" d="M39.6175 54.6784C40.2498 54.9459 41.016 54.7396 41.3723 54.1904C41.7285 53.6422 41.5454 52.948 40.9695 52.5936L36.7959 49.7758H36.7953C36.7087 49.7121 36.6151 49.6549 36.5148 49.6026C35.5408 49.1022 34.2963 49.3993 33.7338 50.2658C33.1718 51.1322 33.5058 52.2397 34.4798 52.7406C34.5798 52.7919 34.6831 52.835 34.7885 52.8702L39.6175 54.6784Z" fill="#F5C108"/>
<path fill-rule="evenodd" clip-rule="evenodd" d="M61.4957 74.1524C61.1956 73.5891 61.4274 72.9069 62.0445 72.5902C62.6609 72.2734 63.4404 72.4371 63.838 72.9486L67.0037 76.6644C67.0753 76.7417 67.1402 76.8245 67.1988 76.9139C67.7617 77.7803 67.4273 78.8888 66.4544 79.3882C65.4803 79.8887 64.2362 79.5921 63.6739 78.7256C63.6152 78.6357 63.5673 78.5444 63.5278 78.4505L61.4957 74.1524Z" fill="#F5C108"/>
<path fill-rule="evenodd" clip-rule="evenodd" d="M45.1177 48.9023C45.5152 49.4143 46.2946 49.5775 46.9113 49.2607C47.5279 48.944 47.7593 48.2618 47.4596 47.698L45.4275 43.4004C45.388 43.307 45.3396 43.2152 45.2814 43.1248C44.72 42.2583 43.4748 41.9617 42.5011 42.4622C41.528 42.9626 41.1944 44.0701 41.7564 44.9365C41.8146 45.0264 41.8802 45.1102 41.9514 45.187L45.1177 48.9023Z" fill="#F5C108"/>
<path fill-rule="evenodd" clip-rule="evenodd" d="M227.492 57.7365C227.419 57.3485 227.333 56.975 227.234 56.6161C227.134 56.2511 227.02 55.9027 226.894 55.5709C226.423 54.3305 225.78 53.3104 225.012 52.4861C224.179 51.5951 223.198 50.9334 222.127 50.4686C221.134 50.0384 220.064 49.7788 218.962 49.6629C217.78 49.5384 216.561 49.5805 215.361 49.7572C214.956 49.8165 214.552 49.8918 214.151 49.9816C213.745 50.0725 213.344 50.1774 212.949 50.2964C212.904 50.3094 212.869 50.3375 212.85 50.3727C212.83 50.4078 212.826 50.449 212.841 50.4887L212.846 50.4987C212.9 50.6347 214.075 53.5534 216.448 55.9082C218.849 58.2902 222.475 60.0984 227.399 57.9012C227.436 57.8851 227.462 57.8595 227.479 57.8304C227.493 57.8023 227.499 57.7692 227.492 57.7365Z" fill="#81D3B3"/>
<path fill-rule="evenodd" clip-rule="evenodd" d="M217.749 68.9588C218.835 68.9588 219.87 69.1525 220.813 69.5055C221.668 68.638 222.922 68.0903 224.319 68.0903C225.024 68.0903 225.691 68.2304 226.291 68.4794C227.609 65.7901 230.623 63.9111 234.131 63.9111C238.852 63.9111 242.681 67.3187 242.681 71.522C242.681 71.6711 242.676 71.8187 242.667 71.9658C242.849 71.9462 243.033 71.9366 243.221 71.9366C245.798 71.9366 247.887 73.795 247.887 76.0882C247.887 76.3698 247.855 76.6459 247.794 76.912C247.876 76.9065 247.961 76.9039 248.045 76.9039C249.956 76.9039 251.503 78.2814 251.503 79.9812C251.503 81.68 249.956 83.0585 248.045 83.0585H217.749C213.374 83.0585 209.827 79.9024 209.827 76.0084C209.827 72.1154 213.374 68.9588 217.749 68.9588Z" fill="#E4AE1B"/>
<path fill-rule="evenodd" clip-rule="evenodd" d="M234.156 51.0749C234.125 50.6015 234.115 50.1422 234.123 49.6969C234.132 49.2441 234.162 48.8084 234.21 48.3882C234.392 46.8185 234.842 45.4676 235.499 44.3165C236.211 43.0715 237.165 42.061 238.285 41.2613C239.322 40.5199 240.502 39.9601 241.761 39.5631C243.114 39.1374 244.558 38.8969 246.021 38.8206C246.515 38.794 247.013 38.7865 247.511 38.7965C248.015 38.8071 248.519 38.8357 249.018 38.8813C249.075 38.8859 249.123 38.911 249.158 38.9476C249.19 38.9843 249.207 39.0315 249.202 39.0817L249.2 39.0947C249.177 39.2674 248.67 42.9762 246.586 46.3059C244.476 49.6754 240.76 52.6597 234.313 51.2461C234.266 51.2356 234.228 51.2125 234.201 51.1819C234.174 51.1517 234.159 51.1141 234.157 51.0749H234.156Z" fill="#81D3B3"/>
<path d="M230.875 71.3879C230.875 71.3879 230.875 61.6266 230.875 57.7968C230.875 53.9671 232.91 51.94 234.944 50.2131" stroke="#F5C108" stroke-width="21.26" stroke-miterlimit="2.6131" stroke-linecap="round" stroke-linejoin="round"/>
<path d="M230.875 71.3879C230.875 71.3879 230.875 64.8715 230.875 62.3153C230.875 59.7591 228.841 58.4057 226.807 57.2526" stroke="#F5C108" stroke-width="21.26" stroke-miterlimit="2.6131" stroke-linecap="round" stroke-linejoin="round"/>
<path d="M247.401 80.6443C247.401 77.2975 244.353 74.5846 240.594 74.5846C239.66 74.5846 238.771 74.7518 237.96 75.0545C237.225 74.3091 236.147 73.8387 234.945 73.8387C234.34 73.8387 233.766 73.9592 233.251 74.173C232.118 71.8613 229.528 70.2464 226.514 70.2464" stroke="#F5C108" stroke-width="14.173" stroke-miterlimit="2.6131" stroke-linecap="round" stroke-linejoin="round"/>
<path d="M215.691 78.6138C217.592 75.7268 221.762 74.7579 225.006 76.4501C225.812 76.8708 226.484 77.4155 227.012 78.041C228.068 77.7287 229.266 77.808 230.302 78.3487C230.825 78.6218 231.252 78.9837 231.575 79.4004" stroke="#F5C108" stroke-width="14.173" stroke-miterlimit="2.6131" stroke-linecap="round" stroke-linejoin="round"/>
<path fill-rule="evenodd" clip-rule="evenodd" d="M233.406 197.871C236.374 191.719 238.717 184.346 237.105 178.268C237.05 178.062 236.818 177.934 236.586 177.984C236.355 178.032 236.212 178.239 236.267 178.444C237.986 184.926 235.047 192.975 231.744 199.32C232.37 198.984 232.907 198.483 233.406 197.871Z" fill="#FA5652"/>
<path fill-rule="evenodd" clip-rule="evenodd" d="M236.699 187.033C236.312 183.344 234.25 183.286 233.698 184.232C233.267 184.971 233.759 186.323 236.699 187.033Z" fill="#FA5652"/>
<path fill-rule="evenodd" clip-rule="evenodd" d="M236.698 187.033C240.037 185.768 240.035 184.264 239.2 183.781C238.325 183.274 236.54 183.881 236.698 187.033Z" fill="#FA5652"/>
<path fill-rule="evenodd" clip-rule="evenodd" d="M236.698 187.033C239.433 183.707 237.816 182.282 236.563 182.665C235.557 182.972 234.788 184.445 236.698 187.033Z" fill="#FA5652"/>
<path fill-rule="evenodd" clip-rule="evenodd" d="M236.809 178.744C235.161 175.695 233.389 175.917 232.98 176.782C232.59 177.608 233.437 179.016 236.809 178.744Z" fill="#FA5652"/>
<path fill-rule="evenodd" clip-rule="evenodd" d="M236.808 178.744C239.264 176.675 238.921 175.31 238.074 174.976C237.064 174.577 235.338 175.646 236.808 178.744Z" fill="#FA5652"/>
<path fill-rule="evenodd" clip-rule="evenodd" d="M236.81 178.744C237.953 175.154 236.364 174.13 235.291 174.52C234.228 174.909 233.673 176.691 236.81 178.744Z" fill="#FA5652"/>
<path fill-rule="evenodd" clip-rule="evenodd" d="M236.986 199.889C240.953 194.201 244.506 187.221 243.931 180.998C243.911 180.786 243.702 180.629 243.467 180.647C243.23 180.664 243.054 180.85 243.073 181.06C243.686 187.698 239.429 195.266 235.1 201.1C235.774 200.851 236.389 200.428 236.986 199.889Z" fill="#FA5652"/>
<path fill-rule="evenodd" clip-rule="evenodd" d="M238.271 197.146C241.458 196.617 242.088 195.389 241.689 194.681C241.173 193.769 238.947 193.719 238.271 197.146Z" fill="#FA5652"/>
<path fill-rule="evenodd" clip-rule="evenodd" d="M238.272 197.146C241.034 194.95 240.751 193.417 239.852 192.977C238.743 192.432 236.694 193.553 238.272 197.146Z" fill="#FA5652"/>
<path fill-rule="evenodd" clip-rule="evenodd" d="M242.059 189.61C242.273 186.269 240.637 185.675 239.799 186.227C238.986 186.763 238.927 188.383 242.059 189.61Z" fill="#FA5652"/>
<path fill-rule="evenodd" clip-rule="evenodd" d="M242.06 189.61C246.053 188.693 245.831 186.897 244.722 186.537C243.837 186.252 242.384 186.881 242.06 189.61Z" fill="#FA5652"/>
<path fill-rule="evenodd" clip-rule="evenodd" d="M242.06 189.61C245.079 186.902 244.139 185.31 242.95 185.255C241.823 185.203 240.469 186.534 242.06 189.61Z" fill="#FA5652"/>
<path fill-rule="evenodd" clip-rule="evenodd" d="M243.559 181.428C242.531 178.456 240.935 178.203 240.258 178.803C239.496 179.478 239.892 181.234 243.559 181.428Z" fill="#FA5652"/>
<path fill-rule="evenodd" clip-rule="evenodd" d="M243.56 181.428C246.304 179.728 246.226 178.345 245.469 177.886C244.547 177.325 242.616 178.139 243.56 181.428Z" fill="#FA5652"/>
<path fill-rule="evenodd" clip-rule="evenodd" d="M243.559 181.428C245.167 178.277 244.078 176.996 243.014 177.021C241.793 177.051 240.603 178.803 243.559 181.428Z" fill="#FA5652"/>
<path fill-rule="evenodd" clip-rule="evenodd" d="M240.355 203.13C245.853 198.562 251.329 192.65 252.6 186.508C252.642 186.299 252.488 186.099 252.254 186.062C252.02 186.023 251.795 186.161 251.752 186.369C250.398 192.919 244.07 199.236 238.179 203.863C238.903 203.779 239.621 203.511 240.355 203.13Z" fill="#FA5652"/>
<path fill-rule="evenodd" clip-rule="evenodd" d="M242.401 200.78C243.944 197.433 242.267 196.494 241.274 197.018C240.454 197.453 240.099 198.883 242.401 200.78Z" fill="#FA5652"/>
<path fill-rule="evenodd" clip-rule="evenodd" d="M242.401 200.78C245.529 201.004 246.538 200.037 246.436 199.27C246.298 198.225 244.099 197.554 242.401 200.78Z" fill="#FA5652"/>
<path fill-rule="evenodd" clip-rule="evenodd" d="M242.401 200.78C246.219 199.112 245.948 197.347 244.865 196.933C243.821 196.532 242.023 197.384 242.401 200.78Z" fill="#FA5652"/>
<path fill-rule="evenodd" clip-rule="evenodd" d="M248.266 194.388C249.427 191.277 248.105 190.299 247.138 190.577C246.16 190.859 245.544 192.434 248.266 194.388Z" fill="#FA5652"/>
<path fill-rule="evenodd" clip-rule="evenodd" d="M248.267 194.388C252.032 194.427 252.564 192.904 251.864 192.196C251.203 191.527 249.438 191.586 248.267 194.388Z" fill="#FA5652"/>
<path fill-rule="evenodd" clip-rule="evenodd" d="M248.266 194.388C251.675 192.63 251.58 191.005 250.663 190.498C249.636 189.929 247.579 190.764 248.266 194.388Z" fill="#FA5652"/>
<path fill-rule="evenodd" clip-rule="evenodd" d="M252.114 186.837C251.975 183.265 250.059 182.986 249.373 183.791C248.791 184.474 249.095 185.937 252.114 186.837Z" fill="#FA5652"/>
<path fill-rule="evenodd" clip-rule="evenodd" d="M252.113 186.837C256.704 185.374 255.302 183.166 253.774 183.577C252.977 183.793 252.147 184.72 252.113 186.837Z" fill="#FA5652"/>
<path fill-rule="evenodd" clip-rule="evenodd" d="M252.114 186.837C254.854 183.884 253.736 182.374 252.54 182.428C251.415 182.481 250.224 183.916 252.114 186.837Z" fill="#FA5652"/>
<path fill-rule="evenodd" clip-rule="evenodd" d="M219.534 185.911C219.534 185.911 216.497 183.489 216.559 180.811C216.622 178.135 218.137 177.32 218.158 176.626C218.177 175.93 216.633 174.773 214.47 175.088C212.308 175.404 213.673 176.984 213.255 179.745C212.839 182.508 212.045 184.887 209.927 186.319C207.809 187.753 219.534 185.911 219.534 185.911Z" fill="#4D92D5"/>
<path fill-rule="evenodd" clip-rule="evenodd" d="M215.375 187.242C215.041 187.055 214.373 186.733 213.288 186.427C197.673 182.014 188.71 193.072 190.664 203.538C192.445 213.092 201.494 219.556 215.375 216.32C229.257 219.556 238.307 213.092 240.088 203.538C242.04 193.072 233.078 182.014 217.463 186.427C216.379 186.733 215.71 187.055 215.375 187.242Z" fill="#D9A823"/>
<path fill-rule="evenodd" clip-rule="evenodd" d="M204.695 216.867C207.821 217.376 211.399 217.247 215.375 216.32C229.256 219.556 238.306 213.092 240.088 203.538C240.666 200.441 240.287 197.292 239.063 194.507L204.695 216.867Z" fill="#EF7177"/>
<path fill-rule="evenodd" clip-rule="evenodd" d="M215.376 186.3C215.64 186.1 216.169 185.758 217.024 185.43C229.352 180.721 236.427 192.521 234.887 203.689C233.48 213.884 226.335 220.78 215.376 217.326C204.417 220.78 197.272 213.884 195.865 203.689C194.325 192.521 201.4 180.721 213.728 185.43C214.584 185.758 215.111 186.1 215.376 186.3Z" fill="#E4AE1B"/>
<path fill-rule="evenodd" clip-rule="evenodd" d="M234.835 197.257C235.158 199.344 235.183 201.527 234.886 203.689C233.479 213.884 226.335 220.78 215.375 217.326C211.098 218.675 207.4 218.445 204.4 217.058L234.835 197.257Z" fill="#DD7568"/>
<path fill-rule="evenodd" clip-rule="evenodd" d="M208.447 216.045C200.748 207.787 200.115 184.357 215.376 184.484C230.21 184.362 230.027 206.494 222.933 215.317C219.336 219.793 212.496 220.389 208.447 216.045Z" fill="#F5C108"/>
<path fill-rule="evenodd" clip-rule="evenodd" d="M208.447 216.045C208.144 215.719 207.851 215.368 207.57 214.996L227.547 201.999C227.204 207.06 225.534 212.082 222.933 215.317C219.336 219.793 212.496 220.389 208.447 216.045Z" fill="#ED9363"/>
<path fill-rule="evenodd" clip-rule="evenodd" d="M257.059 204.855C254.812 205.727 249.678 206.547 246.913 206.946C243.072 207.5 242.39 206.133 245.541 204.198C247.809 202.805 252.087 200.273 254.396 199.523C258.864 198.073 261.408 203.168 257.059 204.855Z" fill="#4D92D5"/>
<path fill-rule="evenodd" clip-rule="evenodd" d="M252.181 203.68C250.19 204.954 245.365 206.717 242.757 207.625C239.133 208.886 238.141 207.678 240.766 205.195C242.653 203.409 246.238 200.134 248.317 198.968C252.343 196.712 256.034 201.217 252.181 203.68Z" fill="#507FA7"/>
<path fill-rule="evenodd" clip-rule="evenodd" d="M251.868 203.433C249.449 203.798 244.649 205.613 242.091 206.626C238.536 208.034 238.805 209.511 242.633 209.595C245.388 209.656 250.524 209.689 252.918 209.191C257.55 208.229 256.545 202.726 251.868 203.433Z" fill="#81D3B3"/>
<path fill-rule="evenodd" clip-rule="evenodd" d="M232.095 202.287C226.863 204.034 217.338 210.361 212.296 213.853C205.288 218.705 207.068 222.495 215.87 221.471C222.205 220.733 233.956 219.152 239.03 217.065C248.841 213.031 242.214 198.911 232.095 202.287Z" fill="#EF7177"/>
<path d="M213.012 213.36C213.012 213.36 214.564 214.652 215.524 218.82" stroke="#D0626E" stroke-width="14.173" stroke-miterlimit="2.6131" stroke-linecap="round" stroke-linejoin="round"/>
<path d="M224.346 220.347C224.346 220.347 223.86 216.257 221.709 212.185" stroke="#D0626E" stroke-width="14.173" stroke-miterlimit="2.6131" stroke-linecap="round" stroke-linejoin="round"/>
<path d="M226.312 204.979C226.312 204.979 228.77 208.447 230.378 213.897" stroke="#D0626E" stroke-width="14.173" stroke-miterlimit="2.6131" stroke-linecap="round" stroke-linejoin="round"/>
<path d="M238.792 217.161C238.792 217.161 238.593 210.776 236.453 206.998" stroke="#D0626E" stroke-width="14.173" stroke-miterlimit="2.6131" stroke-linecap="round" stroke-linejoin="round"/>
<path fill-rule="evenodd" clip-rule="evenodd" d="M139.295 236.218C149.542 236.218 157.898 228.78 157.898 219.659C157.898 210.54 149.542 203.101 139.295 203.101C129.049 203.101 120.692 210.54 120.692 219.659C120.692 228.78 129.049 236.218 139.295 236.218Z" fill="#81D3B3"/>
<path fill-rule="evenodd" clip-rule="evenodd" d="M136.164 217.606L138.983 213.372C139.032 213.233 139.091 212.933 138.862 212.615L135.672 208.166L135.671 208.165C135.658 208.148 135.444 207.869 135.24 208.175L130.832 214.794C130.695 215 130.773 215.268 131.004 215.391L135.493 217.759C135.725 217.881 136.027 217.813 136.164 217.606Z" fill="white"/>
<path fill-rule="evenodd" clip-rule="evenodd" d="M141.237 214.751L136.023 207.48C135.946 207.373 135.982 207.228 136.103 207.159L141.623 206.174C141.934 206.12 142.384 206.099 142.501 206.261L146.461 211.783C146.596 211.941 146.798 211.987 146.992 211.876C147.376 211.657 147.76 211.439 148.144 211.222C148.239 211.167 148.357 211.172 148.446 211.234C148.534 211.294 148.569 211.394 148.534 211.49L146.809 216.202C146.446 217.191 146.701 217.011 145.539 216.886L140.065 216.301C139.953 216.289 139.867 216.219 139.841 216.122C139.816 216.025 139.861 215.928 139.955 215.874C140.34 215.656 140.723 215.437 141.108 215.219C141.303 215.108 141.342 214.928 141.237 214.751Z" fill="white"/>
<path fill-rule="evenodd" clip-rule="evenodd" d="M144.55 218.97L147.042 223.363C147.148 223.475 147.401 223.68 147.825 223.68H153.755H153.756C153.779 223.68 154.158 223.669 153.976 223.35L150.082 216.483C149.961 216.269 149.663 216.183 149.423 216.29L144.766 218.384C144.524 218.492 144.428 218.756 144.55 218.97Z" fill="white"/>
<path fill-rule="evenodd" clip-rule="evenodd" d="M144.395 224.203H154.084C154.228 224.203 154.346 224.308 154.346 224.436L152.309 229.106C152.192 229.371 151.969 229.72 151.755 229.72H144.395C144.171 229.736 144.019 229.863 144.019 230.069C144.019 230.474 144.019 230.88 144.019 231.285C144.019 231.385 143.952 231.471 143.846 231.504C143.741 231.538 143.627 231.51 143.556 231.433L140.022 227.603C139.28 226.798 139.314 227.086 140.057 226.281L143.556 222.489C143.627 222.413 143.741 222.383 143.846 222.418C143.952 222.452 144.019 222.538 144.019 222.638C144.019 223.044 144.019 223.448 144.019 223.854C144.019 224.061 144.171 224.186 144.395 224.203Z" fill="white"/>
<path fill-rule="evenodd" clip-rule="evenodd" d="M138.384 224.215L132.855 224.158C132.694 224.191 132.375 224.295 132.179 224.631L129.446 229.314L129.446 229.316C129.435 229.334 129.271 229.638 129.671 229.641L138.313 229.73C138.583 229.733 138.805 229.539 138.809 229.299L138.869 224.656C138.872 224.416 138.654 224.217 138.384 224.215Z" fill="white"/>
<path fill-rule="evenodd" clip-rule="evenodd" d="M133.159 221.739L128.692 229.393C128.626 229.507 128.467 229.551 128.339 229.492L124.622 225.73C124.411 225.517 124.167 225.18 124.266 225.011L127.66 219.196C127.746 219.012 127.689 218.835 127.484 218.74C127.079 218.553 126.675 218.366 126.271 218.179C126.171 218.133 126.116 218.041 126.132 217.941C126.147 217.842 126.228 217.766 126.338 217.744L131.784 216.718C132.928 216.503 132.626 216.397 133.086 217.356L135.253 221.867C135.298 221.959 135.274 222.062 135.191 222.129C135.108 222.198 134.992 222.212 134.892 222.166C134.488 221.978 134.083 221.791 133.679 221.605C133.474 221.509 133.279 221.571 133.159 221.739Z" fill="white"/>
<path fill-rule="evenodd" clip-rule="evenodd" d="M246.191 144.034C256.437 144.034 264.793 136.596 264.793 127.476C264.793 118.357 256.437 110.919 246.191 110.919C235.945 110.919 227.587 118.357 227.587 127.476C227.587 136.596 235.945 144.034 246.191 144.034Z" fill="#4D92D5"/>
<path d="M159.56 29.2892C176.561 32.1024 192.19 38.388 205.483 47.2894M85.1103 40.29C95.8894 34.8624 107.799 31.004 120.445 29.0633L85.1103 40.29ZM32.1576 102.648C33.5647 97.4518 35.4369 92.4177 37.7327 87.5814L32.1576 102.648ZM36.0219 160.036C34.243 155.798 32.7848 151.421 31.6729 146.928L36.0219 160.036ZM117.61 221.915C106.549 219.95 96.0863 216.512 86.4898 211.84L117.61 221.915ZM183.17 215.73C176.087 218.47 168.617 220.566 160.853 221.936L183.17 215.73ZM246.292 149.309C244.9 154.327 240.48 166.242 235.83 172.252L246.292 149.309ZM242.06 90.225C244.047 94.7776 245.662 99.4949 246.873 104.347L242.06 90.225Z" stroke="#4D92D5" stroke-width="21.26" stroke-miterlimit="2.6131" stroke-linecap="round" stroke-linejoin="round" stroke-dasharray="21.26 63.78"/>
<path fill-rule="evenodd" clip-rule="evenodd" d="M181.795 80.8958C181.756 80.308 181.742 79.7372 181.754 79.1835C181.765 78.6213 181.802 78.0806 181.861 77.5585C182.087 75.6078 182.647 73.9296 183.464 72.4994C184.347 70.9522 185.533 69.6967 186.924 68.7033C188.214 67.7821 189.679 67.0873 191.244 66.5939C192.925 66.0643 194.72 65.7661 196.538 65.6702C197.151 65.6371 197.769 65.628 198.388 65.6406C199.015 65.6541 199.641 65.6888 200.259 65.746C200.33 65.752 200.391 65.7831 200.433 65.8288C200.474 65.874 200.496 65.9332 200.489 65.9955L200.486 66.011C200.458 66.2259 199.829 70.8333 197.238 74.9717C194.617 79.1574 190 82.8652 181.989 81.1087C181.933 81.0966 181.885 81.0675 181.85 81.0299C181.817 80.9912 181.798 80.945 181.796 80.8958H181.795Z" fill="#81D3B3"/>
<path d="M181.795 80.8958C181.795 80.8958 191.35 70.6369 200.433 65.8288" stroke="#D8F1E5" stroke-width="14.173" stroke-miterlimit="2.6131" stroke-linecap="round" stroke-linejoin="round"/>
<path d="M183.597 72.2719C183.597 72.2719 184.195 77.564 184.315 78.3441L193.292 79.2733" stroke="#D8F1E5" stroke-width="14.173" stroke-miterlimit="2.6131" stroke-linecap="round" stroke-linejoin="round"/>
<path d="M187.745 68.1606C187.924 69.7293 188.385 73.7523 188.494 74.4657L196.996 75.3462" stroke="#D8F1E5" stroke-width="14.173" stroke-miterlimit="2.6131" stroke-linecap="round" stroke-linejoin="round"/>
<path d="M192.319 66.2896C192.526 68.0858 192.787 70.3242 192.868 70.8392L198.989 71.4733" stroke="#D8F1E5" stroke-width="14.173" stroke-miterlimit="2.6131" stroke-linecap="round" stroke-linejoin="round"/>
<path d="M196.504 65.6717C196.632 66.76 196.747 67.6968 196.795 68.008L200.007 68.3403" stroke="#D8F1E5" stroke-width="14.173" stroke-miterlimit="2.6131" stroke-linecap="round" stroke-linejoin="round"/>
<path fill-rule="evenodd" clip-rule="evenodd" d="M89.2753 175.677C89.3362 174.749 89.3576 173.849 89.3407 172.976C89.3232 172.091 89.2651 171.236 89.1698 170.414C88.8139 167.338 87.9324 164.692 86.6442 162.437C85.2506 159.997 83.3815 158.018 81.187 156.451C79.1543 154.999 76.8436 153.903 74.3755 153.125C71.727 152.289 68.8963 151.821 66.0306 151.669C65.0628 151.618 64.0882 151.604 63.1119 151.623C62.1238 151.642 61.1379 151.698 60.1599 151.788V151.788C60.0494 151.798 59.9535 151.846 59.8881 151.918C59.8227 151.99 59.7877 152.082 59.799 152.181L59.8029 152.206C59.848 152.545 60.8412 159.811 64.9257 166.335C69.0576 172.936 76.3383 178.781 88.9685 176.012C89.0587 175.993 89.1337 175.947 89.1879 175.886C89.2403 175.828 89.2719 175.754 89.2747 175.677H89.2753Z" fill="#81D3B3"/>
<path d="M89.2749 175.677C89.2749 175.677 74.2099 159.5 59.8877 151.918" stroke="#D8F1E5" stroke-width="14.173" stroke-miterlimit="2.6131" stroke-linecap="round" stroke-linejoin="round"/>
<path d="M86.4337 162.079C86.4337 162.079 85.4907 170.422 85.3012 171.653L71.1465 173.118" stroke="#D8F1E5" stroke-width="14.173" stroke-miterlimit="2.6131" stroke-linecap="round" stroke-linejoin="round"/>
<path d="M79.8918 155.595C79.6104 158.07 78.8845 164.413 78.7114 165.538L65.3057 166.926" stroke="#D8F1E5" stroke-width="14.173" stroke-miterlimit="2.6131" stroke-linecap="round" stroke-linejoin="round"/>
<path d="M72.6805 152.646C72.354 155.478 71.9417 159.007 71.8159 159.819L62.1631 160.819" stroke="#D8F1E5" stroke-width="14.173" stroke-miterlimit="2.6131" stroke-linecap="round" stroke-linejoin="round"/>
<path d="M66.0818 151.672C65.8788 153.388 65.6994 154.865 65.6239 155.355L60.5586 155.879" stroke="#D8F1E5" stroke-width="14.173" stroke-miterlimit="2.6131" stroke-linecap="round" stroke-linejoin="round"/>
<path fill-rule="evenodd" clip-rule="evenodd" d="M139.294 38.6394C146.434 38.6394 152.258 33.4568 152.258 27.1019C152.258 20.7466 146.434 15.563 139.294 15.563C132.154 15.563 126.331 20.7466 126.331 27.1019C126.331 33.4568 132.154 38.6394 139.294 38.6394Z" fill="#4D92D5"/>
<path fill-rule="evenodd" clip-rule="evenodd" d="M144.228 26.1276C144.399 26.3631 144.55 26.6095 144.677 26.8655C144.68 26.8716 144.684 26.8786 144.687 26.8856C145.012 27.5462 145.178 28.2581 145.178 28.9795C145.178 31.8705 142.543 34.2153 139.294 34.2153C136.046 34.2153 133.413 31.8705 133.413 28.9795C133.413 28.2581 133.581 27.5493 133.903 26.8871L133.904 26.8831C134.032 26.6206 134.185 26.3676 134.362 26.1276L138.762 18.9108C138.87 18.7321 139.067 18.6277 139.294 18.6277C139.523 18.6277 139.719 18.7321 139.827 18.9108L144.228 26.1276Z" fill="white"/>
<path fill-rule="evenodd" clip-rule="evenodd" d="M236.147 122.271C236.267 122.332 236.42 122.295 236.489 122.189C236.557 122.082 236.516 121.946 236.397 121.886L235.559 121.455C235.439 121.394 235.287 121.43 235.217 121.537C235.149 121.643 235.19 121.779 235.31 121.84L236.147 122.271ZM235.769 127.399C235.908 127.399 236.021 127.299 236.021 127.176C236.021 127.053 235.908 126.952 235.769 126.952H234.803C234.664 126.952 234.552 127.053 234.552 127.176C234.552 127.299 234.664 127.399 234.803 127.399H235.769ZM238.226 132.058C238.346 131.996 238.387 131.86 238.318 131.754C238.25 131.647 238.097 131.611 237.977 131.672L237.14 132.101C237.019 132.163 236.978 132.299 237.047 132.407C237.117 132.512 237.269 132.548 237.388 132.488L238.226 132.058ZM254.406 131.672C254.287 131.611 254.134 131.647 254.066 131.754C253.998 131.86 254.039 131.996 254.158 132.058L254.994 132.488C255.115 132.548 255.269 132.512 255.336 132.407C255.405 132.299 255.363 132.163 255.245 132.101L254.406 131.672ZM256.614 126.952C256.475 126.952 256.363 127.053 256.363 127.176C256.363 127.299 256.475 127.399 256.614 127.399H257.581C257.719 127.399 257.831 127.299 257.831 127.176C257.831 127.053 257.719 126.952 257.581 126.952H256.614ZM255.988 121.886C255.868 121.946 255.827 122.082 255.895 122.189C255.964 122.295 256.116 122.332 256.235 122.271L257.074 121.84C257.194 121.779 257.235 121.643 257.166 121.537C257.098 121.43 256.945 121.394 256.825 121.455L255.988 121.886ZM251.702 118.236C251.634 118.342 251.675 118.479 251.795 118.539C251.914 118.6 252.067 118.563 252.136 118.457L252.619 117.711C252.687 117.605 252.647 117.469 252.527 117.408C252.407 117.347 252.256 117.384 252.187 117.49L251.702 118.236ZM245.941 116.981C245.941 117.104 246.054 117.203 246.192 117.203C246.33 117.203 246.443 117.104 246.443 116.981V116.119C246.443 115.997 246.33 115.896 246.192 115.896C246.054 115.896 245.941 115.997 245.941 116.119V116.981ZM240.248 118.457C240.317 118.563 240.469 118.6 240.589 118.539C240.708 118.479 240.75 118.342 240.681 118.236L240.197 117.49C240.129 117.384 239.976 117.347 239.856 117.408C239.737 117.469 239.696 117.605 239.765 117.711L240.248 118.457Z" fill="#507FA7"/>
<path fill-rule="evenodd" clip-rule="evenodd" d="M245.34 134.983H247.046C247.58 134.983 248.016 135.372 248.016 135.848V138.061C248.016 138.537 247.58 138.926 247.046 138.926H245.34C244.805 138.926 244.367 138.537 244.367 138.061V135.848C244.367 135.372 244.805 134.983 245.34 134.983Z" fill="#507FA7"/>
<path fill-rule="evenodd" clip-rule="evenodd" d="M247.714 136.468H244.67V134.253C244.67 133.949 244.95 133.7 245.291 133.7H247.092C247.435 133.7 247.714 133.949 247.714 134.253V136.468Z" fill="#090D14"/>
<path fill-rule="evenodd" clip-rule="evenodd" d="M246.191 117.845C243.769 117.845 241.575 118.718 239.989 120.132C238.401 121.543 237.42 123.496 237.42 125.653C237.419 126.997 237.802 128.264 238.475 129.368C239.165 130.502 240.164 131.468 241.372 132.176L241.405 132.198C241.971 132.522 242.341 132.87 242.584 133.193C242.957 133.689 243.026 134.116 243.036 134.296C243.031 134.553 243.035 134.814 243.035 135.072C243.035 135.466 243.219 135.824 243.512 136.086C243.803 136.345 244.207 136.506 244.649 136.506H247.733C248.176 136.506 248.58 136.345 248.872 136.086C249.165 135.824 249.347 135.466 249.347 135.072V134.31C249.354 134.14 249.416 133.703 249.799 133.193C250.041 132.87 250.412 132.522 250.977 132.198L250.999 132.183C252.203 131.478 253.202 130.519 253.896 129.387L253.908 129.368C254.582 128.264 254.964 126.997 254.964 125.653H254.963C254.963 123.496 253.982 121.543 252.395 120.132C250.808 118.718 248.614 117.845 246.191 117.845Z" fill="white"/>
<path fill-rule="evenodd" clip-rule="evenodd" d="M244.325 136.098H248.059C248.337 136.098 248.567 136.303 248.567 136.552C248.567 136.8 248.337 137.004 248.059 137.004H244.325C244.045 137.004 243.816 136.8 243.816 136.552C243.816 136.303 244.045 136.098 244.325 136.098Z" fill="#507FA7"/>
<path fill-rule="evenodd" clip-rule="evenodd" d="M244.241 137.34H248.144C248.313 137.34 248.454 137.464 248.454 137.616C248.454 137.768 248.313 137.893 248.144 137.893H244.241C244.07 137.893 243.929 137.768 243.929 137.616C243.929 137.464 244.07 137.34 244.241 137.34Z" fill="#507FA7"/>
<path fill-rule="evenodd" clip-rule="evenodd" d="M244.377 131.566C244.358 131.286 244.352 131.016 244.357 130.753C244.362 130.486 244.38 130.229 244.408 129.982C244.516 129.055 244.781 128.259 245.169 127.579C245.588 126.845 246.152 126.249 246.813 125.777C247.424 125.34 248.12 125.009 248.863 124.775C249.66 124.523 250.514 124.382 251.376 124.336C251.668 124.321 251.961 124.317 252.256 124.323C252.553 124.329 252.85 124.345 253.144 124.372C253.178 124.376 253.207 124.39 253.225 124.412C253.247 124.433 253.256 124.461 253.252 124.491L253.252 124.498C253.238 124.6 252.939 126.788 251.71 128.753C250.466 130.74 248.272 132.5 244.469 131.667C244.442 131.66 244.418 131.648 244.403 131.629C244.387 131.612 244.378 131.59 244.377 131.566Z" fill="#81D3B3"/>
<path fill-rule="evenodd" clip-rule="evenodd" d="M246.228 125.628C246.023 125.433 245.804 125.253 245.573 125.088C244.962 124.651 244.266 124.321 243.523 124.086C242.725 123.834 241.872 123.693 241.009 123.647C240.718 123.632 240.425 123.628 240.13 123.634C239.833 123.64 239.535 123.657 239.241 123.683C239.208 123.687 239.179 123.701 239.16 123.723C239.14 123.744 239.129 123.773 239.133 123.802L239.134 123.81C239.148 123.912 239.446 126.1 240.676 128.065C241.378 129.186 242.383 130.234 243.806 130.786C243.806 130.718 243.806 130.648 243.809 130.581C243.814 130.315 243.831 130.057 243.86 129.809C243.967 128.882 244.232 128.085 244.62 127.407C245.032 126.686 245.583 126.097 246.228 125.628Z" fill="#81D3B3"/>
<path fill-rule="evenodd" clip-rule="evenodd" d="M34.079 144.034C44.325 144.034 52.6819 136.596 52.6819 127.476C52.6819 118.357 44.325 110.919 34.079 110.919C23.8325 110.919 15.4756 118.357 15.4756 127.476C15.4756 136.596 23.8325 144.034 34.079 144.034Z" fill="#81D3B3"/>
<path fill-rule="evenodd" clip-rule="evenodd" d="M28.5744 119.738H39.5825C40.6233 119.738 41.4746 120.496 41.4746 121.422V133.53C41.4746 134.458 40.6233 135.215 39.5825 135.215H28.5744C27.5336 135.215 26.6826 134.458 26.6826 133.53V121.422C26.6826 120.496 27.5336 119.738 28.5744 119.738Z" fill="white"/>
<path fill-rule="evenodd" clip-rule="evenodd" d="M27.8666 119.738H40.2904C40.7582 119.738 41.14 119.398 41.14 118.982C41.14 118.566 40.7582 118.226 40.2904 118.226H27.8666C27.3996 118.226 27.0166 118.566 27.0166 118.982C27.0166 119.398 27.3996 119.738 27.8666 119.738Z" fill="#507FA7"/>
<path fill-rule="evenodd" clip-rule="evenodd" d="M28.591 115.424H39.566C40.4317 115.424 41.14 116.054 41.14 116.824V116.825C41.14 117.596 40.4317 118.226 39.566 118.226H28.591C27.7252 118.226 27.0166 117.596 27.0166 116.825V116.824C27.0166 116.054 27.7252 115.424 28.591 115.424Z" fill="white"/>
<path fill-rule="evenodd" clip-rule="evenodd" d="M27.8666 135.215H40.2904C40.7582 135.215 41.14 135.554 41.14 135.971C41.14 136.387 40.7582 136.727 40.2904 136.727H27.8666C27.3996 136.727 27.0166 136.387 27.0166 135.971C27.0166 135.554 27.3996 135.215 27.8666 135.215Z" fill="#507FA7"/>
<path fill-rule="evenodd" clip-rule="evenodd" d="M28.591 139.529H39.566C40.4317 139.529 41.14 138.898 41.14 138.128C41.14 137.358 40.4317 136.727 39.566 136.727H28.591C27.7252 136.727 27.0166 137.358 27.0166 138.128C27.0166 138.898 27.7252 139.529 28.591 139.529Z" fill="white"/>
<path fill-rule="evenodd" clip-rule="evenodd" d="M34.0785 132.159C36.9758 132.159 39.3387 130.055 39.3387 127.476C39.3387 124.898 36.9758 122.794 34.0785 122.794C31.1812 122.794 28.8184 124.898 28.8184 127.476C28.8184 130.055 31.1812 132.159 34.0785 132.159Z" fill="#F5C108"/>
<path fill-rule="evenodd" clip-rule="evenodd" d="M31.1891 128.054C31.448 128.054 31.6591 127.865 31.6591 127.635C31.6591 127.405 31.448 127.216 31.1891 127.216C30.93 127.216 30.7188 127.405 30.7188 127.635C30.7188 127.865 30.93 128.054 31.1891 128.054Z" fill="#8C4371"/>
<path fill-rule="evenodd" clip-rule="evenodd" d="M32.8341 130.067C33.093 130.067 33.3038 129.879 33.3038 129.648C33.3038 129.418 33.093 129.23 32.8341 129.23C32.5748 129.23 32.3633 129.418 32.3633 129.648C32.3633 129.879 32.5748 130.067 32.8341 130.067Z" fill="#8C4371"/>
<path fill-rule="evenodd" clip-rule="evenodd" d="M34.9194 126.798C35.1782 126.798 35.3893 126.61 35.3893 126.38C35.3893 126.15 35.1782 125.961 34.9194 125.961C34.6603 125.961 34.4492 126.15 34.4492 126.38C34.4492 126.61 34.6603 126.798 34.9194 126.798Z" fill="#8C4371"/>
<path fill-rule="evenodd" clip-rule="evenodd" d="M37.3871 127.373C37.6462 127.373 37.8573 127.185 37.8573 126.955C37.8573 126.725 37.6462 126.536 37.3871 126.536C37.1283 126.536 36.917 126.725 36.917 126.955C36.917 127.185 37.1283 127.373 37.3871 127.373Z" fill="#8C4371"/>
<path fill-rule="evenodd" clip-rule="evenodd" d="M36.3298 130.145C36.5882 130.145 36.7994 129.958 36.7994 129.727C36.7994 129.496 36.5882 129.309 36.3298 129.309C36.0707 129.309 35.8594 129.496 35.8594 129.727C35.8594 129.958 36.0707 130.145 36.3298 130.145Z" fill="#8C4371"/>
<path fill-rule="evenodd" clip-rule="evenodd" d="M32.3041 126.667C32.563 126.667 32.7745 126.479 32.7745 126.249C32.7745 126.019 32.563 125.83 32.3041 125.83C32.0455 125.83 31.834 126.019 31.834 126.249C31.834 126.479 32.0455 126.667 32.3041 126.667Z" fill="#8C4371"/>
<path fill-rule="evenodd" clip-rule="evenodd" d="M34.4195 129.204C34.6784 129.204 34.8899 129.016 34.8899 128.786C34.8899 128.555 34.6784 128.367 34.4195 128.367C34.1605 128.367 33.9492 128.555 33.9492 128.786C33.9492 129.016 34.1605 129.204 34.4195 129.204Z" fill="#8C4371"/>
<path fill-rule="evenodd" clip-rule="evenodd" d="M35.5957 125.49C35.8545 125.49 36.0658 125.303 36.0658 125.073C36.0658 124.842 35.8545 124.654 35.5957 124.654C35.337 124.654 35.126 124.842 35.126 125.073C35.126 125.303 35.337 125.49 35.5957 125.49Z" fill="#8C4371"/>
<path fill-rule="evenodd" clip-rule="evenodd" d="M33.6266 124.523C33.8851 124.523 34.0966 124.335 34.0966 124.105C34.0966 123.875 33.8851 123.687 33.6266 123.687C33.3678 123.687 33.1562 123.875 33.1562 124.105C33.1562 124.335 33.3678 124.523 33.6266 124.523Z" fill="#8C4371"/>
<path fill-rule="evenodd" clip-rule="evenodd" d="M33.3623 128.054C33.6218 128.054 33.8327 127.865 33.8327 127.635C33.8327 127.405 33.6218 127.216 33.3623 127.216C33.1036 127.216 32.8926 127.405 32.8926 127.635C32.8926 127.865 33.1036 128.054 33.3623 128.054Z" fill="#8C4371"/>
<path fill-rule="evenodd" clip-rule="evenodd" d="M30.6004 125.988C30.8593 125.988 31.0708 125.799 31.0708 125.569C31.0708 125.339 30.8593 125.151 30.6004 125.151C30.342 125.151 30.1299 125.339 30.1299 125.569C30.1299 125.799 30.342 125.988 30.6004 125.988Z" fill="#8C4371"/>
<path fill-rule="evenodd" clip-rule="evenodd" d="M30.6601 130.067C30.9187 130.067 31.13 129.879 31.13 129.648C31.13 129.418 30.9187 129.23 30.6601 129.23C30.401 129.23 30.1895 129.418 30.1895 129.648C30.1895 129.879 30.401 130.067 30.6601 130.067Z" fill="#8C4371"/>
<path fill-rule="evenodd" clip-rule="evenodd" d="M33.9499 131.61C34.2083 131.61 34.4193 131.422 34.4193 131.191C34.4193 130.961 34.2083 130.773 33.9499 130.773C33.6905 130.773 33.4795 130.961 33.4795 131.191C33.4795 131.422 33.6905 131.61 33.9499 131.61Z" fill="#8C4371"/>
<path fill-rule="evenodd" clip-rule="evenodd" d="M35.8891 128.263C36.148 128.263 36.3588 128.075 36.3588 127.844C36.3588 127.613 36.148 127.426 35.8891 127.426C35.6302 127.426 35.4189 127.613 35.4189 127.844C35.4189 128.075 35.6302 128.263 35.8891 128.263Z" fill="#8C4371"/>
<path fill-rule="evenodd" clip-rule="evenodd" d="M38.2392 129.046C38.4983 129.046 38.7098 128.859 38.7098 128.628C38.7098 128.398 38.4983 128.209 38.2392 128.209C37.9804 128.209 37.7695 128.398 37.7695 128.628C37.7695 128.859 37.9804 129.046 38.2392 129.046Z" fill="#8C4371"/>
<path fill-rule="evenodd" clip-rule="evenodd" d="M37.5637 125.621C37.8225 125.621 38.0336 125.434 38.0336 125.203C38.0336 124.973 37.8225 124.785 37.5637 124.785C37.3048 124.785 37.0938 124.973 37.0938 125.203C37.0938 125.434 37.3048 125.621 37.5637 125.621Z" fill="#8C4371"/>
</svg>
