<svg width="508" height="508" viewBox="0 0 508 508" fill="none" xmlns="http://www.w3.org/2000/svg">
<g filter="url(#filter0_d)">
<g clip-path="url(#clip0)">
<path d="M344.108 309.759C616.734 474.364 528.13 535.7 174.054 479.836C81.5392 465.24 4 403.69 4 309.759C4 215.828 80.1358 139.682 174.054 139.682C267.972 139.682 257.595 257.524 344.108 309.759Z" fill="#4B4F51"/>
<path opacity="0.1" d="M368.483 470.118C427.964 470.118 476.183 466.225 476.183 461.422C476.183 456.62 427.964 452.726 368.483 452.726C309.001 452.726 260.782 456.62 260.782 461.422C260.782 466.225 309.001 470.118 368.483 470.118Z" fill="black"/>
<path opacity="0.1" d="M156.072 183.494C187.599 183.494 213.157 179.6 213.157 174.798C213.157 169.995 187.599 166.102 156.072 166.102C124.546 166.102 98.9881 169.995 98.9881 174.798C98.9881 179.6 124.546 183.494 156.072 183.494Z" fill="black"/>
<path opacity="0.1" d="M153.081 196.205C128.588 196.2 104.593 202.449 83.8679 214.228C63.1431 226.007 46.5339 242.837 35.9589 262.773C48.1149 250.654 62.9532 240.972 79.5149 234.351C96.0766 227.731 113.993 224.32 132.107 224.338C203.797 224.338 261.915 276.783 261.915 341.474C261.945 358.975 257.609 376.258 249.229 392.042C270.931 370.513 282.935 342.444 282.889 313.341C282.889 248.65 224.77 196.205 153.081 196.205Z" fill="black"/>
<path opacity="0.3" d="M261.915 340.962C261.945 358.464 257.609 375.747 249.229 391.53C237.073 403.649 222.235 413.331 205.673 419.951C189.112 426.572 171.195 429.983 153.081 429.965C81.3916 429.965 23.2728 377.52 23.2728 312.829C23.2435 295.328 27.5793 278.045 35.9589 262.261C48.1149 250.143 62.9531 240.46 79.5149 233.84C96.0766 227.219 113.993 223.808 132.107 223.826C203.797 223.826 261.915 276.271 261.915 340.962Z" fill="#1DB776"/>
<path d="M153.081 430.541C81.1526 430.541 22.6348 377.736 22.6348 312.829C22.5825 295.239 26.9409 277.867 35.3836 262.012C46.0107 241.979 62.7015 225.066 83.5281 213.229C104.355 201.392 128.467 195.113 153.081 195.117C225.009 195.117 283.527 247.923 283.527 312.829C283.528 328.288 280.154 343.595 273.599 357.877C267.044 372.159 257.436 385.135 245.322 396.066C233.209 406.997 218.828 415.667 203.001 421.583C187.175 427.498 170.211 430.542 153.081 430.541V430.541ZM153.081 196.269C103.657 196.269 57.9095 222.27 36.534 262.51C28.174 278.209 23.8584 295.412 23.9104 312.829C23.9104 377.101 81.8559 429.39 153.081 429.39C170.044 429.391 186.841 426.376 202.513 420.519C218.186 414.662 232.426 406.076 244.42 395.252C256.415 384.428 265.93 371.579 272.421 357.436C278.912 343.294 282.252 328.137 282.251 312.829C282.251 248.557 224.305 196.269 153.081 196.269V196.269Z" fill="white"/>
<path d="M450.059 432.028C440.631 443.154 441.709 458.191 441.709 458.191C441.709 458.191 458.073 455.189 467.501 444.063C476.929 432.936 475.85 417.899 475.85 417.899C475.85 417.899 459.487 420.902 450.059 432.028Z" fill="#F5C108"/>
<path d="M456.237 434.527C454.408 448.435 442.023 458.543 442.023 458.543C442.023 458.543 432.604 446.1 434.434 432.191C436.263 418.283 448.648 408.175 448.648 408.175C448.648 408.175 458.067 420.618 456.237 434.527Z" fill="#1DB776"/>
<path d="M114.232 108.716C143.814 108.716 167.795 87.0756 167.795 60.3813C167.795 33.6871 143.814 12.0471 114.232 12.0471C84.65 12.0471 60.6689 33.6871 60.6689 60.3813C60.6689 87.0756 84.65 108.716 114.232 108.716Z" fill="#F5C108"/>
<path d="M230.361 109.661C230.387 157.941 198.589 174.81 159.357 174.827C158.446 174.828 157.539 174.819 156.637 174.801C154.818 174.766 153.019 174.692 151.239 174.579C115.829 172.332 88.3076 154.623 88.2835 109.724C88.2584 63.2577 154.038 4.58985 158.971 0.251919C158.975 0.251919 158.976 0.251918 158.98 0.247975C159.167 0.0826485 159.263 0 159.263 0C159.263 0 230.335 61.3856 230.361 109.661Z" fill="#1DB776"/>
<path d="M156.768 167.444L182.732 134.674L156.704 171.04L156.637 174.801C154.818 174.766 153.019 174.692 151.239 174.579L154.012 126.279L153.99 125.905L154.038 125.834L154.301 121.27L128.169 84.8366L154.378 117.851L154.444 118.819L156.539 82.3258L134.164 44.6751L156.81 75.9126L158.971 0.252158L158.98 0.000366211L158.98 0.248215L158.646 59.9143L180.882 36.2506L158.553 65.0527L157.982 97.7285L178.749 66.3619L157.901 102.533L157.584 120.702L187.724 77.04L157.47 127.04L156.768 167.444Z" fill="#4B4F51"/>
<path d="M369.439 137.323C362.631 126.942 349.161 126.458 349.161 126.458C349.161 126.458 336.035 124.943 327.615 140.754C319.767 155.49 308.936 169.719 325.871 173.169L328.93 164.577L330.825 173.808C333.236 173.965 335.655 174.002 338.071 173.92C356.208 173.392 373.481 174.075 372.924 168.202C372.185 160.395 375.99 147.311 369.439 137.323Z" fill="#2F2E41"/>
<path d="M339.402 234.734L341.154 250.538L381.726 246.587L382.602 234.734H339.402Z" fill="#FFB9B9"/>
<path d="M335.024 243.426L333.856 252.645C333.856 252.645 320.429 269.502 321.597 298.476C322.765 327.45 303.208 456.25 317.219 457.304C331.229 458.357 356.332 459.938 357.499 455.987C358.667 452.036 361.002 302.163 361.002 302.163C361.002 302.163 367.132 456.174 377.64 456.701C388.148 457.227 423.467 458.281 423.467 454.33C423.467 450.379 392.526 273.98 392.526 273.98L387.564 259.23L382.602 241.056C382.602 241.056 351.662 245.797 343.197 243.953C334.732 242.109 335.024 243.426 335.024 243.426Z" fill="#2F2E41"/>
<path d="M349.035 170.465C359.352 170.465 367.716 162.918 367.716 153.608C367.716 144.298 359.352 136.751 349.035 136.751C338.717 136.751 330.354 144.298 330.354 153.608C330.354 162.918 338.717 170.465 349.035 170.465Z" fill="#FFB9B9"/>
<path d="M381.726 181.528L378.18 186.185L375.909 189.164L372.094 194.171L353.121 195.488C353.121 195.488 348.512 194.145 343.194 192.182C341.229 191.455 339.166 190.644 337.204 189.783C329.595 186.448 323.488 182.379 330.354 179.684C331.573 179.212 332.744 178.644 333.853 177.988C334.863 177.393 335.803 176.706 336.658 175.939C338.417 174.349 339.719 172.395 340.452 170.248C341.184 168.101 341.325 165.825 340.862 163.617L359.251 161.247C358.717 165.456 363.355 170.047 368.553 173.795C370.261 175.03 372.033 176.171 373.699 177.177C378.069 179.816 381.726 181.528 381.726 181.528Z" fill="#FFB9B9"/>
<path d="M356.624 186.533C356.624 186.533 338.673 183.767 334.586 177.972C334.586 177.972 316.927 179.948 318.386 188.376C319.846 196.805 334.44 242.899 334.44 242.899C334.44 242.899 370.926 236.578 384.353 241.319L392.526 182.582C392.526 182.582 389.607 176.787 384.062 178.367C378.516 179.948 376.326 178.499 376.326 178.499C376.326 178.499 370.051 186.533 356.624 186.533Z" fill="#F5C108"/>
<path d="M372.97 278.985C372.97 278.985 385.521 291.628 378.516 293.735C371.51 295.842 363.045 285.306 363.045 285.306L372.97 278.985Z" fill="#FFB9B9"/>
<path d="M377.056 280.038C377.056 280.038 366.84 286.36 370.635 290.574C374.429 294.788 387.564 286.886 387.564 285.306C387.564 283.726 377.056 280.038 377.056 280.038Z" fill="#FFB9B9"/>
<path d="M351.954 245.797L343.489 247.114L337.943 209.975C338.263 203.237 338.016 196.487 337.204 189.783C336.586 185.305 335.552 181.001 333.853 177.988C334.863 177.392 335.803 176.706 336.658 175.939C338.69 178.844 342.397 184.997 343.194 192.182C343.402 193.982 343.403 195.796 343.197 197.595C341.737 209.975 342.029 212.345 342.029 212.345L351.954 245.797Z" fill="#2F2E41"/>
<path d="M332.397 180.211C332.397 180.211 318.678 176.787 317.51 184.162C316.343 191.537 317.802 210.502 321.013 217.613C324.224 224.725 335.316 247.904 335.316 247.904C335.316 247.904 355.456 271.083 356.332 276.614C357.208 282.145 361.586 287.94 361.586 287.94L375.597 279.775L348.159 237.895L336.191 208.921C336.191 208.921 341.154 182.582 332.397 180.211Z" fill="#F5C108"/>
<path d="M386.105 181.265L392.526 182.582C392.526 182.582 398.364 205.234 396.029 217.35C393.694 229.466 393.402 233.68 393.402 233.68L391.359 268.185C391.359 268.185 391.943 290.311 387.856 286.886C383.77 283.462 375.597 281.882 375.597 281.882C375.597 281.882 376.472 272.136 379.683 269.766C379.683 269.766 383.478 251.591 381.143 243.69C378.807 235.788 386.105 181.265 386.105 181.265Z" fill="#F5C108"/>
<path d="M388.44 206.814L380.997 245.665L376.472 243.953L384.353 206.814L375.909 189.164L368.553 173.795C370.261 175.03 372.033 176.171 373.699 177.177L378.18 186.185L388.44 206.814Z" fill="#2F2E41"/>
<path d="M366.429 136.322L353.121 130.032L334.744 132.605L330.942 147.759L340.407 147.43L343.051 141.863V147.339L347.418 147.187L349.953 138.323L351.537 147.759L367.063 147.473L366.429 136.322Z" fill="#2F2E41"/>
<path d="M340.14 461.422C345.149 461.422 349.21 460.048 349.21 458.353C349.21 456.658 345.149 455.284 340.14 455.284C335.131 455.284 331.071 456.658 331.071 458.353C331.071 460.048 335.131 461.422 340.14 461.422Z" fill="#2F2E41"/>
<path d="M401.36 461.422C406.369 461.422 410.429 460.048 410.429 458.353C410.429 456.658 406.369 455.284 401.36 455.284C396.351 455.284 392.29 456.658 392.29 458.353C392.29 460.048 396.351 461.422 401.36 461.422Z" fill="#2F2E41"/>
<path d="M172.093 373.414C162.816 378.862 152.125 382.033 141.075 382.613C130.025 383.194 118.998 381.165 109.083 376.726L110.486 374.142C122.438 379.44 135.985 381.058 149.053 378.748C162.121 376.438 173.989 370.328 182.843 361.352C191.696 352.376 197.046 341.03 198.073 329.049C199.101 317.069 195.749 305.115 188.532 295.017C181.314 284.919 170.629 277.233 158.11 273.136C145.592 269.04 131.931 268.758 119.218 272.333C106.505 275.909 95.4409 283.146 87.7191 292.935C79.9974 302.725 76.0435 314.528 76.4626 326.539L73.2749 326.627C72.9218 316.521 75.51 306.509 80.7816 297.587C86.0532 288.666 93.8241 281.147 103.32 275.78C112.815 270.414 123.703 267.386 134.9 267C146.096 266.615 157.208 268.883 167.13 273.581C177.051 278.278 185.435 285.24 191.445 293.773C197.456 302.306 200.883 312.111 201.385 322.211C201.887 332.311 199.447 342.354 194.307 351.338C189.168 360.322 181.509 367.934 172.093 373.414V373.414Z" fill="white"/>
<path d="M154.081 335.52C154.081 337.397 153.633 339.147 152.737 340.768C151.841 342.389 150.583 343.776 148.961 344.928C147.383 346.08 145.484 346.997 143.265 347.68C141.089 348.32 138.7 348.64 136.097 348.64C132.641 348.64 129.356 348.021 126.241 346.784C123.127 345.547 120.524 343.84 118.433 341.664L124.321 336.224C126.113 338.016 127.884 339.275 129.633 340C131.383 340.725 133.516 341.088 136.033 341.088C138.764 341.088 140.983 340.512 142.689 339.36C144.396 338.208 145.249 336.715 145.249 334.88C145.249 333.216 144.46 331.893 142.881 330.912C141.345 329.931 139.297 329.44 136.737 329.44H132.641V322.464H135.841C138.145 322.464 140.065 321.845 141.601 320.608C143.137 319.371 143.905 317.813 143.905 315.936C143.905 314.272 143.137 312.885 141.601 311.776C140.108 310.667 138.209 310.112 135.905 310.112C133.729 310.112 131.809 310.517 130.145 311.328C128.481 312.096 126.689 313.44 124.769 315.36L118.817 309.92C120.993 307.616 123.617 305.803 126.689 304.48C129.761 303.157 132.94 302.496 136.225 302.496C138.615 302.496 140.812 302.816 142.817 303.456C144.865 304.053 146.615 304.907 148.065 306.016C149.516 307.125 150.647 308.448 151.457 309.984C152.268 311.52 152.673 313.205 152.673 315.04C152.673 317.259 152.076 319.285 150.881 321.12C149.687 322.912 148.065 324.341 146.017 325.408C148.449 326.261 150.391 327.584 151.841 329.376C153.335 331.168 154.081 333.216 154.081 335.52Z" fill="white"/>
</g>
</g>
<defs>
<filter id="filter0_d" x="0" y="0" width="508" height="508" filterUnits="userSpaceOnUse" color-interpolation-filters="sRGB">
<feFlood flood-opacity="0" result="BackgroundImageFix"/>
<feColorMatrix in="SourceAlpha" type="matrix" values="0 0 0 0 0 0 0 0 0 0 0 0 0 0 0 0 0 0 127 0"/>
<feOffset dy="4"/>
<feGaussianBlur stdDeviation="2"/>
<feColorMatrix type="matrix" values="0 0 0 0 0 0 0 0 0 0 0 0 0 0 0 0 0 0 0.25 0"/>
<feBlend mode="normal" in2="BackgroundImageFix" result="effect1_dropShadow"/>
<feBlend mode="normal" in="SourceGraphic" in2="effect1_dropShadow" result="shape"/>
</filter>
<clipPath id="clip0">
<rect x="4" width="500" height="500" fill="white"/>
</clipPath>
</defs>
</svg>
