<svg fill="none" height="300" viewBox="0 0 496 300" width="496" xmlns="http://www.w3.org/2000/svg" xmlns:xlink="http://www.w3.org/1999/xlink"><clipPath id="a"><path d="m0 0h495.161v300h-495.161z"/></clipPath><g clip-path="url(#a)"><path d="m40.9925 65.0865c14.093 0 25.5177-11.4247 25.5177-25.5177s-11.4247-25.5177-25.5177-25.5177-25.5176 11.4247-25.5176 25.5177 11.4246 25.5177 25.5176 25.5177z" fill="#f5c108"/><path d="m246.303 300c136.029 0 246.302-4.471 246.302-9.985 0-5.515-110.273-9.985-246.302-9.985-136.03 0-246.303 4.47-246.303 9.985 0 5.514 110.273 9.985 246.303 9.985z" fill="#e6e6e6"/><path d="m62.6847 164.877c34.6198 0 62.6843-28.065 62.6843-62.685 0-34.6194-28.0645-62.6843-62.6843-62.6843s-62.6847 28.0649-62.6847 62.6843c0 34.62 28.0649 62.685 62.6847 62.685z" fill="#1db776"/><path d="m68.7268 291.002h-12.8392l5.8529-198.2503z" fill="#4b4f51"/><path d="m62.8733 130.325 13.7834-19.07-13.972 23.79-1.5106-2.643z" fill="#4b4f51"/><path d="m61.3628 149.583-13.7829-19.069 13.972 23.79 1.5106-2.644z" fill="#4b4f51"/><path d="m459.043 291.21h-12.838l5.853-198.2497z" fill="#4b4f51"/><path d="m453.19 130.533 13.784-19.069-13.972 23.79-1.511-2.644z" fill="#4b4f51"/><path d="m451.68 149.792-13.783-19.069 13.972 23.789 1.51-2.643z" fill="#4b4f51"/><path d="m254.653 291.177c64.492 0 116.773-52.281 116.773-116.773s-52.281-116.7731-116.773-116.7731-116.773 52.2811-116.773 116.7731 52.281 116.773 116.773 116.773z" fill="#4b4f51"/><path d="m254.653 281.51c59.153 0 107.106-47.953 107.106-107.106s-47.953-107.1065-107.106-107.1065c-59.154 0-107.107 47.9535-107.107 107.1065s47.953 107.106 107.107 107.106z" fill="#fff"/><path d="m254.266 189.097c7.901 0 14.307-6.405 14.307-14.306 0-7.902-6.406-14.307-14.307-14.307s-14.307 6.405-14.307 14.307c0 7.901 6.406 14.306 14.307 14.306z" fill="#4b4f51"/><path d="m257.359 72.7109h-6.186v11.5999h6.186z" fill="#4b4f51"/><path d="m257.359 265.27h-6.186v11.6h6.186z" fill="#4b4f51"/><path d="m163.786 177.884v-6.187h-11.6v6.187z" fill="#4b4f51"/><path d="m356.346 177.884v-6.187h-11.6v6.187z" fill="#4b4f51"/><path d="m250.142 181.001 5.287-12.089 66.249 36.691z" fill="#4b4f51"/><path d="m269.733 29.4043h-30.16v34.7999h30.16z" fill="#4b4f51"/><path d="m254.653 39.071c19.219 0 34.8-4.3279 34.8-9.6667 0-5.3387-15.581-9.6666-34.8-9.6666-19.22 0-34.8 4.3279-34.8 9.6666 0 5.3388 15.58 9.6667 34.8 9.6667z" fill="#4b4f51"/><path d="m319.806 195.091-1.933 2.706s-8.894 10.44-9.281 5.413c-.386-5.026 6.574-8.506 6.574-8.506l3.867-2.32z" fill="#ffb9b9"/><path d="m374.846 204.222 1.619 2.906s5.63 12.506.921 10.704-4.875-9.581-4.875-9.581l-.442-4.488z" fill="#ffb9b9"/><path d="m366.142 152.699c6.502 0 11.773-5.271 11.773-11.774 0-6.502-5.271-11.773-11.773-11.773-6.503 0-11.774 5.271-11.774 11.773 0 6.503 5.271 11.774 11.774 11.774z" fill="#3f3d56"/><path d="m365.046 237.624 1.546 10.053v3.093h8.894v-3.866s.386-6.96-1.16-8.894c-1.547-1.933-9.28-.386-9.28-.386z" fill="#ffb9b9"/><path d="m349.192 237.624 1.547 10.053v3.093h8.893v-3.866s.387-6.96-1.16-8.894c-1.546-1.933-9.28-.386-9.28-.386z" fill="#ffb9b9"/><path d="m355.177 156.87s-3.421 1.802-1.084 5.904c2.336 4.101 16.044 46.529 16.044 46.529l7.908-2.245-6.974-26.833-3.993-16.865z" fill="#1db776"/><path d="m364.852 153.137c4.912 0 8.894-3.981 8.894-8.893s-3.982-8.893-8.894-8.893c-4.911 0-8.893 3.981-8.893 8.893s3.982 8.893 8.893 8.893z" fill="#ffb9b9"/><path d="m368.912 145.597-1.16 18.174-8.12-5.8s2.707-10.827 1.934-11.6z" fill="#ffb9b9"/><path d="m368.912 162.224-8.747-6.478s-4.013-1.642-5.173.291c-1.16 1.934-6.96 30.547-3.866 35.96 0 0 16.626 3.48 20.106 1.547l1.547-10.053s1.933-6.187-1.16-10.054z" fill="#1db776"/><path d="m357.312 156.424s-3.093-2.32-5.8 1.547c-2.706 3.866-35.186 34.413-35.186 34.413l5.413 6.187 21.267-17.787 13.533-10.827z" fill="#1db776"/><path d="m371.426 193.35s-19.14-3.673-21.074-.966l-.386 4.253s-4.254 8.12-1.934 21.267c2.32 13.146.774 21.266.774 21.266s10.44-1.16 18.173 0 8.893 0 8.893 0z" fill="#3f3d56"/><path d="m376.259 249.224-11.213.386 3.866 29s-3.093 12.374.387 13.147c2.419.488 4.879.747 7.347.773 0 0 3.48 3.48 7.346 3.094 2.568-.328 5.056-1.114 7.347-2.32 0 0 .773-2.32-1.933-3.094-2.707-.773-10.054-3.093-11.6-11.213z" fill="#3f3d56"/><path d="m360.406 249.224-11.214.386 3.867 29s-3.093 12.374.387 13.147c2.419.488 4.879.747 7.346.773 0 0 3.48 3.48 7.347 3.094 2.568-.328 5.056-1.114 7.347-2.32 0 0 .773-2.32-1.934-3.094-2.706-.773-10.053-3.093-11.6-11.213z" fill="#3f3d56"/><path d="m370.26 133.406c2.691 0 4.872-2.182 4.872-4.872 0-2.691-2.181-4.872-4.872-4.872s-4.872 2.181-4.872 4.872c0 2.69 2.181 4.872 4.872 4.872z" fill="#3f3d56"/><path d="m376.756 125.895c0-1.205-.446-2.366-1.252-3.261s-1.915-1.459-3.112-1.585c.168-.017.338-.026.507-.026 1.292 0 2.531.513 3.445 1.427.914.913 1.427 2.153 1.427 3.445s-.513 2.531-1.427 3.445c-.914.913-2.153 1.427-3.445 1.427-.169-.001-.339-.009-.507-.027 1.197-.125 2.306-.69 3.112-1.585s1.252-2.056 1.252-3.26z" fill="#3f3d56"/><path d="m364.772 143.301c4.484 0 8.12-2.181 8.12-4.872s-3.636-4.872-8.12-4.872c-4.485 0-8.12 2.181-8.12 4.872s3.635 4.872 8.12 4.872z" fill="#3f3d56"/><g fill="#e6e6e6"><path d="m492.668 23.3826c-.331-5.8641-2.735-11.4199-6.782-15.67671-4.047-4.25683-9.474-6.938038-15.314-7.565581-5.84-.627544-11.713.839371-16.572 4.139201-4.859 3.29982-8.388 8.21809-9.958 13.87789-.3-.0108-.6-.0229-.903-.0229-5.354.001-10.564 1.7356-14.851 4.9444-4.286 3.2087-7.419 7.7191-8.928 12.8564-3.548-1.559-7.513-1.8972-11.274-.9618-3.761.9355-7.105 3.0919-9.51 6.1314h77.309c2.255.0064 4.489-.4424 6.567-1.3195s3.957-2.1644 5.526-3.7849c1.568-1.6206 2.794-3.541 3.603-5.6463.809-2.1052 1.185-4.3521 1.105-6.6061-.005-.1216-.011-.2435-.018-.3655z"/><path d="m428.039 75.5422c3.676 0 6.656-2.9803 6.656-6.6567 0-3.6765-2.98-6.6568-6.656-6.6568-3.677 0-6.657 2.9803-6.657 6.6568 0 3.6764 2.98 6.6567 6.657 6.6567z"/><path d="m448.138 58.7336c3.062 0 5.543-2.4816 5.543-5.5428s-2.481-5.5428-5.543-5.5428c-3.061 0-5.542 2.4816-5.542 5.5428s2.481 5.5428 5.542 5.5428z"/><path d="m475.191 89.9653c3.676 0 6.657-2.9804 6.657-6.6568s-2.981-6.6568-6.657-6.6568c-3.677 0-6.657 2.9804-6.657 6.6568s2.98 6.6568 6.657 6.6568z"/><path d="m424.71 120.476c3.677 0 6.657-2.981 6.657-6.657 0-3.677-2.98-6.657-6.657-6.657-3.676 0-6.657 2.98-6.657 6.657 0 3.676 2.981 6.657 6.657 6.657z"/><path d="m475.191 158.752c3.676 0 6.657-2.98 6.657-6.657 0-3.676-2.981-6.657-6.657-6.657-3.677 0-6.657 2.981-6.657 6.657 0 3.677 2.98 6.657 6.657 6.657z"/><path d="m464.64 280.454c.002-.073.011-.143.011-.216.002-1.115-.277-2.213-.812-3.192-.534-.98-1.306-1.809-2.244-2.411-.939-.603-2.014-.959-3.127-1.037-1.112-.078-2.227.125-3.24.591-.951-1.098-2.236-1.853-3.658-2.151-1.421-.297-2.901-.12-4.213.504-1.311.624-2.382 1.661-3.048 2.952-.665 1.291-.889 2.764-.637 4.195-.034-.001-.067-.006-.101-.006-1.06-.001-2.104.25-3.047.734-.943.483-1.757 1.185-2.375 2.046-.617.862-1.019 1.858-1.174 2.907-.154 1.048-.056 2.118.286 3.121s.919 1.91 1.683 2.645c.763.735 1.691 1.277 2.706 1.581s2.088.362 3.13.167c1.042-.194 2.022-.634 2.86-1.283.528 1.029 1.316 1.903 2.285 2.535s2.087 1 3.242 1.068c1.155.069 2.308-.166 3.345-.679 1.036-.514 1.921-1.289 2.567-2.249.792.576 1.702.971 2.664 1.155.962.183 1.953.153 2.902-.091.949-.243 1.832-.693 2.587-1.317.755-.625 1.362-1.408 1.779-2.294.417-.887.633-1.854.633-2.834-.001-.979-.218-1.947-.635-2.833-.418-.886-1.026-1.669-1.781-2.293-.755-.623-1.639-1.073-2.588-1.315z"/><path d="m481.293 128.242c1.532 0 2.774-1.242 2.774-2.774s-1.242-2.774-2.774-2.774-2.774 1.242-2.774 2.774 1.242 2.774 2.774 2.774z"/><path d="m463.542 61.674c1.531 0 2.773-1.2419 2.773-2.7737 0-1.5319-1.242-2.7737-2.773-2.7737-1.532 0-2.774 1.2418-2.774 2.7737 0 1.5318 1.242 2.7737 2.774 2.7737z"/><path d="m454.111 130.461c1.532 0 2.774-1.242 2.774-2.774s-1.242-2.774-2.774-2.774-2.774 1.242-2.774 2.774 1.242 2.774 2.774 2.774z"/><path d="m456.33 127.687c1.532 0 2.774-1.242 2.774-2.774 0-1.531-1.242-2.773-2.774-2.773s-2.774 1.242-2.774 2.773c0 1.532 1.242 2.774 2.774 2.774z"/><path d="m457.994 124.913c1.532 0 2.774-1.241 2.774-2.773s-1.242-2.774-2.774-2.774-2.773 1.242-2.773 2.774 1.241 2.773 2.773 2.773z"/><path d="m451.337 148.212c1.532 0 2.774-1.242 2.774-2.774 0-1.531-1.242-2.773-2.774-2.773-1.531 0-2.773 1.242-2.773 2.773 0 1.532 1.242 2.774 2.773 2.774z"/><path d="m492.388 179.277c1.531 0 2.773-1.242 2.773-2.774 0-1.531-1.242-2.773-2.773-2.773-1.532 0-2.774 1.242-2.774 2.773 0 1.532 1.242 2.774 2.774 2.774z"/><path d="m433.031 180.941c1.532 0 2.774-1.242 2.774-2.773 0-1.532-1.242-2.774-2.774-2.774s-2.773 1.242-2.773 2.774c0 1.531 1.241 2.773 2.773 2.773z"/><path d="m436.36 95.5126c1.532 0 2.773-1.2418 2.773-2.7737 0-1.5318-1.241-2.7736-2.773-2.7736s-2.774 1.2418-2.774 2.7736c0 1.5319 1.242 2.7737 2.774 2.7737z"/><path d="m449.118 145.438c1.532 0 2.774-1.241 2.774-2.773s-1.242-2.774-2.774-2.774c-1.531 0-2.773 1.242-2.773 2.774s1.242 2.773 2.773 2.773z"/><path d="m446.345 141.001c1.532 0 2.773-1.242 2.773-2.774s-1.241-2.774-2.773-2.774-2.774 1.242-2.774 2.774 1.242 2.774 2.774 2.774z"/></g></g></svg>