<svg width="130" height="258" viewBox="0 0 130 258" fill="none" xmlns="http://www.w3.org/2000/svg">
<g filter="url(#filter0_d)">
<path d="M25.3276 246.816C25.3276 248.2 24.1625 249.322 22.7254 249.322H17.4792C16.042 249.322 14.877 248.2 14.877 246.816V229.555C14.877 228.171 16.042 227.049 17.4792 227.049H22.7254C24.1625 227.049 25.3276 228.171 25.3276 229.555V246.816" fill="#4B4F51"/>
<path d="M115.275 246.816C115.275 248.2 114.11 249.322 112.673 249.322H107.426C105.989 249.322 104.824 248.2 104.824 246.816V229.555C104.824 228.171 105.989 227.049 107.426 227.049H112.673C114.11 227.049 115.275 228.171 115.275 229.555V246.816Z" fill="#4B4F51"/>
<path d="M116.304 125.004C116.304 124.837 116.299 124.619 116.292 124.506H13.8649C13.8579 124.619 13.8535 124.837 13.8535 125.004L14.053 128.865L115.542 139.748L116.304 125.004" fill="#D7433F"/>
<path d="M14.0537 128.865L19.6762 237.703C19.6762 244.494 25.3944 250 32.448 250H35.3156H94.8428H97.7103C104.764 250 110.483 244.494 110.483 237.703L115.542 139.747L14.0537 128.865" fill="#FA5652"/>
<path d="M120.438 123.694C120.438 125.55 118.824 127.107 116.895 127.107H13.259C11.3309 127.107 9.82617 125.55 9.82617 123.694V118.995C9.82617 117.139 11.3309 115.688 13.259 115.688H116.895C118.824 115.688 120.438 117.139 120.438 118.995V123.694Z" fill="#FA5652"/>
<path d="M70.7048 171.317L65.5892 174.785L72.2976 174.014L72.5934 173.979L73.4484 173.883L79.4136 173.196L81.9715 168.264L82.2391 167.747L85.6323 161.202L80.4302 164.728L75.9436 157.246C74.7402 155.459 73.4756 154.679 72.2297 154.554C70.0231 154.45 67.7799 156.357 66.1854 158.222C65.7484 158.757 65.3508 159.297 64.9993 159.808C64.8607 160.01 64.7279 160.208 64.6045 160.398C64.7267 160.642 64.8611 160.905 64.9993 161.173C65.1877 161.538 65.3864 161.918 65.6026 162.32C66.9132 164.777 68.7081 167.919 70.7048 171.317" fill="white"/>
<path d="M84.2392 194.929C83.5744 194.883 82.8261 194.838 82.0095 194.8C79.1443 194.666 75.4224 194.591 71.3654 194.557L70.8052 188.557L68.1448 194.537L68.0279 194.8L67.6875 195.562L65.3223 200.881L68.4802 205.479L68.8106 205.96L73.0007 212.061L72.4297 205.96H81.4034C83.6134 205.852 84.9459 205.187 85.6817 204.21C86.8791 202.423 86.2844 199.599 85.404 197.336C85.0389 196.454 84.6226 195.63 84.2392 194.929Z" fill="white"/>
<path d="M94.514 190.901C94.5245 190.216 94.3735 189.806 94.2808 189.612L94.1703 189.428L86.1915 176.12L76.9805 180.826C77.5524 181.749 78.2444 182.923 78.9777 184.179L84.0162 192.581C84.1965 192.844 84.6071 193.471 85.0908 194.328L85.1196 194.331L85.2692 194.595C85.6383 195.246 86.0619 196.108 86.4316 197.058C87.1747 198.883 87.7781 200.972 87.3811 202.795L94.514 190.901" fill="white"/>
<path d="M64.9998 158.018C65.1359 157.848 65.2754 157.676 65.4224 157.504C66.6926 155.973 68.2691 154.427 70.1063 153.846H64.9998H55.8424C55.2219 154.179 54.9273 154.509 54.7995 154.684L54.6897 154.866L46.71 168.176L55.5481 173.503C56.0925 172.563 56.8023 171.4 57.5654 170.16L62.6027 161.758C62.7494 161.476 63.1083 160.82 63.6361 159.988L63.6236 159.964L63.7875 159.708C64.1013 159.212 64.5147 158.626 64.9998 158.018Z" fill="white"/>
<path d="M42.6868 194.958C43.6627 195.094 44.6143 195.16 45.4333 195.189C45.8097 194.658 46.2229 194.056 46.6647 193.396C48.219 191.073 50.1474 188.006 52.2064 184.641L57.8829 187.174L53.8352 181.965L53.6562 181.736L53.1409 181.072L49.541 176.441L43.8265 176.775L43.2272 176.811L35.6445 177.253L41.4167 179.828L36.9303 187.309C35.9242 189.206 35.8559 190.651 36.3663 191.753C37.3756 193.645 40.2137 194.561 42.6868 194.958Z" fill="white"/>
<path d="M57.7368 196.178H47.6593C47.3336 196.196 46.5629 196.226 45.5529 196.202L45.5355 196.224L45.2223 196.215C44.4508 196.198 43.4664 196.121 42.4235 195.953C40.4116 195.661 38.2314 195.119 36.792 193.877L43.9242 205.772C44.5323 206.122 44.9792 206.203 45.1975 206.223H45.4184H61.3782L61.751 196.189C60.6347 196.202 59.2329 196.195 57.7368 196.178" fill="white"/>
</g>
<g clip-path="url(#clip0)">
<path d="M16.0035 107.788C15.6325 107.852 15.236 107.777 14.9026 107.547C14.2357 107.086 14.0735 106.181 14.5401 105.523L16.9292 102.157C17.3959 101.5 18.314 101.341 18.9809 101.801C19.6477 102.262 19.8099 103.168 19.3433 103.825L16.9542 107.191C16.7209 107.519 16.3749 107.724 16.0035 107.788Z" fill="#465A61"/>
<path d="M51.0176 101.71C50.6465 101.775 50.2501 101.699 49.9167 101.469L46.5023 99.1107C45.8354 98.65 45.6732 97.7445 46.1398 97.0871C46.6064 96.4297 47.5245 96.2703 48.1914 96.731L51.6058 99.0894C52.2727 99.55 52.4349 100.456 51.9683 101.113C51.735 101.442 51.389 101.646 51.0176 101.71Z" fill="#3B4A51"/>
<path d="M32.0168 57.1518L24.8495 67.2492C24.6397 67.5807 24.2879 67.7893 23.9108 67.8548C23.5337 67.9202 23.1306 67.8426 22.8183 67.6017L12.5751 60.5265C11.8974 60.0835 11.7333 59.1675 12.2163 58.523C12.665 57.8549 13.5937 57.6937 14.2475 58.1704L23.2905 64.3915C23.2905 64.3915 23.2905 64.3915 23.3144 64.3578L29.6267 55.5009C30.0754 54.8328 31.0037 54.6717 31.6579 55.1483C32.3356 55.5913 32.4997 56.5073 32.0168 57.1518Z" fill="#465A61"/>
<path d="M24.8487 67.2492C24.6389 67.5807 24.2871 67.7893 23.91 67.8548L23.2897 64.3916C23.2897 64.3916 23.2897 64.3916 23.3136 64.3578L29.6259 55.5009C30.0746 54.8328 31.0029 54.6717 31.6571 55.1483C32.3348 55.5913 32.4989 56.5074 32.0159 57.1518L24.8487 67.2492Z" fill="#3B4A51"/>
<path d="M46.7085 60.9469L5.89069 68.0321C3.48202 68.4502 1.88152 70.705 2.30706 73.0808L7.46776 101.893C7.89323 104.268 10.1807 105.848 12.5893 105.43L53.4071 98.345C55.8158 97.9269 57.4162 95.6718 56.9907 93.2964L51.83 64.4846C51.4045 62.1088 49.1171 60.5289 46.7085 60.9469Z" fill="#135E8A" fill-opacity="0.87"/>
<path d="M51.8297 64.484L56.9904 93.2958C57.4158 95.6712 55.8154 97.9264 53.4067 98.3445L30.0961 102.391L23.3975 64.9926L46.7081 60.9464C49.1168 60.5283 51.4041 62.1082 51.8297 64.484Z" fill="#135E8A"/>
<path d="M33.2254 69.189L12.7198 72.7484C10.3111 73.1665 8.71062 75.4213 9.13617 77.7971L12.2463 95.1605C12.6717 97.5359 14.9592 99.1162 17.3678 98.6981L37.8734 95.1387C40.2821 94.7206 41.8825 92.4654 41.4571 90.09L38.347 72.7266C37.9214 70.3509 35.6341 68.7709 33.2254 69.189Z" fill="#C6E2E7"/>
<path d="M44.6624 74.5814C43.0627 74.859 41.5306 73.8008 41.248 72.2229C40.9654 70.6451 42.0374 69.1348 43.6371 68.8572C45.2368 68.5795 46.7688 69.6377 47.0515 71.2156C47.3341 72.7935 46.2621 74.3037 44.6624 74.5814Z" fill="#C6E2E7"/>
<path d="M47.1387 80.0537L44.237 80.5574C43.4352 80.6966 42.6715 80.1694 42.5298 79.3782C42.3881 78.5874 42.9226 77.8345 43.7243 77.6953L46.626 77.1916C47.4282 77.0524 48.1916 77.58 48.3332 78.3708C48.475 79.162 47.9408 79.9145 47.1387 80.0537Z" fill="#465A61"/>
<path d="M48.1983 85.9691L45.2965 86.4728C44.4948 86.6119 43.731 86.0847 43.5893 85.2936C43.4477 84.5028 43.9821 83.7498 44.7839 83.6107L47.6856 83.107C48.4877 82.9678 49.2512 83.4954 49.3928 84.2862C49.5345 85.0774 49.0004 85.8299 48.1983 85.9691Z" fill="#465A61"/>
<path d="M49.2237 91.6936L46.3219 92.1973C45.5202 92.3365 44.7564 91.8093 44.6147 91.0181C44.4731 90.2273 45.0075 89.4744 45.8093 89.3352L48.711 88.8315C49.5131 88.6923 50.2766 89.2199 50.4182 90.0107C50.5599 90.8019 50.0258 91.5544 49.2237 91.6936Z" fill="#465A61"/>
<path d="M38.3464 72.7266L41.4565 90.09C41.8819 92.4654 40.2815 94.7206 37.8728 95.1387L29.0709 96.6666L24.4229 70.7169L33.2248 69.189C35.6335 68.7709 37.9208 70.3509 38.3464 72.7266Z" fill="#A8D3D8"/>
</g>
<path d="M69.1299 24.6097C69.0396 24.6098 68.9501 24.5923 68.8667 24.5582C68.7833 24.5242 68.7075 24.4742 68.6436 24.4112C68.5798 24.3482 68.5291 24.2735 68.4946 24.1912C68.4601 24.1089 68.4423 24.0206 68.4424 23.9316V19.1201C68.4424 18.9402 68.5148 18.7677 68.6437 18.6405C68.7727 18.5133 68.9475 18.4419 69.1299 18.4419C69.3122 18.4419 69.487 18.5133 69.616 18.6405C69.7449 18.7677 69.8173 18.9402 69.8173 19.1201V23.9316C69.8173 24.1114 69.7449 24.2839 69.616 24.4111C69.487 24.5383 69.3122 24.6097 69.1299 24.6097V24.6097Z" fill="#B7B9BD"/>
<path d="M61.2744 14.5341H76.9842V20.4438H61.2744V14.5341Z" fill="#E6E9ED"/>
<path d="M64.2188 35.5066H74.0398V44.7587H64.2188V35.5066Z" fill="#B7B9BD"/>
<path d="M59.0145 43.209C57.7643 43.209 56.5652 42.7191 55.6811 41.847C54.7971 40.9749 54.3004 39.7921 54.3004 38.5587V12.8658H45.4025L44.6989 16.9581C45.105 16.9581 45.5064 17.0426 45.8771 17.206C46.2478 17.3695 46.5794 17.6082 46.8503 17.9066C47.1211 18.205 47.3251 18.5564 47.449 18.9378C47.5728 19.3193 47.6137 19.7222 47.5691 20.1203L47.4559 21.1302L44.9677 39.8089C44.8622 40.7441 44.4107 41.6081 43.6997 42.2355C42.9887 42.8628 42.0682 43.2095 41.1143 43.209V47.0843H83.9341V43.209H59.0145Z" fill="#FFD231"/>
<path d="M43.4719 2.51892H75.9757C77.226 2.51892 78.425 3.00886 79.3091 3.88096C80.1932 4.75306 80.6898 5.93588 80.6898 7.16922V16.9562H38.7578V7.16922C38.7578 5.93588 39.2545 4.75306 40.1385 3.88096C41.0226 3.00886 42.2217 2.51892 43.4719 2.51892V2.51892Z" fill="#F5C108"/>
<path d="M58.2031 27.6445H80.055V29.7181C80.0551 31.1335 79.7725 32.5351 79.2234 33.8427C78.6744 35.1504 77.8696 36.3386 76.8551 37.3394C75.8405 38.3403 74.636 39.1342 73.3104 39.6759C71.9849 40.2176 70.5641 40.4963 69.1293 40.4963C67.6944 40.4964 66.2736 40.2176 64.9479 39.676C63.6223 39.1344 62.4178 38.3404 61.4032 37.3396C60.3886 36.3387 59.5838 35.1505 59.0347 33.8428C58.4857 32.5351 58.2031 31.1335 58.2031 29.7181V27.6445Z" fill="#E6E9ED"/>
<path d="M74.496 36.9815C74.3537 36.9817 74.2148 36.9383 74.0985 36.8573C73.9822 36.7763 73.8943 36.6616 73.8469 36.5292C73.7995 36.3968 73.7949 36.2532 73.8337 36.1181C73.8726 35.983 73.953 35.8632 74.0639 35.7751C75.6238 34.5426 76.6492 32.7704 76.9317 30.8187C76.9586 30.6417 77.0553 30.4824 77.2008 30.3755C77.3463 30.2686 77.5287 30.2227 77.7083 30.2479C77.888 30.2732 78.0502 30.3674 78.1597 30.5101C78.2692 30.6528 78.317 30.8323 78.2929 31.0097C77.9621 33.3019 76.7584 35.3836 74.9266 36.8311C74.8048 36.9285 74.6528 36.9816 74.496 36.9815V36.9815Z" fill="#B7B9BD"/>
<path d="M54.3302 11.2878C55.198 11.2878 55.9015 10.5938 55.9015 9.73769C55.9015 8.88159 55.198 8.18759 54.3302 8.18759C53.4623 8.18759 52.7588 8.88159 52.7588 9.73769C52.7588 10.5938 53.4623 11.2878 54.3302 11.2878Z" fill="#E6E9ED"/>
<path d="M46.586 11.2878C47.4539 11.2878 48.1574 10.5938 48.1574 9.73769C48.1574 8.88159 47.4539 8.18759 46.586 8.18759C45.7182 8.18759 45.0146 8.88159 45.0146 9.73769C45.0146 10.5938 45.7182 11.2878 46.586 11.2878Z" fill="#E6E9ED"/>
<path d="M76.9846 10.4158H61.2744C61.0921 10.4158 60.9172 10.3444 60.7883 10.2172C60.6593 10.09 60.5869 9.91754 60.5869 9.73768C60.5869 9.55782 60.6593 9.38532 60.7883 9.25814C60.9172 9.13096 61.0921 9.05951 61.2744 9.05951H76.9846C77.1669 9.05951 77.3417 9.13096 77.4707 9.25814C77.5996 9.38532 77.672 9.55782 77.672 9.73768C77.672 9.91754 77.5996 10.09 77.4707 10.2172C77.3417 10.3444 77.1669 10.4158 76.9846 10.4158Z" fill="#E6E9ED"/>
<g clip-path="url(#clip1)">
<path d="M88.264 50.5658C86.7894 50.0363 85.1159 50.8692 84.5449 52.4167L69.423 93.4013C68.8521 94.9488 69.5914 96.648 71.0659 97.1775L83.532 101.653L100.73 55.0416L88.264 50.5658Z" fill="#EFEFEF"/>
<path d="M72.024 94.3352L87.1459 53.3506C87.7168 51.8031 89.3904 50.9702 90.865 51.4996L88.264 50.5658C86.7894 50.0363 85.1159 50.8692 84.5449 52.4167L69.423 93.4013C68.8521 94.9488 69.5914 96.648 71.0659 97.1775L73.6669 98.1113C72.1923 97.5819 71.453 95.8827 72.024 94.3352Z" fill="#DDDDDD"/>
<path d="M110.12 111.2L83.5318 101.653C82.0572 101.124 81.3179 99.4246 81.8888 97.8772L97.0107 56.8925C97.5817 55.3451 99.2553 54.5121 100.73 55.0416L127.318 64.5879C128.793 65.1173 129.532 66.8165 128.961 68.364L113.839 109.349C113.268 110.896 111.594 111.729 110.12 111.2Z" fill="#535454"/>
<path d="M84.2435 98.7226L99.3654 57.738C99.9364 56.1905 101.61 55.3576 103.085 55.887L100.73 55.0416C99.2553 54.5121 97.5817 55.3451 97.0107 56.8925L81.8888 97.8772C81.3179 99.4246 82.0572 101.124 83.5318 101.653L85.8864 102.499C84.4118 101.969 83.6725 100.27 84.2435 98.7226Z" fill="#444443"/>
<path d="M125.494 68.597L99.5161 59.2697C99.1674 59.1445 98.7753 59.3396 98.6403 59.7055L85.6981 94.7825C85.5631 95.1484 85.7363 95.5465 86.085 95.6717L112.063 104.999C112.412 105.124 112.804 104.929 112.939 104.563L125.881 69.4861C126.016 69.1202 125.843 68.7221 125.494 68.597Z" fill="#A4D9F4"/>
<path d="M88.3792 95.7451L101.321 60.6681C101.456 60.3022 101.848 60.1071 102.197 60.2323L99.516 59.2697C99.1674 59.1445 98.7753 59.3396 98.6403 59.7055L85.6981 94.7825C85.5631 95.1484 85.7363 95.5465 86.085 95.6717L88.766 96.6343C88.4174 96.509 88.2442 96.111 88.3792 95.7451Z" fill="#7CC9E8"/>
<path d="M97.1952 105.426C96.1356 105.045 95.6074 103.831 96.0177 102.719C96.428 101.607 97.6238 101.012 98.6832 101.393C99.7427 101.773 100.271 102.987 99.8607 104.099C99.4505 105.211 98.2548 105.806 97.1952 105.426ZM98.1642 102.799C97.8439 102.684 97.4823 102.864 97.3583 103.201C97.2342 103.537 97.3939 103.904 97.7143 104.019C98.0346 104.134 98.3961 103.954 98.5202 103.618C98.6442 103.282 98.4845 102.914 98.1642 102.799Z" fill="#666666"/>
<path d="M87.4317 56.4179C88.1227 56.666 88.8998 56.2793 89.1674 55.5541C89.4349 54.8289 89.0916 54.0399 88.4006 53.7918C87.7096 53.5437 86.9325 53.9305 86.6649 54.6556C86.3974 55.3808 86.7407 56.1698 87.4317 56.4179Z" fill="#666666"/>
<path d="M87.9148 55.1046C87.8386 54.6008 88.0392 54.1082 88.3994 53.7927C88.1867 53.716 87.9505 53.694 87.7088 53.7428C86.9765 53.8905 86.4752 54.62 86.589 55.3721C86.7028 56.1242 87.3886 56.6141 88.1209 56.4664C88.3627 56.4176 88.5784 56.3044 88.7561 56.1489C88.3244 55.9932 87.991 55.6083 87.9148 55.1046Z" fill="#535454"/>
<path d="M112.976 62.6564C112.932 62.6406 112.89 62.6203 112.85 62.5954C112.81 62.5715 112.774 62.5425 112.739 62.5098C112.705 62.4785 112.675 62.4431 112.648 62.4037C112.62 62.3652 112.597 62.3239 112.578 62.2799C112.558 62.2368 112.544 62.1901 112.534 62.1432C112.524 62.0969 112.519 62.0483 112.517 62C112.516 61.9517 112.52 61.9021 112.527 61.8549C112.535 61.8057 112.548 61.7582 112.565 61.7122C112.582 61.6663 112.603 61.6219 112.629 61.5791C112.654 61.5382 112.683 61.4978 112.716 61.4616C112.748 61.4255 112.784 61.3916 112.822 61.3628C112.861 61.332 112.902 61.3064 112.945 61.2857C112.988 61.2641 113.033 61.2473 113.079 61.2341C113.125 61.222 113.172 61.2142 113.218 61.2108C113.266 61.2087 113.313 61.2098 113.359 61.2166C113.594 61.2477 113.798 61.4062 113.893 61.6262C113.912 61.669 113.927 61.7149 113.937 61.763C113.947 61.8092 113.952 61.8577 113.954 61.9061C113.955 61.9544 113.951 62.0039 113.944 62.0512C113.935 62.1 113.922 62.1476 113.905 62.1936C113.888 62.2396 113.867 62.2838 113.842 62.3269C113.817 62.3678 113.788 62.4084 113.755 62.4445C113.723 62.4805 113.687 62.5145 113.649 62.5433C113.611 62.573 113.568 62.5994 113.526 62.6204C113.353 62.7068 113.153 62.7199 112.976 62.6564Z" fill="#666666"/>
<path d="M125.494 68.597L99.5161 59.2697C99.1674 59.1445 98.7753 59.3396 98.6403 59.7055L97.9444 61.5916L125.185 71.3722L125.881 69.4861C126.016 69.1202 125.843 68.7221 125.494 68.597Z" fill="#70B5E8"/>
<path d="M102.197 60.2323L99.516 59.2697C99.1674 59.1445 98.7753 59.3396 98.6403 59.7055L97.9444 61.5916L100.625 62.5542L101.321 60.6681C101.456 60.3022 101.848 60.1071 102.197 60.2323Z" fill="#52A5D8"/>
<path d="M92.3101 95.0945L90.5165 94.4505C90.3521 94.3915 90.2696 94.202 90.3333 94.0295L91.0278 92.1472C91.0915 91.9746 91.2781 91.8817 91.4425 91.9408L93.2361 92.5848C93.4005 92.6438 93.483 92.8333 93.4193 93.0058L92.7248 94.8881C92.6611 95.0607 92.4745 95.1535 92.3101 95.0945Z" fill="#92B620"/>
<path d="M98.0279 97.1473L96.2343 96.5033C96.0699 96.4442 95.9874 96.2547 96.0511 96.0822L96.7456 94.1999C96.8092 94.0274 96.9959 93.9345 97.1603 93.9935L98.9539 94.6375C99.1183 94.6965 99.2008 94.886 99.1371 95.0586L98.4426 96.9409C98.3789 97.1135 98.1924 97.2063 98.0279 97.1473Z" fill="#70B5E8"/>
<path d="M103.745 99.2L101.951 98.556C101.787 98.497 101.704 98.3074 101.768 98.1349L102.462 96.2526C102.526 96.0801 102.713 95.9872 102.877 96.0462L104.671 96.6902C104.835 96.7493 104.918 96.9388 104.854 97.1113L104.159 98.9936C104.096 99.1662 103.909 99.259 103.745 99.2Z" fill="#70B5E8"/>
<path d="M109.463 101.253L107.67 100.609C107.505 100.55 107.423 100.36 107.487 100.188L108.181 98.3056C108.245 98.1331 108.431 98.0402 108.596 98.0992L110.389 98.7432C110.554 98.8023 110.636 98.9918 110.573 99.1643L109.878 101.047C109.814 101.219 109.628 101.312 109.463 101.253Z" fill="#FFB70D"/>
<path d="M95.9508 85.2298L94.1571 84.5858C93.9927 84.5268 93.9103 84.3373 93.9739 84.1648L94.6684 82.2824C94.7321 82.1099 94.9187 82.017 95.0831 82.0761L96.8768 82.7201C97.0412 82.7791 97.1236 82.9686 97.06 83.1411L96.3655 85.0234C96.3018 85.196 96.1152 85.2888 95.9508 85.2298Z" fill="#898989"/>
<path d="M101.668 87.2825L99.8739 86.6385C99.7095 86.5795 99.6271 86.39 99.6907 86.2175L100.385 84.3352C100.449 84.1627 100.636 84.0698 100.8 84.1288L102.594 84.7728C102.758 84.8318 102.84 85.0213 102.777 85.1938L102.082 87.0762C102.019 87.2488 101.832 87.3416 101.668 87.2825Z" fill="#F94A46"/>
<path d="M107.385 89.3355L105.592 88.6915C105.427 88.6325 105.345 88.443 105.408 88.2705L106.103 86.3882C106.167 86.2156 106.353 86.1227 106.518 86.1818L108.311 86.8258C108.476 86.8848 108.558 87.0743 108.495 87.2468L107.8 89.1291C107.736 89.3017 107.55 89.3946 107.385 89.3355Z" fill="#70B5E8"/>
<path d="M113.103 91.3883L111.309 90.7443C111.145 90.6852 111.063 90.4957 111.126 90.3232L111.821 88.4409C111.884 88.2684 112.071 88.1755 112.235 88.2345L114.029 88.8785C114.194 88.9375 114.276 89.127 114.212 89.2996L113.518 91.1819C113.454 91.3545 113.268 91.4473 113.103 91.3883Z" fill="#FFB70D"/>
<path d="M97.817 80.171L96.0233 79.527C95.8589 79.4679 95.7765 79.2784 95.8401 79.1059L96.5346 77.2236C96.5983 77.0511 96.7849 76.9582 96.9493 77.0172L98.743 77.6612C98.9074 77.7202 98.9898 77.9097 98.9262 78.0823L98.2317 79.9646C98.168 80.1371 97.9814 80.23 97.817 80.171Z" fill="#EFEFEF"/>
<path d="M103.534 82.2237L101.74 81.5797C101.576 81.5207 101.493 81.3312 101.557 81.1586L102.251 79.2763C102.315 79.1038 102.502 79.0109 102.666 79.0699L104.46 79.7139C104.624 79.773 104.707 79.9625 104.643 80.135L103.948 82.0173C103.885 82.1898 103.698 82.2828 103.534 82.2237Z" fill="#FFB70D"/>
<path d="M109.253 84.2767L107.459 83.6327C107.294 83.5737 107.212 83.3842 107.276 83.2117L107.97 81.3293C108.034 81.1568 108.22 81.0639 108.385 81.123L110.179 81.767C110.343 81.826 110.425 82.0155 110.362 82.188L109.667 84.0703C109.604 84.2428 109.417 84.3358 109.253 84.2767Z" fill="#70B5E8"/>
<path d="M114.969 86.3294L113.176 85.6854C113.011 85.6264 112.929 85.4369 112.992 85.2644L113.687 83.3821C113.751 83.2096 113.937 83.1167 114.102 83.1757L115.895 83.8197C116.06 83.8787 116.142 84.0682 116.079 84.2407L115.384 86.1231C115.32 86.2956 115.134 86.3885 114.969 86.3294Z" fill="#EFEFEF"/>
<path d="M99.6832 75.112L97.8895 74.468C97.7251 74.409 97.6427 74.2195 97.7063 74.047L98.4008 72.1647C98.4645 71.9922 98.6512 71.8993 98.8155 71.9583L100.609 72.6023C100.774 72.6613 100.856 72.8508 100.792 73.0233L100.098 74.9057C100.034 75.0782 99.8476 75.1711 99.6832 75.112Z" fill="#DDA36F"/>
<path d="M105.401 77.1647L103.607 76.5207C103.443 76.4617 103.36 76.2722 103.424 76.0997L104.119 74.2174C104.182 74.0449 104.369 73.952 104.533 74.011L106.327 74.655C106.491 74.714 106.574 74.9035 106.51 75.076L105.816 76.9584C105.752 77.1309 105.565 77.2238 105.401 77.1647Z" fill="#70B5E8"/>
<path d="M111.119 79.2178L109.325 78.5738C109.161 78.5147 109.078 78.3252 109.142 78.1527L109.836 76.2704C109.9 76.0979 110.087 76.005 110.251 76.064L112.045 76.708C112.209 76.767 112.292 76.9565 112.228 77.1291L111.533 79.0114C111.47 79.1839 111.283 79.2768 111.119 79.2178Z" fill="#F9D698"/>
<path d="M116.836 81.2705L115.042 80.6265C114.877 80.5675 114.795 80.378 114.859 80.2054L115.553 78.3231C115.617 78.1506 115.803 78.0577 115.968 78.1167L117.762 78.7607C117.926 78.8198 118.008 79.0093 117.945 79.1818L117.25 81.0641C117.187 81.2366 117 81.3295 116.836 81.2705Z" fill="#70B5E8"/>
<path d="M101.55 70.0532L99.7567 69.4092C99.5923 69.3502 99.5099 69.1607 99.5735 68.9881L100.268 67.1058C100.332 66.9333 100.518 66.8404 100.683 66.8994L102.476 67.5434C102.641 67.6025 102.723 67.792 102.66 67.9645L101.965 69.8468C101.901 70.0193 101.715 70.1122 101.55 70.0532Z" fill="#92B620"/>
<path d="M107.267 72.1059L105.474 71.4619C105.309 71.4029 105.227 71.2134 105.29 71.0409L105.985 69.1586C106.048 68.986 106.235 68.8932 106.4 68.9522L108.193 69.5962C108.358 69.6552 108.44 69.8447 108.376 70.0172L107.682 71.8995C107.618 72.0721 107.432 72.165 107.267 72.1059Z" fill="#F94A46"/>
<path d="M112.985 74.1589L111.191 73.5149C111.027 73.4559 110.944 73.2664 111.008 73.0939L111.703 71.2116C111.766 71.0391 111.953 70.9462 112.117 71.0052L113.911 71.6492C114.075 71.7082 114.158 71.8977 114.094 72.0702L113.4 73.9526C113.336 74.1251 113.149 74.218 112.985 74.1589Z" fill="#FFB70D"/>
<path d="M118.703 76.2117L116.909 75.5677C116.745 75.5087 116.662 75.3191 116.726 75.1466L117.42 73.2643C117.484 73.0918 117.671 72.9989 117.835 73.0579L119.629 73.7019C119.793 73.7609 119.876 73.9505 119.812 74.123L119.117 76.0053C119.054 76.1778 118.867 76.2707 118.703 76.2117Z" fill="#EFEFEF"/>
</g>
<defs>
<filter id="filter0_d" x="5.82617" y="115.688" width="118.612" height="142.312" filterUnits="userSpaceOnUse" color-interpolation-filters="sRGB">
<feFlood flood-opacity="0" result="BackgroundImageFix"/>
<feColorMatrix in="SourceAlpha" type="matrix" values="0 0 0 0 0 0 0 0 0 0 0 0 0 0 0 0 0 0 127 0"/>
<feOffset dy="4"/>
<feGaussianBlur stdDeviation="2"/>
<feColorMatrix type="matrix" values="0 0 0 0 0 0 0 0 0 0 0 0 0 0 0 0 0 0 0.25 0"/>
<feBlend mode="normal" in2="BackgroundImageFix" result="effect1_dropShadow"/>
<feBlend mode="normal" in="SourceGraphic" in2="effect1_dropShadow" result="shape"/>
</filter>
<clipPath id="clip0">
<rect width="50.2635" height="49.6239" transform="matrix(0.985267 -0.171023 0.176311 0.984334 0 60.2008)" fill="white"/>
</clipPath>
<clipPath id="clip1">
<rect width="47.1924" height="49.6833" transform="matrix(0.941174 0.337922 -0.346155 0.938178 85.583 49.6031)" fill="white"/>
</clipPath>
</defs>
</svg>
