<svg width="125" height="230" viewBox="0 0 125 230" fill="none" xmlns="http://www.w3.org/2000/svg">
<path d="M70.0807 79.7539L49.9578 73.0734L42.2387 91.0238C42.2387 91.0238 42.239 91.0249 42.2392 91.026C42.2372 91.0304 42.2347 91.0337 42.2327 91.0393C41.7095 92.2556 45.79 94.7371 51.3468 96.5811C56.9036 98.4272 61.8323 98.9351 62.3556 97.7187C62.3575 97.7143 62.3588 97.7098 62.3607 97.7054H62.3617L70.0807 79.7539" fill="#F5C108"/>
<path d="M70.05 79.8213C69.5266 81.0386 64.5979 80.5287 59.0411 78.6843C53.4843 76.8399 49.4039 74.3573 49.927 73.1412C50.4502 71.925 55.3791 72.4338 60.9358 74.2792C66.4927 76.1236 70.5731 78.6051 70.05 79.8213" fill="#2F2E41"/>
<path d="M56.1919 85.3161C53.4907 84.4185 51.0484 83.3444 49.3147 82.2895C48.0421 81.516 46.6024 80.4141 46.9693 79.5603C47.0058 79.4758 47.1135 79.433 47.21 79.4651C47.3064 79.4961 47.3551 79.5914 47.3187 79.6759C47.1051 80.1723 47.9308 81.0485 49.5272 82.0199C51.2365 83.0587 53.6503 84.1211 56.324 85.009C58.9977 85.8959 61.6071 86.5025 63.6717 86.7154C65.5999 86.9144 66.8786 86.7379 67.092 86.2415C67.1284 86.1559 67.2363 86.1142 67.3327 86.1452C67.4291 86.1784 67.4778 86.2725 67.4413 86.357C67.0745 87.2108 65.1652 87.2001 63.6281 87.0417C61.5341 86.8256 58.8932 86.2115 56.1919 85.3161" fill="#4B4F51" fill-opacity="0.26"/>
<path d="M55.6237 86.6357C52.9223 85.7385 50.4799 84.664 48.7464 83.6087C47.4739 82.8357 46.034 81.7336 46.4009 80.88C46.4373 80.7961 46.5451 80.7526 46.6415 80.7844C46.738 80.8163 46.7867 80.9108 46.7502 80.9968C46.5369 81.4915 47.3625 82.3685 48.9589 83.339C50.6683 84.3795 53.0819 85.4402 55.7557 86.3278C58.4294 87.2165 61.0388 87.8227 63.1034 88.0351C65.0317 88.2347 66.3102 88.0574 66.5237 87.5605C66.5601 87.4766 66.668 87.4331 66.7644 87.466C66.8608 87.4978 66.9095 87.5923 66.8731 87.6773C66.5061 88.5298 64.5969 88.5203 63.0599 88.361C60.9658 88.1455 58.325 87.5329 55.6237 86.6357" fill="#4B4F51" fill-opacity="0.26"/>
<path d="M55.0476 87.9858C52.3463 87.0894 49.9038 86.0148 48.1702 84.9603C46.8978 84.186 45.4578 83.0841 45.8248 82.2308C45.8612 82.1465 45.969 82.1034 46.0654 82.136C46.1619 82.1676 46.2107 82.2614 46.1741 82.3467C45.9607 82.8439 46.7864 83.7194 48.3828 84.6896C50.0921 85.7304 52.5058 86.7912 55.1796 87.6793C57.8533 88.5673 60.4629 89.1731 62.5275 89.3859C64.4557 89.585 65.7343 89.408 65.9477 88.9118C65.9842 88.8275 66.0921 88.7844 66.1885 88.817C66.285 88.8486 66.3336 88.9434 66.2971 89.0277C65.9302 89.881 64.0209 89.8715 62.4838 89.7124C60.3899 89.4954 57.749 88.8834 55.0476 87.9858" fill="#4B4F51" fill-opacity="0.26"/>
<path d="M54.4401 89.3976C51.7388 88.5012 49.2963 87.4272 47.5627 86.372C46.2903 85.5978 44.8504 84.4967 45.2173 83.6431C45.2537 83.5574 45.3616 83.5156 45.4581 83.547C45.5545 83.5794 45.6032 83.6744 45.5667 83.7591C45.3532 84.2553 46.179 85.1308 47.7753 86.1024C49.4847 87.142 51.8984 88.2034 54.5722 89.0904C57.2457 89.9785 59.8552 90.5855 61.9198 90.7986C63.8482 90.9971 65.1268 90.8205 65.3402 90.3232C65.3766 90.2386 65.4843 90.1958 65.5809 90.2282C65.6773 90.2606 65.7259 90.3546 65.6894 90.4403C65.3225 91.2928 63.4133 91.2823 61.8763 91.1235C59.7822 90.9083 57.1414 90.295 54.4401 89.3976" fill="#4B4F51" fill-opacity="0.26"/>
<path d="M53.8688 90.7182C51.1675 89.8226 48.7251 88.7476 46.9915 87.6934C45.719 86.919 44.279 85.8171 44.6461 84.964C44.6825 84.88 44.7902 84.8365 44.8866 84.8686C44.9831 84.9008 45.0319 84.9961 44.9954 85.0801C44.782 85.5766 45.6076 86.4526 47.2041 87.4239C48.9132 88.4625 51.3271 89.524 54.0007 90.4114C56.6743 91.2997 59.2839 91.9062 61.3485 92.1187C63.2768 92.3187 64.5553 92.1404 64.7687 91.6439C64.8052 91.5599 64.913 91.5164 65.0095 91.5496C65.106 91.5807 65.1546 91.676 65.1182 91.76C64.7512 92.6131 62.8419 92.6038 61.3049 92.4442C59.211 92.2285 56.57 91.6159 53.8688 90.7182" fill="#4B4F51" fill-opacity="0.26"/>
<path d="M53.2877 92.0683C50.5864 91.1726 48.144 90.0969 46.4103 89.0428C45.1379 88.2684 43.698 87.1671 44.065 86.3135C44.1014 86.2292 44.2091 86.186 44.3056 86.2189C44.4021 86.2498 44.4508 86.3454 44.4142 86.4297C44.2009 86.9264 45.0266 87.8026 46.623 88.7734C48.3322 89.8131 50.746 90.8743 53.4198 91.7618C56.0935 92.6493 58.703 93.256 60.7675 93.4689C62.6958 93.6684 63.9745 93.4905 64.1879 92.9948C64.2243 92.9095 64.332 92.8673 64.4286 92.8992C64.5251 92.9311 64.5737 93.0257 64.5373 93.11C64.1704 93.9635 62.2611 93.9533 60.724 93.7949C58.63 93.5779 55.9892 92.966 53.2877 92.0683Z" fill="#4B4F51" fill-opacity="0.26"/>
<path d="M68.6537 79.6736C68.1971 80.7353 63.8951 80.2911 59.0452 78.6807C54.1951 77.0703 50.6336 74.9046 51.0902 73.8418C51.5469 72.78 55.8489 73.2243 60.6988 74.8347C65.5489 76.4451 69.1103 78.6107 68.6537 79.6736" fill="#F2F2F2" fill-opacity="0.25"/>
<path d="M71.5673 68.8084C71.5673 68.8084 71.154 68.2876 71.3217 67.7307C71.4894 67.1726 71.9985 66.9825 71.9985 66.9825C71.9985 66.9825 71.5388 66.5375 71.5763 65.9625C71.6138 65.3876 72.12 65.0544 72.12 65.0544C72.12 65.0544 71.4902 64.5973 71.3997 64.1198C71.3094 63.6423 71.7302 63.1636 71.7302 63.1636C71.7302 63.1636 71.0482 62.9855 70.872 62.5814C70.6957 62.1784 71.0445 61.7959 71.0445 61.7959C71.0445 61.7959 70.1378 61.3569 69.8922 61.043C69.6465 60.729 70.0652 60.124 69.8979 60.2672C69.7409 60.3995 69.1367 60.2118 68.7207 59.9099C68.7011 59.8943 68.6811 59.8798 68.6614 59.8654C68.6549 59.8594 68.6483 59.8546 68.6417 59.8498C68.2278 59.513 68.4316 59.0692 68.4316 59.0692C68.4316 59.0692 67.6966 59.2399 67.2112 58.9453C66.7258 58.6494 66.7418 58.226 66.7418 58.226C66.3562 58.5471 65.6013 58.4112 65.6013 58.4112L65.028 57.9337C64.0679 58.6867 63.62 57.7533 63.62 57.7533C63.62 57.7533 63.3733 58.0552 62.9952 58.2609C62.6463 58.2885 62.2994 58.3354 61.9565 58.4016C61.6031 58.3006 61.4692 58.0648 61.4692 58.0648C61.4392 58.2825 61.1865 58.487 60.9047 58.671C60.5568 58.7817 60.2154 58.9116 59.8827 59.0631C59.5311 58.9994 59.1766 58.7889 59.1766 58.7889C59.2179 59.169 58.4456 59.7596 57.9977 60.1974C57.926 60.2527 57.8547 60.3093 57.7843 60.367C57.3398 60.6003 56.7266 60.29 56.7266 60.29C56.7266 60.29 56.9036 60.8662 56.5353 61.6143C56.5349 61.6155 56.5345 61.6155 56.5341 61.6167C56.4301 61.743 56.3292 61.8729 56.2319 62.0052C55.7265 62.4683 54.9283 62.662 54.9283 62.662C54.9283 62.662 55.4675 63.255 55.18 63.8865C54.8927 64.5167 54.1653 64.9305 54.1653 64.9305C54.1653 64.9305 54.5617 65.4068 54.5884 66.0034C54.6152 66.5988 54.0166 67.3337 54.0166 67.3337C54.0166 67.3337 54.5936 67.6874 54.7179 68.2431C54.7202 68.2551 54.7228 68.2671 54.7251 68.2791C54.7269 68.2876 54.7288 68.2972 54.7303 68.308C54.8218 68.8986 54.3694 69.5578 54.3694 69.5578C54.3694 69.5578 55.1201 69.6287 55.3838 70.2121C55.6475 70.7954 55.2427 71.2285 55.2427 71.2285C55.5641 71.1731 56.11 71.4281 56.4814 71.8118C56.5017 71.8347 56.5222 71.8575 56.5426 71.8792C56.547 71.884 56.5514 71.8888 56.5556 71.8936C56.9249 72.323 56.9271 72.8234 56.9271 72.8234C56.9271 72.8234 57.3757 72.7128 57.8983 73.0315C57.9279 73.0519 57.9576 73.0712 57.9876 73.0904C57.991 73.0928 57.9944 73.0952 57.998 73.0977C58.562 73.497 58.394 73.6906 58.394 73.6906L62.351 74.9079C62.4485 74.6 63.511 74.3799 63.511 74.3799C63.545 74.3522 63.5806 74.3317 63.6168 74.3137C63.7226 74.3017 63.8283 74.2872 63.9337 74.2692C64.2747 74.3089 64.5943 74.5747 64.5943 74.5747C64.5943 74.5747 64.6557 74.1802 65.3131 73.9348C65.3587 73.9204 65.4043 73.9047 65.4498 73.8891C65.4554 73.8879 65.4606 73.8855 65.4663 73.8843C66.2681 73.6485 66.6801 73.9216 66.6801 73.9216C66.6801 73.9216 66.654 73.4368 67.2255 73.0688C67.2502 73.0543 67.2745 73.0399 67.299 73.0243C67.3062 73.0195 67.3131 73.0159 67.3205 73.0122C67.9903 72.6382 68.4403 72.744 68.4403 72.744C68.4403 72.744 68.6403 72.1029 69.1138 71.5869C69.1435 71.5556 69.1731 71.5256 69.2024 71.4943C69.2066 71.4907 69.2105 71.4859 69.2147 71.4823C69.7608 70.953 70.392 70.8015 70.392 70.8015C70.392 70.8015 70.3108 70.0665 70.6581 69.5072C71.0052 68.9503 71.5673 68.8084 71.5673 68.8084" fill="#2F2E41"/>
<path d="M65.7998 59.8099C62.2279 58.624 58.1023 60.495 56.6029 63.9819C55.1035 67.4687 56.7897 71.2706 60.3616 72.4565C63.9334 73.6423 68.0592 71.7701 69.5586 68.2832C71.0579 64.7964 69.3717 60.9945 65.7998 59.8099ZM60.0976 73.0697C58.1992 72.4409 56.7249 71.1269 55.9461 69.3709C55.1673 67.6149 55.1773 65.6265 55.9741 63.7735C56.7708 61.9204 58.2592 60.4231 60.165 59.5595C62.0706 58.6947 64.1656 58.5653 66.0639 59.1954C67.9621 59.8254 69.4365 61.1394 70.2154 62.8955C70.9942 64.6515 70.9842 66.6398 70.1875 68.4917C69.3907 70.3459 67.9022 71.842 65.9965 72.7068C64.0908 73.5716 61.9959 73.701 60.0976 73.0697" fill="#2F2E41"/>
<path d="M105.348 78.0576L90.0713 83.1264L95.9281 96.754C95.9281 96.754 95.9281 96.754 95.9291 96.7551C95.9299 96.7583 95.9309 96.7615 95.9328 96.7648C96.3295 97.6888 100.071 97.3028 104.29 95.9033C108.508 94.5048 111.606 92.6212 111.21 91.6971C111.209 91.6939 111.206 91.6907 111.205 91.6864L105.348 78.0576" fill="#F5C108"/>
<path d="M105.37 78.1114C105.767 79.0346 102.669 80.918 98.4502 82.3181C94.2323 83.7171 90.4905 84.1039 90.0928 83.1796C89.6961 82.2563 92.7942 80.3729 97.0131 78.9729C101.232 77.5728 104.973 77.187 105.37 78.1114Z" fill="#2F2E41"/>
<path d="M100.613 87.3503C98.5631 88.0309 96.5581 88.4954 94.9683 88.66C93.8012 88.7806 92.3521 88.7879 92.0736 88.1399C92.046 88.0759 92.083 88.0036 92.156 87.9784C92.229 87.9543 92.3114 87.9868 92.3392 88.0518C92.501 88.4282 93.4711 88.5635 94.9351 88.4125C96.5026 88.251 98.4835 87.7918 100.513 87.1176C102.543 86.4444 104.376 85.6391 105.674 84.8495C106.885 84.1124 107.512 83.4476 107.351 83.0712C107.323 83.0072 107.36 82.9349 107.434 82.9108C107.507 82.8867 107.588 82.9192 107.616 82.9831C107.894 83.6311 106.801 84.4668 105.835 85.0551C104.519 85.8551 102.665 86.6698 100.613 87.3503" fill="#4B4F51" fill-opacity="0.26"/>
<path d="M101.045 88.3538C98.9947 89.0334 96.9897 89.4983 95.4 89.662C94.2328 89.7829 92.7838 89.7902 92.5053 89.1418C92.4776 89.0782 92.5146 89.0063 92.5877 88.9823C92.6607 88.9583 92.743 88.9907 92.7699 89.0543C92.9325 89.4316 93.9027 89.5661 95.3667 89.4149C96.9341 89.2533 98.9151 88.7937 100.945 88.1203C102.975 87.4469 104.807 86.6411 106.105 85.852C107.317 85.115 107.944 84.451 107.782 84.0747C107.754 84.009 107.791 83.9381 107.864 83.9131C107.937 83.8892 108.02 83.9215 108.047 83.9861C108.326 84.6334 107.233 85.4705 106.266 86.0573C104.95 86.8579 103.096 87.6731 101.045 88.3538" fill="#4B4F51" fill-opacity="0.26"/>
<path d="M101.483 89.3793C99.4321 90.059 97.4272 90.5243 95.8374 90.688C94.6703 90.8082 93.2212 90.8155 92.9429 90.1678C92.915 90.1036 92.9521 90.031 93.0251 90.0072C93.0991 89.9834 93.1805 90.0155 93.2082 90.0797C93.3701 90.4559 94.3411 90.5916 95.8042 90.4414C97.3716 90.2797 99.3526 89.8197 101.383 89.1461C103.413 88.4715 105.245 87.6664 106.543 86.8778C107.755 86.14 108.382 85.4758 108.22 85.0986C108.193 85.0344 108.23 84.9629 108.303 84.939C108.376 84.9142 108.457 84.9463 108.485 85.0105C108.763 85.6582 107.67 86.4944 106.704 87.0819C105.388 87.8829 103.534 88.6974 101.483 89.3793" fill="#4B4F51" fill-opacity="0.26"/>
<path d="M101.945 90.4505C99.8941 91.131 97.8891 91.5964 96.2993 91.7601C95.1332 91.8795 93.683 91.8878 93.4047 91.2391C93.377 91.1753 93.414 91.1043 93.4879 91.0796C93.561 91.0548 93.6424 91.0878 93.6701 91.1516C93.832 91.5285 94.803 91.6633 96.267 91.513C97.8336 91.3514 99.8154 90.8911 101.844 90.2178C103.874 89.5434 105.707 88.7383 107.005 87.9496C108.217 87.2134 108.844 86.5473 108.682 86.1715C108.655 86.1066 108.692 86.0346 108.765 86.0109C108.838 85.9862 108.919 86.0191 108.947 86.083C109.225 86.7316 108.132 87.5676 107.167 88.1545C105.85 88.9545 103.996 89.7709 101.945 90.4505" fill="#4B4F51" fill-opacity="0.26"/>
<path d="M102.375 91.4525C100.325 92.133 98.3197 92.5987 96.73 92.7625C95.5629 92.8832 94.1138 92.8904 93.8354 92.2415C93.8077 92.177 93.8447 92.1054 93.9177 92.0819C93.9908 92.0573 94.0731 92.0901 94.1008 92.1535C94.2626 92.5312 95.2327 92.6663 96.6967 92.5148C98.2642 92.3531 100.245 91.8925 102.275 91.2191C104.305 90.5467 106.138 89.7413 107.435 88.9522C108.647 88.2153 109.274 87.5501 109.112 87.1734C109.084 87.109 109.121 87.0373 109.195 87.0128C109.268 86.9882 109.35 87.021 109.378 87.0854C109.656 87.7333 108.563 88.5694 107.596 89.1569C106.28 89.9562 104.426 90.7729 102.375 91.4525" fill="#4B4F51" fill-opacity="0.26"/>
<path d="M102.818 92.478C100.767 93.1585 98.7617 93.6244 97.172 93.7871C96.0058 93.9081 94.5566 93.9153 94.2773 93.2673C94.2504 93.2033 94.2875 93.131 94.3605 93.1066C94.4336 93.0832 94.515 93.1148 94.5427 93.1799C94.7046 93.5562 95.6757 93.6915 97.1396 93.5399C98.7071 93.3782 100.688 92.9184 102.718 92.2451C104.747 91.5717 106.58 90.7661 107.877 89.9768C109.09 89.2404 109.717 88.5752 109.555 88.1988C109.527 88.1348 109.564 88.0625 109.637 88.0381C109.71 88.0137 109.793 88.0463 109.82 88.1104C110.099 88.7593 109.005 89.5954 108.039 90.1823C106.723 90.9818 104.868 91.7975 102.818 92.478" fill="#4B4F51" fill-opacity="0.26"/>
<path d="M104.486 78.6422C104.832 79.4476 102.128 81.0919 98.4467 82.3141C94.7642 83.5352 91.4986 83.8721 91.1519 83.0656C90.8059 82.2601 93.5092 80.6158 97.1918 79.3947C100.873 78.1726 104.14 77.8357 104.486 78.6422Z" fill="#F2F2F2" fill-opacity="0.25"/>
<path fill-rule="evenodd" clip-rule="evenodd" d="M41.0136 93.6036C38.2769 95.8487 36.0584 97.6689 31.4318 93.3153L26.0502 88.2516C22.8326 85.2227 24.7536 83.1229 27.4902 80.8778L27.5 80.8702C30.2367 78.624 32.7772 77.1074 35.9704 80.1125L41.3519 85.1761C45.9786 89.5308 43.76 91.3509 41.0234 93.596L41.0136 93.6036" fill="#FA5652"/>
<path fill-rule="evenodd" clip-rule="evenodd" d="M30.3482 83.5538C27.998 85.4812 25.3116 86.3097 24.348 85.4023C23.3843 84.4959 24.5083 82.1974 26.8586 80.2689C29.2088 78.3414 31.8952 77.5129 32.8589 78.4193C33.8226 79.3268 32.6985 81.6252 30.3482 83.5538" fill="#2F2E41"/>
<path fill-rule="evenodd" clip-rule="evenodd" d="M30.0652 83.3202C28.0313 84.9891 25.7067 85.7049 24.8728 84.92C24.0389 84.1352 25.0116 82.1473 27.0453 80.4773C29.0792 78.8095 31.4039 78.0926 32.2378 78.8775C33.0718 79.6623 32.0991 81.6513 30.0652 83.3202Z" fill="#F2F2F2" fill-opacity="0.21"/>
<path fill-rule="evenodd" clip-rule="evenodd" d="M30.4414 81.0939C30.1567 81.3273 29.6806 81.3123 29.3705 81.0207L29.3607 81.011C29.0506 80.7184 29.0453 80.2806 29.3298 80.0471L30.9625 78.7077C31.247 78.4743 31.7291 78.5216 32.0392 78.8132L32.049 78.8218C32.3591 79.1144 32.3585 79.52 32.0741 79.7534L30.4414 81.0939Z" fill="#3E3C3E"/>
<path d="M40.6445 85.7486C40.6445 85.7486 40.6549 85.8053 40.6564 85.9125C40.6572 85.9661 40.6569 86.0332 40.6499 86.1105C40.6449 86.1878 40.6339 86.2765 40.6151 86.3755C40.5989 86.4755 40.5711 86.5838 40.5355 86.7023C40.5191 86.7632 40.4976 86.824 40.4739 86.8859C40.4519 86.9508 40.423 87.0148 40.3933 87.0818C40.2729 87.3489 40.0969 87.6438 39.8388 87.9387C39.5803 88.2325 39.2359 88.5254 38.8053 88.7677C38.3766 89.011 37.8628 89.1987 37.3161 89.3018C36.7692 89.4059 36.1946 89.4265 35.6379 89.3791C35.0803 89.3317 34.5357 89.2224 34.0298 89.0646C33.8169 88.9997 33.6042 88.9347 33.3921 88.8698C33.3119 88.8491 33.2318 88.8275 33.1528 88.8038C33.0717 88.78 32.9801 88.7646 32.8952 88.7419C32.5516 88.6646 32.2322 88.6151 31.9439 88.6027C31.7975 88.5934 31.6633 88.6006 31.5289 88.6089C31.4937 88.6089 31.4636 88.6171 31.4309 88.6212C31.3986 88.6254 31.3652 88.6285 31.3317 88.6326C31.2999 88.6388 31.2684 88.646 31.2369 88.6532C31.2054 88.6604 31.1707 88.6625 31.1408 88.6728C30.8884 88.7378 30.6387 88.8471 30.4072 88.9914C30.1774 89.1368 29.969 89.3131 29.7892 89.4853C29.6089 89.6586 29.4566 89.8297 29.3329 89.9772C29.3014 90.0133 29.2727 90.0493 29.2463 90.0834C29.2186 90.1164 29.1922 90.1494 29.1691 90.1793C29.1218 90.2401 29.0816 90.2927 29.049 90.335C28.9836 90.4236 28.9489 90.4711 28.9489 90.4711C28.9489 90.4711 28.9239 90.4175 28.8931 90.3133C28.8776 90.2618 28.8598 90.1968 28.8453 90.1215C28.8282 90.0442 28.8146 89.9565 28.805 89.8565C28.7846 89.6565 28.7801 89.4101 28.8234 89.1224C28.8678 88.8368 28.9592 88.5078 29.1492 88.1593C29.3404 87.8139 29.6401 87.4478 30.0717 87.1406C30.4993 86.8292 31.0601 86.6085 31.6388 86.5013C32.22 86.392 32.8139 86.391 33.3736 86.46C33.4432 86.4693 33.5125 86.4796 33.5822 86.4899C33.6526 86.5013 33.7201 86.5075 33.7932 86.524C33.9374 86.5518 34.0816 86.5848 34.2257 86.6178L34.2797 86.6302L34.3225 86.6415L34.406 86.6642C34.4619 86.6786 34.517 86.6951 34.5725 86.7116L34.9158 86.8106C35.2893 86.9292 35.656 87.0199 36.0084 87.087C36.3611 87.154 36.6987 87.1952 37.0212 87.2045C37.3436 87.2148 37.6523 87.1932 37.9521 87.1416C38.2515 87.089 38.542 87.0045 38.8142 86.8972C39.0854 86.7879 39.3375 86.659 39.5605 86.5271C39.7842 86.3951 39.9789 86.2631 40.1394 86.1466C40.1794 86.1177 40.2179 86.0899 40.2524 86.062C40.2878 86.0352 40.3229 86.0105 40.3532 85.9857C40.4156 85.9362 40.4688 85.894 40.5117 85.8599C40.5977 85.7888 40.6445 85.7486 40.6445 85.7486" fill="#F2F2F2"/>
<path fill-rule="evenodd" clip-rule="evenodd" d="M67.7904 91.2149C66.176 87.7951 64.8673 85.0235 71.9142 82.4551L80.111 79.4674C85.0117 77.6813 86.7736 80.2886 88.3874 83.7085L88.3939 83.7204C90.0077 87.1403 90.8261 90.0912 85.9629 91.8632L77.7662 94.8509C70.7193 97.4204 69.4106 94.6477 67.7962 91.2279L67.7904 91.2149Z" fill="#FA5652"/>
<path fill-rule="evenodd" clip-rule="evenodd" d="M84.048 85.2992C82.6615 82.3627 82.7275 79.5488 84.1953 79.0131C85.6631 78.4785 87.9766 80.4254 89.3629 83.362C90.7491 86.2996 90.6835 89.1135 89.2158 89.6481C87.7482 90.1838 85.4344 88.2368 84.048 85.2992Z" fill="#2F2E41"/>
<path fill-rule="evenodd" clip-rule="evenodd" d="M84.441 85.1294C83.2412 82.589 83.2982 80.1535 84.5684 79.6897C85.8385 79.227 87.8411 80.9128 89.0406 83.4533C90.2401 85.9948 90.1837 88.4304 88.913 88.893C87.6432 89.3568 85.6407 87.671 84.441 85.1294Z" fill="#F2F2F2" fill-opacity="0.21"/>
<path fill-rule="evenodd" clip-rule="evenodd" d="M86.9641 86.3561C86.7963 86.0004 87.0016 85.566 87.4743 85.3933L87.489 85.3881C87.9616 85.2164 88.4897 85.3839 88.6571 85.7397L89.6208 87.7792C89.7881 88.135 89.5412 88.5621 89.0686 88.7348L89.0538 88.74C88.5822 88.9127 88.0947 88.7514 87.9273 88.3966L86.9641 86.3561Z" fill="#3E3C3E"/>
<path d="M77.3581 93.9713C77.3581 93.9713 77.2856 93.9575 77.1567 93.9173C77.0922 93.8972 77.0126 93.8707 76.9228 93.8337C76.8313 93.7987 76.7291 93.7532 76.6178 93.6971C76.5041 93.6421 76.3851 93.5733 76.2572 93.4939C76.1916 93.4558 76.1272 93.4113 76.0607 93.3647C75.9925 93.3192 75.9272 93.2674 75.8584 93.2123C75.5858 92.9964 75.301 92.717 75.0487 92.3613C74.7983 92.0057 74.5834 91.5728 74.4624 91.0785C74.34 90.5852 74.3166 90.0348 74.4088 89.4876C74.499 88.9404 74.7005 88.3995 74.9777 87.9031C75.2547 87.4056 75.5999 86.9441 75.9883 86.5376C76.1503 86.3662 76.3123 86.1947 76.4739 86.0243C76.53 85.9576 76.587 85.892 76.6481 85.8285C76.7082 85.7628 76.7626 85.6845 76.8239 85.6147C77.0516 85.3268 77.237 85.0505 77.3652 84.788C77.4337 84.6567 77.4778 84.5287 77.5209 84.4017C77.5349 84.3688 77.5371 84.3381 77.5454 84.3064C77.5525 84.2736 77.5619 84.2418 77.5707 84.209C77.575 84.1773 77.5794 84.1455 77.5838 84.1137C77.5876 84.082 77.5977 84.0481 77.5967 84.0164C77.6194 83.7581 77.5863 83.4829 77.5042 83.2119C77.4202 82.942 77.2923 82.6795 77.1557 82.4446C77.019 82.2096 76.8739 82.0011 76.7461 81.8285C76.7146 81.7851 76.6831 81.7438 76.6529 81.7057C76.6234 81.6676 76.5955 81.6306 76.5683 81.5967C76.5134 81.529 76.4664 81.4708 76.4285 81.4242C76.3483 81.3289 76.3055 81.2781 76.3055 81.2781C76.3055 81.2781 76.3795 81.276 76.5157 81.2887C76.584 81.2951 76.6684 81.3025 76.7654 81.3194C76.8641 81.3342 76.9755 81.3564 77.099 81.3871C77.3469 81.4464 77.6445 81.5406 77.9716 81.693C78.2973 81.8476 78.6555 82.0614 78.9981 82.3747C79.3369 82.6869 79.6583 83.1103 79.8565 83.6311C80.0611 84.1497 80.1056 84.7552 80.0066 85.3342C79.9079 85.9153 79.6742 86.4657 79.371 86.9568C79.3332 87.0182 79.2935 87.0775 79.2537 87.1389C79.2121 87.1992 79.1779 87.2595 79.1294 87.3198C79.0383 87.4426 78.9429 87.5633 78.8463 87.684L78.81 87.7284L78.7794 87.7644L78.7194 87.8332C78.6798 87.8787 78.6381 87.9232 78.5973 87.9687L78.3427 88.2471C78.0529 88.5466 77.7999 88.8504 77.5808 89.1499C77.362 89.4505 77.1794 89.7469 77.0404 90.0412C76.9013 90.3365 76.8047 90.6307 76.7492 90.9292C76.6937 91.2266 76.6807 91.5294 76.7025 91.8236C76.7259 92.1179 76.7821 92.4015 76.8519 92.6598C76.9213 92.9191 77.0035 93.152 77.0798 93.3457C77.0989 93.3944 77.1171 93.442 77.1365 93.4844C77.1548 93.5278 77.171 93.5701 77.1885 93.6082C77.2235 93.6855 77.2531 93.7511 77.2772 93.804C77.328 93.912 77.3581 93.9713 77.3581 93.9713" fill="#F2F2F2"/>
<path d="M26.2852 226.748C26.2852 228.162 25.076 229.307 23.5844 229.307H18.1393C16.6477 229.307 15.4385 228.162 15.4385 226.748V209.119C15.4385 207.705 16.6477 206.56 18.1393 206.56H23.5844C25.076 206.56 26.2852 207.705 26.2852 209.119V226.748" fill="#4B4F51"/>
<path d="M119.644 226.748C119.644 228.162 118.435 229.307 116.943 229.307H111.498C110.006 229.307 108.797 228.162 108.797 226.748V209.119C108.797 207.705 110.006 206.56 111.498 206.56H116.943C118.435 206.56 119.644 207.705 119.644 209.119V226.748Z" fill="#4B4F51"/>
<path d="M120.713 102.339C120.713 102.168 120.708 101.946 120.701 101.83H14.3917C14.3844 101.946 14.3799 102.168 14.3799 102.339L14.587 106.283L119.922 117.397L120.713 102.339" fill="#4B4F51"/>
<path d="M14.583 106.283L20.4186 217.441C20.4186 224.377 26.3535 230 33.6744 230H36.6507H98.434H101.41C108.731 230 114.667 224.377 114.667 217.441L119.918 117.396L14.583 106.283" fill="#74797A"/>
<path d="M125 101C125 102.896 123.324 104.486 121.322 104.486H13.7583C11.7571 104.486 10.1953 102.896 10.1953 101V96.2019C10.1953 94.3063 11.7571 92.8239 13.7583 92.8239H121.322C123.324 92.8239 125 94.3063 125 96.2019V101Z" fill="#74797A"/>
<path d="M73.3832 149.64L68.0738 153.181L75.0364 152.394L75.3434 152.358L76.2308 152.26L82.4221 151.559L85.077 146.521L85.3548 145.993L88.8765 139.309L83.4773 142.91L78.8206 135.268C77.5717 133.443 76.2591 132.646 74.966 132.519C72.6757 132.413 70.3475 134.361 68.6925 136.265C68.2391 136.811 67.8264 137.363 67.4615 137.885C67.3177 138.092 67.1798 138.294 67.0518 138.488C67.1786 138.737 67.3181 139.005 67.4615 139.279C67.6571 139.652 67.8633 140.04 68.0877 140.451C69.4479 142.96 71.3109 146.169 73.3832 149.64" fill="white"/>
<path d="M87.4318 173.755C86.7417 173.708 85.965 173.662 85.1175 173.623C82.1437 173.486 78.2808 173.41 74.0701 173.375L73.4886 167.247L70.7273 173.354L70.6061 173.623L70.2528 174.402L67.7979 179.833L71.0755 184.529L71.4183 185.021L75.7673 191.252L75.1746 185.021H84.4884C86.7822 184.91 88.1652 184.231 88.9289 183.234C90.1717 181.408 89.5545 178.524 88.6406 176.213C88.2617 175.313 87.8297 174.471 87.4318 173.755Z" fill="white"/>
<path d="M98.0965 169.641C98.1074 168.941 97.9506 168.522 97.8545 168.325L97.7398 168.137L89.4586 154.545L79.8984 159.351C80.4921 160.294 81.2103 161.493 81.9714 162.775L87.2009 171.357C87.3879 171.625 87.8141 172.266 88.3161 173.141L88.346 173.144L88.5013 173.414C88.8844 174.079 89.324 174.959 89.7078 175.93C90.479 177.793 91.1053 179.927 90.6933 181.788L98.0965 169.641" fill="white"/>
<path d="M67.4606 136.057C67.6018 135.883 67.7466 135.707 67.8992 135.532C69.2175 133.969 70.8538 132.389 72.7606 131.795H67.4606H57.9561C57.3121 132.136 57.0063 132.473 56.8737 132.652L56.7598 132.838L48.4775 146.431L57.6506 151.872C58.2157 150.912 58.9524 149.724 59.7445 148.457L64.9726 139.877C65.1248 139.588 65.4974 138.919 66.0452 138.069L66.0322 138.045L66.2023 137.782C66.528 137.277 66.9571 136.677 67.4606 136.057Z" fill="white"/>
<path d="M44.3043 173.784C45.3172 173.924 46.3048 173.991 47.1549 174.021C47.5455 173.478 47.9744 172.863 48.433 172.189C50.0461 169.817 52.0476 166.684 54.1847 163.248L60.0763 165.834L55.8752 160.514L55.6895 160.28L55.1546 159.602L51.4183 154.873L45.4872 155.213L44.8651 155.25L36.9951 155.702L42.9861 158.332L38.3296 165.973C37.2854 167.91 37.2145 169.386 37.7443 170.511C38.7918 172.443 41.7375 173.379 44.3043 173.784Z" fill="white"/>
<path d="M59.9251 175.03H49.4657C49.1277 175.049 48.3278 175.08 47.2794 175.055L47.2614 175.078L46.9364 175.068C46.1356 175.051 45.1138 174.973 44.0315 174.8C41.9433 174.503 39.6805 173.948 38.1865 172.68L45.589 184.829C46.2202 185.187 46.6841 185.269 46.9106 185.29H47.1399H63.7045L64.0915 175.042C62.9328 175.055 61.4779 175.048 59.9251 175.03" fill="white"/>
<g clip-path="url(#clip0)">
<path d="M100.232 42.33L119.729 43.9858L118.023 62.9113L98.5267 61.2555L100.232 42.33Z" fill="#EB352F"/>
<path d="M119.729 43.9858L118.023 62.9113L98.5267 61.2555L98.7259 61.243C103.438 60.9433 107.885 59.0162 111.26 55.8104C114.636 52.6045 116.718 48.3317 117.13 43.765L119.729 43.9858Z" fill="#FA5652"/>
<path d="M99.8105 39.7514L120.607 41.5176L120.38 44.041L99.5831 42.2748L99.8105 39.7514Z" fill="#E6E6E6"/>
<path d="M97.877 61.2003L118.673 62.9665L118.446 65.4899L97.6495 63.7237L97.877 61.2003Z" fill="#CCCCCC"/>
<path d="M117.355 41.2414L110.206 40.6343L108.361 38.4999C106.884 36.7916 106.167 34.5838 106.368 32.3624C106.476 31.1573 107.054 30.0377 107.984 29.2324C108.914 28.4271 110.125 27.9967 111.371 28.0292C111.47 28.0312 111.568 28.0364 111.668 28.0449C112.308 28.0992 112.931 28.2753 113.501 28.5632C114.071 28.8512 114.577 29.2453 114.99 29.7232C115.403 30.201 115.715 30.7531 115.908 31.348C116.101 31.9429 116.172 32.5689 116.116 33.1902L115.958 34.9409C115.856 36.0752 115.992 37.2178 116.359 38.2995L117.355 41.2414Z" fill="#CCCCCC"/>
<path d="M81.6299 59.8205L107.625 62.0282L107.398 64.5516L81.4025 62.3439L81.6299 59.8205Z" fill="#E6E6E6"/>
<path d="M81.2402 49.6165L109.835 52.045L109.608 54.5684L81.0128 52.1399L81.2402 49.6165Z" fill="#E6E6E6"/>
<path d="M88.3885 50.2237L88.3885 50.2237C89.9397 50.3554 91.4813 49.8836 92.6742 48.912C93.8671 47.9404 94.6134 46.5486 94.7492 45.0427L94.7492 45.0427C94.7642 44.8754 94.8472 44.7208 94.9797 44.6128C95.1123 44.5049 95.2835 44.4524 95.4559 44.4671L102.605 45.0742C102.777 45.0888 102.936 45.1693 103.048 45.298C103.159 45.4267 103.213 45.5929 103.198 45.7602L103.198 45.7602C103.062 47.2661 102.316 48.6578 101.123 49.6295C99.9299 50.6011 98.3882 51.0729 96.837 50.9412L88.3885 50.2237Z" fill="#CCCCCC"/>
<path d="M98.5264 61.2556L99.8261 61.3659L99.5987 63.8893L98.2989 63.779L98.5264 61.2556Z" fill="#CCCCCC"/>
<path d="M99.4365 51.1619L100.736 51.2723L100.509 53.7957L99.2091 53.6853L99.4365 51.1619Z" fill="#CCCCCC"/>
<path d="M82.3125 52.2503L108.308 54.458L107.626 62.0282L81.6302 59.8205L82.3125 52.2503Z" fill="#2272A2"/>
<path d="M108.308 54.458L107.626 62.0282L100.477 61.4211C102.168 61.2044 103.733 60.4341 104.912 59.2375C106.092 58.0409 106.815 56.4895 106.964 54.8397L107.008 54.3476L108.308 54.458Z" fill="#135E8A"/>
<path d="M100.339 55.6882L101.639 55.7986L101.297 59.5837L99.9977 59.4733L100.339 55.6882Z" fill="#135E8A"/>
<path d="M115.362 37.2176L115.197 31.8321C115.176 31.1678 114.961 30.5229 114.577 29.9729C114.193 29.4228 113.655 28.9904 113.027 28.7261L111.37 28.0292L111.343 28.0173L111.668 28.0449C112.308 28.0991 112.931 28.2752 113.501 28.5632C114.071 28.8511 114.577 29.2453 114.99 29.7231C115.403 30.2009 115.715 30.753 115.908 31.3479C116.101 31.9428 116.172 32.5688 116.115 33.1902L115.958 34.9408C115.855 36.0751 115.992 37.2178 116.358 38.2994L117.354 41.2414L112.155 40.7999C113.056 40.7033 113.886 40.281 114.48 39.6172C115.074 38.9534 115.389 38.0966 115.362 37.2176V37.2176Z" fill="#B3B3B3"/>
</g>
<g clip-path="url(#clip1)">
<path d="M78.941 36.2487V37.0409C78.941 38.967 74.9082 40.5288 69.9339 40.5288C64.9585 40.5288 60.9258 38.9671 60.9258 37.0409V36.2487" fill="#F2F2F2"/>
<path d="M80.0969 8.19879V34.4244C80.0969 36.5982 75.5469 38.3602 69.9342 38.3602C68.2727 38.3602 66.705 38.2064 65.3196 37.9328C62.0261 37.2816 59.7705 35.9552 59.7705 34.4243V8.19879H80.0969Z" fill="#1DB776"/>
<path d="M80.0969 8.19872C80.0969 10.3725 75.5469 12.1346 69.9342 12.1346C68.2508 12.1346 66.6624 11.9762 65.2647 11.6952C62.0005 11.0402 59.7705 9.72036 59.7705 8.19872C59.7705 7.52255 60.2109 6.88526 60.9879 6.32886L78.8794 6.32886C79.6566 6.88526 80.0969 7.52255 80.0969 8.19872Z" fill="#F2F2F2"/>
<path d="M65.3196 8.19879V37.933C62.0261 37.2818 59.7705 35.9554 59.7705 34.4245V8.19879H65.3196V8.19879Z" fill="#1DB776"/>
<path d="M78.9406 3.48822V5.92176C78.9406 7.84774 74.9077 9.40991 69.9336 9.40991C68.8319 9.40991 67.7777 9.33352 66.8022 9.1935C63.371 8.70074 60.9258 7.42124 60.9258 5.92176V3.48822L78.9406 3.48822Z" fill="#F2F2F2"/>
<path d="M66.8023 3.48822V9.19358C63.371 8.70082 60.9258 7.42132 60.9258 5.92184V3.48822H66.8023Z" fill="#CCCCCC"/>
<path d="M78.9417 3.48815C78.9417 5.41414 74.9088 6.97631 69.9337 6.97631C68.7249 6.97631 67.571 6.88417 66.5177 6.71659C63.2363 6.19526 60.9258 4.94624 60.9258 3.48815C60.9258 2.02999 63.2363 0.781047 66.5177 0.259716C67.571 0.0920602 68.7249 3.00813e-09 69.9337 3.00813e-09C74.9088 -7.91545e-05 78.9417 1.56209 78.9417 3.48815Z" fill="#CCCCCC"/>
<path d="M66.5177 0.259583V6.71646C63.2363 6.19513 60.9258 4.9461 60.9258 3.48802C60.9259 2.03002 63.2364 0.780914 66.5177 0.259583Z" fill="white"/>
<path d="M78.3778 4.70402C77.1044 6.03038 73.8041 6.97639 69.9345 6.97639C66.0639 6.97639 62.7637 6.03038 61.4902 4.70402C62.7655 3.37758 66.0649 2.43347 69.9345 2.43347C73.8032 2.43347 77.1025 3.37758 78.3778 4.70402Z" fill="#F2F2F2"/>
<path d="M75.4086 6.25794C73.9321 6.6964 72.095 6.96173 70.0995 6.97543C70.053 6.8354 70.0293 6.6899 70.0293 6.53982C70.0293 5.47128 71.2401 4.60553 72.7336 4.60553C74.0934 4.60553 75.2188 5.32301 75.4086 6.25794Z" fill="#4D4D4D"/>
<path d="M66.8019 9.19361C66.8019 9.19361 65.2637 10.1277 65.2637 11.6953C61.9995 11.0403 59.7695 9.72048 59.7695 8.19883C59.7695 7.52267 60.2099 6.88538 60.9869 6.32898H62.9531L66.8019 9.19361Z" fill="#CCCCCC"/>
</g>
<g clip-path="url(#clip2)">
<path d="M14.7254 38.5007L15.2702 37.3636L4.87013 32.6522C4.54701 32.5056 4.16327 32.6412 4.01284 32.9551C3.86242 33.2691 4.00236 33.6423 4.32548 33.7889L14.7254 38.5007Z" fill="#F2F2F2"/>
<path d="M13.8433 40.2274L14.3881 39.0903L4.03712 34.3906C3.714 34.244 3.33026 34.3795 3.17984 34.6935C3.02941 35.0074 3.16936 35.3806 3.49247 35.5273L13.8433 40.2274Z" fill="#F2F2F2"/>
<path d="M20.0666 36.5829C19.5903 35.4011 18.6897 34.4394 17.5481 33.8648L6.78779 30.037C6.36447 29.8862 5.89338 30.0754 5.70321 30.4723C5.50098 30.8949 5.68928 31.3971 6.12391 31.5943L14.6962 35.4847C15.2219 35.7233 15.4496 36.3306 15.2049 36.8414L13.434 40.5372C13.1893 41.0479 12.5649 41.2686 12.0391 41.03L3.46667 37.14C3.03204 36.9428 2.51539 37.1253 2.31305 37.5476C2.12288 37.9445 2.27678 38.4173 2.66758 38.6359L12.5973 44.1973C13.7833 44.679 15.1192 44.7323 16.3558 44.328L18.7398 43.4936C19.8412 43.1085 21.059 43.1886 22.0985 43.7141L48.6209 57.2463C49.9116 57.8931 51.5943 57.1608 52.2065 55.8825C52.819 54.6042 52.3139 52.879 50.9752 52.3328L23.275 41.2586C22.1932 40.8215 21.3473 39.9651 20.9426 38.8965L20.0666 36.5829Z" fill="#F2F2F2"/>
<path d="M52.176 53.4749C52.1567 53.4362 52.1367 53.3982 52.1154 53.3605C52.0735 53.2856 52.0277 53.2125 51.9783 53.1422C51.9536 53.1071 51.9281 53.0726 51.9016 53.0388C51.6632 52.7349 51.3528 52.4882 50.9761 52.3344L23.276 41.2602C23.1099 41.1933 22.9501 41.1152 22.7957 41.029C22.6988 40.9748 22.6037 40.9181 22.512 40.8572C22.4524 40.8176 22.3943 40.7765 22.337 40.7341C22.1086 40.5642 21.8987 40.3723 21.7108 40.1614C21.3823 39.7925 21.1208 39.3656 20.9434 38.8978L20.0676 36.5845C19.9189 36.215 19.7284 35.8672 19.5023 35.5462C19.4117 35.4176 19.3156 35.2933 19.2141 35.1736C18.7571 34.6354 18.1912 34.1895 17.5491 33.8664L6.78874 30.0386C6.73588 30.0197 6.68238 30.0063 6.62831 29.9977C6.49396 29.9766 6.3589 29.9871 6.23309 30.0249C6.18283 30.04 6.1339 30.0596 6.08751 30.0833C5.9241 30.1664 5.78726 30.3005 5.70415 30.4739C5.50162 30.8966 5.68992 31.3988 6.12486 31.5959L14.6971 35.4863C14.8613 35.5608 14.9967 35.6713 15.0975 35.8038C15.1378 35.8568 15.1724 35.9131 15.2013 35.9721C15.2303 36.0312 15.2534 36.0929 15.2703 36.1561C15.2957 36.251 15.3072 36.3495 15.3035 36.449C15.2986 36.5814 15.2671 36.7152 15.2058 36.8429L14.657 37.9884L15.4402 38.2672C16.5817 38.8418 17.4826 39.8033 17.959 40.9852C17.959 40.9852 17.9683 41.0102 17.9855 41.0549C18.4426 42.2597 19.5457 43.1007 20.8487 43.3103C20.8499 43.3105 20.851 43.3108 20.8524 43.311C20.8784 43.3153 20.9041 43.3204 20.9302 43.325C20.9683 43.3317 21.0063 43.339 21.0442 43.347C21.071 43.3524 21.0973 43.3583 21.1239 43.3644C21.1636 43.3734 21.2029 43.3833 21.2423 43.3934C21.2652 43.3995 21.2884 43.4052 21.311 43.4114C21.3716 43.4282 21.4315 43.446 21.4913 43.4654C21.5036 43.4693 21.5162 43.474 21.5287 43.4782C21.5782 43.4947 21.6275 43.5122 21.6764 43.5305C21.6969 43.5381 21.7169 43.5462 21.7372 43.5542C21.7805 43.5712 21.8234 43.589 21.8663 43.6075C21.8849 43.6155 21.9033 43.6231 21.9217 43.6315C21.9815 43.6581 22.0408 43.686 22.0994 43.7157L43.0887 54.4248L48.8675 56.7351C49.2609 56.8955 49.5815 57.1584 49.8236 57.4814C50.0082 57.4692 50.1924 57.4371 50.3723 57.3871C50.4908 57.3541 50.6075 57.3135 50.7214 57.2657C50.7246 57.2643 50.7278 57.2628 50.7311 57.2616C50.8431 57.2141 50.9528 57.1596 51.0587 57.0984C51.0623 57.0965 51.0661 57.0938 51.0701 57.0918C51.1181 57.0636 51.1658 57.0342 51.2125 57.0032C51.2179 56.9996 51.2232 56.9965 51.2283 56.993C51.2784 56.9595 51.328 56.9245 51.3761 56.888C51.3768 56.8874 51.3773 56.8869 51.3781 56.8863C51.423 56.8523 51.4662 56.8166 51.5092 56.7803C51.5179 56.7726 51.5266 56.7653 51.535 56.7577C51.5775 56.7209 51.6191 56.6828 51.6593 56.6436C51.66 56.6427 51.6611 56.6419 51.6618 56.641C51.7026 56.6009 51.7419 56.5593 51.7802 56.5168C51.7891 56.507 51.7979 56.497 51.8064 56.4871C51.837 56.4522 51.8668 56.4166 51.8954 56.3801C51.9028 56.3709 51.9105 56.3616 51.9178 56.3521C51.9521 56.308 51.9847 56.2629 52.0161 56.2165C52.0222 56.2074 52.0279 56.1981 52.0337 56.1892C52.059 56.1509 52.0833 56.1116 52.1064 56.0721C52.1144 56.0591 52.122 56.0459 52.1295 56.0324C52.157 55.9837 52.1833 55.9345 52.2074 55.8841C52.5328 55.2051 52.5428 54.4 52.2799 53.7122C52.2489 53.6315 52.2144 53.552 52.176 53.4749V53.4749Z" fill="#F2F2F2"/>
<path d="M37.2067 35.2896C38.6646 34.6347 39.7406 33.3756 40.1358 31.8621L41.0093 28.5169C41.7248 25.7773 41.3206 22.873 39.8813 20.4139C39.646 20.0117 39.2822 19.7159 38.864 19.5551C38.4457 19.3943 37.9726 19.3683 37.5181 19.5051C34.741 20.3428 32.4069 22.1938 31.0059 24.67L29.2949 27.6928C28.5207 29.0609 28.4222 30.6958 29.0269 32.1438L30.0294 34.408C30.4923 35.4545 30.4853 36.6409 30.009 37.6806L17.7404 64.2137C17.1554 65.5041 18.0106 67.0941 19.3604 67.6132C20.7107 68.1324 22.4509 67.5407 22.9298 66.2097L32.6023 38.6779C32.9847 37.6022 33.8124 36.7314 34.8849 36.2757L37.2067 35.2896Z" fill="#F2F2F2"/>
<path d="M39.882 20.4139C39.6467 20.0114 39.283 19.7159 38.8646 19.5548C38.7078 19.4944 38.5432 19.4533 38.375 19.4323C38.2065 19.4114 38.0344 19.4109 37.8622 19.4325C37.7472 19.4468 37.6325 19.4708 37.5188 19.505C37.4192 19.5349 37.32 19.567 37.2214 19.5996C37.1915 19.6094 37.1622 19.6198 37.1325 19.63C37.0621 19.6539 36.9919 19.6783 36.9224 19.7035C36.8905 19.7151 36.8587 19.727 36.8268 19.7386C36.7546 19.7658 36.6829 19.7934 36.6115 19.8216C36.586 19.8316 36.5605 19.8413 36.5352 19.8515C36.4378 19.8909 36.3411 19.9314 36.2449 19.9732C37.0536 22.0567 37.1952 24.3439 36.6253 26.5271L35.7517 29.8719C35.4414 31.0613 34.7104 32.0934 33.7044 32.7989C32.9343 33.3387 32.2061 33.9333 31.5584 34.6082C30.9571 35.2348 30.3679 35.8567 30.369 35.8866C30.3691 35.8952 30.3694 35.904 30.3695 35.9125C30.3712 35.9713 30.3718 36.0297 30.3709 36.0881C30.3707 36.1 30.37 36.1118 30.3697 36.1238C30.3681 36.1791 30.3662 36.2345 30.3625 36.2898C30.3613 36.3055 30.3596 36.3209 30.3585 36.3361C30.3543 36.388 30.3499 36.4397 30.3436 36.4917C30.3416 36.5106 30.3382 36.5296 30.3359 36.5488C30.3295 36.5969 30.3229 36.6451 30.3147 36.6928C30.3108 36.716 30.3058 36.7388 30.3012 36.7619C30.2929 36.8057 30.2847 36.8498 30.275 36.8935C30.269 36.921 30.2615 36.948 30.2545 36.9755C30.2448 37.0146 30.2358 37.054 30.225 37.0928C30.2158 37.1254 30.2051 37.1575 30.1952 37.1897C30.1848 37.2234 30.1752 37.2574 30.1639 37.2907C30.1505 37.3308 30.1352 37.3705 30.1203 37.4103C30.1108 37.4358 30.1022 37.4616 30.0924 37.4868C30.0665 37.5517 30.0392 37.6164 30.0096 37.6802L17.7411 64.2136C17.1562 65.504 18.0113 67.094 19.3612 67.6131C20.7115 68.1324 22.4517 67.5407 22.9305 66.2096L32.603 38.6779C32.9854 37.6021 33.8132 36.7314 34.8857 36.2756L37.2075 35.2895C38.6653 34.6346 39.7413 33.3755 40.1365 31.862L41.0101 28.5169C41.7255 25.7772 41.3213 22.8729 39.882 20.4139V20.4139Z" fill="#F2F2F2"/>
</g>
<defs>
<clipPath id="clip0">
<rect width="41.7425" height="40.5381" transform="matrix(0.996413 0.0846212 -0.089765 0.995963 82.2715 23.6413)" fill="white"/>
</clipPath>
<clipPath id="clip1">
<rect x="49.0576" width="41.7517" height="40.5286" fill="white"/>
</clipPath>
<clipPath id="clip2">
<rect width="41.6105" height="40.6736" transform="matrix(0.942882 -0.333128 0.351086 0.936343 0 32.0995)" fill="white"/>
</clipPath>
</defs>
</svg>
