<svg width="150" height="285" viewBox="0 0 150 285" fill="none" xmlns="http://www.w3.org/2000/svg">
<path d="M124.692 144.78C124.552 144.58 124.389 144.381 124.207 144.184C124.614 143.402 124.975 142.6 125.265 141.788C125.672 140.285 125.49 138.13 125.128 136.312C125.571 136.753 126.109 137.536 126.395 138.648C126.617 140.764 125.858 142.861 124.692 144.78ZM118.441 163.302C118.438 163.309 118.435 163.315 118.432 163.322C118.448 163.282 118.461 163.242 118.474 163.202C118.464 163.235 118.454 163.268 118.441 163.302ZM118.777 148.917C117.927 148.813 116.953 148.622 115.839 148.31C115.321 148.165 114.842 148.006 114.399 147.84C114.416 147.782 114.429 147.723 114.442 147.664C114.92 147.851 115.425 148.02 115.95 148.168C116.943 148.446 117.927 148.622 118.862 148.703L118.777 148.917ZM112.087 146.711L112.126 146.601C112.129 146.569 112.132 146.537 112.132 146.504C112.767 146.912 113.5 147.287 114.308 147.611C114.295 147.671 114.279 147.73 114.266 147.789C113.399 147.452 112.68 147.082 112.087 146.711V146.711ZM103.621 159.172C103.625 159.166 103.628 159.161 103.628 159.155C103.657 159.082 103.69 159.01 103.726 158.94C103.687 159.016 103.654 159.094 103.621 159.172ZM125.246 146.804L125.431 146.307C125.431 146.307 127.359 142.025 127.063 138.894C126.77 135.778 124.689 133.921 124.897 133.307C125.112 133.18 125.265 133.019 125.337 132.827C125.35 132.792 125.36 132.758 125.366 132.723C125.386 132.691 125.399 132.657 125.412 132.624C125.509 132.367 125.49 132.094 125.272 131.801L125.786 130.439C125.666 130.755 124.936 130.855 123.965 130.735C123.594 130.543 123.168 130.375 122.702 130.245C122.226 130.111 121.773 130.036 121.334 130.004C120.448 129.605 119.923 129.152 120.044 128.832L119.51 130.25C119.197 130.379 118.992 130.567 118.904 130.801C118.891 130.836 118.871 130.868 118.865 130.902C118.845 130.934 118.826 130.966 118.813 131C118.744 131.179 118.751 131.371 118.822 131.567C118.822 131.566 118.819 131.565 118.819 131.565C118.591 132.17 115.718 132.67 113.341 135.051C110.963 137.434 109.595 141.873 109.595 141.873L109.426 142.376C109.201 142.972 109.24 143.608 109.527 144.252L104.224 158.292C103.775 158.6 103.465 158.977 103.276 159.41L103.273 159.408V159.409C103.26 159.443 103.224 159.471 103.211 159.505C103.149 159.675 103.097 159.844 103.074 160.02L101.25 166.7C101.25 166.7 100.745 169.588 101.615 169.832L101.706 169.858L101.915 169.916C101.915 169.916 102.351 170.037 102.749 169.864C102.749 169.864 103.13 169.762 103.091 170.183C103.051 170.605 103.13 170.989 103.13 170.989C103.13 170.989 103.188 172.152 104.058 172.687C104.094 172.71 104.133 172.732 104.172 172.753C105.149 173.251 105.585 173.373 105.585 173.373C105.585 173.373 106.097 173.653 106.677 173.613C106.918 173.595 107.172 173.521 107.403 173.346C108.191 172.753 109.266 171.938 109.361 171.835C109.465 171.725 109.605 171.756 109.83 172.139L110.504 173.366C110.504 173.366 110.549 173.48 110.663 173.597C110.875 173.812 111.315 174.039 112.132 173.605C113.393 172.934 113.393 172.934 113.393 172.934C113.393 172.934 114.445 172.228 114.966 171.167L118.295 164.301C118.402 164.143 118.49 163.977 118.559 163.802C118.722 163.366 118.689 162.893 118.559 162.424C118.552 162.341 118.542 162.258 118.529 162.174C118.513 162.129 118.497 162.085 118.477 162.04L123.799 148.34C124.503 147.95 125.011 147.434 125.246 146.804" fill="#135E8A" fill-opacity="0.15"/>
<path d="M126.115 130.98C126.008 131.264 125.653 131.42 125.322 131.328L119.94 129.82C119.612 129.728 119.429 129.422 119.537 129.139L120.119 127.594C120.226 127.309 120.581 127.155 120.913 127.247L126.294 128.753C126.626 128.845 126.805 129.151 126.698 129.435L126.115 130.98Z" fill="#135E8A"/>
<path d="M106.33 135.463C106.022 135.246 105.679 135.04 105.308 134.847C105.415 133.589 105.45 132.32 105.374 131.071C105.053 128.814 103.544 125.909 101.978 123.55C102.846 123.968 104.053 124.819 105.101 126.232C106.648 129.066 106.824 132.298 106.33 135.463ZM108.525 163.816C108.525 163.826 108.525 163.836 108.525 163.846C108.522 163.785 108.519 163.724 108.512 163.663C108.519 163.714 108.522 163.765 108.525 163.816V163.816ZM100.563 143.757C99.3273 143.981 97.8683 144.139 96.142 144.191C95.337 144.215 94.5855 144.204 93.8748 144.164C93.8591 144.078 93.8466 143.991 93.8308 143.904C94.6012 143.954 95.3999 143.969 96.2143 143.945C97.752 143.899 99.2141 143.716 100.557 143.424L100.563 143.757ZM90.0134 143.606L90.004 143.436C89.9851 143.39 89.9725 143.345 89.9537 143.299C91.0731 143.588 92.3057 143.79 93.6138 143.888C93.6296 143.976 93.6453 144.064 93.661 144.152C92.2617 144.063 91.0511 143.862 90.0134 143.606V143.606ZM85.5923 164.531C85.5892 164.522 85.5892 164.513 85.5892 164.504C85.5829 164.391 85.5892 164.277 85.5955 164.165C85.5892 164.286 85.586 164.408 85.5923 164.531ZM108.286 138.024L108.248 137.255C108.248 137.255 108.412 130.489 106.17 126.284C103.934 122.098 99.9688 120.429 99.8934 119.489C100.12 119.221 100.236 118.932 100.224 118.633C100.224 118.581 100.214 118.528 100.205 118.477C100.211 118.425 100.211 118.373 100.211 118.32C100.195 117.922 100.01 117.552 99.5349 117.241L99.4468 115.133C99.4689 115.623 98.5161 116.077 97.1011 116.333C96.4753 116.229 95.7867 116.182 95.0634 116.204C94.3276 116.226 93.6579 116.318 93.0321 116.464C91.5668 116.297 90.5794 115.896 90.5606 115.4L90.6486 117.594C90.2901 117.911 90.1172 118.259 90.1298 118.623C90.1329 118.675 90.1266 118.727 90.1392 118.779C90.1298 118.83 90.1203 118.884 90.1235 118.936C90.1329 119.214 90.2524 119.477 90.4662 119.716L90.4631 119.714C90.5008 120.653 86.8155 122.592 84.9194 126.921C83.0201 131.25 83.7308 137.99 83.7308 137.99L83.7905 138.759C83.8282 139.682 84.2559 140.545 85.0263 141.312L85.9068 163.052C85.4665 163.671 85.259 164.33 85.2527 165.009C85.2527 165.008 85.2433 165.008 85.2433 165.008V165.009C85.2464 165.062 85.215 165.117 85.2181 165.17C85.2275 165.432 85.2558 165.689 85.3282 165.941L86.7149 175.982C86.7149 175.982 87.7054 180.2 89.0544 180.159L89.1959 180.154L89.5197 180.144C89.5197 180.144 90.1958 180.124 90.6423 179.71C90.6423 179.71 91.1108 179.405 91.3058 180.005C91.4976 180.606 91.8278 181.105 91.8278 181.105C91.8278 181.105 92.5919 182.688 94.1075 183.052C94.1704 183.067 94.2365 183.082 94.3025 183.093C95.9502 183.359 96.6231 183.339 96.6231 183.339C96.6231 183.339 97.4973 183.504 98.274 183.196C98.5978 183.067 98.9091 182.855 99.1261 182.511C99.8682 181.349 100.881 179.753 100.953 179.569C101.029 179.374 101.239 179.354 101.777 179.788L103.428 181.194C103.428 181.194 103.557 181.331 103.786 181.444C104.201 181.651 104.947 181.773 105.821 180.818C107.179 179.34 107.179 179.34 107.179 179.34C107.179 179.34 108.22 177.908 108.321 176.213L108.909 165.262C108.965 164.997 108.99 164.729 108.978 164.458C108.953 163.783 108.626 163.143 108.173 162.55C108.116 162.438 108.056 162.326 107.987 162.217C107.937 162.162 107.887 162.107 107.836 162.054L107.182 140.778C107.924 139.933 108.327 138.998 108.286 138.024" fill="#135E8A" fill-opacity="0.15"/>
<path d="M100.21 115.741C100.228 116.181 99.8296 116.551 99.3166 116.566L90.9842 116.816C90.4712 116.831 90.0447 116.487 90.0261 116.047L89.9303 113.655C89.9118 113.215 90.3105 112.846 90.8235 112.83L99.1558 112.581C99.6689 112.566 100.095 112.909 100.114 113.35L100.21 115.741Z" fill="#135E8A"/>
<path d="M82.168 142.753C81.9643 142.537 81.7336 142.326 81.4789 142.12C81.8055 141.14 82.0781 140.142 82.2609 139.144C82.4466 137.314 81.8145 134.801 81.0325 132.712C81.6407 133.167 82.4286 134.012 82.9799 135.281C83.654 137.741 83.1686 140.323 82.168 142.753ZM78.4111 165.481C78.4111 165.489 78.4081 165.497 78.4051 165.505C78.4171 165.456 78.4231 165.407 78.4291 165.358C78.4261 165.4 78.42 165.441 78.4111 165.481V165.481ZM76.0023 148.482C74.9807 148.482 73.7973 148.397 72.4222 148.191C71.784 148.095 71.1878 147.977 70.6366 147.845C70.6426 147.774 70.6455 147.703 70.6515 147.632C71.2507 147.782 71.8799 147.908 72.527 148.006C73.7524 148.191 74.9447 148.257 76.0592 148.218L76.0023 148.482ZM67.6915 146.848L67.7155 146.713C67.7125 146.674 67.7095 146.636 67.7035 146.597C68.5334 146.987 69.4681 147.323 70.4838 147.589C70.4778 147.661 70.4748 147.732 70.4688 147.804C69.3813 147.532 68.4615 147.199 67.6915 146.848V146.848ZM60.1448 162.756C60.1448 162.748 60.1477 162.741 60.1477 162.734C60.1657 162.643 60.1897 162.555 60.2197 162.466C60.1897 162.561 60.1627 162.658 60.1448 162.756V162.756ZM83.2166 145.058L83.3364 144.444C83.3364 144.444 84.7745 139.12 83.8158 135.473C82.8601 131.844 80.0469 129.956 80.1727 129.202C80.4004 129.023 80.5502 128.811 80.5981 128.573C80.6071 128.531 80.6101 128.489 80.6131 128.446C80.6281 128.407 80.6401 128.366 80.649 128.324C80.712 128.007 80.6371 127.688 80.3225 127.374L80.661 125.695C80.5831 126.085 79.7413 126.308 78.5758 126.307C78.0995 126.135 77.5632 125.998 76.991 125.912C76.4038 125.824 75.8555 125.8 75.3312 125.826C74.2077 125.484 73.5037 125.026 73.5846 124.63L73.2311 126.378C72.8865 126.576 72.6798 126.827 72.6229 127.116C72.6139 127.158 72.5989 127.199 72.5959 127.241C72.5809 127.281 72.563 127.321 72.554 127.363C72.509 127.585 72.554 127.809 72.6738 128.03C72.6738 128.029 72.6738 128.027 72.6738 128.027C72.521 128.774 69.2315 129.778 66.8946 132.928C64.5578 136.079 63.8118 141.508 63.8118 141.508L63.7099 142.124C63.5601 142.859 63.7309 143.603 64.1923 144.32L60.681 161.631C60.2136 162.058 59.92 162.548 59.7822 163.084C59.7822 163.084 59.7762 163.083 59.7762 163.083V163.083C59.7672 163.126 59.7343 163.164 59.7253 163.207C59.6834 163.416 59.6534 163.624 59.6654 163.833L58.8175 171.969C58.8175 171.969 58.7816 175.445 59.8571 175.606L59.968 175.623L60.2256 175.662C60.2256 175.662 60.7649 175.742 61.1993 175.48C61.1993 175.48 61.6277 175.305 61.6637 175.807C61.7026 176.31 61.8644 176.752 61.8644 176.752C61.8644 176.752 62.164 178.113 63.2905 178.618C63.3384 178.64 63.3864 178.66 63.4373 178.679C64.6866 179.125 65.2259 179.206 65.2259 179.206C65.2259 179.206 65.882 179.462 66.5561 179.33C66.8377 179.274 67.1223 179.152 67.362 178.911C68.1739 178.099 69.2854 176.983 69.3753 176.848C69.4741 176.703 69.6449 176.72 69.9865 177.138L71.0171 178.486C71.0171 178.486 71.095 178.615 71.2537 178.736C71.5414 178.959 72.1046 179.163 72.9824 178.534C74.3426 177.56 74.3426 177.56 74.3426 177.56C74.3426 177.56 75.4421 176.577 75.8495 175.252L78.435 166.679C78.5309 166.478 78.6028 166.269 78.6477 166.053C78.7556 165.516 78.6208 164.963 78.3781 164.43C78.3571 164.333 78.3302 164.236 78.2972 164.14C78.2673 164.089 78.2373 164.039 78.2073 163.989L81.8085 147.077C82.5635 146.515 83.0578 145.833 83.2166 145.058" fill="#135E8A" fill-opacity="0.15"/>
<path d="M81.1522 126.285C81.0808 126.635 80.6938 126.87 80.286 126.808L73.6511 125.81C73.2433 125.749 72.9724 125.415 73.0409 125.065L73.4278 123.16C73.4993 122.809 73.8862 122.575 74.294 122.637L80.932 123.634C81.3368 123.696 81.6106 124.029 81.5392 124.38L81.1522 126.285" fill="#135E8A"/>
<path d="M59.253 138.887C58.8761 138.692 58.4674 138.515 58.0297 138.355C57.9195 136.97 57.7282 135.586 57.4209 134.238C56.6702 131.826 54.5019 128.868 52.3742 126.511C53.3974 126.85 54.8613 127.614 56.2527 129.012C58.4471 131.887 59.2182 135.38 59.253 138.887V138.887ZM66.7376 169.431C66.7405 169.442 66.7405 169.453 66.7434 169.464C66.7289 169.398 66.7144 169.332 66.6941 169.267C66.7115 169.321 66.726 169.376 66.7376 169.431ZM54.4729 148.676C53.1685 149.085 51.6089 149.451 49.7421 149.738C48.8696 149.871 48.0492 149.959 47.2723 150.011C47.2405 149.918 47.2086 149.826 47.1767 149.733C48.0231 149.686 48.8928 149.595 49.774 149.461C51.4379 149.205 52.9974 148.811 54.4033 148.315L54.4729 148.676ZM42.9705 149.918L42.93 149.735C42.9039 149.688 42.8778 149.64 42.8517 149.593C44.1185 149.758 45.4954 149.813 46.939 149.745C46.9709 149.839 47.0027 149.933 47.0346 150.026C45.4983 150.115 44.1446 150.059 42.9705 149.918V149.918ZM41.9241 173.266C41.9212 173.256 41.9183 173.246 41.9183 173.237C41.8922 173.113 41.8748 172.99 41.8661 172.866C41.8777 172.999 41.898 173.133 41.9241 173.266ZM61.8387 141.411L61.6589 140.58C61.6589 140.58 60.6183 133.201 57.4239 128.926C54.2439 124.67 49.6291 123.385 49.3798 122.371C49.574 122.05 49.6522 121.72 49.5856 121.397C49.5711 121.34 49.5537 121.285 49.5334 121.23C49.5305 121.173 49.5247 121.116 49.5131 121.058C49.4232 120.628 49.1565 120.251 48.5826 119.976L48.1101 117.693C48.2203 118.224 47.2665 118.845 45.7737 119.312C45.0751 119.283 44.3156 119.322 43.5358 119.442C42.7357 119.564 42.0256 119.753 41.3704 119.996C39.75 120.01 38.6021 119.706 38.4919 119.169L38.9818 121.544C38.6514 121.935 38.5238 122.338 38.605 122.73C38.6166 122.787 38.6195 122.845 38.6398 122.9C38.6427 122.957 38.6398 123.015 38.6514 123.072C38.7152 123.373 38.892 123.644 39.1674 123.876C39.1674 123.875 39.1616 123.874 39.1616 123.874C39.3732 124.889 35.712 127.489 34.4279 132.451C33.1437 137.413 35.1265 144.649 35.1265 144.649L35.3294 145.475C35.5352 146.474 36.1555 147.358 37.1353 148.088L42.0024 171.614C41.6342 172.347 41.527 173.09 41.64 173.831H41.6313L41.6342 173.833C41.6429 173.89 41.6226 173.953 41.6342 174.01C41.6922 174.294 41.7676 174.57 41.8922 174.833L45.2084 185.569C45.2084 185.569 47.0404 190.024 48.5043 189.8L48.6551 189.777L49.0058 189.724C49.0058 189.724 49.7363 189.611 50.1508 189.101C50.1508 189.101 50.603 188.706 50.9219 189.333C51.2408 189.961 51.6872 190.46 51.6872 190.46C51.6872 190.46 52.8061 192.08 54.5164 192.274C54.5889 192.282 54.6642 192.289 54.7396 192.292C56.5745 192.362 57.3079 192.25 57.3079 192.25C57.3079 192.25 58.2877 192.313 59.0762 191.875C59.4066 191.691 59.7023 191.419 59.8791 191.017C60.4792 189.653 61.2908 187.783 61.3372 187.574C61.3836 187.35 61.6097 187.302 62.2735 187.701L64.32 189.01C64.32 189.01 64.4852 189.143 64.7548 189.235C65.2447 189.405 66.0767 189.439 66.8564 188.283C68.0652 186.495 68.0652 186.495 68.0652 186.495C68.0652 186.495 68.9407 184.798 68.7464 182.942L67.4159 170.952C67.4275 170.657 67.4072 170.362 67.3463 170.069C67.1956 169.338 66.7289 168.686 66.1289 168.1C66.0448 167.986 65.9578 167.873 65.8651 167.764C65.8013 167.711 65.7375 167.658 65.6709 167.606L61.1314 144.554C61.7894 143.536 62.0561 142.466 61.8387 141.411" fill="#135E8A" fill-opacity="0.15"/>
<path d="M49.0536 118.252C49.1508 118.729 48.7814 119.184 48.2287 119.268L39.2105 120.651C38.6578 120.736 38.1301 120.419 38.0302 119.942L37.4941 117.353C37.3969 116.877 37.7636 116.423 38.3162 116.337L47.3371 114.955C47.8898 114.87 48.4175 115.187 48.5175 115.663L49.0536 118.252" fill="#135E8A"/>
<path d="M36.3174 281.745C36.3174 283.16 35.0866 284.306 33.5684 284.306H28.0263C26.5081 284.306 25.2773 283.16 25.2773 281.745V264.098C25.2773 262.683 26.5081 261.536 28.0263 261.536H33.5684C35.0866 261.536 36.3174 262.683 36.3174 264.098V281.745" fill="#4B4F51"/>
<path d="M131.338 281.745C131.338 283.16 130.107 284.306 128.589 284.306H123.047C121.528 284.306 120.298 283.16 120.298 281.745V264.098C120.298 262.683 121.528 261.536 123.047 261.536H128.589C130.107 261.536 131.338 262.683 131.338 264.098V281.745Z" fill="#4B4F51"/>
<path d="M132.425 157.211C132.425 157.039 132.42 156.817 132.412 156.701H24.2083C24.2009 156.817 24.1963 157.039 24.1963 157.211L24.4071 161.158L131.619 172.284L132.425 157.211" fill="#D0A60F"/>
<path d="M24.4072 161.158L30.3468 272.428C30.3468 279.371 36.3875 285 43.8389 285H46.8682H109.753H112.782C120.233 285 126.274 279.371 126.274 272.428L131.62 172.283L24.4072 161.158" fill="#F5C108"/>
<path d="M136.791 155.871C136.791 157.769 135.085 159.36 133.047 159.36H23.5669C21.53 159.36 19.9404 157.769 19.9404 155.871V151.068C19.9404 149.17 21.53 147.686 23.5669 147.686H133.047C135.085 147.686 136.791 149.17 136.791 151.068V155.871Z" fill="#F5C108"/>
<path d="M84.2529 204.559L78.8488 208.104L85.9356 207.316L86.248 207.28L87.1512 207.182L93.4529 206.48L96.1551 201.437L96.4378 200.909L100.022 194.218L94.5269 197.823L89.7872 190.173C88.516 188.346 87.18 187.548 85.8639 187.421C83.5328 187.315 81.163 189.265 79.4786 191.171C79.017 191.718 78.597 192.27 78.2256 192.792C78.0793 192.999 77.939 193.202 77.8086 193.396C77.9377 193.645 78.0796 193.914 78.2256 194.188C78.4247 194.561 78.6346 194.949 78.863 195.361C80.2475 197.872 82.1436 201.085 84.2529 204.559" fill="white"/>
<path d="M98.5522 228.698C97.8499 228.651 97.0593 228.605 96.1967 228.567C93.1699 228.429 89.2381 228.353 84.9524 228.318L84.3605 222.184L81.55 228.297L81.4266 228.567L81.067 229.346L78.5684 234.783L81.9044 239.484L82.2534 239.976L86.6798 246.213L86.0766 239.976H95.5564C97.891 239.865 99.2987 239.185 100.076 238.187C101.341 236.359 100.713 233.472 99.7826 231.159C99.397 230.258 98.9572 229.415 98.5522 228.698Z" fill="white"/>
<path d="M109.406 224.581C109.417 223.88 109.258 223.461 109.16 223.263L109.043 223.074L100.614 209.469L90.8838 214.28C91.488 215.224 92.219 216.424 92.9937 217.708L98.3164 226.298C98.5068 226.566 98.9406 227.208 99.4515 228.084L99.4819 228.087L99.6399 228.357C100.03 229.022 100.477 229.903 100.868 230.875C101.653 232.741 102.29 234.877 101.871 236.74L109.406 224.581" fill="white"/>
<path d="M78.2246 190.963C78.3684 190.788 78.5158 190.613 78.6711 190.437C80.0129 188.872 81.6783 187.291 83.6192 186.697H78.2246H68.5508C67.8953 187.038 67.5841 187.375 67.4491 187.554L67.3331 187.74L58.9033 201.347L68.2399 206.793C68.815 205.833 69.5649 204.643 70.371 203.375L75.6924 194.786C75.8473 194.497 76.2265 193.827 76.7841 192.976L76.7708 192.952L76.944 192.69C77.2754 192.183 77.7122 191.583 78.2246 190.963Z" fill="white"/>
<path d="M54.6562 228.727C55.6872 228.867 56.6924 228.934 57.5576 228.964C57.9552 228.421 58.3917 227.805 58.8585 227.131C60.5004 224.756 62.5376 221.62 64.7127 218.18L70.7094 220.769L66.4334 215.444L66.2443 215.21L65.6999 214.531L61.897 209.797L55.8602 210.138L55.2271 210.175L47.2168 210.627L53.3145 213.26L48.5751 220.908C47.5123 222.848 47.4401 224.325 47.9793 225.451C49.0455 227.385 52.0437 228.322 54.6562 228.727Z" fill="white"/>
<path d="M70.5557 229.975H59.9099C59.5658 229.994 58.7517 230.025 57.6846 229.999L57.6663 230.023L57.3355 230.013C56.5205 229.996 55.4805 229.917 54.3788 229.745C52.2534 229.447 49.9502 228.892 48.4297 227.623L55.9641 239.784C56.6066 240.142 57.0787 240.224 57.3093 240.245H57.5426H74.4025L74.7963 229.987C73.617 229.999 72.1362 229.993 70.5557 229.975" fill="white"/>
<path d="M138.494 73.0094L124.313 69.8839C122.584 69.5029 121.474 67.986 121.834 66.4977C122.193 65.0095 123.888 64.1111 125.617 64.4921L139.798 67.6176C141.527 67.9986 142.638 69.5155 142.278 71.0037C141.918 72.492 140.223 73.3905 138.494 73.0094ZM142.952 65.1494L121.337 60.3855L117.577 63.0634L112.929 57.5332L112.044 58.3374L111.268 58.2646L104.013 62.539L107.158 67.783L102.112 70.3997L95.7285 96.795C94.9713 99.9264 97.306 103.115 100.944 103.916L131.925 110.745C135.563 111.546 139.125 109.658 139.883 106.527L148.167 72.2707C148.924 69.1393 146.589 65.9511 142.952 65.1494" fill="#135E8A" fill-opacity="0.15"/>
<path d="M113.564 56.9539C114.017 57.4859 113.904 58.2185 113.308 58.5907L105.299 63.5927C104.704 63.9623 103.856 63.83 103.404 63.2954C102.948 62.7628 103.062 62.0301 103.657 61.658L111.669 56.6566C112.261 56.2864 113.109 56.4186 113.564 56.9539Z" fill="#135E8A"/>
<path d="M48.1003 39.2232C40.2455 37.4432 38.0959 44.3259 38.0959 44.3259C38.0959 44.3259 42.534 54.7212 40.5505 58.2933C39.6806 59.8579 36.0261 61.6023 32.1989 63.0664C28.2813 64.2934 24.3104 65.1986 22.5905 64.5339C18.6629 63.0157 15.0665 52.328 15.0665 52.328C15.0665 52.328 8.78868 48.3735 3.96703 54.5583C3.96703 54.5583 10.1261 78.5968 14.5839 92.4441C17.9111 102.772 26.8087 105.95 36.7365 104.766C39.6544 104.417 42.7894 103.656 46.1444 102.491C46.824 102.254 47.4607 102.033 48.0638 101.824C51.4158 100.659 54.3297 99.3181 56.7975 97.7981C65.2063 92.6112 70.9489 84.2502 65.4783 74.7658C57.7871 61.4302 48.1003 39.2232 48.1003 39.2232" fill="#F2F2F2"/>
<path d="M81.5017 24.7216L78.5116 26.2747L64.4501 5.78065C64.2734 5.52311 64.1559 5.23629 64.1046 4.93717C64.0533 4.63804 64.0693 4.3327 64.1515 4.03922C64.2338 3.74575 64.3807 3.4701 64.5835 3.22862C64.7863 2.98715 65.041 2.78474 65.3323 2.63339C65.6237 2.48206 65.9458 2.38487 66.2797 2.34757C66.6136 2.31027 66.9524 2.33362 67.276 2.41624C67.5997 2.49886 67.9016 2.63906 68.1639 2.82855C68.4263 3.01805 68.6437 3.25297 68.8032 3.51941L81.5017 24.7216Z" fill="#1DB776" fill-opacity="0.65"/>
<path d="M73.953 12.1139C73.1645 12.1504 72.3796 11.9961 71.68 11.6669C70.9804 11.3378 70.3918 10.8459 69.9754 10.2425L65.3892 3.56124C65.234 3.32942 65.122 3.07628 65.0577 2.81189C64.5664 3.15166 64.2326 3.6433 64.121 4.19169C64.0094 4.74007 64.1279 5.30621 64.4535 5.78054L78.515 26.2746L81.5051 24.7215L73.953 12.1139Z" fill="#1DB776"/>
<path d="M102.056 6.98877C103.429 6.98877 104.747 7.47964 105.718 8.3534C106.689 9.22716 107.235 10.4122 107.235 11.6479C107.235 13.0756 106.922 14.4892 106.315 15.8082C105.708 17.1272 104.818 18.3256 103.695 19.3351C102.573 20.3446 101.241 21.1454 99.7749 21.6917C98.3087 22.238 96.7372 22.5192 95.1502 22.5192H93.4238V14.754C93.4238 12.6945 94.3333 10.7194 95.9521 9.26315C97.5709 7.80689 99.7665 6.98877 102.056 6.98877V6.98877Z" fill="#DCE7ED"/>
<path d="M91.2274 47.368H74.9043C73.6013 47.3679 72.3462 46.926 71.3893 46.1304C70.4324 45.3348 69.8441 44.2439 69.7416 43.0754L67.5283 17.8601H98.6034L96.3901 43.0754C96.2876 44.2439 95.6993 45.3348 94.7424 46.1304C93.7855 46.926 92.5304 47.3679 91.2274 47.368V47.368Z" fill="#DCE7ED" fill-opacity="0.87"/>
<path d="M100.329 14.754H65.8016C64.8481 14.754 64.0752 15.4494 64.0752 16.3071C64.0752 17.1648 64.8481 17.8601 65.8016 17.8601H100.329C101.283 17.8601 102.056 17.1648 102.056 16.3071C102.056 15.4494 101.283 14.754 100.329 14.754Z" fill="#DCE7ED" fill-opacity="0.65"/>
<path d="M102.056 6.98877H85.6554C83.3661 6.98877 81.1705 7.80689 79.5517 9.26315C77.9329 10.7194 77.0234 12.6945 77.0234 14.754H96.8769C96.8769 13.3209 97.2702 11.9099 98.0219 10.6463C98.7736 9.38269 99.8605 8.3056 101.186 7.51059L102.056 6.98877Z" fill="#DCE7ED" fill-opacity="0.65"/>
<path d="M65.8016 14.754C65.3437 14.754 64.9046 14.9177 64.5808 15.2089C64.2571 15.5002 64.0752 15.8952 64.0752 16.3071C64.0752 16.719 64.2571 17.114 64.5808 17.4052C64.9046 17.6965 65.3437 17.8601 65.8016 17.8601H100.329C100.787 17.8601 101.226 17.6965 101.55 17.4052C101.874 17.114 102.056 16.719 102.056 16.3071H67.528C67.0701 16.3071 66.631 16.1435 66.3072 15.8522C65.9835 15.5609 65.8016 15.1659 65.8016 14.754Z" fill="#DCE7ED" fill-opacity="0.87"/>
<path d="M87.1082 12.4245C86.4123 12.425 85.7325 12.2364 85.1579 11.8833C84.5832 11.5303 84.1406 11.0293 83.888 10.446C83.6353 9.86268 83.5845 9.22434 83.7422 8.61463C83.8999 8.00491 84.2586 7.45228 84.7715 7.02917C82.6463 7.22597 80.6778 8.12473 79.2466 9.55163C77.8154 10.9785 77.0233 12.8322 77.0234 14.754H96.8769C96.8803 13.9662 97.0029 13.1825 97.2412 12.4245H87.1082Z" fill="#DCE7ED" fill-opacity="0.87"/>
<path d="M95.5433 42.7089H91.9844C87.2065 42.7089 82.6041 41.0887 79.0952 38.1715C75.5863 35.2543 73.4287 31.2544 73.0528 26.9695C72.9106 25.3492 73.4653 23.7416 74.6023 22.4785C75.7393 21.2153 77.372 20.393 79.1633 20.1811L98.6034 17.8818V17.8601H67.5283L69.7416 43.0754C69.8441 44.2439 70.4324 45.3348 71.3893 46.1304C72.3462 46.926 73.6013 47.3679 74.9043 47.368H91.2274C92.5304 47.3679 93.7855 46.926 94.7424 46.1304C95.6993 45.3348 96.2876 44.2439 96.3901 43.0754L96.429 42.6328C96.1367 42.681 95.8404 42.7065 95.5433 42.7089V42.7089Z" fill="#DCE7ED"/>
<path d="M97.5324 30.0767C95.5739 29.3297 93.5167 28.8122 91.4115 28.5368C90.5961 27.1858 89.3905 26.0578 87.9218 25.2717C86.4532 24.4857 84.7759 24.0708 83.067 24.0708C81.3581 24.0708 79.6808 24.4857 78.2122 25.2717C76.7435 26.0578 75.5379 27.1858 74.7225 28.5368C72.6173 28.8122 70.5601 29.3297 68.6016 30.0767L69.0634 35.3345C70.8876 35.9753 72.7858 36.4306 74.7225 36.6919C75.5379 38.0429 76.7435 39.1709 78.2122 39.957C79.6808 40.743 81.3581 41.1579 83.067 41.1579C84.7759 41.1579 86.4532 40.743 87.9218 39.957C89.3905 39.1709 90.5961 38.0429 91.4115 36.6919C93.3483 36.4298 95.2465 35.9738 97.0706 35.3322L97.5324 30.0767Z" fill="#FA5652" fill-opacity="0.71"/>
<path d="M73.3267 28.7717C71.7029 29.048 70.1181 29.4855 68.6016 30.0763L69.0634 35.3341C70.8876 35.9749 72.7858 36.4302 74.7225 36.6915C75.5382 38.0422 76.7439 39.1699 78.2125 39.9556C79.6812 40.7413 81.3583 41.1559 83.067 41.1557C83.3752 41.1557 83.6712 41.1247 83.9759 41.099C81.2392 39.9541 78.8454 38.2384 76.9933 36.0945C75.1412 33.9506 73.8842 31.4402 73.3267 28.7717V28.7717Z" fill="#FA5652"/>
</svg>
