<svg width="200" height="150" viewBox="0 0 200 150" fill="none" xmlns="http://www.w3.org/2000/svg">
<g clip-path="url(#clip0)">
<path d="M102.093 2.80212L48.106 32.4999C49.0292 34.114 49.624 35.8998 49.8551 37.7516C50.0862 39.6034 49.9489 41.4834 49.4515 43.2804C48.954 45.0773 48.1064 46.7545 46.959 48.2127C45.8115 49.6708 44.3875 50.8803 42.7714 51.7693C41.1553 52.6583 39.3799 53.2088 37.5504 53.3882C35.7209 53.5676 33.8746 53.3723 32.1208 52.8138C30.367 52.2552 28.7415 51.3448 27.3405 50.1366C25.9395 48.9283 24.7916 47.4468 23.9648 45.7797L5.55664 55.9058L53.2394 145.307L149.776 92.2037L102.093 2.80212Z" fill="#F2F2F2"/>
<path opacity="0.2" d="M47.3194 81.1104L37.4072 78.4213L34.7593 88.4877L44.6715 91.1768L47.3194 81.1104Z" fill="#1DB776"/>
<path d="M61.1376 121.619C53.2144 133.959 55.3853 149.654 55.3853 149.654C55.3853 149.654 70.4024 145.342 78.3257 133.002C86.2489 120.662 84.078 104.967 84.078 104.967C84.078 104.967 69.0609 109.279 61.1376 121.619Z" fill="#3F3D56"/>
<path d="M55.3435 149.51C55.3435 149.51 55.1506 149.479 54.7956 149.406C54.5124 149.348 54.1225 149.264 53.6465 149.15C49.3907 148.131 38.0763 144.686 30.679 135.629C21.4206 124.289 21.8105 108.445 21.8105 108.445C21.8105 108.445 35.9669 110.781 45.295 120.965C45.6993 121.403 46.0926 121.856 46.4749 122.326C54.5309 132.193 55.2819 145.469 55.3414 148.752C55.3496 149.243 55.3435 149.51 55.3435 149.51Z" fill="#1DB776"/>
<path d="M49.6328 121.619C57.556 133.959 55.3851 149.654 55.3851 149.654C55.3851 149.654 40.368 145.342 32.4447 133.002C24.5215 120.662 26.6925 104.967 26.6925 104.967C26.6925 104.967 41.7096 109.279 49.6328 121.619Z" stroke="#3F3D56" stroke-width="2" stroke-miterlimit="10"/>
<path opacity="0.1" d="M55.3411 148.752C55.1318 149.008 54.9471 149.227 54.7953 149.406C54.4588 149.796 54.2679 150 54.2679 150C54.2679 150 54.0361 149.704 53.6462 149.15C51.506 146.12 44.6217 135.346 45.1532 122.901C45.1819 122.249 45.2291 121.603 45.2948 120.965C45.699 121.403 46.0923 121.856 46.4746 122.326C54.5306 132.193 55.2816 145.469 55.3411 148.752Z" fill="black"/>
<path d="M67.0889 123.801C66.4626 138.519 55.7047 150 55.7047 150C55.7047 150 45.9622 137.619 46.5885 122.901C47.2148 108.183 57.9727 96.7021 57.9727 96.7021C57.9727 96.7021 67.7151 109.083 67.0889 123.801Z" fill="#1DB776"/>
<path d="M6.86544 128.616C7.60607 128.616 8.20646 128.006 8.20646 127.254C8.20646 126.502 7.60607 125.892 6.86544 125.892C6.12481 125.892 5.52441 126.502 5.52441 127.254C5.52441 128.006 6.12481 128.616 6.86544 128.616Z" fill="#FA5652"/>
<path d="M33.4468 149.608H89.465" stroke="#3F3D56" stroke-width="2" stroke-miterlimit="10"/>
<path d="M0 149.608H26.4702" stroke="#3F3D56" stroke-width="2" stroke-miterlimit="10"/>
<path d="M13.4355 149.859V134.352" stroke="#3F3D56" stroke-width="2" stroke-miterlimit="10"/>
<path d="M13.4356 136.545C14.6281 136.545 15.5948 135.563 15.5948 134.352C15.5948 133.141 14.6281 132.159 13.4356 132.159C12.2431 132.159 11.2764 133.141 11.2764 134.352C11.2764 135.563 12.2431 136.545 13.4356 136.545Z" fill="#3F3D56"/>
<path d="M13.4356 143.909C13.4356 143.909 13.1272 137.171 6.80371 137.955L13.4356 143.909Z" fill="#3F3D56"/>
<path d="M56.7877 93.2756C59.0869 93.2756 60.9509 91.3827 60.9509 89.0476C60.9509 86.7126 59.0869 84.8196 56.7877 84.8196C54.4884 84.8196 52.6245 86.7126 52.6245 89.0476C52.6245 91.3827 54.4884 93.2756 56.7877 93.2756Z" fill="#3F3D56"/>
<path d="M43.7304 92.1225C45.4026 92.1225 46.7582 90.7458 46.7582 89.0476C46.7582 87.3494 45.4026 85.9727 43.7304 85.9727C42.0582 85.9727 40.7026 87.3494 40.7026 89.0476C40.7026 90.7458 42.0582 92.1225 43.7304 92.1225Z" stroke="#3F3D56" stroke-width="2" stroke-miterlimit="10"/>
<path d="M69.8447 92.1225C71.5168 92.1225 72.8724 90.7458 72.8724 89.0476C72.8724 87.3494 71.5168 85.9727 69.8447 85.9727C68.1725 85.9727 66.8169 87.3494 66.8169 89.0476C66.8169 90.7458 68.1725 92.1225 69.8447 92.1225Z" stroke="#3F3D56" stroke-width="2" stroke-miterlimit="10"/>
<path d="M55.7051 149.583L58.0702 97.3024" stroke="#3F3D56" stroke-width="2" stroke-miterlimit="10"/>
<path d="M187.6 60.8589C189.899 60.8589 191.763 58.966 191.763 56.6309C191.763 54.2959 189.899 52.403 187.6 52.403C185.3 52.403 183.437 54.2959 183.437 56.6309C183.437 58.966 185.3 60.8589 187.6 60.8589Z" fill="#3F3D56"/>
<path d="M101.493 6.35817C103.165 6.35817 104.52 4.98149 104.52 3.28327C104.52 1.58505 103.165 0.208374 101.493 0.208374C99.8204 0.208374 98.4648 1.58505 98.4648 3.28327C98.4648 4.98149 99.8204 6.35817 101.493 6.35817Z" stroke="#3F3D56" stroke-width="2" stroke-miterlimit="10"/>
<path d="M67.0746 25.5299C68.7468 25.5299 70.1024 24.1533 70.1024 22.455C70.1024 20.7568 68.7468 19.3801 67.0746 19.3801C65.4025 19.3801 64.0469 20.7568 64.0469 22.455C64.0469 24.1533 65.4025 25.5299 67.0746 25.5299Z" stroke="#3F3D56" stroke-width="2" stroke-miterlimit="10"/>
<path d="M134.4 36.8629C139.813 36.8629 144.201 32.4067 144.201 26.9097C144.201 21.4126 139.813 16.9564 134.4 16.9564C128.988 16.9564 124.6 21.4126 124.6 26.9097C124.6 32.4067 128.988 36.8629 134.4 36.8629Z" fill="#FA5652"/>
<path d="M156.959 114.859L162.197 136.31L167.436 135.452L162.197 110.912L156.959 114.859Z" fill="#FFB9B9"/>
<path d="M164.056 134.937C164.056 134.937 161.072 135.961 161.466 136.65C161.859 137.339 161.859 141.63 160.507 143.174C159.155 144.719 155.776 149.524 159.662 149.695C163.549 149.867 167.435 147.293 167.435 147.293V142.831L168.111 146.949H168.787V142.316C168.787 142.316 170.477 139.399 169.463 137.683C168.449 135.967 167.788 134.471 166.513 134.618C165.239 134.765 164.056 134.937 164.056 134.937Z" fill="#2F2E41"/>
<path d="M136.344 133.049L135.499 137.683H141.413V133.049H136.344Z" fill="#FFB9B9"/>
<path d="M136.85 136.653C136.85 136.653 135.16 136.481 134.653 138.884C134.146 141.286 129.584 146.386 127.894 146.9C126.204 147.415 126.204 149.131 128.401 149.475C130.598 149.818 136.174 149.989 137.526 148.102C138.878 146.214 140.737 143.174 140.737 143.174L139.892 149.646H141.412C141.412 149.646 142.764 143.346 144.116 141.801C145.468 140.257 141.412 136.653 140.737 136.653H136.85Z" fill="#2F2E41"/>
<path d="M128.571 62.8616C128.571 62.8616 127.388 66.1221 125.36 66.6369C123.332 67.1518 108.293 70.7555 108.293 70.7555C108.293 70.7555 95.1131 71.0987 99.1686 74.0161C103.224 76.9334 109.814 74.0161 109.814 74.0161C109.814 74.0161 129.078 71.6136 130.598 69.0394C131.6 67.2876 132.448 65.4501 133.133 63.548L128.571 62.8616Z" fill="#FFB9B9"/>
<path d="M134.992 48.4465C134.992 48.4465 125.36 64.4061 126.543 64.7493C127.726 65.0925 138.709 68.6963 139.216 67.3234C139.723 65.9505 139.723 59.601 139.723 59.601L134.992 48.4465Z" fill="#2F2E41"/>
<path opacity="0.1" d="M134.992 48.4465C134.992 48.4465 125.36 64.4061 126.543 64.7493C127.726 65.0925 138.709 68.6963 139.216 67.3234C139.723 65.9505 139.723 59.601 139.723 59.601L134.992 48.4465Z" fill="black"/>
<path d="M160 44.6711L181.798 55.9973C181.798 55.9973 194.134 59.2578 191.43 61.8319C188.727 64.406 179.94 59.601 179.94 59.601L155.776 48.4465L160 44.6711Z" fill="#FFB9B9"/>
<path d="M132.119 35.7475C132.119 35.7475 136.344 42.2686 136.006 43.8131C136.006 43.8131 136.344 44.8427 135.837 45.5292C135.33 46.2156 135.499 50.3342 135.499 50.3342L137.188 52.7367L139.385 45.3576L140.399 37.4636C140.399 37.4636 138.118 34.2889 138.456 32.7444C138.794 31.1999 132.119 35.7475 132.119 35.7475Z" fill="#FFB9B9"/>
<path d="M145.468 72.8148C145.468 72.8148 136.005 98.556 136.005 109.882C136.005 121.208 132.457 134.079 135.16 135.28C137.864 136.481 151.551 136.653 151.889 135.28C152.227 133.907 150.199 78.1347 149.186 75.9038C148.172 73.6729 145.468 72.8148 145.468 72.8148Z" fill="#2F2E41"/>
<path opacity="0.1" d="M145.468 72.8148C145.468 72.8148 136.005 98.556 136.005 109.882C136.005 121.208 132.457 134.079 135.16 135.28C137.864 136.481 151.551 136.653 151.889 135.28C152.227 133.907 150.199 78.1347 149.186 75.9038C148.172 73.6729 145.468 72.8148 145.468 72.8148Z" fill="black"/>
<path d="M134.316 36.7771C137.769 36.7771 140.568 33.9343 140.568 30.4276C140.568 26.9209 137.769 24.0781 134.316 24.0781C130.863 24.0781 128.063 26.9209 128.063 30.4276C128.063 33.9343 130.863 36.7771 134.316 36.7771Z" fill="#FFB9B9"/>
<path d="M136.174 49.6478L135.722 45.775C135.722 45.775 134.315 47.7601 134.315 49.3046C134.315 50.8491 133.471 56.3405 137.019 59.7727C140.568 63.2048 141.244 63.8913 141.413 64.5777C141.581 65.2641 142.426 65.2641 142.426 65.2641L147.327 85.3422C147.327 85.3422 148.848 138.712 151.213 139.399C153.579 140.085 160.845 139.399 161.352 138.541C161.859 137.683 160.507 114.859 160.507 114.859C160.507 114.859 164.224 135.109 165.576 135.109C166.928 135.109 167.773 132.191 167.435 132.02C167.097 131.848 165.069 118.634 164.224 114.516C163.38 110.397 163.718 75.5606 163.718 75.5606C163.718 75.5606 166.421 71.0988 157.127 62.3468C157.127 62.3468 151.213 44.8428 150.875 44.8428C150.537 44.8428 143.947 35.4044 143.947 35.4044C143.947 35.4044 140.23 35.4044 139.554 37.6353C138.878 39.8662 136.174 49.6478 136.174 49.6478Z" fill="#2F2E41"/>
<path d="M141.919 36.7772L143.947 35.4043C143.947 35.4043 152.396 40.5525 158.31 40.8957C164.224 41.239 164.055 44.6711 161.69 47.0736C159.324 49.4761 150.03 57.7133 149.692 55.654C149.354 53.5947 141.919 36.7772 141.919 36.7772Z" fill="#2F2E41"/>
<path d="M134.4 28.2826C138.133 28.2826 141.159 26.4386 141.159 24.164C141.159 21.8893 138.133 20.0453 134.4 20.0453C130.667 20.0453 127.641 21.8893 127.641 24.164C127.641 26.4386 130.667 28.2826 134.4 28.2826Z" fill="#FA5652"/>
<path d="M135.076 21.0751C137.316 21.0751 139.131 19.2311 139.131 16.9565C139.131 14.6818 137.316 12.8379 135.076 12.8379C132.836 12.8379 131.021 14.6818 131.021 16.9565C131.021 19.2311 132.836 21.0751 135.076 21.0751Z" fill="#FA5652"/>
<path d="M129.669 14.7255C129.669 13.7075 130.04 12.7255 130.711 11.9691C131.382 11.2127 132.305 10.7353 133.302 10.6292C133.162 10.6144 133.021 10.607 132.88 10.6069C131.804 10.6069 130.773 11.0409 130.012 11.8132C129.251 12.5856 128.824 13.6332 128.824 14.7255C128.824 15.8178 129.251 16.8654 130.012 17.6378C130.773 18.4102 131.804 18.8441 132.88 18.8441C133.021 18.8441 133.162 18.8366 133.302 18.8218C132.305 18.7157 131.382 18.2384 130.711 17.4819C130.04 16.7255 129.669 15.7436 129.669 14.7255Z" fill="#FA5652"/>
<path d="M35.4094 50.8229C41.5647 50.8229 46.5546 45.7553 46.5546 39.5042C46.5546 33.253 41.5647 28.1855 35.4094 28.1855C29.254 28.1855 24.2642 33.253 24.2642 39.5042C24.2642 45.7553 29.254 50.8229 35.4094 50.8229Z" fill="#1DB776"/>
<path d="M101.674 149.7H182.111" stroke="#3F3D56" stroke-width="2" stroke-miterlimit="10"/>
<path d="M197.499 36.2491L187.757 46.143L183.662 41.9845C183.532 41.8525 183.378 41.7478 183.208 41.6764C183.038 41.6049 182.856 41.5682 182.672 41.5682C182.488 41.5682 182.306 41.6049 182.136 41.6764C181.967 41.7478 181.812 41.8525 181.682 41.9845L181.535 41.7611C180.989 42.3162 181.136 43.4397 181.682 43.9949L186.995 49.3904C187.195 49.5938 187.467 49.7081 187.75 49.7081C188.033 49.7082 188.305 49.5941 188.505 49.3908L199.477 38.2594C200.024 37.7045 200.223 36.6869 199.676 36.1317C199.13 35.5767 198.045 35.6941 197.499 36.2491Z" fill="#1DB776"/>
<path opacity="0.1" d="M197.499 36.2491L187.757 46.143L183.662 41.9845C183.532 41.8525 183.378 41.7478 183.208 41.6764C183.038 41.6049 182.856 41.5682 182.672 41.5682C182.488 41.5682 182.306 41.6049 182.136 41.6764C181.967 41.7478 181.812 41.8525 181.682 41.9845L181.535 41.7611C180.989 42.3162 181.136 43.4397 181.682 43.9949L186.995 49.3904C187.195 49.5938 187.467 49.7081 187.75 49.7081C188.033 49.7082 188.305 49.5941 188.505 49.3908L199.477 38.2594C200.024 37.7045 200.223 36.6869 199.676 36.1317C199.13 35.5767 198.045 35.6941 197.499 36.2491Z" fill="black"/>
<path d="M197.499 35.8104L187.756 45.7044L183.661 41.5459C183.531 41.4139 183.377 41.3091 183.207 41.2377C183.038 41.1663 182.856 41.1295 182.672 41.1295C182.488 41.1295 182.306 41.1663 182.136 41.2377C181.966 41.3091 181.812 41.4139 181.682 41.5459C181.552 41.6779 181.449 41.8346 181.379 42.007C181.308 42.1795 181.272 42.3643 181.272 42.551C181.272 42.7377 181.308 42.9226 181.379 43.095C181.449 43.2675 181.552 43.4242 181.682 43.5562L186.995 48.9517C187.195 49.1551 187.467 49.2694 187.75 49.2694C188.033 49.2695 188.304 49.1554 188.505 48.9521L199.477 37.8208C199.607 37.6888 199.71 37.5322 199.781 37.3597C199.851 37.1873 199.887 37.0024 199.887 36.8157C199.887 36.629 199.851 36.4441 199.781 36.2716C199.711 36.0992 199.608 35.9424 199.478 35.8104C199.215 35.5439 198.859 35.3942 198.488 35.3942C198.117 35.3942 197.761 35.5439 197.499 35.8104Z" fill="#1DB776"/>
</g>
<defs>
<clipPath id="clip0">
<rect width="200" height="150" fill="white"/>
</clipPath>
</defs>
</svg>
