<svg width="200" height="150" viewBox="0 0 200 150" fill="none" xmlns="http://www.w3.org/2000/svg">
<g clip-path="url(#clip0)">
<path d="M175.447 73.0637H173.667V146.105H175.447V73.0637Z" fill="#3F3D56"/>
<path d="M191.878 82.3722C191.991 107.913 174.691 128.701 174.691 128.701C174.691 128.701 157.207 108.08 157.093 82.5387C156.98 56.9979 174.28 36.2097 174.28 36.2097C174.28 36.2097 191.765 56.8314 191.878 82.3722Z" fill="#3F3D56"/>
<path d="M139.85 107.431H138.934V144.998H139.85V107.431Z" fill="#3F3D56"/>
<path d="M148.3 112.219C148.359 125.355 139.461 136.047 139.461 136.047C139.461 136.047 130.468 125.44 130.41 112.304C130.352 99.1679 139.25 88.4761 139.25 88.4761C139.25 88.4761 148.242 99.0823 148.3 112.219Z" fill="#3F3D56"/>
<path d="M157.898 150C171.599 150 182.706 148.231 182.706 146.05C182.706 143.869 171.599 142.1 157.898 142.1C144.197 142.1 133.09 143.869 133.09 146.05C133.09 148.231 144.197 150 157.898 150Z" fill="#3F3D56"/>
<path d="M159.945 53.9954C157.843 50.3067 153.684 50.1348 153.684 50.1348C153.684 50.1348 149.632 49.5966 147.033 55.2145C144.61 60.451 141.267 65.5068 146.495 66.7326L147.439 63.6797L148.024 66.9599C148.768 67.0155 149.515 67.0288 150.261 66.9996C155.86 66.8119 161.192 67.0546 161.02 64.9677C160.792 62.1936 161.967 57.5447 159.945 53.9954Z" fill="#2F2E41"/>
<path d="M152.375 60.9422C152.375 60.9422 155.091 64.8919 153.461 68.0894C151.832 71.2868 157.264 74.6723 157.264 74.6723L161.248 65.6443C161.248 65.6443 156.54 62.4468 157.807 59.4375L152.375 60.9422Z" fill="#FFB9B9"/>
<path d="M154.186 62.6349C156.786 62.6349 158.894 60.4455 158.894 57.7447C158.894 55.0439 156.786 52.8545 154.186 52.8545C151.586 52.8545 149.478 55.0439 149.478 57.7447C149.478 60.4455 151.586 62.6349 154.186 62.6349Z" fill="#FFB9B9"/>
<path d="M137.892 63.3978L141.827 58.1251C141.827 58.1251 143.212 52.5983 145.219 52.8785C147.225 53.1587 144.426 59.5065 144.426 59.5065L140.517 65.3429L137.892 63.3978Z" fill="#FFB9B9"/>
<path d="M157.808 133.543L159.076 140.502L161.792 141.254L161.068 132.978L157.808 133.543Z" fill="#FFB9B9"/>
<path d="M185.151 126.019L190.041 132.978L192.032 133.919L193.662 131.097L188.773 124.514L185.151 126.019Z" fill="#FFB9B9"/>
<path d="M156.721 71.663L153.7 67.5328C153.7 67.5328 147.848 68.6537 147.305 69.2179C146.762 69.7822 148.753 80.1268 148.753 80.1268C148.753 80.1268 149.116 82.9481 150.745 84.4527L152.375 85.5812L165.775 82.76L166.279 76.5672C166.463 74.3115 166.19 72.0409 165.48 69.9008C164.77 67.7608 163.637 65.7985 162.154 64.1396L159.822 64.4707L156.721 71.663Z" fill="#135E8A"/>
<path d="M148.029 69.5941L147.124 69.2179L142.959 68.8417C142.959 68.8417 141.51 68.4656 141.872 67.7132C142.234 66.9609 142.597 66.7728 141.872 66.5847C141.148 66.3966 140.967 66.2085 141.148 65.6443C141.329 65.08 142.416 63.9515 142.416 63.9515L139.337 61.3184C139.337 61.3184 139.171 61.4408 138.901 61.6672C137.373 62.9526 132.537 67.5899 136.078 72.2272C140.243 77.6817 145.132 80.8791 149.116 79.7506L148.029 69.5941Z" fill="#135E8A"/>
<path d="M152.013 84.6406V87.2738C152.013 87.2738 150.384 90.4712 150.927 93.4806C151.47 96.4899 151.651 97.9946 151.651 97.9946C151.71 100.554 152.137 103.09 152.919 105.518C154.186 109.28 150.021 133.919 155.273 134.295C160.524 134.671 163.421 135.047 165.051 133.166C166.681 131.285 162.335 98.935 162.335 98.935C162.335 98.935 177.184 131.097 180.262 129.781C183.341 128.464 191.127 125.455 190.222 123.762C189.316 122.069 166.5 84.4525 166.5 84.4525L165.776 82.7598L152.013 84.6406Z" fill="#2F2E41"/>
<path d="M160.705 139.185C160.705 139.185 157.808 138.997 157.808 139.938C157.808 140.878 156.359 144.075 156.359 144.075C156.359 144.075 155.273 147.837 158.17 147.461C161.067 147.085 162.878 143.699 162.878 143.699L162.154 140.126L160.705 139.185Z" fill="#2F2E41"/>
<path d="M190.946 132.602C190.946 132.602 188.411 130.91 188.592 132.038C188.773 133.167 188.954 136.176 190.222 136.364C191.489 136.552 195.292 137.681 195.473 138.057C195.654 138.433 200 139.938 200 137.492C200 135.047 197.284 133.167 197.284 133.167L194.205 130.721C194.205 130.721 192.213 130.533 191.851 131.85C191.489 133.167 190.946 132.602 190.946 132.602Z" fill="#2F2E41"/>
<path d="M154.193 53.2763C155.854 53.2763 157.2 51.8781 157.2 50.1534C157.2 48.4287 155.854 47.0305 154.193 47.0305C152.533 47.0305 151.187 48.4287 151.187 50.1534C151.187 51.8781 152.533 53.2763 154.193 53.2763Z" fill="#2F2E41"/>
<path d="M150.87 49.3316C150.87 48.5604 151.145 47.8164 151.642 47.243C152.139 46.6697 152.822 46.3075 153.56 46.2263C153.455 46.2147 153.35 46.2089 153.244 46.2087C152.447 46.2087 151.682 46.5378 151.118 47.1234C150.554 47.7091 150.237 48.5034 150.237 49.3316C150.237 50.1599 150.554 50.9542 151.118 51.5399C151.682 52.1255 152.447 52.4545 153.244 52.4545C153.35 52.4544 153.455 52.4485 153.56 52.437C152.822 52.3558 152.139 51.9936 151.642 51.4203C151.145 50.8469 150.87 50.1029 150.87 49.3316Z" fill="#2F2E41"/>
<path d="M159.015 53.6397L154.907 51.4045L149.234 52.319L148.06 57.7035L150.982 57.5867L151.798 55.6086V57.5541L153.146 57.5003L153.929 54.3509L154.418 57.7035L159.211 57.6019L159.015 53.6397Z" fill="#2F2E41"/>
<path d="M158.769 85.0764L152.433 85.2543C152.433 85.2543 147.027 86.3469 147.331 84.0805C147.634 81.8142 152.908 82.6069 152.908 82.6069L158.681 81.6921L158.769 85.0764Z" fill="#FFB9B9"/>
<path d="M163.782 63.8208C164.1 63.7707 164.425 63.8403 164.699 64.0171C164.972 64.194 165.176 64.4663 165.273 64.7853C166.513 68.8449 170.335 82.4301 166.538 84.2939C162.066 86.4891 158.803 86.3926 158.803 86.3926L157.057 81.926L158.647 80.3761L160.344 69.0393L161.158 64.2336L163.782 63.8208Z" fill="#135E8A"/>
<path opacity="0.4" d="M162.607 71.3806L161.882 78.904L155.544 81.7253L162.607 80.0325V71.3806Z" fill="#4B4F51"/>
<path d="M128.427 46.5439C130.468 47.1058 132.234 48.4384 133.38 50.2811L133.972 51.2339L134.002 51.2733L144.393 54.4315C144.584 54.4894 144.745 54.6226 144.842 54.8025C144.938 54.9825 144.963 55.1947 144.911 55.3936L144.105 58.4659C144.078 58.566 144.033 58.6597 143.972 58.7416C143.911 58.8235 143.834 58.892 143.747 58.9432C143.661 58.9944 143.565 59.0272 143.466 59.0398C143.367 59.0524 143.266 59.0445 143.17 59.0166L132.776 55.999L132.776 55.9993L131.732 56.4092C129.809 57.1641 127.701 57.2385 125.734 56.621L128.427 46.5439Z" fill="#3F3D56"/>
<path d="M139.37 55.4541C139.468 55.1048 139.037 54.6662 138.406 54.4745C137.775 54.2828 137.184 54.4106 137.086 54.76C136.988 55.1094 137.419 55.548 138.05 55.7396C138.68 55.9313 139.271 55.8035 139.37 55.4541Z" fill="#135E8A"/>
<path d="M138.839 55.7761C139.08 55.7761 139.275 55.5732 139.275 55.323C139.275 55.0727 139.08 54.8699 138.839 54.8699C138.598 54.8699 138.403 55.0727 138.403 55.323C138.403 55.5732 138.598 55.7761 138.839 55.7761Z" fill="#3F3D56"/>
<path d="M129.295 52.3634C130.162 49.5878 129.885 47.0077 128.676 46.6007C127.468 46.1937 125.786 48.1139 124.919 50.8895C124.053 53.6652 124.33 56.2452 125.538 56.6522C126.747 57.0592 128.429 55.1391 129.295 52.3634Z" fill="#1DB776"/>
<path opacity="0.4" d="M128.972 52.265C129.807 49.5905 129.58 47.0979 128.481 46.5557C128.547 46.5642 128.612 46.5792 128.676 46.6004C129.884 47.0074 130.161 49.5875 129.295 52.3631C128.428 55.1388 126.746 57.059 125.538 56.652C125.494 56.6371 125.451 56.6192 125.41 56.5986C126.598 56.7558 128.151 54.8944 128.972 52.265Z" fill="#4B4F51"/>
<path d="M128.563 46.5537L104.979 27.5524C100.809 24.1681 96.8068 20.5657 92.9887 16.7591C86.266 10.1032 77.1398 4.78177 66.5142 1.94856C40.6989 -4.93488 20.2479 7.2703 10.9462 25.1917C-3.2678 52.5775 -14.1609 97.0172 48.8638 73.3619C62.6472 68.1886 76.5993 67.6387 87.1783 64.9136L125.485 56.7102L128.563 46.5537Z" fill="#1DB776"/>
<path d="M57.7598 14.5792C58.4598 14.5792 59.0273 13.9898 59.0273 13.2626C59.0273 12.5355 58.4598 11.946 57.7598 11.946C57.0597 11.946 56.4922 12.5355 56.4922 13.2626C56.4922 13.9898 57.0597 14.5792 57.7598 14.5792Z" fill="#F2F2F2"/>
<path d="M82.383 16.3058H82.0531V15.9631H81.9886V16.3058H81.6587V16.3728H81.9886V16.7155H82.0531V16.3728H82.383V16.3058Z" fill="#F2F2F2"/>
<path d="M115.521 44.8947H115.191V44.552H115.127V44.8947H114.797V44.9616H115.127V45.3043H115.191V44.9616H115.521V44.8947Z" fill="#F2F2F2"/>
<path d="M113.167 53.7348H112.837V53.3921H112.773V53.7348H112.443V53.8017H112.773V54.1444H112.837V53.8017H113.167V53.7348Z" fill="#F2F2F2"/>
<path d="M11.9421 61.258H11.6122V60.9153H11.5477V61.258H11.2178V61.3249H11.5477V61.6676H11.6122V61.3249H11.9421V61.258Z" fill="#F2F2F2"/>
<path d="M26.4284 20.2558H26.0985V19.9131H26.034V20.2558H25.7041V20.3227H26.034V20.6654H26.0985V20.3227H26.4284V20.2558Z" fill="#F2F2F2"/>
<path d="M82.7453 55.2394H82.4154V54.8967H82.3509V55.2394H82.021V55.3064H82.3509V55.6491H82.4154V55.3064H82.7453V55.2394Z" fill="#F2F2F2"/>
<path d="M48.1584 8.21842H47.8285V7.87573H47.764V8.21842H47.4341V8.28538H47.764V8.62807H47.8285V8.28538H48.1584V8.21842Z" fill="#F2F2F2"/>
<path d="M48.2856 35.2983L47.8745 35.3642C48.0031 36.2181 48.1045 37.0908 48.1787 37.9541L48.5934 37.9165C48.5192 37.0419 48.4159 36.1616 48.2856 35.2983Z" fill="#E6E6E6"/>
<path d="M47.1611 30.156L46.7627 30.282C47.0035 31.1096 47.219 31.9579 47.4019 32.8024L47.8094 32.7064C47.6228 31.8525 47.4037 30.9949 47.1611 30.156Z" fill="#E6E6E6"/>
<path d="M45.3663 25.2246L44.9878 25.4052C45.3355 26.1932 45.6614 27.002 45.9566 27.8108L46.3459 27.6584C46.0471 26.8402 45.7194 26.0202 45.3663 25.2246Z" fill="#E6E6E6"/>
<path d="M42.9397 20.6016L42.5884 20.8329C43.0357 21.5627 43.4648 22.3188 43.8632 23.0767L44.229 22.8699C43.827 22.1025 43.3924 21.3388 42.9397 20.6016Z" fill="#E6E6E6"/>
<path d="M39.9233 16.364L39.6064 16.6443C40.1461 17.3026 40.6712 17.9909 41.1674 18.6869L41.5006 18.4292C41.0008 17.7257 40.4702 17.0298 39.9233 16.364Z" fill="#E6E6E6"/>
<path d="M36.3776 12.5908L36.1006 12.9124C36.7235 13.4899 37.3338 14.0974 37.915 14.7162L38.2138 14.4134C37.6253 13.787 37.0078 13.1739 36.3776 12.5908Z" fill="#E6E6E6"/>
<path d="M32.3718 9.35205L32.1382 9.70941C32.8299 10.1928 33.5144 10.7081 34.1717 11.2404L34.4289 10.9C33.7625 10.3621 33.0708 9.84108 32.3718 9.35205Z" fill="#E6E6E6"/>
<path d="M28.7271 7.10278V7.5918C29.1598 7.82691 29.589 8.0733 30.0091 8.32533L30.2174 7.95104C29.7284 7.65762 29.2317 7.37487 28.7271 7.10278Z" fill="#E6E6E6"/>
<path d="M48.3135 40.6221L48.7297 40.6143C48.7374 41.0508 48.738 41.4897 48.7314 41.9188L48.3152 41.9121C48.3215 41.4878 48.321 41.0538 48.3135 40.6221Z" fill="#E6E6E6"/>
<path d="M23.8393 72.3508L23.4282 72.4167C23.5568 73.2706 23.6582 74.1433 23.7324 75.0066L24.1471 74.969C24.0729 74.0944 23.9697 73.2141 23.8393 72.3508Z" fill="#E6E6E6"/>
<path d="M22.7148 67.2087L22.3164 67.3348C22.5572 68.1623 22.7727 69.0106 22.9556 69.8551L23.3631 69.7592C23.1765 68.9053 22.9575 68.0476 22.7148 67.2087Z" fill="#E6E6E6"/>
<path d="M20.9205 62.2771L20.542 62.4577C20.8897 63.2457 21.2156 64.0545 21.5108 64.8633L21.9001 64.7109C21.6013 63.8927 21.2736 63.0727 20.9205 62.2771Z" fill="#E6E6E6"/>
<path d="M18.4939 57.6541L18.1426 57.8854C18.5899 58.6152 19.019 59.3713 19.4174 60.1292L19.7832 59.9224C19.3812 59.155 18.9466 58.3913 18.4939 57.6541Z" fill="#E6E6E6"/>
<path d="M15.4771 53.4165L15.1602 53.6967C15.6998 54.355 16.2249 55.0434 16.7211 55.7393L17.0543 55.4817C16.5545 54.7782 16.0239 54.0823 15.4771 53.4165Z" fill="#E6E6E6"/>
<path d="M11.9314 49.6436L11.6543 49.9652C12.2772 50.5426 12.8875 51.1501 13.4687 51.7689L13.7675 51.4661C13.179 50.8398 12.5615 50.2266 11.9314 49.6436Z" fill="#E6E6E6"/>
<path d="M7.92549 46.4048L7.69189 46.7621C8.38362 47.2455 9.06812 47.7609 9.72545 48.2932L9.98259 47.9527C9.3162 47.4148 8.62447 46.8938 7.92549 46.4048Z" fill="#E6E6E6"/>
<path d="M4.28076 44.1553V44.6443C4.71355 44.8794 5.14272 45.1258 5.56283 45.3778L5.77107 45.0035C5.28214 44.7101 4.78537 44.4274 4.28076 44.1553Z" fill="#E6E6E6"/>
<path d="M23.8677 77.6746L24.2839 77.6667C24.2916 78.1033 24.2921 78.5422 24.2856 78.9713L23.8694 78.9646C23.8757 78.5403 23.8752 78.1063 23.8677 77.6746Z" fill="#E6E6E6"/>
<path d="M107.499 53.7305L107.088 53.7963C107.217 54.6502 107.318 55.5229 107.393 56.3862L107.807 56.3486C107.733 55.474 107.63 54.5938 107.499 53.7305Z" fill="#E6E6E6"/>
<path d="M106.375 48.5884L105.977 48.7144C106.217 49.542 106.433 50.3902 106.616 51.2347L107.023 51.1388C106.837 50.2849 106.618 49.4272 106.375 48.5884Z" fill="#E6E6E6"/>
<path d="M104.581 43.6567L104.202 43.8373C104.55 44.6254 104.876 45.4341 105.171 46.2429L105.56 46.0906C105.261 45.2724 104.934 44.4523 104.581 43.6567Z" fill="#E6E6E6"/>
<path d="M102.154 39.0337L101.803 39.265C102.25 39.9948 102.679 40.7509 103.078 41.5089L103.443 41.302C103.041 40.5346 102.607 39.771 102.154 39.0337Z" fill="#E6E6E6"/>
<path d="M99.1372 34.7961L98.8203 35.0764C99.3599 35.7347 99.8851 36.4231 100.381 37.119L100.714 36.8613C100.215 36.1579 99.6841 35.462 99.1372 34.7961Z" fill="#E6E6E6"/>
<path d="M95.5915 31.0232L95.3145 31.3448C95.9374 31.9222 96.5476 32.5297 97.1289 33.1485L97.4277 32.8457C96.8392 32.2194 96.2217 31.6063 95.5915 31.0232Z" fill="#E6E6E6"/>
<path d="M91.5856 27.7844L91.3521 28.1418C92.0438 28.6252 92.7283 29.1405 93.3856 29.6728L93.6428 29.3323C92.9764 28.7944 92.2846 28.2735 91.5856 27.7844Z" fill="#E6E6E6"/>
<path d="M87.9409 25.5349V26.0239C88.3737 26.259 88.8029 26.5054 89.223 26.7575L89.4313 26.3832C88.9423 26.0898 88.4455 25.807 87.9409 25.5349Z" fill="#E6E6E6"/>
<path d="M107.527 59.0545L107.944 59.0466C107.951 59.4832 107.952 59.9221 107.945 60.3512L107.529 60.3444C107.535 59.9202 107.535 59.4862 107.527 59.0545Z" fill="#E6E6E6"/>
<path d="M27.0343 37.5971H26.7274V37.2781H26.6675V37.5971H26.3604V37.6591H26.6675V37.9781H26.7274V37.6591H27.0343V37.5971Z" fill="#F2F2F2"/>
<path d="M23.4958 56.849H23.1888V56.53H23.1289V56.849H22.8218V56.9113H23.1289V57.2301H23.1888V56.9113H23.4958V56.849Z" fill="#F2F2F2"/>
<path d="M13.1134 73.7214H12.8063V73.4026H12.7464V73.7214H12.4395V73.7836H12.7464V74.1026H12.8063V73.7836H13.1134V73.7214Z" fill="#F2F2F2"/>
<path d="M41.9966 52.3218C39.028 47.7386 37.7391 42.2021 38.3635 36.7164C38.9879 31.2307 41.4843 26.1591 45.4001 22.4212C49.3158 18.6833 54.3916 16.5267 59.7068 16.3425C65.0221 16.1582 70.225 17.9585 74.372 21.4169C78.5189 24.8753 81.3354 29.7628 82.3106 35.193C83.2857 40.6232 82.355 46.2366 79.6873 51.0153C77.0196 55.7939 72.7914 59.4214 67.7696 61.2398C62.7477 63.0582 57.2648 62.9472 52.315 60.9269C51.9941 62.1166 51.3942 63.2051 50.5689 64.0949C49.7437 64.9847 48.7189 65.648 47.5864 66.0256C46.4538 66.4031 45.2487 66.4831 44.0791 66.2583C42.9094 66.0335 41.8117 65.5109 40.8842 64.7374C39.9567 63.9639 39.2283 62.9636 38.7643 61.826C38.3003 60.6884 38.1151 59.449 38.2253 58.2189C38.3355 56.9887 38.7377 55.8061 39.3958 54.777C40.054 53.7478 40.9476 52.9043 41.9966 52.3218Z" fill="#3F3D56"/>
<path d="M60.3238 26.2258C65.422 26.2258 68.9296 29.163 68.9296 33.3851C68.9296 36.181 67.6244 38.1156 65.1093 39.6548C62.7437 41.081 61.9416 42.1259 61.9416 43.9334C61.9416 44.0799 61.9138 44.2249 61.8599 44.3603C61.8059 44.4956 61.7268 44.6186 61.6271 44.7222C61.5273 44.8258 61.4089 44.908 61.2786 44.964C61.1483 45.0201 61.0086 45.0489 60.8676 45.0489H58.2613C57.9829 45.0489 57.7154 44.9367 57.5152 44.7358C57.315 44.535 57.1976 44.2612 57.1879 43.9723L57.1833 43.8345C56.9522 40.9256 57.931 39.1182 60.3918 37.6214C62.6894 36.1952 63.6546 35.2914 63.6546 33.5404C63.6546 31.7895 62.0232 30.5045 59.9975 30.5045C58.4579 30.5045 57.2394 31.2829 56.6805 32.5537C56.4841 32.984 56.1731 33.3467 55.7845 33.5992C55.3958 33.8516 54.9456 33.9831 54.4872 33.9782C52.7213 33.9782 51.5547 32.0276 52.3806 30.4064C53.687 27.8417 56.4434 26.2258 60.3238 26.2258ZM56.7483 50.429C56.7483 48.8051 58.0534 47.5201 59.6576 47.5201C61.2755 47.5201 62.5806 48.791 62.5806 50.429C62.5806 52.067 61.2754 53.3379 59.6576 53.3379C58.0398 53.3379 56.7483 52.067 56.7483 50.429Z" fill="#F5C108"/>
</g>
<defs>
<clipPath id="clip0">
<rect width="200" height="150" fill="white"/>
</clipPath>
</defs>
</svg>
