<svg width="200" height="150" viewBox="0 0 200 150" fill="none" xmlns="http://www.w3.org/2000/svg">
<path opacity="0.1" d="M179.595 127.395C178.104 128.204 176.542 128.903 175.001 129.6C169.306 132.13 163.526 134.683 157.409 135.551C145.92 137.16 134.065 132.752 122.777 135.503C113.321 137.799 105.501 144.838 96.2635 147.972C91.9682 149.429 87.4991 150 82.9902 150H82.408C81.8496 149.993 81.2953 149.978 80.7452 149.956C76.1735 149.775 71.5829 149.063 67.1012 148.153C52.9504 145.287 38.5483 140.035 27.7295 130.364C59.2311 124.307 124.121 115.01 179.595 127.395Z" fill="#252223"/>
<path opacity="0.3" d="M190.576 54.8861V40.7788H182.618V54.8861H173.194V33.0639H166.283V16.7524H160.628V0H148.901V16.7524H143.246V33.0639H136.544V13.446H132.775V3.52682H130.471V13.446H117.068V76.047H106.806V69.4342H100.524V76.047H90.2618V54.8861H71.8325V40.7788H63.8743V54.8861H63.4555V81.9985H55.0785V66.1278H45.0262V81.9985H36.6492V33.0639H30.1571V16.7524H6.28272V33.0639H0V119.251H36.6492H63.4555H90.2618H117.068H136.544H173.194H200V54.8861H190.576Z" fill="#1DB776"/>
<path opacity="0.4" d="M12.7748 38.1337H3.979V43.424H12.7748V38.1337Z" fill="white"/>
<path opacity="0.4" d="M23.6651 43.424H32.4609V38.1337H23.6651V43.424Z" fill="white"/>
<path opacity="0.4" d="M12.7748 48.4938H3.979V53.784H12.7748V48.4938Z" fill="white"/>
<path opacity="0.4" d="M23.6651 53.784H32.4609V48.4938H23.6651V53.784Z" fill="white"/>
<path opacity="0.4" d="M12.7748 58.8538H3.979V64.144H12.7748V58.8538Z" fill="white"/>
<path opacity="0.4" d="M23.6651 64.144H32.4609V58.8538H23.6651V64.144Z" fill="white"/>
<path opacity="0.4" d="M12.7748 69.2138H3.979V74.504H12.7748V69.2138Z" fill="white"/>
<path opacity="0.4" d="M23.6651 74.504H32.4609V69.2138H23.6651V74.504Z" fill="white"/>
<path opacity="0.4" d="M12.7748 79.5739H3.979V84.8641H12.7748V79.5739Z" fill="white"/>
<path opacity="0.4" d="M23.6651 84.864H32.4609V79.5738H23.6651V84.864Z" fill="white"/>
<path opacity="0.4" d="M12.7748 89.9338H3.979V95.2241H12.7748V89.9338Z" fill="white"/>
<path opacity="0.4" d="M23.6651 95.2241H32.4609V89.9339H23.6651V95.2241Z" fill="white"/>
<path opacity="0.4" d="M12.7748 100.294H3.979V105.584H12.7748V100.294Z" fill="white"/>
<path opacity="0.4" d="M23.6651 105.584H32.4609V100.294H23.6651V105.584Z" fill="white"/>
<path opacity="0.4" d="M60.3141 87.2888H39.7905V89.9339H60.3141V87.2888Z" fill="white"/>
<path opacity="0.4" d="M60.3141 91.2564H39.7905V93.9015H60.3141V91.2564Z" fill="white"/>
<path opacity="0.4" d="M60.3141 95.2241H39.7905V97.8692H60.3141V95.2241Z" fill="white"/>
<path opacity="0.4" d="M113.927 88.6113H93.4033V91.2564H113.927V88.6113Z" fill="white"/>
<path opacity="0.4" d="M113.927 92.579H93.4033V95.2241H113.927V92.579Z" fill="white"/>
<path opacity="0.4" d="M113.927 96.5466H93.4033V99.1917H113.927V96.5466Z" fill="white"/>
<path opacity="0.4" d="M60.3141 99.1918H39.7905V101.837H60.3141V99.1918Z" fill="white"/>
<path opacity="0.4" d="M60.3141 103.159H39.7905V105.805H60.3141V103.159Z" fill="white"/>
<path opacity="0.4" d="M60.3141 107.127H39.7905V109.772H60.3141V107.127Z" fill="white"/>
<path opacity="0.4" d="M73.508 59.9559H67.8535V67.6708H73.508V59.9559Z" fill="white"/>
<path opacity="0.4" d="M80.2093 67.6708H85.8638V59.9559H80.2093V67.6708Z" fill="white"/>
<path opacity="0.4" d="M73.508 72.2998H67.8535V80.0147H73.508V72.2998Z" fill="white"/>
<path opacity="0.4" d="M80.2093 80.0147H85.8638V72.2998H80.2093V80.0147Z" fill="white"/>
<path opacity="0.4" d="M73.508 84.6436H67.8535V92.3585H73.508V84.6436Z" fill="white"/>
<path opacity="0.4" d="M80.2093 92.3586H85.8638V84.6437H80.2093V92.3586Z" fill="white"/>
<path opacity="0.4" d="M73.508 96.9875H67.8535V104.702H73.508V96.9875Z" fill="white"/>
<path opacity="0.4" d="M80.2093 104.702H85.8638V96.9875H80.2093V104.702Z" fill="white"/>
<path opacity="0.4" d="M124.607 18.5158H117.068V28.6554H124.607V18.5158Z" fill="white"/>
<path opacity="0.4" d="M124.607 33.0639H117.068V43.2035H124.607V33.0639Z" fill="white"/>
<path opacity="0.4" d="M124.607 47.6121H117.068V57.7517H124.607V47.6121Z" fill="white"/>
<path opacity="0.4" d="M124.607 62.1602H117.068V72.2998H124.607V62.1602Z" fill="white"/>
<path opacity="0.4" d="M124.607 76.7083H117.068V86.8479H124.607V76.7083Z" fill="white"/>
<path opacity="0.4" d="M124.607 91.2564H117.068V101.396H124.607V91.2564Z" fill="white"/>
<path opacity="0.4" d="M168.901 39.2358H140.838V47.8324H168.901V39.2358Z" fill="white"/>
<path opacity="0.4" d="M169.005 57.7516H140.942V66.3483H169.005V57.7516Z" fill="white"/>
<path opacity="0.4" d="M169.11 76.2675H141.047V84.8641H169.11V76.2675Z" fill="white"/>
<path opacity="0.4" d="M169.215 94.7833H141.152V103.38H169.215V94.7833Z" fill="white"/>
<path opacity="0.4" d="M10.0523 21.3813H6.28271V29.7575H10.0523V21.3813Z" fill="white"/>
<path opacity="0.4" d="M200 59.9559H190.576V72.7407H200V59.9559Z" fill="white"/>
<path opacity="0.4" d="M200 78.4717H190.576V91.2564H200V78.4717Z" fill="white"/>
<path opacity="0.4" d="M200 96.9875H190.576V109.772H200V96.9875Z" fill="white"/>
<path d="M10.4023 105.705C10.4023 105.705 -6.0857 116.176 24.308 132.295C24.308 132.295 31.0096 119.211 23.6002 108.542C22.1631 106.463 20.0514 105.01 17.6649 104.46C15.2785 103.909 12.7831 104.299 10.6515 105.555L10.4023 105.705Z" fill="#1DB776"/>
<path d="M10.5928 105.485C10.5928 105.485 24.7017 116.848 24.308 132.295" stroke="#535461" stroke-miterlimit="10"/>
<path d="M25.0743 132.891C25.0743 132.891 19.9078 114.428 26.044 100.838C28.6199 95.136 29.4743 88.7326 28.2848 82.543C27.716 79.6043 26.8923 76.7267 25.8241 73.9464" stroke="#535461" stroke-width="2" stroke-miterlimit="10"/>
<path d="M29.6336 65.3696C29.6336 67.6333 25.7404 74.1866 25.7404 74.1866C25.7404 74.1866 21.8472 67.6245 21.8472 65.3696C21.8352 64.8236 21.927 64.2806 22.1172 63.7725C22.3074 63.2644 22.5921 62.8014 22.9547 62.4108C23.3174 62.0202 23.7505 61.7098 24.2287 61.4979C24.7069 61.286 25.2205 61.1768 25.7394 61.1768C26.2582 61.1768 26.7719 61.286 27.2501 61.4979C27.7283 61.7098 28.1614 62.0202 28.524 62.4108C28.8866 62.8014 29.1714 63.2644 29.3616 63.7725C29.5518 64.2806 29.6436 64.8236 29.6315 65.3696H29.6336Z" fill="#1DB776"/>
<path d="M36.0756 77.903C34.907 79.8031 28.2515 83.083 28.2515 83.083C28.2515 83.083 28.3729 75.3483 29.5415 73.4482C30.1147 72.5658 30.9928 71.954 31.9885 71.7435C32.9843 71.5329 34.0187 71.7403 34.8712 72.3212C35.7238 72.9022 36.3269 73.8107 36.5518 74.8531C36.7768 75.8955 36.6059 76.9892 36.0756 77.9008V77.903Z" fill="#1DB776"/>
<path d="M35.7929 99.3218C33.8724 100.34 26.5552 99.637 26.5552 99.637C26.5552 99.637 30.3688 93.0243 32.2892 92.0059C33.2081 91.542 34.2631 91.4759 35.2278 91.8217C36.1925 92.1674 36.99 92.8976 37.4489 93.8553C37.9078 94.813 37.9917 95.922 37.6825 96.944C37.3732 97.9661 36.6956 98.8198 35.795 99.3218H35.7929Z" fill="#1DB776"/>
<path d="M32.1131 115.477C30.3854 116.821 23.0576 117.43 23.0576 117.43C23.0576 117.43 25.755 110.235 27.4827 108.888C27.8934 108.563 28.3612 108.327 28.8591 108.193C29.357 108.059 29.8751 108.03 30.3836 108.108C30.8921 108.186 31.381 108.369 31.822 108.647C32.2629 108.925 32.6473 109.291 32.9529 109.726C33.2585 110.161 33.4793 110.655 33.6025 111.18C33.7258 111.705 33.749 112.251 33.6709 112.786C33.5929 113.32 33.415 113.833 33.1477 114.295C32.8803 114.757 32.5287 115.159 32.1131 115.477Z" fill="#1DB776"/>
<path d="M20.0777 83.5217C21.6191 85.0977 28.8044 86.7311 28.8044 86.7311C28.8044 86.7311 27.0452 79.2212 25.5039 77.6429C25.1403 77.253 24.7063 76.9435 24.2274 76.7327C23.7486 76.5219 23.2345 76.414 22.7154 76.4154C22.1963 76.4167 21.6827 76.5274 21.2049 76.7407C20.727 76.9541 20.2945 77.2659 19.9328 77.6577C19.5711 78.0496 19.2875 78.5137 19.0987 79.0226C18.9099 79.5315 18.8197 80.075 18.8334 80.6212C18.8471 81.1673 18.9644 81.7051 19.1785 82.2028C19.3925 82.7006 19.699 83.1482 20.0798 83.5195L20.0777 83.5217Z" fill="#1DB776"/>
<path d="M16.0019 102.472C17.9223 103.49 25.2396 102.787 25.2396 102.787C25.2396 102.787 21.426 96.1742 19.5055 95.1558C18.5867 94.6919 17.5316 94.6258 16.5669 94.9716C15.6022 95.3173 14.8048 96.0475 14.3458 97.0052C13.8869 97.9629 13.803 99.0719 14.1123 100.094C14.4215 101.116 15.0992 101.97 15.9998 102.472H16.0019Z" fill="#1DB776"/>
<path d="M14.4418 121.464C16.1696 122.808 23.4973 123.417 23.4973 123.417C23.4973 123.417 20.7999 116.22 19.0701 114.875C18.2395 114.239 17.2037 113.974 16.1885 114.139C15.1733 114.303 14.2608 114.883 13.65 115.752C13.0391 116.621 12.7794 117.709 12.9273 118.779C13.0752 119.849 13.6189 120.814 14.4397 121.464H14.4418Z" fill="#1DB776"/>
<path opacity="0.25" d="M29.6336 65.3696C29.6336 67.6333 25.7404 74.1866 25.7404 74.1866C25.7404 74.1866 21.8472 67.6245 21.8472 65.3696C21.8352 64.8236 21.927 64.2806 22.1172 63.7725C22.3074 63.2644 22.5921 62.8014 22.9547 62.4108C23.3174 62.0202 23.7505 61.7098 24.2287 61.4979C24.7069 61.286 25.2205 61.1768 25.7394 61.1768C26.2582 61.1768 26.7719 61.286 27.2501 61.4979C27.7283 61.7098 28.1614 62.0202 28.524 62.4108C28.8866 62.8014 29.1714 63.2644 29.3616 63.7725C29.5518 64.2806 29.6436 64.8236 29.6315 65.3696H29.6336Z" fill="black"/>
<path opacity="0.25" d="M36.0756 77.903C34.907 79.8031 28.2515 83.083 28.2515 83.083C28.2515 83.083 28.3729 75.3483 29.5415 73.4482C30.1147 72.5658 30.9928 71.954 31.9885 71.7435C32.9843 71.5329 34.0187 71.7403 34.8712 72.3212C35.7238 72.9022 36.3269 73.8107 36.5518 74.8531C36.7768 75.8955 36.6059 76.9892 36.0756 77.9008V77.903Z" fill="black"/>
<path opacity="0.25" d="M35.7929 99.3218C33.8724 100.34 26.5552 99.637 26.5552 99.637C26.5552 99.637 30.3688 93.0243 32.2892 92.0059C33.2081 91.542 34.2631 91.4759 35.2278 91.8217C36.1925 92.1674 36.99 92.8976 37.4489 93.8553C37.9078 94.813 37.9917 95.922 37.6825 96.944C37.3732 97.9661 36.6956 98.8198 35.795 99.3218H35.7929Z" fill="black"/>
<path opacity="0.25" d="M32.1131 115.477C30.3854 116.821 23.0576 117.43 23.0576 117.43C23.0576 117.43 25.755 110.235 27.4827 108.888C27.8934 108.563 28.3612 108.327 28.8591 108.193C29.357 108.059 29.8751 108.03 30.3836 108.108C30.8921 108.186 31.381 108.369 31.822 108.647C32.2629 108.925 32.6473 109.291 32.9529 109.726C33.2585 110.161 33.4793 110.655 33.6025 111.18C33.7258 111.705 33.749 112.251 33.6709 112.786C33.5929 113.32 33.415 113.833 33.1477 114.295C32.8803 114.757 32.5287 115.159 32.1131 115.477Z" fill="black"/>
<path opacity="0.25" d="M20.0777 83.5217C21.6191 85.0977 28.8044 86.7311 28.8044 86.7311C28.8044 86.7311 27.0452 79.2212 25.5039 77.6429C25.1403 77.253 24.7063 76.9435 24.2274 76.7327C23.7486 76.5219 23.2345 76.414 22.7154 76.4154C22.1963 76.4167 21.6827 76.5274 21.2049 76.7407C20.727 76.9541 20.2945 77.2659 19.9328 77.6577C19.5711 78.0496 19.2875 78.5137 19.0987 79.0226C18.9099 79.5315 18.8197 80.075 18.8334 80.6212C18.8471 81.1673 18.9644 81.7051 19.1785 82.2028C19.3925 82.7006 19.699 83.1482 20.0798 83.5195L20.0777 83.5217Z" fill="black"/>
<path opacity="0.25" d="M16.0019 102.472C17.9223 103.49 25.2396 102.787 25.2396 102.787C25.2396 102.787 21.426 96.1742 19.5055 95.1558C18.5867 94.6919 17.5316 94.6258 16.5669 94.9716C15.6022 95.3173 14.8048 96.0475 14.3458 97.0052C13.8869 97.9629 13.803 99.0719 14.1123 100.094C14.4215 101.116 15.0992 101.97 15.9998 102.472H16.0019Z" fill="black"/>
<path opacity="0.25" d="M14.4418 121.464C16.1696 122.808 23.4973 123.417 23.4973 123.417C23.4973 123.417 20.7999 116.22 19.0701 114.875C18.2395 114.239 17.2037 113.974 16.1885 114.139C15.1733 114.303 14.2608 114.883 13.65 115.752C13.0391 116.621 12.7794 117.709 12.9273 118.779C13.0752 119.849 13.6189 120.814 14.4397 121.464H14.4418Z" fill="black"/>
<path d="M186.341 128.123C186.341 128.123 181.175 109.66 187.311 96.0706C189.887 90.3682 190.741 83.9648 189.552 77.7752C188.983 74.8365 188.159 71.9589 187.091 69.1786" stroke="#535461" stroke-width="2" stroke-miterlimit="10"/>
<path d="M190.909 60.6017C190.909 62.8655 187.016 69.4188 187.016 69.4188C187.016 69.4188 183.123 62.8567 183.123 60.6017C183.111 60.0558 183.202 59.5128 183.393 59.0047C183.583 58.4966 183.868 58.0336 184.23 57.643C184.593 57.2524 185.026 56.942 185.504 56.7301C185.982 56.5182 186.496 56.409 187.015 56.409C187.534 56.409 188.047 56.5182 188.525 56.7301C189.004 56.942 189.437 57.2524 189.799 57.643C190.162 58.0336 190.447 58.4966 190.637 59.0047C190.827 59.5128 190.919 60.0558 190.907 60.6017H190.909Z" fill="#1DB776"/>
<path d="M197.342 73.1352C196.174 75.0352 189.518 78.3152 189.518 78.3152C189.518 78.3152 189.64 70.5804 190.808 68.6804C191.079 68.2141 191.437 67.8096 191.859 67.4909C192.281 67.1721 192.759 66.9455 193.266 66.8244C193.772 66.7032 194.297 66.69 194.808 66.7855C195.32 66.8811 195.808 67.0834 196.244 67.3805C196.68 67.6777 197.055 68.0637 197.348 68.5158C197.64 68.968 197.843 69.4771 197.945 70.0131C198.048 70.5492 198.047 71.1014 197.943 71.6372C197.84 72.173 197.635 72.6816 197.342 73.133V73.1352Z" fill="#1DB776"/>
<path d="M197.062 94.554C195.141 95.5724 187.824 94.8692 187.824 94.8692C187.824 94.8692 191.638 88.2564 193.558 87.2381C194.477 86.7742 195.532 86.7081 196.497 87.0538C197.462 87.3996 198.259 88.1298 198.718 89.0875C199.177 90.0452 199.261 91.1541 198.951 92.1762C198.642 93.1983 197.965 94.052 197.064 94.554H197.062Z" fill="#1DB776"/>
<path d="M193.382 110.709C191.654 112.054 184.327 112.662 184.327 112.662C184.327 112.662 187.024 105.467 188.752 104.12C189.582 103.485 190.618 103.22 191.633 103.384C192.649 103.548 193.561 104.128 194.172 104.997C194.783 105.867 195.043 106.955 194.895 108.024C194.747 109.094 194.203 110.059 193.382 110.709Z" fill="#1DB776"/>
<path d="M181.345 78.7472C182.886 80.3233 190.071 81.9566 190.071 81.9566C190.071 81.9566 188.312 74.4467 186.771 72.8684C186.03 72.1111 185.034 71.6944 184.001 71.7101C182.969 71.7259 181.985 72.1726 181.265 72.9522C180.545 73.7318 180.15 74.7803 180.164 75.8671C180.179 76.9538 180.604 77.9899 181.345 78.7472Z" fill="#1DB776"/>
<path d="M177.277 97.7039C179.198 98.7222 186.515 98.0191 186.515 98.0191C186.515 98.0191 182.701 91.4063 180.781 90.3879C179.863 89.9311 178.811 89.8699 177.851 90.2174C176.891 90.5649 176.097 91.2936 175.64 92.2481C175.183 93.2025 175.099 94.3072 175.404 95.3264C175.71 96.3457 176.382 97.1988 177.277 97.7039Z" fill="#1DB776"/>
<path d="M175.709 116.696C177.437 118.04 184.764 118.649 184.764 118.649C184.764 118.649 182.067 111.454 180.339 110.107C179.509 109.471 178.473 109.207 177.458 109.371C176.442 109.535 175.53 110.115 174.919 110.984C174.308 111.853 174.048 112.941 174.196 114.011C174.344 115.081 174.888 116.046 175.709 116.696Z" fill="#1DB776"/>
<path d="M163.037 126.326C163.037 126.326 160.26 116.407 163.558 109.102C164.96 106.049 165.382 102.599 164.763 99.2711C164.457 97.694 164.015 96.1497 163.441 94.6576" stroke="#535461" stroke-width="2" stroke-miterlimit="10"/>
<path d="M165.491 90.0397C165.491 91.2564 163.397 94.781 163.397 94.781C163.397 94.781 161.303 91.2542 161.303 90.0397C161.303 89.4551 161.523 88.8944 161.916 88.4811C162.309 88.0677 162.842 87.8354 163.397 87.8354C163.952 87.8354 164.485 88.0677 164.878 88.4811C165.271 88.8944 165.491 89.4551 165.491 90.0397Z" fill="#1DB776"/>
<path d="M168.949 96.7759C168.321 97.7965 164.744 99.5599 164.744 99.5599C164.744 99.5599 164.809 95.4027 165.437 94.3821C165.58 94.1249 165.771 93.9009 165.998 93.7236C166.226 93.5463 166.485 93.4193 166.76 93.3504C167.035 93.2815 167.321 93.272 167.6 93.3226C167.879 93.3732 168.145 93.4827 168.383 93.6447C168.621 93.8066 168.824 94.0175 168.982 94.2647C169.14 94.5119 169.249 94.7903 169.302 95.0829C169.355 95.3756 169.351 95.6765 169.29 95.9675C169.229 96.2585 169.113 96.5335 168.949 96.7759Z" fill="#1DB776"/>
<path d="M168.798 108.284C167.766 108.831 163.833 108.454 163.833 108.454C163.833 108.454 165.883 104.901 166.913 104.354C167.405 104.12 167.964 104.095 168.473 104.285C168.982 104.474 169.402 104.863 169.645 105.37C169.888 105.877 169.936 106.464 169.778 107.007C169.62 107.551 169.269 108.009 168.798 108.287V108.284Z" fill="#1DB776"/>
<path d="M166.819 116.967C165.889 117.69 161.952 118.016 161.952 118.016C161.952 118.016 163.401 114.15 164.331 113.427C164.779 113.113 165.324 112.992 165.853 113.089C166.383 113.186 166.857 113.495 167.177 113.95C167.497 114.405 167.638 114.972 167.572 115.534C167.505 116.095 167.235 116.609 166.819 116.967Z" fill="#1DB776"/>
<path d="M160.352 99.7957C161.19 100.642 165.041 101.522 165.041 101.522C165.041 101.522 164.096 97.4856 163.267 96.6392C163.073 96.4216 162.84 96.2476 162.58 96.1278C162.321 96.008 162.041 95.9449 161.758 95.9422C161.474 95.9395 161.193 95.9973 160.932 96.1122C160.671 96.2271 160.434 96.3966 160.237 96.6105C160.039 96.8244 159.885 97.0782 159.784 97.3566C159.682 97.635 159.635 97.9322 159.646 98.2302C159.657 98.5281 159.725 98.8207 159.846 99.0902C159.968 99.3597 160.14 99.6004 160.352 99.7979V99.7957Z" fill="#1DB776"/>
<path d="M158.161 109.979C159.194 110.526 163.126 110.149 163.126 110.149C163.126 110.149 161.076 106.596 160.046 106.049C159.554 105.815 158.995 105.79 158.486 105.98C157.977 106.169 157.557 106.558 157.314 107.065C157.071 107.572 157.023 108.159 157.181 108.702C157.339 109.246 157.69 109.704 158.161 109.982V109.979Z" fill="#1DB776"/>
<path d="M157.323 120.187C158.253 120.91 162.191 121.237 162.191 121.237C162.191 121.237 160.733 117.368 159.811 116.645C159.364 116.325 158.816 116.199 158.283 116.295C157.749 116.39 157.271 116.7 156.95 117.158C156.628 117.616 156.487 118.187 156.557 118.752C156.627 119.316 156.901 119.831 157.323 120.187Z" fill="#1DB776"/>
<path opacity="0.1" d="M55.4304 10.5099H53.9895C54.1258 10.5164 54.2619 10.4938 54.3897 10.4434C54.5175 10.393 54.6342 10.3159 54.7328 10.2167C54.8315 10.1175 54.91 9.99827 54.9636 9.86624C55.0173 9.73421 55.0449 9.5921 55.0449 9.4485C55.0449 9.30491 55.0173 9.1628 54.9636 9.03077C54.91 8.89873 54.8315 8.77952 54.7328 8.68032C54.6342 8.58112 54.5175 8.504 54.3897 8.45361C54.2619 8.40322 54.1258 8.38061 53.9895 8.38715H42.3183C42.0588 8.3996 41.8139 8.51686 41.6344 8.71454C41.455 8.91222 41.3549 9.1751 41.3549 9.4485C41.3549 9.72191 41.455 9.98479 41.6344 10.1825C41.8139 10.3801 42.0588 10.4974 42.3183 10.5099H43.7592C43.6229 10.5033 43.4867 10.5259 43.359 10.5763C43.2312 10.6267 43.1145 10.7038 43.0159 10.803C42.9172 10.9022 42.8387 11.0214 42.7851 11.1535C42.7314 11.2855 42.7038 11.4276 42.7038 11.5712C42.7038 11.7148 42.7314 11.8569 42.7851 11.9889C42.8387 12.121 42.9172 12.2402 43.0159 12.3394C43.1145 12.4386 43.2312 12.5157 43.359 12.5661C43.4867 12.6165 43.6229 12.6391 43.7592 12.6326H41.7424C41.6061 12.626 41.47 12.6486 41.3422 12.699C41.2145 12.7494 41.0977 12.8265 40.9991 12.9257C40.9005 13.0249 40.8219 13.1441 40.7683 13.2762C40.7147 13.4082 40.687 13.5503 40.687 13.6939C40.687 13.8375 40.7147 13.9796 40.7683 14.1116C40.8219 14.2437 40.9005 14.3629 40.9991 14.4621C41.0977 14.5613 41.2145 14.6384 41.3422 14.6888C41.47 14.7392 41.6061 14.7618 41.7424 14.7553H53.4136C53.5499 14.7618 53.686 14.7392 53.8138 14.6888C53.9415 14.6384 54.0583 14.5613 54.1569 14.4621C54.2555 14.3629 54.3341 14.2437 54.3877 14.1116C54.4413 13.9796 54.469 13.8375 54.469 13.6939C54.469 13.5503 54.4413 13.4082 54.3877 13.2762C54.3341 13.1441 54.2555 13.0249 54.1569 12.9257C54.0583 12.8265 53.9415 12.7494 53.8138 12.699C53.686 12.6486 53.5499 12.626 53.4136 12.6326H55.4304C55.5666 12.6391 55.7028 12.6165 55.8305 12.5661C55.9583 12.5157 56.075 12.4386 56.1737 12.3394C56.2723 12.2402 56.3508 12.121 56.4045 11.9889C56.4581 11.8569 56.4857 11.7148 56.4857 11.5712C56.4857 11.4276 56.4581 11.2855 56.4045 11.1535C56.3508 11.0214 56.2723 10.9022 56.1737 10.803C56.075 10.7038 55.9583 10.6267 55.8305 10.5763C55.7028 10.5259 55.5666 10.5033 55.4304 10.5099Z" fill="#252223"/>
<path opacity="0.1" d="M106.949 37.1815H105.508C105.644 37.188 105.78 37.1654 105.908 37.115C106.036 37.0646 106.153 36.9875 106.251 36.8883C106.35 36.7891 106.429 36.6699 106.482 36.5379C106.536 36.4058 106.563 36.2637 106.563 36.1201C106.563 35.9765 106.536 35.8344 106.482 35.7024C106.429 35.5704 106.35 35.4512 106.251 35.352C106.153 35.2528 106.036 35.1756 105.908 35.1252C105.78 35.0749 105.644 35.0522 105.508 35.0588H93.8369C93.5774 35.0712 93.3324 35.1885 93.153 35.3862C92.9736 35.5838 92.8734 35.8467 92.8734 36.1201C92.8734 36.3935 92.9736 36.6564 93.153 36.8541C93.3324 37.0518 93.5774 37.169 93.8369 37.1815H95.2777C95.1414 37.1749 95.0053 37.1976 94.8775 37.2479C94.7498 37.2983 94.6331 37.3755 94.5344 37.4747C94.4358 37.5739 94.3573 37.6931 94.3036 37.8251C94.25 37.9571 94.2223 38.0992 94.2223 38.2428C94.2223 38.3864 94.25 38.5285 94.3036 38.6606C94.3573 38.7926 94.4358 38.9118 94.5344 39.011C94.6331 39.1102 94.7498 39.1873 94.8775 39.2377C95.0053 39.2881 95.1414 39.3107 95.2777 39.3042H93.261C93.1247 39.2977 92.9885 39.3203 92.8608 39.3706C92.733 39.421 92.6163 39.4982 92.5177 39.5974C92.419 39.6966 92.3405 39.8158 92.2869 39.9478C92.2332 40.0798 92.2056 40.2219 92.2056 40.3655C92.2056 40.5091 92.2332 40.6512 92.2869 40.7833C92.3405 40.9153 92.419 41.0345 92.5177 41.1337C92.6163 41.2329 92.733 41.3101 92.8608 41.3604C92.9885 41.4108 93.1247 41.4334 93.261 41.4269H104.932C105.068 41.4334 105.205 41.4108 105.332 41.3604C105.46 41.3101 105.577 41.2329 105.675 41.1337C105.774 41.0345 105.853 40.9153 105.906 40.7833C105.96 40.6512 105.988 40.5091 105.988 40.3655C105.988 40.2219 105.96 40.0798 105.906 39.9478C105.853 39.8158 105.774 39.6966 105.675 39.5974C105.577 39.4982 105.46 39.421 105.332 39.3706C105.205 39.3203 105.068 39.2977 104.932 39.3042H106.949C107.085 39.3107 107.221 39.2881 107.349 39.2377C107.477 39.1873 107.594 39.1102 107.692 39.011C107.791 38.9118 107.869 38.7926 107.923 38.6606C107.977 38.5285 108.004 38.3864 108.004 38.2428C108.004 38.0992 107.977 37.9571 107.923 37.8251C107.869 37.6931 107.791 37.5739 107.692 37.4747C107.594 37.3755 107.477 37.2983 107.349 37.2479C107.221 37.1976 107.085 37.1749 106.949 37.1815Z" fill="#252223"/>
<path opacity="0.1" d="M194.697 2.35415H193.257C193.393 2.36069 193.529 2.33808 193.657 2.2877C193.785 2.23731 193.901 2.16018 194 2.06098C194.099 1.96178 194.177 1.84257 194.231 1.71054C194.284 1.5785 194.312 1.4364 194.312 1.2928C194.312 1.1492 194.284 1.0071 194.231 0.875064C194.177 0.743033 194.099 0.623816 194 0.524616C193.901 0.425417 193.785 0.348294 193.657 0.297905C193.529 0.247517 193.393 0.22491 193.257 0.231449H181.585C181.326 0.243899 181.081 0.361157 180.902 0.558836C180.722 0.756515 180.622 1.0194 180.622 1.2928C180.622 1.5662 180.722 1.82909 180.902 2.02676C181.081 2.22444 181.326 2.3417 181.585 2.35415H183.026C182.89 2.34761 182.754 2.37022 182.626 2.42061C182.498 2.471 182.382 2.54812 182.283 2.64732C182.184 2.74652 182.106 2.86574 182.052 2.99777C181.999 3.1298 181.971 3.27191 181.971 3.4155C181.971 3.5591 181.999 3.70121 182.052 3.83324C182.106 3.96527 182.184 4.08449 182.283 4.18369C182.382 4.28289 182.498 4.36001 182.626 4.4104C182.754 4.46079 182.89 4.4834 183.026 4.47686H181.009C180.873 4.47032 180.737 4.49293 180.609 4.54331C180.482 4.5937 180.365 4.67083 180.266 4.77003C180.168 4.86923 180.089 4.98844 180.035 5.12047C179.982 5.25251 179.954 5.39461 179.954 5.53821C179.954 5.68181 179.982 5.82391 180.035 5.95594C180.089 6.08798 180.168 6.20719 180.266 6.30639C180.365 6.40559 180.482 6.48271 180.609 6.5331C180.737 6.58349 180.873 6.6061 181.009 6.59956H192.681C192.94 6.58711 193.185 6.46985 193.365 6.27217C193.544 6.07449 193.644 5.81161 193.644 5.53821C193.644 5.2648 193.544 5.00192 193.365 4.80425C193.185 4.60657 192.94 4.48931 192.681 4.47686H194.697C194.834 4.4834 194.97 4.46079 195.098 4.4104C195.225 4.36001 195.342 4.28289 195.441 4.18369C195.539 4.08449 195.618 3.96527 195.672 3.83324C195.725 3.70121 195.753 3.5591 195.753 3.4155C195.753 3.27191 195.725 3.1298 195.672 2.99777C195.618 2.86574 195.539 2.74652 195.441 2.64732C195.342 2.54812 195.225 2.471 195.098 2.42061C194.97 2.37022 194.834 2.34761 194.697 2.35415Z" fill="#252223"/>
<path d="M114.806 124.911H114.853C114.853 124.911 107.504 103.655 105.445 100.774C105.445 100.774 103.29 99.4342 103.389 97.166L100.744 83.6583C100.744 83.6583 100.783 83.6164 100.85 83.5393L100.907 83.4732L100.972 83.3938C101.325 82.9529 101.62 82.4644 101.849 81.9412L101.891 81.8398C101.99 81.6029 102.072 81.3591 102.138 81.1102C102.23 81.1446 102.326 81.1596 102.423 81.1543C102.52 81.149 102.614 81.1235 102.702 81.0793C102.702 81.0793 102.702 81.0066 102.702 80.8765C102.702 80.8765 102.677 80.0764 102.675 78.8244C102.675 78.4761 102.675 78.097 102.675 77.6936C102.756 77.3828 102.825 77.0566 102.884 76.7083L102.777 76.6554V76.6047L102.687 76.5606C102.76 73.5959 102.999 69.8067 103.688 67.2256C103.712 67.1344 103.737 67.0441 103.764 66.9544C104.578 64.1352 104.601 60.6943 104.811 57.7847C104.973 58.1503 105.113 58.5265 105.229 58.9111C105.333 58.7889 105.452 58.6827 105.583 58.5959L106.404 65.5106V73.6664C106.404 73.6664 105.033 84.1851 109.336 82.2256C113.64 80.266 110.511 73.047 110.511 73.047C110.511 73.047 110.511 69.0264 111.1 66.9632C111.487 65.6054 111.238 61.2145 111.02 58.3666C111.439 58.4438 111.686 58.5055 111.686 58.5055C111.781 58.0923 111.824 57.6676 111.814 57.2425C111.904 52.4879 106.333 44.828 104.065 41.9052C103.419 40.8618 102.514 40.0235 101.449 39.4805L97.0913 37.2586C97.0913 37.2586 95.0326 36.7296 94.2305 35.0544C94.2305 35.0257 94.2159 34.997 94.2096 34.9684C94.3003 34.9258 94.3897 34.8795 94.4777 34.8295C95.1431 34.4925 95.7263 33.9993 96.1824 33.3879C97.1101 32.1469 97.5541 30.5929 97.9771 29.0786C98.4756 27.2976 98.9782 25.479 98.9112 23.6231C98.8441 21.7671 98.1028 19.8383 96.6075 18.853C95.33 18.011 93.5478 17.8523 92.7541 16.5033C92.5447 16.1396 92.4106 15.7076 92.1258 15.4144C92.1289 15.3539 92.1111 15.2942 92.0757 15.2464C92.0403 15.1986 91.9897 15.1659 91.9331 15.1543L89.7384 14.7002C89.7076 14.6938 89.6759 14.6938 89.6451 14.7004C89.6143 14.7069 89.585 14.7197 89.559 14.7381C89.5329 14.7565 89.5105 14.7802 89.4932 14.8077C89.4758 14.8353 89.4638 14.8661 89.4578 14.8986V14.9317C87.495 14.989 85.5688 15.5039 83.818 16.4394C83.196 16.7556 82.5993 17.1242 82.0337 17.5415C81.2274 18.1411 80.4337 18.9368 80.3185 19.9662C80.2619 20.4798 80.3792 21.0066 80.2808 21.5092C80.0148 22.856 78.2996 23.7333 78.551 25.0845C78.7206 26.0015 79.707 26.396 80.6305 26.407C80.3736 27.3737 80.3082 28.3857 80.4384 29.3801C80.5686 30.3745 80.8918 31.3302 81.3877 32.1876C81.8836 33.0451 82.5417 33.786 83.3211 34.3645C84.1005 34.943 84.9846 35.3466 85.9185 35.5503C86.5902 36.5456 87.1788 37.6002 87.6777 38.7024C86.5489 39.831 84.1845 42.4497 85.6337 43.3314L82.618 51.1741L82.9112 59.2571L81.64 60.4519L81.9185 60.8178C80.4944 62.5635 77.1981 66.3791 74.7876 67.3953C74.4406 67.5419 74.1046 67.7158 73.7824 67.9155C73.3422 68.2096 72.8523 68.4117 72.3394 68.5106C72.1156 68.5364 71.8942 68.5821 71.6777 68.6473L71.1017 67.3909C71.0527 67.2838 70.9841 67.188 70.8999 67.1089C70.8157 67.0298 70.7175 66.969 70.6109 66.9299C70.5043 66.8908 70.3914 66.8742 70.2787 66.881C70.166 66.8879 70.0557 66.9181 69.9541 66.9699L69.6002 67.1484L68.7625 67.5738L68.4127 67.7524L68.1489 67.8868C67.944 67.991 67.7869 68.1765 67.7119 68.4026C67.6369 68.6287 67.6502 68.8768 67.7489 69.0926L68.4462 70.6135C67.4557 71.5327 66.9698 72.6304 68.3206 73.6532C68.8393 74.0528 69.4685 74.2619 70.1112 74.2483L70.53 75.1719C70.579 75.2789 70.6476 75.3748 70.7318 75.4539C70.8161 75.533 70.9143 75.5938 71.0209 75.6329C71.1275 75.672 71.2404 75.6886 71.3531 75.6817C71.4657 75.6749 71.5761 75.6447 71.6777 75.5929L72.2913 75.2799L73.4808 74.676C73.5825 74.6244 73.6735 74.5522 73.7487 74.4635C73.8238 74.3749 73.8816 74.2715 73.9188 74.1593C73.9559 74.0471 73.9717 73.9283 73.9652 73.8097C73.9587 73.6911 73.93 73.575 73.8808 73.468L73.5332 72.7076C74.3115 72.071 75.0246 71.3507 75.6609 70.5584C75.6609 70.5584 77.4494 69.3791 78.5028 69.1146C79.2002 68.9405 81.6442 67.2498 83.1604 66.1785L83.5918 78.0815C83.4967 78.2364 83.3857 78.3798 83.2609 78.5092L83.5981 78.2579V78.3461C83.5529 78.4033 83.5046 78.4577 83.4536 78.5092L83.6002 78.399V78.5422C83.5525 78.6027 83.5014 78.6601 83.4473 78.7142L83.6023 78.5995L83.6651 79.8494L84.4023 78.5621L84.4483 79.8494L84.6201 79.5496C82.551 83.2505 79.8557 88.6995 78.4148 94.1815C78.4148 94.1815 76.1614 98.3056 76.4546 102.533L72.3394 123.474L72.419 123.505C71.0787 124.523 68.2536 126.39 65.4829 126.465C65.4829 126.465 58.8211 126.258 60.6829 127.805C62.5447 129.353 79.1017 131.621 79.1017 131.621L79.73 126.408L79.8766 126.465C79.8766 126.465 79.8766 126.436 79.8766 126.384L80.086 126.465C80.086 126.465 79.686 123.873 81.152 122.429C82.618 120.985 86.0504 106.338 85.7593 104.074C85.7593 104.074 88.3897 97.155 91.6819 91.6377L95.552 102.112L99.862 109.949C99.862 109.949 105.596 123.368 105.412 126.357C104.208 127.9 102.061 130.325 100.45 130.261C100.45 130.261 93.8871 131.601 98.3939 132.84C102.901 134.079 116.126 129.445 116.126 129.445L114.806 124.911ZM86.1154 76.9331L86.1551 76.9089C85.9457 77.2417 85.7363 77.6098 85.4976 78.011L86.1154 76.9331Z" fill="url(#paint0_linear)"/>
<path d="M83.2609 78.5136C83.0997 78.6371 83.0117 78.7054 83.0117 78.7054C83.1032 78.6546 83.1872 78.59 83.2609 78.5136Z" fill="url(#paint1_linear)"/>
<path d="M83.4553 78.7208C83.294 78.8443 83.2061 78.9126 83.2061 78.9126C83.2976 78.8618 83.3815 78.7972 83.4553 78.7208Z" fill="url(#paint2_linear)"/>
<path d="M83.4553 78.5136C83.294 78.6371 83.2061 78.7054 83.2061 78.7054C83.2976 78.6546 83.3815 78.59 83.4553 78.5136Z" fill="url(#paint3_linear)"/>
<path d="M105.874 123.824C105.874 123.824 102.435 128.952 100.142 128.85C100.142 128.85 93.7422 130.157 98.1359 131.363C102.53 132.569 115.424 128.046 115.424 128.046L113.891 122.788L105.874 123.824Z" fill="#333333"/>
<path d="M90.4961 88.2256L95.3673 101.396L99.5809 109.047C99.5809 109.047 105.359 122.568 104.978 125.182L114.192 123.624C114.192 123.624 107.028 102.904 105.024 100.1C105.024 100.1 102.93 98.7928 103.018 96.5731L100.44 83.4026C100.44 83.4026 102.953 80.8545 101.545 77.6715C101.474 77.5084 101.392 77.3439 101.298 77.1778C99.3715 73.759 92.1212 75.6613 92.1212 75.6613L90.4961 88.2256Z" fill="#535461"/>
<path opacity="0.03" d="M90.4961 88.2256L95.3673 101.396L99.5809 109.047C99.5809 109.047 105.359 122.568 104.978 125.182L114.192 123.624C114.192 123.624 107.028 102.904 105.024 100.1C105.024 100.1 102.93 98.7928 103.018 96.5731L100.44 83.4026C100.44 83.4026 102.953 80.8545 101.545 77.6715C101.474 77.5084 101.392 77.3439 101.298 77.1778C99.3715 73.759 92.1212 75.6613 92.1212 75.6613L90.4961 88.2256Z" fill="black"/>
<g opacity="0.1">
<path opacity="0.1" d="M105.016 100.1C105.016 100.1 102.921 98.7928 103.009 96.5731L100.431 83.4027C100.431 83.4027 102.945 80.8545 101.537 77.6716C101.466 77.5085 101.384 77.3439 101.29 77.1778C100.364 75.5202 98.178 75.1146 96.1738 75.1389C98.0963 75.1565 100.119 75.5996 101.003 77.1778C101.097 77.3439 101.179 77.5085 101.25 77.6716C102.651 80.8633 100.145 83.4027 100.145 83.4027L102.723 96.5797C102.626 98.784 104.729 100.107 104.729 100.107C106.735 102.921 113.897 123.63 113.897 123.63L104.972 125.14C104.972 125.156 104.972 125.173 104.972 125.189L114.186 123.63C114.186 123.63 107.022 102.915 105.016 100.1Z" fill="black"/>
</g>
<path d="M73.5917 121.614C73.5917 121.614 69.7719 125.032 66.0525 125.14C66.0525 125.14 59.5603 124.94 61.3718 126.447C63.1834 127.955 79.3279 130.168 79.3279 130.168L80.0462 124.285L73.5917 121.614Z" fill="#333333"/>
<g opacity="0.1">
<path opacity="0.1" d="M87.6313 74.8656C87.6313 74.8656 81.3277 84.216 78.8355 93.6657C78.8355 93.6657 76.6387 97.6863 76.9256 101.808L72.9214 122.217L80.2764 125.134C80.2764 125.134 79.8952 122.621 81.3235 121.212C82.7517 119.804 86.0983 105.529 85.8135 103.318C85.8135 103.318 90.3978 91.2542 94.9821 86.5283C99.5664 81.8024 101.849 80.7135 102.521 76.6334C102.526 76.6334 91.7381 71.1448 87.6313 74.8656Z" fill="black"/>
</g>
<path d="M87.4342 74.8656C87.4342 74.8656 81.1305 84.216 78.6383 93.6657C78.6383 93.6657 76.4415 97.6863 76.7284 101.808L72.7158 122.217L80.0708 125.134C80.0708 125.134 79.6896 122.621 81.1179 121.212C82.5462 119.804 85.8928 105.529 85.608 103.318C85.608 103.318 90.1923 91.2542 94.7766 86.5283C99.3609 81.8024 101.644 80.7135 102.316 76.6334C102.335 76.6334 91.5473 71.1448 87.4342 74.8656Z" fill="#535461"/>
<g opacity="0.1">
<path opacity="0.1" d="M91.5119 73.4725C96.247 73.532 102.144 76.532 102.144 76.532C101.47 80.6121 99.1894 81.701 94.6051 86.4269C90.0208 91.1528 85.4345 103.215 85.4345 103.215C85.7214 105.419 82.379 119.702 80.9444 121.109C79.6879 122.334 79.8261 124.395 79.8784 124.911L80.18 125.03C80.18 125.03 79.7989 122.517 81.2271 121.109C82.6554 119.7 86.0083 105.419 85.7214 103.215C85.7214 103.215 90.3057 91.1506 94.8899 86.4247C99.4742 81.6988 101.757 80.6099 102.429 76.5298C102.431 76.543 96.291 73.4107 91.5119 73.4725Z" fill="black"/>
</g>
<path d="M82.7601 60.2888C82.7601 60.2888 78.201 66.2645 75.1245 67.5628C74.7862 67.7057 74.4586 67.8752 74.1444 68.0698C73.7151 68.3564 73.2372 68.5533 72.7371 68.6495C72.369 68.6872 72.0091 68.7869 71.6711 68.9449C70.0711 69.7208 66.3811 71.8104 68.8167 73.662C71.8722 75.9743 75.9811 70.6466 75.9811 70.6466C75.9811 70.6466 77.7256 69.496 78.7518 69.2381C79.7779 68.9802 84.4795 65.5217 84.4795 65.5217L82.7601 60.2888Z" fill="#FFB9B9"/>
<path d="M83.6188 59.0808L81.8052 60.7913L84.4795 64.3093L83.6188 59.0808Z" fill="#FA5652"/>
<g opacity="0.1">
<path opacity="0.1" d="M83.6188 59.0808L81.8052 60.7913L84.4795 64.3093L83.6188 59.0808Z" fill="black"/>
</g>
<path d="M88.218 39.0706C88.218 39.0706 83.8703 42.9919 85.6902 44.0963L82.7583 51.7362L83.7698 79.6841L87.9143 72.4453L85.0829 56.762C85.0829 56.762 84.2745 47.4115 86.5991 45.2006L88.8232 40.5717L88.218 39.0706Z" fill="#FA5652"/>
<g opacity="0.1">
<path opacity="0.1" d="M88.9821 39.0706C88.9821 39.0706 84.6345 42.9919 86.4544 44.0963L83.5225 51.7362L84.534 79.6841L88.6785 72.4453L85.8471 56.762C85.8471 56.762 85.0387 47.4115 87.3633 45.2006L89.5874 40.5717L88.9821 39.0706Z" fill="black"/>
</g>
<path d="M84.8608 34.953C84.8608 34.953 88.3959 39.4761 88.2996 42.0904C88.2032 44.7046 94.9865 37.5672 94.9865 37.5672C94.9865 37.5672 92.4085 34.2498 93.0765 30.734C93.7446 27.2182 84.8608 34.953 84.8608 34.953Z" fill="#FFB9B9"/>
<path d="M105.016 57.6745L105.971 65.7179V73.6532C105.971 73.6532 104.632 83.9074 108.836 81.9985C113.039 80.0897 109.981 73.0514 109.981 73.0514C109.981 73.0514 109.981 69.1301 110.555 67.1198C111.129 65.1095 110.262 56.2638 110.262 56.2638L105.016 57.6745Z" fill="#FFB9B9"/>
<path d="M91.9288 38.6738C91.9288 38.6738 89.3507 41.288 88.0125 40.3821L86.178 45.1807C85.0568 48.1141 84.5482 51.267 84.6869 54.4254L85.3403 72.5533L88.2052 72.1521L89.1602 54.9588L90.5926 44.504L91.9288 38.6738Z" fill="#F2F2F2"/>
<g opacity="0.1">
<path opacity="0.1" d="M94.0796 35.9096C94.0796 35.9096 90.6869 38.3718 89.7383 40.4834C89.7383 40.4834 89.6419 42.7957 88.8796 43.8009C88.1173 44.806 87.3508 49.8339 87.1602 55.8648C86.9697 61.8956 86.1131 69.939 86.1131 69.939C86.1131 69.939 84.6807 77.7796 83.1519 78.5841C83.1519 78.5841 90.2199 72.9544 93.6587 74.8633C97.0974 76.7722 101.014 81.399 102.159 80.6936C102.159 80.6936 101.883 71.8765 103.137 67.1837C103.161 67.094 103.185 67.0066 103.211 66.9214C104.549 62.2924 103.688 55.964 105.217 53.2549C105.217 53.2549 105.217 48.3416 104.335 44.6715C104.107 43.7345 103.687 42.8612 103.105 42.113C102.522 41.3648 101.791 40.7597 100.963 40.3402L96.7163 38.1756C96.7163 38.1756 94.4608 37.8185 94.0796 35.9096Z" fill="black"/>
</g>
<g opacity="0.1">
<path opacity="0.1" d="M94.0797 35.9096C94.0797 35.9096 90.8797 38.5746 89.9248 40.684C89.9248 40.684 89.8284 42.9963 89.0661 44.0014C88.3038 45.0066 87.5373 50.0345 87.3468 56.0654C87.1562 62.0962 86.2996 70.1396 86.2996 70.1396C86.2996 70.1396 84.8672 77.9801 83.3384 78.7847C83.3384 78.7847 90.4064 73.155 93.8452 75.0639C97.2839 76.9728 101.2 81.5995 102.346 80.8942C102.346 80.8942 102.069 72.0771 103.324 67.3843C103.347 67.2946 103.372 67.2072 103.397 67.1219C104.735 62.493 103.875 56.1646 105.403 53.4555C105.403 53.4555 105.403 48.5422 104.522 44.8721C104.294 43.9351 103.874 43.0618 103.291 42.3136C102.709 41.5654 101.978 40.9603 101.15 40.5408L96.9028 38.3762C96.9028 38.3762 94.4609 37.8185 94.0797 35.9096Z" fill="black"/>
</g>
<path d="M94.0316 35.8589C94.0316 35.8589 90.8798 38.3718 89.9248 40.4879C89.9248 40.4879 89.8284 42.8002 89.0661 43.8053C88.3038 44.8105 87.5373 49.8384 87.3468 55.8692C87.1562 61.9001 86.2996 69.9435 86.2996 69.9435C86.2996 69.9435 84.8672 77.784 83.3384 78.5886C83.3384 78.5886 90.4064 72.9589 93.8452 74.8678C97.2839 76.7767 101.194 81.3924 102.342 80.6958C102.342 80.6958 102.065 71.8788 103.32 67.1859C103.343 67.0963 103.368 67.0088 103.393 66.9236C104.731 62.2947 103.87 55.9662 105.399 53.2572C105.399 53.2572 105.399 48.3439 104.517 44.6738C104.29 43.7367 103.87 42.8635 103.287 42.1152C102.705 41.367 101.974 40.7619 101.146 40.3424L96.8986 38.1778C96.8986 38.1778 94.7478 37.6179 94.0316 35.8589Z" fill="#FA5652"/>
<g opacity="0.1">
<path opacity="0.1" d="M102.771 41.7399C102.771 41.7399 112.465 53.3519 111.129 58.8802C111.129 58.8802 106.161 57.6745 104.825 59.2814C104.825 59.2814 103.778 55.5606 100.622 53.4511C97.466 51.3416 94.555 37.8185 102.771 41.7399Z" fill="black"/>
</g>
<path d="M102.771 41.5393C102.771 41.5393 112.465 53.1514 111.129 58.6797C111.129 58.6797 106.161 57.4739 104.825 59.0808C104.825 59.0808 103.778 55.36 100.622 53.2506C97.466 51.1411 94.555 37.6179 102.771 41.5393Z" fill="#FA5652"/>
<g opacity="0.1">
<path opacity="0.1" d="M93.3153 32.9934C93.1646 32.1822 93.2902 32.1117 93.4577 31.23C94.1258 27.7032 85.2441 35.4534 85.2441 35.4534C85.2441 35.4534 85.7384 36.086 86.352 37.0162C86.8047 37.1144 87.2657 37.1639 87.7279 37.1639C90.1572 37.1661 92.1153 35.0081 93.3153 32.9934Z" fill="black"/>
</g>
<path d="M87.3446 36.6612C91.0898 36.6612 94.1258 33.4657 94.1258 29.5238C94.1258 25.5819 91.0898 22.3864 87.3446 22.3864C83.5995 22.3864 80.5635 25.5819 80.5635 29.5238C80.5635 33.4657 83.5995 36.6612 87.3446 36.6612Z" fill="#FFB9B9"/>
<g opacity="0.1">
<path opacity="0.1" d="M81.2522 27.5709C80.2532 27.712 78.9799 27.3505 78.7872 26.3211C78.5443 24.9986 80.2155 24.1499 80.4752 22.8362C80.5715 22.3424 80.4564 21.8288 80.5129 21.3307C80.626 20.3233 81.3988 19.5496 82.1883 18.9633C84.6799 17.1239 87.7104 16.2742 90.7412 16.5651C91.1197 16.5701 91.4884 16.6928 91.8009 16.9177C92.1296 17.2021 92.2574 17.665 92.4815 18.0463C93.2564 19.3689 94.9946 19.5166 96.2386 20.3365C97.7045 21.2954 98.4187 23.1778 98.4836 24.9853C98.5485 26.7928 98.0647 28.5673 97.5726 30.3042C97.1537 31.7811 96.7349 33.2976 95.8218 34.5055C94.9087 35.7135 93.4155 36.5599 91.9935 36.1962C92.6448 35.7024 92.1715 34.5562 91.4658 34.1529C90.76 33.7495 89.8846 33.6811 89.2815 33.1257C88.6783 32.5702 88.4982 31.662 88.3014 30.8354C88.0543 29.7928 87.694 28.7348 86.9715 27.9699C85.5495 26.482 82.9925 27.3241 81.2522 27.5709Z" fill="black"/>
</g>
<path d="M81.4426 27.4717C80.4436 27.6128 79.1703 27.2513 78.9777 26.2219C78.7347 24.8993 80.4059 24.0507 80.6656 22.7369C80.762 22.2432 80.6468 21.7296 80.7033 21.2314C80.8164 20.2241 81.5892 19.4504 82.3787 18.864C84.8703 17.0247 87.9008 16.1749 90.9316 16.4658C91.3101 16.4709 91.6788 16.5936 91.9913 16.8185C92.3201 17.1028 92.4478 17.5657 92.6719 17.9471C93.4468 19.2696 95.185 19.4173 96.429 20.2373C97.895 21.1962 98.6091 23.0786 98.674 24.8861C98.7389 26.6936 98.2552 28.468 97.763 30.205C97.3442 31.6818 96.9253 33.1984 96.0122 34.4063C95.0991 35.6142 93.6059 36.4607 92.184 36.097C92.8353 35.6032 92.362 34.457 91.6562 34.0536C90.9504 33.6502 90.0751 33.5819 89.4719 33.0264C88.8688 32.4709 88.6908 31.5628 88.4813 30.7362C88.2342 29.6936 87.874 28.6355 87.1515 27.8707C85.7421 26.3806 83.1829 27.2248 81.4426 27.4717Z" fill="#72351C"/>
<path d="M91.4387 20.2286L92.0523 16.9222C92.0584 16.8905 92.0584 16.8578 92.0524 16.8261C92.0464 16.7944 92.0345 16.7642 92.0174 16.7373C92.0002 16.7105 91.9782 16.6875 91.9526 16.6696C91.9269 16.6518 91.8982 16.6395 91.868 16.6334L89.7005 16.1926C89.6703 16.1862 89.6393 16.1861 89.6091 16.1924C89.579 16.1987 89.5503 16.2113 89.5248 16.2293C89.4993 16.2474 89.4775 16.2705 89.4605 16.2975C89.4436 16.3245 89.4319 16.3548 89.4261 16.3866L88.8125 19.6929L86.7183 27.8664L90.5612 28.6555L91.4387 20.2286Z" fill="#CBDAE3"/>
<g opacity="0.1">
<path opacity="0.1" d="M88.2516 33.194C90.0975 33.194 91.594 31.6189 91.594 29.676C91.594 27.733 90.0975 26.158 88.2516 26.158C86.4056 26.158 84.9092 27.733 84.9092 29.676C84.9092 31.6189 86.4056 33.194 88.2516 33.194Z" fill="black"/>
</g>
<path d="M88.2516 33.2932C90.0975 33.2932 91.594 31.7181 91.594 29.7752C91.594 27.8323 90.0975 26.2572 88.2516 26.2572C86.4056 26.2572 84.9092 27.8323 84.9092 29.7752C84.9092 31.7181 86.4056 33.2932 88.2516 33.2932Z" fill="#CBDAE3"/>
<path d="M88.2511 32.0808C89.4609 32.0808 90.4417 31.0485 90.4417 29.7751C90.4417 28.5018 89.4609 27.4695 88.2511 27.4695C87.0413 27.4695 86.0605 28.5018 86.0605 29.7751C86.0605 31.0485 87.0413 32.0808 88.2511 32.0808Z" fill="#E9E9E9"/>
<path d="M88.2516 30.4783C88.6205 30.4783 88.9196 30.1635 88.9196 29.7752C88.9196 29.3868 88.6205 29.072 88.2516 29.072C87.8826 29.072 87.5835 29.3868 87.5835 29.7752C87.5835 30.1635 87.8826 30.4783 88.2516 30.4783Z" fill="#F48681"/>
<path opacity="0.05" d="M91.4944 19.9284L88.8696 19.3889L88.8512 19.4884L91.4759 20.0279L91.4944 19.9284Z" fill="black"/>
<path d="M69.3555 67.6861L69.3536 67.6871C68.5462 68.0968 68.2072 69.1179 68.5965 69.9678L70.6301 74.4074C71.0194 75.2573 71.9895 75.6141 72.797 75.2043L72.7989 75.2034C73.6063 74.7937 73.9453 73.7725 73.556 72.9227L71.5223 68.483C71.133 67.6331 70.1629 67.2764 69.3555 67.6861Z" fill="#CBDAE3"/>
<g opacity="0.1">
<path opacity="0.1" d="M69.3555 67.6861L69.3536 67.6871C68.5462 68.0968 68.2072 69.1179 68.5965 69.9678L70.6301 74.4074C71.0194 75.2573 71.9895 75.6141 72.797 75.2043L72.7989 75.2034C73.6063 74.7936 73.9453 73.7725 73.556 72.9227L71.5223 68.483C71.133 67.6331 70.1629 67.2764 69.3555 67.6861Z" fill="black"/>
</g>
<path d="M71.8869 68.3542C71.4861 67.4791 70.4872 67.1117 69.6558 67.5336C68.8244 67.9555 68.4753 69.0069 68.8762 69.882L70.868 74.2303C71.2688 75.1054 72.2678 75.4728 73.0992 75.0509C73.9305 74.629 74.2796 73.5776 73.8787 72.7025L71.8869 68.3542Z" fill="#CBDAE3"/>
<path d="M71.0402 67.5004L68.7651 68.6548L71.3781 74.3593L73.6532 73.2048L71.0402 67.5004Z" fill="#F2F2F2"/>
<path d="M73.0158 74.7564C73.1585 74.684 73.2001 74.4635 73.1087 74.2639C73.0173 74.0644 72.8274 73.9613 72.6847 74.0337C72.542 74.1061 72.5004 74.3266 72.5918 74.5262C72.6832 74.7258 72.873 74.8289 73.0158 74.7564Z" fill="#F2F2F2"/>
<defs>
<linearGradient id="paint0_linear" x1="60.3457" y1="73.8758" x2="116.126" y2="73.8758" gradientUnits="userSpaceOnUse">
<stop stop-color="#808080" stop-opacity="0.25"/>
<stop offset="0.54" stop-color="#808080" stop-opacity="0.12"/>
<stop offset="1" stop-color="#808080" stop-opacity="0.1"/>
</linearGradient>
<linearGradient id="paint1_linear" x1="212.324" y1="167.952" x2="212.621" y2="167.952" gradientUnits="userSpaceOnUse">
<stop stop-color="#808080" stop-opacity="0.25"/>
<stop offset="0.54" stop-color="#808080" stop-opacity="0.12"/>
<stop offset="1" stop-color="#808080" stop-opacity="0.1"/>
</linearGradient>
<linearGradient id="paint2_linear" x1="212.746" y1="168.338" x2="213.045" y2="168.338" gradientUnits="userSpaceOnUse">
<stop stop-color="#808080" stop-opacity="0.25"/>
<stop offset="0.54" stop-color="#808080" stop-opacity="0.12"/>
<stop offset="1" stop-color="#808080" stop-opacity="0.1"/>
</linearGradient>
<linearGradient id="paint3_linear" x1="212.746" y1="167.952" x2="213.045" y2="167.952" gradientUnits="userSpaceOnUse">
<stop stop-color="#808080" stop-opacity="0.25"/>
<stop offset="0.54" stop-color="#808080" stop-opacity="0.12"/>
<stop offset="1" stop-color="#808080" stop-opacity="0.1"/>
</linearGradient>
</defs>
</svg>
