<svg width="200" height="150" viewBox="0 0 200 150" fill="none" xmlns="http://www.w3.org/2000/svg">
<g clip-path="url(#clip0)">
<path d="M9.29347 142.934C12.0677 147.556 17.9555 149.541 17.9555 149.541C17.9555 149.541 19.3455 144.031 16.5713 139.408C13.7971 134.786 7.90925 132.802 7.90925 132.802C7.90925 132.802 6.51927 138.312 9.29347 142.934Z" fill="#2F2E41"/>
<path d="M11.2001 141.413C16.2087 144.121 18.1377 149.498 18.1377 149.498C18.1377 149.498 11.9461 150.486 6.93753 147.779C1.92896 145.072 0 139.694 0 139.694C0 139.694 6.19154 138.706 11.2001 141.413Z" fill="#1DB776"/>
<path d="M123.493 7.20105H92.2432V7.60213H123.493V7.20105Z" fill="#F2F2F2"/>
<path d="M115.011 7.50195H114.564V11.212H115.011V7.50195Z" fill="#F2F2F2"/>
<path d="M101.395 7.50195H100.948V11.212H101.395V7.50195Z" fill="#F2F2F2"/>
<path d="M139.341 26.4531H108.091V26.8542H139.341V26.4531Z" fill="#F2F2F2"/>
<path d="M117.02 22.8433H116.573V26.5533H117.02V22.8433Z" fill="#F2F2F2"/>
<path d="M130.636 22.8433H130.189V26.5533H130.636V22.8433Z" fill="#F2F2F2"/>
<path d="M180.859 35.4775H149.609V35.8786H180.859V35.4775Z" fill="#F2F2F2"/>
<path d="M158.538 31.8677H158.091V35.5777H158.538V31.8677Z" fill="#F2F2F2"/>
<path d="M172.153 31.8677H171.707V35.5777H172.153V31.8677Z" fill="#F2F2F2"/>
<path d="M177.734 128.529H146.484V128.93H177.734V128.529Z" fill="#F2F2F2"/>
<path d="M155.413 124.919H154.966V128.629H155.413V124.919Z" fill="#F2F2F2"/>
<path d="M169.028 124.919H168.582V128.629H169.028V124.919Z" fill="#F2F2F2"/>
<path d="M124.386 64.1552H93.1357V64.5562H124.386V64.1552Z" fill="#F2F2F2"/>
<path d="M102.065 60.5454H101.618V64.2554H102.065V60.5454Z" fill="#F2F2F2"/>
<path d="M115.68 60.5454H115.234V64.2554H115.68V60.5454Z" fill="#F2F2F2"/>
<path d="M134.207 112.486H102.957V112.887H134.207V112.486Z" fill="#F2F2F2"/>
<path d="M111.886 108.876H111.439V112.586H111.886V108.876Z" fill="#F2F2F2"/>
<path d="M125.502 108.876H125.056V112.586H125.502V108.876Z" fill="#F2F2F2"/>
<path d="M184.207 97.8463H152.957V98.2474H184.207V97.8463Z" fill="#F2F2F2"/>
<path d="M161.886 94.2365H161.439V97.9465H161.886V94.2365Z" fill="#F2F2F2"/>
<path d="M175.502 94.2365H175.056V97.9465H175.502V94.2365Z" fill="#F2F2F2"/>
<path d="M80.8169 140.818H27.9629V140.476H80.4365V123.907H32.4062L30.0729 119.54L30.4158 119.392L32.6455 123.566H80.8169V140.818Z" fill="#2F2E41"/>
<path d="M34.9975 149.188C37.2025 149.188 38.99 147.582 38.99 145.6C38.99 143.619 37.2025 142.013 34.9975 142.013C32.7924 142.013 31.0049 143.619 31.0049 145.6C31.0049 147.582 32.7924 149.188 34.9975 149.188Z" fill="#FA5652"/>
<path d="M74.3529 149.188C76.558 149.188 78.3455 147.582 78.3455 145.6C78.3455 143.619 76.558 142.013 74.3529 142.013C72.1479 142.013 70.3604 143.619 70.3604 145.6C70.3604 147.582 72.1479 149.188 74.3529 149.188Z" fill="#FA5652"/>
<path d="M120.743 71.6389C122.108 71.6389 123.214 70.6447 123.214 69.4183C123.214 68.1919 122.108 67.1978 120.743 67.1978C119.378 67.1978 118.271 68.1919 118.271 69.4183C118.271 70.6447 119.378 71.6389 120.743 71.6389Z" fill="#FA5652"/>
<path d="M86.4697 118.27H27.0616L14.207 80.5211H99.7079L99.6302 80.7432L86.4697 118.27ZM27.3428 117.929H86.1909L99.1896 80.8627H14.721L27.3428 117.929Z" fill="#2F2E41"/>
<path d="M81.8328 116.306H29.6524L18.3618 82.827H93.4603L93.3919 83.0242L81.8328 116.306Z" fill="#F2F2F2"/>
<path d="M100.773 77.1487L100.406 77.061L102.915 68.5642H117.511V68.9059H103.208L100.773 77.1487Z" fill="#2F2E41"/>
<path d="M95.4357 91.9656H18.3613V92.3072H95.4357V91.9656Z" fill="#2F2E41"/>
<path d="M91.0216 104.552H22.647V104.893H91.0216V104.552Z" fill="#2F2E41"/>
<path d="M57.1463 80.692H56.7661V118.1H57.1463V80.692Z" fill="#2F2E41"/>
<path d="M74.171 80.6813L71.4414 118.088L71.8209 118.11L74.5505 80.7036L74.171 80.6813Z" fill="#2F2E41"/>
<path d="M39.7501 80.6808L39.3706 80.703L42.0843 118.111L42.4638 118.089L39.7501 80.6808Z" fill="#2F2E41"/>
<path d="M200 149.404H0V149.805H200V149.404Z" fill="#2F2E41"/>
<path d="M132.904 12.4088C132.904 12.4088 136.167 20.7526 134.159 22.0363C132.151 23.3199 140.936 33.8032 140.936 33.8032L151.479 31.2359L145.705 22.4642C145.705 22.4642 144.952 13.6924 144.952 12.4088C144.952 11.1251 132.904 12.4088 132.904 12.4088Z" fill="#FFB9B9"/>
<path opacity="0.1" d="M132.904 12.4088C132.904 12.4088 136.167 20.7526 134.159 22.0363C132.151 23.3199 140.936 33.8032 140.936 33.8032L151.479 31.2359L145.705 22.4642C145.705 22.4642 144.952 13.6924 144.952 12.4088C144.952 11.1251 132.904 12.4088 132.904 12.4088Z" fill="black"/>
<path d="M127.427 71.8852C127.427 71.8852 126.475 82.5824 127.427 88.145C128.38 93.7075 129.809 109.111 129.809 109.111C129.809 109.111 129.809 138.208 135.047 138.636C140.286 139.064 144.096 139.492 144.573 137.78C145.049 136.068 142.191 135.213 143.62 134.357C145.049 133.501 145.525 130.506 143.62 127.083C141.715 123.66 143.62 89.0007 143.62 89.0007L152.669 110.823C152.669 110.823 153.622 128.794 154.574 131.362C155.527 133.929 153.622 138.636 156.955 139.064C160.289 139.492 164.099 136.924 166.004 136.068C167.91 135.213 163.147 135.213 164.099 134.785C165.052 134.357 167.909 133.073 166.957 132.645C166.004 132.217 165.052 111.679 165.052 111.679C165.052 111.679 162.432 67.8203 159.099 66.1087C155.765 64.3972 153.622 67.3452 153.622 67.3452L127.427 71.8852Z" fill="#2F2E41"/>
<path d="M136 136.924V140.347C136 140.347 131.713 149.652 136 149.652C140.286 149.652 143.62 150.617 143.62 149.333V137.78L136 136.924Z" fill="#2F2E41"/>
<path d="M164.1 136.918V140.341C164.1 140.341 168.386 149.646 164.1 149.646C159.813 149.646 156.479 150.611 156.479 149.327V137.774L164.1 136.918Z" fill="#2F2E41"/>
<path d="M139.572 18.6131C144.306 18.6131 148.144 15.1648 148.144 10.9111C148.144 6.6574 144.306 3.20911 139.572 3.20911C134.837 3.20911 130.999 6.6574 130.999 10.9111C130.999 15.1648 134.837 18.6131 139.572 18.6131Z" fill="#FFB9B9"/>
<path d="M136.953 25.2455C136.953 25.2455 139.334 31.6638 143.144 30.3801L146.954 29.0965L153.622 70.1738C153.622 70.1738 148.383 77.02 140.763 72.7411C133.142 68.4622 136.953 25.2455 136.953 25.2455Z" fill="#1DB776"/>
<path d="M143.62 23.9618L145.763 19.8969C145.763 19.8969 158.384 25.2455 160.289 26.957C162.194 28.6686 162.194 31.2359 162.194 31.2359L158.861 41.9331C158.861 41.9331 159.813 65.4669 159.813 66.3227C159.813 67.1785 163.147 71.8853 160.766 70.1737C158.384 68.4622 157.908 66.7506 156.003 69.318C154.098 71.8853 149.812 74.8805 149.812 74.8805L143.62 23.9618Z" fill="#FA5652"/>
<path d="M160.289 54.7697L158.86 66.7505C158.86 66.7505 150.288 73.5967 152.193 74.0246C154.098 74.4525 155.05 72.741 155.05 72.741C155.05 72.741 158.384 75.7362 160.289 74.0246C162.194 72.3131 166.957 56.0533 166.957 56.0533L160.289 54.7697Z" fill="#FFB9B9"/>
<path d="M139.754 0.0260447C137.854 -0.0349944 135.82 -0.0651883 134.218 0.854928C133.48 1.3167 132.834 1.88541 132.304 2.53779C130.744 4.31027 129.395 6.54046 129.975 8.73964L130.648 8.50372C130.648 9.09074 130.503 9.67043 130.223 10.2008C130.318 9.95314 130.635 10.3535 130.55 10.6041L129.809 12.7901C131.028 12.3886 132.544 13.2016 132.73 14.3563C132.815 11.8172 133.108 8.90564 135.401 7.41888C136.557 6.66912 138.02 6.44024 139.428 6.23699C140.726 6.04948 142.088 5.87068 143.332 6.25481C144.576 6.63894 145.635 7.78194 145.353 8.93625C145.927 8.75873 146.568 9.11787 146.852 9.59975C147.135 10.0816 147.15 10.6501 147.159 11.1951C147.77 11.5833 148.466 10.8124 148.715 10.1781C149.3 8.68921 149.82 7.10431 149.505 5.55099C149.19 3.99767 147.781 2.51323 146.023 2.50796C146.237 2.29746 146.351 2.02066 146.341 1.73613L144.892 1.62617C145.26 1.57939 145.598 1.4192 145.849 1.17303C145.267 1.74797 140.695 0.0562483 139.754 0.0260447Z" fill="#2F2E41"/>
<path d="M139.334 22.6781C139.334 22.6781 135.457 19.2647 134.061 19.4738C132.666 19.6829 130.761 22.6781 130.761 22.6781C130.761 22.6781 119.331 26.1012 119.807 29.5243C120.283 32.9475 125.522 49.6351 125.522 49.6351C125.522 49.6351 129.808 69.7458 125.998 71.8853C122.188 74.0247 144.096 79.5873 144.573 77.0199C145.049 74.4526 146.001 48.7793 144.573 44.9283C143.144 41.0773 139.334 22.6781 139.334 22.6781Z" fill="#FA5652"/>
<path d="M156.003 29.5243H161.892C161.892 29.5243 166.004 45.7841 166.481 47.4956C166.957 49.2072 167.91 57.3371 167.433 57.3371C166.957 57.3371 157.432 55.6255 157.432 56.9092L156.003 29.5243Z" fill="#FA5652"/>
<path d="M155.804 69.7888H133.259C131.059 60.6962 130.875 51.9111 133.259 43.5177H155.804C152.166 51.7601 151.938 60.485 155.804 69.7888Z" fill="#F2F2F2"/>
<path d="M124.093 58.6207L130.761 61.188C130.761 61.188 143.62 62.8996 143.62 58.1928C143.62 53.486 130.761 56.0534 130.761 56.0534L126.474 54.822L124.093 58.6207Z" fill="#FFB9B9"/>
<path d="M125.522 26.9569L119.807 28.2406L115.52 50.9187C115.52 50.9187 114.092 56.9091 116.473 57.337C118.854 57.7649 125.522 61.188 125.522 61.188C125.522 61.188 126.474 54.7697 128.379 54.7697L123.617 51.3465L126.474 36.3705L125.522 26.9569Z" fill="#FA5652"/>
<path d="M44.6982 70.7731H13.4482V71.1742H44.6982V70.7731Z" fill="#F2F2F2"/>
<path d="M22.3771 67.1632H21.9307V70.8732H22.3771V67.1632Z" fill="#F2F2F2"/>
<path d="M35.9928 67.1632H35.5464V70.8732H35.9928V67.1632Z" fill="#F2F2F2"/>
<path d="M55.6357 11.4125H24.3857V11.8136H55.6357V11.4125Z" fill="#F2F2F2"/>
<path d="M47.1535 11.7133H46.707V15.4233H47.1535V11.7133Z" fill="#F2F2F2"/>
<path d="M33.5377 11.7133H33.0913V15.4233H33.5377V11.7133Z" fill="#F2F2F2"/>
<path d="M87.1089 50.9192H55.8589V51.3203H87.1089V50.9192Z" fill="#F2F2F2"/>
<path d="M78.6271 51.2201H78.1807V54.9301H78.6271V51.2201Z" fill="#F2F2F2"/>
<path d="M65.0109 51.2201H64.5645V54.9301H65.0109V51.2201Z" fill="#F2F2F2"/>
<path d="M33.9839 50.7188H2.73389V51.1198H33.9839V50.7188Z" fill="#F2F2F2"/>
<path d="M25.5021 51.0195H25.0557V54.7296H25.5021V51.0195Z" fill="#F2F2F2"/>
<path d="M11.8859 51.0195H11.4395V54.7296H11.8859V51.0195Z" fill="#F2F2F2"/>
<path d="M71.4839 30.6644H40.2339V31.0655H71.4839V30.6644Z" fill="#F2F2F2"/>
<path d="M49.1627 27.0547H48.7163V30.7647H49.1627V27.0547Z" fill="#F2F2F2"/>
<path d="M62.7785 27.0547H62.332V30.7647H62.7785V27.0547Z" fill="#F2F2F2"/>
</g>
<defs>
<clipPath id="clip0">
<rect width="200" height="150" fill="white"/>
</clipPath>
</defs>
</svg>
