<svg width="200" height="150" viewBox="0 0 200 150" fill="none" xmlns="http://www.w3.org/2000/svg">
<path d="M111.516 150C151.558 150 184.019 145.094 184.019 139.042C184.019 132.991 151.558 128.085 111.516 128.085C71.4734 128.085 39.0127 132.991 39.0127 139.042C39.0127 145.094 71.4734 150 111.516 150Z" fill="#3F3D56"/>
<path d="M63.2653 68.0941C67.8737 62.2337 69.8747 55.1545 68.9053 48.1402C67.936 41.1259 64.0605 34.641 57.9816 29.8616C51.9028 25.0821 44.0231 22.3246 35.7715 22.089C27.52 21.8534 19.4429 24.1553 13.0051 28.5774C6.56727 32.9995 2.19499 39.2489 0.681119 46.1923C-0.832747 53.1357 0.61205 60.3133 4.75351 66.4235C8.89496 72.5338 15.4588 77.172 23.2548 79.4972C31.0508 81.8223 39.5626 81.6804 47.2468 79.0971C47.745 80.6183 48.6763 82.0101 49.9574 83.1478C51.2385 84.2855 52.8294 85.1338 54.5876 85.6165C56.3459 86.0993 58.2166 86.2015 60.0324 85.9141C61.8481 85.6266 63.5522 84.9585 64.9921 83.9694C66.432 82.9804 67.5628 81.7013 68.2831 80.2467C69.0035 78.7921 69.291 77.2074 69.1199 75.6344C68.9488 74.0615 68.3244 72.5494 67.3027 71.2334C66.281 69.9175 64.8938 68.8389 63.2653 68.0941Z" fill="#1DB776"/>
<path d="M55.1177 45.7012H14.0493V48.4749H55.1177V45.7012Z" fill="white"/>
<path d="M55.1177 50.3241H14.0493V53.0978H55.1177V50.3241Z" fill="white"/>
<path d="M55.1177 54.947H14.0493V57.7208H55.1177V54.947Z" fill="white"/>
<path d="M136.735 46.1238C132.127 40.2634 130.126 33.1842 131.095 26.1699C132.064 19.1556 135.94 12.6707 142.019 7.89124C148.098 3.11178 155.977 0.354216 164.229 0.11862C172.48 -0.116976 180.558 2.185 186.995 6.60708C193.433 11.0292 197.805 17.2786 199.319 24.222C200.833 31.1654 199.388 38.343 195.247 44.4532C191.105 50.5635 184.542 55.2017 176.746 57.5269C168.95 59.852 160.438 59.7101 152.754 57.1268C152.255 58.648 151.324 60.0398 150.043 61.1775C148.762 62.3152 147.171 63.1635 145.413 63.6462C143.655 64.129 141.784 64.2312 139.968 63.9438C138.152 63.6563 136.448 62.9882 135.008 61.9991C133.568 61.01 132.438 59.731 131.717 58.2764C130.997 56.8218 130.709 55.2371 130.881 53.6641C131.052 52.0912 131.676 50.579 132.698 49.2631C133.719 47.9472 135.107 46.8686 136.735 46.1238Z" fill="#1DB776"/>
<path d="M144.882 26.5046L185.95 26.5046V23.7309L144.882 23.7309V26.5046Z" fill="white"/>
<path d="M144.882 31.1276L185.95 31.1276V28.3538L144.882 28.3538V31.1276Z" fill="white"/>
<path d="M144.882 35.7505L185.95 35.7505V32.9767L144.882 32.9767V35.7505Z" fill="white"/>
<path d="M76.7832 126.966C74.2103 123.694 73.0932 119.742 73.6344 115.826C74.1756 111.91 76.3392 108.29 79.733 105.621C83.1267 102.953 87.5258 101.414 92.1326 101.282C96.7393 101.15 101.249 102.436 104.843 104.904C108.437 107.373 110.878 110.862 111.723 114.739C112.568 118.615 111.762 122.622 109.45 126.033C107.137 129.445 103.473 132.034 99.1205 133.332C94.7681 134.63 90.016 134.551 85.7261 133.109C85.448 133.958 84.928 134.735 84.2128 135.37C83.4976 136.006 82.6094 136.479 81.6278 136.749C80.6462 137.018 79.6018 137.075 78.5881 136.915C77.5743 136.754 76.623 136.381 75.8191 135.829C75.0152 135.277 74.3839 134.563 73.9818 133.751C73.5796 132.939 73.4191 132.054 73.5146 131.176C73.6101 130.298 73.9587 129.453 74.5291 128.719C75.0995 127.984 75.874 127.382 76.7832 126.966Z" fill="#1DB776"/>
<path d="M85.2061 119.294C86.438 119.294 87.4366 118.44 87.4366 117.386C87.4366 116.332 86.438 115.477 85.2061 115.477C83.9742 115.477 82.9756 116.332 82.9756 117.386C82.9756 118.44 83.9742 119.294 85.2061 119.294Z" fill="white"/>
<path d="M92.816 119.294C94.0479 119.294 95.0465 118.44 95.0465 117.386C95.0465 116.332 94.0479 115.477 92.816 115.477C91.5841 115.477 90.5854 116.332 90.5854 117.386C90.5854 118.44 91.5841 119.294 92.816 119.294Z" fill="white"/>
<path d="M100.426 119.294C101.658 119.294 102.656 118.44 102.656 117.386C102.656 116.332 101.658 115.477 100.426 115.477C99.194 115.477 98.1953 116.332 98.1953 117.386C98.1953 118.44 99.194 119.294 100.426 119.294Z" fill="white"/>
<path d="M95.0494 58.1877C95.0494 58.1877 105.002 58.4192 106.645 58.9308C108.289 59.4424 109.024 63.1007 109.024 63.1007L101.297 65.1785L95.5171 64.8984L91.1675 65.1614L93.5962 59.7197L95.0494 58.1877Z" fill="#2F2E41"/>
<path d="M95.4785 55.3939C95.4785 55.3939 96.1333 57.5574 94.6801 59.0894C93.2269 60.6213 100.927 66.0801 100.927 66.0801L104.99 65.4827C104.99 65.4827 104.094 58.835 105.297 57.1516C106.5 55.4682 95.4785 55.3939 95.4785 55.3939Z" fill="#FFB9B9"/>
<path opacity="0.1" d="M95.4785 55.3939C95.4785 55.3939 96.1333 57.5574 94.6801 59.0894C93.2269 60.6213 100.927 66.0801 100.927 66.0801L104.99 65.4827C104.99 65.4827 104.094 58.835 105.297 57.1516C106.5 55.4682 95.4785 55.3939 95.4785 55.3939Z" fill="black"/>
<path d="M122.496 118.651L113.533 128.82L119.65 131.875L128.069 120.091L122.496 118.651Z" fill="#FFB9B9"/>
<path d="M116.209 128.991C116.209 128.991 112.908 125.71 113.055 126.442C113.202 127.173 110.706 133.378 113.028 133.978C115.35 134.579 135.261 136.17 135.535 134.247C135.809 132.324 129.595 130.977 129.595 130.977C129.595 130.977 125.904 127.942 125.085 128.251C124.267 128.56 116.209 128.991 116.209 128.991Z" fill="#2F2E41"/>
<path d="M120.485 128.362L127.644 138.797L133.049 136.119L125.83 127.576L120.485 128.362Z" fill="#FFB9B9"/>
<path d="M131.786 103.537L129.662 106.11C129.662 106.11 119.533 118.145 120.608 119.116C121.684 120.088 126.164 123.761 128.442 123.049C130.721 122.337 138.815 110.036 138.815 110.036L136.704 102.814L131.786 103.537Z" fill="#2F2E41"/>
<path d="M88.1526 101.102C88.1526 101.102 90.421 104.724 96.1704 105.95C101.92 107.176 107.927 109.682 108.14 109.651C108.354 109.619 108.959 109.342 109.106 110.074C109.253 110.805 110.83 112.08 110.83 112.08C110.83 112.08 117.181 130.543 119.606 130.563C122.031 130.583 127.016 129.097 127.119 128.517C127.223 127.936 119.693 109.082 119.619 108.716L118.737 104.326C118.737 104.326 128.696 105.687 129.625 105.927C130.554 106.167 138.815 110.037 138.815 110.037C138.815 110.037 147.237 104.843 139.36 99.599C131.482 94.3546 117.942 90.5077 117.942 90.5077L113.085 89.3388L108.851 89.1226L108.228 87.0776L98.2016 87.5725L87.7383 91.3709L88.1526 101.102Z" fill="#2F2E41"/>
<path d="M101.386 59.7004C105.699 59.7004 109.196 56.7091 109.196 53.019C109.196 49.3289 105.699 46.3375 101.386 46.3375C97.0723 46.3375 93.5757 49.3289 93.5757 53.019C93.5757 56.7091 97.0723 59.7004 101.386 59.7004Z" fill="#FFB9B9"/>
<path d="M94.3199 58.3892L95.2592 58.2511C95.2592 58.2511 96.9558 63.8395 102.204 64.7626C102.204 64.7626 104.794 62.1086 104.683 61.6607C104.573 61.2129 106.734 58.8236 107.883 60.1612C109.033 61.4987 107.603 85.0603 108.568 85.4833C109.534 85.9063 111.605 86.355 109.938 87.9183C108.271 89.4817 101.65 91.5852 100.183 90.8593C98.7164 90.1333 95.7197 83.9829 94.4235 81.9137C93.1273 79.8444 91.0526 72.8051 91.0526 72.8051C91.0526 72.8051 88.4034 65.097 90.0337 63.3508C91.664 61.6045 94.3199 58.3892 94.3199 58.3892Z" fill="#135E8A"/>
<path d="M101.794 87.396C101.62 89.0373 101.321 90.6671 100.9 92.2753C100.517 93.5838 100.071 94.3738 99.5617 94.3401C98.2631 94.2571 97.6728 95.8865 97.3685 97.7651C97.0432 99.7581 97.0432 102.032 96.8648 102.835C96.6287 103.897 95.1175 104.707 92.0979 104.469C90.2996 104.294 88.5346 103.924 86.8457 103.367C82.7688 102.099 82.8895 91.8152 83.5716 84.1843C83.9888 79.507 84.6158 75.824 84.6158 75.824C84.6158 75.824 83.3775 72.6639 82.9814 70.498C82.9025 70.1029 82.863 69.7027 82.8633 69.3018C82.9236 67.4098 86.9611 62.2971 89.401 59.1123C91.8434 55.9275 95.1752 58.2639 95.1752 58.2639L94.0157 61.2579C94.0157 61.2579 95.8127 63.6302 95.8259 65.8881C95.839 68.1459 100.128 69.7753 101.668 70.8684C102.636 71.5551 102.613 80.7235 101.794 87.396Z" fill="#2F2E41"/>
<path d="M105.186 59.3337C105.186 59.3337 105.467 59.6183 106.756 59.4795C108.301 59.313 110.426 59.7705 110.92 61.0328C111.825 63.3478 114.378 72.765 114.378 72.765C114.378 72.765 115.44 83.5312 115.918 85.9091C116.396 88.287 116.158 90.3933 116.63 91.6423C117.101 92.8913 111.979 89.313 110.092 89.7789C108.204 90.2447 106.991 84.2086 107.229 82.1022C107.466 79.9959 107.666 77.7066 107.011 75.543C106.357 73.3795 107.517 67.6535 107.474 66.3416C107.431 65.0298 103.312 61.7235 105.186 59.3337Z" fill="#2F2E41"/>
<path d="M110.712 92.7949C110.712 92.7949 118.981 96.6544 119.772 102.148C120.564 107.641 108.712 96.8287 108.712 96.8287L110.712 92.7949Z" fill="#FFB9B9"/>
<path d="M115.432 88.8994C115.432 88.8994 117.966 99.8259 121.913 99.2455C125.86 98.6651 119.708 88.2706 119.708 88.2706L115.432 88.8994Z" fill="#FFB9B9"/>
<path d="M128.95 136.533C128.95 136.533 126.929 138.525 126.428 138.222C125.927 137.919 124.774 142.044 125.813 142.832C126.852 143.621 130.855 144.916 130.898 146.228C130.942 147.54 141.675 147.279 142.06 145.905C142.444 144.53 140.713 141.395 139.497 140.82C138.281 140.246 133.785 134.958 133.785 134.958C133.785 134.958 130.263 135.399 128.95 136.533Z" fill="#2F2E41"/>
<path opacity="0.1" d="M109.395 99.4775C107.477 98.3194 102.122 98.0321 97.3686 97.765C95.2829 97.6505 93.3127 97.5383 91.7989 97.3565C90.3403 97.1837 89.0286 96.0436 87.8637 94.3446C86.0981 91.7703 84.671 87.9099 83.5717 84.1842C83.9889 79.5069 84.6159 75.8239 84.6159 75.8239C84.6159 75.8239 83.3776 72.6638 82.9814 70.498C83.2607 70.1655 83.6204 69.8884 84.0361 69.6855C89.0784 67.8339 93.8925 86.056 94.5037 88.9154C94.5142 88.9625 94.5221 89.0074 94.53 89.0456C94.8264 90.5179 98.0297 91.777 100.9 92.2752C102.668 92.5827 104.313 92.6029 105.071 92.2034C107.062 91.1575 113.186 95.3433 113.65 95.4623C114.114 95.5835 112.149 101.145 109.395 99.4775Z" fill="black"/>
<path d="M84.0367 68.5638C84.0367 68.5638 80.3719 70.0443 81.9822 76.9636C83.5925 83.8828 86.8364 95.6465 91.7974 96.2352C96.7585 96.824 106.637 96.6896 109.393 98.3558C112.149 100.022 114.114 94.4603 113.649 94.3403C113.185 94.2202 107.061 90.0361 105.07 91.0822C103.079 92.1282 95.0079 90.3019 94.5301 87.9241C94.0524 85.5462 89.1615 66.6804 84.0367 68.5638Z" fill="#2F2E41"/>
<path d="M110.446 65.2456L114.474 73.2411C114.474 73.2411 114.879 73.068 115.35 74.317C115.821 75.5659 116.042 76.6634 116.867 77.4837C117.692 78.3039 121.363 90.0047 121.474 90.5534C121.584 91.1022 116.403 92.994 115.245 91.4693C114.087 89.9447 110.446 65.2456 110.446 65.2456Z" fill="#2F2E41"/>
<path d="M96.9419 52.9258C97.2412 52.8575 97.2852 52.5175 97.2952 52.2526C97.3489 50.8341 98.3474 49.3785 99.9346 48.9655C100.544 48.8226 101.181 48.7926 101.805 48.8775C102.695 48.9789 103.555 49.2242 104.338 49.6004C104.752 49.7993 105.157 50.0387 105.626 50.0995C105.936 50.1396 107.276 50.4731 107.585 50.52C108.263 50.6232 108.893 51.1421 109.543 50.949C110.166 50.7643 110.304 50.0749 110.319 49.5114C110.353 48.2277 109.214 46.4511 108.211 45.4962C107.449 44.7715 106.303 44.437 105.182 44.263C103.873 44.0831 102.546 44.014 101.221 44.0569C99.428 44.0842 97.5848 44.2027 95.9676 44.8665C94.3504 45.5304 92.992 46.8517 92.9145 48.3848C92.8984 48.7042 92.9369 49.0249 92.9055 49.3434C92.8289 50.1204 92.3466 50.8223 92.1204 51.5777C91.9586 52.132 91.9344 52.7091 92.0494 53.2718C92.1643 53.8346 92.4158 54.3705 92.7877 54.845C93.3879 55.6006 94.3312 56.284 94.2965 57.1971L95.5979 56.0437C95.7923 55.9167 95.9299 55.7365 95.9878 55.5332C96.0456 55.3299 96.0202 55.1158 95.9158 54.9266L95.4551 53.3895C95.3367 53.1151 95.3228 52.8157 95.4153 52.5341C95.9091 51.4902 96.4428 53.0398 96.9419 52.9258Z" fill="#2F2E41"/>
<path d="M156.086 129.798C156.032 129.723 154.76 127.906 154.319 124.134C153.915 120.673 154.175 114.84 157.711 106.702C164.411 91.2872 156.168 78.8493 156.083 78.7254L156.49 78.5236C156.511 78.555 158.638 81.7262 159.895 86.7758C161.555 93.4705 160.951 100.431 158.152 106.843C151.464 122.232 156.436 129.517 156.487 129.589L156.086 129.798Z" fill="#3F3D56"/>
<path d="M153.466 77.8203C155.154 77.8203 156.522 76.6501 156.522 75.2065C156.522 73.763 155.154 72.5928 153.466 72.5928C151.779 72.5928 150.411 73.763 150.411 75.2065C150.411 76.6501 151.779 77.8203 153.466 77.8203Z" fill="#1DB776"/>
<path d="M163.102 87.471C164.789 87.471 166.157 86.3008 166.157 84.8573C166.157 83.4137 164.789 82.2435 163.102 82.2435C161.415 82.2435 160.047 83.4137 160.047 84.8573C160.047 86.3008 161.415 87.471 163.102 87.471Z" fill="#3F3D56"/>
<path d="M156.522 93.9049C158.209 93.9049 159.577 92.7347 159.577 91.2911C159.577 89.8476 158.209 88.6774 156.522 88.6774C154.834 88.6774 153.466 89.8476 153.466 91.2911C153.466 92.7347 154.834 93.9049 156.522 93.9049Z" fill="#1DB776"/>
<path d="M164.512 99.3335C166.2 99.3335 167.567 98.1632 167.567 96.7197C167.567 95.2762 166.2 94.106 164.512 94.106C162.825 94.106 161.457 95.2762 161.457 96.7197C161.457 98.1632 162.825 99.3335 164.512 99.3335Z" fill="#1DB776"/>
<path d="M154.171 107.778C155.859 107.778 157.227 106.608 157.227 105.164C157.227 103.721 155.859 102.55 154.171 102.55C152.484 102.55 151.116 103.721 151.116 105.164C151.116 106.608 152.484 107.778 154.171 107.778Z" fill="#3F3D56"/>
<path d="M157.932 129.894C157.932 129.894 154.876 123.46 164.042 118.635L157.932 129.894Z" fill="#3F3D56"/>
<path d="M154.174 129.778C154.174 129.778 152.784 122.936 142.022 122.994L154.174 129.778Z" fill="#3F3D56"/>
</svg>
