<svg width="100" height="100" viewBox="0 0 100 100" fill="none" xmlns="http://www.w3.org/2000/svg">
<path d="M67.9501 31.4708H32.1689L38.1136 73.1575C38.2641 74.2145 39.1708 75 40.2406 75H59.8785C60.9483 75 61.8549 74.2145 62.0055 73.1575L67.9501 31.4708Z" fill="#F2F2F2"/>
<path d="M62.0731 31.4708L55.8655 75H59.878C60.9478 75 61.8548 74.2145 62.0054 73.1575L67.95 31.4708H62.0731Z" fill="white"/>
<path d="M64.2418 25H35.8772C35.4736 25 35.1254 25.2831 35.0436 25.6779L33.741 31.9798H66.378L65.0754 25.6779C64.9936 25.2831 64.6454 25 64.2418 25V25Z" fill="#363938"/>
<path d="M65.4324 27.4063L65.0754 25.6779C64.9936 25.2831 64.6454 25 64.2418 25H59.1591L59.4362 26.3409C59.6629 27.4372 58.8243 27.961 57.7029 27.961H34.5715L33.741 31.9801H66.378L65.4324 27.4063Z" fill="#4B4F51"/>
<path d="M69.0226 35.4698H31.0964C30.4042 35.4698 29.8435 34.9102 29.8435 34.2194V30.9037C29.8435 30.2132 30.4046 29.6532 31.0964 29.6532H69.0226C69.7144 29.6532 70.2755 30.2132 70.2755 30.9037V34.2194C70.2755 34.9102 69.7144 35.4698 69.0226 35.4698Z" fill="#363938"/>
<path d="M69.0226 29.6532H64.4574V30.695C64.4574 32.6737 63.477 33.7746 61.4945 33.7746H31.724C31.0318 33.7746 30.4711 33.215 30.4711 32.5245L29.8435 34.2194C29.8435 34.9102 30.4046 35.4698 31.0964 35.4698H69.0226C69.7144 35.4698 70.2755 34.9102 70.2755 34.2194V30.9037C70.2755 30.2132 69.7144 29.6532 69.0226 29.6532Z" fill="#4B4F51"/>
<path d="M36.2505 67.9707L32.5205 41.8145C32.4341 41.2072 32.9061 40.6639 33.5207 40.6639H66.5981C67.2123 40.6639 67.6848 41.2072 67.598 41.8145L63.8683 67.9707C63.7972 68.4677 63.3711 68.837 62.8681 68.837H37.2508C36.7478 68.837 36.3216 68.4677 36.2505 67.9707Z" fill="#F5C108"/>
<path d="M66.5982 40.6639H61.9103L57.8928 68.837H62.8681C63.3711 68.837 63.7973 68.4677 63.8684 67.9707L67.5985 41.8145C67.6848 41.2072 67.2128 40.6639 66.5982 40.6639Z" fill="#F5C108"/>
<path d="M55.2197 49.0708C53.0001 46.8556 48.8902 47.3657 46.0403 50.2103C43.1902 53.0545 42.6791 57.1565 44.8987 59.3717C47.1182 61.5869 51.2282 61.0768 54.078 58.2322C56.9282 55.388 57.4392 51.286 55.2197 49.0708Z" fill="#1DB776" fill-opacity="0.57"/>
<path d="M55.22 49.0708C54.9838 48.835 54.7254 48.6325 54.4502 48.4581C53.1706 49.1555 50.7011 50.7946 50.0028 53.3505C49.6989 54.4628 48.6218 55.7858 46.8888 57.1751C45.8771 57.9865 44.9082 58.6026 44.4683 58.8707C44.5986 59.0462 44.7412 59.2141 44.899 59.3716C45.1169 59.589 45.3535 59.7794 45.605 59.9449C47.0937 59.002 50.719 56.4705 51.4628 53.748C52.1065 51.3924 54.8894 49.9092 55.6343 49.5495C55.5086 49.382 55.371 49.2218 55.22 49.0708Z" fill="#1DB776"/>
<rect x="0.5" y="0.5" width="99" height="99" rx="49.5" stroke="#DADADA" stroke-miterlimit="2.3662" stroke-linecap="round"/>
</svg>
