<svg width="101" height="100" viewBox="0 0 101 100" fill="none" xmlns="http://www.w3.org/2000/svg">
<path d="M24.1208 29.2188H66.3083V37.9688H24.1208V29.2188Z" fill="#937057"/>
<path d="M38.1833 32.5L39.3552 37.9688H46.3865L47.5583 32.4337L38.1833 32.5Z" fill="#1DB776" fill-opacity="0.58"/>
<path d="M42.8708 39.0625C42.56 39.0625 42.262 38.9473 42.0422 38.7421C41.8224 38.537 41.699 38.2588 41.699 37.9688V32.5C41.699 32.2099 41.8224 31.9317 42.0422 31.7266C42.262 31.5215 42.56 31.4062 42.8708 31.4062C43.1817 31.4062 43.4797 31.5215 43.6995 31.7266C43.9193 31.9317 44.0427 32.2099 44.0427 32.5V37.9688C44.0427 38.2588 43.9193 38.537 43.6995 38.7421C43.4797 38.9473 43.1817 39.0625 42.8708 39.0625Z" fill="#1DB776"/>
<path d="M24.1208 37.9688H66.3083V76.7969C66.3083 78.1022 65.7528 79.3541 64.7638 80.2772C63.7748 81.2002 62.4335 81.7188 61.0349 81.7188H29.3943C27.9957 81.7188 26.6544 81.2002 25.6654 80.2772C24.6764 79.3541 24.1208 78.1022 24.1208 76.7969V37.9688Z" fill="#CD9C7A"/>
<path d="M65.1365 52.251L66.3083 59.9072V60.9375H72.1677L72.3142 59.9072L65.1365 52.251Z" fill="#1DB776"/>
<path d="M72.3142 59.9072L73.3396 52.251L66.3083 59.9072H72.3142Z" fill="#1DB776"/>
<path d="M48.7302 27.0313C48.1736 27.0308 47.6249 27.1542 47.1297 27.3914C46.7551 26.6311 46.1549 25.987 45.4 25.5355C44.6451 25.084 43.7674 24.8441 42.8708 24.8441C41.9742 24.8441 41.0965 25.084 40.3416 25.5355C39.5868 25.987 38.9865 26.6311 38.6119 27.3914C38.0235 27.1104 37.3622 26.9899 36.7038 27.0437C36.0454 27.0975 35.4166 27.3235 34.8895 27.6956C34.3624 28.0678 33.9584 28.5711 33.7238 29.1478C33.4892 29.7245 33.4335 30.3512 33.5632 30.9561C33.6928 31.561 34.0025 32.1195 34.4568 32.5676C34.911 33.0157 35.4914 33.3352 36.1313 33.4895C36.7712 33.6437 37.4448 33.6265 38.0747 33.4398C38.7046 33.253 39.2654 32.9044 39.6927 32.4337C40.5581 33.1796 41.6928 33.5938 42.8708 33.5938C44.0488 33.5938 45.1835 33.1796 46.0489 32.4337C46.4306 32.8542 46.9197 33.1781 47.4709 33.3757C48.0221 33.5733 48.6177 33.6381 49.2028 33.5641C49.788 33.4902 50.3437 33.2799 50.8188 32.9526C51.2939 32.6254 51.673 32.1917 51.9212 31.6917C52.1693 31.1916 52.2786 30.6413 52.2388 30.0915C52.199 29.5416 52.0115 29.01 51.6935 28.5456C51.3756 28.0812 50.9374 27.6991 50.4195 27.4344C49.9016 27.1698 49.3206 27.0311 48.7302 27.0313Z" fill="#1DB776"/>
<path d="M24.1208 37.9688L31.1521 33.5938V37.9688H24.1208Z" fill="#BD9070"/>
<path d="M24.1208 29.2188L31.1521 33.5938L24.1208 37.9688V29.2188Z" fill="#AC8366"/>
<path d="M66.3083 37.9688L59.2771 33.5938L58.1052 37.9688H66.3083Z" fill="#BD9070"/>
<path d="M66.3083 29.2188L59.2771 33.5938L66.3083 37.9688V29.2188Z" fill="#AC8366"/>
<path d="M55.5581 25.9375C55.3558 25.9375 55.1568 25.8886 54.9807 25.7955C54.8046 25.7025 54.6574 25.5684 54.5532 25.4065L51.0376 19.9377C50.8777 19.689 50.8302 19.3911 50.9056 19.1097C50.981 18.8283 51.1731 18.5864 51.4396 18.4371C51.7061 18.2879 52.0252 18.2435 52.3267 18.3139C52.6282 18.3843 52.8875 18.5635 53.0474 18.8123L54.3862 20.895V18.2812C54.3862 17.9912 54.5097 17.713 54.7295 17.5079C54.9493 17.3027 55.2473 17.1875 55.5581 17.1875C55.8689 17.1875 56.167 17.3027 56.3868 17.5079C56.6065 17.713 56.73 17.9912 56.73 18.2812V24.8438C56.73 25.1338 56.6065 25.412 56.3868 25.6171C56.167 25.8223 55.8689 25.9375 55.5581 25.9375Z" fill="#1DB776"/>
<path d="M55.5563 25.9375C55.349 25.9373 55.1455 25.8858 54.9664 25.7882C54.7874 25.6907 54.6393 25.5505 54.5373 25.3821C54.4353 25.2137 54.3829 25.023 54.3856 24.8295C54.3883 24.6361 54.4459 24.4467 54.5526 24.2808L58.0682 18.8121C58.1474 18.6889 58.2518 18.5815 58.3754 18.496C58.4991 18.4105 58.6396 18.3486 58.7889 18.3137C58.9382 18.2789 59.0934 18.2718 59.2456 18.293C59.3978 18.3141 59.5441 18.363 59.676 18.4369C59.808 18.5108 59.9231 18.6083 60.0147 18.7237C60.1063 18.8391 60.1727 18.9702 60.21 19.1096C60.2473 19.2489 60.2549 19.3937 60.2322 19.5358C60.2096 19.6779 60.1572 19.8144 60.078 19.9376L56.5624 25.4063C56.4581 25.5685 56.3107 25.7026 56.1344 25.7957C55.958 25.8888 55.7589 25.9376 55.5563 25.9375Z" fill="#1DB776"/>
<path d="M32.324 46.7188C33.6184 46.7188 34.6677 45.7394 34.6677 44.5312C34.6677 43.3231 33.6184 42.3438 32.324 42.3438C31.0296 42.3438 29.9802 43.3231 29.9802 44.5312C29.9802 45.7394 31.0296 46.7188 32.324 46.7188Z" fill="#937057"/>
<path d="M58.1052 46.7188C59.3996 46.7188 60.449 45.7394 60.449 44.5312C60.449 43.3231 59.3996 42.3438 58.1052 42.3438C56.8108 42.3438 55.7615 43.3231 55.7615 44.5312C55.7615 45.7394 56.8108 46.7188 58.1052 46.7188Z" fill="#937057"/>
<path d="M59.0739 37.9688H52.0427L51.0823 27.2129C51.0554 26.9114 51.0958 26.608 51.2009 26.3217C51.3061 26.0355 51.4737 25.7728 51.6932 25.5501C51.9127 25.3275 52.1793 25.1497 52.4762 25.0281C52.773 24.9065 53.0937 24.8438 53.4179 24.8438H57.6986C58.0228 24.8438 58.3434 24.9065 58.6403 25.0281C58.9371 25.1497 59.2037 25.3275 59.4232 25.5501C59.6427 25.7728 59.8104 26.0355 59.9155 26.3217C60.0207 26.608 60.061 26.9114 60.0341 27.2129L59.0739 37.9688Z" fill="#FD9226"/>
<path d="M59.2773 30.3125H56.7302C56.4194 30.3125 56.1214 30.1973 55.9016 29.9921C55.6818 29.787 55.5583 29.5088 55.5583 29.2188C55.5583 28.9287 55.6818 28.6505 55.9016 28.4454C56.1214 28.2402 56.4194 28.125 56.7302 28.125H59.2773C59.5881 28.125 59.8862 28.2402 60.1059 28.4454C60.3257 28.6505 60.4492 28.9287 60.4492 29.2188C60.4492 29.5088 60.3257 29.787 60.1059 29.9921C59.8862 30.1973 59.5881 30.3125 59.2773 30.3125Z" fill="#E08122"/>
<path d="M59.074 34.6875H56.7302C56.4194 34.6875 56.1214 34.5723 55.9016 34.3671C55.6818 34.162 55.5583 33.8838 55.5583 33.5938C55.5583 33.3037 55.6818 33.0255 55.9016 32.8204C56.1214 32.6152 56.4194 32.5 56.7302 32.5H59.074C59.3848 32.5 59.6828 32.6152 59.9026 32.8204C60.1224 33.0255 60.2458 33.3037 60.2458 33.5938C60.2458 33.8838 60.1224 34.162 59.9026 34.3671C59.6828 34.5723 59.3848 34.6875 59.074 34.6875Z" fill="#E08122"/>
<path d="M45.2146 57.6562C41.4863 57.6523 37.9119 56.2683 35.2755 53.8077C32.6392 51.3471 31.1563 48.011 31.1521 44.5312C31.1521 44.2412 31.2756 43.963 31.4953 43.7579C31.7151 43.5527 32.0132 43.4375 32.324 43.4375C32.6348 43.4375 32.9328 43.5527 33.1526 43.7579C33.3724 43.963 33.4958 44.2412 33.4958 44.5312C33.4958 47.4321 34.7305 50.2141 36.9282 52.2652C39.1259 54.3164 42.1066 55.4688 45.2146 55.4688C48.3226 55.4688 51.3033 54.3164 53.501 52.2652C55.6987 50.2141 56.9333 47.4321 56.9333 44.5312C56.9333 44.2412 57.0568 43.963 57.2766 43.7579C57.4964 43.5527 57.7944 43.4375 58.1052 43.4375C58.416 43.4375 58.7141 43.5527 58.9339 43.7579C59.1536 43.963 59.2771 44.2412 59.2771 44.5312C59.2729 48.011 57.79 51.3471 55.1537 53.8077C52.5173 56.2683 48.9429 57.6523 45.2146 57.6562Z" fill="#AC8366"/>
<path d="M72.3142 59.9072H67.3337C64.1786 59.9072 61.6208 62.2945 61.6208 65.2393V76.3868C61.6208 79.3316 64.1786 81.7188 67.3337 81.7188H72.3142C75.4694 81.7188 78.0271 79.3316 78.0271 76.3868V65.2393C78.0271 62.2945 75.4694 59.9072 72.3142 59.9072Z" fill="#FBB540"/>
<path d="M68.155 64.6013L69.8121 63.0547L71.4691 64.6013L69.8121 66.1478L68.155 64.6013Z" fill="#F5C108"/>
<path d="M68.1548 68.9756L69.8118 67.429L71.4688 68.9756L69.8118 70.5221L68.1548 68.9756Z" fill="#F5C108"/>
<path d="M68.1543 73.3502L69.8113 71.8037L71.4684 73.3502L69.8113 74.8968L68.1543 73.3502Z" fill="#F5C108"/>
<path d="M68.1538 77.7248L69.8108 76.1782L71.4679 77.7248L69.8108 79.2714L68.1538 77.7248Z" fill="#F5C108"/>
<path d="M72.4988 64.6016L74.1558 63.055L75.8128 64.6016L74.1558 66.1481L72.4988 64.6016Z" fill="#F5C108"/>
<path d="M72.4983 68.9761L74.1553 67.4295L75.8124 68.9761L74.1553 70.5226L72.4983 68.9761Z" fill="#F5C108"/>
<path d="M72.4978 73.3506L74.1548 71.804L75.8119 73.3506L74.1548 74.8971L72.4978 73.3506Z" fill="#F5C108"/>
<path d="M72.4973 77.7251L74.1544 76.1785L75.8114 77.7251L74.1544 79.2716L72.4973 77.7251Z" fill="#F5C108"/>
<path d="M63.8115 64.6009L65.4686 63.0543L67.1256 64.6009L65.4686 66.1474L63.8115 64.6009Z" fill="#F5C108"/>
<path d="M63.811 68.9753L65.4681 67.4288L67.1251 68.9753L65.4681 70.5219L63.811 68.9753Z" fill="#F5C108"/>
<path d="M63.8105 73.3498L65.4676 71.8032L67.1246 73.3498L65.4676 74.8964L63.8105 73.3498Z" fill="#F5C108"/>
<path d="M63.8101 77.7244L65.4671 76.1778L67.1241 77.7244L65.4671 79.2709L63.8101 77.7244Z" fill="#F5C108"/>
<path d="M41.5183 81.7188C41.147 81.7187 40.783 81.6222 40.4672 81.4401C40.1513 81.2579 39.8961 80.9972 39.73 80.6872C39.6726 80.5798 39.5842 80.4896 39.4748 80.4264C39.3654 80.3633 39.2394 80.3299 39.1108 80.3299C38.9822 80.3299 38.8561 80.3633 38.7468 80.4264C38.6374 80.4896 38.549 80.5798 38.4915 80.6872C38.3255 80.9971 38.0703 81.2577 37.7546 81.4399C37.4389 81.6221 37.075 81.7186 36.7038 81.7188C36.3647 81.7188 36.0312 81.6383 35.7346 81.4848C35.438 81.3314 35.1881 81.1101 35.0084 80.8417L32.3994 76.9473C31.5977 75.75 31.1662 74.3692 31.1524 72.9574C31.1387 71.5457 31.5433 70.1578 32.3216 68.9472C32.6051 68.5059 33.0062 68.1406 33.4858 67.887C33.9655 67.6334 34.5074 67.5001 35.0587 67.5C35.5841 67.4999 36.1015 67.6209 36.5648 67.8523C37.0281 68.0836 37.423 68.4181 37.7146 68.8262C37.8678 69.0407 38.0754 69.2166 38.319 69.3382C38.5625 69.4599 38.8345 69.5235 39.1107 69.5235C39.3869 69.5235 39.6589 69.4599 39.9025 69.3382C40.146 69.2166 40.3536 69.0407 40.5068 68.8262C40.7984 68.4182 41.1934 68.0836 41.6567 67.8523C42.1201 67.6209 42.6374 67.4999 43.1629 67.5C43.7141 67.5 44.2559 67.6332 44.7356 67.8867C45.2152 68.1402 45.6164 68.5053 45.9 68.9465C46.6783 70.1571 47.0829 71.545 47.0691 72.9568C47.0554 74.3686 46.6238 75.7493 45.822 76.9466L43.2137 80.8417C43.034 81.1101 42.7841 81.3314 42.4875 81.4848C42.1909 81.6383 41.8574 81.7188 41.5183 81.7188Z" fill="#FA5652"/>
<path d="M33.0071 60.9375H36.2834C36.7174 60.9375 37.1448 61.0375 37.5275 61.2287C37.9102 61.4198 38.2365 61.6962 38.4772 62.0333L40.0383 64.2188H36.7625C36.3284 64.2188 35.9011 64.1187 35.5183 63.9276C35.1356 63.7364 34.8094 63.46 34.5686 63.1229L33.0071 60.9375Z" fill="#1DB776"/>
<path d="M38.8665 72.9687C38.5557 72.9687 38.2576 72.8535 38.0379 72.6484C37.8181 72.4433 37.6946 72.1651 37.6946 71.875V69.3867C37.6878 66.5056 38.6753 63.6989 40.5109 61.3825C40.6952 61.1489 40.9713 60.9932 41.2786 60.9496C41.5859 60.906 41.8991 60.9782 42.1494 61.1502C42.3997 61.3221 42.5666 61.5799 42.6132 61.8667C42.6599 62.1535 42.5826 62.4458 42.3984 62.6794C40.8602 64.6205 40.0327 66.9724 40.0384 69.3867V71.875C40.0384 72.1651 39.9149 72.4433 39.6951 72.6484C39.4754 72.8535 39.1773 72.9687 38.8665 72.9687Z" fill="#1DB776"/>
<path d="M39.111 72.9654C38.1157 72.9662 37.1339 72.7509 36.2431 72.3364C35.9651 72.2067 35.7537 71.9792 35.6554 71.704C35.5571 71.4288 35.5799 71.1285 35.7189 70.869C35.8579 70.6095 36.1016 70.4122 36.3965 70.3204C36.6914 70.2287 37.0132 70.25 37.2912 70.3797C37.8566 70.6421 38.4795 70.7786 39.1109 70.7786C39.7423 70.7786 40.3652 70.6421 40.9306 70.3797C41.2086 70.25 41.5304 70.2287 41.8253 70.3204C42.1202 70.4122 42.3639 70.6095 42.5029 70.869C42.6419 71.1285 42.6647 71.4288 42.5664 71.704C42.4681 71.9792 42.2567 72.2067 41.9787 72.3364C41.088 72.7508 40.1062 72.9661 39.111 72.9654Z" fill="#C7463B"/>
<path d="M68.4571 73.584L65.6112 73.252C61.2985 72.7489 57.1293 71.4778 53.33 69.5077L51.3085 68.4595C50.4345 68.0063 49.4691 67.7277 48.4736 67.6413C47.4781 67.555 46.4742 67.6627 45.5257 67.9578L45.0198 68.1152L45.342 69.6191C45.5987 70.8166 46.1996 71.9264 47.0803 72.8295C47.961 73.7327 49.0884 74.3952 50.3417 74.7461C55.2673 76.1252 60.529 76.0508 65.4076 74.5331L68.4571 73.584Z" fill="#F9BD25"/>
<path d="M69.4349 73.6146C65.5891 71.7245 62.1679 69.1631 59.3567 66.0692L57.8608 64.4229C57.2142 63.7112 56.416 63.1327 55.5171 62.7243C54.6181 62.3159 53.638 62.0864 52.639 62.0504L52.1059 62.0312L51.8394 63.5445C51.6272 64.7495 51.7701 65.9857 52.253 67.1206C52.7359 68.2556 53.5406 69.2465 54.5808 69.9873C58.669 72.899 63.6211 74.561 68.7599 74.7461L69.1067 74.7587C69.2542 74.764 69.3992 74.7224 69.518 74.6407C69.6368 74.559 69.7222 74.442 69.7604 74.309C69.7986 74.1759 69.7871 74.0347 69.728 73.9086C69.6688 73.7824 69.5654 73.6787 69.4349 73.6146Z" fill="#F0B724"/>
<path d="M47.8595 79.8165C53.8976 82.215 60.6936 82.3503 66.8357 80.1941L67.798 79.8563C69.0682 79.4104 70.1519 78.5962 70.8899 77.5332C71.6278 76.4701 71.9813 75.2143 71.8983 73.95L74.0224 70.541L70.3698 68.5585L68.3174 73.0592L63.6453 74.6641C59.2716 76.1668 54.4483 76.055 50.1599 74.3514L49.5769 74.1198C48.8206 73.8194 48.0084 73.6609 47.1865 73.6535C46.3646 73.6461 45.5492 73.7898 44.7869 74.0765C44.5058 74.1822 44.2779 74.3831 44.1487 74.6388C44.0194 74.8946 43.9983 75.1865 44.0896 75.4561L44.3429 76.2034C44.6151 77.0068 45.0704 77.7456 45.6774 78.3693C46.2844 78.993 47.0288 79.4867 47.8595 79.8165Z" fill="#FFC226"/>
<rect x="1.43433" y="0.5" width="99" height="99" rx="49.5" stroke="#DADADA" stroke-miterlimit="2.3662" stroke-linecap="round"/>
</svg>
