<svg width="200" height="150" viewBox="0 0 200 150" fill="none" xmlns="http://www.w3.org/2000/svg">
<path d="M160.152 80.2434L168.185 75.8163L163.547 68.1483L155.515 72.5754L160.152 80.2434Z" fill="#135E8A"/>
<path d="M163.65 81.8416L158.807 73.8348L167.195 69.2122L172.038 77.2191L163.65 81.8416ZM159.367 73.9781L163.8 81.3073L171.478 77.0758L167.045 69.7465L159.367 73.9781Z" fill="#2F2E41"/>
<path d="M156.135 103.357C158.285 103.357 160.028 101.694 160.028 99.6414C160.028 97.5893 158.285 95.9257 156.135 95.9257C153.985 95.9257 152.243 97.5893 152.243 99.6414C152.243 101.694 153.985 103.357 156.135 103.357Z" fill="#1DB776"/>
<path d="M159.003 103.553C158.193 103.553 157.401 103.323 156.727 102.894C156.053 102.464 155.528 101.853 155.218 101.138C154.908 100.424 154.826 99.6371 154.984 98.8784C155.143 98.1197 155.533 97.4227 156.106 96.8757C156.679 96.3287 157.409 95.9562 158.204 95.8053C158.999 95.6543 159.823 95.7318 160.571 96.0278C161.32 96.3239 161.96 96.8252 162.41 97.4684C162.86 98.1116 163.101 98.8678 163.101 99.6414C163.099 100.678 162.667 101.673 161.899 102.406C161.131 103.139 160.09 103.552 159.003 103.553ZM159.003 96.1212C158.274 96.1212 157.561 96.3277 156.954 96.7145C156.348 97.1013 155.875 97.6511 155.596 98.2943C155.317 98.9375 155.244 99.6453 155.386 100.328C155.529 101.011 155.88 101.638 156.396 102.131C156.911 102.623 157.568 102.958 158.284 103.094C158.999 103.23 159.741 103.16 160.414 102.894C161.088 102.627 161.664 102.176 162.069 101.597C162.475 101.018 162.691 100.338 162.691 99.6414C162.69 98.7082 162.301 97.8134 161.61 97.1535C160.918 96.4935 159.981 96.1223 159.003 96.1212Z" fill="#2F2E41"/>
<path d="M53.8815 97.9334C65.8752 97.9334 75.598 88.6522 75.598 77.2033C75.598 65.7543 65.8752 56.4731 53.8815 56.4731C41.8878 56.4731 32.165 65.7543 32.165 77.2033C32.165 88.6522 41.8878 97.9334 53.8815 97.9334Z" fill="#1DB776"/>
<path d="M48.0142 107.475L53.3562 110.635V89.2751L47.3685 85.7333C46.8735 85.4405 46.5117 84.9808 46.355 84.4454C46.927 84.3411 47.5192 84.4457 48.0142 84.7385L53.3562 87.8984V79.6158C53.3562 78.0135 53.5621 76.4173 53.9692 74.8628C54.3763 76.4173 54.5821 78.0135 54.5821 79.6158V93.1346L62.463 88.4728C63.0923 88.1006 63.8204 87.9089 64.5606 87.9204C64.242 88.5583 63.738 89.0954 63.1088 89.4676L54.5821 94.5113V136.552H53.3562V112.011L47.3685 108.47C46.8735 108.177 46.5117 107.717 46.355 107.182C46.927 107.077 47.5192 107.182 48.0142 107.475Z" fill="#3F3D56"/>
<path d="M21.7165 99.6935C33.7102 99.6935 43.433 90.4123 43.433 78.9634C43.433 67.5145 33.7102 58.2333 21.7165 58.2333C9.72281 58.2333 0 67.5145 0 78.9634C0 90.4123 9.72281 99.6935 21.7165 99.6935Z" fill="#1DB776"/>
<path d="M27.584 109.235L22.242 112.395V91.0353L28.2297 87.4934C28.7247 87.2006 29.0865 86.7409 29.2432 86.2055H29.2432H29.2432C28.6712 86.1012 28.079 86.2058 27.5839 86.4987L22.242 89.6585V81.3759C22.242 79.7736 22.0361 78.1774 21.629 76.6229C21.2219 78.1774 21.0161 79.7736 21.0161 81.3759V94.8947L13.1352 90.233C12.5059 89.8607 11.7778 89.669 11.0376 89.6805C11.3562 90.3184 11.8602 90.8555 12.4894 91.2277L21.0161 96.2714V138.312H22.242V113.772L28.2297 110.23C28.7247 109.937 29.0864 109.477 29.2432 108.942H29.2432H29.2432C28.6712 108.837 28.079 108.942 27.584 109.235Z" fill="#3F3D56"/>
<path d="M79.0806 141.434C112.912 141.434 140.337 140.156 140.337 138.579C140.337 137.002 112.912 135.724 79.0806 135.724C45.2494 135.724 17.8237 137.002 17.8237 138.579C17.8237 140.156 45.2494 141.434 79.0806 141.434Z" fill="#3F3D56"/>
<path d="M134.191 145.921C168.023 145.921 195.448 144.643 195.448 143.066C195.448 141.489 168.023 140.21 134.191 140.21C100.36 140.21 72.9346 141.489 72.9346 143.066C72.9346 144.643 100.36 145.921 134.191 145.921Z" fill="#3F3D56"/>
<path d="M82.9732 150C116.804 150 144.23 148.722 144.23 147.145C144.23 145.568 116.804 144.289 82.9732 144.289C49.142 144.289 21.7163 145.568 21.7163 147.145C21.7163 148.722 49.142 150 82.9732 150Z" fill="#3F3D56"/>
<path d="M95.8801 134.355L94.6509 140.026H99.7727L99.1581 134.355H95.8801Z" fill="#FFB9B9"/>
<path d="M77.8518 132.399L76.6226 138.07H81.7444L81.1298 132.399H77.8518Z" fill="#FFB9B9"/>
<path d="M85.3296 82.6271C85.3296 82.6271 86.9686 89.472 88.6076 91.6232C90.2465 93.7745 94.1391 100.033 94.1391 100.033C94.1391 100.033 94.9586 107.855 98.0317 106.095C101.105 104.335 96.3927 98.6636 96.3927 98.6636L90.4514 86.1473L89.2222 81.8448L85.3296 82.6271Z" fill="#FFB9B9"/>
<path d="M93.8319 64.9283C96.8868 64.9283 99.3634 62.5642 99.3634 59.648C99.3634 56.7318 96.8868 54.3677 93.8319 54.3677C90.7769 54.3677 88.3003 56.7318 88.3003 59.648C88.3003 62.5642 90.7769 64.9283 93.8319 64.9283Z" fill="#FFB9B9"/>
<path d="M95.1632 63.266L92.4998 68.9374L86.9683 67.5685C86.9683 67.5685 91.2706 63.0704 90.656 61.1147L95.1632 63.266Z" fill="#FFB9B9"/>
<path d="M86.3537 66.5906C86.3537 66.5906 92.9096 66.7861 94.5486 68.9374C96.1876 71.0886 97.0071 72.0665 97.0071 72.0665C97.0071 72.0665 99.2607 72.6532 99.4656 75.3911C99.6704 78.129 100.08 82.6271 100.08 82.6271C100.08 82.6271 104.997 87.7118 105.817 97.4902C106.636 107.269 113.602 136.017 105.817 136.212C98.0315 136.408 92.4999 139.146 93.5243 135.626C94.5486 132.106 96.1876 111.767 96.1876 111.767C96.1876 111.767 94.9584 136.799 90.0414 136.604C85.1245 136.408 78.7734 133.279 77.3393 132.888C75.9052 132.497 87.7878 108.442 87.7878 108.442L89.2219 87.5163C89.2219 87.5163 78.7734 69.9152 86.3537 66.5906Z" fill="#2F2E41"/>
<path d="M84.3052 72.4576L85.3295 85.1695H89.8367L84.3052 72.4576Z" fill="#2F2E41"/>
<path d="M92.9097 82.236C92.9097 82.236 94.5486 89.0809 96.1876 91.2321C97.8266 93.3833 101.719 99.6415 101.719 99.6415C101.719 99.6415 102.539 107.464 105.612 105.704C108.685 103.944 103.973 98.2725 103.973 98.2725L98.0315 85.7562L96.8022 81.4537L92.9097 82.236Z" fill="#FFB9B9"/>
<path d="M96.3923 138.95C96.3923 138.95 94.9582 137.386 94.5485 138.168C94.1387 138.95 92.2949 142.862 94.9582 142.862C97.6216 142.862 109.299 142.275 107.865 139.928C106.431 137.582 104.382 138.168 104.382 138.168H101.719C101.719 138.168 99.8022 136.126 99.4289 136.854C99.0557 137.582 98.4411 138.755 98.4411 138.755C98.4411 138.755 97.4167 139.733 96.3923 138.95Z" fill="#2F2E41"/>
<path d="M77.6311 135.509C77.6311 135.509 77.2738 133.458 76.4942 133.918C75.7146 134.377 71.9909 136.777 74.2558 138.115C76.5208 139.453 86.7751 144.818 86.8489 142.102C86.9227 139.386 84.8571 138.856 84.8571 138.856L82.5922 137.519C82.5922 137.519 82.0877 134.819 81.3691 135.251C80.6506 135.682 79.4812 136.372 79.4812 136.372C79.4812 136.372 78.0711 136.689 77.6311 135.509Z" fill="#2F2E41"/>
<path d="M90.4509 67.764C90.4509 67.764 89.0168 70.5019 90.4509 75.3911C91.885 80.2803 92.9093 84.3872 92.9093 84.3872C92.9093 84.3872 96.1873 82.4315 97.6214 83.0182C99.0555 83.6049 95.3528 69.985 95.3528 69.985C95.3528 69.985 93.1142 65.4172 90.4509 67.764Z" fill="#2F2E41"/>
<path d="M100.499 58.0011C100.499 58.0011 102.483 51.3911 94.7249 52.5249C94.7249 52.5249 89.5842 50.8294 86.842 56.8919L84.0293 63.2559L84.9561 62.9357L85.2222 63.8263L86.5556 64.3632L87.3285 63.3251L87.3977 64.7324L98.5843 67.4655C98.5843 67.4655 93.9552 63.8534 94.6962 58.6942L95.5092 59.8127L100.499 58.0011Z" fill="#2F2E41"/>
<path d="M182.33 106.306H141.356V142.877H182.33V106.306Z" fill="#135E8A"/>
<path d="M166.145 105.313H157.541V144.052H166.145V105.313Z" fill="#3F3D56"/>
<path d="M37.4919 71.384C58.142 71.384 74.8822 55.4042 74.8822 35.692C74.8822 15.9799 58.142 0 37.4919 0C16.8418 0 0.101562 15.9799 0.101562 35.692C0.101562 55.4042 16.8418 71.384 37.4919 71.384Z" fill="#1DB776"/>
<path d="M47.5936 87.8118L38.3961 93.2524V56.4766L48.7054 50.3785C49.5577 49.8743 50.1806 49.0829 50.4504 48.1611L50.4505 48.1611H50.4504C49.4656 47.9815 48.4459 48.1616 47.5936 48.6657L38.3961 54.1063V39.8457C38.3961 37.087 38.0417 34.3386 37.3408 31.6622C36.6398 34.3386 36.2854 37.087 36.2854 39.8457V63.1216L22.7165 55.0953C21.633 54.4544 20.3794 54.1243 19.105 54.1442C19.6536 55.2425 20.5212 56.1671 21.6047 56.808L36.2854 65.492V137.875H38.3961V95.6227L48.7054 89.5245C49.5577 89.0204 50.1806 88.229 50.4504 87.3072L50.4505 87.3071H50.4504C49.4656 87.1275 48.4459 87.3077 47.5936 87.8118Z" fill="#3F3D56"/>
<path d="M35.1938 143.26C34.9523 143.265 34.719 143.344 34.5289 143.486C33.9622 142.035 33.0849 141.102 32.0994 141.102C31.1138 141.102 30.2365 142.035 29.6698 143.486C29.4797 143.344 29.2464 143.265 29.0049 143.26C27.8852 143.26 26.9775 145.095 26.9775 147.36H37.2212C37.2212 145.095 36.3135 143.26 35.1938 143.26Z" fill="#3F3D56"/>
<path d="M56.9101 132.895C56.6686 132.9 56.4353 132.979 56.2452 133.121C55.6785 131.67 54.8012 130.737 53.8157 130.737C52.8301 130.737 51.9528 131.67 51.3861 133.121C51.196 132.979 50.9627 132.9 50.7212 132.895C49.6015 132.895 48.6938 134.73 48.6938 136.995H58.9375C58.9375 134.73 58.0298 132.895 56.9101 132.895Z" fill="#3F3D56"/>
<path d="M31.3012 135.633C31.0597 135.638 30.8264 135.717 30.6363 135.859C30.0696 134.408 29.1924 133.475 28.2068 133.475C27.2212 133.475 26.3439 134.408 25.7772 135.859C25.5871 135.717 25.3538 135.638 25.1123 135.633C23.9927 135.633 23.085 137.468 23.085 139.733H33.3286C33.3286 137.468 32.4209 135.633 31.3012 135.633Z" fill="#3F3D56"/>
<path d="M190.707 102.898C190.487 106.348 185.605 108.871 185.605 108.871C185.605 108.871 181.08 105.801 181.3 102.351C181.521 98.9011 186.402 96.3781 186.402 96.3781C186.402 96.3781 190.927 99.4483 190.707 102.898Z" fill="#3F3D56"/>
<path d="M190.928 113.662C187.314 113.463 184.655 108.81 184.655 108.81C184.655 108.81 187.858 104.482 191.472 104.681C195.087 104.88 197.745 109.533 197.745 109.533C197.745 109.533 194.543 113.862 190.928 113.662Z" fill="#3F3D56"/>
<path opacity="0.1" d="M182.33 110.3V123.066L169.028 106.306H179.161L182.33 110.3Z" fill="black"/>
<path d="M200 127.842L170.306 90.4308L163.611 95.273L193.305 132.684L200 127.842Z" fill="#135E8A"/>
<path d="M187.85 111.725L182.53 105.022L175.509 110.1L180.829 116.803L187.85 111.725Z" fill="#3F3D56"/>
<path d="M144.009 88.032L152.968 90.3236L155.369 81.7712L146.41 79.4795L144.009 88.032Z" fill="#1DB776"/>
<path d="M149.168 91.6022L139.812 89.2094L142.319 80.2791L151.674 82.6719L149.168 91.6022ZM140.314 88.9329L148.878 91.1232L151.173 82.9484L142.609 80.758L140.314 88.9329Z" fill="#2F2E41"/>
</svg>
