<svg fill="none" height="430" viewBox="0 0 600 430" width="600" xmlns="http://www.w3.org/2000/svg" xmlns:xlink="http://www.w3.org/1999/xlink"><linearGradient id="a" gradientUnits="userSpaceOnUse" x1="360.978" x2="360.978" y1="388.535" y2="281.469"><stop offset="0" stop-color="#808080" stop-opacity=".25"/><stop offset=".54" stop-color="#808080" stop-opacity=".12"/><stop offset="1" stop-color="#808080" stop-opacity=".1"/></linearGradient><clipPath id="b"><path d="m0 0h600v430h-600z"/></clipPath><g clip-path="url(#b)"><path d="m267.972 430c147.997 0 267.973-28.625 267.973-63.935 0-35.311-119.976-63.935-267.973-63.935s-267.972 28.624-267.972 63.935c0 35.31 119.975 63.935 267.972 63.935z" fill="#1db776" opacity=".1"/><path d="m65.5613 191.763s24.9598 25.155 10.8715 62.497c-14.0883 37.343 24.1542 99.4 24.1542 99.4s-.41-.059-1.1686-.197c-51.2622-9.131-76.738-68.217-48.2297-112.117 10.5978-16.321 19.274-35.464 14.3726-49.583z" fill="#1db776"/><path d="m65.5612 191.763s14.0883 30.832 0 55.987-2.4165 95.754 35.0258 105.899" stroke="#4b4f51" stroke-miterlimit="10" stroke-width="2"/><path d="m21.106 293.524s28.4819-4.574 31.0616 21.154 54.7524 29.288 54.7524 29.288-.342.234-.979.658c-43.044 28.487-84.2243 18.135-78.0173-19.706 2.3059-14.071 2.1217-28.211-6.8177-31.394z" fill="#1db776"/><path d="m21.106 293.524s28.4819-4.574 31.0616 21.154 54.7524 29.288 54.7524 29.288-.342.234-.979.658c-43.044 28.487-84.2243 18.135-78.0173-19.706 2.3059-14.071 2.1217-28.211-6.8177-31.394z" fill="#f5f5f5" opacity=".2"/><path d="m21.106 293.524s22.1116 4.892 20.29 25.149c-1.8215 20.258 32.8306 44.569 65.551 25.293" stroke="#4b4f51" stroke-miterlimit="10" stroke-width="2"/><path d="m599.347 191.455c-3.659 18.072-22.443 27.134-32.967 40.616-19.832 25.41-12.109 62.524.474 92.248 4.211 9.953 8.992 20.485 7.207 31.155-2.174 13.053-13.73 22.593-25.865 27.654-22.112 9.217-48.593 7.02-68.92-5.725-17.563-11.009-30.146-28.922-48.009-39.433-29.898-17.588-67.951-10.945-100.418 1.173-22.965 8.569-48.078 19.722-70.9 10.76-16.057-6.303-27.16-21.648-33.21-37.91-2.916-7.853-5.038-16.352-10.613-22.576-3.317-3.714-7.644-6.33-12.072-8.543-40.475-20.225-91.606-9.391-130.8958-31.835-26.5446-15.148-43.5442-43.72-51.0674-73.517-7.5233-29.798-6.6493-61.017-4.7383-91.7271 1.3583-21.807 3.7959-45.0995 17.6209-61.919 14.6253-17.79042 39.701-24.4174 62.4128-21.026976 22.7118 3.390426 43.2498 15.445276 61.3438 29.648976 22.638 17.7586 43.581 39.8626 71.342 47.0573 18.905 4.8973 38.79 2.2179 58.291 1.2894 32.598-1.5493 65.208 1.8994 97.623 5.6772 15.794 1.8411 31.64 3.7724 47.297 6.5739 3.51.6261 7.02 1.2999 10.53 2.0215 1.755.3537 3.51.7322 5.264 1.1355 1.369.3024 2.733.6208 4.096.9444 2.152.5094 4.296 1.04 6.434 1.5918 6.138 1.5917 12.219 3.4221 18.237 5.4911 20.922 7.2 37.695 20.269 57.453 29.4 12.878 5.953 26.918 7.598 39.111 15.175 15.021 9.348 28.788 25.595 24.939 44.6z" fill="#1db776" opacity=".1"/><path d="m319.114 341.685s21.637-1.73 27.866 5.772c6.228 7.503 28.46 24.704 19.284 28.535s-58.438-11.466-58.438-11.466z" fill="#ffb9b9"/><path d="m230.156 80.5265c-.184-2.5063-1.187-4.8805-2.852-6.7514-1.665-1.871-3.899-3.1333-6.351-3.5896-3.296-.5306-6.976.4085-9.808-1.3796-1.279-.8118-2.195-2.0798-3.227-3.1835-4.043-4.356-10.114-6.3669-16.031-6.542-5.918-.1751-11.751 1.2681-17.437 2.9182-11.35 3.2949-23.343 8.1285-29.382 18.3581-9.182 15.5726-.711 36.5623-7.971 53.1323-3.158 7.237-9.181 13.148-11.14 20.81-2.632 10.235 2.559 20.618 6.555 30.391 3.584 8.766 6.307 17.865 8.128 27.166 1.606 8.214 2.501 16.751.69 24.938-.795 3.581-2.106 7.226-1.4 10.824 1.053 5.443 6.275 8.876 11.024 11.672l1.237.733c6.844 4.032 13.883 8.149 21.722 9.147 4.87.615 10.003-.064 14.215-2.574 4.212-2.509 7.418-6.987 7.776-11.916.4-5.577-2.68-10.798-3.343-16.353-.152-.837-.089-1.699.184-2.504.437-1.061 1.453-1.746 2.39-2.404 13.499-9.487 20.738-27.24 17.753-43.55-2.032-11.11-8.35-22.157-5.291-33.029 1.69-6.006 6.044-10.871 8.486-16.607 2.581-6.126 2.902-12.98.906-19.324-1.395-4.382-3.922-8.76-3.054-13.264 1.532-8.0016 12.109-10.5537 16.105-17.6423 2.964-5.274 1.211-12.734-3.791-16.0873" fill="#ddae07"/><path d="m230.156 80.5265c-.184-2.5063-1.187-4.8805-2.852-6.7514-1.665-1.871-3.899-3.1333-6.351-3.5896-3.296-.5306-6.976.4085-9.808-1.3796-1.279-.8118-2.195-2.0798-3.227-3.1835-4.043-4.356-10.114-6.3669-16.031-6.542-5.918-.1751-11.751 1.2681-17.437 2.9182-11.35 3.2949-23.343 8.1285-29.382 18.3581-9.182 15.5726-.711 36.5623-7.971 53.1323-3.158 7.237-9.181 13.148-11.14 20.81-2.632 10.235 2.559 20.618 6.555 30.391 3.584 8.766 6.307 17.865 8.128 27.166 1.606 8.214 2.501 16.751.69 24.938-.795 3.581-2.106 7.226-1.4 10.824 1.053 5.443 6.275 8.876 11.024 11.672l1.237.733c6.844 4.032 13.883 8.149 21.722 9.147 4.87.615 10.003-.064 14.215-2.574 4.212-2.509 7.418-6.987 7.776-11.916.4-5.577-2.68-10.798-3.343-16.353-.152-.837-.089-1.699.184-2.504.437-1.061 1.453-1.746 2.39-2.404 13.499-9.487 20.738-27.24 17.753-43.55-2.032-11.11-8.35-22.157-5.291-33.029 1.69-6.006 6.044-10.871 8.486-16.607 2.581-6.126 2.902-12.98.906-19.324-1.395-4.382-3.922-8.76-3.054-13.264 1.532-8.0016 12.109-10.5537 16.105-17.6423 2.964-5.274 1.211-12.734-3.791-16.0873" fill="#3f3d56" opacity=".1"/><path d="m251.915 358.637h-113.19v-61.017l63.176 24.406 50.014-24.406z" fill="#3f3d56"/><path d="m251.915 358.637h-113.19v-61.017l63.176 24.406 50.014-24.406z" fill="#3f3d56" opacity=".1"/><path d="m238.227 364.5s-20.532 4.945-22.638 14.007 12.109 8.24 12.109 8.24 20.005-4.123 22.638-20.603c2.632-16.48-12.109-1.644-12.109-1.644z" fill="#ffb9b9"/><path d="m238.227 364.5s-20.532 4.945-22.638 14.007 12.109 8.24 12.109 8.24 20.005-4.123 22.638-20.603c2.632-16.48-12.109-1.644-12.109-1.644z" fill="#3f3d56" opacity=".1"/><path d="m183.09 392.122s-19.358 1.268-19.622 17.095c-.037 2.122 20.164 2.738 44.145-10.256 23.98-12.994 25.612-14.363 25.612-14.363s-9.266-15.047-15.794-17.095-34.341 24.619-34.341 24.619z" fill="#7e8385"/><path d="m69.757 331.572s-22.1117 18.57 18.9528 44.569c41.0642 25.998 80.5492 21.223 80.5492 21.223s42.834-5.11 49.32-25.373-31.946-37.236-31.946-37.236-42.118 0-61.07-12.203c-18.953-12.204-55.806 9.02-55.806 9.02z" fill="#3f3d56"/><path d="m189.265 299.737s18.953 11.142 44.75 0c19.848-8.574 63.387-5.211 82.408-3.184 8.919.939 16.558 7.131 18.995 15.828 1.99 7.093.527 15.811-11.382 23.982-26.323 18.04-44.75 23.346-51.594 30.774s-26.323 11.142-26.323 11.142-24.744-3.714-24.744-9.02 22.638-31.304 22.638-31.304-33.168 30.773-67.388-10.612c-34.221-41.386 12.64-27.606 12.64-27.606z" fill="#3f3d56"/><path d="m179.789 224.924-66.862-46.16s32.073-21.919 34.826-41.508c.626-3.819-.151-7.736-2.185-11.02-13.161-21.223 46.329 0 46.329 0 .385 5.527 1.132 11.021 2.238 16.448 2.585 12.92 8.039 30.127 19.348 38.733 19.479 14.856-33.694 43.507-33.694 43.507z" fill="#ffb9b9"/><path d="m194.135 142.663c-7.274 4.264-15.723 6.042-24.082 5.067-8.36-.974-16.183-4.649-22.3-10.474.626-3.819-.151-7.736-2.184-11.02-13.162-21.223 46.329 0 46.329 0 .385 5.52 1.133 11.007 2.237 16.427z" fill="#3f3d56" opacity=".1"/><path d="m174.524 146.934c21.516 0 38.959-17.579 38.959-39.263 0-21.6844-17.443-39.263-38.959-39.263s-38.959 17.5786-38.959 39.263c0 21.684 17.443 39.263 38.959 39.263z" fill="#ffb9b9"/><path d="m198.742 159.663s-7.897 46.691-21.059 44.038-54.226-49.344-54.226-49.344-42.6442 14.326-35.8001 49.344c6.8441 35.019 13.6881 64.731-.5265 75.874-14.2146 11.142-23.1646 63.139-23.1646 63.139s45.2762-19.101 68.9672-11.673 47.909 3.714 53.7-3.183c5.791-6.898 14.215-21.754 14.215-21.754s-12.109-18.04-6.318-27.06 13.162-9.551 17.373-35.018c4.212-25.468 37.38-34.488 31.062-48.814s-18.426-35.549-44.223-35.549z" fill="#3f3d56" opacity=".1"/><path d="m198.742 157.541s-7.897 46.691-21.059 44.038-54.226-49.344-54.226-49.344-42.6442 14.325-35.8001 49.344c6.8441 35.018 13.6881 64.731-.5265 75.873s-23.1646 63.139-23.1646 63.139 45.2762-19.1 68.9672-11.672 47.909 3.714 53.7-3.184c5.791-6.897 14.215-21.754 14.215-21.754s-12.109-18.039-6.318-27.059 13.162-9.551 17.373-35.019c4.212-25.468 37.38-34.488 31.062-48.813-6.318-14.326-18.426-35.549-44.223-35.549z" fill="#7e8385"/><path d="m230.33 349.081s21.059-5.306 28.429 1.061c7.371 6.367 32.115 19.632 23.691 24.937-8.423 5.306-59.491-1.591-59.491-1.591z" fill="#ffb9b9"/><g fill="#3f3d56" opacity=".05"><path d="m172.418 201.579c1.231.234 2.504.047 3.617-.531-14.625-5.688-52.578-48.813-52.578-48.813s-1.496.504-3.886 1.549c7.255 8.123 41.123 45.434 52.847 47.795z" opacity=".05"/><path d="m237.7 193.09c14.52-5.63-26.85 23.345-31.062 48.813-4.211 25.468-11.582 25.999-17.373 35.019s6.318 27.059 6.318 27.059-8.424 14.857-14.215 21.754c-3.317 3.953-12.683 6.85-24.528 7.216 14.288.456 25.997-2.701 29.793-7.216 5.791-6.897 14.214-21.754 14.214-21.754s-12.108-18.039-6.317-27.059 13.161-9.551 17.373-35.019 22.375-47.487 25.797-48.813z" opacity=".05"/><path d="m64.3712 338.379c-.2685 1.417-.4054 2.218-.4054 2.218s29.4401-12.421 53.2682-13.334c-18.3897-.769-42.1544 7.115-52.8628 11.116z" opacity=".05"/></g><path d="m239.28 190.437s4.738.53 9.476 25.468c4.738 24.937 23.165 48.813 23.165 48.813 7.283 9.82 12.97 20.745 16.847 32.366 6.317 19.101 34.483 44.303 44.486 45.365 0 0-19.216 19.366-17.11 24.672 2.106 5.305-2.106 0-2.106 0s-26.323-10.081-32.114-26.53c-5.792-16.448-31.062-42.977-31.062-42.977s-33.694-65.792-35.273-76.404c-1.58-10.611 23.691-30.773 23.691-30.773z" fill="#7e8385"/><path d="m94.2378 279.84s40.5382 4.775 49.4882 17.509 50.409-7.396 50.409-7.396" fill="#3f3d56" opacity=".1"/><path d="m133.986 207.415s17.374 64.201 23.691 72.16c6.318 7.958 55.28 73.22 78.444 68.975 0 0-6.844 29.713-11.582 30.774 0 0-47.909-47.752-64.229-47.222 0 0-30.009-24.937-33.168-37.141-3.159-12.203-28.4291-51.997-28.4291-51.997s-12.6352-28.121-7.3705-40.324 33.1676-6.898 42.6436 4.775z" fill="#3f3d56" opacity=".1"/><path d="m134.513 206.354s17.373 64.201 23.691 72.159c6.317 7.959 55.279 73.221 78.444 68.976 0 0-6.845 29.713-11.583 30.774 0 0-47.908-47.753-64.229-47.222 0 0-30.009-24.937-33.167-37.141-3.159-12.203-28.4297-51.997-28.4297-51.997s-12.6352-28.121-7.3705-40.324c5.2646-12.204 33.1672-6.898 42.6442 4.775z" fill="#7e8385"/><path d="m202.78 70.4455c-.184-2.5064-1.187-4.8805-2.852-6.7515-1.665-1.8709-3.899-3.1332-6.351-3.5896-3.295-.5306-6.976.4085-9.808-1.3795-1.279-.8118-2.195-2.0799-3.227-3.1835-4.043-4.3561-10.114-6.367-16.031-6.5421-5.918-.1751-11.751 1.2681-17.437 2.9182-11.35 3.2949-23.343 8.1285-29.382 18.3582-9.182 15.5726-.711 36.5623-7.971 53.1323-3.158 7.237-9.181 13.148-11.1397 20.81-2.6324 10.235 2.5587 20.618 6.5547 30.391 3.584 8.766 6.307 17.865 8.128 27.166 1.606 8.214 2.501 16.751.69 24.938-.795 3.581-2.106 7.226-1.4 10.824 1.053 5.443 6.275 8.876 11.024 11.672l1.237.733c6.844 4.032 13.883 8.149 21.722 9.147 4.87.615 10.003-.064 14.215-2.574 4.212-2.509 7.418-6.987 7.776-11.916.4-5.577-2.68-10.798-3.343-16.353-.152-.837-.089-1.699.184-2.504.437-1.061 1.453-1.746 2.39-2.404 13.499-9.487 20.738-27.24 17.753-43.55-2.032-11.11-8.35-22.157-5.291-33.029 1.69-6.006 6.044-10.871 8.486-16.607 2.581-6.126 2.902-12.98.906-19.324-1.395-4.383-3.922-8.76-3.054-13.2645 1.532-8.0012 12.109-10.5533 16.105-17.6418 2.964-5.274 1.211-12.734-3.791-16.0873" fill="#3f3d56" opacity=".1"/><path d="m201.727 69.9148c-.185-2.5063-1.188-4.8805-2.853-6.7514-1.665-1.871-3.898-3.1333-6.35-3.5896-3.296-.5306-6.976.4085-9.808-1.3796-1.279-.8117-2.196-2.0798-3.227-3.1835-4.044-4.356-10.114-6.3669-16.031-6.542-5.918-.1751-11.751 1.2681-17.437 2.9182-11.351 3.2949-23.344 8.1285-29.382 18.3581-9.182 15.5726-.711 36.562-7.971 53.133-3.159 7.237-9.1815 13.147-11.14 20.809-2.6323 10.235 2.559 20.618 6.555 30.392 3.584 8.765 6.307 17.864 8.128 27.166 1.606 8.213 2.501 16.75.69 24.937-.795 3.581-2.106 7.227-1.4 10.824 1.052 5.444 6.275 8.876 11.024 11.673l1.237.732c6.844 4.032 13.883 8.15 21.722 9.147 4.87.616 10.003-.064 14.215-2.573 4.211-2.51 7.418-6.988 7.776-11.917.4-5.577-2.68-10.797-3.343-16.353-.153-.837-.089-1.699.184-2.504.437-1.061 1.453-1.746 2.39-2.404 13.499-9.486 20.738-27.24 17.752-43.55-2.032-11.11-8.349-22.157-5.291-33.028 1.69-6.007 6.044-10.872 8.487-16.608 2.581-6.126 2.902-12.98.906-19.324-1.395-4.382-3.923-8.759-3.054-13.2641 1.532-8.0012 12.109-10.5533 16.105-17.6419 2.964-5.274 1.211-12.734-3.791-16.0872" fill="#ddae07"/><g fill="#1db776"><path d="m237.542 407.068c.965-.793 1.668-1.862 2.017-3.067.263-1.22-.253-2.679-1.411-3.125-1.295-.498-2.68.404-3.728 1.321-1.047.918-2.253 1.958-3.627 1.762.706-.645 1.235-1.464 1.534-2.376s.358-1.887.172-2.829c-.06-.391-.223-.757-.474-1.061-.721-.775-2.022-.441-2.885.17-2.738 1.942-3.501 5.687-3.517 9.062-.274-1.215-.042-2.483-.052-3.714-.011-1.231-.348-2.653-1.39-3.3-.647-.35-1.373-.524-2.106-.504-1.232-.048-2.601.079-3.443.986-1.053 1.125-.774 3.019.137 4.245.91 1.226 2.29 2.016 3.564 2.876 1.021.612 1.892 1.448 2.548 2.446.077.138.14.284.189.435h7.703c1.731-.887 3.336-2.006 4.769-3.327z"/><path d="m475.401 120.67h-167.417v11.673h167.417z" opacity=".1"/><path d="m475.401 171.076h-167.417v11.673h167.417z" opacity=".1"/><path d="m475.401 223.603h-167.417v11.673h167.417z" opacity=".1"/><path d="m333.254 90.4272h-10.529v30.2428h10.529z" opacity=".1"/><path d="m333.254 95.2024h-10.529v2.1223h10.529z" opacity=".1"/><path d="m333.254 111.651h-10.529v2.122h10.529z" opacity=".1"/><path d="m349.048 90.4272h-10.529v30.2428h10.529z" opacity=".1"/><path d="m349.048 95.2024h-10.529v2.1223h10.529z" opacity=".1"/><path d="m349.048 111.651h-10.529v2.122h10.529z" opacity=".1"/><path d="m364.842 90.4272h-10.529v30.2428h10.529z" opacity=".1"/><path d="m364.842 95.2024h-10.529v2.1223h10.529z" opacity=".1"/><path d="m364.842 111.651h-10.529v2.122h10.529z" opacity=".1"/><path d="m380.636 90.4272h-10.529v30.2428h10.529z" opacity=".1"/><path d="m380.636 95.2024h-10.529v2.1223h10.529z" opacity=".1"/><path d="m380.636 111.651h-10.529v2.122h10.529z" opacity=".1"/><path d="m396.431 90.4272h-10.53v30.2428h10.53z" opacity=".1"/><path d="m396.431 95.2024h-10.53v2.1223h10.53z" opacity=".1"/><path d="m396.431 111.651h-10.53v2.122h10.53z" opacity=".1"/><path d="m412.225 90.4272h-10.53v30.2428h10.53z" opacity=".1"/><path d="m412.225 95.2024h-10.53v2.1223h10.53z" opacity=".1"/><path d="m412.225 111.651h-10.53v2.122h10.53z" opacity=".1"/><path d="m428.019 90.4272h-10.53v30.2428h10.53z" opacity=".1"/><path d="m428.019 95.2024h-10.53v2.1223h10.53z" opacity=".1"/><path d="m428.019 111.651h-10.53v2.122h10.53z" opacity=".1"/><path d="m421.787 192.563-9.412 4.756 13.451 27.035 9.412-4.756z" opacity=".1"/><path d="m423.914 196.83-9.412 4.756.944 1.897 9.412-4.756z" opacity=".1"/><path d="m431.225 211.535-9.413 4.756.944 1.897 9.413-4.756z" opacity=".1"/><path d="m333.254 141.363h-10.529v30.243h10.529z" opacity=".1"/><path d="m333.254 146.138h-10.529v2.123h10.529z" opacity=".1"/><path d="m333.254 162.586h-10.529v2.123h10.529z" opacity=".1"/><path d="m349.048 141.363h-10.529v30.243h10.529z" opacity=".1"/><path d="m349.048 146.138h-10.529v2.123h10.529z" opacity=".1"/><path d="m349.048 162.586h-10.529v2.123h10.529z" opacity=".1"/><path d="m364.842 141.363h-10.529v30.243h10.529z" opacity=".1"/><path d="m364.842 146.138h-10.529v2.123h10.529z" opacity=".1"/><path d="m364.842 162.586h-10.529v2.123h10.529z" opacity=".1"/><path d="m430.651 141.363h-10.529v30.243h10.529z" opacity=".1"/><path d="m430.651 146.138h-10.529v2.123h10.529z" opacity=".1"/><path d="m430.651 162.586h-10.529v2.123h10.529z" opacity=".1"/><path d="m446.445 141.363h-10.529v30.243h10.529z" opacity=".1"/><path d="m446.445 146.138h-10.529v2.123h10.529z" opacity=".1"/><path d="m446.445 162.586h-10.529v2.123h10.529z" opacity=".1"/><path d="m462.239 141.363h-10.529v30.243h10.529z" opacity=".1"/><path d="m462.239 146.138h-10.529v2.123h10.529z" opacity=".1"/><path d="m462.239 162.586h-10.529v2.123h10.529z" opacity=".1"/><path d="m333.254 193.36h-10.529v30.243h10.529z" opacity=".1"/><path d="m333.254 198.135h-10.529v2.123h10.529z" opacity=".1"/><path d="m333.254 214.583h-10.529v2.123h10.529z" opacity=".1"/><path d="m349.048 193.36h-10.529v30.243h10.529z" opacity=".1"/><path d="m349.048 198.135h-10.529v2.123h10.529z" opacity=".1"/><path d="m349.048 214.583h-10.529v2.123h10.529z" opacity=".1"/><path d="m364.842 193.36h-10.529v30.243h10.529z" opacity=".1"/><path d="m364.842 198.135h-10.529v2.123h10.529z" opacity=".1"/><path d="m364.842 214.583h-10.529v2.123h10.529z" opacity=".1"/><path d="m380.636 193.36h-10.529v30.243h10.529z" opacity=".1"/><path d="m380.636 198.135h-10.529v2.123h10.529z" opacity=".1"/><path d="m380.636 214.583h-10.529v2.123h10.529z" opacity=".1"/><path d="m396.431 193.36h-10.53v30.243h10.53z" opacity=".1"/><path d="m396.431 198.135h-10.53v2.123h10.53z" opacity=".1"/><path d="m396.431 214.583h-10.53v2.123h10.53z" opacity=".1"/><path d="m412.225 193.36h-10.53v30.243h10.53z" opacity=".1"/><path d="m412.225 198.135h-10.53v2.123h10.53z" opacity=".1"/><path d="m412.225 214.583h-10.53v2.123h10.53z" opacity=".1"/><path d="m443.813 93.1172v27.5478h-10.53v-29.5693c3.524.6261 7.034 1.2999 10.53 2.0215z" opacity=".1"/><path d="m443.813 95.2024h-10.53v2.1223h10.53z" opacity=".1"/><path d="m443.813 111.651h-10.53v2.122h10.53z" opacity=".1"/><path d="m459.607 96.7995v23.8765h-10.53v-26.4233c1.369.3024 2.733.6208 4.096.9444 2.155.5094 4.3 1.0435 6.434 1.6024z" opacity=".1"/><path d="m459.607 96.7995v.5306h-10.53v-2.1223h4.096c2.155.5022 4.3 1.0328 6.434 1.5917z" opacity=".1"/><path d="m459.607 111.651h-10.53v2.122h10.53z" opacity=".1"/><path d="m77.2326 105.628c10.8541 0 19.6531-8.8673 19.6531-19.8062s-8.799-19.8067-19.6531-19.8067c-10.854 0-19.653 8.8678-19.653 19.8067s8.799 19.8062 19.653 19.8062z" opacity=".1"/><path d="m77.2327 102.631c9.2113 0 16.6785-7.5259 16.6785-16.8092s-7.4672-16.8089-16.6785-16.8089-16.6785 7.5256-16.6785 16.8089 7.4672 16.8092 16.6785 16.8092z" opacity=".1"/><path d="m77.2328 87.0208c.6571 0 1.1898-.5369 1.1898-1.1991 0-.6623-.5327-1.1991-1.1898-1.1991s-1.1898.5368-1.1898 1.1991c0 .6622.5327 1.1991 1.1898 1.1991z" opacity=".1"/></g><path d="m84.3821 73.2205-6.5598 11.5667" opacity=".1" stroke="#1db776" stroke-miterlimit="10"/><path d="m84.6774 89.7269-6.3703-3.3799" opacity=".1" stroke="#1db776" stroke-miterlimit="10"/><path d="m304.925 379.621h-54.979c-1.89 0-3.422 1.544-3.422 3.449v1.905c0 1.905 1.532 3.449 3.422 3.449h54.979c1.89 0 3.422-1.544 3.422-3.449v-1.905c0-1.905-1.532-3.449-3.422-3.449z" fill="#4b4f51"/><path d="m422.943 281.469h-123.936c-8.205 0-14.857 6.703-14.857 14.973v77.125c0 8.27 6.652 14.973 14.857 14.973h123.936c8.205 0 14.857-6.703 14.857-14.973v-77.125c0-8.27-6.652-14.973-14.857-14.973z" fill="url(#a)" opacity=".49"/><path d="m418.316 283.443h-117.292c-7.804 0-14.13 6.375-14.13 14.24v76.611c0 7.865 6.326 14.241 14.13 14.241h117.292c7.804 0 14.13-6.376 14.13-14.241v-76.611c0-7.865-6.326-14.24-14.13-14.24z" fill="#3f3d56"/><path d="m420.332 283.443h-117.291c-7.804 0-14.131 6.375-14.131 14.24v76.611c0 7.865 6.327 14.241 14.131 14.241h117.291c7.804 0 14.131-6.376 14.131-14.241v-76.611c0-7.865-6.327-14.24-14.131-14.24z" fill="#4b4f51"/><path d="m368.486 340.003c2.596 0 4.701-2.122 4.701-4.739 0-2.616-2.105-4.738-4.701-4.738-2.597 0-4.702 2.122-4.702 4.738 0 2.617 2.105 4.739 4.702 4.739z" fill="#e0e0e0"/><path d="m117.171 382.194s-8.36-2.854-12.383 4.569c-1.061 2.012-1.601 4.262-1.569 6.541.031 2.279.632 4.513 1.748 6.495 2.633 4.813 8.087 11.063 18.427 10.506 8.75-.472 11.661-7.2 12.451-13.461.303-2.348.002-4.734-.872-6.931-.875-2.197-2.294-4.131-4.123-5.616-1.829-1.486-4.005-2.473-6.321-2.868-2.316-.396-4.693-.185-6.905.612z" fill="#1db776"/><path d="m106.736 400.468c-1.116-1.982-1.717-4.216-1.749-6.495-.031-2.279.509-4.529 1.57-6.542 4.022-7.428 12.383-4.568 12.383-4.568l.426-.154c3.188-1.162 6.691-1.083 9.824.223-1.729-1.037-3.664-1.675-5.667-1.868s-4.023.065-5.915.754l-.427.154s-8.36-2.855-12.382 4.568c-1.062 2.012-1.601 4.262-1.57 6.541s.633 4.513 1.749 6.495c1.742 3.184 4.696 6.956 9.476 9.02-3.262-1.946-5.932-4.758-7.718-8.128z" fill="#fff" opacity=".1"/><path d="m112.854 385.765s3.1 2.457 10.624 0z" fill="#3f3d56" opacity=".2"/><path d="m112.19 367.917s5.312 14.5 4.87 18.294l4.212-.446s-7.086-12.734-5.312-17.848z" fill="#1db776"/><path d="m112.19 367.917s5.312 14.5 4.87 18.294l4.212-.446s-7.086-12.734-5.312-17.848z" fill="#3f3d56" opacity=".2"/><path d="m133.876 369.132s-8.361-4.309-12.109-.749c-3.749 3.561-4.317 12.66-4.317 12.66s13.641 1.889 16.426-11.911z" fill="#1db776"/><path d="m133.876 369.132s-8.361-4.309-12.109-.749c-3.749 3.561-4.317 12.66-4.317 12.66s13.641 1.889 16.426-11.911z" fill="#fff" opacity=".1"/><path d="m117.455 381.043s2.195-10.564 16.421-11.911" stroke="#1db776" stroke-miterlimit="10"/><g fill="#1db776" opacity=".1"><path d="m386.106 160.607s-3.19-1.093-4.738 1.746c-.405.768-.61 1.627-.598 2.497.011.87.241 1.723.667 2.48 1.01 1.836 3.09 4.244 7.028 4.011 3.343-.18 4.454-2.748 4.738-5.141.109-.895-.01-1.804-.346-2.64-.336-.835-.878-1.571-1.575-2.137-.696-.566-1.524-.944-2.406-1.098s-1.788-.078-2.633.219z" opacity=".1"/><path d="m382.132 167.59c-.426-.757-.656-1.61-.668-2.48s.194-1.729.599-2.497c1.537-2.833 4.738-1.746 4.738-1.746l.164-.058c1.218-.444 2.556-.414 3.753.085-.661-.397-1.4-.641-2.166-.714s-1.538.025-2.261.289l-.164.059s-3.19-1.093-4.738 1.745c-.404.769-.61 1.628-.598 2.498.011.87.241 1.722.667 2.479.791 1.52 2.061 2.732 3.611 3.444-1.242-.745-2.259-1.818-2.937-3.104z" opacity=".1"/><path d="m384.458 161.971s1.185.939 4.06 0z" opacity=".2"/><path d="m384.201 155.153s2.027 5.539 1.858 6.988l1.606-.17s-2.706-4.855-2.027-6.818z" opacity=".1"/><path d="m384.201 155.153s2.027 5.539 1.858 6.988l1.606-.17s-2.706-4.855-2.027-6.818z" opacity=".2"/><path d="m392.487 155.62s-3.196-1.645-4.622-.287c-1.427 1.359-1.648 4.834-1.648 4.834s5.207.711 6.27-4.547z" opacity=".1"/><path d="m392.487 155.62s-3.196-1.645-4.622-.287c-1.427 1.359-1.648 4.834-1.648 4.834s5.207.711 6.27-4.547z" opacity=".1"/><path d="m386.212 160.167s.837-4.033 6.27-4.552z" opacity=".1"/></g><g fill="#1db776" opacity=".1"><path d="m453.495 213.135s-3.191-1.093-4.739 1.746c-.404.768-.61 1.627-.598 2.497s.241 1.723.667 2.48c1.011 1.835 3.09 4.244 7.028 4.011 3.343-.181 4.454-2.749 4.738-5.142.109-.895-.01-1.803-.346-2.639s-.878-1.571-1.574-2.137c-.697-.566-1.525-.944-2.407-1.098s-1.788-.079-2.632.218z" opacity=".1"/><path d="m449.52 220.118c-.426-.757-.655-1.61-.667-2.48s.194-1.729.598-2.497c1.538-2.834 4.739-1.746 4.739-1.746l.163-.058c1.218-.444 2.556-.414 3.754.085-.661-.397-1.401-.641-2.167-.714-.766-.074-1.538.025-2.261.289l-.163.059s-3.191-1.093-4.739 1.745c-.404.769-.61 1.627-.598 2.497s.241 1.723.667 2.48c.791 1.52 2.062 2.732 3.611 3.443-1.242-.744-2.258-1.817-2.937-3.103z" opacity=".1"/><path d="m451.847 214.499s1.184.939 4.059 0z" opacity=".2"/><path d="m451.589 207.681s2.027 5.539 1.858 6.987l1.606-.169s-2.706-4.855-2.027-6.818z" opacity=".1"/><path d="m451.589 207.681s2.027 5.539 1.858 6.987l1.606-.169s-2.706-4.855-2.027-6.818z" opacity=".2"/><path d="m459.875 208.148s-3.195-1.645-4.622-.287-1.648 4.834-1.648 4.834 5.207.711 6.27-4.547z" opacity=".1"/><path d="m459.875 208.148s-3.195-1.645-4.622-.287-1.648 4.834-1.648 4.834 5.207.711 6.27-4.547z" opacity=".1"/><path d="m453.6 212.695s.837-4.033 6.27-4.553z" opacity=".1"/></g></g></svg>