<svg width="680" height="560" viewBox="0 0 680 560" fill="none" xmlns="http://www.w3.org/2000/svg">
<g clip-path="url(#clip0)">
<path d="M400.449 90.434V370.543C400.449 373.873 399.261 377.067 397.147 379.422C395.033 381.777 392.165 383.1 389.176 383.1H26.8326C25.789 383.1 24.7556 382.871 23.7915 382.426C22.8273 381.982 21.9513 381.329 21.2133 380.508C20.4754 379.686 19.89 378.71 19.4907 377.636C19.0913 376.562 18.8857 375.411 18.8857 374.248V125.029C18.8857 109.915 24.2761 95.4198 33.8709 84.7324C43.4657 74.0451 56.4791 68.041 70.0483 68.041H380.345C382.985 68.041 385.6 68.6202 388.039 69.7456C390.478 70.8709 392.694 72.5204 394.561 74.5998C396.428 76.6792 397.908 79.1478 398.919 81.8646C399.929 84.5815 400.449 87.4933 400.449 90.434V90.434Z" fill="#F2F2F2"/>
<path d="M265.884 318.51C265.913 340.905 261.31 363.007 252.432 383.1H26.8326C25.789 383.1 24.7556 382.871 23.7915 382.426C22.8273 381.981 21.9513 381.329 21.2133 380.507C20.4754 379.685 19.89 378.71 19.4907 377.636C19.0913 376.562 18.8857 375.411 18.8857 374.248V248.576C32.8422 219.962 54.963 197.345 81.751 184.302C108.539 171.259 138.466 168.533 166.8 176.555C195.135 184.578 220.261 202.891 238.205 228.6C256.149 254.309 265.889 285.946 265.884 318.51V318.51Z" fill="#2F2E41"/>
<path d="M400.449 295.14V370.543C400.449 373.873 399.262 377.067 397.147 379.422C395.033 381.777 392.166 383.1 389.176 383.1H26.3332C24.2411 383.1 22.2346 382.175 20.7551 380.527C19.2755 378.88 18.444 376.645 18.4434 374.315V374.225C18.4434 311.421 193.816 257.851 243.681 237.049C271.839 225.34 302.747 224.718 331.267 235.286C359.786 245.854 384.2 266.975 400.449 295.14H400.449Z" fill="#3F3D56"/>
<path d="M340.692 190.811C358.782 190.811 373.448 174.475 373.448 154.325C373.448 134.174 358.782 117.839 340.692 117.839C322.601 117.839 307.936 134.174 307.936 154.325C307.936 174.475 322.601 190.811 340.692 190.811Z" fill="#F5C108"/>
<path d="M169.682 162.696C169.682 233.866 131.697 258.716 84.8408 258.716C37.9845 258.716 0 233.866 0 162.696C0 91.5258 84.8408 0.986084 84.8408 0.986084C84.8408 0.986084 169.682 91.5258 169.682 162.696Z" fill="#1DB776"/>
<path d="M81.7503 247.829L82.6194 188.266L118.78 114.578L82.7551 178.922L83.1459 152.141L108.068 98.8279L83.2496 145.053L83.9516 96.8845L110.639 54.4412L84.0625 89.31L84.5016 0.986084L81.7425 117.911L81.9693 113.088L54.8364 66.8275L81.5344 122.347L79.0064 176.143L78.931 174.715L47.6514 126.033L78.8363 179.76L78.5203 186.487L78.4636 186.589L78.4895 187.141L72.0752 323.626H80.6449L81.6731 253.129L112.781 199.534L81.7503 247.829Z" fill="#3F3D56"/>
<path d="M308.013 130.078C308.013 187.327 277.459 207.316 239.768 207.316C202.077 207.316 171.522 187.327 171.522 130.078C171.522 72.8295 239.768 0 239.768 0C239.768 0 308.013 72.8295 308.013 130.078Z" fill="#1DB776"/>
<path d="M237.282 198.559L237.98 150.647L267.069 91.3729L238.09 143.131L238.404 121.588L258.452 78.7032L238.488 115.887L239.053 77.14L260.52 42.9988L239.141 71.0474L239.495 0L237.275 94.0538L237.458 90.1738L215.632 52.9621L237.108 97.6221L235.074 140.895L235.014 139.746L209.853 100.587L234.937 143.804L234.683 149.216L234.638 149.297L234.659 149.742L229.499 259.529H236.393L237.219 202.822L262.243 159.71L237.282 198.559Z" fill="#3F3D56"/>
<path d="M448.608 210.836C448.608 249.378 428.038 262.836 402.663 262.836C377.288 262.836 356.718 249.378 356.718 210.836C356.718 172.294 402.663 123.263 402.663 123.263C402.663 123.263 448.608 172.294 448.608 210.836Z" fill="#1DB776"/>
<path d="M400.989 256.94L401.459 224.684L421.042 184.778L401.533 219.624L401.744 205.119L415.241 176.249L401.8 201.282L402.181 175.196L416.634 152.211L402.241 171.094L402.479 123.262L400.984 186.583L401.107 183.971L386.414 158.918L400.872 188.986L399.503 218.118L399.462 217.345L382.522 190.981L399.41 220.077L399.239 223.72L399.209 223.775L399.223 224.074L395.749 297.987H400.39L400.947 259.81L417.794 230.785L400.989 256.94Z" fill="#3F3D56"/>
<path d="M109.899 281.948C107.866 285.561 105.228 285.476 102.849 283.815C100.471 282.154 99.2523 279.546 101.286 275.933C103.319 272.32 110.213 270.731 110.213 270.731C110.213 270.731 111.933 278.335 109.899 281.948Z" fill="#1DB776"/>
<path d="M46.6006 291.809C44.5672 295.422 41.9289 295.337 39.5503 293.676C37.1717 292.015 35.9534 289.407 37.9868 285.794C40.0202 282.181 46.9139 280.593 46.9139 280.593C46.9139 280.593 48.6339 288.196 46.6006 291.809Z" fill="#1DB776"/>
<path d="M270.998 274.43C271.375 278.673 269.241 280.404 266.448 280.711C263.654 281.019 261.258 279.786 260.881 275.543C260.505 271.299 265.085 265.344 265.085 265.344C265.085 265.344 270.622 270.186 270.998 274.43Z" fill="#1DB776"/>
<path d="M197.986 221.796C195.953 225.409 193.315 225.324 190.936 223.663C188.557 222.002 187.339 219.394 189.373 215.781C191.406 212.168 198.3 210.579 198.3 210.579C198.3 210.579 200.02 218.183 197.986 221.796Z" fill="#1DB776"/>
<path d="M366.193 277.51C364.16 281.123 361.522 281.038 359.143 279.377C356.764 277.716 355.546 275.108 357.58 271.496C359.613 267.883 366.507 266.294 366.507 266.294C366.507 266.294 368.227 273.898 366.193 277.51Z" fill="#1DB776"/>
<path d="M655.462 338.997C655.462 457.344 607.221 550.705 547.813 553.283C470.341 556.644 369.089 470.601 440.165 338.997C494.935 237.586 488.361 124.712 547.813 124.712C607.266 124.712 655.462 220.651 655.462 338.997Z" fill="#F2F2F2"/>
<path d="M517.358 560C570.316 560 613.247 554.887 613.247 548.58C613.247 542.273 570.316 537.161 517.358 537.161C464.401 537.161 421.47 542.273 421.47 548.58C421.47 554.887 464.401 560 517.358 560Z" fill="#3F3D56"/>
<path d="M599.673 406.763C600.05 411.006 597.916 412.737 595.122 413.044C592.329 413.352 589.932 412.119 589.556 407.876C589.18 403.632 593.76 397.677 593.76 397.677C593.76 397.677 599.297 402.519 599.673 406.763Z" fill="#1DB776"/>
<path d="M560.419 394.585C558.386 398.198 555.747 398.113 553.369 396.452C550.99 394.791 549.772 392.183 551.805 388.57C553.839 384.957 560.732 383.369 560.732 383.369C560.732 383.369 562.452 390.972 560.419 394.585Z" fill="#1DB776"/>
<path d="M558.213 492.23C558.213 492.23 562.754 514.238 569.827 518.981C576.9 523.724 552.563 532.719 552.563 532.719C552.563 532.719 541.971 540.033 539.219 542.678C536.468 545.323 524.677 550.981 526.62 546.778C528.564 542.576 531.978 534.584 537.37 527.945C542.762 521.305 549.85 509.419 543.675 500.161C537.5 490.904 558.213 492.23 558.213 492.23Z" fill="#FFB9B9"/>
<path d="M533.624 224.493L531.244 223.546C531.244 223.546 525.124 222.599 519.514 230.552C513.904 238.505 501.069 262.649 501.069 262.649L496.309 275.147L513.139 275.715L525.804 244.659L533.624 224.493Z" fill="#F5C108"/>
<path opacity="0.1" d="M533.624 224.493L531.244 223.546C531.244 223.546 525.124 222.599 519.514 230.552C513.904 238.505 501.069 262.649 501.069 262.649L496.309 275.147L513.139 275.715L525.804 244.659L533.624 224.493Z" fill="black"/>
<path d="M531.074 416.788C531.074 416.788 540.679 419.155 539.064 427.392C537.449 435.629 549.094 446.328 550.199 448.127C551.304 449.926 552.919 450.684 551.899 453.429C550.879 456.175 575.615 494.899 570.685 498.403C565.754 501.906 525.804 515.634 522.234 512.889C518.663 510.143 515.773 420.291 515.773 420.291L531.074 416.788Z" fill="#2F2E41"/>
<path opacity="0.1" d="M531.074 416.788C531.074 416.788 540.679 419.155 539.064 427.392C537.449 435.629 549.094 446.328 550.199 448.127C551.304 449.926 552.919 450.684 551.899 453.429C550.879 456.175 575.615 494.899 570.685 498.403C565.754 501.906 525.804 515.634 522.234 512.889C518.663 510.143 515.773 420.291 515.773 420.291L531.074 416.788Z" fill="black"/>
<path d="M509.229 514.498C509.229 514.498 503.279 536.085 507.274 544.133C511.269 552.181 486.156 546.411 486.156 546.411C486.156 546.411 473.699 546.843 470.129 547.601C466.559 548.358 453.808 546.689 457.378 544.133C460.948 541.577 467.493 536.558 475.144 533.813C482.794 531.067 494.269 524.723 493.079 513.267C491.889 501.811 509.229 514.498 509.229 514.498Z" fill="#FFB9B9"/>
<path d="M498.093 298.722C501.386 296.102 505.352 294.74 509.398 294.84C515.943 295.124 537.364 300.805 536.769 301.941C536.182 302.941 535.528 303.89 534.814 304.781C534.814 304.781 536.174 311.693 535.579 312.356C534.984 313.018 547.224 328.641 540.084 362.158C532.944 395.674 533.709 418.871 533.709 418.871C533.709 418.871 536.599 517.149 528.354 519.137C520.109 521.126 487.638 519.8 486.108 515.918C484.578 512.036 490.783 391.508 490.783 391.508C490.783 391.508 491.463 330.913 493.078 323.528C494.693 316.143 498.093 298.722 498.093 298.722Z" fill="#2F2E41"/>
<path d="M535.537 213.178C546.851 213.178 556.023 202.962 556.023 190.36C556.023 177.758 546.851 167.542 535.537 167.542C524.223 167.542 515.052 177.758 515.052 190.36C515.052 202.962 524.223 213.178 535.537 213.178Z" fill="#FFB9B9"/>
<path d="M532.434 204.463C532.434 204.463 545.099 218.286 529.459 228.985C518.446 236.519 556.065 223.115 556.065 223.115C556.065 223.115 548.244 200.865 549.434 195.752C550.624 190.64 532.434 204.463 532.434 204.463Z" fill="#FFB9B9"/>
<path d="M535.579 227.049C535.579 227.049 553.174 218.054 556.064 221.273C558.954 224.492 571.449 237.748 557.849 261.228C544.249 284.709 541.614 302.32 539.319 304.308C537.024 306.296 535.579 301.751 535.579 301.751C535.579 301.751 528.949 295.029 524.614 295.029C520.278 295.029 501.748 297.301 501.748 297.301L506.933 274.389C506.933 274.389 504.383 256.305 513.053 247.31C521.723 238.316 531.244 223.546 531.244 223.546L536.153 222.547L532.911 227.145C532.911 227.145 532.434 228.564 535.579 227.049Z" fill="#F5C108"/>
<path d="M581.988 381.196C546.464 366.744 541.773 338.176 551.288 309.159C560.802 280.141 580.919 261.664 616.443 276.116C651.966 290.567 679.931 361.492 679.931 361.492C679.931 361.492 617.512 395.647 581.988 381.196Z" fill="#1DB776"/>
<path d="M557.349 309.455L586.903 322.088L616.341 359.445L591.539 324.069L604.828 329.75L626.377 356.009L608.344 331.253L632.244 341.469L648.01 366.614L636.003 343.075L680 361.282L622.198 335.831L624.559 336.951L653.159 329.541L620.026 334.801L593.688 322.312L594.416 322.555L625.066 313.07L591.917 321.472L588.623 319.911L588.584 319.855L588.303 319.759L521.481 288.073L519.74 293.38L554.72 308.331L575.154 338.479L557.349 309.455Z" fill="#3F3D56"/>
<path d="M495.119 277.04C495.119 277.04 487.554 288.402 492.569 292.662C497.584 296.923 508.124 289.632 508.124 289.632C508.124 289.632 532.435 308.474 532.095 297.396C531.755 286.319 514.329 278.65 514.329 278.65L502.599 279.028L504.384 272.495L499.454 271.927L495.119 277.04Z" fill="#FFB9B9"/>
<path opacity="0.1" d="M495.119 277.04C495.119 277.04 487.554 288.402 492.569 292.662C497.584 296.923 508.124 289.632 508.124 289.632C508.124 289.632 532.435 308.474 532.095 297.396C531.755 286.319 514.329 278.65 514.329 278.65L502.599 279.028L504.384 272.495L499.454 271.927L495.119 277.04Z" fill="black"/>
<path d="M545.865 255.169C545.865 255.169 498.094 296.165 495.033 281.774C493.045 272.421 494.574 249.391 495.889 234.412C496.829 223.506 501.202 213.322 508.234 205.661C511.1 202.551 513.758 200.599 515.094 202.053C518.834 206.124 506.339 222.409 506.339 222.409C506.339 222.409 504.299 255.453 508.379 259.24C508.379 259.24 523.16 243.342 526.225 243.574C529.289 243.807 545.865 255.169 545.865 255.169Z" fill="#FFB9B9"/>
<path d="M577.507 211.697C573.594 205.135 570.363 194.582 566.877 185.287C565.747 182.275 564.714 179.223 563.703 176.159C561.666 169.983 552.797 162.01 541.181 162.01C527.904 162.01 517.141 169.452 517.141 175.696C517.141 180.859 524.501 185.21 534.553 186.564C531.021 195.344 528.893 205.089 528.893 211.697C528.893 226.65 539.776 220.325 553.2 220.325C566.625 220.325 584.936 224.152 577.507 211.697Z" fill="#2F2E41"/>
<path d="M556.064 229.605C556.064 229.605 564.564 253.749 545.439 259.24C545.439 259.24 541.699 253.465 535.579 252.518C529.459 251.571 524.019 244.47 524.019 244.47C524.019 244.47 536.514 224.871 546.289 224.492C556.064 224.114 556.064 229.605 556.064 229.605Z" fill="#F5C108"/>
</g>
<defs>
<clipPath id="clip0">
<rect width="680" height="560" fill="white"/>
</clipPath>
</defs>
</svg>
