<svg width="800" height="520" viewBox="0 0 800 520" fill="none" xmlns="http://www.w3.org/2000/svg">
<g clip-path="url(#clip0)">
<path d="M0 519.994H773.15C773.15 519.994 840.929 427.554 761.15 332.533C731.546 297.295 729.294 253.723 738.162 212.849C762.134 102.363 666.196 4.58514 562.107 33.2802C560.124 33.8315 558.12 34.39 556.103 34.9703C399.208 80.0511 270.754 34.7454 221.315 12.3174C201.616 3.34141 180.245 -0.819744 158.802 0.145967C103.318 2.75725 19.2358 25.2723 97.3356 149.294C207.442 324.133 0 519.994 0 519.994Z" fill="#F2F2F2"/>
<path d="M186.231 504.768C194.786 504.768 201.721 495.204 201.721 483.406C201.721 471.608 194.786 462.044 186.231 462.044C177.676 462.044 170.74 471.608 170.74 483.406C170.74 495.204 177.676 504.768 186.231 504.768Z" fill="#3F3D56"/>
<path d="M186.231 478.655C194.786 478.655 201.721 469.091 201.721 457.293C201.721 445.495 194.786 435.931 186.231 435.931C177.676 435.931 170.74 445.495 170.74 457.293C170.74 469.091 177.676 478.655 186.231 478.655Z" fill="#3F3D56"/>
<path d="M186.231 452.542C194.786 452.542 201.721 442.978 201.721 431.18C201.721 419.383 194.786 409.819 186.231 409.819C177.676 409.819 170.74 419.383 170.74 431.18C170.74 442.978 177.676 452.542 186.231 452.542Z" fill="#3F3D56"/>
<path d="M186.231 426.429C194.786 426.429 201.721 416.865 201.721 405.068C201.721 393.27 194.786 383.706 186.231 383.706C177.676 383.706 170.74 393.27 170.74 405.068C170.74 416.865 177.676 426.429 186.231 426.429Z" fill="#3F3D56"/>
<path d="M186.231 400.316C194.786 400.316 201.721 390.752 201.721 378.955C201.721 367.157 194.786 357.593 186.231 357.593C177.676 357.593 170.74 367.157 170.74 378.955C170.74 390.752 177.676 400.316 186.231 400.316Z" fill="#3F3D56"/>
<path d="M186.231 374.204C194.786 374.204 201.721 364.64 201.721 352.842C201.721 341.044 194.786 331.48 186.231 331.48C177.676 331.48 170.74 341.044 170.74 352.842C170.74 364.64 177.676 374.204 186.231 374.204Z" fill="#3F3D56"/>
<path d="M186.231 348.091C194.786 348.091 201.721 338.527 201.721 326.729C201.721 314.931 194.786 305.367 186.231 305.367C177.676 305.367 170.74 314.931 170.74 326.729C170.74 338.527 177.676 348.091 186.231 348.091Z" fill="#3F3D56"/>
<path d="M314.974 501.801C319.727 501.801 323.58 496.488 323.58 489.934C323.58 483.38 319.727 478.067 314.974 478.067C310.221 478.067 306.368 483.38 306.368 489.934C306.368 496.488 310.221 501.801 314.974 501.801Z" fill="#3F3D56"/>
<path d="M314.974 487.294C319.727 487.294 323.58 481.981 323.58 475.427C323.58 468.873 319.727 463.56 314.974 463.56C310.221 463.56 306.368 468.873 306.368 475.427C306.368 481.981 310.221 487.294 314.974 487.294Z" fill="#3F3D56"/>
<path d="M314.974 472.787C319.727 472.787 323.58 467.474 323.58 460.92C323.58 454.366 319.727 449.053 314.974 449.053C310.221 449.053 306.368 454.366 306.368 460.92C306.368 467.474 310.221 472.787 314.974 472.787Z" fill="#3F3D56"/>
<path d="M314.974 458.279C319.727 458.279 323.58 452.967 323.58 446.413C323.58 439.859 319.727 434.546 314.974 434.546C310.221 434.546 306.368 439.859 306.368 446.413C306.368 452.967 310.221 458.279 314.974 458.279Z" fill="#3F3D56"/>
<path d="M314.974 443.772C319.727 443.772 323.58 438.459 323.58 431.906C323.58 425.352 319.727 420.039 314.974 420.039C310.221 420.039 306.368 425.352 306.368 431.906C306.368 438.459 310.221 443.772 314.974 443.772Z" fill="#3F3D56"/>
<path d="M314.974 429.265C319.727 429.265 323.58 423.952 323.58 417.399C323.58 410.845 319.727 405.532 314.974 405.532C310.221 405.532 306.368 410.845 306.368 417.399C306.368 423.952 310.221 429.265 314.974 429.265Z" fill="#3F3D56"/>
<path d="M314.974 414.758C319.727 414.758 323.58 409.445 323.58 402.891C323.58 396.337 319.727 391.024 314.974 391.024C310.221 391.024 306.368 396.337 306.368 402.891C306.368 409.445 310.221 414.758 314.974 414.758Z" fill="#3F3D56"/>
<path d="M244.22 148.031C246.335 145.191 248.262 142.203 249.99 139.087L209.294 132.044L253.315 132.385C257.536 122.705 259.839 112.219 260.083 101.57C260.327 90.9199 258.506 80.3297 254.733 70.4465L195.67 102.725L250.127 60.5236C245.024 51.2346 238.16 43.1521 229.963 36.7797C221.766 30.4073 212.411 25.8814 202.481 23.484C192.551 21.0866 182.259 20.8691 172.246 22.8449C162.233 24.8208 152.714 28.9477 144.281 34.9685C135.847 40.9894 128.681 48.7753 123.228 57.8413C117.776 66.9072 114.153 77.059 112.586 87.6642C111.02 98.2694 111.542 109.101 114.122 119.484C116.701 129.867 121.283 139.58 127.58 148.016C124.276 152.439 121.435 157.225 119.105 162.291L171.938 191.211L115.615 171.285C111.657 183.605 110.679 196.771 112.768 209.589C114.857 222.408 119.948 234.475 127.58 244.699C118.973 256.229 113.618 270.079 112.129 284.665C110.641 299.251 113.077 313.983 119.161 327.179C125.245 340.374 134.73 351.5 146.532 359.284C158.334 367.067 171.976 371.195 185.9 371.195C199.824 371.195 213.467 367.067 225.269 359.284C237.071 351.5 246.556 340.374 252.64 327.179C258.723 313.983 261.16 299.251 259.671 284.665C258.182 270.079 252.828 256.229 244.22 244.699C254.505 230.917 260.096 213.895 260.096 196.365C260.096 178.834 254.505 161.812 244.22 148.031V148.031Z" fill="#1DB776"/>
<path opacity="0.1" d="M111.697 196.368C111.672 213.903 117.269 230.934 127.58 244.699C118.973 256.229 113.618 270.079 112.13 284.665C110.641 299.251 113.077 313.983 119.161 327.179C125.245 340.374 134.73 351.5 146.532 359.284C158.334 367.067 171.977 371.195 185.9 371.195C199.824 371.195 213.467 367.067 225.269 359.284C237.071 351.5 246.556 340.374 252.64 327.179C258.723 313.983 261.16 299.251 259.671 284.665C258.182 270.079 252.828 256.229 244.221 244.699C254.162 231.396 111.697 187.591 111.697 196.368Z" fill="black"/>
<path d="M276.268 271.319C274.856 269.429 273.573 267.437 272.426 265.357L299.559 260.656L270.21 260.889C267.395 254.435 265.86 247.444 265.698 240.344C265.536 233.244 266.75 226.183 269.266 219.594L308.64 241.137L272.33 212.993C275.735 206.806 280.312 201.424 285.776 197.181C291.24 192.938 297.474 189.925 304.092 188.33C310.709 186.735 317.566 186.591 324.238 187.909C330.91 189.227 337.253 191.977 342.872 195.989C348.492 200 353.267 205.188 356.902 211.228C360.537 217.268 362.952 224.031 363.999 231.098C365.046 238.164 364.701 245.381 362.986 252.301C361.271 259.221 358.223 265.694 354.031 271.319C356.23 274.263 358.12 277.449 359.669 280.821L324.447 300.101L362.003 286.835C364.644 295.048 365.298 303.826 363.906 312.373C362.514 320.92 359.12 328.966 354.031 335.782C359.764 343.47 363.328 352.704 364.317 362.426C365.306 372.148 363.678 381.967 359.621 390.761C355.564 399.555 349.241 406.97 341.373 412.157C333.506 417.344 324.413 420.094 315.132 420.094C305.851 420.094 296.758 417.344 288.891 412.157C281.024 406.97 274.7 399.555 270.643 390.761C266.586 381.967 264.958 372.148 265.947 362.426C266.936 352.704 270.5 343.47 276.234 335.782C269.379 326.593 265.652 315.245 265.652 303.558C265.652 291.871 269.379 280.522 276.234 271.334L276.268 271.319Z" fill="#1DB776"/>
<path opacity="0.1" d="M364.62 303.518C364.635 315.21 360.904 326.566 354.031 335.745C359.764 343.434 363.329 352.667 364.317 362.39C365.306 372.112 363.679 381.931 359.622 390.725C355.564 399.519 349.241 406.933 341.374 412.12C333.507 417.308 324.413 420.058 315.132 420.058C305.852 420.058 296.758 417.308 288.891 412.12C281.024 406.933 274.701 399.519 270.643 390.725C266.586 381.931 264.959 372.112 265.948 362.39C266.936 352.667 270.501 343.434 276.234 335.745C269.639 326.896 364.62 297.715 364.62 303.518Z" fill="black"/>
<path d="M0 519.993C0 519.993 82.9742 435.126 111.697 463.676C140.42 492.226 261.694 499.821 272.867 498.138C284.041 496.455 349.46 493.097 386.162 497.296C422.864 501.496 759.552 485.531 773.115 519.993H0Z" fill="#3F3D56"/>
<path opacity="0.1" d="M537.748 104.77H500.433C501.334 103.574 501.82 102.09 501.81 100.563C501.808 99.7004 501.649 98.8461 501.342 98.0462H518.554C520.246 98.0462 521.87 97.3378 523.067 96.0768C524.263 94.8158 524.936 93.1055 524.936 91.3222C524.936 89.5389 524.263 87.8286 523.067 86.5676C521.87 85.3066 520.246 84.5981 518.554 84.5981H415.676C413.985 84.6039 412.365 85.3142 411.169 86.5739C409.973 87.8337 409.299 89.5406 409.294 91.3222C409.294 92.1859 409.456 93.041 409.769 93.8392H392.557C390.9 93.8965 389.329 94.6304 388.176 95.8859C387.023 97.1413 386.378 98.8198 386.378 100.567C386.378 102.314 387.023 103.992 388.176 105.248C389.329 106.503 390.9 107.237 392.557 107.295H429.872C428.971 108.488 428.485 109.97 428.495 111.494C428.501 113.276 429.175 114.983 430.37 116.243C431.566 117.502 433.186 118.213 434.877 118.218H537.748C539.441 118.218 541.064 117.51 542.261 116.249C543.458 114.988 544.13 113.278 544.13 111.494C544.13 109.711 543.458 108.001 542.261 106.74C541.064 105.479 539.441 104.77 537.748 104.77Z" fill="#00BFA6"/>
<path opacity="0.1" d="M706.093 201.409H668.778C669.691 200.218 670.189 198.733 670.189 197.202C670.191 196.339 670.031 195.484 669.721 194.685H686.933C688.626 194.685 690.249 193.977 691.446 192.716C692.643 191.455 693.315 189.745 693.315 187.961C693.315 186.178 692.643 184.468 691.446 183.207C690.249 181.946 688.626 181.237 686.933 181.237H584.028C582.337 181.243 580.716 181.953 579.521 183.213C578.325 184.473 577.651 186.18 577.645 187.961C577.644 188.825 577.803 189.68 578.114 190.478H560.902C559.245 190.536 557.673 191.27 556.52 192.525C555.367 193.78 554.723 195.459 554.723 197.206C554.723 198.953 555.367 200.632 556.52 201.887C557.673 203.142 559.245 203.876 560.902 203.934H598.217C597.316 205.127 596.83 206.609 596.84 208.133C596.845 209.915 597.52 211.622 598.715 212.882C599.911 214.142 601.531 214.852 603.222 214.858H706.093C707.786 214.858 709.409 214.149 710.606 212.888C711.803 211.627 712.475 209.917 712.475 208.133C712.475 206.35 711.803 204.64 710.606 203.379C709.409 202.118 707.786 201.409 706.093 201.409V201.409Z" fill="#00BFA6"/>
<path opacity="0.1" d="M369.652 160.507H347.793C348.328 159.811 348.619 158.943 348.619 158.048C348.614 157.55 348.52 157.058 348.344 156.597H358.437C359.429 156.597 360.379 156.182 361.08 155.443C361.782 154.705 362.175 153.703 362.175 152.658C362.175 151.614 361.782 150.612 361.08 149.873C360.379 149.135 359.429 148.72 358.437 148.72H298.107C297.116 148.724 296.167 149.14 295.467 149.878C294.767 150.615 294.372 151.615 294.368 152.658C294.373 153.157 294.469 153.649 294.65 154.109H284.585C283.594 154.109 282.643 154.524 281.942 155.263C281.241 156.001 280.847 157.003 280.847 158.048C280.847 159.092 281.241 160.094 281.942 160.833C282.643 161.572 283.594 161.986 284.585 161.986H306.444C305.909 162.682 305.618 163.55 305.618 164.445C305.62 165.49 306.014 166.492 306.714 167.231C307.415 167.97 308.365 168.388 309.356 168.391H369.652C370.617 168.348 371.528 167.913 372.196 167.179C372.864 166.444 373.237 165.466 373.237 164.449C373.237 163.432 372.864 162.454 372.196 161.719C371.528 160.985 370.617 160.55 369.652 160.507V160.507Z" fill="#00BFA6"/>
<path d="M474.678 481.629C474.462 483.129 474.06 484.592 473.48 485.981C475.834 486.897 478.289 487.494 480.785 487.758C480.944 487.793 481.11 487.767 481.253 487.685C481.439 487.533 481.412 487.228 481.384 486.96C481.338 485.525 481.597 484.098 482.141 482.782C483.518 478.744 484.877 474.701 486.217 470.654C483.835 469.515 478.906 470.204 476.895 472.105C475.043 473.86 475.126 479.177 474.678 481.629Z" fill="#FFB9B9"/>
<path d="M508.84 488.396C508.765 488.565 508.723 488.747 508.716 488.933C508.716 489.579 509.528 489.804 510.141 489.862C513.097 490.147 516.012 490.787 518.83 491.769C519.174 490.696 518.692 489.542 518.678 488.418C518.678 486.851 519.552 485.459 520.096 484.001C521.067 481.426 520.991 478.568 520.902 475.797C518.547 475.964 512.929 474.818 511.614 477.385C510.885 478.836 510.926 481.012 510.595 482.608C510.149 484.581 509.562 486.516 508.84 488.396V488.396Z" fill="#FFB9B9"/>
<path d="M494.837 376.916L488.641 377.301C488.238 377.278 487.839 377.401 487.511 377.649C487.249 377.965 487.1 378.368 487.091 378.788C486.265 385.316 487.718 391.982 486.947 398.51C486.637 401.078 485.99 403.588 485.487 406.112C484.641 410.326 484.179 414.613 483.718 418.893C483.417 421.012 483.338 423.16 483.484 425.298C483.663 427.097 484.172 428.852 484.234 430.658C484.229 432.795 483.875 434.915 483.188 436.925C482.158 440.381 480.869 443.745 479.332 446.986C478.004 449.793 476.482 452.528 475.677 455.545C474.396 460.347 474.988 465.577 473.467 470.299C473.088 471.459 472.579 472.656 472.778 473.86C473.047 475.42 474.486 476.529 475.966 476.827C477.463 477.023 478.982 476.902 480.434 476.471C482.851 475.927 485.419 475.296 487.119 473.41C488.108 472.164 488.865 470.732 489.35 469.189C490.472 466.287 491.587 463.343 492.613 460.383C493.054 458.982 493.583 457.613 494.196 456.285C494.761 455.153 495.463 454.109 496.062 452.977C497.049 451.034 497.851 448.993 498.458 446.884C502.878 432.595 504.227 417.145 510.906 403.871C511.222 403.24 511.264 402.42 511.594 401.825C512.239 403.986 512.551 406.241 512.517 408.506C512.668 413.651 512.551 418.802 512.166 423.934C511.89 427.677 511.477 431.412 511.394 435.17C511.394 436.882 511.394 438.601 511.429 440.32V441.72C511.484 444.164 511.539 446.609 511.766 449.039C512.737 459.077 509.735 468.841 510.816 478.865C510.823 479.22 510.934 479.565 511.133 479.852C511.594 480.374 512.413 480.091 513.04 479.808C515.107 478.864 517.307 478.286 519.553 478.096C520.237 478.106 520.913 477.947 521.529 477.632C522.52 477.008 522.802 475.652 522.981 474.448C524.482 464.684 525.981 454.921 527.477 445.158C527.875 442.822 528.16 440.466 528.331 438.1C528.503 435.025 528.289 431.935 528.572 428.874C528.964 424.522 530.637 420.387 531.89 416.252C532.537 414.076 533.191 411.937 533.783 409.761C534.376 407.584 534.919 405.329 535.401 403.095C536.227 399.207 536.875 395.195 536.303 391.257C535.732 387.318 533.763 383.43 530.444 381.53C528.014 380.13 525.164 379.919 522.417 379.6C514.575 378.694 506.761 376.699 498.906 377.424C497.542 377.555 496.241 376.829 494.837 376.916Z" fill="#2F2E41"/>
<path d="M477.46 510.055C477.874 509.378 478.202 508.646 478.437 507.879L480.978 500.626C481.782 498.46 482.471 496.249 483.043 494.003C483.669 491.318 483.952 488.556 483.883 485.792C481.297 485.776 478.725 485.395 476.234 484.661C475.295 484.318 474.319 484.101 473.329 484.015C472.653 484.035 471.987 484.198 471.371 484.495C470.756 484.791 470.203 485.215 469.746 485.74C469.289 486.266 468.936 486.883 468.71 487.555C468.483 488.226 468.387 488.939 468.427 489.651C468.498 490.087 468.535 490.529 468.537 490.971C468.484 491.412 468.363 491.841 468.179 492.241L465.467 499.204C464.7 500.89 464.233 502.709 464.09 504.572C463.897 511.085 473.556 515.982 477.46 510.055Z" fill="#3F3D56"/>
<path d="M503.621 508.423C503.483 509.513 503.483 510.618 503.621 511.708C504.158 514.777 506.974 517.105 509.927 517.323C511.414 517.375 512.889 517.041 514.224 516.349C515.558 515.656 516.709 514.628 517.576 513.355C518.137 512.579 518.568 511.708 518.85 510.78C519.082 509.886 519.225 508.97 519.277 508.045L520.371 495.838C520.53 494.126 521.191 491.652 520.371 490.035C519.683 488.664 518.01 488.214 516.722 487.699C514.583 486.775 512.264 486.409 509.962 486.633C505.948 486.988 505.989 491.304 505.383 494.75C504.594 499.285 504.006 503.843 503.621 508.423Z" fill="#3F3D56"/>
<path d="M504.812 261.491C502.96 264.225 500.262 266.235 498.444 268.998C496.797 271.519 495.973 274.536 496.096 277.594C496.158 279.16 496.468 280.763 496.096 282.279C495.728 283.439 495.121 284.499 494.32 285.384C491.325 289.084 487.407 291.828 483.009 293.305C482.479 293.479 481.818 293.856 481.948 294.422C482.042 294.672 482.214 294.879 482.437 295.009L491.387 301.762C496.64 305.73 501.921 309.741 507.732 312.708C518.095 318.001 529.717 319.927 541.122 318.242C539.661 315.836 538.754 313.104 538.472 310.264C538.127 306.854 538.706 303.416 538.644 299.985C538.596 296.49 537.894 293.039 536.578 289.83C535.807 287.966 534.83 286.204 534.238 284.267C533.615 281.903 533.282 279.466 533.246 277.013L532.785 268.897C532.767 267.39 532.551 265.894 532.145 264.45C531.757 263.344 531.204 262.311 530.506 261.389C527.229 256.877 522.244 254.948 517.026 254.477C514.747 254.273 511.959 254.078 509.859 255.122C507.346 256.42 506.327 259.271 504.812 261.491Z" fill="#3F3D56"/>
<path d="M503.959 293.772C503.678 294.519 503.243 295.191 502.684 295.738C502.126 296.285 501.458 296.694 500.73 296.934C499.272 297.412 497.754 297.657 496.227 297.66L492.943 297.819C492.58 297.786 492.218 297.9 491.931 298.138C491.753 298.354 491.651 298.628 491.642 298.914C491.436 300.757 492.455 302.476 493.473 303.992C496.737 308.808 500.647 313.385 505.749 315.844C509.638 317.72 513.991 318.251 518.184 317.36C522.377 316.468 526.194 314.201 529.088 310.883C529.424 310.564 529.651 310.139 529.735 309.671C529.722 309.323 529.623 308.984 529.45 308.686C529.276 308.389 529.033 308.144 528.744 307.974C527.656 307.125 526.375 306.574 525.301 305.733C523.455 304.247 522.138 302.149 521.563 299.778C520.996 297.419 520.89 294.963 521.253 292.56C517.171 291.334 512.723 292.306 508.634 291.11C507.677 290.834 505.88 289.775 504.875 290.384C503.869 290.994 504.276 292.742 503.959 293.772Z" fill="#FFB9B9"/>
<path opacity="0.1" d="M503.959 290.766C503.678 291.513 503.243 292.185 502.684 292.732C502.126 293.28 501.458 293.688 500.73 293.928C499.272 294.407 497.754 294.651 496.227 294.654L492.943 294.813C492.58 294.78 492.218 294.894 491.931 295.132C491.753 295.349 491.651 295.623 491.642 295.909C491.436 297.751 492.455 299.47 493.473 300.986C496.737 305.802 500.647 310.379 505.749 312.838C509.638 314.715 513.991 315.245 518.184 314.354C522.377 313.463 526.194 311.195 529.088 307.877C529.424 307.559 529.651 307.133 529.735 306.666C529.722 306.317 529.623 305.978 529.45 305.681C529.276 305.383 529.033 305.138 528.744 304.968C527.656 304.12 526.375 303.568 525.301 302.727C523.455 301.241 522.138 299.143 521.563 296.772C520.996 294.413 520.89 291.957 521.253 289.554C517.171 288.329 512.723 289.301 508.634 288.104C507.677 287.828 505.88 286.769 504.875 287.378C503.869 287.988 504.276 289.736 503.959 290.766Z" fill="black"/>
<path d="M514.334 297.947C521.927 297.947 528.082 291.462 528.082 283.462C528.082 275.462 521.927 268.976 514.334 268.976C506.74 268.976 500.585 275.462 500.585 283.462C500.585 291.462 506.74 297.947 514.334 297.947Z" fill="#FFB9B9"/>
<path d="M524.337 298.223C521.791 299.376 519.15 300.279 516.447 300.921C513.727 301.559 510.893 301.396 508.255 300.45C506.469 299.62 504.768 298.599 503.181 297.403C500.33 295.481 497.218 293.776 493.845 293.428C492.268 293.254 490.547 293.428 489.301 294.458C488.129 295.585 487.412 297.143 487.298 298.81C486.843 302.263 487.621 305.745 488.316 309.154C490.953 322.101 492.447 335.644 489.494 348.526C487.945 355.366 489.618 362.482 489.845 369.511C489.818 371.925 490.122 374.332 490.747 376.655C491.47 378.94 492.929 381.08 495.036 382.016C496.998 382.886 499.222 382.618 501.342 382.436C503.869 382.226 506.506 382.19 508.798 383.307C510.423 384.105 511.945 385.483 513.721 385.316C514.63 385.229 515.456 384.736 516.358 384.591C518.168 384.272 519.903 385.316 521.549 386.172C525.626 388.298 530.084 389.487 534.63 389.661C536.95 383.909 535.752 377.439 536.007 371.193C536.11 368.858 536.44 366.537 536.571 364.201C536.681 361.384 536.647 358.563 536.468 355.751L535.628 336.746C535.387 331.575 537.893 326.512 537.693 321.347C537.555 318.941 537.24 316.55 536.75 314.195C536.599 313.397 536.44 312.607 536.227 311.83C534.712 306.383 530.354 302.401 526.189 298.825C525.953 298.569 525.66 298.379 525.336 298.274C525.013 298.169 524.669 298.151 524.337 298.223V298.223Z" fill="#F5C108"/>
<path d="M501.357 383.038C501.412 388.116 499.677 393.027 497.976 397.792C497.453 399.243 496.813 400.853 495.477 401.528C494.141 402.202 492.647 401.767 491.346 401.23C490.132 400.745 488.952 400.171 487.814 399.511C486.616 398.786 485.267 398.01 483.98 398.474C482.403 399.04 481.914 401.107 481.701 402.826C479.548 402.856 477.397 402.717 475.264 402.413C475.064 402.4 474.87 402.335 474.699 402.224C474.489 402.009 474.361 401.72 474.341 401.412C474.121 400.2 473.894 398.996 473.653 397.785C473.584 397.408 473.322 396.907 472.964 397.06C473.253 392.359 472.324 387.681 471.986 382.988C471.793 380.609 471.816 378.217 472.055 375.843C472.37 373.468 472.802 371.113 473.35 368.785C474.41 363.809 476.448 358.754 476.565 353.705C476.589 352.691 476.526 351.676 476.379 350.673C475.406 344.343 474.437 338.008 473.474 331.669C473.226 330.087 472.985 328.492 472.634 326.932C472.372 325.772 472.124 324.647 471.842 323.53C471.67 322.848 471.484 322.174 471.271 321.492C473.106 316.173 474.942 310.854 476.778 305.534C477.197 304.224 477.703 302.947 478.293 301.712C479.675 298.98 481.828 296.767 484.455 295.379C485.238 295.066 485.944 294.57 486.52 293.929C486.789 293.559 486.954 293.109 487.209 292.724C488.179 291.274 490.169 291.158 491.828 291.477C493.35 291.76 494.926 292.369 495.849 293.653C496.215 294.241 496.511 294.874 496.73 295.539C497.832 298.353 498.938 301.165 500.048 303.975C500.992 304.453 501.425 305.752 501.425 306.876C501.425 308.965 501.143 311.047 501.226 313.136C501.226 313.288 501.226 313.433 501.267 313.586C501.515 315.464 502.775 317.046 503.202 318.932C504.84 326.149 502.451 333.576 501.047 340.874C500.992 341.164 500.937 341.447 500.888 341.737C500.123 345.975 499.754 350.283 499.787 354.597C499.782 356.388 499.902 358.178 500.145 359.95C500.372 361.51 500.737 363.048 500.902 364.622C501.06 366.809 501.06 369.006 500.902 371.193C500.709 375.118 501.315 379.071 501.357 383.038Z" fill="#454B69"/>
<path d="M507.029 334.895C507.512 335.78 507.781 336.777 507.814 337.797C507.81 338.236 507.665 338.661 507.401 339.001C507.195 339.209 506.942 339.359 506.667 339.439C506.392 339.519 506.102 339.525 505.824 339.458C505.272 339.324 504.751 339.078 504.289 338.732C503.664 338.38 503.154 337.84 502.822 337.18C502.711 336.867 502.637 336.541 502.602 336.208L502.237 333.756C502.129 333.28 502.129 332.783 502.237 332.306C502.547 331.298 503.938 329.513 504.991 330.384C506.045 331.254 506.513 333.735 507.029 334.895Z" fill="#454B69"/>
<path d="M547.332 324.901C546.926 323.784 545.714 323.313 544.723 322.725C542.657 321.514 541.225 319.396 540.137 317.191C539.05 314.985 538.237 312.635 537.06 310.488C536.881 310.096 536.611 309.756 536.275 309.502C536.103 309.381 535.898 309.323 535.692 309.336C535.486 309.349 535.289 309.433 535.132 309.574C534.986 309.773 534.898 310.013 534.877 310.263C534.63 311.866 535.063 313.484 535.297 315.087C535.671 317.808 535.474 320.582 534.72 323.214C533.966 325.846 532.673 328.271 530.933 330.319C529.507 331.981 527.738 333.439 526.974 335.528C526.5 337.171 526.36 338.901 526.561 340.605L527.036 349.861C527.472 359.276 526.461 368.704 524.041 377.779C522.664 383.002 520.337 388.275 521.287 393.599C521.645 395.638 522.485 397.661 522.141 399.707C522.031 400.095 522.031 400.508 522.141 400.897C522.303 401.187 522.542 401.422 522.829 401.571L527.408 404.719L531.538 391.83C531.922 390.731 532.228 389.603 532.454 388.457C532.64 387.146 532.73 385.822 532.723 384.496C533.002 372.902 534.426 361.369 536.97 350.085C537.286 348.457 537.747 346.864 538.347 345.327C539.538 342.505 541.542 340.17 543.518 337.878C543.566 336.811 543.435 335.745 543.518 334.672C543.528 332.802 543.78 330.942 544.268 329.144C544.805 327.382 545.728 325.684 547.332 324.901Z" fill="#454B69"/>
<path d="M540.385 336.942C540.226 339.995 540.27 343.057 540.516 346.103L541.205 358.246C541.221 359.87 541.453 361.484 541.893 363.04C542.444 364.694 543.463 366.145 543.993 367.813C544.172 368.379 544.296 368.974 544.475 369.547C544.702 370.272 545.012 370.903 545.301 371.578C547.16 376.01 547.669 380.928 547.8 385.766C547.931 390.604 547.697 395.457 548.165 400.273C546.975 400.621 545.726 400.686 544.509 400.462C544.061 400.331 543.598 400.265 543.132 400.266C542.733 400.325 542.344 400.442 541.976 400.614C540.344 401.233 538.603 401.47 536.875 401.307C535.147 401.144 533.474 400.586 531.972 399.671C531.073 399.086 530.218 398.426 529.418 397.698C528.738 397.152 528.147 396.493 527.669 395.747C527.127 394.661 526.854 393.448 526.878 392.221C526.719 387.296 528.254 382.509 529.294 377.714C530.217 373.068 530.906 368.373 531.359 363.65C532.124 356.737 531.917 349.629 533.425 342.846C533.564 341.864 533.944 340.937 534.526 340.155C535.039 339.637 535.642 339.228 536.303 338.951C537.645 338.262 539.015 337.609 540.385 336.942Z" fill="#454B69"/>
<path opacity="0.1" d="M547.332 324.901C546.926 323.784 545.714 323.313 544.723 322.725C542.657 321.514 541.225 319.396 540.137 317.191C539.05 314.985 538.237 312.635 537.06 310.488C536.881 310.096 536.611 309.756 536.275 309.502C536.103 309.381 535.898 309.323 535.692 309.336C535.486 309.349 535.289 309.433 535.132 309.574C534.986 309.773 534.898 310.013 534.877 310.263C534.63 311.866 535.063 313.484 535.297 315.087C535.671 317.808 535.474 320.582 534.72 323.214C533.966 325.846 532.673 328.271 530.933 330.319C529.507 331.981 527.738 333.439 526.974 335.528C526.5 337.171 526.36 338.901 526.561 340.605L527.036 349.861C527.472 359.276 526.461 368.704 524.041 377.779C522.664 383.002 520.337 388.275 521.287 393.599C521.645 395.638 522.485 397.661 522.141 399.707C522.031 400.095 522.031 400.508 522.141 400.897C522.303 401.187 522.542 401.422 522.829 401.571L527.408 404.719L531.538 391.83C531.922 390.731 532.228 389.603 532.454 388.457C532.64 387.146 532.73 385.822 532.723 384.496C533.002 372.902 534.426 361.369 536.97 350.085C537.286 348.457 537.747 346.864 538.347 345.327C539.538 342.505 541.542 340.17 543.518 337.878C543.566 336.811 543.435 335.745 543.518 334.672C543.528 332.802 543.78 330.942 544.268 329.144C544.805 327.382 545.728 325.684 547.332 324.901Z" fill="black"/>
<path d="M542.231 401.1C542.083 401.645 541.768 402.124 541.336 402.463C540.875 402.739 540.124 402.507 540.083 401.948C539.312 401.84 538.706 402.797 537.962 402.862C537.219 402.928 536.53 402.137 535.801 402.311C535.333 402.442 534.892 402.964 534.465 402.732C534.286 402.637 534.176 402.434 533.99 402.362C533.694 402.26 533.412 402.55 533.109 402.623C532.469 402.775 532 401.948 531.98 401.259C531.959 400.57 532.152 399.809 531.849 399.214C531.812 399.113 531.741 399.03 531.649 398.982C531.443 398.88 531.216 399.083 531.078 399.279C530.568 400.004 530.424 401.013 529.907 401.767C529.391 402.521 528.159 402.877 527.691 402.093C527.507 401.683 527.472 401.216 527.594 400.781C527.904 398.924 528.592 396.929 530.176 396.058C531.553 395.333 533.205 395.609 534.72 395.942C536.827 396.426 538.931 396.926 541.033 397.444C541.591 397.582 542.926 397.654 543.167 398.336C543.408 399.018 542.451 400.519 542.231 401.1Z" fill="#FFB9B9"/>
<path d="M517.432 273.234C518.121 277.144 520.241 280.589 521.942 284.151C523.642 287.712 524.999 291.76 524.076 295.619C523.682 296.946 523.222 298.251 522.699 299.528C522.015 301.791 521.541 304.118 521.281 306.477C520.827 309.683 520.372 312.94 520.737 316.161C521.102 319.381 522.403 322.616 524.868 324.575L524.675 323.124C525.72 323.707 526.697 324.415 527.587 325.235C528.576 323.395 529.273 321.399 529.653 319.323L534.327 323.146C536.393 324.814 538.706 326.57 541.267 326.236L539.202 321.224C538.63 319.831 538.059 318.446 537.384 317.104C536.928 316.311 536.554 315.47 536.269 314.594C536.092 313.833 535.99 313.055 535.966 312.273C535.14 299.462 532.871 286.8 529.205 274.554C528.475 271.749 527.379 269.064 525.949 266.575C525.248 265.404 524.325 264.399 523.236 263.623C521.522 262.47 519.415 262.223 517.391 262.006C515.979 261.794 514.549 261.76 513.129 261.904C511.683 262.155 510.286 262.66 508.999 263.398C504.917 265.593 501.586 269.074 499.47 273.358C497.916 276.455 497.172 279.932 497.315 283.433C497.584 287.132 500.93 285.449 503.188 284.528C508.778 282.229 514.148 278.66 517.432 273.234Z" fill="#3F3D56"/>
<path opacity="0.1" d="M507.029 320.868C507.512 321.753 507.781 322.749 507.814 323.77C507.81 324.209 507.665 324.634 507.401 324.974C507.195 325.182 506.942 325.332 506.667 325.412C506.392 325.492 506.102 325.498 505.824 325.431C505.272 325.297 504.751 325.051 504.289 324.705C503.664 324.353 503.154 323.813 502.822 323.153C502.711 322.84 502.637 322.513 502.602 322.181L502.237 319.729C502.129 319.252 502.129 318.756 502.237 318.279C502.547 317.27 503.938 315.486 504.991 316.357C506.045 317.227 506.513 319.708 507.029 320.868Z" fill="black"/>
<path d="M511.332 295.502L508.75 315.878L520.096 315.152L523.786 295.502H511.332Z" fill="#454B69"/>
<path d="M516.915 302.473C517.391 302.473 517.776 302.067 517.776 301.567C517.776 301.066 517.391 300.66 516.915 300.66C516.44 300.66 516.055 301.066 516.055 301.567C516.055 302.067 516.44 302.473 516.915 302.473Z" fill="white"/>
<g opacity="0.1">
<path opacity="0.1" d="M524.372 293.167C524.489 292.812 524.592 292.442 524.681 292.093C525.597 288.227 524.241 284.18 522.54 280.618C520.84 277.057 518.747 273.619 518.038 269.702C514.754 275.127 509.397 278.696 503.8 280.988C501.542 281.909 498.189 283.585 497.921 279.893C497.855 279.07 497.855 278.242 497.921 277.419C497.389 279.337 497.18 281.338 497.301 283.331C497.569 287.03 500.915 285.348 503.174 284.426C508.778 282.142 514.127 278.573 517.411 273.147C518.1 277.057 520.22 280.502 521.921 284.027C523.298 286.9 524.433 290.048 524.372 293.167Z" fill="black"/>
<path opacity="0.1" d="M534.94 319.621C533.379 318.354 531.821 317.079 530.265 315.798C529.887 317.876 529.189 319.876 528.199 321.717C527.311 320.893 526.333 320.183 525.287 319.599L525.48 321.05C523.029 319.091 521.728 315.856 521.349 312.635C520.97 309.415 521.432 306.158 521.886 302.952C521.934 302.604 521.989 302.227 522.038 301.907C521.714 303.358 521.501 304.889 521.287 306.39C520.833 309.604 520.378 312.853 520.743 316.074C521.108 319.294 522.409 322.529 524.874 324.488L524.681 323.037C525.725 323.625 526.702 324.335 527.594 325.155C528.58 323.315 529.278 321.319 529.659 319.243C531.219 320.515 532.778 321.789 534.334 323.066C536.399 324.727 538.712 326.49 541.273 326.156L539.786 322.529C538.031 322.072 536.406 320.825 534.94 319.621Z" fill="black"/>
</g>
<path d="M505.109 306.347C506.181 304.841 507.481 303.533 508.957 302.473C509.185 302.296 509.467 302.214 509.749 302.241C509.969 302.292 510.155 302.466 510.382 302.509C510.643 302.529 510.903 302.463 511.126 302.321L514.307 300.711C514.772 300.431 515.293 300.272 515.828 300.246C516.097 300.245 516.358 300.347 516.561 300.532C516.765 300.717 516.898 300.974 516.937 301.255C516.937 301.878 516.351 302.299 515.828 302.611C514.249 303.558 512.756 304.656 511.367 305.89C510.678 306.535 509.894 307.601 510.431 308.428C510.657 308.667 510.932 308.847 511.236 308.954C511.539 309.061 511.862 309.092 512.179 309.045C513.333 309.103 514.489 309.01 515.622 308.769C516.53 308.53 517.384 308.102 518.3 307.877C519.141 307.7 519.996 307.61 520.854 307.609C521.355 307.528 521.867 307.644 522.293 307.935C522.671 308.276 522.637 309.096 522.148 309.197C522.837 310.162 522.231 311.584 521.329 312.309C520.427 313.034 519.264 313.332 518.32 313.948C519.422 313.535 520.723 313.136 521.701 313.818C521.848 313.908 521.959 314.053 522.011 314.224C522.072 314.565 521.728 314.826 521.425 314.949C516.909 317.169 511.56 316.4 506.83 318.047C504.827 318.747 502.981 319.87 501.405 321.347C502.141 320.622 497.604 315.544 497.997 314.093C498.313 312.904 500.592 311.388 501.439 310.467C502.706 309.166 503.929 307.792 505.109 306.347Z" fill="#FFB9B9"/>
<path opacity="0.1" d="M504.936 329.406C504.857 330.065 504.94 330.734 505.177 331.35C505.549 332.989 505.005 334.708 504.255 336.202C503.387 337.895 502.303 339.455 501.033 340.837C499.525 342.479 497.9 343.997 496.172 345.378C492.792 348.173 489.251 350.745 485.57 353.081C484.643 353.754 483.604 354.234 482.506 354.496C481.652 354.608 480.788 354.593 479.938 354.452C478.793 354.349 477.663 354.105 476.572 353.727C476.595 352.712 476.533 351.698 476.386 350.695C475.413 344.365 474.444 338.03 473.48 331.69C473.232 330.109 472.992 328.513 472.64 326.954C472.379 325.793 472.131 324.669 471.849 323.552C471.849 323.552 471.849 323.494 471.849 323.472C472.537 321.644 474.554 320.484 474.754 318.54C477.666 318.25 480.399 317.909 483.319 317.626C483.717 320.498 483.527 323.426 482.761 326.214C482.985 326.232 483.209 326.175 483.4 326.052C483.592 325.928 483.742 325.744 483.828 325.525C484.041 325.112 484.11 324.633 484.289 324.198C484.978 322.544 486.995 322.152 488.42 321.195C490.926 319.555 492.007 316.001 494.706 314.768C494.899 314.656 495.122 314.615 495.339 314.652C495.931 314.819 496.028 315.914 496.668 315.87C496.865 315.831 497.044 315.724 497.177 315.566C498.279 314.514 499.656 313.644 500.751 312.599C500.902 312.911 501.047 313.223 501.191 313.535C502.724 316.804 504.255 320.075 505.783 323.349C506.382 324.626 507.05 325.982 508.241 326.657C507.78 328.107 505.37 327.933 504.936 329.406Z" fill="black"/>
<path d="M473.921 317.009C473.728 318.96 471.697 320.121 471.016 321.949C470.741 322.922 470.626 323.938 470.678 324.952C470.61 327.853 469.99 330.624 469.646 333.46C469.301 336.296 469.233 339.263 470.224 341.932C470.816 343.514 471.766 344.95 472.172 346.597C472.448 347.699 472.468 348.889 472.957 349.904C474.024 352.08 476.744 352.646 479.078 352.914C479.928 353.056 480.792 353.07 481.646 352.958C482.745 352.694 483.786 352.214 484.716 351.543C488.394 349.206 491.932 346.633 495.312 343.84C498.458 341.251 501.508 338.378 503.394 334.664C504.145 333.17 504.689 331.451 504.324 329.812C504.08 329.198 503.997 328.527 504.083 327.868C504.517 326.417 506.919 326.569 507.443 325.126C506.252 324.459 505.584 323.102 504.992 321.826L499.959 311.069C498.857 312.12 497.48 312.991 496.386 314.043C496.249 314.199 496.068 314.306 495.869 314.347C495.257 314.391 495.133 313.295 494.541 313.129C494.326 313.093 494.106 313.131 493.914 313.237C491.208 314.478 490.128 318.032 487.622 319.671C486.162 320.629 484.179 321.02 483.491 322.674C483.312 323.102 483.243 323.588 483.03 324.002C482.949 324.227 482.802 324.419 482.61 324.55C482.417 324.68 482.191 324.743 481.962 324.727C482.731 321.94 482.921 319.011 482.52 316.139C479.573 316.385 476.84 316.726 473.921 317.009Z" fill="#454B69"/>
<path d="M541.99 400.614C542.176 400.541 542.362 400.461 542.548 400.403C542.886 400.083 543.126 399.663 543.236 399.197C543.347 398.732 543.323 398.243 543.167 397.792C542.926 397.11 541.591 397.067 541.033 396.9C538.931 396.368 536.827 395.87 534.72 395.406C533.205 395.065 531.546 394.767 530.176 395.514C529.667 395.797 529.247 396.74 528.902 397.219L529.432 397.698C530.004 398.198 530.589 398.692 531.195 399.149C531.248 399.079 531.32 399.028 531.401 399.001C531.481 398.974 531.568 398.972 531.649 398.996C531.741 399.045 531.812 399.127 531.849 399.228C531.921 399.371 531.97 399.526 531.994 399.685C533.495 400.599 535.167 401.155 536.894 401.316C538.621 401.476 540.36 401.237 541.99 400.614Z" fill="#454B69"/>
</g>
<defs>
<clipPath id="clip0">
<rect width="800" height="520" fill="white"/>
</clipPath>
</defs>
</svg>
