<svg width="180" height="150" viewBox="0 0 180 150" fill="none" xmlns="http://www.w3.org/2000/svg">
<g clip-path="url(#clip0)">
<g opacity="0.5">
<path opacity="0.5" d="M23.2073 7.05615H22.5088V10.574H23.2073V7.05615Z" fill="#1DB776"/>
<path opacity="0.5" d="M24.8374 9.12544V8.50464H20.879V9.12544H24.8374Z" fill="#1DB776"/>
</g>
<g opacity="0.5">
<path opacity="0.5" d="M170.963 143.46H170.264V146.978H170.963V143.46Z" fill="#1DB776"/>
<path opacity="0.5" d="M172.593 145.529V144.909H168.634V145.529H172.593Z" fill="#1DB776"/>
</g>
<g opacity="0.5">
<path opacity="0.5" d="M171.24 40.1449H170.542V43.6628H171.24V40.1449Z" fill="#1DB776"/>
<path opacity="0.5" d="M172.87 42.2142V41.5934H168.912V42.2142H172.87Z" fill="#1DB776"/>
</g>
<g opacity="0.5">
<path opacity="0.5" d="M178.372 8.45251H177.673V11.9704H178.372V8.45251Z" fill="#1DB776"/>
<path opacity="0.5" d="M180.002 10.5218V9.901H176.044V10.5218H180.002Z" fill="#1DB776"/>
</g>
<g opacity="0.5">
<path opacity="0.5" d="M56.7244 6.7616H56.0259V10.2795H56.7244V6.7616Z" fill="#1DB776"/>
<path opacity="0.5" d="M58.3525 8.83088V8.21008H54.3941V8.83088H58.3525Z" fill="#1DB776"/>
</g>
<path opacity="0.5" d="M12.8401 59.3206C12.6477 59.2459 12.4929 59.1111 12.4051 58.9416C12.3173 58.7722 12.3026 58.5799 12.3639 58.4015C12.3738 58.3743 12.3801 58.3461 12.3828 58.3176C12.3969 58.233 12.3778 58.1467 12.3288 58.0731C12.2798 57.9995 12.2038 57.9431 12.1135 57.9134C12.0233 57.8837 11.9243 57.8824 11.8332 57.9098C11.742 57.9373 11.6642 57.9917 11.6129 58.0641C11.5936 58.0872 11.5775 58.1122 11.5647 58.1386C11.4807 58.3096 11.3289 58.4472 11.1382 58.5252C10.9476 58.6032 10.7313 58.6163 10.5305 58.5618C10.4998 58.553 10.4682 58.5474 10.4361 58.545C10.3409 58.5325 10.2437 58.5495 10.1609 58.593C10.0781 58.6366 10.0147 58.7041 9.98122 58.7843C9.94778 58.8645 9.94638 58.9525 9.97725 59.0335C10.0081 59.1145 10.0694 59.1836 10.1508 59.2292C10.1768 59.2464 10.205 59.2607 10.2347 59.2721C10.4271 59.3467 10.5819 59.4816 10.6697 59.6511C10.7575 59.8205 10.7721 60.0127 10.7109 60.1912C10.701 60.2184 10.6947 60.2466 10.692 60.2751C10.6779 60.3597 10.697 60.446 10.746 60.5196C10.795 60.5932 10.871 60.6496 10.9612 60.6793C11.0515 60.709 11.1505 60.7103 11.2416 60.6828C11.3328 60.6554 11.4105 60.6009 11.4619 60.5286C11.4811 60.5055 11.4973 60.4805 11.5101 60.454C11.5941 60.2831 11.7459 60.1455 11.9365 60.0675C12.1272 59.9894 12.3435 59.9764 12.5443 60.0309C12.5749 60.0396 12.6066 60.0453 12.6387 60.0476C12.7339 60.0602 12.831 60.0432 12.9139 59.9997C12.9967 59.9561 13.0601 59.8886 13.0936 59.8084C13.127 59.7282 13.1284 59.6402 13.0975 59.5592C13.0667 59.4782 13.0054 59.4091 12.924 59.3634C12.898 59.3463 12.8698 59.3319 12.8401 59.3206Z" fill="#135E8A"/>
<path opacity="0.5" d="M25.7371 129.853C25.5447 129.778 25.3899 129.644 25.3021 129.474C25.2143 129.305 25.1996 129.112 25.2609 128.934C25.2708 128.907 25.2771 128.879 25.2797 128.85C25.2938 128.765 25.2748 128.679 25.2258 128.606C25.1767 128.532 25.1007 128.476 25.0105 128.446C24.9203 128.416 24.8213 128.415 24.7301 128.442C24.639 128.47 24.5612 128.524 24.5099 128.597C24.4906 128.62 24.4744 128.645 24.4616 128.671C24.3776 128.842 24.2259 128.98 24.0352 129.058C23.8445 129.136 23.6282 129.149 23.4274 129.094C23.3968 129.085 23.3651 129.08 23.333 129.078C23.2379 129.065 23.1407 129.082 23.0579 129.125C22.9751 129.169 22.9116 129.237 22.8782 129.317C22.8448 129.397 22.8434 129.485 22.8742 129.566C22.9051 129.647 22.9664 129.716 23.0478 129.762C23.0738 129.779 23.1019 129.793 23.1317 129.805C23.3241 129.879 23.4789 130.014 23.5667 130.184C23.6545 130.353 23.6691 130.545 23.6079 130.724C23.598 130.751 23.5916 130.779 23.589 130.808C23.5749 130.892 23.5939 130.978 23.643 131.052C23.692 131.126 23.768 131.182 23.8582 131.212C23.9484 131.241 24.0474 131.243 24.1386 131.215C24.2297 131.188 24.3075 131.133 24.3588 131.061C24.3781 131.038 24.3943 131.013 24.4071 130.987C24.4911 130.816 24.6428 130.678 24.8335 130.6C25.0242 130.522 25.2405 130.509 25.4413 130.563C25.4719 130.572 25.5036 130.578 25.5357 130.58C25.6309 130.593 25.728 130.576 25.8108 130.532C25.8936 130.489 25.9571 130.421 25.9905 130.341C26.024 130.261 26.0254 130.173 25.9945 130.092C25.9636 130.011 25.9024 129.942 25.821 129.896C25.7949 129.879 25.7668 129.864 25.7371 129.853Z" fill="#135E8A"/>
<path opacity="0.5" d="M143 36.4536C142.808 36.379 142.653 36.2441 142.565 36.0747C142.477 35.9052 142.463 35.713 142.524 35.5345C142.534 35.5073 142.54 35.4792 142.543 35.4507C142.557 35.3661 142.538 35.2797 142.489 35.2061C142.44 35.1325 142.364 35.0761 142.274 35.0464C142.183 35.0167 142.084 35.0155 141.993 35.0429C141.902 35.0703 141.824 35.1248 141.773 35.1971C141.754 35.2202 141.738 35.2453 141.725 35.2717C141.641 35.4427 141.489 35.5802 141.298 35.6583C141.108 35.7363 140.891 35.7493 140.691 35.6949C140.66 35.6861 140.628 35.6805 140.596 35.6781C140.501 35.6656 140.404 35.6825 140.321 35.7261C140.238 35.7696 140.175 35.8372 140.141 35.9174C140.108 35.9976 140.107 36.0855 140.137 36.1665C140.168 36.2475 140.23 36.3167 140.311 36.3623C140.337 36.3794 140.365 36.3938 140.395 36.4052C140.587 36.4798 140.742 36.6147 140.83 36.7841C140.918 36.9536 140.932 37.1458 140.871 37.3242C140.861 37.3515 140.855 37.3796 140.852 37.4081C140.838 37.4927 140.857 37.5791 140.906 37.6527C140.955 37.7263 141.031 37.7826 141.121 37.8124C141.212 37.8421 141.311 37.8433 141.402 37.8159C141.493 37.7885 141.571 37.734 141.622 37.6617C141.641 37.6385 141.657 37.6135 141.67 37.5871C141.754 37.4161 141.906 37.2785 142.097 37.2005C142.287 37.1225 142.504 37.1095 142.704 37.1639C142.735 37.1727 142.767 37.1783 142.799 37.1807C142.894 37.1932 142.991 37.1763 143.074 37.1327C143.157 37.0892 143.22 37.0216 143.254 36.9414C143.287 36.8612 143.289 36.7733 143.258 36.6922C143.227 36.6112 143.166 36.5421 143.084 36.4965C143.058 36.4794 143.03 36.465 143 36.4536Z" fill="#135E8A"/>
<path opacity="0.5" d="M141.437 53.3047C141.245 53.2301 141.09 53.0952 141.002 52.9257C140.914 52.7563 140.9 52.5641 140.961 52.3856C140.971 52.3584 140.977 52.3303 140.98 52.3017C140.994 52.2171 140.975 52.1308 140.926 52.0572C140.877 51.9836 140.801 51.9272 140.711 51.8975C140.62 51.8678 140.521 51.8665 140.43 51.894C140.339 51.9214 140.261 51.9759 140.21 52.0482C140.191 52.0713 140.175 52.0963 140.162 52.1228C140.078 52.2937 139.926 52.4313 139.735 52.5093C139.545 52.5874 139.328 52.6004 139.128 52.546C139.097 52.5372 139.065 52.5315 139.033 52.5292C138.938 52.5166 138.841 52.5336 138.758 52.5771C138.675 52.6207 138.612 52.6882 138.578 52.7684C138.545 52.8486 138.544 52.9366 138.574 53.0176C138.605 53.0986 138.667 53.1677 138.748 53.2134C138.774 53.2305 138.802 53.2449 138.832 53.2562C139.024 53.3309 139.179 53.4657 139.267 53.6352C139.355 53.8047 139.369 53.9969 139.308 54.1753C139.298 54.2025 139.292 54.2307 139.289 54.2592C139.275 54.3438 139.294 54.4301 139.343 54.5037C139.392 54.5773 139.468 54.6337 139.558 54.6634C139.649 54.6932 139.748 54.6944 139.839 54.667C139.93 54.6395 140.008 54.5851 140.059 54.5127C140.078 54.4896 140.094 54.4646 140.107 54.4382C140.191 54.2672 140.343 54.1296 140.534 54.0516C140.724 53.9736 140.941 53.9605 141.141 54.015C141.172 54.0238 141.204 54.0294 141.236 54.0318C141.331 54.0443 141.428 54.0274 141.511 53.9838C141.594 53.9402 141.657 53.8727 141.691 53.7925C141.724 53.7123 141.726 53.6243 141.695 53.5433C141.664 53.4623 141.603 53.3932 141.521 53.3476C141.495 53.3305 141.467 53.3161 141.437 53.3047Z" fill="#135E8A"/>
<path opacity="0.5" d="M141.548 1.40944C141.356 1.3348 141.201 1.19993 141.113 1.03047C141.026 0.861017 141.011 0.668796 141.072 0.490362C141.082 0.463134 141.088 0.434985 141.091 0.40647C141.105 0.321869 141.086 0.235532 141.037 0.161936C140.988 0.0883386 140.912 0.031955 140.822 0.00223728C140.732 -0.0274805 140.633 -0.0287255 140.542 -0.00128935C140.45 0.0261468 140.373 0.0805963 140.321 0.152931C140.302 0.17605 140.286 0.201074 140.273 0.227501C140.189 0.398406 140.038 0.536098 139.848 0.614449C139.658 0.692801 139.442 0.706359 139.241 0.652552C139.21 0.643759 139.179 0.638129 139.147 0.635773C139.051 0.623246 138.954 0.640184 138.871 0.683747C138.789 0.72731 138.725 0.79485 138.692 0.875044C138.658 0.955239 138.657 1.04321 138.688 1.12421C138.719 1.20522 138.78 1.27433 138.861 1.31996C138.887 1.33708 138.915 1.35147 138.945 1.36283C139.138 1.43747 139.292 1.57234 139.38 1.7418C139.468 1.91126 139.483 2.10348 139.421 2.28191C139.411 2.30914 139.405 2.33729 139.402 2.3658C139.388 2.4504 139.407 2.53674 139.456 2.61034C139.505 2.68393 139.581 2.74032 139.672 2.77004C139.762 2.79975 139.861 2.801 139.952 2.77356C140.043 2.74613 140.121 2.69168 140.172 2.61934C140.192 2.59622 140.208 2.5712 140.221 2.54477C140.302 2.37339 140.452 2.23453 140.641 2.15448C140.83 2.07443 141.045 2.05875 141.246 2.1104C141.277 2.11919 141.309 2.12482 141.341 2.12718C141.436 2.13971 141.533 2.12277 141.616 2.07921C141.699 2.03564 141.762 1.9681 141.796 1.88791C141.829 1.80771 141.83 1.71974 141.8 1.63874C141.769 1.55773 141.707 1.48862 141.626 1.443C141.602 1.42947 141.576 1.41822 141.548 1.40944Z" fill="#135E8A"/>
<path opacity="0.5" d="M176.824 86.6134C176.632 86.5388 176.477 86.4039 176.389 86.2344C176.301 86.065 176.287 85.8728 176.348 85.6943C176.358 85.6671 176.364 85.639 176.367 85.6104C176.381 85.5258 176.362 85.4395 176.313 85.3659C176.264 85.2923 176.188 85.2359 176.097 85.2062C176.007 85.1765 175.908 85.1753 175.817 85.2027C175.726 85.2301 175.648 85.2846 175.597 85.3569C175.578 85.38 175.561 85.4051 175.549 85.4315C175.465 85.6025 175.313 85.74 175.122 85.8181C174.931 85.8961 174.715 85.9091 174.514 85.8547C174.484 85.8459 174.452 85.8402 174.42 85.8379C174.325 85.8254 174.228 85.8423 174.145 85.8859C174.062 85.9294 173.999 85.997 173.965 86.0772C173.932 86.1573 173.93 86.2453 173.961 86.3263C173.992 86.4073 174.053 86.4764 174.135 86.5221C174.161 86.5392 174.189 86.5536 174.219 86.5649C174.413 86.6401 174.569 86.7766 174.657 86.9481C174.744 87.1196 174.757 87.3139 174.693 87.4933C174.683 87.5206 174.676 87.5487 174.674 87.5772C174.66 87.6618 174.679 87.7482 174.728 87.8217C174.777 87.8953 174.853 87.9517 174.943 87.9814C175.033 88.0112 175.132 88.0124 175.223 87.985C175.315 87.9575 175.392 87.9031 175.444 87.8308C175.463 87.8076 175.479 87.7826 175.492 87.7562C175.576 87.5852 175.728 87.4476 175.918 87.3696C176.109 87.2916 176.325 87.2786 176.526 87.333C176.557 87.3418 176.588 87.3474 176.62 87.3498C176.716 87.3623 176.813 87.3454 176.896 87.3018C176.978 87.2582 177.042 87.1907 177.075 87.1105C177.109 87.0303 177.11 86.9423 177.079 86.8613C177.048 86.7803 176.987 86.7112 176.906 86.6656C176.881 86.6453 176.853 86.6278 176.824 86.6134Z" fill="#135E8A"/>
<path opacity="0.5" d="M12.9576 32.2107C13.7292 32.2107 14.3547 31.6548 14.3547 30.9691C14.3547 30.2834 13.7292 29.7275 12.9576 29.7275C12.186 29.7275 11.5605 30.2834 11.5605 30.9691C11.5605 31.6548 12.186 32.2107 12.9576 32.2107Z" fill="#FA5652"/>
<path opacity="0.5" d="M2.71447 121.38C3.48606 121.38 4.11156 120.824 4.11156 120.138C4.11156 119.453 3.48606 118.897 2.71447 118.897C1.94288 118.897 1.31738 119.453 1.31738 120.138C1.31738 120.824 1.94288 121.38 2.71447 121.38Z" fill="#FA5652"/>
<path opacity="0.5" d="M92.2286 9.75748C93.0002 9.75748 93.6257 9.2016 93.6257 8.51589C93.6257 7.83017 93.0002 7.27429 92.2286 7.27429C91.457 7.27429 90.8315 7.83017 90.8315 8.51589C90.8315 9.2016 91.457 9.75748 92.2286 9.75748Z" fill="#FA5652"/>
<path opacity="0.5" d="M106.284 33.4336C107.055 33.4336 107.681 32.8777 107.681 32.192C107.681 31.5063 107.055 30.9504 106.284 30.9504C105.512 30.9504 104.887 31.5063 104.887 32.192C104.887 32.8777 105.512 33.4336 106.284 33.4336Z" fill="#FA5652"/>
<path opacity="0.5" d="M1.39709 90.4799C2.16868 90.4799 2.79418 89.924 2.79418 89.2383C2.79418 88.5526 2.16868 87.9967 1.39709 87.9967C0.625498 87.9967 0 88.5526 0 89.2383C0 89.924 0.625498 90.4799 1.39709 90.4799Z" fill="#FA5652"/>
<path opacity="0.5" d="M56.1144 30.201C56.886 30.201 57.5115 29.6451 57.5115 28.9594C57.5115 28.2737 56.886 27.7178 56.1144 27.7178C55.3428 27.7178 54.7173 28.2737 54.7173 28.9594C54.7173 29.6451 55.3428 30.201 56.1144 30.201Z" fill="#1DB776"/>
<path opacity="0.5" d="M152.212 112.678C152.983 112.678 153.609 112.122 153.609 111.436C153.609 110.75 152.983 110.194 152.212 110.194C151.44 110.194 150.814 110.75 150.814 111.436C150.814 112.122 151.44 112.678 152.212 112.678Z" fill="#FA5652"/>
<g opacity="0.5">
<path opacity="0.5" d="M114.23 39.9082C111.524 37.4958 107.578 36.5357 103.112 37.205C98.9397 37.8314 94.7652 39.8392 91.3648 42.8593C90.3782 43.7414 89.5492 44.7523 88.9062 45.857C88.28 44.7156 87.4576 43.6678 86.4687 42.7511C83.1123 39.6807 78.9861 37.6095 74.8263 36.9179C70.3812 36.1722 66.4186 37.0782 63.6663 39.4495C60.9141 41.8209 59.775 45.3126 60.4673 49.276C61.1134 53.0046 63.3034 56.7331 66.6598 59.8072C73.704 66.265 87.7609 63.7427 88.3566 63.6308L88.5328 63.5991L89.074 63.7091C89.6677 63.8284 103.672 66.5652 110.838 60.2174C114.247 57.1991 116.519 53.4949 117.238 49.7887C118.004 45.8309 116.936 42.3205 114.23 39.9082ZM85.9757 59.9023C82.5795 60.3087 74.113 60.8605 69.9092 57.0071C67.2073 54.5295 65.4389 51.5654 64.9355 48.6646C64.474 46.0173 65.1452 43.7672 66.8108 42.3261C67.4642 41.7684 68.2457 41.3429 69.1016 41.0789C70.5028 40.6371 72.1705 40.5551 73.9935 40.8589C77.2408 41.3977 80.5174 43.0606 83.2235 45.5382C87.4273 49.401 86.5379 56.9046 85.9757 59.9023ZM112.781 49.1027C112.22 51.996 110.395 54.9303 107.645 57.3669C103.366 61.157 94.912 60.4746 91.5263 60.016C91.0207 57.0034 90.2802 49.4886 94.5575 45.6985C97.3077 43.262 100.616 41.6512 103.874 41.1609C105.703 40.8869 107.368 40.9932 108.761 41.4555C109.612 41.7328 110.385 42.1703 111.027 42.7381C112.669 44.209 113.292 46.4685 112.781 49.1064V49.1027Z" fill="url(#paint0_linear)"/>
</g>
<path d="M89.7156 62.8198L88.3773 63.0715C87.8088 63.1777 74.3581 65.5901 67.6097 59.412C64.4044 56.4739 62.3004 52.8964 61.6815 49.345C61.0208 45.5456 62.1011 42.203 64.74 39.9342C67.379 37.6654 71.1675 36.806 75.4196 37.5107C79.4053 38.1725 83.3574 40.1542 86.5606 43.0922C93.2985 49.2723 90.1645 61.1438 90.0261 61.6453L89.7156 62.8198ZM69.9529 41.4946C69.1339 41.7471 68.3861 42.1541 67.7608 42.6877C66.1623 44.0635 65.5246 46.2167 65.9651 48.7503C66.4476 51.5261 68.1384 54.3617 70.7249 56.733C74.7462 60.4205 82.8476 59.9022 86.097 59.5033C86.6361 56.6305 87.4836 49.4494 83.4623 45.7619C80.8758 43.3905 77.7397 41.8003 74.6329 41.2876C72.8918 40.9931 71.2954 41.0733 69.9529 41.4946Z" fill="#1DB776"/>
<path d="M87.7315 62.8721L87.4273 61.6864C87.2994 61.1812 84.3961 49.263 91.2536 43.1893C94.5135 40.2997 98.5096 38.3795 102.502 37.7829C106.766 37.1416 110.542 38.0607 113.133 40.3687C115.724 42.6766 116.743 46.036 116.009 49.8242C115.321 53.3663 113.146 56.9083 109.886 59.8035C103.032 65.868 89.632 63.258 89.0636 63.1424L87.7315 62.8721ZM107.905 41.8526C106.571 41.4089 104.969 41.3064 103.23 41.5692C100.112 42.0372 96.9363 43.5789 94.3142 45.9111C90.2215 49.5371 90.9284 56.7238 91.413 59.6115C94.654 60.0496 102.741 60.704 106.838 57.0761C109.47 54.7439 111.216 51.9364 111.753 49.168C112.243 46.6419 111.648 44.4793 110.074 43.0793C109.459 42.5359 108.718 42.1174 107.903 41.8526H107.905Z" fill="#1DB776"/>
<g opacity="0.5">
<path opacity="0.5" d="M153.317 59.6954H22.9092V82.8849H29.6848V150H146.541V82.8849H153.317V59.6954Z" fill="url(#paint1_linear)"/>
</g>
<path d="M145.062 66.7068H31.1641V148.859H145.062V66.7068Z" fill="#F5F5F5"/>
<path d="M98.8431 81.3767H77.3833V148.859H98.8431V81.3767Z" fill="#1DB776"/>
<path opacity="0.1" d="M145.062 62.3054H31.1641V82.844H145.062V62.3054Z" fill="#4B4F51"/>
<path d="M151.664 60.8381H24.5601V81.3766H151.664V60.8381Z" fill="#F5F5F5"/>
<path d="M98.8431 60.8381H77.3833V81.3766H98.8431V60.8381Z" fill="#1DB776"/>
<path d="M164.187 62.6838C163.784 61.6491 159.379 64.5629 159.379 64.5629L158.364 64.5089L156.411 62.9019L157.774 61.6901L146.323 52.9673C146.017 52.7344 145.66 52.5609 145.275 52.4579C144.889 52.3548 144.484 52.3245 144.085 52.3688L134.567 53.4259C134.527 52.9412 134.19 52.3651 133.715 51.7779C132.74 50.3554 130.684 48.7466 129.923 48.1742L128.763 41.2187L129.749 39.9044C129.566 39.8601 129.387 39.8065 129.212 39.7441L129.421 39.4663L129.344 39.4477L129.442 39.347H129.43L131.899 36.8153C132.081 36.6276 132.174 36.3845 132.159 36.137C132.144 35.8895 132.021 35.6569 131.817 35.488L126.319 31.7818C126.486 31.4281 126.566 31.0467 126.554 30.6633C126.596 29.9176 126.227 29.1719 124.981 28.6238C124.21 28.2976 123.403 28.0445 122.572 27.8688C121.204 27.5556 119.766 27.5742 118.408 27.9228L118.337 27.8483C116.644 26.1294 114.427 28.594 114.341 28.6965L105.669 37.2721C105.432 37.6043 105.345 38.0035 105.424 38.3903C105.503 38.7771 105.743 39.1233 106.097 39.36L110.687 42.4193L110.672 42.4454L110.932 42.6188C110.735 42.9618 110.473 43.1911 110.122 43.2246L110.825 43.5378C110.714 43.6065 110.586 43.6494 110.452 43.6628L113.67 45.0926C113.67 46.584 113.842 53.383 116.562 56.7237C116.841 57.1324 117.173 57.5109 117.55 57.8516C117.55 57.8516 117.781 57.7398 118.205 57.5589L118.691 58.4221C119.225 59.3713 120.082 60.1472 121.139 60.6398C122.197 61.1323 123.402 61.3165 124.584 61.1663L139.688 59.2479L139.528 59.6749L139.614 59.6637L134.718 72.7135L135.528 72.954L135.513 72.9801L135.626 73.0229L134.609 74.7325L131.404 76.923C131.404 76.923 140.772 81.097 141.758 80.439C142.744 79.7809 138.305 76.9323 138.305 76.9323L138.058 76.0561L139.136 74.0334L140.04 74.3018L147.3 61.3937L147.548 60.9556L152.457 66.416L153.841 65.1856L153.99 65.3198L154.003 65.3086L155.922 67.0349L157.313 70.4092C157.313 70.4092 164.596 63.7166 164.187 62.6838ZM126.076 37.589L125.979 37.4902C125.207 38.3016 124.264 38.9715 123.204 39.4626V38.7448L123.258 38.702V38.3906C123.988 37.7935 124.517 37.0271 124.783 36.1776C125.05 35.3282 125.044 34.4294 124.767 33.5827L127.953 35.762L126.076 37.589ZM115.249 29.4981L115.172 29.4291L115.249 29.4963V29.4981ZM112.7 34.0618C112.679 34.288 112.671 34.5167 112.675 34.7479C112.67 35.0825 112.691 35.417 112.738 35.749C112.902 36.9085 113.367 37.8556 114.332 38.3067C115.172 38.6982 115.723 38.6796 116.076 38.4093L116.113 38.4391C116.143 38.8931 116.275 39.3371 116.504 39.7441C114.706 39.4107 112.989 38.7965 111.433 37.9302C111.433 37.9302 111.433 37.9879 111.446 38.0923L110.126 36.9197L112.7 34.0618Z" fill="url(#paint2_linear)"/>
<path d="M136.77 70.5248L134.613 74.1433L137.965 75.4203L140.122 71.3767L136.77 70.5248Z" fill="#FFB9B9"/>
<path d="M137.966 75.4204L138.205 76.2724C138.205 76.2724 142.516 79.0389 141.561 79.6784C140.607 80.3178 131.492 76.2724 131.492 76.2724L134.605 74.1434L137.966 75.4204Z" fill="#4B4F51"/>
<path opacity="0.1" d="M139.891 71.7515L136.501 70.7467L135.492 72.4395L138.844 73.7183L139.891 71.7515Z" fill="#4B4F51"/>
<path d="M152.085 63.7464L155.322 66.6584L157.699 64.1994L154.005 61.1588L152.085 63.7464Z" fill="#FFB9B9"/>
<path opacity="0.1" d="M154.137 61.3004L152.218 63.888L153.445 64.9935L155.935 62.7806L154.137 61.3004Z" fill="#4B4F51"/>
<path d="M157.701 64.1993L158.687 64.2515C158.687 64.2515 162.95 61.4272 163.348 62.4302C163.747 63.4331 156.678 69.9375 156.678 69.9375L155.327 66.6602L157.701 64.1993Z" fill="#4B4F51"/>
<path d="M127.003 42.4193L131.979 37.3038C132.155 37.1214 132.245 36.8855 132.23 36.6454C132.215 36.4054 132.097 36.1797 131.899 36.0156L121.073 28.7189L119.755 30.5421L128.146 36.2822L124.58 39.7534L127.003 42.4193Z" fill="#FFB9B9"/>
<path opacity="0.1" d="M126.433 37.9619L124.691 39.6584L127.11 42.3261L129.604 39.7684C128.387 39.4242 127.293 38.8012 126.433 37.9619Z" fill="#4B4F51"/>
<path d="M112.554 43.5305L106.921 39.7684C106.578 39.539 106.344 39.2033 106.267 38.8279C106.189 38.4525 106.273 38.0649 106.502 37.7419L114.93 29.4069L116.655 30.9393L110.833 37.3971L114.278 40.4675L112.554 43.5305Z" fill="#FFB9B9"/>
<path opacity="0.1" d="M111.366 42.7754L112.287 43.3906L114.011 40.3276L111.847 38.4037C111.893 39.0562 112.023 41.5878 111.366 42.7754Z" fill="#4B4F51"/>
<path d="M139.892 58.3979L134.721 72.1822L139.892 73.7146L148.509 58.3979L141.616 56.8673L139.892 58.3979Z" fill="#135E8A"/>
<path opacity="0.1" d="M139.652 58.8229L139.394 59.5127L144.823 58.8229L146.944 61.1793L148.27 58.8229L141.374 57.2924L139.652 58.8229Z" fill="#4B4F51"/>
<path d="M114.922 29.4236C114.922 29.4236 117.131 26.8938 118.807 28.5958C120.483 30.2979 116.166 30.5104 116.166 30.5104L114.922 29.4236Z" fill="#FFB9B9"/>
<path d="M117.485 55.3349L119.151 58.2972C119.67 59.2187 120.501 59.9718 121.529 60.4499C122.556 60.928 123.726 61.1069 124.874 60.9612L145.06 58.3979L151.955 66.0544L157.126 61.459L146.008 52.9859C145.712 52.7598 145.365 52.5912 144.991 52.491C144.616 52.3908 144.223 52.3613 143.835 52.4043L117.485 55.3349Z" fill="#135E8A"/>
<path opacity="0.1" d="M112.42 38.812C112.42 38.812 112.873 43.7858 111.15 43.9573L114.597 45.4897C114.597 45.4897 114.406 54.509 118.044 57.7435C118.044 57.7435 124.756 54.5109 131.832 54.6805C138.908 54.8502 130.108 48.5546 130.108 48.5546L128.943 41.5823L129.902 40.3052C128.602 39.9601 127.439 39.2958 126.546 38.3888C125.587 39.4533 123.399 40.8962 121.486 40.8962H120.662C117.823 40.8962 114.805 40.3873 112.413 39.032L112.42 38.812Z" fill="#4B4F51"/>
<path d="M112.101 38.387C112.101 38.387 112.554 43.3608 110.832 43.5323L114.278 45.0629C114.278 45.0629 114.087 54.0821 117.725 57.3166C117.725 57.3166 124.437 54.084 131.513 54.2537C138.589 54.4233 129.789 48.1277 129.789 48.1277L128.625 41.1554L129.583 39.8784C128.284 39.5332 127.12 38.8689 126.227 37.9619C125.268 39.0264 123.08 40.4693 121.167 40.4693H120.343C117.429 40.4699 114.573 39.7488 112.094 38.387H112.101Z" fill="#F5C108"/>
<path d="M116.64 36.9851V38.6946C116.64 39.5608 117.027 40.3916 117.716 41.0044L121.809 44.6416L123.172 42.218C123.41 41.7961 123.533 41.3308 123.533 40.859V36.9813L116.64 36.9851Z" fill="#FFB9B9"/>
<path opacity="0.1" d="M116.692 38.9537C116.692 39.017 116.692 39.0786 116.692 39.1401C117.64 39.8921 118.866 40.3078 120.136 40.3078C121.406 40.3078 122.632 39.8921 123.579 39.1401V37.2441H116.692V38.9537Z" fill="#4B4F51"/>
<path d="M120.087 40.048C122.943 40.048 125.258 37.9905 125.258 35.4526C125.258 32.9146 122.943 30.8572 120.087 30.8572C117.231 30.8572 114.916 32.9146 114.916 35.4526C114.916 37.9905 117.231 40.048 120.087 40.048Z" fill="#FFB9B9"/>
<path opacity="0.1" d="M116.64 34.1569H125.257C125.257 34.1569 128.704 31.0939 125.257 29.5615C124.509 29.2443 123.725 28.9981 122.918 28.827C117.674 27.645 112.694 31.4984 113.367 36.2672C113.527 37.3858 113.982 38.3179 114.916 38.7504C118.555 40.4543 116.64 34.1569 116.64 34.1569Z" fill="#4B4F51"/>
<path d="M116.64 33.9443H125.257C125.257 33.9443 128.704 30.8814 125.257 29.349C124.509 29.0317 123.725 28.7855 122.918 28.6144C117.674 27.4325 112.694 31.2859 113.367 36.0547C113.527 37.1732 113.982 38.1054 114.916 38.5379C118.555 40.2418 116.64 33.9443 116.64 33.9443Z" fill="#4B4F51"/>
<path d="M116.892 36.258C117.156 36.258 117.37 35.9241 117.37 35.5123C117.37 35.1005 117.156 34.7666 116.892 34.7666C116.628 34.7666 116.414 35.1005 116.414 35.5123C116.414 35.9241 116.628 36.258 116.892 36.258Z" fill="#FFB9B9"/>
<path opacity="0.1" d="M114.257 44.9845L114.496 44.3451L115.214 44.772L114.257 44.9845Z" fill="#4B4F51"/>
<path opacity="0.1" d="M129.801 48.1295C129.801 48.1295 127.194 49.2481 126.474 50.3051L129.801 48.1295Z" fill="#4B4F51"/>
<path opacity="0.1" d="M128.627 41.1534L128.388 41.791L127.907 41.1534H128.627Z" fill="#4B4F51"/>
<path d="M116.64 33.9443H125.257C125.257 33.9443 128.704 30.8814 125.257 29.349C124.509 29.0317 123.725 28.7855 122.918 28.6144C117.674 27.4325 112.694 31.2859 113.367 36.0547C113.527 37.1732 113.982 38.1054 114.916 38.5379C118.555 40.2418 116.64 33.9443 116.64 33.9443Z" fill="#4B4F51"/>
</g>
<defs>
<linearGradient id="paint0_linear" x1="88.8748" y1="64.397" x2="88.8748" y2="36.6644" gradientUnits="userSpaceOnUse">
<stop stop-color="#808080" stop-opacity="0.25"/>
<stop offset="0.54" stop-color="#808080" stop-opacity="0.12"/>
<stop offset="1" stop-color="#808080" stop-opacity="0.1"/>
</linearGradient>
<linearGradient id="paint1_linear" x1="54799.3" y1="72719.7" x2="54799.3" y2="28976.1" gradientUnits="userSpaceOnUse">
<stop stop-color="#808080" stop-opacity="0.25"/>
<stop offset="0.54" stop-color="#808080" stop-opacity="0.12"/>
<stop offset="1" stop-color="#808080" stop-opacity="0.1"/>
</linearGradient>
<linearGradient id="paint2_linear" x1="47847.7" y1="25145.5" x2="47847.7" y2="9925.06" gradientUnits="userSpaceOnUse">
<stop stop-color="#808080" stop-opacity="0.25"/>
<stop offset="0.54" stop-color="#808080" stop-opacity="0.12"/>
<stop offset="1" stop-color="#808080" stop-opacity="0.1"/>
</linearGradient>
<clipPath id="clip0">
<rect width="180" height="150" fill="white"/>
</clipPath>
</defs>
</svg>
