<svg width="200" height="150" viewBox="0 0 200 150" fill="none" xmlns="http://www.w3.org/2000/svg">
<g clip-path="url(#clip0)">
<path opacity="0.1" d="M117.293 25.3491C104.638 24.9341 92.5832 21.0806 81.074 16.8637C69.5649 12.6468 58.1653 7.97433 45.8134 5.74045C37.8689 4.30347 28.7824 4.10055 22.3826 8.11821C16.2213 11.992 14.2308 18.6604 13.1612 24.8548C12.3556 29.5144 11.8824 34.4175 14.09 38.7801C15.621 41.809 18.3409 44.3546 20.22 47.2655C26.7645 57.3595 22.1401 69.8072 15.0481 79.6632C11.724 84.2877 7.86222 88.702 5.29682 93.6198C2.73141 98.5377 1.54257 104.18 3.7873 109.202C6.01443 114.182 11.3193 117.916 17.0641 120.544C28.7355 125.885 42.4835 127.412 55.899 128.277C85.587 130.194 115.431 129.364 145.197 128.534C156.214 128.226 167.277 127.914 178.114 126.307C184.132 125.414 190.344 123.999 194.714 120.579C200.26 116.239 201.634 108.888 197.919 103.446C191.684 94.3171 174.455 92.05 170.091 82.2512C167.694 76.8593 170.157 70.8531 173.642 65.8504C181.119 55.1219 193.651 45.7086 194.312 33.4453C194.765 25.0208 188.739 16.587 179.424 12.6007C169.661 8.40783 156.118 8.93909 148.918 15.8547C141.5 22.9806 128.466 25.7144 117.293 25.3491Z" fill="#1DB776"/>
<path d="M85.1454 127.373L18.218 127.065L11.5679 112.35L35.0828 110.74L30.9844 94.6067L77.4941 88.9196L32.9573 74.3136L36.8915 73.4319L108.506 84.4537L104.562 109.631L98.9247 123.468L85.1454 127.373Z" fill="#1DB776"/>
<path d="M19.2446 120.902C19.2446 120.902 23.3508 120.282 25.8146 123.02C25.8146 123.02 24.0078 124.363 20.1206 122.503L19.2446 120.902Z" fill="#00BFA6"/>
<path d="M18.8139 120.842C18.8139 120.842 16.1938 123.883 17.4843 127.27C17.4843 127.27 19.6195 126.464 19.8522 122.358L18.8139 120.842Z" fill="#00BFA6"/>
<path d="M16.46 115.841C16.46 115.841 18.1024 112.998 24.6724 116.977C24.6724 116.977 23.7964 118.888 20.8947 118.733C17.9929 118.578 17.2265 117.339 16.46 115.841Z" fill="#1DB776"/>
<path d="M16.0355 115.636C16.0355 115.636 12.6273 115.267 12.2969 122.627C12.2969 122.627 14.4575 123.05 15.9925 120.722C17.5274 118.394 16.8978 117.088 16.0355 115.636Z" fill="#1DB776"/>
<path d="M14.0513 109.764C14.0513 109.764 15.9675 104.754 22.9207 108.318C22.9207 108.318 21.333 112.915 14.763 111.469L14.0513 109.764Z" fill="#1DB776"/>
<path d="M11.916 102.275C11.916 102.275 15.5295 97.2135 21.9352 101.906C21.9352 101.906 19.6904 106.658 12.4635 104.076L11.916 102.275Z" fill="#1DB776"/>
<path d="M11.1494 95.1474C11.1494 95.1474 15.3651 90.497 21.7083 95.1474C21.7083 95.1474 17.7115 99.2278 11.1494 96.3354V95.1474Z" fill="#1DB776"/>
<path d="M10.4922 88.2245C10.4922 88.2245 14.7627 83.3694 20.8398 87.9662C20.8398 87.9662 16.0219 92.2532 10.4922 89.3608V88.2245Z" fill="#1DB776"/>
<path d="M10.8755 82.0779C10.8755 82.0779 15.3728 75.8282 21.0589 80.0635C21.0589 80.0635 16.2409 85.4352 10.8755 83.2659V82.0779Z" fill="#1DB776"/>
<path d="M11.916 74.8983C11.916 74.8983 16.6792 68.7003 22.2089 73.4521C22.2089 73.4521 16.5697 78.8237 11.916 76.0346V74.8983Z" fill="#1DB776"/>
<path d="M13.5037 68.4809C13.5037 68.4809 19.1429 62.6555 24.0625 64.9761C24.0625 64.9761 18.1867 71.1631 13.2573 70.0267L13.5037 68.4809Z" fill="#1DB776"/>
<path d="M15.4746 62.3972C15.4746 62.3972 21.982 55.2621 25.7676 57.6454C25.7676 57.6454 20.9731 63.1794 15.0132 63.7328L15.4746 62.3972Z" fill="#1DB776"/>
<path d="M18.3197 55.3414C18.3197 55.3414 24.0156 49.516 28.1766 50.9622C28.1766 50.9622 23.3039 57.0053 17.5552 57.1602L18.3197 55.3414Z" fill="#1DB776"/>
<path d="M20.8948 48.7415C20.8948 48.7415 27.191 43.1633 29.9285 44.1446C29.9285 44.1446 25.3843 50.3426 20.6211 49.9811L20.8948 48.7415Z" fill="#1DB776"/>
<path d="M23.4131 42.6465C23.4131 42.6465 28.8333 35.9818 31.7917 36.4983C31.7917 36.4983 28.5048 42.4399 23.4131 43.3235V42.6465Z" fill="#1DB776"/>
<path d="M26.1467 34.4286C26.1467 34.4286 30.9373 29.3207 33.5262 29.3318C33.5262 29.3318 29.7445 36.157 25.9492 36.0943L26.1467 34.4286Z" fill="#1DB776"/>
<path d="M27.7658 28.9574L32.3941 18.3174C32.3941 18.3174 32.6248 27.9354 27.1772 30.9311L27.7658 28.9574Z" fill="#1DB776"/>
<path d="M29.6446 17.2236C29.6446 17.2236 30.4111 8.33785 29.9183 7.61475C29.9183 7.61475 33.2267 15.0026 29.6133 21.149L29.6446 17.2236Z" fill="#1DB776"/>
<path d="M13.8713 109.646C13.8713 109.646 9.07286 106.841 5.96582 113.705C5.96582 113.705 10.2363 116.379 14.4364 111.397L13.8713 109.646Z" fill="#1DB776"/>
<path d="M11.7614 101.989C11.7614 101.989 5.87579 99.4566 3.021 106.623C3.021 106.623 7.56716 109.574 12.2971 103.801L11.7614 101.989Z" fill="#1DB776"/>
<path d="M10.8757 95.5735C10.8757 95.5735 6.66002 90.923 0.316895 95.5735C0.316895 95.5735 4.31361 99.6539 10.8757 96.7614V95.5735Z" fill="#1DB776"/>
<path d="M10.3477 88.2245C10.3477 88.2245 6.0772 83.3694 0 87.9662C0 87.9662 4.81796 92.2532 10.3477 89.3608V88.2245Z" fill="#1DB776"/>
<path d="M10.8755 82.2549C10.8755 82.2549 7.87993 75.2545 1.36865 78.2649C1.36865 78.2649 4.88826 84.4722 10.6096 83.4171L10.8755 82.2549Z" fill="#1DB776"/>
<path d="M12.2931 74.8633C12.2931 74.8633 9.3151 67.7411 2.71191 71.043C2.71191 71.043 6.75556 77.5713 11.9998 75.9627L12.2931 74.8633Z" fill="#1DB776"/>
<path d="M14.1389 68.5161C14.1389 68.5161 12.9657 60.7077 7.49072 60.0085C7.49072 60.0085 8.65219 68.2431 13.4017 69.9236L14.1389 68.5161Z" fill="#1DB776"/>
<path d="M15.6136 62.4121C15.6136 62.4121 15.156 53.0044 10.6294 52.676C10.6294 52.676 10.7819 59.8167 15.1032 63.744L15.6136 62.4121Z" fill="#1DB776"/>
<path d="M18.7891 55.0778C18.7891 55.0778 17.44 47.2546 13.1187 46.2991C13.1187 46.2991 13.6544 53.8751 18.3609 56.998L18.7891 55.0778Z" fill="#1DB776"/>
<path d="M21.4073 48.8059C21.4073 48.8059 21.3623 40.6562 18.7226 39.459C18.7226 39.459 17.0859 46.8376 20.6427 49.8463L21.4073 48.8059Z" fill="#1DB776"/>
<path d="M23.6145 42.5542C23.6145 42.5542 23.2449 34.1629 20.5113 32.9805C20.5113 32.9805 19.5767 39.6212 23.2058 43.1039L23.6145 42.5542Z" fill="#1DB776"/>
<path d="M26.5283 35.0983C26.5283 35.0983 26.5127 28.273 24.5612 26.6719C24.5612 26.6719 22.6215 34.1483 25.5096 36.4707L26.5283 35.0983Z" fill="#1DB776"/>
<path d="M27.5367 28.6216L25.638 17.2622C25.638 17.2622 23.059 26.5703 27.6266 30.6729L27.5367 28.6216Z" fill="#1DB776"/>
<path d="M27.9068 17.3306C27.9068 17.3306 23.0341 9.69376 23.1338 8.84521C23.1338 8.84521 23.652 16.8492 29.782 20.8355L27.9068 17.3306Z" fill="#1DB776"/>
<path d="M28.4778 15.0745C28.4778 15.0745 23.8788 4.22791 21.7983 3.34985C21.7983 3.34985 28.3683 6.50052 28.861 14.7646L28.4778 15.0745Z" fill="#1DB776"/>
<path d="M25.9256 36.1589L25.6108 36.0685C29.4922 24.128 30.4601 16.5151 28.3385 14.6059L28.5634 14.3809C30.814 16.3952 29.9009 23.9251 25.9256 36.1589Z" fill="#4B4F51"/>
<path d="M15.2383 64.1165L14.7729 63.9597C15.1855 62.8658 15.6294 61.7553 16.0948 60.6615C20.1462 51.1357 23.5954 42.2739 25.8069 35.4708L26.2117 35.2864C23.9963 42.1024 20.6077 51.3035 16.5523 60.8422C16.0889 61.9158 15.647 63.0208 15.2383 64.1165Z" fill="#4B4F51"/>
<path d="M25.03 129.838C24.9674 129.773 18.6771 123.09 14.2913 111.681C11.7214 105.001 10.2913 97.9794 10.0541 90.8769C9.75294 81.9986 11.7278 72.0854 15.1106 63.0798L15.4782 63.4857C7.88364 83.6975 10.9007 101.017 14.9033 111.447C19.2422 122.753 25.4621 129.362 25.5227 129.428L25.03 129.838Z" fill="#4B4F51"/>
<path d="M123.329 115.649C123.329 115.649 118.896 120.753 122.416 128.469L87.0242 142.95L83.6278 143.621L82.0635 137.165L83.1096 129.017V124.564L123.329 115.649Z" fill="#D5D6DB"/>
<path d="M11.5679 112.351L60.553 103.926L125.461 113.681L85.1454 127.373L11.5679 112.351Z" fill="#1DB776"/>
<path d="M11.5679 112.351L60.553 103.926L125.461 113.681L85.1454 127.373L11.5679 112.351Z" fill="#1DB776"/>
<path d="M11.5677 112.349C11.5677 112.349 6.98635 120.537 12.2658 128.1L84.9067 142.95C84.9067 142.95 80.3976 136.427 85.1393 127.373L11.5677 112.349Z" fill="#1DB776"/>
<path opacity="0.1" d="M11.5677 112.349C11.5677 112.349 6.98635 120.537 12.2658 128.1L84.9067 142.95C84.9067 142.95 80.3976 136.427 85.1393 127.373L11.5677 112.349Z" fill="black"/>
<path opacity="0.1" d="M13.7325 115.188C13.7325 115.188 11.1143 121.179 13.7325 125.057V115.188Z" fill="black"/>
<path d="M84.9065 142.95L125.46 126.625C125.46 126.625 127.728 127.086 126.262 128.654C124.795 130.222 85.6886 144.518 85.6886 144.518L12.2656 128.1L84.9065 142.95Z" fill="#1DB776"/>
<path opacity="0.1" d="M84.9065 142.95L125.46 126.625C125.46 126.625 127.728 127.086 126.262 128.654C124.795 130.222 85.6886 144.518 85.6886 144.518L12.2656 128.1L84.9065 142.95Z" fill="black"/>
<path opacity="0.1" d="M81.5823 129.023C81.5823 129.023 77.6716 133.45 81.5823 140.091V129.023Z" fill="black"/>
<path opacity="0.1" d="M100.516 128.948L82.9746 134.469L83.0365 134.643L100.578 129.123L100.516 128.948Z" fill="black"/>
<path opacity="0.1" d="M104.029 128.398L82.9688 135.953L83.0382 136.126L104.098 128.571L104.029 128.398Z" fill="black"/>
<path opacity="0.1" d="M107.256 128.372L83.0864 137.705L83.1605 137.875L107.33 128.542L107.256 128.372Z" fill="black"/>
<path opacity="0.1" d="M110.765 127.573L83.3687 139.248L83.4491 139.416L110.845 127.741L110.765 127.573Z" fill="black"/>
<path opacity="0.1" d="M113.712 127.576L83.5854 139.999L83.6638 140.168L113.791 127.745L113.712 127.576Z" fill="black"/>
<path opacity="0.1" d="M120.16 126.543L84.04 141.261L84.1176 141.43L120.238 126.713L120.16 126.543Z" fill="black"/>
<path opacity="0.3" d="M29.7661 113.251L64.1801 106.426L85.1453 110.207L56.9453 118.785L29.7661 113.251Z" fill="white"/>
<path d="M125.461 113.681C125.461 113.681 127.24 114.358 126.196 115.404C125.152 116.449 85.1396 127.374 85.1396 127.374L125.461 113.681Z" fill="#1DB776"/>
<path d="M142.744 97.907C142.744 97.907 138.313 103.009 141.832 110.727L106.441 125.208L103.044 125.883L101.48 119.427L102.542 111.281V106.822L142.744 97.907Z" fill="#D5D6DB"/>
<path d="M30.9844 94.6068L79.9676 86.1841L144.877 95.9386L104.562 109.632L30.9844 94.6068Z" fill="#4B4F51"/>
<path d="M30.9768 94.6067C30.9768 94.6067 26.3935 102.795 31.6729 110.358L104.314 125.208C104.314 125.208 99.8067 118.679 104.554 109.63L30.9768 94.6067Z" fill="#4B4F51"/>
<path opacity="0.1" d="M30.9768 94.6067C30.9768 94.6067 26.3935 102.795 31.6729 110.358L104.314 125.208C104.314 125.208 99.8067 118.679 104.554 109.63L81.5829 104.939L30.9768 94.6067Z" fill="black"/>
<path opacity="0.1" d="M33.1471 97.4458C33.1471 97.4458 30.5309 103.435 33.1471 107.315V97.4458Z" fill="black"/>
<path d="M104.321 125.208L144.877 108.883C144.877 108.883 147.143 109.344 145.676 110.912C144.21 112.48 105.103 126.776 105.103 126.776L31.6802 110.358L104.321 125.208Z" fill="#4B4F51"/>
<path opacity="0.1" d="M104.321 125.208L144.877 108.883C144.877 108.883 147.143 109.344 145.676 110.912C144.21 112.48 105.103 126.776 105.103 126.776L31.6802 110.358L104.321 125.208Z" fill="black"/>
<path opacity="0.1" d="M100.997 111.281C100.997 111.281 97.0867 115.708 100.997 122.349V111.281Z" fill="black"/>
<path opacity="0.1" d="M119.932 111.208L102.391 116.729L102.453 116.904L119.994 111.383L119.932 111.208Z" fill="black"/>
<path opacity="0.1" d="M123.448 110.658L102.388 118.213L102.457 118.385L123.517 110.83L123.448 110.658Z" fill="black"/>
<path opacity="0.1" d="M126.672 110.628L102.502 119.961L102.577 120.132L126.746 110.799L126.672 110.628Z" fill="black"/>
<path opacity="0.1" d="M130.183 109.83L102.787 121.505L102.867 121.673L130.263 109.998L130.183 109.83Z" fill="black"/>
<path opacity="0.1" d="M133.127 109.831L103 122.254L103.079 122.423L133.206 110L133.127 109.831Z" fill="black"/>
<path opacity="0.1" d="M139.577 108.798L103.457 123.516L103.534 123.685L139.654 108.968L139.577 108.798Z" fill="black"/>
<path opacity="0.45" d="M49.1826 95.5088L83.5966 88.6836L104.562 92.4651L76.3619 101.043L49.1826 95.5088Z" fill="white"/>
<path d="M144.877 95.9387C144.877 95.9387 146.655 96.6157 145.612 97.6598C144.57 98.7039 104.562 109.63 104.562 109.63L144.877 95.9387Z" fill="#3A3768"/>
<path d="M144.582 77.6101C144.582 77.6101 140.149 86.7725 143.669 94.4887L108.277 104.911L104.888 105.588L103.324 99.1317L104.37 90.9839V86.5253L144.582 77.6101Z" fill="#D5D6DB"/>
<path d="M32.8281 74.312L81.8133 65.8875L146.723 75.642L106.406 89.3349L32.8281 74.312Z" fill="#1DB776"/>
<path d="M32.8281 74.3101C32.8281 74.3101 28.2389 82.4985 33.5183 90.0616L106.159 104.911C106.159 104.911 101.65 98.3828 106.398 89.3348L32.8281 74.3101Z" fill="#1DB776"/>
<path opacity="0.1" d="M32.8281 74.3101C32.8281 74.3101 28.2389 82.4985 33.5183 90.0616L106.159 104.911C106.159 104.911 101.65 98.3828 106.398 89.3348L32.8281 74.3101Z" fill="black"/>
<path opacity="0.1" d="M34.9927 77.1489C34.9927 77.1489 32.3745 83.1404 34.9927 87.0178V77.1489Z" fill="black"/>
<path d="M106.167 104.911L146.721 92.644C146.721 92.644 148.989 93.1052 147.523 94.6732C146.056 96.2411 106.949 106.479 106.949 106.479L33.5264 90.0615L106.167 104.911Z" fill="#1DB776"/>
<path opacity="0.1" d="M106.167 104.911L146.721 92.644C146.721 92.644 148.989 93.1052 147.523 94.6732C146.056 96.2411 106.949 106.479 106.949 106.479L33.5264 90.0615L106.167 104.911Z" fill="black"/>
<path opacity="0.1" d="M102.843 90.9839C102.843 90.9839 98.9324 95.411 102.843 102.052V90.9839Z" fill="black"/>
<path opacity="0.1" d="M121.778 90.9107L104.237 96.4316L104.299 96.6066L121.84 91.0857L121.778 90.9107Z" fill="black"/>
<path opacity="0.1" d="M125.293 90.3612L104.232 97.9163L104.302 98.0887L125.362 90.5336L125.293 90.3612Z" fill="black"/>
<path opacity="0.1" d="M128.515 90.3332L104.346 99.666L104.42 99.8367L128.589 90.5039L128.515 90.3332Z" fill="black"/>
<path opacity="0.1" d="M132.029 89.5328L104.633 101.208L104.713 101.376L132.109 89.7009L132.029 89.5328Z" fill="black"/>
<path opacity="0.1" d="M134.974 89.5361L104.848 101.959L104.926 102.128L135.053 89.7051L134.974 89.5361Z" fill="black"/>
<path opacity="0.1" d="M141.423 88.5043L105.303 103.222L105.38 103.391L141.501 88.6737L141.423 88.5043Z" fill="black"/>
<path opacity="0.3" d="M51.0264 75.2122L85.4403 68.387L106.405 72.1685L78.2056 80.7462L51.0264 75.2122Z" fill="white"/>
<path d="M146.721 75.6418C146.721 75.6418 148.5 76.3188 147.456 77.3648C146.412 78.4107 106.406 89.3347 106.406 89.3347L146.721 75.6418Z" fill="#1DB776"/>
<path d="M60.6976 19.6456C60.6976 19.6456 53.2673 19.2231 54.1355 24.141C54.1355 24.141 53.9615 25.0098 54.7964 25.4046C54.7964 25.4046 54.8101 25.0356 55.559 25.1629C55.8262 25.2062 56.0981 25.2186 56.3685 25.1998C56.733 25.1763 57.0796 25.0416 57.3559 24.8161C57.3559 24.8161 59.4462 24.0008 60.2596 20.7763C60.2596 20.7763 60.8619 20.0735 60.8462 19.8927L59.587 20.3982C59.587 20.3982 60.0152 21.2522 59.6789 21.9624C59.6789 21.9624 59.6378 20.4295 59.3954 20.4646C59.3465 20.4646 58.7442 20.7616 58.7442 20.7616C58.7442 20.7616 59.4814 22.2502 58.9241 23.3312C58.9241 23.3312 59.1353 21.4976 58.5135 20.8686L57.6297 21.3556C57.6297 21.3556 58.492 22.8921 57.9074 24.1465C57.9074 24.1465 58.0579 22.2225 57.4439 21.4736L56.6422 22.0639C56.6422 22.0639 57.4537 23.5784 56.959 24.6187C56.959 24.6187 56.8945 22.3793 56.4702 22.2096C56.4702 22.2096 55.7682 22.7925 55.6626 23.0323C55.6626 23.0323 56.2179 24.1391 55.8718 24.7128C55.8718 24.7128 55.6626 23.2205 55.4808 23.2131C55.4808 23.2131 54.7827 24.2019 54.7104 24.8733C54.7442 24.2473 54.9511 23.6406 55.3107 23.1135C54.9083 23.1853 54.5372 23.3668 54.243 23.6355C54.243 23.6355 54.3506 22.9364 55.4847 22.8755C55.4847 22.8755 56.0615 22.1248 56.216 22.0805C56.216 22.0805 55.0878 21.9901 54.4053 22.276C54.4053 22.276 55.0076 21.6175 56.4213 21.9071L57.2034 21.2984C57.2034 21.2984 55.7213 21.1139 55.0917 21.3187C55.0917 21.3187 55.8171 20.7357 57.4166 21.16L58.2789 20.6749C58.2789 20.6749 57.0138 20.4185 56.261 20.5107C56.261 20.5107 57.0548 20.1067 58.5311 20.5439L59.1451 20.2838C59.1451 20.2838 58.2202 20.1123 57.9484 20.0846C57.6766 20.0569 57.6629 19.9868 57.6629 19.9868C58.25 19.8959 58.8522 19.9597 59.4032 20.1713C59.4032 20.1713 60.723 19.723 60.6976 19.6456Z" fill="#1DB776"/>
<path opacity="0.1" d="M165.23 39.8594C165.23 39.8594 157.8 39.437 158.668 44.3548C158.668 44.3548 158.494 45.2237 159.329 45.6184C159.329 45.6184 159.343 45.2495 160.092 45.3768C160.359 45.4191 160.631 45.4315 160.901 45.4137C161.262 45.3886 161.605 45.254 161.879 45.03C161.879 45.03 163.971 44.2147 164.783 40.9902C164.783 40.9902 165.385 40.2874 165.369 40.1066L164.114 40.612C164.114 40.612 164.542 41.4661 164.206 42.1763C164.206 42.1763 164.165 40.6434 163.924 40.6784C163.875 40.6784 163.271 40.9754 163.271 40.9754C163.271 40.9754 164.008 42.4641 163.453 43.545C163.453 43.545 163.664 41.7115 163.04 41.0824L162.157 41.5694C162.157 41.5694 163.019 43.106 162.434 44.3604C162.434 44.3604 162.585 42.4364 161.971 41.6875L161.171 42.2778C161.171 42.2778 161.981 43.7922 161.486 44.8326C161.486 44.8326 161.421 42.5932 160.997 42.4235C160.997 42.4235 160.297 43.0064 160.189 43.2462C160.189 43.2462 160.745 44.353 160.401 44.9267C160.401 44.9267 160.189 43.4344 160.01 43.427C160.01 43.427 159.312 44.4157 159.239 45.0872C159.273 44.4609 159.481 43.8541 159.841 43.3274C159.439 43.3994 159.067 43.5808 158.772 43.8494C158.772 43.8494 158.881 43.1503 160.013 43.0894C160.013 43.0894 160.59 42.3386 160.745 42.2925C160.745 42.2925 159.619 42.204 158.934 42.4899C158.934 42.4899 159.536 41.8314 160.95 42.121L161.732 41.5122C161.732 41.5122 160.248 41.3278 159.62 41.5325C159.62 41.5325 160.344 40.9496 161.945 41.3739L162.806 40.8887C162.806 40.8887 161.541 40.6323 160.788 40.7246C160.788 40.7246 161.582 40.3206 163.058 40.7578L163.674 40.4977C163.674 40.4977 162.747 40.3261 162.475 40.2985C162.203 40.2708 162.19 40.2007 162.19 40.2007C162.777 40.1086 163.379 40.1724 163.93 40.3851C163.93 40.3851 165.254 39.9369 165.23 39.8594Z" fill="#1DB776"/>
<path opacity="0.1" d="M73.212 50.0271C73.212 50.0271 69.9739 43.6944 65.8521 46.8156C65.8521 46.8156 64.9624 47.0959 65.0054 47.9758C65.0054 47.9758 65.3476 47.808 65.592 48.4868C65.6833 48.7268 65.8041 48.9559 65.9518 49.1693C66.1519 49.4587 66.4463 49.6789 66.7906 49.7965C66.7906 49.7965 68.5641 51.121 71.9449 50.2171C71.9449 50.2171 72.8894 50.3702 73.0438 50.2632L71.9645 49.4756C71.9645 49.4756 71.3779 50.2448 70.5605 50.313C70.5605 50.313 71.9606 49.5327 71.81 49.352C71.7787 49.3151 71.2234 48.959 71.2234 48.959C71.2234 48.959 70.2047 50.2927 68.9337 50.361C68.9337 50.361 70.7326 49.6416 71.0103 48.8207L70.1304 48.33C70.1304 48.33 69.1273 49.791 67.6823 49.9201C67.6823 49.9201 69.5359 49.1066 69.929 48.2359L68.9943 47.867C68.9943 47.867 67.9873 49.2726 66.7828 49.3741C66.7828 49.3741 68.8242 48.2286 68.7734 47.7951C68.7734 47.7951 67.8915 47.5036 67.6178 47.5313C67.6178 47.5313 66.8708 48.5256 66.1669 48.5256C66.1669 48.5256 67.4437 47.6235 67.3655 47.4778C67.3655 47.4778 66.1102 47.3856 65.4493 47.6623C66.0448 47.383 66.7075 47.2558 67.3714 47.2933C67.108 46.997 66.7587 46.7797 66.3663 46.668C66.3663 46.668 67.0663 46.4171 67.6745 47.3191C67.6745 47.3191 68.6521 47.428 68.7675 47.5331C68.7675 47.5331 68.3002 46.5628 67.7038 46.1404C67.7038 46.1404 68.6072 46.312 69.0197 47.6161L69.9681 47.9703C69.9681 47.9703 69.4225 46.6569 68.92 46.2419C68.92 46.2419 69.8116 46.5536 70.2008 48.0865L71.0689 48.5588C71.0689 48.5588 70.6916 47.3911 70.2379 46.8174C70.2379 46.8174 70.9985 47.2749 71.3133 48.7026L71.855 49.0826C71.855 49.0826 71.5617 48.2359 71.4639 47.9998C71.3661 47.7637 71.415 47.7157 71.415 47.7157C71.787 48.1537 72.0226 48.6806 72.0955 49.2376C72.0955 49.2376 73.1416 50.0825 73.212 50.0271Z" fill="#1DB776"/>
<path opacity="0.1" d="M148.254 30.9126C148.254 30.9126 145.018 24.5799 140.894 27.701C140.894 27.701 140.006 27.9814 140.047 28.8613C140.047 28.8613 140.391 28.6953 140.634 29.3723C140.725 29.6133 140.846 29.843 140.996 30.0567C141.195 30.3455 141.489 30.5651 141.833 30.682C141.833 30.682 143.608 32.0065 146.987 31.1044C146.987 31.1044 147.931 31.2557 148.088 31.1487L147.014 30.3592C147.014 30.3592 146.428 31.1303 145.612 31.1985C145.612 31.1985 147.01 30.4164 146.86 30.2356C146.828 30.1987 146.273 29.8427 146.273 29.8427C146.273 29.8427 145.256 31.1764 143.983 31.2446C143.983 31.2446 145.784 30.5252 146.062 29.7062L145.168 29.2192C145.168 29.2192 144.167 30.6783 142.72 30.8093C142.72 30.8093 144.574 29.994 144.969 29.1233L144.032 28.7543C144.032 28.7543 143.025 30.1618 141.823 30.2614C141.823 30.2614 143.862 29.1159 143.811 28.6843C143.811 28.6843 142.931 28.391 142.658 28.4205C142.658 28.4205 141.911 29.4129 141.205 29.4129C141.205 29.4129 142.484 28.5109 142.405 28.3651C142.405 28.3651 141.15 28.2729 140.487 28.5496C141.083 28.2703 141.745 28.1431 142.409 28.1807C142.147 27.8842 141.798 27.6668 141.406 27.5553C141.406 27.5553 142.106 27.3044 142.714 28.2065C142.714 28.2065 143.692 28.3172 143.807 28.4223C143.807 28.4223 143.34 27.4502 142.742 27.0278C142.742 27.0278 143.645 27.2011 144.058 28.5127L145.008 28.8669C145.008 28.8669 144.462 27.5516 143.96 27.1366C143.96 27.1366 144.852 27.4483 145.239 28.9812L146.109 29.4535C146.109 29.4535 145.729 28.2876 145.276 27.7121C145.276 27.7121 146.038 28.1696 146.351 29.5974L146.893 29.9774C146.893 29.9774 146.602 29.1307 146.502 28.8945C146.402 28.6584 146.453 28.6123 146.453 28.6123C146.824 29.0507 147.059 29.5775 147.131 30.1341C147.131 30.1341 148.193 30.9716 148.254 30.9126Z" fill="#1DB776"/>
<path opacity="0.1" d="M158.596 62.2368C158.596 62.2368 155.36 55.9022 151.23 59.0234C151.23 59.0234 150.342 59.3038 150.383 60.1837C150.383 60.1837 150.727 60.0176 150.97 60.6946C151.06 60.9355 151.181 61.1653 151.33 61.379C151.529 61.6678 151.823 61.8874 152.166 62.0043C152.166 62.0043 153.942 63.3306 157.323 62.4268C157.323 62.4268 158.265 62.5799 158.422 62.471L157.342 61.6834C157.342 61.6834 156.756 62.4544 155.938 62.5227C155.938 62.5227 157.336 61.7405 157.186 61.5598C157.155 61.5229 156.599 61.1669 156.599 61.1669C156.599 61.1669 155.582 62.5005 154.31 62.5706C154.31 62.5706 156.11 61.8494 156.388 61.0304L155.506 60.5397C155.506 60.5397 154.505 62.0006 153.058 62.1298C153.058 62.1298 154.912 61.3144 155.307 60.4438L154.37 60.0748C154.37 60.0748 153.363 61.4805 152.161 61.5819C152.161 61.5819 154.202 60.4364 154.151 60.0029C154.151 60.0029 153.269 59.7096 152.996 59.7391C152.996 59.7391 152.249 60.7315 151.543 60.7315C151.543 60.7315 152.822 59.8295 152.743 59.6838C152.743 59.6838 151.488 59.5915 150.825 59.8682C151.421 59.5891 152.085 59.4619 152.749 59.4993C152.486 59.2024 152.137 58.9849 151.744 58.8739C151.744 58.8739 152.444 58.6212 153.052 59.5251C153.052 59.5251 154.03 59.6339 154.145 59.7391C154.145 59.7391 153.678 58.7688 153.082 58.3445C153.082 58.3445 153.985 58.5179 154.398 59.8295L155.346 60.1837C155.346 60.1837 154.8 58.8684 154.298 58.4552C154.298 58.4552 155.189 58.7651 155.577 60.2999L156.447 60.7703C156.447 60.7703 156.067 59.6044 155.614 59.0289C155.614 59.0289 156.376 59.4864 156.691 60.916L157.233 61.2849C157.233 61.2849 156.94 60.4382 156.842 60.2021C156.744 59.966 156.793 59.9199 156.793 59.9199C157.165 60.3577 157.4 60.8848 157.471 61.4417C157.471 61.4417 158.535 62.2921 158.596 62.2368Z" fill="#1DB776"/>
<path opacity="0.1" d="M39.488 144.651C41.9707 144.651 43.9833 144.438 43.9833 144.176C43.9833 143.915 41.9707 143.702 39.488 143.702C37.0053 143.702 34.9927 143.915 34.9927 144.176C34.9927 144.438 37.0053 144.651 39.488 144.651Z" fill="#1DB776"/>
<path opacity="0.1" d="M10.0193 136.593C12.502 136.593 14.5146 136.381 14.5146 136.119C14.5146 135.857 12.502 135.645 10.0193 135.645C7.53655 135.645 5.52393 135.857 5.52393 136.119C5.52393 136.381 7.53655 136.593 10.0193 136.593Z" fill="#1DB776"/>
<path opacity="0.1" d="M61.9514 150.002C64.4341 150.002 66.4467 149.79 66.4467 149.528C66.4467 149.266 64.4341 149.054 61.9514 149.054C59.4687 149.054 57.4561 149.266 57.4561 149.528C57.4561 149.79 59.4687 150.002 61.9514 150.002Z" fill="#1DB776"/>
<path opacity="0.1" d="M177.062 138.345C179.544 138.345 181.557 138.133 181.557 137.871C181.557 137.609 179.544 137.397 177.062 137.397C174.579 137.397 172.566 137.609 172.566 137.871C172.566 138.133 174.579 138.345 177.062 138.345Z" fill="#00BFA6"/>
<path opacity="0.1" d="M139.655 136.045C142.137 136.045 144.15 135.833 144.15 135.571C144.15 135.309 142.137 135.097 139.655 135.097C137.172 135.097 135.159 135.309 135.159 135.571C135.159 135.833 137.172 136.045 139.655 136.045Z" fill="#1DB776"/>
<path opacity="0.1" d="M115.455 147.264C118.391 147.264 120.772 146.879 120.772 146.403C120.772 145.927 118.391 145.542 115.455 145.542C112.519 145.542 110.139 145.927 110.139 146.403C110.139 146.879 112.519 147.264 115.455 147.264Z" fill="#1DB776"/>
<path d="M117.827 137.744C117.827 137.744 110.424 141.352 114.249 145.602C114.249 145.602 114.608 146.525 115.649 146.46C115.649 146.46 115.441 146.102 116.235 145.816C116.518 145.713 116.786 145.579 117.035 145.416C117.371 145.197 117.622 144.88 117.751 144.514C117.751 144.514 119.264 142.603 118.091 139.067C118.091 139.067 118.243 138.067 118.11 137.905L117.211 139.069C117.211 139.069 118.14 139.657 118.247 140.522C118.247 140.522 117.27 139.07 117.074 139.231C117.031 139.264 116.628 139.867 116.628 139.867C116.628 139.867 118.239 140.898 118.359 142.238C118.359 142.238 117.451 140.362 116.472 140.094L115.911 141.039C115.911 141.039 117.67 142.05 117.866 143.57C117.866 143.57 116.843 141.642 115.799 141.253L115.387 142.251C115.387 142.251 117.084 143.269 117.24 144.534C117.24 144.534 115.821 142.419 115.31 142.485C115.31 142.485 114.99 143.422 115.033 143.712C115.033 143.712 116.231 144.468 116.253 145.211C116.253 145.211 115.146 143.892 114.976 143.979C114.976 143.979 114.906 145.305 115.246 145.995C115.246 145.995 114.659 145.01 114.755 143.979C114.412 144.265 114.165 144.64 114.045 145.056C114.045 145.056 113.726 144.328 114.776 143.656C114.776 143.656 114.876 142.625 114.997 142.498C114.997 142.498 113.861 143.022 113.378 143.664C113.378 143.664 113.556 142.706 115.097 142.23L115.488 141.219C115.488 141.219 113.947 141.836 113.472 142.378C113.472 142.378 113.814 141.428 115.609 140.972L116.141 140.05C116.141 140.05 114.773 140.485 114.104 140.972C114.104 140.972 114.622 140.155 116.306 139.779L116.738 139.198C116.738 139.198 115.744 139.532 115.467 139.652C115.189 139.771 115.134 139.712 115.134 139.712C115.642 139.307 116.258 139.043 116.916 138.949C116.916 138.949 117.895 137.807 117.827 137.744Z" fill="#1DB776"/>
<path d="M139.799 69.5971C138.52 66.3191 131.481 66.0111 128.427 66.8467C126.257 67.4425 121.681 68.114 119.237 68.4515L119.078 68.3095C119.395 68.221 119.403 68.0033 119.364 67.6805C119.341 67.255 119.348 66.8286 119.384 66.404C120.881 66.843 122.215 65.8045 122.215 65.8045C123.975 65.0666 123.501 61.9086 123.838 61.0453C124.09 60.3996 124.362 56.5959 124.483 54.6996H124.508L124.522 54.0632C124.54 53.7884 124.548 53.6279 124.548 53.6279C124.548 53.6279 124.72 48.9904 125.056 48.0515C125.369 47.1882 125.623 42.8385 125.662 42.1486C125.662 42.0896 125.662 42.0582 125.662 42.0582L125.637 41.6561C125.654 41.3628 125.662 41.0363 125.66 40.6932C125.66 39.116 125.486 37.1293 125.465 36.8083C125.465 36.7622 125.465 36.7069 125.465 36.6405C125.478 35.9672 125.388 32.5951 122.348 31.3205C121.227 30.8482 119.88 30.2856 118.576 29.7378C118.24 26.9985 117.471 24.2739 117.538 21.5143C117.538 21.0992 117.577 20.6842 117.62 20.271C117.62 20.3909 117.606 20.5126 117.604 20.6399C117.604 20.9074 117.604 21.1767 117.604 21.4442C117.72 17.9928 119.102 14.523 118.973 11.1455C118.961 11.4757 118.936 11.8077 118.902 12.1398C118.97 10.9973 118.843 9.85207 118.527 8.74743C118.41 8.35821 118.251 7.95607 117.913 7.69598C117.593 7.4865 117.227 7.34951 116.842 7.29569C115.916 7.07226 114.976 6.9071 114.028 6.80132C113.884 6.38512 113.67 5.99339 113.394 5.64103C111.412 3.07327 108.475 0.660461 105.002 0.107065C103.26 -0.169634 101.256 0.0609482 100.071 1.23599C99.9469 1.33922 99.8306 1.45015 99.7226 1.56803C99.0851 2.2856 98.8114 3.22822 98.1583 3.94395C98.1153 3.99191 98.0664 4.03618 98.0195 4.0823C96.7407 5.16142 94.7482 5.38647 93.3266 6.35491C93.0762 6.52876 92.8414 6.72188 92.6247 6.93229C92.0519 7.46778 91.5382 8.05679 91.0917 8.69025C90.4523 9.53879 89.7953 10.4224 89.5919 11.4351C89.1833 13.4642 90.6478 15.3882 90.9196 17.4302C91.5258 21.9994 86.1662 26.054 87.181 30.5623C87.4518 31.6699 88.0498 32.6824 88.9056 33.4824C86.8154 35.268 85.036 37.0002 85.036 37.0002V37.1035H84.7056L84.7388 37.4724H84.7056L84.8874 39.4739L84.7056 42.3884C84.7056 42.3884 84.7056 42.4198 84.7056 42.4788V42.4936V42.5729C84.7056 42.5729 84.7056 42.6042 84.7056 42.6633H84.7173C84.7779 43.7313 85.0184 47.5719 85.3039 48.3817C85.6402 49.3206 85.8103 53.9581 85.8103 53.9581C85.8103 53.9581 86.1818 60.5121 86.5221 61.3791C86.8623 62.2461 86.3793 65.395 88.145 66.1383C88.6615 66.5121 89.2731 66.7513 89.9185 66.8319C89.8285 67.5218 89.8852 68.0217 90.1766 68.1785C90.3013 68.2477 90.4426 68.2858 90.5872 68.2892C90.4674 68.4568 90.3609 68.6325 90.2685 68.8149C89.5677 68.7459 88.879 68.5928 88.2193 68.3593C86.3226 67.6215 80.0284 65.9613 78.2001 67.1289C76.3719 68.2966 71.9724 69.3554 74.004 74.0556C76.0356 78.7558 76.9819 78.8738 76.9819 78.8738C77.6073 79.3021 78.1559 79.8221 78.6068 80.4141C79.2169 81.2793 84.9011 83.2586 86.3226 83.2586C86.9268 83.2498 87.531 83.2782 88.1313 83.3435C88.1313 83.3435 86.5885 84.6199 86.7939 85.3615C86.9992 86.1031 86.3246 92.0392 86.3246 92.0392C86.3246 92.0392 87.8888 93.5259 88.5576 91.5761L88.581 91.6057C88.7062 91.7662 89.3827 92.4911 90.6557 91.5761C91.1766 91.2033 91.73 90.8725 92.3099 90.5874L98.4731 89.7647C99.1157 89.7268 99.76 89.7225 100.403 89.7518C101.381 89.8274 102.341 89.2814 102.945 88.859C104.222 89.3164 105.657 89.8163 106.339 89.999C107.724 90.3679 114.087 91.9783 115.575 91.4747C115.884 91.3587 116.159 91.1739 116.376 90.9361L117.796 90.9785L117.131 91.1039C117.131 91.1039 118.425 91.1242 120.185 91.1463L120.111 91.1869L122.318 91.1685C125.549 91.1962 129.178 91.2054 129.655 91.1039C130.402 90.9471 134.283 91.0578 135.427 91.1039H135.746C135.746 91.1039 140.01 90.3015 138.251 86.2193C136.898 83.0834 132.738 82.1721 130.893 81.9212C131.413 81.8234 131.861 81.7478 132.158 81.7036C133.446 81.5191 135.949 80.4123 136.153 80.0341C136.356 79.656 138.454 78.5584 138.996 77.9331C139.537 77.3077 141.084 72.875 139.799 69.5971ZM104.476 78.7705L104.267 78.8351L104.126 78.8794L103.856 79.1303C103.641 78.9938 103.41 78.8499 103.17 78.7023C103.594 78.7263 104.03 78.7503 104.476 78.7705Z" fill="url(#paint0_linear)"/>
<path d="M116.943 59.3204C116.943 59.3204 119.935 66.6991 121.636 65.9612C123.337 65.2233 122.876 62.0874 123.2 61.2278C123.525 60.3682 123.885 53.8492 123.885 53.8492C123.885 53.8492 124.049 49.2376 124.374 48.3042C124.675 47.4464 124.919 43.1207 124.96 42.44C124.96 42.381 124.96 42.3496 124.96 42.3496L124.638 37.0001L122.811 36.5703L118.576 38.046L117.989 41.2059L117.761 42.44L117.663 42.9657L116.943 59.3204Z" fill="#FFB9B9"/>
<path opacity="0.1" d="M117.929 58.0845C117.929 58.0845 120.784 60.2888 121.644 60.4825C122.504 60.6762 123.032 62.3954 123.032 62.3954" fill="black"/>
<path d="M93.5477 59.6432C93.5477 59.6432 90.556 67.0218 88.8548 66.284C87.1537 65.5461 87.6152 62.4102 87.2906 61.5506C86.966 60.691 86.6062 54.172 86.6062 54.172C86.6062 54.172 86.442 49.5603 86.1174 48.6269C85.8162 47.7692 85.5718 43.4434 85.5308 42.7628C85.5308 42.7037 85.5308 42.6724 85.5308 42.6724L85.8553 37.3229L87.6816 36.8931L91.9169 38.3688L92.5035 41.5287L92.7323 42.7628L92.8301 43.2885L93.5477 59.6432Z" fill="#FFB9B9"/>
<path d="M113.029 20.1565H106.351V29.9756H113.029V20.1565Z" fill="#3E373A"/>
<path opacity="0.1" d="M113.029 20.1565H106.351V29.9756H113.029V20.1565Z" fill="black"/>
<path d="M92.3741 66.9923C92.3741 66.9923 90.0922 69.359 90.9389 69.7888C91.7855 70.2186 97.2624 78.2742 97.2624 78.2742C97.2624 78.2742 115.252 80.3642 118.644 77.2283C122.037 74.0923 121.968 68.4901 121.968 68.4901C121.968 68.4901 119.242 69.0435 118.945 68.7429C118.648 68.4422 117.015 66.9923 117.015 66.9923C117.015 66.9923 93.9384 65.6715 92.3741 66.9923Z" fill="#135E8A"/>
<path opacity="0.02" d="M92.3741 66.9923C92.3741 66.9923 90.0922 69.359 90.9389 69.7888C91.7855 70.2186 97.2624 78.2742 97.2624 78.2742C97.2624 78.2742 115.252 80.3642 118.644 77.2283C122.037 74.0923 121.968 68.4901 121.968 68.4901C121.968 68.4901 119.242 69.0435 118.945 68.7429C118.648 68.4422 117.015 66.9923 117.015 66.9923C117.015 66.9923 93.9384 65.6715 92.3741 66.9923Z" fill="black"/>
<path d="M124.758 37.0775L118.892 41.5047L117.119 41.6264L116.468 41.6707L105.532 42.427L94.1906 41.6449L92.5031 41.5287L90.3523 41.3811L85.855 37.3228C85.855 37.3228 89.0383 34.1058 91.8266 31.9346C92.9255 31.0768 93.9638 30.3832 94.7205 30.1102L94.8496 30.0678C95.3255 29.8927 95.7505 29.6132 96.0892 29.2525C98.291 27.1108 100.326 21.8259 100.326 21.8259C100.326 21.8259 110.039 17.0925 108.865 23.3016C107.692 29.5107 113.232 27.976 113.232 27.976L115.058 28.7618L115.78 29.0735L117.62 29.8686L121.771 31.6653C125.028 33.0801 124.758 37.0775 124.758 37.0775Z" fill="#FFB9B9"/>
<path opacity="0.1" d="M105.076 26.8823C109.9 26.8823 113.811 23.193 113.811 18.6422C113.811 14.0913 109.9 10.4021 105.076 10.4021C100.252 10.4021 96.3418 14.0913 96.3418 18.6422C96.3418 23.193 100.252 26.8823 105.076 26.8823Z" fill="black"/>
<path opacity="0.1" d="M124.772 42.9473H85.5308C85.5308 42.8883 85.5308 42.8569 85.5308 42.8569L85.8553 37.5074C85.8553 37.5074 89.0386 34.2904 91.827 32.1192L116.464 31.1969L117.61 30.0569L121.761 31.8536C125.021 33.2666 124.759 37.2639 124.759 37.2639C124.759 37.2639 125.205 41.8959 124.772 42.9473Z" fill="black"/>
<path d="M124.772 42.7628H85.5308C85.5308 42.7038 85.5308 42.6724 85.5308 42.6724L85.8553 37.3229C85.8553 37.3229 89.0386 34.1058 91.827 31.9346L116.464 31.0123L117.61 29.8723L121.761 31.669C125.021 33.082 124.759 37.0794 124.759 37.0794C124.759 37.0794 125.205 41.7113 124.772 42.7628Z" fill="#E7C7CA"/>
<path opacity="0.1" d="M98.786 27.7621C98.786 27.7621 104.977 35.2034 113.222 27.609C121.468 20.0146 114.135 44.5485 114.135 44.5485L96.3418 46.5407L98.786 27.7621Z" fill="black"/>
<path d="M98.786 28.131C98.786 28.131 104.977 35.5723 113.222 27.9779C121.468 20.3835 114.135 44.9174 114.135 44.9174L96.3418 46.9096L98.786 28.131Z" fill="#E7C7CA"/>
<path opacity="0.1" d="M115.77 29.4372L116.425 38.8615L117.127 41.9974L117.663 44.3955C117.663 44.3955 119.031 62.842 118.64 63.7644C118.249 64.6867 118.836 65.4246 118.918 65.9152C119 66.4059 118.836 67.6381 118.9 68.1915C118.965 68.7449 118.9 68.9903 117.402 68.7929C115.905 68.5955 113.816 68.2524 113.816 68.2524C113.816 68.2524 108.537 68.6213 106.713 68.0071C104.888 67.3928 101.433 67.391 101.433 67.391C101.433 67.391 96.2183 67.5145 94.525 67.3301C92.8317 67.1456 91.9166 69.2983 90.8098 68.6822C89.7031 68.0661 92.1121 62.1042 92.8942 60.3813C93.6764 58.6584 91.852 54.2939 91.852 54.2939L94.1984 42.014L94.7205 39.2305V30.4794L94.8496 30.437C95.3255 30.2619 95.7505 29.9824 96.0893 29.6216L96.6759 38.428L115.056 39.0441V29.1328" fill="black"/>
<path d="M115.77 29.068L116.425 38.4924L117.127 41.6283L117.663 44.0264C117.663 44.0264 119.031 62.4729 118.64 63.3952C118.249 64.3176 118.836 65.0554 118.918 65.5461C119 66.0368 118.836 67.269 118.9 67.8224C118.965 68.3758 118.9 68.6212 117.402 68.4238C115.905 68.2264 113.816 67.8833 113.816 67.8833C113.816 67.8833 108.537 68.2522 106.713 67.638C104.888 67.0237 101.433 67.0218 101.433 67.0218C101.433 67.0218 96.2183 67.1454 94.525 66.961C92.8317 66.7765 91.9166 68.9292 90.8098 68.3131C89.7031 67.697 92.1121 61.7351 92.8942 60.0121C93.6764 58.2892 91.852 53.9248 91.852 53.9248L94.1984 41.6449L94.7205 38.8613V30.1103L94.8496 30.0678C95.3255 29.8927 95.7505 29.6133 96.0893 29.2525L96.6759 38.0589L115.056 38.675V28.7637" fill="#E7C7CA"/>
<path opacity="0.1" d="M117.884 9.40037C117.772 9.01484 117.618 8.61455 117.297 8.3563C116.991 8.14887 116.637 8.01237 116.265 7.95785C115.373 7.7366 114.466 7.57267 113.551 7.46717C113.42 7.05757 113.222 6.6698 112.964 6.31795C111.048 3.76495 108.213 1.35768 104.877 0.813502C103.131 0.527581 101.107 0.783987 99.9884 2.08262C99.3744 2.79651 99.1104 3.74281 98.4906 4.44378C97.2959 5.80514 95.1391 5.973 93.6335 7.0263C92.8299 7.5797 92.2472 8.38212 91.6782 9.16057C91.0622 10.0036 90.4287 10.8816 90.2332 11.8888C89.8421 13.9013 91.2519 15.8198 91.512 17.8507C92.0986 22.3941 86.9365 26.4247 87.9122 30.9072C88.4812 33.5211 91.0407 35.362 93.6883 36.2954C94.621 36.6256 95.6866 36.954 96.1227 37.7988C96.3182 38.1678 96.3514 38.5939 96.5352 38.9665C97.1531 40.2098 99.1847 40.2578 100.276 39.352C101.367 38.4463 101.711 36.9817 101.84 35.6148C102.364 29.6455 99.83 23.7481 100.125 17.764C100.213 15.9544 100.753 13.9013 102.472 13.0823C104.785 11.9755 107.567 13.8202 110.113 13.4678C111.318 16.2332 111.574 19.2853 110.844 22.1949C110.44 23.7868 109.74 25.3308 109.689 26.9726C109.613 29.4721 111.042 31.7557 112.278 33.9656C112.543 34.3789 112.72 34.8369 112.8 35.3141C112.819 35.7983 112.724 36.2804 112.52 36.7252C111.822 38.498 110.618 40.1434 110.481 42.0305C110.441 42.2508 110.493 42.4771 110.627 42.6613C110.765 42.7843 110.943 42.8597 111.132 42.8753C113.244 43.2166 115.07 41.4512 116.1 39.6785C117.249 37.7206 117.919 35.5448 118.06 33.3108C118.273 29.5551 116.845 25.8602 116.933 22.1008C117.035 17.8268 119.082 13.5232 117.884 9.40037Z" fill="black"/>
<path d="M118.079 9.21605C117.968 8.83051 117.814 8.43022 117.493 8.17197C117.187 7.96454 116.833 7.82804 116.46 7.77353C115.569 7.55228 114.662 7.38834 113.746 7.28285C113.616 6.87324 113.418 6.48548 113.16 6.13363C111.244 3.58062 108.408 1.17335 105.073 0.629176C103.326 0.343254 101.303 0.599661 100.184 1.8983C99.5702 2.61218 99.3062 3.55849 98.6864 4.25946C97.4917 5.62081 95.3349 5.78868 93.8293 6.84197C93.0257 7.39537 92.443 8.1978 91.874 8.97624C91.258 9.81925 90.6245 10.6973 90.429 11.7045C90.0379 13.717 91.4477 15.6354 91.7078 17.6664C92.2944 22.2098 87.1323 26.2404 88.108 30.7229C88.677 33.3368 91.2365 35.1777 93.884 36.1111C94.8167 36.4413 95.8824 36.7697 96.3184 37.6145C96.514 37.9834 96.5472 38.4096 96.731 38.7822C97.3489 40.0255 99.3805 40.0734 100.472 39.1677C101.563 38.262 101.907 36.7973 102.036 35.4304C102.56 29.4611 100.026 23.5638 100.321 17.5797C100.409 15.7701 100.949 13.717 102.667 12.898C104.981 11.7912 107.763 13.6358 110.309 13.2835C111.514 16.0489 111.769 19.101 111.04 22.0106C110.635 23.6025 109.935 25.1465 109.885 26.7882C109.808 29.2877 111.238 31.5714 112.473 33.7813C112.739 34.1946 112.916 34.6526 112.996 35.1298C113.015 35.6139 112.919 36.0961 112.716 36.5409C112.018 38.3136 110.813 39.9591 110.677 41.8462C110.636 42.0664 110.689 42.2928 110.823 42.477C110.961 42.6 111.139 42.6754 111.328 42.691C113.439 43.0323 115.266 41.2669 116.296 39.4942C117.445 37.5363 118.115 35.3604 118.255 33.1265C118.469 29.3708 117.041 25.6759 117.129 21.9165C117.231 17.6424 119.278 13.3389 118.079 9.21605Z" fill="#3E373A"/>
<path d="M113.76 90.8917L121.517 91.1259L120.404 85.699L114.462 86.2321L113.76 90.8917Z" fill="#C3C7D9"/>
<path d="M137.795 78.029C137.273 78.6432 135.253 79.75 135.057 80.119C134.862 80.4879 132.451 81.5947 131.211 81.7792C129.971 81.9636 126.063 82.7642 125.345 83.194C124.831 83.5039 120.703 84.4853 117.991 85.0294C117.256 85.1934 116.513 85.3196 115.764 85.4076C114.591 85.4685 101.752 81.3494 101.752 81.3494L104.227 78.9513L104.364 78.907C105.064 78.6838 108.298 77.6527 110.093 77.162C112.115 76.6086 114.462 74.3341 114.462 74.3341C114.462 74.3341 117.915 73.2273 118.372 73.1037C118.83 72.9802 117.199 68.8002 117.199 68.8002C117.199 68.8002 124.694 67.8188 127.627 66.9869C130.56 66.1549 137.339 66.463 138.577 69.7225C139.815 72.982 138.325 77.4147 137.795 78.029Z" fill="#135E8A"/>
<path d="M103.641 88.4198C103.641 88.4198 102.143 89.8955 100.643 89.7738C99.1435 89.652 93.8993 90.1427 93.8993 90.1427C92.9489 90.5003 92.059 90.9869 91.2576 91.5871C90.0316 92.4983 89.3805 91.7715 89.2593 91.6166L89.2378 91.5871C88.5847 93.5258 87.0869 92.0482 87.0869 92.0482C87.0869 92.0482 87.738 86.1453 87.5386 85.4074C87.3392 84.6696 88.8272 83.4023 88.8272 83.4023L90.587 82.9799L95.0451 81.9026L101.433 83.9926L103.641 88.4198Z" fill="#E7C7CA"/>
<path opacity="0.1" d="M90.5792 82.98L89.2593 91.6167L89.2378 91.5871C88.5847 93.5259 87.0869 92.0483 87.0869 92.0483C87.0869 92.0483 87.738 86.1454 87.5386 85.4075C87.3392 84.6697 88.8272 83.4024 88.8272 83.4024L90.5792 82.98Z" fill="black"/>
<path opacity="0.1" d="M99.8047 58.4128C99.8047 58.4128 103.258 59.5196 106.257 58.4128H99.8047Z" fill="black"/>
<path opacity="0.1" d="M111.593 60.5046C111.593 60.5046 113.027 61.1798 114.135 60.5046H111.593Z" fill="black"/>
<path opacity="0.1" d="M111.593 62.1058C111.593 62.1058 114.004 62.4102 114.462 61.7959L111.593 62.1058Z" fill="black"/>
<path opacity="0.1" d="M110.811 65.5461C110.811 65.5461 115.34 64.9927 116.464 64.2549L110.811 65.5461Z" fill="black"/>
<path opacity="0.1" d="M96.9927 64.2549C96.9927 64.2549 99.5346 65.607 101.425 65.5461L96.9927 64.2549Z" fill="black"/>
<path opacity="0.1" d="M117.989 85.0294C117.255 85.1934 116.511 85.3196 115.762 85.4076C114.589 85.4684 101.75 81.3493 101.75 81.3493L104.225 78.9513L104.362 78.907C104.753 79.1671 105.074 79.3903 105.303 79.56C106.38 80.3606 107.42 79.3147 107.812 79.3147C108.203 79.3147 111.591 81.958 111.591 81.958C111.591 81.958 114.72 82.635 115.242 83.2493C115.764 83.8636 117.588 83.7418 117.913 84.1716C118.011 84.3045 118.022 84.631 117.989 85.0294Z" fill="black"/>
<path d="M93.8992 69.051C93.8992 69.051 90.7355 69.2225 88.9112 68.4976C87.0868 67.7726 81.0253 66.0995 79.2655 67.2745C77.5057 68.4496 73.2684 69.4881 75.2238 74.1625C77.1791 78.8368 78.0923 78.9586 78.0923 78.9586C78.6973 79.3866 79.2254 79.9036 79.6565 80.4897C80.2431 81.3511 85.7181 83.3175 87.0868 83.3175C88.4556 83.3175 90.8665 83.3175 94.2551 85.5311C97.6437 87.7447 100.708 87.9919 100.708 87.9919C100.708 87.9919 105.009 89.6521 106.349 90.021C107.688 90.3899 113.809 91.9874 115.244 91.4967C116.679 91.006 117.59 87.9292 117.59 87.9292C117.59 87.9292 118.241 85.1622 117.915 84.7324C117.588 84.3026 115.764 84.4243 115.244 83.81C114.724 83.1958 111.593 82.5188 111.593 82.5188C111.593 82.5188 108.212 79.8735 107.821 79.8735C107.43 79.8735 106.39 80.9176 105.313 80.1189C103.166 78.6193 100.912 77.2632 98.5647 76.0606C96.0892 74.8303 93.8992 69.051 93.8992 69.051Z" fill="#135E8A"/>
<path opacity="0.1" d="M87.5386 70.8347C88.1019 70.7262 88.6842 70.7418 89.24 70.8803C89.7959 71.0188 90.3104 71.2766 90.7434 71.6335C92.3076 72.8639 97.5714 75.3339 97.5714 75.3339" fill="black"/>
<path opacity="0.1" d="M126.65 70.7573C126.65 70.7573 119.675 71.7534 118.373 73.1056L126.65 70.7573Z" fill="black"/>
<path d="M134.666 91.1259H134.359C133.257 91.089 129.52 90.9783 128.8 91.1259C127.954 91.3103 116.742 91.1259 116.742 91.1259L118.934 90.6961C118.934 90.6961 118.12 88.0065 118.636 87.7833C118.636 87.7833 115.703 85.9608 117.915 84.7304C120.126 83.5001 122.51 84.0184 122.51 84.0184L128.061 82.2438L129.127 81.9026C129.127 81.9026 135.384 82.2106 137.077 86.2689C138.771 90.3271 134.666 91.1259 134.666 91.1259Z" fill="#E7C7CA"/>
<path opacity="0.1" d="M134.666 91.1259H134.359C136.18 89.7092 140.298 85.3964 128.061 82.2531L129.127 81.9119C129.127 81.9119 135.384 82.2199 137.077 86.2782C138.77 90.3364 134.666 91.1259 134.666 91.1259Z" fill="black"/>
<path d="M123.163 86.3446C123.352 86.3446 123.505 86.2001 123.505 86.0218C123.505 85.8435 123.352 85.699 123.163 85.699C122.974 85.699 122.821 85.8435 122.821 86.0218C122.821 86.2001 122.974 86.3446 123.163 86.3446Z" fill="#4B4B5B"/>
<path d="M121.174 86.8778C121.363 86.8778 121.516 86.7333 121.516 86.555C121.516 86.3767 121.363 86.2322 121.174 86.2322C120.985 86.2322 120.832 86.3767 120.832 86.555C120.832 86.7333 120.985 86.8778 121.174 86.8778Z" fill="#4B4B5B"/>
<g opacity="0.1">
<path opacity="0.1" d="M111.485 18.3379C111.561 16.309 111.179 14.288 110.363 12.4092C107.821 12.7671 105.037 10.9169 102.722 12.0237C101.009 12.8427 100.471 14.8958 100.375 16.7054C100.352 17.1832 100.348 17.6609 100.358 18.1387C100.358 17.969 100.358 17.7975 100.375 17.6277C100.465 15.8181 101.003 13.765 102.722 12.946C105.037 11.8392 107.817 13.6839 110.363 13.3315C111.054 14.9229 111.434 16.619 111.485 18.3379Z" fill="black"/>
<path opacity="0.1" d="M91.7872 18.0001C91.8207 17.5982 91.8122 17.1941 91.7618 16.7937C91.5545 15.1704 90.614 13.6191 90.4439 12.0364C90.2249 13.9456 91.5134 15.7792 91.7618 17.7161C91.7872 17.8157 91.7872 17.9042 91.7872 18.0001Z" fill="black"/>
<path opacity="0.1" d="M102.09 34.554C101.969 35.9228 101.627 37.3856 100.526 38.2932C99.4249 39.2007 97.3972 39.1509 96.7852 37.9076C96.5897 37.5387 96.5604 37.1089 96.3707 36.74C95.9366 35.8951 94.869 35.5668 93.9363 35.2366C91.2868 34.3013 88.7312 32.4696 88.1622 29.8483C88.1113 29.6109 88.0767 29.3706 88.0585 29.1289C88.0104 29.678 88.0453 30.2308 88.1622 30.7707C88.7312 33.3845 91.2907 35.2237 93.9363 36.1589C94.869 36.4891 95.9366 36.8174 96.3707 37.6623C96.5662 38.0312 96.5995 38.4573 96.7852 38.83C97.4011 40.0733 99.4328 40.1212 100.526 39.2155C101.619 38.3098 101.959 36.8451 102.09 35.4764C102.15 34.756 102.17 34.0331 102.151 33.3107C102.151 33.7295 102.125 34.1427 102.09 34.554Z" fill="black"/>
<path opacity="0.1" d="M117.193 21.042C117.193 21.3095 117.193 21.5751 117.193 21.8408C117.302 18.4097 118.636 14.9602 118.505 11.6011C118.403 14.7075 117.267 17.884 117.193 21.042Z" fill="black"/>
<path opacity="0.1" d="M112.997 34.9212C113.045 34.7024 113.06 34.4782 113.042 34.2553C112.963 33.7779 112.786 33.3198 112.52 32.9069C111.39 30.8777 110.101 28.8007 109.948 26.5483C109.948 26.6443 109.935 26.7328 109.933 26.8361C109.855 29.3338 111.284 31.6193 112.52 33.8292C112.73 34.1715 112.89 34.5387 112.997 34.9212Z" fill="black"/>
<path opacity="0.1" d="M118.317 32.252C118.171 34.4868 117.497 36.6625 116.344 38.6197C115.312 40.3925 113.488 42.1578 111.374 41.8165C111.185 41.8011 111.006 41.725 110.869 41.6007C110.83 41.5585 110.799 41.5097 110.778 41.4568C110.754 41.6007 110.734 41.7464 110.723 41.894C110.682 42.1137 110.735 42.3396 110.869 42.523C111.006 42.6473 111.185 42.7235 111.374 42.7389C113.488 43.0801 115.312 41.3148 116.344 39.5421C117.497 37.5849 118.171 35.4092 118.317 33.1743C118.341 32.7427 118.343 32.3129 118.329 31.8831C118.325 32.0066 118.325 32.1284 118.317 32.252Z" fill="black"/>
</g>
<path opacity="0.1" d="M118.636 87.7834C118.636 87.7834 123.585 89.7425 126.849 85.4075" stroke="black" stroke-miterlimit="10"/>
<path opacity="0.1" d="M119.61 91.2071C119.61 91.2071 123.652 88.7279 128.8 91.126" stroke="black" stroke-miterlimit="10"/>
<path opacity="0.1" d="M92.5562 90.6446C92.5562 90.6446 94.2534 87.0327 98.7859 89.7868" stroke="black" stroke-miterlimit="10"/>
<path opacity="0.1" d="M87.0537 37.2306L90.5147 34.2792C90.5147 34.2792 103.934 33.4491 104.489 37.7527C104.489 37.7527 109.247 32.6503 119.252 33.7867L123.486 36.9668L111.785 41.8109L100.415 45.5316L92.0398 41.9954L87.0537 37.2306Z" fill="black"/>
<path d="M87.0537 37.4152L90.5147 34.4638C90.5147 34.4638 103.934 33.6337 104.489 37.9372C104.489 37.9372 109.247 32.8349 119.252 33.9712L123.486 37.1514L111.785 41.9955L100.415 45.7162L92.0398 42.18L87.0537 37.4152Z" fill="#D5D6DB"/>
<path opacity="0.1" d="M85.5229 37.7839L87.054 55.0628L103.283 55.832L102.579 38.6269L102.566 38.3373L85.5229 37.7839Z" fill="black"/>
<path d="M85.5229 37.415L87.054 54.6939L103.283 55.4632L102.579 38.258L102.566 37.9684L85.5229 37.415Z" fill="#F5C108"/>
<path opacity="0.1" d="M124.228 37.415L107.487 39.7836V57.1399L123.847 54.9097L124.228 37.415Z" fill="black"/>
<path d="M124.228 37.0461L107.487 39.4147V56.7711L123.847 54.5409L124.228 37.0461Z" fill="#F5C108"/>
<path opacity="0.3" d="M120.281 41.2815L111.237 42.2296L111.435 45.1368L120.275 44.2256L120.281 41.2815Z" fill="white"/>
<path d="M87.9335 63.9468L88.8545 66.284C88.8545 66.284 90.2232 67.3908 91.721 66.8374C93.2188 66.284 94.525 66.0092 95.1761 65.4705C95.8272 64.9319 96.7404 62.2258 96.7404 62.2258C96.7404 62.2258 97.6535 59.2743 98.5647 58.5365C99.4759 57.7986 101.889 47.6327 98.5647 48.627C95.2406 49.6212 92.6987 58.8445 92.6987 58.8445C92.6987 58.8445 92.1121 59.5197 91.2654 59.5824C90.4188 59.6451 88.7235 59.4588 88.3969 60.1358C88.0704 60.8128 86.9558 62.5947 87.9335 63.9468Z" fill="#FFB9B9"/>
<path opacity="0.1" d="M107.487 39.7819C106.63 39.9642 105.739 39.9546 104.887 39.7541C104.034 39.5536 103.243 39.1677 102.577 38.6272L103.283 55.8305C103.283 55.8305 104.945 57.5275 107.487 57.1402V39.7819Z" fill="black"/>
<path d="M107.487 39.4131C106.63 39.5953 105.739 39.5857 104.887 39.3852C104.034 39.1847 103.243 38.7988 102.577 38.2583L103.283 55.4615C103.283 55.4615 104.945 57.1586 107.487 56.7712V39.4131Z" fill="#F5C108"/>
<path opacity="0.1" d="M107.487 39.4131C106.63 39.5953 105.739 39.5857 104.887 39.3852C104.034 39.1847 103.243 38.7988 102.577 38.2583L103.283 55.4615C103.283 55.4615 104.945 57.1586 107.487 56.7712V39.4131Z" fill="black"/>
<path opacity="0.1" d="M107.878 37.4741C107.878 37.4741 114.688 35.5095 116.464 35.7862L107.878 37.4741Z" fill="black"/>
<path opacity="0.1" d="M100.26 36.6164C100.26 36.6164 93.659 35.1407 92.5562 35.5594L100.26 36.6164Z" fill="black"/>
<path opacity="0.1" d="M112.172 37.7195C112.172 37.7195 116.726 36.1442 118.372 36.8931L112.172 37.7195Z" fill="black"/>
<path opacity="0.1" d="M109.878 77.2377C110.584 76.7377 111.335 76.2976 112.123 75.9225C113.296 75.3894 115.447 74.0059 115.447 74.0059" fill="black"/>
<path opacity="0.1" d="M92.5561 58.4128C92.5561 58.4128 89.6993 60.6172 88.8409 60.8109C87.9825 61.0046 87.4526 62.7238 87.4526 62.7238" fill="black"/>
<path d="M122.549 63.6185L121.638 65.9613C121.638 65.9613 120.269 67.0681 118.769 66.5147C117.27 65.9613 115.967 65.6864 115.314 65.1478C114.661 64.6091 113.75 61.903 113.75 61.903C113.75 61.903 112.839 58.9516 111.926 58.2137C111.012 57.4758 108.601 47.3099 111.926 48.3042C115.25 49.2985 117.792 58.5218 117.792 58.5218C117.792 58.5218 118.378 59.1969 119.225 59.2596C120.072 59.3223 121.767 59.136 122.093 59.813C122.42 60.49 123.527 62.2719 122.549 63.6185Z" fill="#FFB9B9"/>
<path opacity="0.1" d="M120.952 59.3093C120.952 59.3093 122.819 60.4419 122.811 61.7959L120.952 59.3093Z" fill="black"/>
<path d="M105.107 26.4782C109.931 26.4782 113.842 22.789 113.842 18.2381C113.842 13.6873 109.931 9.99805 105.107 9.99805C100.283 9.99805 96.3726 13.6873 96.3726 18.2381C96.3726 22.789 100.283 26.4782 105.107 26.4782Z" fill="#FFB9B9"/>
<path d="M99.6224 16.0265C100.682 15.8697 101.611 15.2886 102.624 14.9547C104.89 14.204 107.397 14.7186 109.69 15.3956C110.57 15.6557 111.464 15.949 112.387 15.949C113.31 15.949 114.289 15.593 114.761 14.8422C115.195 14.1523 115.111 13.2558 114.745 12.5309C114.379 11.8059 113.767 11.223 113.149 10.6733C111.116 8.86185 108.593 7.16845 105.803 7.35292C104.681 7.42855 103.607 7.8067 102.575 8.22544C101.275 8.75393 100.01 9.35513 98.7855 10.0258C97.845 10.5405 96.1028 11.2285 95.5611 12.1693C94.3293 14.2888 97.7061 16.3106 99.6224 16.0265Z" fill="#3E373A"/>
<path opacity="0.1" d="M114.761 14.0672C114.29 14.8179 113.31 15.174 112.387 15.174C111.464 15.174 110.571 14.8917 109.689 14.6316C107.395 13.9546 104.89 13.4381 102.622 14.1908C101.611 14.5246 100.681 15.1131 99.6207 15.2607C98.076 15.4894 95.5888 14.2203 95.319 12.6062C95.0159 14.4711 97.9 16.0686 99.6207 15.8141C100.681 15.6573 101.611 15.0762 102.622 14.7442C104.89 13.9915 107.395 14.508 109.689 15.185C110.571 15.4451 111.462 15.7384 112.387 15.7274C113.312 15.7163 114.29 15.3732 114.761 14.6206C115.005 14.2111 115.101 13.7377 115.035 13.2721C115.004 13.5524 114.911 13.8234 114.761 14.0672Z" fill="black"/>
<path d="M185.643 114.039C185.643 114.039 186.803 115.468 185.108 117.628C183.412 119.788 182.016 121.611 182.579 122.957C182.579 122.957 185.137 118.947 187.218 118.89C189.298 118.833 187.929 116.45 185.643 114.039Z" fill="#1DB776"/>
<path opacity="0.1" d="M185.644 114.039C185.745 114.177 185.825 114.328 185.881 114.487C187.91 116.737 188.994 118.838 187.04 118.89C185.222 118.94 183.042 122.007 182.52 122.78C182.536 122.843 182.556 122.904 182.58 122.965C182.58 122.965 185.138 118.955 187.218 118.897C189.299 118.84 187.93 116.45 185.644 114.039Z" fill="black"/>
<path d="M187.795 115.861C187.795 116.364 187.734 116.772 187.662 116.772C187.589 116.772 187.527 116.364 187.527 115.861C187.527 115.357 187.601 115.595 187.675 115.595C187.75 115.595 187.795 115.357 187.795 115.861Z" fill="#F5C108"/>
<path d="M188.536 116.462C188.068 116.702 187.66 116.848 187.625 116.787C187.589 116.726 187.939 116.481 188.407 116.234C188.874 115.986 188.69 116.167 188.725 116.234C188.761 116.3 189.005 116.221 188.536 116.462Z" fill="#F5C108"/>
<path d="M179.516 114.039C179.516 114.039 178.357 115.468 180.052 117.628C181.747 119.788 183.143 121.611 182.578 122.957C182.578 122.957 180.023 118.947 177.94 118.89C175.858 118.833 177.236 116.45 179.516 114.039Z" fill="#1DB776"/>
<path opacity="0.1" d="M179.516 114.039C179.415 114.177 179.336 114.328 179.28 114.487C177.25 116.737 176.167 118.838 178.12 118.89C179.937 118.94 182.119 122.007 182.641 122.78C182.624 122.843 182.603 122.905 182.578 122.965C182.578 122.965 180.023 118.955 177.94 118.897C175.858 118.84 177.236 116.45 179.516 114.039Z" fill="black"/>
<path d="M177.361 115.861C177.361 116.364 177.419 116.772 177.494 116.772C177.568 116.772 177.629 116.364 177.629 115.861C177.629 115.357 177.552 115.595 177.48 115.595C177.408 115.595 177.361 115.357 177.361 115.861Z" fill="#F5C108"/>
<path d="M176.622 116.462C177.089 116.702 177.498 116.848 177.533 116.787C177.568 116.726 177.218 116.481 176.751 116.234C176.284 115.986 176.467 116.167 176.432 116.234C176.397 116.3 176.153 116.221 176.622 116.462Z" fill="#F5C108"/>
<path opacity="0.1" d="M182.58 133.9C189.275 133.9 194.703 133.114 194.703 132.146C194.703 131.177 189.275 130.391 182.58 130.391C175.884 130.391 170.457 131.177 170.457 132.146C170.457 133.114 175.884 133.9 182.58 133.9Z" fill="#1DB776"/>
<path d="M188.819 121.03L188.761 121.476L188.678 122.107L188.645 122.371L188.563 123.002L188.528 123.265L188.448 123.894L187.519 131.07C187.437 131.71 186.328 132.21 184.989 132.21H180.169C178.829 132.21 177.723 131.71 177.639 131.07L176.71 123.894L176.628 123.265L176.594 123.002L176.512 122.371L176.477 122.107L176.397 121.476L176.338 121.03C176.293 120.661 176.892 120.362 177.65 120.362H187.509C188.266 120.362 188.866 120.666 188.819 121.03Z" fill="#4B4F51"/>
<path d="M188.761 121.476L188.68 122.107H176.479L176.397 121.476H188.761Z" fill="#2F2E41"/>
<path d="M188.646 122.371L188.565 123.002H176.595L176.513 122.371H188.646Z" fill="#2F2E41"/>
<path d="M188.53 123.265L188.448 123.896H176.71L176.63 123.265H188.53Z" fill="#2F2E41"/>
</g>
<defs>
<linearGradient id="paint0_linear" x1="106.887" y1="92.587" x2="106.887" y2="7.41535e-05" gradientUnits="userSpaceOnUse">
<stop stop-color="#808080" stop-opacity="0.25"/>
<stop offset="0.54" stop-color="#808080" stop-opacity="0.12"/>
<stop offset="1" stop-color="#808080" stop-opacity="0.1"/>
</linearGradient>
<clipPath id="clip0">
<rect width="200" height="150" fill="white"/>
</clipPath>
</defs>
</svg>
