<svg width="200" height="150" viewBox="0 0 200 150" fill="none" xmlns="http://www.w3.org/2000/svg">
<g clip-path="url(#clip0)">
<path opacity="0.1" d="M91.646 132.452C137.548 132.452 174.759 129.632 174.759 126.153C174.759 122.674 137.548 119.853 91.646 119.853C45.7438 119.853 8.53271 122.674 8.53271 126.153C8.53271 129.632 45.7438 132.452 91.646 132.452Z" fill="#1DB776"/>
<g opacity="0.1">
<path opacity="0.1" d="M165.259 90.2584C164.762 88.7867 162.748 88.109 160.761 88.7466C160.475 88.8377 160.198 88.9546 159.934 89.0959C159.807 89.0615 159.676 89.031 159.543 89.0081C159.651 88.5847 159.693 88.1476 159.666 87.712C160.351 87.2644 160.907 86.6524 161.28 85.9348C161.654 85.2171 161.832 84.4178 161.797 83.6136C162.481 83.1648 163.035 82.5524 163.407 81.8348C163.779 81.1173 163.956 80.3187 163.921 79.5153C164.61 79.0723 165.165 78.4582 165.531 77.7363C166.489 75.8847 166.092 73.804 164.643 73.0882C163.194 72.3724 161.24 73.2944 160.282 75.1459C159.902 75.8606 159.724 76.6612 159.767 77.4652C159.084 77.914 158.53 78.5265 158.158 79.244C157.786 79.9615 157.609 80.7601 157.644 81.5635C156.96 82.0124 156.406 82.6248 156.034 83.3423C155.662 84.0599 155.485 84.8585 155.52 85.6619C154.835 86.1101 154.279 86.7225 153.906 87.4404C153.533 88.1583 153.354 88.9577 153.388 89.7621C152.7 90.2051 152.144 90.8192 151.779 91.5411C151.599 91.8891 151.462 92.257 151.372 92.6368C151.132 92.2941 150.839 91.9896 150.504 91.7339C150.465 91.4424 150.4 91.1549 150.308 90.8749C149.655 88.9336 147.903 87.7501 146.397 88.235C144.891 88.7198 144.195 90.6841 144.848 92.6254C145.115 93.4577 145.63 94.1939 146.327 94.7404C146.365 95.0319 146.43 95.3194 146.522 95.5994C146.902 96.7256 147.651 97.596 148.507 98.0332C148.431 98.2763 148.377 98.5254 148.345 98.7776C147.537 99.5359 147.017 100.539 146.87 101.624C146.062 102.382 145.542 103.387 145.396 104.472C144.996 104.847 144.665 105.287 144.418 105.772C143.458 107.623 143.855 109.706 145.304 110.42C146.753 111.134 148.707 110.216 149.667 108.362C149.92 107.879 150.085 107.356 150.156 106.818C150.963 106.059 151.483 105.056 151.63 103.972C152.439 103.213 152.958 102.209 153.105 101.124C153.907 100.364 154.421 99.36 154.562 98.2775C155.373 97.5191 155.895 96.5129 156.04 95.4257C156.289 95.1954 156.511 94.9394 156.703 94.6621C157.502 94.8222 158.33 94.7715 159.103 94.5151C159.389 94.4241 159.666 94.3071 159.93 94.1658C160.795 94.3885 161.708 94.3566 162.554 94.0742C164.535 93.4424 165.754 91.732 165.259 90.2584Z" fill="#4B4F51"/>
<g opacity="0.1">
<path opacity="0.1" d="M161.752 84.4554C161.547 84.6524 161.321 84.8283 161.079 84.9804C161.11 85.5253 161.036 86.071 160.862 86.5896C161.016 86.3819 161.154 86.163 161.273 85.9348C161.515 85.471 161.677 84.9711 161.752 84.4554Z" fill="#4B4F51"/>
<path opacity="0.1" d="M163.876 80.3571C163.671 80.5541 163.445 80.73 163.203 80.882C163.234 81.4269 163.161 81.9726 162.986 82.4912C163.141 82.2831 163.278 82.0636 163.397 81.8345C163.639 81.371 163.8 80.8718 163.876 80.3571Z" fill="#4B4F51"/>
<path opacity="0.1" d="M159.06 78.8319C159.042 78.5509 159.053 78.2689 159.093 77.9901C158.713 78.3554 158.397 78.7791 158.158 79.2442C158.04 79.4736 157.941 79.7117 157.861 79.9562C158.185 79.5113 158.591 79.1298 159.06 78.8319Z" fill="#4B4F51"/>
<path opacity="0.1" d="M145.58 103.634C145.75 103.401 145.944 103.185 146.156 102.989C146.19 102.73 146.247 102.474 146.327 102.225C146.157 102.448 146.007 102.685 145.879 102.933C145.761 103.159 145.661 103.393 145.58 103.634Z" fill="#4B4F51"/>
<path opacity="0.1" d="M147.054 100.79C147.225 100.557 147.418 100.341 147.631 100.144C147.663 99.8921 147.717 99.643 147.793 99.3999C147.631 99.6164 147.487 99.8456 147.363 100.085C147.242 100.312 147.139 100.548 147.054 100.79Z" fill="#4B4F51"/>
<path opacity="0.1" d="M159.627 88.5538C159.423 88.7507 159.198 88.926 158.956 89.0768C158.983 89.5124 158.941 89.9495 158.833 90.3729C158.965 90.3952 159.095 90.4245 159.224 90.4607C159.488 90.3194 159.765 90.2025 160.051 90.1114C162.042 89.4738 164.054 90.1515 164.549 91.6232C164.672 91.9931 164.694 92.388 164.612 92.7685C165.267 92.0164 165.539 91.1002 165.257 90.2603C164.76 88.7886 162.746 88.1109 160.759 88.7485C160.473 88.8396 160.196 88.9565 159.932 89.0978C159.805 89.0634 159.674 89.0329 159.541 89.01C159.578 88.8573 159.605 88.7065 159.627 88.5538Z" fill="#4B4F51"/>
<path opacity="0.1" d="M144.852 105.063C144.682 105.286 144.532 105.523 144.404 105.772C144.285 106.002 144.185 106.24 144.103 106.486C144.278 106.252 144.474 106.035 144.69 105.837C144.72 105.575 144.774 105.316 144.852 105.063Z" fill="#4B4F51"/>
<path opacity="0.1" d="M156.926 82.9302C156.908 82.6492 156.919 82.3672 156.959 82.0884C156.579 82.4537 156.264 82.8774 156.024 83.3425C155.906 83.5719 155.807 83.8099 155.727 84.0545C156.051 83.6095 156.457 83.2281 156.926 82.9302Z" fill="#4B4F51"/>
<path opacity="0.1" d="M153.858 99.6442C153.819 99.9282 153.754 100.208 153.662 100.48C153.815 100.272 153.952 100.052 154.071 99.8236C154.199 99.5784 154.306 99.3229 154.39 99.0601C154.229 99.2691 154.052 99.4645 153.858 99.6442Z" fill="#4B4F51"/>
<path opacity="0.1" d="M150.909 105.336C150.871 105.62 150.805 105.9 150.713 106.173C150.868 105.964 151.005 105.745 151.124 105.516C151.251 105.27 151.358 105.015 151.443 104.752C151.283 104.962 151.104 105.157 150.909 105.336Z" fill="#4B4F51"/>
<path opacity="0.1" d="M152.383 102.488C152.345 102.772 152.279 103.052 152.188 103.325C152.343 103.12 152.483 102.904 152.606 102.679C152.734 102.434 152.841 102.179 152.925 101.916C152.761 102.121 152.58 102.313 152.383 102.488Z" fill="#4B4F51"/>
<path opacity="0.1" d="M155.332 96.798C155.294 97.0814 155.228 97.3607 155.137 97.6322C155.29 97.4246 155.427 97.2057 155.545 96.9775C155.675 96.728 155.782 96.468 155.866 96.2006C155.707 96.4149 155.528 96.6148 155.332 96.798Z" fill="#4B4F51"/>
<path opacity="0.1" d="M145.678 89.5998C147.187 89.1168 148.939 90.2984 149.589 92.2397C149.68 92.5204 149.746 92.8085 149.784 93.1006C150.12 93.3563 150.412 93.6608 150.653 94.0035C150.743 93.6231 150.879 93.2546 151.059 92.9059C151.128 92.7761 151.202 92.652 151.278 92.5242C151.056 92.2243 150.793 91.9558 150.496 91.7262C150.458 91.4347 150.392 91.1472 150.301 90.8673C149.647 88.926 147.895 87.7425 146.389 88.2273C145.529 88.5022 144.934 89.26 144.704 90.2182C144.968 89.9337 145.304 89.7206 145.678 89.5998Z" fill="#4B4F51"/>
<path opacity="0.1" d="M152.679 91.1269C152.662 90.8465 152.673 90.5651 152.714 90.287C152.333 90.6517 152.016 91.0755 151.777 91.5411C151.659 91.7697 151.559 92.0071 151.48 92.2512C151.805 91.807 152.211 91.4257 152.679 91.1269Z" fill="#4B4F51"/>
<path opacity="0.1" d="M154.802 87.0267C154.785 86.7463 154.796 86.4649 154.837 86.1868C154.456 86.5504 154.139 86.9736 153.9 87.439C153.782 87.6683 153.683 87.9064 153.603 88.151C153.927 87.706 154.333 87.3246 154.802 87.0267Z" fill="#4B4F51"/>
<path opacity="0.1" d="M149.434 108.183C149.396 108.467 149.33 108.748 149.239 109.021C149.56 108.586 149.807 108.103 149.968 107.591C149.808 107.803 149.63 108.001 149.434 108.183Z" fill="#4B4F51"/>
</g>
<path opacity="0.1" d="M168.157 71.3187C168.846 70.8762 169.402 70.262 169.766 69.5397C170.727 67.6881 170.33 65.6055 168.88 64.8897C167.431 64.1739 165.478 65.0958 164.517 66.9493C164.137 67.6658 163.96 68.4686 164.005 69.2743C163.322 69.7232 162.767 70.3356 162.396 71.0531C162.024 71.7707 161.847 72.5693 161.881 73.3727C161.192 73.8147 160.636 74.429 160.272 75.1517C160.154 75.3783 160.055 75.6139 159.977 75.8561C160.487 75.1345 161.228 74.5976 162.083 74.329C162.18 74.623 162.336 74.8953 162.542 75.13C162.748 75.3647 163 75.5573 163.282 75.6964C163.565 75.8356 163.873 75.9187 164.189 75.9409C164.504 75.963 164.822 75.9238 165.122 75.8255C165.411 76.6555 165.411 77.5553 165.122 78.3853C165.274 78.1797 165.411 77.9627 165.529 77.7363C165.908 77.0215 166.085 76.2209 166.041 75.417C166.725 74.969 167.28 74.3567 167.652 73.639C168.024 72.9213 168.2 72.1223 168.165 71.3187H168.157Z" fill="#4B4F51"/>
<path opacity="0.1" d="M191.499 45.0452C192.089 44.7766 192.659 44.4686 193.205 44.1232L186.882 39.6144L194.314 43.3501C195.817 42.1844 197.061 40.7314 197.969 39.08C198.877 37.4287 199.43 35.6139 199.594 33.7466L186.964 33.8726L199.621 31.8072C199.49 29.9381 198.969 28.1149 198.09 26.4495C197.211 24.7841 195.993 23.3117 194.509 22.1228C193.026 20.9339 191.309 20.0535 189.465 19.5358C187.62 19.018 185.687 18.8738 183.783 19.1121C181.879 19.3503 180.045 19.9659 178.394 20.9212C176.743 21.8764 175.31 23.151 174.182 24.6667C173.054 26.1824 172.255 27.9073 171.835 29.7352C171.415 31.5632 171.382 33.4558 171.738 35.2966C170.82 35.7133 169.951 36.2253 169.145 36.8237L175.745 45.782L167.821 37.9404C166.149 39.5433 164.912 41.5279 164.223 43.7147C163.535 45.9014 163.415 48.2213 163.876 50.4644C161.483 51.555 159.452 53.2809 158.015 55.4449C156.579 57.6089 155.795 60.1237 155.753 62.702C155.712 65.2802 156.414 67.8178 157.78 70.0249C159.146 72.232 161.12 74.0195 163.478 75.1831C165.835 76.3467 168.48 76.8395 171.111 76.6053C173.742 76.371 176.252 75.419 178.355 73.8582C180.458 72.2974 182.068 70.1906 183.002 67.7787C183.937 65.3668 184.157 62.747 183.638 60.2187C186.502 58.9172 188.835 56.7132 190.261 53.961C191.687 51.2089 192.123 48.0685 191.499 45.0452Z" fill="#1DB776"/>
<path opacity="0.1" d="M165.121 41.5481C163.691 44.2989 163.253 47.4406 163.879 50.4643C161.486 51.555 159.454 53.2809 158.018 55.4449C156.582 57.6089 155.798 60.1237 155.756 62.7019C155.715 65.2801 156.417 67.8178 157.783 70.0249C159.149 72.2319 161.123 74.0194 163.481 75.1831C165.838 76.3467 168.483 76.8395 171.114 76.6052C173.745 76.3709 176.255 75.419 178.358 73.8582C180.461 72.2973 182.071 70.1906 183.005 67.7786C183.939 65.3667 184.16 62.7469 183.641 60.2186C186.404 58.9664 165.829 40.1718 165.121 41.5481Z" fill="#4B4F51"/>
<path opacity="0.1" d="M180.989 21.6483C182.144 21.6483 183.08 20.7347 183.08 19.6077C183.08 18.4807 182.144 17.5671 180.989 17.5671C179.835 17.5671 178.899 18.4807 178.899 19.6077C178.899 20.7347 179.835 21.6483 180.989 21.6483Z" fill="#1DB776"/>
<path opacity="0.1" d="M193.2 22.9577C194.355 22.9577 195.291 22.0441 195.291 20.9172C195.291 19.7902 194.355 18.8766 193.2 18.8766C192.046 18.8766 191.11 19.7902 191.11 20.9172C191.11 22.0441 192.046 22.9577 193.2 22.9577Z" fill="#1DB776"/>
<path opacity="0.1" d="M197.909 41.2943C199.064 41.2943 200 40.3807 200 39.2537C200 38.1267 199.064 37.2131 197.909 37.2131C196.755 37.2131 195.819 38.1267 195.819 39.2537C195.819 40.3807 196.755 41.2943 197.909 41.2943Z" fill="#1DB776"/>
<path opacity="0.1" d="M191.553 50.451C192.708 50.451 193.644 49.5374 193.644 48.4104C193.644 47.2835 192.708 46.3699 191.553 46.3699C190.399 46.3699 189.463 47.2835 189.463 48.4104C189.463 49.5374 190.399 50.451 191.553 50.451Z" fill="#1DB776"/>
<path opacity="0.1" d="M182.871 69.469C184.026 69.469 184.962 68.5554 184.962 67.4284C184.962 66.3014 184.026 65.3878 182.871 65.3878C181.717 65.3878 180.781 66.3014 180.781 67.4284C180.781 68.5554 181.717 69.469 182.871 69.469Z" fill="#1DB776"/>
<path opacity="0.1" d="M182.871 69.469C184.026 69.469 184.962 68.5554 184.962 67.4284C184.962 66.3014 184.026 65.3878 182.871 65.3878C181.717 65.3878 180.781 66.3014 180.781 67.4284C180.781 68.5554 181.717 69.469 182.871 69.469Z" fill="#4B4F51"/>
<path opacity="0.1" d="M163.565 47.9294C164.72 47.9294 165.656 47.0158 165.656 45.8888C165.656 44.7619 164.72 43.8483 163.565 43.8483C162.411 43.8483 161.475 44.7619 161.475 45.8888C161.475 47.0158 162.411 47.9294 163.565 47.9294Z" fill="#1DB776"/>
<path opacity="0.1" d="M163.565 47.9294C164.72 47.9294 165.656 47.0158 165.656 45.8888C165.656 44.7619 164.72 43.8483 163.565 43.8483C162.411 43.8483 161.475 44.7619 161.475 45.8888C161.475 47.0158 162.411 47.9294 163.565 47.9294Z" fill="#4B4F51"/>
<path opacity="0.1" d="M161.335 79.4522C159.945 78.767 159.524 76.8257 160.336 75.0352C160.293 75.1077 160.252 75.1821 160.213 75.2604C159.253 77.112 159.65 79.1926 161.099 79.9085C162.548 80.6243 164.502 79.7023 165.46 77.8507C165.501 77.7744 165.536 77.6961 165.571 77.6197C164.576 79.3205 162.724 80.1394 161.335 79.4522Z" fill="#4B4F51"/>
<path opacity="0.1" d="M159.27 83.4381C157.882 82.7528 157.46 80.8115 158.273 79.019C158.23 79.0935 158.187 79.1679 158.148 79.2443C157.188 81.0959 157.585 83.1784 159.034 83.8924C160.483 84.6063 162.437 83.6881 163.397 81.8346C163.436 81.7583 163.473 81.6819 163.508 81.6036C162.511 83.3044 160.661 84.1233 159.27 83.4381Z" fill="#4B4F51"/>
<path opacity="0.1" d="M157.205 87.4217C155.817 86.7364 155.394 84.7951 156.208 83.0046C156.165 83.0772 156.122 83.1516 156.083 83.2299C155.123 85.0815 155.522 87.1621 156.971 87.8779C158.42 88.5938 160.372 87.6718 161.332 85.8202C161.371 85.7438 161.408 85.6656 161.443 85.5892C160.448 87.29 158.596 88.1089 157.205 87.4217Z" fill="#4B4F51"/>
<path opacity="0.1" d="M155.148 91.4171C153.758 90.7318 153.337 88.7905 154.149 87C154.106 87.0725 154.065 87.147 154.024 87.2233C153.066 89.0749 153.463 91.1575 154.912 91.8733C156.361 92.5892 158.315 91.6672 159.273 89.8137C159.314 89.7373 159.349 89.661 159.384 89.5827C158.383 91.2739 156.531 92.0928 155.148 91.4171Z" fill="#4B4F51"/>
<path opacity="0.1" d="M153.077 95.3912C151.687 94.7059 151.266 92.7646 152.078 90.9741C152.035 91.0467 151.994 91.1211 151.955 91.1994C150.994 93.051 151.391 95.1316 152.84 95.8475C154.29 96.5633 156.243 95.6413 157.203 93.7897C157.242 93.7133 157.28 93.6351 157.315 93.5587C156.321 95.2595 154.466 96.0784 153.077 95.3912Z" fill="#4B4F51"/>
<path opacity="0.1" d="M151.012 99.377C149.624 98.6918 149.201 96.7505 150.015 94.96C149.972 95.0325 149.929 95.1069 149.89 95.1833C148.929 97.0349 149.326 99.1174 150.777 99.8333C152.228 100.549 154.17 99.6252 155.148 97.7736C155.187 97.6973 155.224 97.6209 155.26 97.5426C154.252 99.2434 152.41 100.062 151.012 99.377Z" fill="#4B4F51"/>
<path opacity="0.1" d="M148.947 103.361C147.559 102.676 147.136 100.734 147.95 98.9437C147.907 99.0182 147.866 99.0907 147.825 99.169C146.866 101.021 147.263 103.101 148.713 103.817C150.162 104.533 152.115 103.611 153.074 101.759C153.115 101.683 153.15 101.605 153.185 101.528C152.19 103.229 150.338 104.048 148.947 103.361Z" fill="#4B4F51"/>
<path opacity="0.1" d="M146.884 107.347C145.493 106.661 145.073 104.72 145.884 102.929C145.841 103.002 145.8 103.076 145.761 103.153C144.801 105.004 145.198 107.087 146.647 107.803C148.096 108.519 150.05 107.597 151.01 105.743C151.049 105.667 151.084 105.59 151.12 105.512C150.124 107.213 148.272 108.024 146.884 107.347Z" fill="#4B4F51"/>
<path opacity="0.1" d="M145.526 109.965C144.138 109.278 143.715 107.339 144.529 105.546C144.486 105.621 144.443 105.695 144.404 105.772C143.444 107.623 143.841 109.706 145.29 110.42C146.739 111.134 148.692 110.215 149.653 108.362C149.692 108.286 149.729 108.209 149.764 108.131C148.767 109.832 146.915 110.651 145.526 109.965Z" fill="#4B4F51"/>
<path opacity="0.1" d="M182.838 92.2302C183.053 91.6271 183.185 90.9986 183.229 90.3614C183.372 90.3611 183.514 90.3319 183.646 90.2756C183.778 90.2192 183.896 90.137 183.993 90.0341C184.091 89.9311 184.165 89.8097 184.213 89.6773C184.26 89.5449 184.279 89.4044 184.268 89.2646C184.257 89.1248 184.217 88.9887 184.149 88.8648C184.082 88.7409 183.989 88.6319 183.877 88.5446C183.765 88.4573 183.635 88.3935 183.496 88.3573C183.357 88.3211 183.212 88.3132 183.07 88.3342C182.838 87.301 182.373 86.3314 181.708 85.4957C181.044 84.66 180.197 83.9792 179.23 83.5029C179.355 83.2614 179.376 82.9813 179.29 82.7243C179.203 82.4673 179.015 82.2543 178.768 82.1323C178.521 82.0103 178.234 81.9892 177.97 82.0737C177.707 82.1582 177.489 82.3413 177.364 82.5828C177.319 82.6686 177.287 82.7607 177.27 82.8558C176.123 82.6471 174.941 82.7089 173.823 83.0359C172.705 83.3629 171.683 83.9458 170.842 84.736C170.207 84.6357 169.561 84.6171 168.922 84.6806L168.075 88.443L168.024 84.8162C167.052 85.0241 166.134 85.4233 165.325 85.9894C164.517 86.5555 163.835 87.2766 163.322 88.1086C162.809 88.9406 162.475 89.866 162.34 90.8283C162.206 91.7906 162.274 92.7695 162.54 93.7052C162.806 94.641 163.265 95.5139 163.889 96.2707C164.513 97.0274 165.288 97.652 166.167 98.1064C167.046 98.5608 168.011 98.8354 169.003 98.9134C169.995 98.9913 170.993 98.8711 171.935 98.56C172.036 98.7375 172.189 98.8812 172.375 98.9723C172.567 99.0672 172.784 99.1022 172.996 99.0725C173.209 99.0428 173.407 98.9498 173.563 98.8062C173.72 98.6627 173.827 98.4754 173.871 98.2701C173.914 98.0648 173.892 97.8514 173.807 97.659C174.14 97.4354 174.454 97.1851 174.745 96.9107C176.272 97.153 177.838 96.9172 179.219 96.2372C180.6 95.5573 181.725 94.4679 182.433 93.1254L178.492 92.4783L182.838 92.2302Z" fill="#1DB776"/>
<g opacity="0.1">
<path opacity="0.1" d="M176.75 94.057C175.295 92.1825 174.403 89.9624 173.376 87.8322C172.964 86.9578 172.503 86.1064 171.994 85.2819L171.223 84.4058C171.094 84.5127 170.965 84.6234 170.832 84.7398C170.197 84.6395 169.552 84.6209 168.912 84.6845L168.065 88.4468L168.014 84.82C167.042 85.0279 166.124 85.4272 165.316 85.9932C164.507 86.5593 163.825 87.2804 163.312 88.1124C162.799 88.9444 162.465 89.8698 162.33 90.8321C162.196 91.7943 162.264 92.7733 162.53 93.709C162.796 94.6448 163.255 95.5177 163.879 96.2745C164.503 97.0312 165.278 97.6559 166.157 98.1102C167.037 98.5646 168.002 98.8392 168.993 98.9172C169.985 98.9952 170.983 98.8749 171.925 98.5638C172.026 98.7413 172.18 98.885 172.365 98.9761C172.557 99.071 172.774 99.106 172.986 99.0763C173.199 99.0466 173.397 98.9536 173.554 98.81C173.71 98.6665 173.817 98.4793 173.861 98.274C173.905 98.0686 173.882 97.8552 173.797 97.6628C174.131 97.4392 174.445 97.1889 174.736 96.9145C176.23 97.1507 177.763 96.9293 179.124 96.2808C178.216 95.6684 177.414 94.9175 176.75 94.057Z" fill="#4B4F51"/>
</g>
<path opacity="0.1" d="M150.985 86.0017C151.065 85.8461 151.104 85.6729 151.096 85.4986C151.088 85.3244 151.035 85.155 150.941 85.0065C150.848 84.8581 150.716 84.7357 150.56 84.6509C150.404 84.5661 150.228 84.5218 150.05 84.5223C149.753 82.9883 148.95 81.5915 147.762 80.5462C147.953 79.8174 148.026 79.0637 147.977 78.3128L144.134 77.6733L147.865 77.4443C147.798 77.1023 147.706 76.7655 147.59 76.4364C147.735 76.3388 147.853 76.2077 147.934 76.0546C148.028 75.8722 148.064 75.6663 148.037 75.4638C148.01 75.2612 147.921 75.0711 147.783 74.9182C147.644 74.7653 147.461 74.6565 147.258 74.6059C147.056 74.5553 146.842 74.5653 146.645 74.6344C145.657 73.2714 144.211 72.2894 142.558 71.859C140.905 71.4286 139.15 71.5771 137.597 72.2786C136.045 72.9801 134.793 74.1903 134.06 75.6989C133.327 77.2076 133.158 78.9193 133.584 80.5366C133.357 80.6298 133.173 80.7992 133.063 81.0138C132.967 81.1987 132.932 81.4077 132.96 81.613C132.989 81.8183 133.081 82.0101 133.225 82.1629C133.368 82.3158 133.556 82.4223 133.763 82.4683C133.97 82.5144 134.186 82.4977 134.383 82.4207C134.759 83.0356 135.226 83.5921 135.77 84.0718C135.374 85.5794 135.493 87.1721 136.11 88.6073L141.263 87.3016L136.668 89.661C137.48 90.9213 138.676 91.9022 140.088 92.4666C141.5 93.0309 143.057 93.1505 144.542 92.8085C146.026 92.4665 147.365 91.6801 148.369 90.5592C149.374 89.4384 149.994 88.0391 150.144 86.5572C150.321 86.5422 150.491 86.4833 150.638 86.3861C150.785 86.2889 150.905 86.1566 150.985 86.0017Z" fill="#1DB776"/>
<path opacity="0.1" d="M150.984 86.0016C151.065 85.846 151.103 85.6728 151.096 85.4986C151.088 85.3243 151.035 85.1549 150.941 85.0065C150.848 84.8581 150.716 84.7356 150.56 84.6508C150.404 84.566 150.228 84.5218 150.05 84.5223C149.753 82.9882 148.949 81.5914 147.762 80.5461C147.793 80.4259 147.82 80.3075 147.844 80.1873C147.707 80.2838 147.581 80.3931 147.466 80.5137C146.772 81.2562 146.416 82.2545 145.73 83.0047C144.92 83.8904 143.708 84.3524 142.497 84.4765C141.287 84.6005 140.068 84.4192 138.873 84.192C137.884 84.0011 136.881 83.7797 135.877 83.8733C135.78 83.8733 135.682 83.8943 135.592 83.9095C135.651 83.9649 135.709 84.0202 135.77 84.0737C135.374 85.5813 135.493 87.1739 136.11 88.6091L141.263 87.3016L136.667 89.6609C137.48 90.9212 138.676 91.9022 140.088 92.4665C141.499 93.0309 143.057 93.1504 144.541 92.8084C146.026 92.4664 147.365 91.68 148.369 90.5592C149.373 89.4383 149.994 88.0391 150.143 86.5571C150.321 86.5422 150.491 86.4833 150.638 86.3861C150.785 86.2888 150.904 86.1565 150.984 86.0016Z" fill="#4B4F51"/>
</g>
<g opacity="0.1">
<path opacity="0.1" d="M17.5011 97.5884C17.7514 96.8459 18.7664 96.5042 19.7676 96.8249C19.9117 96.871 20.0511 96.9297 20.1842 97.0005C20.2487 96.9833 20.3152 96.968 20.3797 96.9566C20.3248 96.7434 20.3037 96.5232 20.3172 96.3037C19.9735 96.0769 19.6948 95.7681 19.5076 95.4066C19.3204 95.0452 19.2308 94.6431 19.2475 94.2384C18.9007 94.0156 18.6212 93.7066 18.4378 93.3431C18.2467 92.983 18.157 92.5799 18.1777 92.1749C17.8313 91.9511 17.5519 91.6415 17.3681 91.2777C16.887 90.3462 17.0826 89.2982 17.8159 88.9356C18.5493 88.5729 19.531 89.0405 20.0141 89.9721C20.2048 90.3329 20.2939 90.7367 20.2722 91.1422C20.6168 91.3677 20.8962 91.676 21.0836 92.0374C21.2709 92.3987 21.3599 92.801 21.3419 93.2057C21.6864 93.4318 21.9657 93.7404 22.153 94.1021C22.3403 94.4637 22.4294 94.8662 22.4116 95.2711C22.7563 95.4966 23.0357 95.8048 23.223 96.1662C23.4103 96.5276 23.4993 96.9299 23.4813 97.3345C23.8285 97.5581 24.1086 97.8677 24.2929 98.2317C24.3809 98.4078 24.4465 98.5937 24.4885 98.7853C24.609 98.6122 24.756 98.4583 24.9246 98.329C24.9447 98.1818 24.9787 98.0368 25.0263 97.8957C25.3568 96.9184 26.2387 96.3228 26.9995 96.5595C27.7602 96.7962 28.1083 97.7946 27.7817 98.7719C27.6467 99.1916 27.3875 99.5629 27.0366 99.8389C27.0163 99.9855 26.9823 100.13 26.9349 100.27C26.7744 100.788 26.4169 101.227 25.9356 101.496C25.9734 101.621 26.0008 101.748 26.0178 101.878C26.2197 102.067 26.387 102.288 26.5125 102.532C26.6405 102.776 26.7239 103.04 26.7589 103.311C26.9616 103.5 27.1296 103.722 27.2557 103.966C27.3834 104.21 27.4667 104.473 27.5021 104.745C27.7052 104.934 27.8733 105.156 27.9988 105.401C28.4818 106.333 28.2824 107.383 27.5529 107.742C26.8235 108.1 25.8378 107.639 25.3548 106.705C25.2274 106.461 25.1441 106.198 25.1084 105.926C24.701 105.545 24.4388 105.039 24.3653 104.493C23.9578 104.111 23.6957 103.606 23.6221 103.059C23.4196 102.87 23.2516 102.649 23.1254 102.404C22.9989 102.16 22.9156 101.897 22.879 101.626C22.6771 101.436 22.5098 101.215 22.3842 100.971C22.2563 100.727 22.1729 100.464 22.1378 100.192C22.0119 100.078 21.8997 99.9495 21.8034 99.8103C21.4011 99.8906 20.9841 99.8656 20.5949 99.7378C20.4503 99.6907 20.3103 99.6313 20.1764 99.5602C19.7414 99.673 19.282 99.6571 18.8563 99.5144C17.8648 99.1918 17.2527 98.331 17.5011 97.5884Z" fill="#4B4F51"/>
<g opacity="0.1">
<path opacity="0.1" d="M19.2666 94.6622C19.3703 94.762 19.4843 94.8509 19.6069 94.9276C19.5903 95.2017 19.6275 95.4764 19.7164 95.737C19.6378 95.6328 19.5685 95.5223 19.5091 95.4067C19.3868 95.1733 19.3048 94.9217 19.2666 94.6622Z" fill="#4B4F51"/>
<path opacity="0.1" d="M18.1973 92.6006C18.3015 92.6992 18.4155 92.7874 18.5375 92.864C18.5211 93.1387 18.5583 93.414 18.6471 93.6752C18.4102 93.3579 18.2558 92.9891 18.1973 92.6006Z" fill="#4B4F51"/>
<path opacity="0.1" d="M20.6279 91.8314C20.6373 91.6899 20.632 91.548 20.6123 91.4076C20.8035 91.5918 20.9627 91.8052 21.0836 92.0394C21.1426 92.1551 21.1923 92.2751 21.2322 92.3983C21.0693 92.1738 20.8642 91.9814 20.6279 91.8314Z" fill="#4B4F51"/>
<path opacity="0.1" d="M27.4141 104.327C27.3285 104.21 27.2316 104.101 27.1246 104.002C27.1068 103.873 27.078 103.745 27.0386 103.62C27.1234 103.733 27.1987 103.851 27.2635 103.976C27.3228 104.089 27.3731 104.206 27.4141 104.327Z" fill="#4B4F51"/>
<path opacity="0.1" d="M26.665 102.893C26.5795 102.776 26.4826 102.667 26.3756 102.569C26.3596 102.439 26.3321 102.312 26.2935 102.187C26.4546 102.4 26.5788 102.637 26.6611 102.889L26.665 102.893Z" fill="#4B4F51"/>
<path opacity="0.1" d="M20.3386 96.7314C20.4413 96.8303 20.5547 96.918 20.6769 96.9929C20.6623 97.2124 20.6834 97.4327 20.7395 97.6457C20.6736 97.6571 20.6083 97.6718 20.5439 97.6896C20.41 97.6192 20.2699 97.5605 20.1254 97.514C19.1242 97.1933 18.1092 97.535 17.8609 98.2776C17.7986 98.4623 17.7871 98.6598 17.8276 98.8503C17.6667 98.6851 17.5523 98.4821 17.4954 98.261C17.4385 98.0399 17.4411 97.8083 17.503 97.5885C17.7533 96.8459 18.7683 96.5042 19.7695 96.8249C19.9135 96.871 20.053 96.9298 20.1861 97.0005C20.2506 96.9834 20.3171 96.9681 20.3816 96.9566C20.3628 96.8824 20.3485 96.8072 20.3386 96.7314Z" fill="#4B4F51"/>
<path opacity="0.1" d="M27.7812 105.046C27.8666 105.159 27.9418 105.278 28.0061 105.403C28.0659 105.519 28.1162 105.639 28.1567 105.762C28.0712 105.645 27.9743 105.535 27.8673 105.436C27.8499 105.304 27.8211 105.174 27.7812 105.046Z" fill="#4B4F51"/>
<path opacity="0.1" d="M21.6983 93.8987C21.7076 93.7573 21.7024 93.6154 21.6826 93.475C21.8743 93.6588 22.0335 93.8723 22.1539 94.1068C22.213 94.2218 22.2627 94.3412 22.3025 94.4638C22.1395 94.2398 21.9345 94.0481 21.6983 93.8987Z" fill="#4B4F51"/>
<path opacity="0.1" d="M23.245 102.317C23.2633 102.459 23.2954 102.6 23.3408 102.737C23.1778 102.519 23.0536 102.275 22.9731 102.017C23.0544 102.125 23.1454 102.225 23.245 102.317Z" fill="#4B4F51"/>
<path opacity="0.1" d="M24.7289 105.184C24.7486 105.326 24.7813 105.467 24.8266 105.604C24.7481 105.5 24.6787 105.389 24.6193 105.273C24.555 105.151 24.5014 105.023 24.459 104.892C24.5409 104.996 24.6311 105.094 24.7289 105.184Z" fill="#4B4F51"/>
<path opacity="0.1" d="M23.9877 103.75C24.006 103.893 24.038 104.033 24.0835 104.17C24.0056 104.066 23.9363 103.955 23.8762 103.84C23.8116 103.717 23.758 103.59 23.7158 103.458C23.7974 103.563 23.8884 103.661 23.9877 103.75Z" fill="#4B4F51"/>
<path opacity="0.1" d="M22.5018 100.881C22.5199 101.024 22.552 101.166 22.5976 101.303C22.5235 101.198 22.4581 101.088 22.4021 100.973C22.3365 100.851 22.2822 100.723 22.2397 100.591C22.3179 100.695 22.4056 100.792 22.5018 100.881Z" fill="#4B4F51"/>
<path opacity="0.1" d="M27.3649 97.2564C26.6042 97.0121 25.7222 97.6077 25.3937 98.5926C25.3461 98.7337 25.3121 98.8787 25.292 99.0259C25.1228 99.1544 24.9751 99.3077 24.8539 99.4803C24.8085 99.2883 24.7396 99.1025 24.6486 98.9267C24.6153 98.8618 24.5782 98.7988 24.5391 98.7358C24.6501 98.5854 24.7817 98.4505 24.9302 98.3349C24.9503 98.1877 24.9843 98.0427 25.0319 97.9016C25.3624 96.9243 26.2444 96.3287 27.0051 96.5654C27.2232 96.6472 27.416 96.7826 27.5647 96.9585C27.7134 97.1344 27.813 97.3449 27.8538 97.5695C27.7209 97.4261 27.5526 97.3183 27.3649 97.2564Z" fill="#4B4F51"/>
<path opacity="0.1" d="M23.8369 98.0256C23.8462 97.8842 23.841 97.7422 23.8213 97.6018C24.0129 97.7857 24.1722 97.9992 24.2926 98.2336C24.3516 98.3493 24.4013 98.4693 24.4412 98.5925C24.2788 98.3676 24.0736 98.1751 23.8369 98.0256Z" fill="#4B4F51"/>
<path opacity="0.1" d="M22.7676 95.9603C22.7769 95.8188 22.7716 95.6769 22.752 95.5365C22.9427 95.7211 23.1018 95.9344 23.2233 96.1683C23.2823 96.284 23.332 96.404 23.3719 96.5272C23.2089 96.3027 23.0039 96.1103 22.7676 95.9603Z" fill="#4B4F51"/>
<path opacity="0.1" d="M25.4725 106.617C25.4913 106.761 25.524 106.902 25.5703 107.039C25.4921 106.934 25.4228 106.823 25.363 106.707C25.2987 106.584 25.245 106.457 25.2026 106.325C25.2845 106.429 25.3748 106.527 25.4725 106.617Z" fill="#4B4F51"/>
</g>
<path opacity="0.1" d="M16.04 88.0461C15.6933 87.8233 15.4138 87.5143 15.2304 87.1508C14.7474 86.2174 14.9468 85.1694 15.6763 84.8087C16.4057 84.4479 17.3913 84.9117 17.8744 85.8452C18.0654 86.2052 18.1545 86.6085 18.1325 87.0134C18.477 87.2395 18.7563 87.5481 18.9436 87.9098C19.1309 88.2714 19.22 88.6739 19.2022 89.0788C19.5492 89.3018 19.8292 89.6107 20.0138 89.974C20.0725 90.0885 20.1222 90.2072 20.1624 90.3291C19.9034 89.9682 19.5304 89.7 19.1005 89.5655C19.0527 89.7146 18.9748 89.8529 18.8715 89.9723C18.7683 90.0917 18.6416 90.1899 18.4991 90.2609C18.3565 90.332 18.2009 90.3747 18.0412 90.3864C17.8816 90.3981 17.7211 90.3786 17.5693 90.3291C17.4243 90.7469 17.4243 91.1997 17.5693 91.6175C17.4958 91.5137 17.4305 91.4046 17.3737 91.2911C17.1826 90.9311 17.0929 90.5279 17.1136 90.1229C16.7695 89.8964 16.4906 89.5877 16.3033 89.2262C16.1161 88.8646 16.0268 88.4623 16.0439 88.0575L16.04 88.0461Z" fill="#4B4F51"/>
<path opacity="0.1" d="M4.28254 74.8101C3.98589 74.6747 3.69905 74.5197 3.42402 74.3462L6.60775 72.0747L2.86472 73.9549C2.10792 73.3675 1.48188 72.6356 1.02491 71.8039C0.567931 70.9722 0.289634 70.0582 0.207049 69.1179L6.5706 69.1828L0.193359 68.1405C0.24827 67.1909 0.502935 66.2625 0.941489 65.4132C1.38004 64.5638 1.99309 63.8117 2.74243 63.2037C3.49178 62.5957 4.36136 62.1449 5.29701 61.8793C6.23266 61.6136 7.21432 61.5389 8.18084 61.6598C9.14736 61.7807 10.078 62.0945 10.9148 62.5818C11.7517 63.0691 12.4767 63.7193 13.0449 64.4921C13.613 65.2648 14.012 66.1435 14.217 67.0733C14.422 68.0031 14.4287 68.9642 14.2366 69.8967C14.6985 70.1053 15.1364 70.3612 15.5429 70.6602L12.2184 75.1727L16.2098 71.2252C17.052 72.0328 17.6748 73.0325 18.0217 74.134C18.3686 75.2355 18.4288 76.4041 18.1967 77.534C19.4041 78.083 20.4289 78.9525 21.1538 80.0432C21.8788 81.1339 22.2746 82.4017 22.2962 83.7016C22.3177 85.0016 21.9639 86.2812 21.2754 87.3942C20.587 88.5071 19.5915 89.4085 18.4028 89.9952C17.2142 90.582 15.8804 90.8303 14.554 90.712C13.2276 90.5936 11.962 90.1132 10.9021 89.3258C9.84219 88.5384 9.03069 87.4758 8.56039 86.2594C8.09009 85.043 7.97997 83.722 8.24264 82.4474C6.80154 81.7919 5.62778 80.6828 4.90967 79.2982C4.19155 77.9136 3.9707 76.3337 4.28254 74.812V74.8101Z" fill="#1DB776"/>
<path opacity="0.1" d="M17.5711 73.0502C18.2924 74.4357 18.5129 76.0185 18.1969 77.5417C19.4043 78.0906 20.4291 78.9602 21.1541 80.0509C21.879 81.1416 22.2749 82.4094 22.2964 83.7093C22.3179 85.0093 21.9642 86.2889 21.2757 87.4019C20.5872 88.5148 19.5917 89.4162 18.4031 90.0029C17.2145 90.5897 15.8807 90.838 14.5542 90.7197C13.2278 90.6013 11.9623 90.1209 10.9023 89.3335C9.84243 88.5461 9.03093 87.4835 8.56063 86.2671C8.09033 85.0507 7.98021 83.7297 8.24288 82.4551C6.84853 81.8233 17.2133 72.3572 17.5711 73.0502Z" fill="#4B4F51"/>
<path opacity="0.1" d="M9.57653 63.0248C10.1587 63.0248 10.6306 62.5641 10.6306 61.9959C10.6306 61.4277 10.1587 60.967 9.57653 60.967C8.99439 60.967 8.52246 61.4277 8.52246 61.9959C8.52246 62.5641 8.99439 63.0248 9.57653 63.0248Z" fill="#1DB776"/>
<path opacity="0.1" d="M3.42419 63.6853C4.00634 63.6853 4.47826 63.2247 4.47826 62.6564C4.47826 62.0882 4.00634 61.6276 3.42419 61.6276C2.84204 61.6276 2.37012 62.0882 2.37012 62.6564C2.37012 63.2247 2.84204 63.6853 3.42419 63.6853Z" fill="#1DB776"/>
<path opacity="0.1" d="M1.05407 72.9222C1.63622 72.9222 2.10814 72.4616 2.10814 71.8934C2.10814 71.3251 1.63622 70.8645 1.05407 70.8645C0.471924 70.8645 0 71.3251 0 71.8934C0 72.4616 0.471924 72.9222 1.05407 72.9222Z" fill="#1DB776"/>
<path opacity="0.1" d="M4.25524 77.5359C4.83739 77.5359 5.30932 77.0753 5.30932 76.507C5.30932 75.9388 4.83739 75.4781 4.25524 75.4781C3.6731 75.4781 3.20117 75.9388 3.20117 76.507C3.20117 77.0753 3.6731 77.5359 4.25524 77.5359Z" fill="#1DB776"/>
<path opacity="0.1" d="M8.62829 87.1165C9.21044 87.1165 9.68236 86.6559 9.68236 86.0877C9.68236 85.5195 9.21044 85.0588 8.62829 85.0588C8.04614 85.0588 7.57422 85.5195 7.57422 86.0877C7.57422 86.6559 8.04614 87.1165 8.62829 87.1165Z" fill="#1DB776"/>
<path opacity="0.1" d="M8.62829 87.1165C9.21044 87.1165 9.68236 86.6559 9.68236 86.0877C9.68236 85.5195 9.21044 85.0588 8.62829 85.0588C8.04614 85.0588 7.57422 85.5195 7.57422 86.0877C7.57422 86.6559 8.04614 87.1165 8.62829 87.1165Z" fill="#4B4F51"/>
<path opacity="0.1" d="M18.3534 76.2647C18.9355 76.2647 19.4075 75.804 19.4075 75.2358C19.4075 74.6676 18.9355 74.2069 18.3534 74.2069C17.7712 74.2069 17.2993 74.6676 17.2993 75.2358C17.2993 75.804 17.7712 76.2647 18.3534 76.2647Z" fill="#1DB776"/>
<path opacity="0.1" d="M18.3534 76.2647C18.9355 76.2647 19.4075 75.804 19.4075 75.2358C19.4075 74.6676 18.9355 74.2069 18.3534 74.2069C17.7712 74.2069 17.2993 74.6676 17.2993 75.2358C17.2993 75.804 17.7712 76.2647 18.3534 76.2647Z" fill="#4B4F51"/>
<path opacity="0.1" d="M19.4778 92.1444C20.1779 91.7989 20.3891 90.8216 19.9804 89.9187C20.0019 89.9569 20.0234 89.9931 20.043 90.0313C20.526 90.9647 20.3265 92.0127 19.5951 92.3735C18.8637 92.7343 17.882 92.2704 17.399 91.337C17.3794 91.2988 17.3599 91.2606 17.3423 91.2205C17.8449 92.0776 18.7777 92.4899 19.4778 92.1444Z" fill="#4B4F51"/>
<path opacity="0.1" d="M20.5164 94.1526C21.2165 93.8071 21.4297 92.8279 21.0209 91.9269C21.0424 91.9631 21.064 92.0013 21.0835 92.0395C21.5665 92.9729 21.3671 94.0209 20.6357 94.3817C19.9043 94.7425 18.9226 94.2786 18.4395 93.3452C18.418 93.307 18.4004 93.2669 18.3828 93.2287C18.8854 94.0896 19.8202 94.4981 20.5164 94.1526Z" fill="#4B4F51"/>
<path opacity="0.1" d="M21.5569 96.1587C22.257 95.8132 22.4702 94.8359 22.0595 93.933C22.083 93.9712 22.1025 94.0074 22.124 94.0475C22.6071 94.979 22.4056 96.0289 21.6762 96.3877C20.9468 96.7466 19.9631 96.2847 19.4801 95.3512C19.4585 95.3131 19.4409 95.2749 19.4233 95.2348C19.924 96.0919 20.8568 96.5042 21.5569 96.1587Z" fill="#4B4F51"/>
<path opacity="0.1" d="M22.597 98.1669C23.2971 97.8214 23.5102 96.8441 23.0995 95.9412C23.1211 95.9774 23.1426 96.0156 23.1621 96.0538C23.6471 96.9872 23.4457 98.0352 22.7162 98.3959C21.9868 98.7567 21.0012 98.2929 20.5181 97.3594C20.4986 97.3213 20.481 97.2812 20.4634 97.243C20.964 98.0982 21.8968 98.5124 22.597 98.1669Z" fill="#4B4F51"/>
<path opacity="0.1" d="M23.6375 100.173C24.3376 99.8275 24.5488 98.8502 24.1401 97.9492C24.1616 97.9855 24.1831 98.0237 24.2026 98.0618C24.6857 98.9953 24.4862 100.043 23.7568 100.404C23.0273 100.765 22.0417 100.299 21.5587 99.3675C21.5391 99.3274 21.5215 99.2892 21.502 99.2511C22.0045 100.106 22.9374 100.519 23.6375 100.173Z" fill="#4B4F51"/>
<path opacity="0.1" d="M24.678 102.181C25.3781 101.836 25.5893 100.858 25.1806 99.9554C25.2021 99.9936 25.2236 100.03 25.2432 100.068C25.7262 101.002 25.5267 102.049 24.7973 102.41C24.0678 102.771 23.0822 102.307 22.5992 101.374C22.5796 101.336 22.5601 101.297 22.5425 101.257C23.0451 102.107 23.9779 102.527 24.678 102.181Z" fill="#4B4F51"/>
<path opacity="0.1" d="M25.7185 104.189C26.4167 103.844 26.6298 102.865 26.2211 101.964C26.2426 102 26.2641 102.038 26.2837 102.076C26.7667 103.01 26.5672 104.058 25.8359 104.418C25.1045 104.779 24.1228 104.313 23.6397 103.382C23.6202 103.342 23.6006 103.304 23.583 103.265C24.0856 104.121 25.0184 104.535 25.7185 104.189Z" fill="#4B4F51"/>
<path opacity="0.1" d="M26.7566 106.196C27.4567 105.85 27.6699 104.873 27.2592 103.97C27.2827 104.008 27.3022 104.044 27.3237 104.084C27.8068 105.016 27.6053 106.066 26.8759 106.425C26.1465 106.784 25.1628 106.322 24.6798 105.388C24.6582 105.35 24.6406 105.312 24.623 105.272C25.1256 106.129 26.0565 106.541 26.7566 106.196Z" fill="#4B4F51"/>
<path opacity="0.1" d="M27.4466 107.515C28.1467 107.169 28.3579 106.192 27.9492 105.289C27.9707 105.327 27.9922 105.363 28.0117 105.403C28.4948 106.335 28.2953 107.385 27.5659 107.744C26.8364 108.102 25.8508 107.641 25.3677 106.707C25.3482 106.669 25.3286 106.631 25.311 106.591C25.8078 107.452 26.7406 107.86 27.4466 107.515Z" fill="#4B4F51"/>
<path opacity="0.1" d="M8.64603 98.5811C8.53742 98.2775 8.47163 97.9609 8.45047 97.64C8.37816 97.6398 8.30668 97.625 8.24049 97.5966C8.17429 97.5681 8.11482 97.5267 8.06577 97.4748C8.01672 97.423 7.97916 97.3618 7.95542 97.2951C7.93168 97.2284 7.92228 97.1577 7.92781 97.0873C7.93333 97.0169 7.95366 96.9484 7.98753 96.8861C8.0214 96.8237 8.06808 96.7688 8.12465 96.7248C8.18122 96.6809 8.24647 96.6488 8.31633 96.6305C8.38619 96.6123 8.45915 96.6083 8.53065 96.6188C8.64799 96.0985 8.88241 95.6102 9.21692 95.1893C9.55143 94.7684 9.97766 94.4253 10.4648 94.185C10.4017 94.0632 10.3909 93.922 10.4345 93.7924C10.4781 93.6628 10.5727 93.5555 10.6975 93.494C10.8222 93.4325 10.9669 93.4218 11.0996 93.4644C11.2324 93.507 11.3424 93.5994 11.4054 93.7211C11.4283 93.7643 11.4441 93.8106 11.4523 93.8586C12.031 93.7549 12.6266 93.7874 13.1899 93.9534C13.7531 94.1194 14.2676 94.414 14.6908 94.813C15.0141 94.7613 15.3429 94.7524 15.6686 94.7863L16.0949 96.6799L16.1047 94.8531C16.5896 94.9625 17.0468 95.1666 17.4487 95.4531C17.8506 95.7396 18.1889 96.1026 18.4432 96.5202C18.6975 96.9377 18.8625 97.4012 18.9284 97.8827C18.9942 98.3642 18.9595 98.8538 18.8263 99.3218C18.6931 99.7899 18.4642 100.227 18.1534 100.606C17.8426 100.986 17.4563 101.3 17.0178 101.529C16.5792 101.759 16.0976 101.9 15.6019 101.943C15.1062 101.986 14.6067 101.931 14.1335 101.78C14.082 101.869 14.0052 101.941 13.9125 101.988C13.8158 102.036 13.7065 102.053 13.5993 102.038C13.4922 102.023 13.3923 101.977 13.3134 101.904C13.2344 101.832 13.1801 101.738 13.1578 101.634C13.1356 101.531 13.1464 101.423 13.1889 101.326C13.0212 101.212 12.8636 101.084 12.7176 100.944C11.9484 101.066 11.1594 100.947 10.4639 100.604C9.76829 100.261 9.20178 99.7119 8.84551 99.0354L10.8304 98.709L8.64603 98.5811Z" fill="#1DB776"/>
<g opacity="0.1">
<path opacity="0.1" d="M11.712 99.5011C12.4453 98.5467 12.8951 97.4396 13.4114 96.3668C13.6182 95.9253 13.8506 95.4958 14.1076 95.0802L14.4987 94.6393C14.5652 94.6946 14.6297 94.75 14.6943 94.8073C15.0175 94.7556 15.3464 94.7466 15.6721 94.7805L16.0984 96.6741L16.1043 94.8531C16.5892 94.9625 17.0463 95.1666 17.4482 95.4531C17.8501 95.7396 18.1884 96.1026 18.4427 96.5201C18.697 96.9377 18.8621 97.4012 18.9279 97.8827C18.9938 98.3642 18.9591 98.8537 18.8259 99.3218C18.6927 99.7898 18.4638 100.227 18.1529 100.606C17.8421 100.985 17.4558 101.299 17.0173 101.529C16.5788 101.759 16.0972 101.9 15.6015 101.943C15.1058 101.986 14.6063 101.931 14.133 101.78C14.0816 101.869 14.0048 101.941 13.912 101.988C13.8154 102.036 13.7061 102.053 13.5989 102.038C13.4917 102.023 13.3919 101.976 13.3129 101.904C13.2339 101.832 13.1796 101.738 13.1574 101.634C13.1351 101.531 13.146 101.423 13.1885 101.326C13.0208 101.212 12.8631 101.084 12.7172 100.944C11.9639 101.062 11.1916 100.951 10.5054 100.625C10.9669 100.316 11.3744 99.9368 11.712 99.5011Z" fill="#4B4F51"/>
</g>
<path opacity="0.1" d="M24.6916 95.4429C24.6603 95.3828 24.6415 95.3172 24.6363 95.25C24.631 95.1827 24.6395 95.1152 24.6611 95.0511C24.6827 94.9871 24.7171 94.9278 24.7623 94.8768C24.8075 94.8258 24.8625 94.784 24.9243 94.7538C24.9981 94.7169 25.0799 94.6979 25.1629 94.6984C25.312 93.9254 25.7166 93.2214 26.3147 92.6941C26.218 92.3273 26.1817 91.9478 26.2072 91.5698L28.1413 91.253L26.2619 91.1365C26.296 90.9641 26.343 90.7944 26.4027 90.6288C26.3289 90.5808 26.2689 90.515 26.2287 90.4379C26.1816 90.3459 26.1639 90.2423 26.1776 90.1404C26.1913 90.0385 26.236 89.943 26.3058 89.866C26.3756 89.7891 26.4673 89.7343 26.5693 89.7086C26.6712 89.6829 26.7787 89.6876 26.8779 89.722C27.2233 89.2424 27.6849 88.8535 28.2214 88.5901C28.8534 88.277 29.5645 88.1486 30.2695 88.2201C30.9744 88.2916 31.6432 88.56 32.1958 88.9932C32.7484 89.4263 33.1612 90.0059 33.3848 90.6623C33.6085 91.3188 33.6334 92.0242 33.4566 92.6941C33.5485 92.7326 33.6273 92.7958 33.6837 92.8764C33.7401 92.957 33.7719 93.0517 33.7751 93.1492C33.7784 93.2468 33.7531 93.3433 33.7023 93.4273C33.6514 93.5113 33.577 93.5795 33.4879 93.6238C33.4211 93.6568 33.3478 93.6756 33.2729 93.6789C33.1981 93.6822 33.1234 93.6699 33.0538 93.6428C32.865 93.9517 32.6297 94.231 32.3556 94.4713C32.556 95.2325 32.4963 96.0369 32.1855 96.7619L29.5982 96.0976L31.9117 97.2869C31.5643 97.8279 31.0758 98.269 30.4963 98.565C29.9167 98.861 29.2669 99.0012 28.6135 98.9713C27.9601 98.9414 27.3266 98.7424 26.778 98.3948C26.2294 98.0471 25.7853 97.5633 25.4914 96.9929C25.2868 96.5959 25.1582 96.1657 25.112 95.7235C25.0232 95.7157 24.938 95.6858 24.8644 95.6366C24.7908 95.5875 24.7313 95.5208 24.6916 95.4429Z" fill="#1DB776"/>
<path opacity="0.1" d="M24.6916 95.443C24.6603 95.3829 24.6415 95.3173 24.6363 95.25C24.631 95.1828 24.6395 95.1152 24.6611 95.0512C24.6827 94.9871 24.7171 94.9279 24.7623 94.8769C24.8075 94.8259 24.8625 94.784 24.9243 94.7539C24.9981 94.717 25.0799 94.698 25.1629 94.6985C25.312 93.9255 25.7166 93.2214 26.3147 92.6942C26.2991 92.635 26.2854 92.5739 26.2737 92.5148C26.3438 92.5636 26.4093 92.6185 26.4692 92.6789C26.8193 93.0607 26.9992 93.5551 27.3434 93.9331C27.7746 94.3673 28.3544 94.6316 28.9724 94.6756C29.5845 94.7167 30.1995 94.6685 30.797 94.5324C31.2897 94.4085 31.7981 94.3539 32.3067 94.3702L32.4514 94.3893L32.3615 94.4714C32.5619 95.2326 32.5021 96.0369 32.1913 96.762L29.5982 96.0977L31.9117 97.2869C31.5643 97.828 31.0758 98.2691 30.4963 98.5651C29.9167 98.8611 29.2669 99.0013 28.6135 98.9714C27.9601 98.9415 27.3266 98.7425 26.778 98.3948C26.2294 98.0472 25.7853 97.5634 25.4914 96.993C25.2868 96.5959 25.1582 96.1657 25.112 95.7236C25.0232 95.7157 24.938 95.6858 24.8644 95.6367C24.7908 95.5876 24.7313 95.5209 24.6916 95.443Z" fill="#4B4F51"/>
</g>
<path opacity="0.1" d="M67.7323 9.9089C66.9592 9.76564 66.1598 9.85071 65.4365 10.1532C65.0025 10.342 64.5328 10.4395 64.0578 10.4395C63.5827 10.4395 63.113 10.342 62.6791 10.1532C62.1662 9.9338 61.6106 9.82578 61.0508 9.83666C60.4909 9.84753 59.9402 9.97705 59.4367 10.2162C59.1491 10.3645 58.829 10.4424 58.5038 10.4434C57.1897 10.4434 56.0965 9.15108 55.8696 7.44647C56.1317 7.25899 56.3547 7.02447 56.5267 6.75547C57.2972 5.54334 58.4823 4.76453 59.8297 4.76453C61.1771 4.76453 62.3505 5.52807 63.121 6.73256C63.3512 7.09428 63.6729 7.3921 64.0551 7.59736C64.4373 7.80263 64.8672 7.90843 65.3035 7.9046H65.3387C66.3751 7.89887 67.2806 8.71777 67.7323 9.9089Z" fill="#1DB776"/>
<path opacity="0.1" d="M71.7257 4.56408L69.6019 5.87929L70.8907 3.58865C70.5252 3.3044 70.0731 3.14722 69.6058 3.14198H69.5726C69.4252 3.14374 69.278 3.13288 69.1326 3.10953L68.411 3.5562L68.7199 3.00836C68.2114 2.83562 67.7711 2.5119 67.4605 2.08257L66.1679 2.87092L66.9814 1.42592C66.2285 0.542115 65.2116 0 64.0949 0C62.7553 0 61.5526 0.778814 60.79 1.99094C60.5617 2.35299 60.2395 2.64966 59.8558 2.85081C59.4721 3.05197 59.0408 3.15045 58.6055 3.13625H58.541C57.0626 3.13625 55.8618 4.77215 55.8618 6.79363C55.8618 8.81511 57.0626 10.4491 58.541 10.4491C58.8662 10.4481 59.1863 10.3702 59.4738 10.2219C59.9773 9.98256 60.5282 9.8531 61.0881 9.84255C61.6481 9.832 62.2036 9.94062 62.7162 10.1609C63.1503 10.349 63.62 10.4462 64.0949 10.4462C64.5699 10.4462 65.0396 10.349 65.4736 10.1609C65.9823 9.9453 66.5326 9.83918 67.087 9.84972C67.6414 9.86026 68.187 9.98721 68.6867 10.2219C68.972 10.3662 69.2884 10.4421 69.6097 10.4434C71.0901 10.4434 72.2889 8.80748 72.2889 6.7879C72.2941 6.01238 72.1005 5.24791 71.7257 4.56408Z" fill="#1DB776"/>
<path opacity="0.1" d="M23.5357 36.3542C22.4314 36.1503 21.2899 36.2712 20.2561 36.7016C19.6357 36.9701 18.9644 37.1079 18.2858 37.1063C17.6072 37.1047 16.9365 36.9635 16.3175 36.6921C15.5851 36.3786 14.7916 36.2243 13.992 36.2398C13.1924 36.2553 12.4058 36.4402 11.6866 36.7818C11.2754 36.9933 10.8178 37.1046 10.3529 37.1063C8.47554 37.1063 6.91301 35.2604 6.58838 32.8247C6.96353 32.5579 7.28228 32.2228 7.52707 31.8379C8.62808 30.1065 10.3334 28.9937 12.2479 28.9937C14.1624 28.9937 15.8462 30.0932 16.9414 31.8054C17.2705 32.3244 17.7317 32.7513 18.28 33.0446C18.8283 33.338 19.4451 33.4878 20.0703 33.4795H20.1192C21.6016 33.4776 22.8962 34.6477 23.5357 36.3542Z" fill="#1DB776"/>
<path opacity="0.1" d="M29.2461 28.7092L26.211 30.5875L28.0531 27.3176C27.5311 26.9108 26.8848 26.6858 26.2168 26.6782H26.1679C25.9571 26.6812 25.7463 26.6658 25.5382 26.6323L24.5135 27.2794L24.9555 26.4968C24.2262 26.2481 23.5964 25.7803 23.1563 25.1606L21.3141 26.3059L22.4738 24.2253C21.3963 22.9635 19.9452 22.1904 18.3494 22.1904C16.4349 22.1904 14.7296 23.3014 13.6286 25.0327C13.3025 25.5522 12.8411 25.9781 12.2914 26.2668C11.7417 26.5555 11.1235 26.6968 10.4996 26.6762H10.396C8.28196 26.6762 6.56885 29.0146 6.56885 31.9008C6.56885 34.787 8.28196 37.1253 10.396 37.1253C10.8611 37.1241 11.319 37.0121 11.7297 36.7989C12.449 36.4576 13.2356 36.273 14.0352 36.2579C14.8348 36.2427 15.6283 36.3974 16.3606 36.7111C16.9796 36.9826 17.6502 37.1237 18.3288 37.1253C19.0074 37.127 19.6788 36.9891 20.2992 36.7207C21.0261 36.4127 21.8123 36.261 22.6046 36.2758C23.3969 36.2906 24.1766 36.4716 24.8909 36.8066C25.2978 37.0144 25.7498 37.1237 26.209 37.1253C28.323 37.1253 30.0361 34.7851 30.0361 31.9008C30.0509 30.7891 29.7792 29.6916 29.2461 28.7092Z" fill="#1DB776"/>
<path opacity="0.1" d="M146.274 17.3534C147.047 17.2102 147.846 17.2953 148.57 17.5977C149.003 17.7865 149.473 17.8841 149.948 17.8841C150.422 17.8841 150.892 17.7865 151.325 17.5977C151.838 17.3783 152.394 17.2703 152.954 17.2811C153.513 17.292 154.064 17.4215 154.568 17.6607C154.855 17.8087 155.175 17.8867 155.5 17.8879C156.815 17.8879 157.91 16.5956 158.137 14.891C157.874 14.704 157.651 14.4694 157.48 14.1999C156.713 12.984 155.514 12.1995 154.171 12.1995C152.827 12.1995 151.652 12.963 150.881 14.1675C150.652 14.5308 150.33 14.8301 149.947 15.0365C149.564 15.2428 149.132 15.3491 148.695 15.3453H148.662C147.621 15.3433 146.714 16.1623 146.274 17.3534Z" fill="#1DB776"/>
<path opacity="0.1" d="M142.269 12.0086L144.392 13.32L143.102 11.0294C143.467 10.7454 143.919 10.5882 144.387 10.5827H144.422C144.569 10.5844 144.716 10.5735 144.862 10.5503L145.582 10.9969L145.273 10.4491C145.785 10.2792 146.229 9.95676 146.544 9.52712L147.832 10.325L147.017 8.88002C147.772 7.99622 148.777 7.4541 149.905 7.4541C151.245 7.4541 152.448 8.23292 153.21 9.44504C153.438 9.80723 153.761 10.104 154.144 10.3052C154.528 10.5064 154.959 10.6047 155.395 10.5904H155.465C156.946 10.5904 158.144 12.2262 158.144 14.2477C158.144 16.2692 156.946 17.9032 155.465 17.9032C155.14 17.9018 154.82 17.8239 154.532 17.676C154.029 17.4367 153.478 17.3072 152.918 17.2966C152.358 17.2861 151.803 17.3947 151.29 17.615C150.856 17.8031 150.387 17.9003 149.912 17.9003C149.438 17.9003 148.968 17.8031 148.534 17.615C148.025 17.3994 147.475 17.2932 146.92 17.3038C146.365 17.3143 145.819 17.4413 145.319 17.676C145.034 17.8205 144.718 17.8964 144.396 17.8975C142.918 17.8975 141.717 16.2616 141.717 14.242C141.707 13.4642 141.896 12.6964 142.269 12.0086Z" fill="#1DB776"/>
<path opacity="0.1" d="M120.393 148.295C132.814 148.295 142.883 146.586 142.883 144.478C142.883 142.369 132.814 140.66 120.393 140.66C107.973 140.66 97.9038 142.369 97.9038 144.478C97.9038 146.586 107.973 148.295 120.393 148.295Z" fill="#1DB776"/>
<path d="M108.622 126.344L73.7754 125.906L73.879 125.034L75.5628 110.643H106.166L108.417 125.034L108.589 126.126L108.622 126.344Z" fill="#D0D2D5"/>
<path opacity="0.1" d="M108.589 126.126H91.1999L73.7754 125.906L73.879 125.034H108.417L108.589 126.126Z" fill="#4B4F51"/>
<path d="M114.208 125.254H67.9673V126.344H114.208V125.254Z" fill="#D0D2D5"/>
<path d="M158.324 24.2101C158.326 23.4579 158.023 22.7355 157.48 22.2015C156.938 21.6675 156.2 21.3656 155.429 21.3621H26.2967C25.9148 21.3638 25.537 21.439 25.1849 21.5832C24.8327 21.7275 24.5132 21.9381 24.2444 22.2029C23.9757 22.4677 23.763 22.7816 23.6185 23.1266C23.474 23.4717 23.4006 23.8411 23.4024 24.2139V100.616H158.324V24.2101Z" fill="#4B4F51"/>
<path d="M23.4028 99.8524V108.801C23.4028 109.55 23.7078 110.269 24.2506 110.799C24.7933 111.329 25.5295 111.626 26.2971 111.626H155.43C156.197 111.626 156.934 111.329 157.476 110.799C158.019 110.269 158.324 109.55 158.324 108.801V99.8524H23.4028Z" fill="#D0D2D5"/>
<path d="M153.41 26.1533H28.9883V94.836H153.41V26.1533Z" fill="white"/>
<path d="M91.5343 108.23C91.9912 108.231 92.4422 108.13 92.8531 107.935C93.2641 107.74 93.6243 107.457 93.9064 107.106C93.9922 106.999 94.0706 106.887 94.1411 106.77L92.4847 106.497L94.2741 106.509C94.4457 106.144 94.5392 105.75 94.5489 105.349C94.5587 104.948 94.4845 104.55 94.3308 104.178L91.9313 105.392L94.145 103.804C93.9371 103.455 93.658 103.152 93.3249 102.913C92.9918 102.673 92.6119 102.504 92.2088 102.414C91.8057 102.324 91.388 102.317 90.9817 102.391C90.5754 102.466 90.1891 102.621 89.8468 102.847C89.5046 103.074 89.2137 103.366 88.9922 103.707C88.7707 104.048 88.6234 104.429 88.5593 104.828C88.4953 105.227 88.5159 105.634 88.62 106.025C88.724 106.415 88.9092 106.781 89.1641 107.098C89.4452 107.45 89.8048 107.735 90.2154 107.931C90.6261 108.127 91.0771 108.23 91.5343 108.23Z" fill="#1DB776"/>
<path opacity="0.1" d="M94.5498 111.624L108.452 125.254L106.319 111.624H94.5498Z" fill="#4B4F51"/>
<path opacity="0.1" d="M153.447 26.1609H28.8901V30.1733H153.447V26.1609Z" fill="#4B4F51"/>
<path opacity="0.3" d="M109.551 26.8596H72.2497C72.187 26.8596 72.1362 26.9092 72.1362 26.9703V29.1903C72.1362 29.2515 72.187 29.301 72.2497 29.301H109.551C109.614 29.301 109.664 29.2515 109.664 29.1903V26.9703C109.664 26.9092 109.614 26.8596 109.551 26.8596Z" fill="#1DB776"/>
<path d="M108.55 28.3332H108.458L108.425 28.3045C108.539 28.1711 108.601 28.0029 108.601 27.8292C108.6 27.6867 108.555 27.5477 108.473 27.4297C108.391 27.3118 108.275 27.2202 108.14 27.1665C108.005 27.1128 107.856 27.0995 107.713 27.1281C107.57 27.1568 107.439 27.2261 107.336 27.3274C107.234 27.4288 107.164 27.5575 107.136 27.6975C107.108 27.8374 107.124 27.9822 107.18 28.1137C107.236 28.2452 107.331 28.3574 107.453 28.4362C107.575 28.515 107.718 28.5569 107.864 28.5565C108.042 28.5559 108.214 28.4944 108.351 28.3828L108.384 28.4114V28.5011L108.957 29.0604L109.127 28.8925L108.55 28.3332ZM107.864 28.3332C107.762 28.3335 107.662 28.3043 107.576 28.2492C107.491 28.194 107.425 28.1154 107.385 28.0234C107.346 27.9314 107.335 27.83 107.355 27.7321C107.375 27.6342 107.424 27.5442 107.496 27.4736C107.568 27.4029 107.66 27.3547 107.76 27.3351C107.861 27.3155 107.964 27.3254 108.059 27.3635C108.153 27.4016 108.234 27.4661 108.291 27.5491C108.348 27.632 108.378 27.7295 108.378 27.8292C108.379 27.8954 108.366 27.961 108.34 28.0222C108.314 28.0835 108.277 28.1391 108.229 28.186C108.181 28.2329 108.124 28.27 108.061 28.2953C107.999 28.3205 107.931 28.3334 107.864 28.3332Z" fill="#4B4F51"/>
<path opacity="0.8" d="M31.1294 28.9021C31.5452 28.9021 31.8823 28.573 31.8823 28.1672C31.8823 27.7613 31.5452 27.4323 31.1294 27.4323C30.7136 27.4323 30.3765 27.7613 30.3765 28.1672C30.3765 28.573 30.7136 28.9021 31.1294 28.9021Z" fill="#FA5959"/>
<path opacity="0.8" d="M33.2002 28.9021C33.616 28.9021 33.9531 28.573 33.9531 28.1672C33.9531 27.7613 33.616 27.4323 33.2002 27.4323C32.7844 27.4323 32.4473 27.7613 32.4473 28.1672C32.4473 28.573 32.7844 28.9021 33.2002 28.9021Z" fill="#FED253"/>
<path opacity="0.8" d="M35.2734 28.9021C35.6892 28.9021 36.0263 28.573 36.0263 28.1672C36.0263 27.7613 35.6892 27.4323 35.2734 27.4323C34.8576 27.4323 34.5205 27.7613 34.5205 28.1672C34.5205 28.573 34.8576 28.9021 35.2734 28.9021Z" fill="#8CCF4D"/>
<path d="M133.177 142.252C133.064 142.076 132.92 141.921 132.753 141.792C131.898 141.004 131.501 139.847 131.29 138.713C131.079 137.579 131.018 136.422 130.68 135.313C130.496 134.745 130.266 134.191 129.992 133.658C129.796 133.25 129.55 132.45 129.192 132.164C129.122 132.104 129.037 132.064 128.945 132.047C128.776 131.696 128.535 131.383 128.238 131.127C127.678 130.633 126.996 130.239 126.622 129.6C126.52 129.378 126.393 129.168 126.245 128.972C125.993 128.701 125.594 128.59 125.361 128.304C125.058 127.934 125.126 127.403 125.165 126.931C125.204 126.46 125.165 125.895 124.747 125.647C124.496 125.496 124.174 125.511 123.914 125.378C123.523 125.187 123.368 124.706 123.376 124.276C123.384 123.847 123.521 123.429 123.556 122.999C123.665 121.632 122.742 120.273 123.098 118.949C123.233 118.447 123.542 118.011 123.771 117.544C123.851 117.388 123.916 117.226 123.967 117.059C124.577 117.295 125.218 117.446 125.871 117.507C124.794 115.148 125.068 112.407 124.565 109.872L124.629 109.786C125.137 109.132 125.425 108.342 125.455 107.522C125.455 106.579 125.003 105.697 124.8 104.773C124.626 103.989 124.633 103.168 124.408 102.397C124.252 101.918 124.045 101.456 123.791 101.019C123.547 100.577 123.291 100.142 123.022 99.7149C122.772 98.9055 122.521 98.0962 122.269 97.2868C121.917 96.151 121.555 94.9962 120.871 94.015C120.62 93.6562 120.544 92.927 120.159 92.7094C119.846 92.5514 119.491 92.4907 119.142 92.5357C118.598 92.2379 118.121 91.8084 118.053 91.2205C118.046 91.092 118.059 90.9633 118.092 90.8387H118.158C119.019 90.7623 119.455 90.0217 119.903 89.3727C120.626 88.3228 120.351 86.9026 119.903 85.7077C119.792 85.3305 119.591 84.9845 119.316 84.6979C118.688 84.1252 117.695 84.2512 116.885 83.9744C116.613 83.8828 116.359 83.7435 116.082 83.6785C115.544 83.5564 114.981 83.7282 114.488 83.9706C113.995 84.213 113.535 84.5261 113.019 84.717C112.503 84.9079 111.865 85.0587 111.738 85.576C111.702 85.7502 111.717 85.9307 111.781 86.0971C111.9 86.429 112.109 86.7232 112.385 86.9484C112.166 87.3908 112.047 87.8745 112.037 88.3661C112.027 88.8577 112.127 89.3455 112.329 89.7959C112.531 90.2463 112.831 90.6485 113.207 90.9749C113.584 91.3012 114.029 91.5439 114.511 91.6862C114.66 91.9191 114.799 92.1558 114.926 92.3982C115.153 92.8258 115.344 93.3297 115.266 93.7879C115.125 93.9346 114.994 94.0909 114.875 94.2555C114.314 95.0191 113.995 95.9143 113.702 96.8077C113.308 97.9484 112.992 99.1135 112.757 100.295C112.28 101.286 111.697 102.233 111.351 103.273C110.731 103.274 110.114 103.193 109.517 103.032L107.866 102.668C107.291 102.54 106.693 102.403 106.243 102.032C106.004 101.841 105.819 101.587 105.576 101.398C105.334 101.21 104.847 100.988 104.581 101.145C104.532 101.173 104.487 101.207 104.446 101.246C104.203 100.767 103.972 100.291 103.691 99.8275C103.286 99.1785 102.684 98.5848 101.921 98.4608C101.455 98.3876 100.978 98.4959 100.593 98.7624C100.147 99.0716 99.8676 99.7168 100.202 100.152C100.286 100.249 100.376 100.339 100.474 100.423C100.7 100.678 100.902 100.952 101.078 101.242C101.709 102.106 102.651 102.703 103.716 102.914L103.648 103.105C103.509 103.502 103.214 103.981 103.288 104.393L110.629 106.846C111.1 107.033 111.6 107.141 112.108 107.165C112.306 107.164 112.503 107.138 112.694 107.089V107.455V107.471C112.714 109.988 112.303 112.489 112.227 115.005C112.213 115.465 112.227 115.959 112.524 116.318C112.857 116.711 113.447 116.79 113.962 116.7C114.086 116.68 114.207 116.653 114.325 116.62C114.499 117.253 114.625 117.898 114.701 118.55L115.186 121.959C115.248 122.308 115.274 122.662 115.262 123.016C115.205 123.816 114.773 124.532 114.46 125.271C114.147 126.009 113.962 126.893 114.372 127.584C114.501 127.798 114.679 127.979 114.795 128.201C114.941 128.544 115.008 128.914 114.99 129.285C115.02 130.313 115.049 131.343 115.076 132.374C114.991 132.36 114.903 132.377 114.83 132.421C114.423 132.731 114.468 134.202 114.439 134.658C114.408 135.422 114.439 136.201 114.396 136.972C114.345 138.011 114.174 139.042 113.885 140.043C113.815 140.369 113.661 140.672 113.438 140.923C113.209 141.118 112.936 141.256 112.642 141.326C111.667 141.624 110.648 141.759 109.628 141.727C109.215 141.714 108.785 141.675 108.402 141.828C108.019 141.981 107.71 142.401 107.848 142.783C107.968 143.103 108.33 143.256 108.656 143.376C109.402 143.633 110.122 143.956 110.807 144.342C111.071 144.517 111.349 144.671 111.638 144.802C111.916 144.899 112.203 144.969 112.495 145.008L115.962 145.592C116.672 145.711 117.527 145.783 117.978 145.211C118.223 144.901 118.258 144.481 118.246 144.088C118.227 143.325 118.07 142.548 118.172 141.784C118.249 141.333 118.371 140.89 118.536 140.461C118.881 139.46 119.228 138.459 119.576 137.459C119.924 136.455 120.276 135.441 120.411 134.387C120.46 134.006 120.456 133.57 120.157 133.332C120.081 133.271 119.993 133.227 119.899 133.202C119.887 132.282 119.764 131.36 119.817 130.44C119.83 130.211 119.854 129.982 119.873 129.751C120.055 129.919 120.217 130.106 120.356 130.308C120.691 130.82 120.814 131.495 121.324 131.835C121.759 132.125 122.402 132.11 122.707 132.53C122.805 132.691 122.879 132.866 122.926 133.047C123.103 133.497 123.369 133.909 123.708 134.26C123.825 134.679 123.987 135.084 124.191 135.47C124.48 136.064 124.766 136.656 125.052 137.247C125.345 137.884 125.672 138.507 126.03 139.112C126.303 139.493 126.523 139.907 126.685 140.345C126.961 141.288 126.511 142.323 125.799 143.017C125.087 143.712 124.148 144.111 123.223 144.483C123.126 144.516 123.037 144.568 122.961 144.636C122.881 144.729 122.839 144.847 122.842 144.968C122.842 145.409 123.214 145.787 123.64 145.923C124.076 146.037 124.532 146.053 124.976 145.97C127.475 145.674 129.966 145.079 132.176 143.894C132.507 143.741 132.8 143.52 133.035 143.246C133.148 143.109 133.221 142.943 133.247 142.768C133.272 142.593 133.248 142.415 133.177 142.252Z" fill="url(#paint0_linear)"/>
<path d="M122.615 99.4457C123.032 100.071 123.423 100.711 123.788 101.366C124.044 101.8 124.252 102.258 124.408 102.735C124.635 103.498 124.629 104.313 124.799 105.092C124.995 106.008 125.453 106.883 125.453 107.822C125.423 108.636 125.134 109.42 124.627 110.067C124.122 110.708 123.543 111.29 122.902 111.804C121.426 108.069 120.601 104.12 120.462 100.12C120.442 99.566 120.438 98.9953 120.646 98.478C120.773 98.1534 121.383 97.2639 121.776 97.6132C121.919 97.7411 121.956 98.3176 122.044 98.5104C122.209 98.8364 122.4 99.1491 122.615 99.4457Z" fill="#F5C108"/>
<path opacity="0.1" d="M122.615 99.4457C123.032 100.071 123.423 100.711 123.788 101.366C124.044 101.8 124.252 102.258 124.408 102.735C124.635 103.498 124.629 104.313 124.799 105.092C124.995 106.008 125.453 106.883 125.453 107.822C125.423 108.636 125.134 109.42 124.627 110.067C124.122 110.708 123.543 111.29 122.902 111.804C121.426 108.069 120.601 104.12 120.462 100.12C120.442 99.566 120.438 98.9953 120.646 98.478C120.773 98.1534 121.383 97.2639 121.776 97.6132C121.919 97.7411 121.956 98.3176 122.044 98.5104C122.209 98.8364 122.4 99.1491 122.615 99.4457Z" fill="#F5C108"/>
<path d="M71.0571 73.4033C69.5102 74.9113 69.3244 75.5755 68.3955 75.8752C67.4666 76.1749 64.1245 77.8642 65.1746 79.7368L67.9985 81.5579L68.0807 81.6113L68.5128 82.8788L64.2418 90.3005C64.2418 90.3005 57.2016 87.1585 56.5113 91.8065C55.8209 96.4546 56.259 97.724 56.0732 100.205C55.8874 102.687 56.1338 103.405 55.5139 103.405C54.894 103.405 54.6495 101.775 54.6495 101.775C54.6495 101.775 54.6104 101.7 54.542 101.561C53.6209 99.692 47.3688 85.9731 57.3835 76.5433C57.3835 76.5433 62.0222 76.2455 63.1388 71.0535C63.9093 67.4648 66.6042 67.774 68.3955 68.5051C68.9777 68.728 69.5202 69.0391 70.003 69.4271C70.4375 69.8286 70.8239 70.2768 71.1549 70.7633C71.6653 71.5498 71.943 72.5366 71.0571 73.4033Z" fill="#D0D2D5"/>
<path opacity="0.1" d="M68.0807 81.6113L68.5129 82.8788L64.2418 90.3004C64.2418 90.3004 57.2017 87.1584 56.5113 91.8065C55.821 96.4546 56.2591 97.724 56.0733 100.205C55.8875 102.687 56.1339 103.405 55.514 103.405C54.894 103.405 54.6496 101.775 54.6496 101.775C54.6496 101.775 54.6105 101.7 54.542 101.561C54.2311 99.2396 52.6549 85.6619 58.3692 86.3834C58.3692 86.3834 63.0059 88.4984 63.7471 87.6547C64.3338 86.9866 66.9386 83.1441 67.9986 81.5674L68.0807 81.6113Z" fill="#4B4F51"/>
<path opacity="0.1" d="M71.1553 70.7517L68.3314 73.8842C68.3314 73.8842 65.0518 78.1677 64.3712 77.9863C64.1675 77.943 63.9598 77.9193 63.7513 77.9157C63.5243 77.8987 63.3069 77.8193 63.1242 77.6866C62.9415 77.554 62.8011 77.3735 62.7192 77.1661C62.6374 76.9587 62.6174 76.7329 62.6616 76.5149C62.7058 76.2969 62.8124 76.0956 62.9691 75.9343C64.0877 74.789 66.1489 72.6148 66.2838 72.1319C66.4188 71.6489 67.731 69.532 68.3881 68.4955C68.9703 68.7183 69.5128 69.0295 69.9956 69.4175C70.4326 69.8179 70.8217 70.2656 71.1553 70.7517Z" fill="#4B4F51"/>
<path d="M151.053 115.818C150.574 116.753 148.119 120.262 147.046 121.795L146.543 122.516C146.543 122.516 146.348 123.784 143.142 122.213C139.937 120.642 64.6286 89.6248 64.6286 89.6248L64.1182 88.1282L67.8338 82.6975L150.374 113.825C150.374 113.825 151.673 114.61 151.053 115.818Z" fill="#135E8A"/>
<path opacity="0.1" d="M147.046 121.795L146.543 122.516C146.543 122.516 146.348 123.784 143.142 122.213C139.937 120.642 64.6286 89.6247 64.6286 89.6247L64.1182 88.1282L147.046 121.795Z" fill="#4B4F51"/>
<path d="M101.621 101.534C100.857 101.412 100.008 101.471 99.4134 101.956C99.054 102.253 98.8269 102.675 98.7798 103.132C98.7289 103.661 99.0438 104.289 99.5874 104.329C99.7183 104.33 99.849 104.322 99.9786 104.304C100.322 104.302 100.665 104.331 101.003 104.388C101.669 104.449 102.341 104.353 102.961 104.109C103.581 103.864 104.133 103.478 104.568 102.983C105.036 102.41 104.42 102.162 103.868 102.048C103.113 101.891 102.376 101.652 101.621 101.534Z" fill="#FFB9B9"/>
<path d="M114.701 118.773L115.186 122.136C115.247 122.484 115.272 122.836 115.26 123.188C115.203 123.98 114.771 124.69 114.46 125.423C114.149 126.156 113.959 127.035 114.372 127.714C114.499 127.926 114.677 128.107 114.793 128.327C114.939 128.666 115.006 129.033 114.988 129.401L115.121 134.174C116.631 134.274 118.146 134.266 119.654 134.149C119.713 134.152 119.771 134.134 119.818 134.099C119.858 134.05 119.878 133.988 119.875 133.925C119.942 132.809 119.742 131.69 119.807 130.574C119.83 130.165 119.889 129.758 119.897 129.348C119.92 127.685 119.079 126.057 119.333 124.414C119.413 123.999 119.518 123.589 119.646 123.186C120.45 120.323 120.28 117.315 120.102 114.358C120.105 114.31 120.091 114.263 120.063 114.224C120.034 114.196 119.997 114.177 119.957 114.169C119.102 113.918 118.197 113.872 117.319 114.035C116.442 114.198 115.617 114.565 114.916 115.104C114.703 115.272 114.165 115.434 114.024 115.635C113.828 115.913 114.085 116.192 114.198 116.488C114.449 117.23 114.618 117.996 114.701 118.773Z" fill="#4B4F51"/>
<path opacity="0.1" d="M114.701 118.773L115.186 122.136C115.247 122.484 115.272 122.836 115.26 123.188C115.203 123.98 114.771 124.69 114.46 125.423C114.149 126.156 113.959 127.035 114.372 127.714C114.499 127.926 114.677 128.107 114.793 128.327C114.939 128.666 115.006 129.033 114.988 129.401L115.121 134.174C116.631 134.274 118.146 134.266 119.654 134.149C119.713 134.152 119.771 134.134 119.818 134.099C119.858 134.05 119.878 133.988 119.875 133.925C119.942 132.809 119.742 131.69 119.807 130.574C119.83 130.165 119.889 129.758 119.897 129.348C119.92 127.685 119.079 126.057 119.333 124.414C119.413 123.999 119.518 123.589 119.646 123.186C120.45 120.323 120.28 117.315 120.102 114.358C120.105 114.31 120.091 114.263 120.063 114.224C120.034 114.196 119.997 114.177 119.957 114.169C119.102 113.918 118.197 113.872 117.319 114.035C116.442 114.198 115.617 114.565 114.916 115.104C114.703 115.272 114.165 115.434 114.024 115.635C113.828 115.913 114.085 116.192 114.198 116.488C114.449 117.23 114.618 117.996 114.701 118.773Z" fill="#4B4F51"/>
<path d="M123.769 117.759C123.54 118.223 123.233 118.655 123.096 119.153C122.74 120.468 123.661 121.825 123.552 123.173C123.516 123.599 123.382 124.013 123.372 124.439C123.362 124.864 123.522 125.338 123.91 125.534C124.17 125.664 124.496 125.651 124.741 125.8C125.153 126.046 125.2 126.605 125.159 127.075C125.118 127.544 125.05 128.069 125.355 128.436C125.587 128.72 125.986 128.831 126.237 129.1C126.386 129.293 126.512 129.502 126.614 129.722C126.988 130.36 127.67 130.749 128.229 131.249C128.789 131.749 129.262 132.482 129.012 133.175C128.828 133.683 128.312 133.996 127.815 134.235C126.909 134.672 125.952 135.002 124.966 135.218C124.86 135.249 124.748 135.255 124.639 135.235C124.529 135.196 124.431 135.13 124.353 135.044C123.777 134.493 123.18 133.914 122.914 133.172C122.867 132.992 122.793 132.819 122.695 132.66C122.39 132.242 121.747 132.257 121.312 131.969C120.804 131.631 120.681 130.961 120.348 130.455C120.016 129.949 119.529 129.648 119.175 129.203C118.577 128.462 118.43 127.474 118.002 126.628C117.82 126.269 117.587 125.933 117.442 125.559C117.296 125.111 117.206 124.647 117.174 124.177C116.899 121.947 116.197 119.703 116.639 117.496C116.736 117.011 116.887 116.542 116.95 116.041C117.057 115.177 116.887 114.291 117.018 113.428C117.021 113.32 117.049 113.214 117.101 113.118C117.152 113.021 117.224 112.938 117.313 112.873C117.419 112.826 117.534 112.804 117.65 112.806C118.809 112.745 119.971 112.771 121.127 112.882C121.713 112.938 122.37 113.054 122.722 113.522C123.022 113.923 123.006 114.459 123.102 114.946C123.221 115.545 123.532 115.872 123.859 116.341C124.185 116.811 124.009 117.275 123.769 117.759Z" fill="#4B4F51"/>
<path d="M119.257 133.271C119.566 133.271 119.908 133.252 120.147 133.442C120.444 133.681 120.448 134.118 120.401 134.49C120.264 135.536 119.914 136.542 119.564 137.545L118.523 140.524C118.359 140.95 118.237 141.389 118.16 141.838C118.058 142.601 118.214 143.365 118.234 144.128C118.234 144.51 118.209 144.934 117.964 145.241C117.522 145.797 116.66 145.732 115.95 145.623L112.486 145.05C112.194 145.012 111.907 144.944 111.63 144.846C111.341 144.716 111.063 144.563 110.799 144.39C110.113 144.008 109.393 143.688 108.648 143.435C108.323 143.317 107.959 143.166 107.842 142.847C107.703 142.466 108.012 142.046 108.395 141.893C108.779 141.74 109.207 141.778 109.622 141.79C110.641 141.822 111.659 141.687 112.633 141.393C112.927 141.323 113.199 141.185 113.427 140.992C113.659 140.738 113.817 140.427 113.885 140.093C114.18 139.098 114.356 138.073 114.409 137.039C114.45 136.275 114.423 135.512 114.454 134.748C114.473 134.296 114.428 132.839 114.835 132.528C115.146 132.295 116.425 132.939 116.846 133.032C117.636 133.209 118.446 133.289 119.257 133.271Z" fill="#2F2E41"/>
<path d="M130.666 135.393C131.004 136.487 131.057 137.644 131.276 138.768C131.495 139.893 131.882 141.04 132.737 141.822C132.903 141.951 133.047 142.106 133.161 142.281C133.234 142.444 133.258 142.624 133.232 142.8C133.206 142.976 133.131 143.142 133.015 143.279C132.779 143.55 132.486 143.77 132.156 143.922C129.948 145.098 127.463 145.692 124.958 145.986C124.515 146.067 124.059 146.05 123.624 145.938C123.198 145.797 122.82 145.423 122.828 144.984C122.824 144.863 122.866 144.745 122.945 144.653C123.021 144.585 123.111 144.534 123.209 144.502C124.132 144.132 125.069 143.729 125.783 143.046C126.497 142.363 126.944 141.328 126.669 140.4C126.505 139.966 126.284 139.554 126.01 139.177C125.652 138.577 125.326 137.959 125.032 137.327L124.171 135.565C123.919 135.05 123.665 134.519 123.622 133.95C124.703 133.998 125.782 133.829 126.794 133.454C127.266 133.266 127.706 133.009 128.098 132.69C128.431 132.419 128.734 131.914 129.182 132.267C129.542 132.549 129.768 133.345 129.98 133.748C130.254 134.277 130.484 134.828 130.666 135.393Z" fill="#2F2E41"/>
<path d="M118.056 91.6442C118.142 92.3772 118.869 92.8602 119.564 93.1503L115.169 94.519C115.453 93.9883 115.224 93.3393 114.943 92.801C114.713 92.3748 114.452 91.9658 114.16 91.5774C114.117 91.5183 114.068 91.4438 114.1 91.3751C114.128 91.3302 114.172 91.2969 114.223 91.2816C115.126 90.8883 116.057 90.4817 117.045 90.3386C117.33 90.2985 117.87 90.1878 118.083 90.4703C118.296 90.7528 118.015 91.3064 118.056 91.6442Z" fill="#FFB9B9"/>
<path opacity="0.1" d="M118.056 91.6442C118.142 92.3772 118.869 92.8602 119.564 93.1503L115.169 94.519C115.453 93.9883 115.224 93.3393 114.943 92.801C114.713 92.3748 114.452 91.9658 114.16 91.5774C114.117 91.5183 114.068 91.4438 114.1 91.3751C114.128 91.3302 114.172 91.2969 114.223 91.2816C115.126 90.8883 116.057 90.4817 117.045 90.3386C117.33 90.2985 117.87 90.1878 118.083 90.4703C118.296 90.7528 118.015 91.3064 118.056 91.6442Z" fill="#4B4F51"/>
<path d="M115.502 92.2379C117.405 92.2379 118.948 90.7321 118.948 88.8745C118.948 87.017 117.405 85.5111 115.502 85.5111C113.599 85.5111 112.056 87.017 112.056 88.8745C112.056 90.7321 113.599 92.2379 115.502 92.2379Z" fill="#FFB9B9"/>
<path d="M112.516 116.553C112.85 116.944 113.439 117.021 113.953 116.935C115.156 116.744 116.139 115.879 117.317 115.568C118.76 115.186 120.287 115.677 121.65 116.278C123.013 116.879 124.368 117.614 125.859 117.717C124.511 114.785 125.282 111.258 123.993 108.301C123.678 107.578 123.238 106.881 123.168 106.098C123.08 105.127 123.576 104.189 123.653 103.223C123.723 102.363 123.457 101.505 123.203 100.685C122.889 99.6768 122.575 98.6689 122.26 97.661C121.908 96.5329 121.547 95.3857 120.864 94.416C120.612 94.059 120.535 93.3355 120.152 93.1198C119.315 92.6483 118.046 93.242 117.139 93.2745C116.231 93.3069 115.404 93.9368 114.874 94.6488C114.313 95.4009 113.994 96.2962 113.701 97.1819C113.234 98.5007 112.885 99.8566 112.658 101.234C112.629 101.441 112.604 101.647 112.584 101.855C112.388 103.815 112.674 105.787 112.69 107.757V107.77C112.709 110.269 112.299 112.752 112.222 115.249C112.214 115.705 112.226 116.204 112.516 116.553Z" fill="#F5C108"/>
<path opacity="0.1" d="M112.696 107.759C113.371 107.593 113.981 107.167 114.505 106.701C114.959 106.305 115.362 105.856 115.706 105.365C116.138 104.705 116.486 103.995 116.74 103.252C117.464 101.264 117.924 99.194 118.109 97.0921C118.16 96.5194 118.176 95.9048 117.826 95.4505C117.629 95.2044 117.353 95.0304 117.042 94.957C116.732 94.8835 116.405 94.9148 116.114 95.0458C115.653 95.2653 115.354 95.7101 115.076 96.1358C114.526 96.9795 113.973 97.8346 113.619 98.7738C113.463 99.1899 113.347 99.6175 113.195 100.036C113.04 100.448 112.861 100.851 112.659 101.244C112.629 101.45 112.604 101.656 112.584 101.864C112.403 103.825 112.68 105.789 112.696 107.759Z" fill="#4B4F51"/>
<path d="M117.815 95.0821C118.165 95.5364 118.15 96.1568 118.101 96.7218C117.916 98.8238 117.456 100.894 116.732 102.882C116.48 103.631 116.132 104.347 115.697 105.012C115.353 105.502 114.95 105.951 114.497 106.348C113.832 106.94 113.022 107.469 112.121 107.476C111.613 107.453 111.113 107.347 110.642 107.161L103.299 104.722C103.225 104.313 103.52 103.836 103.659 103.443L104.05 102.311C104.161 101.998 104.29 101.66 104.582 101.49C104.873 101.32 105.335 101.553 105.577 101.742C105.82 101.931 106.004 102.179 106.242 102.372C106.694 102.739 107.29 102.876 107.865 103.002L109.514 103.363C110.112 103.522 110.729 103.603 111.348 103.601C111.808 102.231 112.682 101.024 113.177 99.6653C113.329 99.2491 113.445 98.8196 113.603 98.4035C113.955 97.4644 114.51 96.6111 115.06 95.7655C115.336 95.3417 115.635 94.897 116.098 94.6755C116.389 94.5429 116.718 94.5109 117.03 94.5848C117.342 94.6587 117.619 94.8341 117.815 95.0821Z" fill="#F5C108"/>
<path d="M116.601 89.6342C116.575 89.413 116.505 89.1989 116.394 89.0043C116.336 88.9068 116.248 88.8298 116.143 88.7845C116.037 88.7392 115.92 88.7279 115.807 88.7523C115.463 88.8573 115.348 89.3765 114.988 89.3937C114.745 89.4051 114.571 89.1646 114.495 88.9394C114.419 88.7141 114.378 88.4564 114.196 88.298C114.069 88.2056 113.924 88.1405 113.769 88.1071C112.934 87.8494 112.072 87.3741 111.794 86.5628C111.729 86.3981 111.713 86.2186 111.749 86.0455C111.876 85.5321 112.532 85.3774 113.03 85.1923C113.529 85.0071 114.008 84.6902 114.497 84.4497C114.986 84.2092 115.553 84.0393 116.091 84.1615C116.364 84.2453 116.632 84.3427 116.895 84.4535C117.704 84.7284 118.696 84.6005 119.323 85.1713C119.598 85.4544 119.799 85.7973 119.91 86.1715C120.348 87.3588 120.626 88.7676 119.9 89.8098C119.452 90.4531 119.018 91.188 118.158 91.2663C117.157 91.3484 116.76 90.4626 116.601 89.6342Z" fill="#2F2E41"/>
<g opacity="0.1">
<path opacity="0.1" d="M115.072 88.5348C114.996 88.3095 114.955 88.0518 114.775 87.8934C114.648 87.801 114.503 87.7359 114.348 87.7025C113.511 87.4448 112.651 86.9695 112.371 86.1583C112.308 85.9932 112.293 85.8139 112.328 85.641C112.347 85.5594 112.383 85.4823 112.432 85.4138C112.113 85.5493 111.835 85.7288 111.757 86.0456C111.721 86.2187 111.737 86.3982 111.802 86.5629C112.08 87.3742 112.942 87.8495 113.777 88.1072C113.932 88.1406 114.077 88.2056 114.204 88.2981C114.386 88.4565 114.425 88.7123 114.503 88.9394C114.581 89.1666 114.753 89.4052 114.996 89.3937C115.238 89.3823 115.355 89.1666 115.51 88.9853C115.297 88.9585 115.142 88.7447 115.072 88.5348Z" fill="#4B4F51"/>
<path opacity="0.1" d="M118.733 90.856C117.728 90.9457 117.331 90.0524 117.169 89.2297C117.147 89.0091 117.081 88.7949 116.973 88.5997C116.915 88.5025 116.827 88.4257 116.722 88.3804C116.616 88.3351 116.499 88.3237 116.386 88.3478C116.208 88.4322 116.058 88.5647 115.954 88.7295C116.044 88.7379 116.13 88.7664 116.207 88.8128C116.284 88.8591 116.348 88.9221 116.396 88.9968C116.507 89.1915 116.577 89.4055 116.603 89.6267C116.762 90.4494 117.159 91.3447 118.168 91.2531C118.567 91.2101 118.935 91.0236 119.2 90.73C119.053 90.7972 118.895 90.8398 118.733 90.856Z" fill="#4B4F51"/>
</g>
<path d="M159.012 126.364C162.5 126.364 165.327 125.834 165.327 125.179C165.327 124.524 162.5 123.994 159.012 123.994C155.525 123.994 152.698 124.524 152.698 125.179C152.698 125.834 155.525 126.364 159.012 126.364Z" fill="#1DB776"/>
<path d="M158.907 125.614C159.313 125.614 159.642 125.194 159.642 124.675C159.642 124.156 159.313 123.736 158.907 123.736C158.501 123.736 158.171 124.156 158.171 124.675C158.171 125.194 158.501 125.614 158.907 125.614Z" fill="#4B4F51"/>
<path d="M158.907 124.465C159.313 124.465 159.642 124.045 159.642 123.526C159.642 123.007 159.313 122.587 158.907 122.587C158.501 122.587 158.171 123.007 158.171 123.526C158.171 124.045 158.501 124.465 158.907 124.465Z" fill="#4B4F51"/>
<path d="M158.907 123.318C159.313 123.318 159.642 122.898 159.642 122.379C159.642 121.86 159.313 121.44 158.907 121.44C158.501 121.44 158.171 121.86 158.171 122.379C158.171 122.898 158.501 123.318 158.907 123.318Z" fill="#4B4F51"/>
<path d="M158.907 122.169C159.313 122.169 159.642 121.748 159.642 121.23C159.642 120.711 159.313 120.291 158.907 120.291C158.501 120.291 158.171 120.711 158.171 121.23C158.171 121.748 158.501 122.169 158.907 122.169Z" fill="#4B4F51"/>
<path d="M158.907 121.02C159.313 121.02 159.642 120.599 159.642 120.081C159.642 119.562 159.313 119.141 158.907 119.141C158.501 119.141 158.171 119.562 158.171 120.081C158.171 120.599 158.501 121.02 158.907 121.02Z" fill="#4B4F51"/>
<path d="M158.907 119.872C159.313 119.872 159.642 119.452 159.642 118.933C159.642 118.415 159.313 117.994 158.907 117.994C158.501 117.994 158.171 118.415 158.171 118.933C158.171 119.452 158.501 119.872 158.907 119.872Z" fill="#4B4F51"/>
<path d="M158.907 118.723C159.313 118.723 159.642 118.303 159.642 117.784C159.642 117.266 159.313 116.845 158.907 116.845C158.501 116.845 158.171 117.266 158.171 117.784C158.171 118.303 158.501 118.723 158.907 118.723Z" fill="#4B4F51"/>
<path d="M161.659 109.933C161.759 109.808 161.85 109.677 161.932 109.54L160 109.231L162.091 109.244C162.29 108.818 162.399 108.357 162.41 107.889C162.422 107.42 162.336 106.955 162.157 106.52L159.353 107.94L161.938 106.085C161.696 105.677 161.37 105.323 160.981 105.043C160.592 104.764 160.148 104.566 159.677 104.461C159.206 104.356 158.718 104.347 158.244 104.434C157.769 104.521 157.318 104.703 156.918 104.967C156.519 105.232 156.179 105.574 155.921 105.972C155.662 106.37 155.491 106.816 155.416 107.282C155.342 107.748 155.367 108.224 155.489 108.68C155.611 109.136 155.828 109.562 156.126 109.933C155.969 110.127 155.834 110.337 155.723 110.559L158.232 111.832L155.557 110.956C155.37 111.497 155.324 112.075 155.424 112.638C155.523 113.2 155.764 113.73 156.126 114.178C155.718 114.685 155.465 115.294 155.394 115.935C155.324 116.576 155.44 117.223 155.728 117.803C156.017 118.383 156.467 118.872 157.027 119.213C157.587 119.555 158.234 119.737 158.894 119.737C159.555 119.737 160.202 119.555 160.762 119.213C161.321 118.872 161.771 118.383 162.06 117.803C162.349 117.223 162.465 116.576 162.394 115.935C162.324 115.294 162.07 114.685 161.662 114.178C162.151 113.573 162.417 112.824 162.417 112.053C162.417 111.282 162.151 110.533 161.662 109.927L161.659 109.933Z" fill="#1DB776"/>
<path opacity="0.1" d="M155.367 112.052C155.367 112.824 155.634 113.573 156.126 114.178C155.718 114.685 155.464 115.294 155.394 115.935C155.324 116.576 155.44 117.223 155.728 117.803C156.017 118.383 156.467 118.871 157.027 119.213C157.587 119.555 158.234 119.737 158.894 119.737C159.555 119.737 160.202 119.555 160.761 119.213C161.321 118.871 161.771 118.383 162.06 117.803C162.349 117.223 162.465 116.576 162.394 115.935C162.324 115.294 162.07 114.685 161.662 114.178C162.13 113.592 155.367 111.666 155.367 112.052Z" fill="#4B4F51"/>
<path d="M29.0252 150C34.0464 150 38.1168 149.236 38.1168 148.294C38.1168 147.351 34.0464 146.587 29.0252 146.587C24.0041 146.587 19.9336 147.351 19.9336 148.294C19.9336 149.236 24.0041 150 29.0252 150Z" fill="#1DB776"/>
<path d="M28.8724 148.921C29.4567 148.921 29.9304 148.316 29.9304 147.568C29.9304 146.821 29.4567 146.215 28.8724 146.215C28.2881 146.215 27.8145 146.821 27.8145 147.568C27.8145 148.316 28.2881 148.921 28.8724 148.921Z" fill="#4B4F51"/>
<path d="M28.8724 147.268C29.4567 147.268 29.9304 146.662 29.9304 145.915C29.9304 145.168 29.4567 144.562 28.8724 144.562C28.2881 144.562 27.8145 145.168 27.8145 145.915C27.8145 146.662 28.2881 147.268 28.8724 147.268Z" fill="#4B4F51"/>
<path d="M28.8724 145.615C29.4567 145.615 29.9304 145.01 29.9304 144.262C29.9304 143.515 29.4567 142.909 28.8724 142.909C28.2881 142.909 27.8145 143.515 27.8145 144.262C27.8145 145.01 28.2881 145.615 28.8724 145.615Z" fill="#4B4F51"/>
<path d="M28.8724 143.962C29.4567 143.962 29.9304 143.356 29.9304 142.609C29.9304 141.861 29.4567 141.255 28.8724 141.255C28.2881 141.255 27.8145 141.861 27.8145 142.609C27.8145 143.356 28.2881 143.962 28.8724 143.962Z" fill="#4B4F51"/>
<path d="M28.8724 142.309C29.4567 142.309 29.9304 141.703 29.9304 140.956C29.9304 140.208 29.4567 139.602 28.8724 139.602C28.2881 139.602 27.8145 140.208 27.8145 140.956C27.8145 141.703 28.2881 142.309 28.8724 142.309Z" fill="#4B4F51"/>
<path d="M28.8724 140.654C29.4567 140.654 29.9304 140.048 29.9304 139.301C29.9304 138.553 29.4567 137.948 28.8724 137.948C28.2881 137.948 27.8145 138.553 27.8145 139.301C27.8145 140.048 28.2881 140.654 28.8724 140.654Z" fill="#4B4F51"/>
<path d="M28.8724 139.001C29.4567 139.001 29.9304 138.395 29.9304 137.648C29.9304 136.9 29.4567 136.294 28.8724 136.294C28.2881 136.294 27.8145 136.9 27.8145 137.648C27.8145 138.395 28.2881 139.001 28.8724 139.001Z" fill="#4B4F51"/>
<path d="M32.8344 126.336C32.9776 126.154 33.1083 125.962 33.2255 125.763L30.4447 125.317L33.4524 125.339C33.7407 124.726 33.8978 124.062 33.9143 123.388C33.9308 122.713 33.8062 122.043 33.5482 121.417L29.5158 123.467L33.2314 120.794C32.8835 120.205 32.4148 119.692 31.8548 119.288C31.2947 118.883 30.6552 118.595 29.9762 118.443C29.2971 118.29 28.5932 118.276 27.9082 118.4C27.2232 118.525 26.5719 118.786 25.9949 119.168C25.4179 119.549 24.9277 120.042 24.5547 120.617C24.1817 121.191 23.934 121.835 23.8271 122.507C23.7202 123.179 23.7564 123.865 23.9333 124.523C24.1103 125.181 24.4242 125.796 24.8555 126.33C24.6272 126.609 24.4304 126.911 24.2689 127.231L27.8809 129.064L24.0303 127.802C23.7604 128.584 23.6953 129.42 23.8408 130.233C23.9863 131.046 24.3378 131.811 24.8634 132.458C24.275 133.188 23.9089 134.065 23.8071 134.988C23.7053 135.912 23.8718 136.845 24.2875 137.68C24.7033 138.516 25.3515 139.22 26.1582 139.713C26.9648 140.206 27.8972 140.468 28.8489 140.468C29.8005 140.468 30.733 140.206 31.5396 139.713C32.3462 139.22 32.9945 138.516 33.4103 137.68C33.826 136.845 33.9925 135.912 33.8907 134.988C33.7888 134.065 33.4228 133.188 32.8344 132.458C33.5377 131.585 33.92 130.508 33.92 129.398C33.92 128.288 33.5377 127.21 32.8344 126.338V126.336Z" fill="#1DB776"/>
<path opacity="0.1" d="M23.7783 129.403C23.7785 130.512 24.1608 131.587 24.8637 132.458C24.2753 133.188 23.9093 134.065 23.8074 134.988C23.7056 135.912 23.8721 136.845 24.2878 137.68C24.7036 138.516 25.3519 139.22 26.1585 139.713C26.9651 140.206 27.8976 140.468 28.8492 140.468C29.8009 140.468 30.7333 140.206 31.5399 139.713C32.3466 139.22 32.9948 138.516 33.4106 137.68C33.8263 136.845 33.9928 135.912 33.891 134.988C33.7891 134.065 33.4231 133.188 32.8347 132.458C33.5094 131.614 23.7783 128.84 23.7783 129.403Z" fill="#4B4F51"/>
</g>
<defs>
<linearGradient id="paint0_linear" x1="117.705" y1="146.285" x2="115.239" y2="83.6458" gradientUnits="userSpaceOnUse">
<stop stop-color="#808080" stop-opacity="0.25"/>
<stop offset="0.54" stop-color="#808080" stop-opacity="0.12"/>
<stop offset="1" stop-color="#808080" stop-opacity="0.1"/>
</linearGradient>
<clipPath id="clip0">
<rect width="200" height="150" fill="white"/>
</clipPath>
</defs>
</svg>
