<svg width="200" height="150" viewBox="0 0 200 150" fill="none" xmlns="http://www.w3.org/2000/svg">
<path d="M200 146.046H0V146.588H200V146.046Z" fill="#1DB776"/>
<path d="M70.0959 102.502H22.0098V146.431H70.0959V102.502Z" fill="#1DB776"/>
<path d="M47.6076 133.686H39.4736V146.16H47.6076V133.686Z" fill="#1DB776" fill-opacity="0.31"/>
<path d="M139.952 74.3C138.393 78.0429 125.25 73.2042 125.25 73.2042L100.161 64.2659L93.9397 59.856L89.9766 57.0463L98.113 53.667L98.3551 53.7728L104.369 56.3947L127.644 69.4674C127.644 69.4674 144.019 64.538 139.952 74.3Z" fill="#FFB9B9"/>
<path d="M77.0036 35.8042C77.0036 35.8042 73.8648 37.2354 73.501 41.2455C73.1373 45.2555 73.1074 67.8798 73.1074 67.8798C73.1074 67.8798 81.3095 62.5277 85.7197 62.4182C90.13 62.3086 100.375 53.8757 100.375 53.8757C100.375 53.8757 81.0718 34.1145 77.0036 35.8042Z" fill="#F5C108"/>
<path opacity="0.1" d="M77.0036 35.8042C77.0036 35.8042 73.8648 37.2354 73.501 41.2455C73.1373 45.2555 73.1074 67.8798 73.1074 67.8798C73.1074 67.8798 81.3095 62.5277 85.7197 62.4182C90.13 62.3086 100.375 53.8757 100.375 53.8757C100.375 53.8757 81.0718 34.1145 77.0036 35.8042Z" fill="#4B4F51"/>
<path d="M144.332 69.1403L144.212 68.8607C144.176 68.7757 140.579 60.253 142.584 51.8499C144.59 43.4466 151.487 38.1416 151.556 38.0892L151.784 37.9163L151.904 38.1959C151.941 38.2809 155.538 46.8036 153.532 55.2067C151.527 63.61 144.63 68.915 144.56 68.9674L144.332 69.1403ZM151.591 38.7253C150.384 39.7209 144.797 44.6536 143.046 51.9913C141.294 59.3348 143.925 66.7822 144.525 68.3313C145.733 67.3356 151.319 62.403 153.07 55.0653C154.823 47.7217 152.191 40.2744 151.591 38.7253Z" fill="#1DB776"/>
<path d="M135.059 55.136C137.064 63.5383 143.933 68.742 143.933 68.742C143.933 68.742 147.55 60.323 145.545 51.9206C143.539 43.5183 136.671 38.3146 136.671 38.3146C136.671 38.3146 133.053 46.7337 135.059 55.136Z" fill="#1DB776" fill-opacity="0.31"/>
<path d="M144.44 69.0228L144.167 69.0058C144.083 69.0008 135.764 68.4195 130.261 62.3474C124.758 56.2752 124.021 46.8646 124.014 46.77L123.992 46.4604L124.266 46.4774C124.349 46.4824 132.669 47.0637 138.172 53.1358C143.675 59.2083 144.411 68.6187 144.418 68.7132L144.44 69.0228ZM124.522 47.0449C124.703 48.7249 125.789 56.6565 130.595 61.9586C135.4 67.2612 142.424 68.2789 143.91 68.4383C143.73 66.7581 142.643 58.8269 137.838 53.5246C133.029 48.218 126.008 47.2035 124.522 47.0449Z" fill="#1DB776"/>
<path d="M150.354 53.3302C144.852 59.4017 144.18 68.7351 144.18 68.7351C144.18 68.7351 152.429 68.2246 157.932 62.153C163.434 56.0814 164.106 46.748 164.106 46.748C164.106 46.748 155.857 47.2586 150.354 53.3302Z" fill="#1DB776"/>
<path d="M144.065 36.9283C146.047 36.9283 147.654 35.1072 147.654 32.8607C147.654 30.6143 146.047 28.7932 144.065 28.7932C142.083 28.7932 140.477 30.6143 140.477 32.8607C140.477 35.1072 142.083 36.9283 144.065 36.9283Z" fill="#1DB776" fill-opacity="0.31"/>
<path d="M153.395 66.9785H135.601C133.38 66.9785 131.579 69.0195 131.579 71.5371V76.5206C131.579 79.0383 133.38 81.0793 135.601 81.0793H153.395C155.616 81.0793 157.416 79.0383 157.416 76.5206V71.5371C157.416 69.0195 155.616 66.9785 153.395 66.9785Z" fill="#F5C108"/>
<path d="M83.8317 35.3128C90.3354 35.3128 95.6077 29.3367 95.6077 21.9649C95.6077 14.593 90.3354 8.61694 83.8317 8.61694C77.328 8.61694 72.0557 14.593 72.0557 21.9649C72.0557 29.3367 77.328 35.3128 83.8317 35.3128Z" fill="#2F2E41"/>
<path d="M107.775 109.823L101.077 110.366C101.077 110.366 100.871 124.611 100 128.263L111.483 138.567L109.091 129.89L107.775 109.823Z" fill="#FFB9B9"/>
<path d="M112.133 138.863L112.133 138.863L112.133 138.863C111.657 138.671 111.723 138.567 111.723 138.567V138.025L100.019 127.378C99.9048 127.855 99.7796 128.168 99.6413 128.263C99.2121 128.554 98.5982 129.509 97.9873 130.614C97.2761 131.909 96.8206 133.363 96.6518 134.876C96.4831 136.389 96.6052 137.926 97.0097 139.38V139.38L96.5312 148.6H98.4451L98.9236 140.194H101.316C101.316 140.194 105.383 146.16 106.579 148.329C107.775 150.498 113.038 151.041 118.302 146.973C122.749 143.536 114.727 139.906 112.133 138.863Z" fill="#2F2E41"/>
<path d="M83.8518 37.0144C88.0798 37.0144 91.5073 33.1294 91.5073 28.3371C91.5073 23.5447 88.0798 19.6597 83.8518 19.6597C79.6238 19.6597 76.1963 23.5447 76.1963 28.3371C76.1963 33.1294 79.6238 37.0144 83.8518 37.0144Z" fill="#FFB9B9"/>
<path d="M88.0382 33.0826L83.9712 48.5392L74.1626 40.4041C74.1626 40.4041 79.1865 34.1673 79.1865 32.5403C79.1865 30.9133 88.0382 33.0826 88.0382 33.0826Z" fill="#FFB9B9"/>
<path d="M48.9236 77.6898C48.9236 77.6898 37.2011 93.6887 48.4451 103.451C53.3927 107.746 57.7382 115.875 61.0535 123.631C63.6544 129.747 67.4086 135.142 72.0508 139.433C76.6929 143.724 82.1098 146.807 87.9188 148.465H87.9188C87.9188 148.465 127.871 95.5869 114.235 80.6726C100.598 65.7584 63.7561 78.7744 63.7561 78.7744L48.9236 77.6898Z" fill="#2F2E41"/>
<path d="M82.1124 64.1991C82.1651 67.7704 81.5622 71.6914 78.8277 72.5375C73.5646 74.1645 73.0861 73.351 73.0861 73.351C73.0861 73.351 72.1292 75.2492 72.3684 77.4185C72.6076 79.5879 70.0957 77.8253 70.0957 77.8253C70.0957 77.8253 44.6172 81.486 45.5741 77.4185C46.5311 73.351 55.622 59.2502 55.622 59.2502C55.622 59.2502 70.4545 35.6586 73.5646 36.4721C73.6698 36.4992 73.7775 36.5318 73.8899 36.567C77.0574 37.6137 82.433 42.2317 82.8947 44.0648C83.3732 45.963 81.4593 57.8944 81.4593 57.8944C81.8488 59.9685 82.0674 62.0791 82.1124 64.1991Z" fill="#F5C108"/>
<path d="M85.4043 8.86754C87.5647 8.86754 89.3159 6.88248 89.3159 4.43377C89.3159 1.98507 87.5647 0 85.4043 0C83.244 0 81.4927 1.98507 81.4927 4.43377C81.4927 6.88248 83.244 8.86754 85.4043 8.86754Z" fill="#2F2E41"/>
<path d="M89.8055 7.17968C90.4084 6.31932 90.708 5.23589 90.6462 4.1394C90.5844 3.04292 90.1657 2.01147 89.4712 1.245C89.5806 1.32472 89.6873 1.41125 89.7915 1.5046C90.1946 1.86641 90.5308 2.31476 90.781 2.824C91.0311 3.33324 91.1901 3.89338 91.2491 4.47237C91.308 5.05136 91.2657 5.63784 91.1245 6.19827C90.9832 6.75869 90.7459 7.28205 90.4261 7.73842C90.1063 8.19479 89.7102 8.57521 89.2605 8.85791C88.8109 9.14061 88.3165 9.32005 87.8056 9.38595C87.2947 9.45186 86.7773 9.40295 86.2831 9.24202C85.7889 9.08108 85.3275 8.81128 84.9254 8.44805C84.8215 8.35444 84.723 8.25616 84.6299 8.15319C85.4457 8.74659 86.4268 8.97554 87.383 8.79567C88.3393 8.61581 89.2026 8.03994 89.8055 7.17968Z" fill="#2F2E41"/>
<path d="M85.9834 15.7583C90.4354 17.1293 93.4724 20.6271 92.7668 23.5708C92.451 24.8879 91.437 25.8682 90.0167 26.4293L88.7703 24.6769L88.7137 26.8035C88.5166 26.8416 88.3164 26.8756 88.1102 26.9004L86.5268 23.1207L85.624 26.8869C84.8822 26.7971 84.1479 26.6403 83.4281 26.4181C78.9762 25.047 75.9392 21.5492 76.6448 18.6056C77.3504 15.6619 81.5314 14.3872 85.9834 15.7583Z" fill="#2F2E41"/>
<path d="M119.737 97.485C116.627 99.6543 114.713 84.1977 114.713 84.1977L92.2248 68.7411L87.1099 62.7781L83.8516 58.9791L92.464 57.8944L92.6769 58.0625L97.9664 62.2331L117.823 81.2149C117.823 81.2149 122.847 95.3156 119.737 97.485Z" fill="#FFB9B9"/>
<path opacity="0.1" d="M81.4593 57.8944C81.8488 59.9685 82.0674 62.0791 82.1124 64.1991C80.4401 64.5434 78.9306 64.6682 77.8708 64.4024C73.5645 63.3178 64.4736 66.3006 64.4736 66.3006C64.4736 66.3006 69.2583 44.336 70.4545 40.5396C70.7394 39.6351 71.1942 38.8115 71.7873 38.1257C72.3804 37.4398 73.0978 36.908 73.8899 36.567C77.0574 37.6137 82.433 42.2317 82.8947 44.0648C83.3732 45.963 81.4593 57.8944 81.4593 57.8944Z" fill="#4B4F51"/>
<path opacity="0.1" d="M93.8994 60.0638C93.8994 60.0638 90.7463 61.5226 87.1099 62.7781L83.8516 58.9791L92.464 57.8944L92.6769 58.0625C93.4473 59.3072 93.8994 60.0638 93.8994 60.0638Z" fill="#4B4F51"/>
<path d="M75.7177 34.8451C75.7177 34.8451 72.3684 35.3874 71.1723 39.1838C69.9761 42.9801 65.1914 64.9448 65.1914 64.9448C65.1914 64.9448 74.2823 61.9619 78.5885 63.0466C82.8948 64.1313 94.6172 58.7079 94.6172 58.7079C94.6172 58.7079 80.0239 34.3028 75.7177 34.8451Z" fill="#F5C108"/>
<path d="M165.99 103.534L167.27 99.6655L179.215 91.9285L187.321 89.9943L165.99 103.534Z" fill="#1DB776"/>
<path d="M122.049 103.534L120.769 99.6655L108.823 91.9285L100.718 89.9943L122.049 103.534Z" fill="#1DB776"/>
<path d="M166.843 104.501H121.195L117.356 84.1914H170.683L166.843 104.501Z" fill="#1DB776"/>
<path opacity="0.1" d="M166.843 104.501H121.195L117.356 84.1914H170.683L166.843 104.501Z" fill="#4B4F51"/>
<path d="M167.056 103.292H120.982V146.166H167.056V103.292Z" fill="#1DB776"/>
<path d="M148.086 133.415H139.952V145.889H148.086V133.415Z" fill="#1DB776" fill-opacity="0.31"/>
</svg>
