<svg width="200" height="130" viewBox="0 0 200 130" fill="none" xmlns="http://www.w3.org/2000/svg">
<path d="M100 6.12317V49.9275" stroke="#2F2E41" stroke-width="2" stroke-miterlimit="10"/>
<path d="M26.6274 49.9275V6.12317H173.373V49.9275" stroke="#2F2E41" stroke-width="2" stroke-miterlimit="10"/>
<path d="M99.9998 12.2464C114.706 12.2464 126.627 9.50493 126.627 6.12319C126.627 2.74144 114.706 0 99.9998 0C85.294 0 73.3726 2.74144 73.3726 6.12319C73.3726 9.50493 85.294 12.2464 99.9998 12.2464Z" fill="#F2F2F2"/>
<path d="M26.6272 130C41.333 130 53.2544 129.051 53.2544 127.88C53.2544 126.71 41.333 125.761 26.6272 125.761C11.9214 125.761 0 126.71 0 127.88C0 129.051 11.9214 130 26.6272 130Z" fill="#2F2E41"/>
<path d="M173.373 130C188.079 130 200 129.051 200 127.88C200 126.71 188.079 125.761 173.373 125.761C158.667 125.761 146.746 126.71 146.746 127.88C146.746 129.051 158.667 130 173.373 130Z" fill="#2F2E41"/>
<path d="M99.9998 130C114.706 130 126.627 129.051 126.627 127.88C126.627 126.71 114.706 125.761 99.9998 125.761C85.294 125.761 73.3726 126.71 73.3726 127.88C73.3726 129.051 85.294 130 99.9998 130Z" fill="#2F2E41"/>
<path d="M100 9.65579C101.634 9.65579 102.959 8.07419 102.959 6.12318C102.959 4.17218 101.634 2.59058 100 2.59058C98.3661 2.59058 97.0415 4.17218 97.0415 6.12318C97.0415 8.07419 98.3661 9.65579 100 9.65579Z" fill="#1DB776"/>
<path d="M25.2464 120.815C33.852 120.815 40.8283 112.485 40.8283 102.21C40.8283 91.9349 33.852 83.6051 25.2464 83.6051C16.6408 83.6051 9.66455 91.9349 9.66455 102.21C9.66455 112.485 16.6408 120.815 25.2464 120.815Z" fill="#4B4F51"/>
<path d="M22.8797 116.812H18.146V126.938H22.8797V116.812Z" fill="#4B4F51"/>
<path d="M32.347 116.812H27.6133V126.938H32.347V116.812Z" fill="#4B4F51"/>
<path d="M22.0908 128.822C24.2694 128.822 26.0355 128.032 26.0355 127.056C26.0355 126.081 24.2694 125.29 22.0908 125.29C19.9121 125.29 18.146 126.081 18.146 127.056C18.146 128.032 19.9121 128.822 22.0908 128.822Z" fill="#4B4F51"/>
<path d="M31.5581 128.587C33.7367 128.587 35.5028 127.796 35.5028 126.821C35.5028 125.845 33.7367 125.054 31.5581 125.054C29.3794 125.054 27.6133 125.845 27.6133 126.821C27.6133 127.796 29.3794 128.587 31.5581 128.587Z" fill="#4B4F51"/>
<path d="M25.6409 103.859C28.582 103.859 30.9663 101.012 30.9663 97.5C30.9663 93.9882 28.582 91.1413 25.6409 91.1413C22.6997 91.1413 20.3154 93.9882 20.3154 97.5C20.3154 101.012 22.6997 103.859 25.6409 103.859Z" fill="white"/>
<path d="M25.6409 99.6196C26.6213 99.6196 27.416 98.6706 27.416 97.5C27.416 96.3294 26.6213 95.3804 25.6409 95.3804C24.6605 95.3804 23.8657 96.3294 23.8657 97.5C23.8657 98.6706 24.6605 99.6196 25.6409 99.6196Z" fill="#2F2E41"/>
<path d="M10.1317 84.9079C8.87356 78.1801 12.8954 71.3818 19.1148 69.7237C25.3341 68.0655 31.3959 72.1753 32.654 78.9032C33.9122 85.6311 29.7904 88.1124 23.571 89.7706C17.3517 91.4287 11.3899 91.6358 10.1317 84.9079Z" fill="#2F2E41"/>
<path d="M99.9998 120.815C108.605 120.815 115.582 112.485 115.582 102.21C115.582 91.9349 108.605 83.6051 99.9998 83.6051C91.3942 83.6051 84.418 91.9349 84.418 102.21C84.418 112.485 91.3942 120.815 99.9998 120.815Z" fill="#4B4F51"/>
<path d="M97.6331 116.812H92.8994V126.938H97.6331V116.812Z" fill="#4B4F51"/>
<path d="M107.1 116.812H102.367V126.938H107.1V116.812Z" fill="#4B4F51"/>
<path d="M96.8442 128.822C99.0228 128.822 100.789 128.032 100.789 127.056C100.789 126.081 99.0228 125.29 96.8442 125.29C94.6656 125.29 92.8994 126.081 92.8994 127.056C92.8994 128.032 94.6656 128.822 96.8442 128.822Z" fill="#4B4F51"/>
<path d="M106.311 128.587C108.49 128.587 110.256 127.796 110.256 126.821C110.256 125.845 108.49 125.054 106.311 125.054C104.133 125.054 102.367 125.845 102.367 126.821C102.367 127.796 104.133 128.587 106.311 128.587Z" fill="#4B4F51"/>
<path d="M100.394 103.859C103.335 103.859 105.72 101.012 105.72 97.5C105.72 93.9882 103.335 91.1413 100.394 91.1413C97.4531 91.1413 95.0688 93.9882 95.0688 97.5C95.0688 101.012 97.4531 103.859 100.394 103.859Z" fill="white"/>
<path d="M100.394 99.6196C101.375 99.6196 102.169 98.6706 102.169 97.5C102.169 96.3294 101.375 95.3804 100.394 95.3804C99.4139 95.3804 98.6191 96.3294 98.6191 97.5C98.6191 98.6706 99.4139 99.6196 100.394 99.6196Z" fill="#2F2E41"/>
<path d="M84.8851 84.908C83.627 78.1801 87.6488 71.3819 93.8682 69.7237C100.088 68.0655 100.714 72.1671 101.972 78.8949C103.231 85.6228 104.544 88.1124 98.3244 89.7706C92.1051 91.4287 86.1433 91.6358 84.8851 84.908Z" fill="#2F2E41"/>
<path d="M173.373 120.815C181.978 120.815 188.955 112.485 188.955 102.21C188.955 91.9349 181.978 83.6051 173.373 83.6051C164.767 83.6051 157.791 91.9349 157.791 102.21C157.791 112.485 164.767 120.815 173.373 120.815Z" fill="#4B4F51"/>
<path d="M171.006 116.812H166.272V126.938H171.006V116.812Z" fill="#4B4F51"/>
<path d="M180.473 116.812H175.74V126.938H180.473V116.812Z" fill="#4B4F51"/>
<path d="M170.217 128.822C172.395 128.822 174.162 128.032 174.162 127.056C174.162 126.081 172.395 125.29 170.217 125.29C168.038 125.29 166.272 126.081 166.272 127.056C166.272 128.032 168.038 128.822 170.217 128.822Z" fill="#4B4F51"/>
<path d="M179.685 128.587C181.863 128.587 183.629 127.796 183.629 126.821C183.629 125.845 181.863 125.054 179.685 125.054C177.506 125.054 175.74 125.845 175.74 126.821C175.74 127.796 177.506 128.587 179.685 128.587Z" fill="#4B4F51"/>
<path d="M173.767 103.859C176.709 103.859 179.093 101.012 179.093 97.5C179.093 93.9882 176.709 91.1413 173.767 91.1413C170.826 91.1413 168.442 93.9882 168.442 97.5C168.442 101.012 170.826 103.859 173.767 103.859Z" fill="white"/>
<path d="M173.767 99.6196C174.748 99.6196 175.542 98.6706 175.542 97.5C175.542 96.3294 174.748 95.3804 173.767 95.3804C172.787 95.3804 171.992 96.3294 171.992 97.5C171.992 98.6706 172.787 99.6196 173.767 99.6196Z" fill="#2F2E41"/>
<path d="M158.258 84.9079C157 78.1801 161.022 71.3818 167.241 69.7237C173.461 68.0655 179.522 72.1753 180.78 78.9032C182.039 85.6311 177.917 88.1124 171.697 89.7706C165.478 91.4287 159.516 91.6358 158.258 84.9079Z" fill="#F5C108"/>
<path d="M107.408 78.9032C106.151 72.1824 100.1 68.0746 93.8877 69.7191L98.2216 89.7973C98.256 89.7883 98.2902 89.7798 98.3245 89.7706C104.544 88.1125 108.666 85.6311 107.408 78.9032Z" fill="#F5C108"/>
<path d="M97.0415 6.12318C97.0415 7.06009 97.3532 7.95862 97.908 8.62112C98.4629 9.28361 99.2154 9.65579 100 9.65579V2.59058C99.2154 2.59058 98.4629 2.96276 97.908 3.62525C97.3532 4.28775 97.0415 5.18628 97.0415 6.12318Z" fill="#2F2E41"/>
<path d="M77.9093 83.7853C77.9093 97.558 71.0521 102.367 62.5933 102.367C54.1345 102.367 47.2773 97.558 47.2773 83.7853C47.2773 70.0127 62.5933 52.4916 62.5933 52.4916C62.5933 52.4916 77.9093 70.0127 77.9093 83.7853Z" fill="#1DB776"/>
<path d="M62.0352 100.26L62.192 88.7337L68.7202 74.4738L62.2167 86.9255L62.2873 81.7427L66.7863 71.4258L62.3058 80.3711L62.4326 71.0497L67.2504 62.8362L62.4526 69.5839L62.5319 52.4918L62.0338 75.1188L62.0749 74.1853L57.1766 65.2332L61.9964 75.9773L61.5399 86.3876L61.5263 86.1114L55.8794 76.6904L61.5092 87.0875L61.4522 88.3894L61.4419 88.409L61.4467 88.5159L60.2887 114.928H61.8356L62.0214 101.286L67.6372 90.9141L62.0352 100.26Z" fill="#2F2E41"/>
<path d="M60.9465 116.812C63.8877 116.812 66.272 115.968 66.272 114.928C66.272 113.887 63.8877 113.044 60.9465 113.044C58.0054 113.044 55.6211 113.887 55.6211 114.928C55.6211 115.968 58.0054 116.812 60.9465 116.812Z" fill="#2F2E41"/>
<path d="M152.071 83.7853C152.071 97.558 145.214 102.367 136.755 102.367C128.296 102.367 121.439 97.558 121.439 83.7853C121.439 70.0127 136.755 52.4916 136.755 52.4916C136.755 52.4916 152.071 70.0127 152.071 83.7853Z" fill="#1DB776"/>
<path d="M136.197 100.26L136.354 88.7337L142.882 74.4738L136.378 86.9255L136.449 81.7427L140.948 71.4258L136.467 80.3711L136.594 71.0497L141.412 62.8362L136.614 69.5839L136.693 52.4918L136.195 75.1188L136.236 74.1853L131.338 65.2332L136.158 75.9773L135.702 86.3876L135.688 86.1114L130.041 76.6904L135.671 87.0875L135.614 88.3894L135.604 88.409L135.608 88.5159L134.45 114.928H135.997L136.183 101.286L141.799 90.9141L136.197 100.26Z" fill="#2F2E41"/>
<path d="M135.306 116.812C138.247 116.812 140.631 115.968 140.631 114.928C140.631 113.887 138.247 113.044 135.306 113.044C132.365 113.044 129.98 113.887 129.98 114.928C129.98 115.968 132.365 116.812 135.306 116.812Z" fill="#2F2E41"/>
</svg>
