<svg width="125" height="260" viewBox="0 0 125 260" fill="none" xmlns="http://www.w3.org/2000/svg">
<path d="M59.6699 95.6259L60.1116 85.3734L70.8741 85.6956L70.4324 95.9494C70.4324 95.9494 79.9152 101.747 79.5052 111.315C79.0937 120.881 77.7974 151.031 77.7974 151.031C77.6331 153.554 70.8063 155.393 62.5007 155.143C54.1952 154.894 47.5433 152.652 47.596 150.126C47.596 150.126 48.8908 119.976 49.3023 110.41C49.7138 100.842 59.6699 95.6259 59.6699 95.6259" fill="#135E8A" fill-opacity="0.25"/>
<path d="M58.4581 83.3984C58.4244 84.1995 59.1722 84.8713 60.1315 84.8994L70.8933 85.2231C71.8525 85.2513 72.657 84.6256 72.6923 83.8258C72.726 83.0248 71.9767 82.353 71.0189 82.3235L60.2571 82.0011C59.2979 81.9729 58.4918 82.5987 58.4581 83.3984" fill="#C2DEEA"/>
<path d="M65.5928 95.6446L66.0239 86.0415L69.4508 86.1494L69.0196 95.7475L65.5928 95.6446Z" fill="white"/>
<path d="M70.2489 101.534C69.4751 100.49 68.6887 99.6685 68.0205 99.0588L72.5152 99.1939C72.6953 99.4124 72.8768 99.6415 73.0569 99.8812C74.3835 101.641 75.4175 103.598 76.1251 105.698C76.6611 107.286 77.0114 108.958 77.1746 110.695L73.7265 110.592C73.3621 107.202 72.1973 104.167 70.2489 101.534Z" fill="white"/>
<path d="M72.2435 150.833L73.8274 114C73.8274 113.98 73.8273 113.958 73.8287 113.936L77.2578 114.039C77.2565 114.061 77.2551 114.083 77.2551 114.104L75.6589 151.276C75.6589 151.276 72.249 154.11 61.9932 153.803C61.9932 153.803 70.6734 152.672 72.2435 150.833" fill="white"/>
<path d="M37.8758 103.725L35.7462 93.6216L25.1399 95.1801L27.2696 105.285C27.2696 105.285 18.835 112.121 20.8228 121.549C22.8107 130.976 29.0737 160.687 29.0737 160.687C29.6538 163.169 36.7198 164.203 44.9041 163.001C53.0899 161.798 59.3067 158.81 58.8365 156.313H58.8379C58.8379 156.313 52.5749 126.602 50.587 117.173C48.5992 107.746 37.8758 103.725 37.8758 103.725Z" fill="#135E8A" fill-opacity="0.25"/>
<path d="M37.0576 91.4748C37.2225 92.2641 36.5924 93.0165 35.6473 93.1554L25.0416 94.7143C24.0965 94.8532 23.197 94.327 23.0291 93.5377C22.8643 92.7485 23.4943 91.9973 24.4395 91.8571L35.0452 90.2983C35.9903 90.1593 36.8898 90.6868 37.0576 91.4748Z" fill="#C2DEEA"/>
<path d="M32.0148 104.426L30.0017 94.9653L26.625 95.4657L28.6367 104.923L32.0148 104.426" fill="white"/>
<path d="M28.3726 110.796C28.9664 109.673 29.6098 108.769 30.1715 108.088L25.7413 108.739C25.5992 108.976 25.4585 109.225 25.3191 109.482C24.295 111.379 23.5953 113.436 23.2401 115.597C22.9707 117.231 22.9009 118.928 23.0256 120.668L26.425 120.167C26.2266 116.77 26.878 113.628 28.3726 110.796Z" fill="white"/>
<path d="M34.5386 159.852L26.8862 123.556C26.8825 123.534 26.8788 123.513 26.8739 123.491L23.4951 123.988C23.4988 124.01 23.5037 124.03 23.5086 124.052L31.2309 160.684C31.2309 160.684 35.0737 163.099 45.1819 161.612C45.1819 161.612 36.3992 161.493 34.5386 159.852" fill="white"/>
<path d="M92.2745 101.523L94.4062 91.4183L105.011 92.9771L102.881 103.082C102.881 103.082 111.316 109.918 109.329 119.346C107.34 128.774 101.077 158.486 101.077 158.486L101.076 158.485C100.497 160.965 93.4311 162.001 85.2453 160.798C77.061 159.594 70.8443 156.606 71.3129 154.11C71.3129 154.11 77.5769 124.398 79.5635 114.971C81.5515 105.543 92.2745 101.523 92.2745 101.523" fill="#135E8A" fill-opacity="0.25"/>
<path d="M93.0935 89.2721C92.9289 90.062 93.5595 90.8129 94.5038 90.953L105.11 92.5119C106.053 92.6507 106.955 92.1241 107.12 91.3343C107.288 90.5457 106.657 89.7935 105.711 89.6547L95.1064 88.0957C94.1605 87.957 93.2612 88.4835 93.0935 89.2721" fill="#C2DEEA"/>
<path d="M101.773 108.592C101.182 107.469 100.537 106.565 99.9766 105.884L104.406 106.535C104.548 106.773 104.69 107.022 104.828 107.278C105.853 109.176 106.552 111.232 106.907 113.394C107.176 115.028 107.247 116.724 107.12 118.465L103.722 117.964C103.921 114.566 103.269 111.424 101.773 108.592" fill="white"/>
<path d="M95.6071 157.65L103.26 121.353C103.265 121.333 103.268 121.311 103.273 121.29L106.652 121.785C106.647 121.807 106.642 121.829 106.638 121.85L98.9148 158.482C98.9148 158.482 95.0711 160.897 84.9639 159.411C84.9639 159.411 93.7465 159.29 95.6071 157.65" fill="white"/>
<path d="M22.8785 256.791C22.8785 258.186 21.6275 259.316 20.0844 259.316H14.4513C12.9082 259.316 11.6572 258.186 11.6572 256.791V239.391C11.6572 237.996 12.9082 236.866 14.4513 236.866H20.0844C21.6275 236.866 22.8785 237.996 22.8785 239.391V256.791" fill="#4B4F51"/>
<path d="M119.457 256.791C119.457 258.186 118.206 259.316 116.663 259.316H111.029C109.486 259.316 108.235 258.186 108.235 256.791V239.391C108.235 237.996 109.486 236.866 111.029 236.866H116.663C118.206 236.866 119.457 237.996 119.457 239.391V256.791Z" fill="#4B4F51"/>
<path d="M120.561 134.004C120.561 133.835 120.556 133.616 120.549 133.502H10.5689C10.5613 133.616 10.5566 133.835 10.5566 134.004L10.7709 137.897L119.743 148.866L120.561 134.004" fill="#178F5D"/>
<path d="M10.7695 137.897L16.8066 247.605C16.8066 254.45 22.9464 260 30.5201 260H33.5992H97.5156H100.595C108.168 260 114.309 254.45 114.309 247.605L119.741 148.865L10.7695 137.897" fill="#1DB776"/>
<path d="M125.001 132.683C125.001 134.554 123.267 136.124 121.196 136.124H9.91842C7.84811 136.124 6.23242 134.554 6.23242 132.683V127.947C6.23242 126.076 7.84811 124.613 9.91842 124.613H121.196C123.267 124.613 125.001 126.076 125.001 127.947V132.683Z" fill="#1DB776"/>
<path d="M71.5989 180.688L66.1061 184.183L73.3092 183.406L73.6268 183.371L74.5448 183.274L80.9499 182.582L83.6964 177.61L83.9838 177.089L87.6271 170.492L82.0415 174.046L77.224 166.504C75.9319 164.702 74.574 163.916 73.2363 163.791C70.867 163.686 68.4583 165.608 66.7463 167.488C66.2771 168.027 65.8502 168.572 65.4727 169.087C65.3239 169.291 65.1813 169.49 65.0488 169.682C65.1801 169.928 65.3243 170.192 65.4727 170.462C65.6751 170.83 65.8884 171.213 66.1205 171.619C67.5277 174.095 69.455 177.262 71.5989 180.688" fill="white"/>
<path d="M86.1321 204.489C85.4183 204.442 84.6147 204.397 83.738 204.359C80.6615 204.223 76.6652 204.148 72.3091 204.114L71.7076 198.066L68.8509 204.093L68.7255 204.359L68.36 205.127L65.8203 210.488L69.2111 215.123L69.5658 215.608L74.0649 221.758L73.4518 215.608H83.0871C85.4601 215.499 86.8909 214.829 87.6809 213.844C88.9667 212.042 88.3281 209.195 87.3827 206.915C86.9908 206.026 86.5438 205.195 86.1321 204.489Z" fill="white"/>
<path d="M97.1653 200.429C97.1765 199.738 97.0144 199.324 96.9149 199.129L96.7962 198.944L88.2291 185.529L78.3389 190.272C78.953 191.203 79.696 192.386 80.4834 193.652L85.8934 202.122C86.087 202.386 86.5279 203.019 87.0472 203.883L87.0781 203.886L87.2387 204.152C87.6351 204.808 88.0899 205.677 88.4869 206.635C89.2848 208.474 89.9327 210.58 89.5064 212.417L97.1653 200.429" fill="white"/>
<path d="M65.4754 167.283C65.6215 167.111 65.7713 166.937 65.9291 166.764C67.293 165.221 68.9857 163.662 70.9584 163.076H65.4754H55.6427C54.9765 163.413 54.6601 163.745 54.523 163.922L54.4051 164.106L45.8369 177.521L55.3267 182.891C55.9113 181.944 56.6734 180.771 57.4928 179.521L62.9015 171.053C63.059 170.768 63.4444 170.107 64.0112 169.268L63.9977 169.244L64.1737 168.985C64.5106 168.486 64.9545 167.895 65.4754 167.283Z" fill="white"/>
<path d="M41.5146 204.518C42.5625 204.655 43.5843 204.722 44.4637 204.751C44.8678 204.216 45.3115 203.608 45.7859 202.944C47.4547 200.602 49.5254 197.51 51.7362 194.118L57.8313 196.671L53.4851 191.421L53.2929 191.19L52.7396 190.521L48.8743 185.853L42.7384 186.189L42.0949 186.225L33.9531 186.671L40.1509 189.267L35.3337 196.808C34.2535 198.72 34.1801 200.177 34.7281 201.287C35.8118 203.194 38.8592 204.118 41.5146 204.518Z" fill="white"/>
<path d="M57.6727 205.747H46.8522C46.5025 205.766 45.675 205.796 44.5904 205.771L44.5718 205.794L44.2355 205.785C43.4072 205.768 42.3501 205.69 41.2304 205.521C39.0701 205.227 36.7291 204.68 35.1836 203.428L42.8417 215.418C43.4947 215.772 43.9745 215.852 44.2089 215.873H44.4461H61.5827L61.983 205.759C60.7843 205.771 59.2791 205.765 57.6727 205.747" fill="white"/>
<path d="M55.8007 7.40941C54.8614 4.81701 53.2305 2.63884 51.3639 0.575251L50.4036 0.796995L38.0064 3.65945L37.046 3.8812C36.444 6.51477 36.1083 9.14702 36.5931 11.8444C36.697 12.4197 36.8564 13.135 37.097 13.7158C38.7033 17.5751 43.6897 16.8403 46.6701 18.7323C48.4431 19.8595 51.2835 30.14 51.0786 31.8974C50.9213 33.2481 49.0125 34.0706 47.3845 34.6479C46.7903 34.8568 45.747 34.9288 45.5869 35.6044C47.3858 35.5153 50.1551 34.9847 52.8538 34.35C55.5572 33.7374 58.2714 33.0019 59.9048 32.2985C59.421 31.7715 58.4633 32.1616 57.8328 32.2354C56.1024 32.4336 54.0004 32.5372 53.1754 31.4132C52.1048 29.9503 49.4 19.6385 50.3962 17.872C52.0673 14.9059 56.8428 13.3867 56.3046 9.28087C56.2226 8.66343 56.0004 7.96266 55.8007 7.40941" fill="#135E8A" fill-opacity="0.25"/>
<path d="M99.9031 48.9984L99.4895 57.5172L98.7841 72.0694L99.3137 72.1296L99.2151 72.873L113.789 74.5301L113.887 73.7867L114.13 73.8143L117.247 59.5363L119.071 51.178L99.9031 48.9984" fill="#135E8A" fill-opacity="0.25"/>
<path d="M30.3565 40.347C26.6934 34.7035 20.5035 36.785 20.5035 36.785L12.2092 23.4809L5.99497 26.8034L14.2893 40.1075C14.2893 40.1075 9.24783 44.0311 12.6927 49.7912C12.6956 49.802 12.7014 49.8259 12.7014 49.8259L12.7843 49.9588L32.2762 81.2239C35.7809 80.6421 39.0747 79.2304 41.8503 77.6701C44.697 76.2244 47.664 74.2885 49.9605 71.7687L30.4685 40.5036L30.3857 40.3707C30.3857 40.3707 30.3662 40.3541 30.3565 40.347" fill="#135E8A" fill-opacity="0.25"/>
<path d="M38.9291 54.0737L21.2451 63.5288L15.9365 55.0138L33.6206 45.5588L38.9291 54.0737Z" fill="#F5C108"/>
<path d="M12.4313 22.8088L12.0712 23.0014L5.61234 26.4547L5.25313 26.6468L7.83431 30.787L8.19352 30.5949L12.4237 37.3801L18.8825 33.9267L14.6524 27.1416L15.0125 26.9491L12.4313 22.8088Z" fill="#F5C108"/>
<path d="M35.5808 51.5507C36.1872 52.5233 35.7348 53.8178 34.5691 54.4411L23.704 60.2503C22.5391 60.8731 21.1025 60.5886 20.4962 59.616L19.4929 58.0068C18.8866 57.0342 19.3388 55.7397 20.5037 55.1169L31.3687 49.3077C32.5344 48.6844 33.9712 48.9689 34.5776 49.9415L35.5808 51.5507Z" fill="#135E8A" fill-opacity="0.25"/>
<path d="M95.1793 12.7879C95.3004 12.6801 95.4726 12.6336 95.4726 12.6336C95.6807 12.104 95.4021 11.4103 94.6617 11.1607L88.8909 9.2156C88.1505 8.96603 87.4556 9.33159 87.2474 9.86123C87.2474 9.86123 87.3458 9.99897 87.365 10.154C87.3756 10.2511 87.3497 10.369 87.3155 10.4592L95.0053 13.0512C95.0407 12.9613 95.1035 12.8559 95.1793 12.7879" fill="#FA5652"/>
<path d="M92.178 32.2299C92.1952 32.2252 92.2125 32.2179 92.2286 32.2103C90.1335 31.6533 87.4726 30.8453 84.1052 29.7103C80.6462 28.5445 78.0575 27.5777 76.1392 26.774C76.1486 26.7955 76.1592 26.8174 76.1723 26.835C76.1723 26.835 72.1502 31.4179 71.2622 36.6726C73.856 38.0363 76.8138 39.3945 79.8914 40.4318C82.9997 41.4795 86.2147 42.27 89.1358 42.8594C89.1192 42.7622 89.0931 42.7194 89.0931 42.7194C92.0784 38.1612 92.178 32.2299 92.178 32.2299" fill="#FA5652"/>
<path d="M83.4696 53.5991C83.5288 53.4484 83.586 53.2996 83.6415 53.1554C83.9844 52.3924 84.2931 51.8497 84.3746 51.6454C84.592 51.0922 87.9889 45.7182 88.6796 44.4434C89.1579 43.5631 89.1693 43.0755 89.1315 42.8591C86.2108 42.2693 82.9949 41.4808 79.8867 40.4331C76.8089 39.3957 73.8524 38.035 71.2582 36.6717C71.2559 36.6836 71.2537 36.6956 71.2523 36.7053C71.2523 36.7053 70.7231 36.8834 70.3674 38.2711C70.0127 39.6591 68.8834 45.7975 68.6671 46.351C68.5858 46.5578 68.4442 47.1671 68.172 47.9692C68.118 48.1063 68.0631 48.2431 68.0065 48.387C66.6331 51.8814 64.2357 53.001 63.3475 55.2609C62.1659 58.2672 63.8364 60.6027 71.0123 63.0214C78.1884 65.4402 81.0826 64.6434 82.2642 61.637C83.1524 59.3771 82.0962 57.0934 83.4696 53.5991Z" fill="#135E8A" fill-opacity="0.25"/>
<path d="M84.1047 29.709C87.472 30.8441 90.1325 31.6531 92.2273 32.2112C93.0678 31.8422 92.6443 28.8464 92.6443 28.8464C92.5695 28.0538 92.5078 27.1669 92.459 26.32C92.3499 24.4579 92.3009 22.7915 92.3009 22.7915C92.2989 22.7908 92.2948 22.7894 92.2914 22.7855C92.3477 22.0234 92.4586 20.9097 92.6708 19.726C93.1458 17.9594 93.808 16.2229 94.0267 15.6663C94.197 15.2331 94.8541 15.4793 95.0082 15.0872C95.188 14.6298 94.9729 13.2774 94.9784 13.1505C94.9826 13.119 94.9832 13.1082 95.0183 13.0214L87.3284 10.4294C87.2942 10.5165 87.2883 10.5255 87.2685 10.5517C87.1859 10.6527 86.0842 11.5558 85.9064 12.0084C85.7523 12.4004 86.4225 12.6099 86.2532 13.0407C86.0345 13.5973 85.3393 15.3144 84.4809 16.9463C83.819 17.9866 83.1289 18.9106 82.6392 19.5321C82.6348 19.5307 82.6298 19.5317 82.6278 19.5311C82.6278 19.5311 81.4335 20.7784 80.0576 22.14C79.4323 22.7596 78.7695 23.4023 78.1617 23.9648C78.1617 23.9648 75.7897 25.9828 76.1379 26.7744C78.0564 27.5772 80.6458 28.5432 84.1047 29.709" fill="#135E8A" fill-opacity="0.25"/>
</svg>
