<svg width="150" height="285" viewBox="0 0 150 285" fill="none" xmlns="http://www.w3.org/2000/svg">
<g clip-path="url(#clip0)">
<path d="M110.918 53.5302L96.9327 57.4624L98.0714 62.6128L95.0295 71.7021L104.121 112.824L122.863 107.554L110.918 53.5302Z" fill="#F5C108" fill-opacity="0.28"/>
<path d="M114.887 57.885L111.845 66.9743L120.937 108.096L130.449 105.421L121.357 64.2999L114.887 57.885Z" fill="#F5C108"/>
<path d="M112.055 58.6811L110.916 53.5307L96.9308 57.4628L98.0696 62.6133L95.0275 71.7026L109.013 67.7705L112.055 58.6811Z" fill="#F9EBD7"/>
<path d="M114.888 57.8845L113.749 52.7341L105.34 55.0983L106.479 60.2488L103.437 69.3381L112.529 110.46L120.938 108.095L111.846 66.9738L114.888 57.8845Z" fill="#F5C108" fill-opacity="0.28"/>
<path d="M103.437 69.3381L111.846 66.9738L120.937 108.095L112.528 110.46L103.437 69.3381Z" fill="#F5C108" fill-opacity="0.39"/>
<path d="M128.327 70.8219L115.275 74.4916L116.338 79.2981L113.499 87.7808L118.163 108.875L135.653 103.957L128.327 70.8219Z" fill="#A4A8A6"/>
<path d="M132.034 74.8851L129.195 83.3678L133.859 104.462L142.736 101.966L138.072 80.872L132.034 74.8851Z" fill="#909090" fill-opacity="0.5"/>
<path d="M129.39 75.6285L128.327 70.8219L115.275 74.4916L116.338 79.2981L113.499 87.7808L126.551 84.1112L129.39 75.6285Z" fill="#AFB8B5"/>
<path d="M132.032 74.8854L130.97 70.0788L123.122 72.2853L124.185 77.0918L121.346 85.5745L126.01 106.669L133.857 104.462L129.194 83.3681L132.032 74.8854Z" fill="#A4A8A6"/>
<path d="M121.347 85.5747L129.194 83.3683L133.858 104.463L126.011 106.669L121.347 85.5747Z" fill="#919191"/>
</g>
<path d="M42.3235 63.6225L46.3244 91.7231L21.1675 89.3386L15.7012 70.7366L42.3235 63.6225" fill="#503B26"/>
<path d="M61.947 68.9741L42.3213 63.6162L46.7417 94.6614L56.8566 85.6873L61.947 68.9741" fill="#5F4627"/>
<path d="M40.5616 99.6907C37.6754 98.9914 33.6266 89.1189 31.5439 82.5997L36.0175 105.925L50.9909 98.8315C46.36 99.5704 42.1705 100.079 40.5616 99.6907Z" fill="#937447"/>
<path d="M62.287 70.1955L30.8926 79.0783L31.5476 82.6007C33.6303 89.1192 37.6792 98.9921 40.5653 99.6912C42.1742 100.08 46.3636 99.5712 50.9945 98.8322L62.9455 93.1726L62.287 70.1955Z" fill="#856B3F"/>
<path d="M30.8933 79.0761L17.6104 77.4369C19.3961 83.9734 21.6358 90.0714 22.9499 91.6499C24.6807 93.7261 32.5862 102.342 35.1165 105.093L36.0222 105.924L30.8933 79.0761Z" fill="#A98A49"/>
<path d="M42.4883 63.5941L62.0306 68.957L73.2205 60.3881L52.3131 56.9047L42.4883 63.5941" fill="#BA9862"/>
<path d="M30.8916 79.0779L62.0282 68.9583L76.3369 66.808L41.2031 78.6711L30.8916 79.0779" fill="#C8A470"/>
<path d="M30.8855 79.0754L15.8194 70.7212L0.347656 69.7148C2.436 71.1828 10.4465 76.7517 12.1939 77.0883C13.9541 77.4264 27.5017 78.7469 30.8855 79.0754" fill="#D1AE7B"/>
<path d="M12.1973 77.0873C10.4497 76.7523 2.4394 71.1829 0.35097 69.7148L0 69.6924L11.4672 78.5506L30.8926 79.0779L30.8887 79.0747C27.5049 78.7477 13.9575 77.4255 12.1973 77.0873" fill="#E3C196"/>
<path d="M17.7454 68.4364C14.6789 68.092 11.643 65.1855 10.183 63.5847L9.76465 63.6815L15.8292 70.7212L28.4636 67.344C23.9163 68.0723 19.513 68.6365 17.7454 68.4364" fill="#C9A36E"/>
<path d="M35.048 57.8389L10.1709 63.5857C11.6308 65.1858 14.6669 68.0927 17.7332 68.4378C19.5009 68.6372 23.9041 68.0726 28.4514 67.3454L42.4811 63.5958L35.048 57.8389Z" fill="#BA9962"/>
<path d="M111.118 16.3591L62.9928 7.80672L56.7638 38.8099L78.9958 42.7608C79.2642 43.3135 79.8796 43.7641 80.6624 43.9032C81.4452 44.0423 82.193 43.834 82.6573 43.4115L104.889 47.3623L111.118 16.3591Z" fill="#875C32"/>
<path d="M72.035 38.1101C72.035 38.1101 71.9111 41.784 70.4903 44.0059L72.7152 42.8206L73.7175 44.6964C73.7175 44.6964 75.0592 42.1372 75.0992 38.528L72.035 38.1101" fill="#2D5A57"/>
<path d="M63.8212 7.94497L57.9932 38.1257C57.9932 38.1257 69.469 35.5932 79.9102 42.1134L85.722 12.0171C85.722 12.0171 73.5733 8.28684 63.8212 7.94497Z" fill="#CDC09C"/>
<path d="M64.6793 7.56595L58.8865 37.7656C58.8865 37.7656 71.6073 35.5683 79.8959 42.1307L85.7032 12.0239C85.7032 12.0239 68.9598 6.29208 64.6793 7.56595" fill="#DFDBBC"/>
<path d="M67.4081 4.11498L61.8324 34.2313C61.8324 34.2313 74.9254 35.5047 79.7922 42.1446L85.4438 11.9656C85.4438 11.9656 76.634 4.22204 67.4081 4.11498" fill="#EFE8D5"/>
<path d="M72.1543 2.3063L66.5923 32.9137C66.5923 32.9137 75.0384 33.1346 79.8807 42.1243L85.4605 11.7978C85.4605 11.7978 81.66 3.24862 72.1543 2.3063" fill="#FFFFFB"/>
<path d="M109.648 15.9647L103.831 46.1462C103.831 46.1462 94.0069 39.513 81.9478 41.8436L87.8354 11.8984C87.8354 11.8984 100.444 12.7809 109.648 15.9647" fill="#CDC09C"/>
<path d="M109.003 15.3168L103.197 45.5142C103.197 45.5142 92.0934 38.726 81.9395 41.8474L87.7606 11.8813C87.7606 11.8813 105.489 12.5895 109.003 15.3168Z" fill="#DFDBBC"/>
<path d="M107.268 11.0984L101.524 41.1813C101.524 41.1813 88.886 37.4904 81.9404 41.8967L87.654 11.738C87.654 11.738 98.6339 7.82891 107.268 11.0984Z" fill="#EFE8D5"/>
<path d="M53.0483 194.464C55.3311 193.185 53.4503 188.995 53.4503 188.995L110.86 156.847L81.6298 102.169L19.2451 137.102L49.1464 193.036C49.9719 193.99 51.5013 195.33 53.0483 194.464Z" fill="#363938" fill-opacity="0.5"/>
<path d="M116.249 154.707L53.864 189.642L21.9033 129.856L84.2879 94.9213L116.249 154.707Z" fill="#DBDAD8"/>
<path d="M36.2888 140.095L32.1572 132.366L34.1513 131.25L37.234 133.202C38.1174 133.766 39.0804 134.478 39.8826 135.161L39.9159 135.143C39.2586 134.186 38.6671 133.16 38.0481 132.002L36.8403 129.743L38.4088 128.864L42.5405 136.594L40.7478 137.598L37.5408 135.519C36.6512 134.944 35.6251 134.223 34.771 133.524L34.7434 133.554C35.3338 134.55 35.9386 135.626 36.613 136.889L37.8574 139.216L36.2888 140.095" fill="#535C73"/>
<path d="M46.7603 129.982L43.9816 131.536L44.9625 133.372L48.0662 131.633L48.8324 133.068L44.0145 135.766L39.8828 128.037L44.5436 125.427L45.3098 126.86L42.3633 128.509L43.2216 130.115L46.0003 128.56L46.7603 129.982" fill="#535C73"/>
<path d="M51.2974 131.687L45.373 124.963L47.1994 123.94L49.4751 126.807C50.1334 127.63 50.8238 128.54 51.3638 129.251L51.3859 129.239C51.0616 128.333 50.7446 127.303 50.4262 126.245L49.3729 122.723L51.188 121.707L53.5341 124.625C54.1863 125.436 54.7509 126.193 55.3225 126.99L55.3451 126.977C54.9974 126.055 54.6811 125.054 54.3477 124.05L53.2719 120.539L55.0088 119.567L57.1909 128.388L55.3421 129.422L52.9258 126.455C52.3632 125.757 51.8539 125.104 51.2922 124.271L51.2695 124.284C51.6012 125.229 51.8701 126.033 52.1078 126.912L53.1683 130.639L51.2974 131.687" fill="#535C73"/>
<path d="M59.0321 125.018C59.6203 125.001 60.4549 124.846 61.1831 124.439C61.9673 123.999 62.2041 123.436 61.9345 122.931C61.677 122.449 61.1713 122.375 60.0862 122.551C58.5924 122.806 57.3942 122.553 56.7935 121.429C56.0884 120.111 56.6244 118.498 58.406 117.502C59.2577 117.025 59.9831 116.857 60.5418 116.812L60.9147 118.437C60.5325 118.456 59.8782 118.54 59.1385 118.954C58.3994 119.367 58.2248 119.912 58.4393 120.314C58.7029 120.807 59.2451 120.787 60.422 120.62C62.0251 120.376 63.0325 120.737 63.6148 121.826C64.3075 123.121 63.9212 124.768 61.8486 125.929C60.986 126.411 60.0118 126.659 59.4573 126.657L59.0321 125.018" fill="#535C73"/>
<path d="M85.9885 110.207L67.2413 120.705L64.7939 116.128L83.5411 105.629L85.9885 110.207Z" fill="#F5C108"/>
<path d="M91.8776 114.425L35.7311 145.866L34.3252 143.236L90.4719 111.795L91.8776 114.425Z" fill="#363938" fill-opacity="0.5"/>
<path d="M76.3029 148.922L46.5233 165.597L36.7373 147.291L66.5169 130.616L76.3029 148.922Z" fill="#F5C108"/>
<path d="M93.8073 118.03L69.1907 131.815L68.0811 129.739L92.6976 115.954L93.8073 118.03" fill="#363938" fill-opacity="0.5"/>
<path d="M96.6992 123.441L72.0824 137.225L70.9727 135.149L95.5895 121.364L96.6992 123.441Z" fill="#363938" fill-opacity="0.5"/>
<path d="M99.5896 128.852L74.973 142.636L73.8633 140.559L98.4798 126.776L99.5896 128.852" fill="#363938" fill-opacity="0.5"/>
<path d="M102.482 134.26L77.8655 148.046L76.7559 145.971L101.373 132.186L102.482 134.26Z" fill="#363938" fill-opacity="0.5"/>
<path d="M106.515 145.968L52.9141 175.983L48.8857 168.449L102.487 138.433L106.515 145.968Z" fill="#FA5652"/>
<path d="M110.224 152.901L87.0605 165.872L84.8047 161.652L107.968 148.681L110.224 152.901" fill="#F5C108"/>
<path d="M35.4738 281.79C35.4738 283.185 34.3685 284.316 33.0052 284.316H28.0282C26.6648 284.316 25.5596 283.185 25.5596 281.79V264.383C25.5596 262.987 26.6648 261.856 28.0282 261.856H33.0052C34.3685 261.856 35.4738 262.987 35.4738 264.383V281.79" fill="#4B4F51"/>
<path d="M120.808 281.79C120.808 283.185 119.703 284.316 118.339 284.316H113.362C111.999 284.316 110.894 283.185 110.894 281.79V264.383C110.894 262.987 111.999 261.856 113.362 261.856H118.339C119.703 261.856 120.808 262.987 120.808 264.383V281.79Z" fill="#4B4F51"/>
<path d="M121.783 158.952C121.783 158.783 121.779 158.564 121.772 158.45H24.6026C24.5959 158.564 24.5918 158.783 24.5918 158.952L24.7811 162.846L121.06 173.82L121.783 158.952" fill="#1F5271"/>
<path d="M24.7832 162.846L30.1171 272.6C30.1171 279.448 35.5417 285 42.2333 285H44.9537H101.425H104.146C110.837 285 116.262 279.448 116.262 272.6L121.062 173.819L24.7832 162.846" fill="#135E8A"/>
<path d="M125.704 157.63C125.704 159.502 124.172 161.072 122.342 161.072H24.0262C22.197 161.072 20.7695 159.502 20.7695 157.63V152.892C20.7695 151.021 22.197 149.557 24.0262 149.557H122.342C124.172 149.557 125.704 151.021 125.704 152.892V157.63Z" fill="#135E8A"/>
<path d="M78.5215 205.655L73.6685 209.152L80.0326 208.375L80.3132 208.339L81.1243 208.242L86.7833 207.55L89.21 202.576L89.4638 202.055L92.6829 195.455L87.7478 199.011L83.4915 191.466C82.3499 189.663 81.1501 188.876 79.9682 188.751C77.8749 188.646 75.7467 190.57 74.2341 192.45C73.8196 192.989 73.4424 193.534 73.1089 194.049C72.9774 194.253 72.8515 194.453 72.7344 194.644C72.8503 194.891 72.9778 195.155 73.1089 195.425C73.2877 195.793 73.4762 196.177 73.6812 196.582C74.9245 199.06 76.6273 202.228 78.5215 205.655" fill="white"/>
<path d="M91.3639 229.466C90.7332 229.419 90.0233 229.374 89.2487 229.336C86.5305 229.2 82.9997 229.125 79.151 229.091L78.6195 223.04L76.0956 229.07L75.9848 229.336L75.6618 230.104L73.418 235.467L76.4138 240.104L76.7272 240.59L80.7023 246.742L80.1605 240.59H88.6736C90.7702 240.481 92.0343 239.81 92.7323 238.825C93.8683 237.023 93.3041 234.175 92.4689 231.893C92.1226 231.004 91.7277 230.173 91.3639 229.466Z" fill="white"/>
<path d="M101.109 225.404C101.119 224.713 100.976 224.299 100.888 224.104L100.783 223.919L93.2138 210.498L84.4756 215.244C85.0182 216.175 85.6747 217.358 86.3703 218.625L91.1502 227.098C91.3212 227.363 91.7108 227.996 92.1696 228.86L92.1969 228.863L92.3388 229.129C92.6891 229.786 93.0909 230.654 93.4416 231.613C94.1466 233.453 94.719 235.56 94.3424 237.398L101.109 225.404" fill="white"/>
<path d="M73.1088 192.244C73.2379 192.072 73.3703 191.899 73.5098 191.726C74.7147 190.182 76.2103 188.622 77.9533 188.036H73.1088H64.4215C63.8328 188.373 63.5533 188.705 63.4321 188.882L63.328 189.066L55.7578 202.487L64.1423 207.859C64.6587 206.912 65.3321 205.739 66.0561 204.488L70.8348 196.016C70.9739 195.731 71.3145 195.069 71.8152 194.23L71.8033 194.206L71.9588 193.948C72.2564 193.448 72.6487 192.857 73.1088 192.244Z" fill="white"/>
<path d="M51.9454 229.495C52.8712 229.633 53.774 229.699 54.551 229.729C54.908 229.193 55.3 228.585 55.7192 227.92C57.1936 225.577 59.0231 222.484 60.9764 219.091L66.3615 221.645L62.5216 216.393L62.3518 216.161L61.8629 215.492L58.4478 210.822L53.0266 211.159L52.4581 211.195L45.2646 211.641L50.7406 214.238L46.4844 221.782C45.53 223.695 45.4652 225.152 45.9494 226.263C46.9068 228.171 49.5993 229.095 51.9454 229.495Z" fill="white"/>
<path d="M66.2173 230.725H56.6572C56.3482 230.743 55.6171 230.774 54.6588 230.749L54.6423 230.772L54.3453 230.763C53.6134 230.746 52.6794 230.668 51.6901 230.498C49.7815 230.204 47.7132 229.657 46.3477 228.405L53.1138 240.4C53.6907 240.754 54.1147 240.834 54.3218 240.855H54.5313H69.6719L70.0255 230.737C68.9665 230.749 67.6366 230.742 66.2173 230.725" fill="white"/>
<defs>
<clipPath id="clip0">
<rect width="55.2052" height="55.3287" transform="matrix(0.962673 -0.270667 0.215885 0.976419 84.9111 60.8423)" fill="white"/>
</clipPath>
</defs>
</svg>
